<?xml version="1.0" encoding="us-ascii" standalone="no"?><svg xmlns="http://www.w3.org/2000/svg" xmlns:xlink="http://www.w3.org/1999/xlink" contentStyleType="text/css" height="635px" preserveAspectRatio="none" style="width:392px;height:635px;background:#FFFFFF;" version="1.1" viewBox="0 0 392 635" width="392px" zoomAndPan="magnify"><defs/><g><g id="OK"><rect fill="#90EE90" height="88.1003" rx="12.5" ry="12.5" style="stroke:#181818;stroke-width:0.5;" width="142" x="44" y="122.41"/><line style="stroke:#181818;stroke-width:0.5;" x1="44" x2="186" y1="151.4779" y2="151.4779"/><text fill="#000000" font-family="sans-serif" font-size="14" lengthAdjust="spacing" textLength="20" x="105" y="142.3759">OK</text><text fill="#000000" font-family="sans-serif" font-size="12" lengthAdjust="spacing" textLength="120" x="49" y="169.306">Connector erreichbar</text><text fill="#000000" font-family="sans-serif" font-size="12" lengthAdjust="spacing" textLength="70" x="49" y="185.6501">fetch SDS ok</text><text fill="#000000" font-family="sans-serif" font-size="12" lengthAdjust="spacing" textLength="122" x="49" y="201.9942">VPNTI-Status "Online"</text></g><g id="WARNING"><rect fill="#FFFF00" height="88.1003" rx="12.5" ry="12.5" style="stroke:#181818;stroke-width:0.5;" width="143" x="43.5" y="270.51"/><line style="stroke:#181818;stroke-width:0.5;" x1="43.5" x2="186.5" y1="299.5779" y2="299.5779"/><text fill="#000000" font-family="sans-serif" font-size="14" lengthAdjust="spacing" textLength="68" x="81" y="290.4759">WARNING</text><text fill="#000000" font-family="sans-serif" font-size="12" lengthAdjust="spacing" textLength="120" x="48.5" y="317.406">Connector erreichbar</text><text fill="#000000" font-family="sans-serif" font-size="12" lengthAdjust="spacing" textLength="70" x="48.5" y="333.7501">fetch SDS ok</text><text fill="#000000" font-family="sans-serif" font-size="12" lengthAdjust="spacing" textLength="123" x="48.5" y="350.0942">VPNTI-Status "Offline"</text></g><g id="CRITICAL"><rect fill="#FF4500" height="55.412" rx="12.5" ry="12.5" style="stroke:#181818;stroke-width:0.5;" width="170" x="30" y="422.46"/><line style="stroke:#181818;stroke-width:0.5;" x1="30" x2="200" y1="451.5279" y2="451.5279"/><text fill="#000000" font-family="sans-serif" font-size="14" lengthAdjust="spacing" textLength="61" x="84.5" y="442.4259">CRITICAL</text><text fill="#000000" font-family="sans-serif" font-size="12" lengthAdjust="spacing" textLength="150" x="35" y="469.356">Connector nicht erreichbar</text></g><g id="UNKNOWN"><rect fill="#87CEFA" height="88.1003" rx="12.5" ry="12.5" style="stroke:#181818;stroke-width:0.5;" width="192" x="19" y="541.73"/><line style="stroke:#181818;stroke-width:0.5;" x1="19" x2="211" y1="570.7979" y2="570.7979"/><text fill="#000000" font-family="sans-serif" font-size="14" lengthAdjust="spacing" textLength="76" x="77" y="561.6959">UNKNOWN</text><text fill="#000000" font-family="sans-serif" font-size="12" lengthAdjust="spacing" textLength="120" x="24" y="588.626">Connector erreichbar</text><text fill="#000000" font-family="sans-serif" font-size="12" lengthAdjust="spacing" textLength="103" x="24" y="604.9701">fetch SDS failed or</text><text fill="#000000" font-family="sans-serif" font-size="12" lengthAdjust="spacing" textLength="172" x="24" y="621.3142">GetResourceInformation failed</text></g><g id="NOTHING"><rect fill="#D3D3D3" height="55.412" rx="12.5" ry="12.5" style="stroke:#181818;stroke-width:0.5;" width="216" x="7" y="7"/><line style="stroke:#181818;stroke-width:0.5;" x1="7" x2="223" y1="36.0679" y2="36.0679"/><text fill="#000000" font-family="sans-serif" font-size="14" lengthAdjust="spacing" textLength="66" x="82" y="26.9659">NOTHING</text><text fill="#000000" font-family="sans-serif" font-size="12" lengthAdjust="spacing" textLength="196" x="12" y="53.896">Configuration may be not complete</text></g><g id="elem_GMN7"><path d="M234.5,418.61 L234.5,446.17 L200.31,450.17 L234.5,454.17 L234.5,481.728 A0,0 0 0 0 234.5,481.728 L385.5,481.728 A0,0 0 0 0 385.5,481.728 L385.5,428.61 L375.5,418.61 L234.5,418.61 A0,0 0 0 0 234.5,418.61 " fill="#FEFFDD" style="stroke:#181818;stroke-width:0.5;"/><path d="M375.5,418.61 L375.5,428.61 L385.5,428.61 L375.5,418.61 " fill="#FEFFDD" style="stroke:#181818;stroke-width:0.5;"/><text fill="#000000" font-family="sans-serif" font-size="13" lengthAdjust="spacing" textLength="130" x="240.5" y="437.507">Connector erreichbar:</text><text fill="#000000" font-family="sans-serif" font-size="13" lengthAdjust="spacing" textLength="99" x="246.5" y="455.213">soap_request ok</text><text fill="#000000" font-family="sans-serif" font-size="13" lengthAdjust="spacing" textLength="66" x="246.5" y="472.919">OR Ping ok</text></g><!--link NOTHING to OK--><g id="link_NOTHING_OK"><path d="M115,62.91 C115,80 115,96.43 115,115.95 " fill="none" id="NOTHING-to-OK" style="stroke:#181818;stroke-width:1.0;"/><polygon fill="#181818" points="115,121.95,119,112.95,115,116.95,111,112.95,115,121.95" style="stroke:#181818;stroke-width:1.0;"/></g><!--link OK to WARNING--><g id="link_OK_WARNING"><path d="M115,210.9 C115,229.57 115,245.35 115,264.04 " fill="none" id="OK-to-WARNING" style="stroke:#181818;stroke-width:1.0;"/><polygon fill="#181818" points="115,270.04,119,261.04,115,265.04,111,261.04,115,270.04" style="stroke:#181818;stroke-width:1.0;"/></g><!--link WARNING to CRITICAL--><g id="link_WARNING_CRITICAL"><path d="M115,358.94 C115,379.82 115,398.19 115,416.34 " fill="none" id="WARNING-to-CRITICAL" style="stroke:#181818;stroke-width:1.0;"/><polygon fill="#181818" points="115,422.34,119,413.34,115,417.34,111,413.34,115,422.34" style="stroke:#181818;stroke-width:1.0;"/></g><!--link CRITICAL to UNKNOWN--><g id="link_CRITICAL_UNKNOWN"><path d="M115,478.21 C115,496.36 115,514.66 115,535.48 " fill="none" id="CRITICAL-to-UNKNOWN" style="stroke:#181818;stroke-width:1.0;"/><polygon fill="#181818" points="115,541.48,119,532.48,115,536.48,111,532.48,115,541.48" style="stroke:#181818;stroke-width:1.0;"/></g><!--SRC=[TP91Ri8m44NtSueHMNC15fKebMW4Sb2I5dLLcJ1EB8nD7KSLjw_ZEWbKPMV_6S_x-kFMSKUORJ1HicvSROaqGBPPuCfeJPKp5ibQabLpu3OK1BcgmUAbG7CAmlkEbUcyy9Ew5cUPLbBJ3A0De_VBdALiZSa7AMM-0QBm031MxoYZ-WSbn1rhbQTbkbfkCJ6Mwvei7G46yHQeFStTOkE0DxPXsPvXikt3A4xNPzKHG9GVM1whasN1fQ8Z-hwfkYQNKsiwMr6gXR5dxgJHiNKmmBBoDQGL3AmjNG6Y5kX2rftzVNZcLpmGQkEmCkUB8kUT-XkXxT-Y4MCUy9_l1I2sXby-BNrrrBe-PyGinvtKTNyXVUodq-W0v_Cd_rNypiCfBcLOJj0cuh2ANeqP_000]--></g></svg>