<?xml version="1.0" encoding="us-ascii" standalone="no"?><svg xmlns="http://www.w3.org/2000/svg" xmlns:xlink="http://www.w3.org/1999/xlink" contentStyleType="text/css" height="1347px" preserveAspectRatio="none" style="width:826px;height:1347px;background:#FFFFFF;" version="1.1" viewBox="0 0 826 1347" width="826px" zoomAndPan="magnify"><defs><filter height="300%" id="f4p980ekjk3mp" width="300%" x="-1" y="-1"><feGaussianBlur result="blurOut" stdDeviation="2.0"/><feColorMatrix in="blurOut" result="blurOut2" type="matrix" values="0 0 0 0 0 0 0 0 0 0 0 0 0 0 0 0 0 0 .4 0"/><feOffset dx="4.0" dy="4.0" in="blurOut2" result="blurOut3"/><feBlend in="SourceGraphic" in2="blurOut3" mode="normal"/></filter></defs><g><!--class Connector--><g id="elem_Connector"><rect codeLine="5" fill="#FFF1D9" filter="url(#f4p980ekjk3mp)" height="334.0188" id="Connector" rx="5" ry="5" style="stroke:#181818;stroke-width:0.5;" width="222" x="86" y="503.49"/><rect fill="#FFD080" height="32" rx="5" ry="5" style="stroke:#FFD080;stroke-width:0.5;" width="222" x="86" y="503.49"/><rect fill="#FFD080" height="5" style="stroke:#FFD080;stroke-width:0.5;" width="222" x="86" y="530.49"/><rect codeLine="5" fill="none" height="334.0188" id="Connector" rx="5" ry="5" style="stroke:#181818;stroke-width:0.5;" width="222" x="86" y="503.49"/><ellipse cx="158.25" cy="519.49" fill="#ADD1B2" rx="11" ry="11" style="stroke:#181818;stroke-width:1.0;"/><path d="M158.3594,515.0213 Q157.4375,515.0213 156.7031,515.3338 Q155.9844,515.6463 155.4844,516.24 Q154.9844,516.8181 154.7031,517.6931 Q154.4375,518.5681 154.4375,519.6619 Q154.4375,521.0994 154.875,522.1463 Q155.3281,523.1931 156.1719,523.74 Q157.0313,524.2869 158.3438,524.2869 Q159.125,524.2869 159.8125,524.1619 Q160.5156,524.0213 161.5156,523.7088 L161.5156,525.5838 Q160.6563,525.9119 159.8906,526.0369 Q159.1406,526.1619 158.125,526.1619 Q156.2031,526.1619 154.8906,525.365 Q153.5938,524.5525 152.9375,523.0838 Q152.2813,521.5994 152.2813,519.6306 Q152.2813,518.2088 152.6719,517.0369 Q153.0781,515.8494 153.8594,514.9744 Q154.6406,514.0994 155.7813,513.6306 Q156.9219,513.1463 158.3906,513.1463 Q159.3438,513.1463 160.2344,513.3494 Q161.1406,513.5369 162.0781,514.0056 L161.25,515.7869 Q160.4688,515.4119 159.8125,515.2244 Q159.1563,515.0213 158.3594,515.0213 Z " fill="#000000"/><text fill="#000000" font-family="sans-serif" font-size="14" lengthAdjust="spacing" textLength="69" x="178.75" y="524.922">Connector</text><line style="stroke:#181818;stroke-width:0.5;" x1="87" x2="307" y1="535.49" y2="535.49"/><text fill="#000000" font-family="sans-serif" font-size="14" lengthAdjust="spacing" textLength="86" x="92" y="554.4559">name: string</text><text fill="#000000" font-family="sans-serif" font-size="14" lengthAdjust="spacing" textLength="141" x="92" y="573.5239">description: rich_text</text><text fill="#000000" font-family="sans-serif" font-size="14" lengthAdjust="spacing" textLength="47" x="92" y="592.5918">ip: inet</text><text fill="#000000" font-family="sans-serif" font-size="14" lengthAdjust="spacing" textLength="116" x="92" y="611.6597">admin_url: string</text><text fill="#000000" font-family="sans-serif" font-size="14" lengthAdjust="spacing" textLength="96" x="92" y="630.7276">sds_url: string</text><text fill="#000000" font-family="sans-serif" font-size="14" lengthAdjust="spacing" textLength="167" x="92" y="649.7955">manual_update: boolean</text><line style="stroke:#181818;stroke-width:1.0;" x1="87" x2="307" y1="657.8975" y2="657.8975"/><text fill="#000000" font-family="sans-serif" font-size="14" lengthAdjust="spacing" textLength="86" x="92" y="676.8634">sds_xml: text</text><text fill="#000000" font-family="sans-serif" font-size="14" lengthAdjust="spacing" textLength="185" x="92" y="695.9314">sds_updated_at: timestamp</text><text fill="#000000" font-family="sans-serif" font-size="14" lengthAdjust="spacing" textLength="172" x="92" y="714.9993">connector_services: jsonb</text><text fill="#000000" font-family="sans-serif" font-size="14" lengthAdjust="spacing" textLength="148" x="92" y="734.0672">last_check: timestamp</text><text fill="#000000" font-family="sans-serif" font-size="14" lengthAdjust="spacing" textLength="169" x="92" y="753.1351">last_check_ok: timestamp</text><text fill="#000000" font-family="sans-serif" font-size="14" lengthAdjust="spacing" textLength="120" x="92" y="772.203">condition: integer</text><text fill="#000000" font-family="sans-serif" font-size="14" lengthAdjust="spacing" textLength="210" x="92" y="791.2709">soap_request_success: boolean</text><text fill="#000000" font-family="sans-serif" font-size="14" lengthAdjust="spacing" textLength="144" x="92" y="810.3389">vpnti_online: boolean</text><text fill="#000000" font-family="sans-serif" font-size="14" lengthAdjust="spacing" textLength="164" x="92" y="829.4068">firmware_version: string</text></g><!--class CardTerminal--><g id="elem_CardTerminal"><rect codeLine="24" fill="#FFF1D9" filter="url(#f4p980ekjk3mp)" height="429.3583" id="CardTerminal" rx="5" ry="5" style="stroke:#181818;stroke-width:0.5;" width="176" x="343" y="455.82"/><rect fill="#FFD080" height="32" rx="5" ry="5" style="stroke:#FFD080;stroke-width:0.5;" width="176" x="343" y="455.82"/><rect fill="#FFD080" height="5" style="stroke:#FFD080;stroke-width:0.5;" width="176" x="343" y="482.82"/><rect codeLine="24" fill="none" height="429.3583" id="CardTerminal" rx="5" ry="5" style="stroke:#181818;stroke-width:0.5;" width="176" x="343" y="455.82"/><ellipse cx="381.4" cy="471.82" fill="#ADD1B2" rx="11" ry="11" style="stroke:#181818;stroke-width:1.0;"/><path d="M381.5094,467.3513 Q380.5875,467.3513 379.8531,467.6638 Q379.1344,467.9763 378.6344,468.57 Q378.1344,469.1481 377.8531,470.0231 Q377.5875,470.8981 377.5875,471.9919 Q377.5875,473.4294 378.025,474.4763 Q378.4781,475.5231 379.3219,476.07 Q380.1813,476.6169 381.4938,476.6169 Q382.275,476.6169 382.9625,476.4919 Q383.6656,476.3513 384.6656,476.0388 L384.6656,477.9138 Q383.8063,478.2419 383.0406,478.3669 Q382.2906,478.4919 381.275,478.4919 Q379.3531,478.4919 378.0406,477.695 Q376.7438,476.8825 376.0875,475.4138 Q375.4313,473.9294 375.4313,471.9606 Q375.4313,470.5388 375.8219,469.3669 Q376.2281,468.1794 377.0094,467.3044 Q377.7906,466.4294 378.9313,465.9606 Q380.0719,465.4763 381.5406,465.4763 Q382.4938,465.4763 383.3844,465.6794 Q384.2906,465.8669 385.2281,466.3356 L384.4,468.1169 Q383.6188,467.7419 382.9625,467.5544 Q382.3063,467.3513 381.5094,467.3513 Z " fill="#000000"/><text fill="#000000" font-family="sans-serif" font-size="14" lengthAdjust="spacing" textLength="92" x="400.6" y="477.252">CardTerminal</text><line style="stroke:#181818;stroke-width:0.5;" x1="344" x2="518" y1="487.82" y2="487.82"/><text fill="#000000" font-family="sans-serif" font-size="14" lengthAdjust="spacing" textLength="134" x="349" y="506.7859">displayname: string</text><text fill="#000000" font-family="sans-serif" font-size="14" lengthAdjust="spacing" textLength="141" x="349" y="525.8539">description: rich_text</text><text fill="#000000" font-family="sans-serif" font-size="14" lengthAdjust="spacing" textLength="83" x="349" y="544.9218">room: string</text><text fill="#000000" font-family="sans-serif" font-size="14" lengthAdjust="spacing" textLength="97" x="349" y="563.9897">contact: string</text><text fill="#000000" font-family="sans-serif" font-size="14" lengthAdjust="spacing" textLength="124" x="349" y="583.0576">plugged_in: string</text><text fill="#000000" font-family="sans-serif" font-size="14" lengthAdjust="spacing" textLength="127" x="349" y="602.1255">delivery_date: date</text><text fill="#000000" font-family="sans-serif" font-size="14" lengthAdjust="spacing" textLength="104" x="349" y="621.1934">supplier: string</text><text fill="#000000" font-family="sans-serif" font-size="14" lengthAdjust="spacing" textLength="85" x="349" y="640.2614">serial: string</text><text fill="#000000" font-family="sans-serif" font-size="14" lengthAdjust="spacing" textLength="120" x="349" y="659.3293">id_product: string</text><text fill="#000000" font-family="sans-serif" font-size="14" lengthAdjust="spacing" textLength="72" x="349" y="678.3972">location_id</text><line style="stroke:#181818;stroke-width:1.0;" x1="344" x2="518" y1="686.4992" y2="686.4992"/><text fill="#000000" font-family="sans-serif" font-size="14" lengthAdjust="spacing" textLength="115" x="349" y="705.4651">properties: jsonb</text><text fill="#000000" font-family="sans-serif" font-size="14" lengthAdjust="spacing" textLength="86" x="349" y="724.533">name: string</text><text fill="#000000" font-family="sans-serif" font-size="14" lengthAdjust="spacing" textLength="79" x="349" y="743.6009">ct_id: string</text><text fill="#000000" font-family="sans-serif" font-size="14" lengthAdjust="spacing" textLength="96" x="349" y="762.6689">mac: macaddr</text><text fill="#000000" font-family="sans-serif" font-size="14" lengthAdjust="spacing" textLength="47" x="349" y="781.7368">ip: inet</text><text fill="#000000" font-family="sans-serif" font-size="14" lengthAdjust="spacing" textLength="88" x="349" y="800.8047">slots: integer</text><text fill="#000000" font-family="sans-serif" font-size="14" lengthAdjust="spacing" textLength="132" x="349" y="819.8726">connected: boolean</text><text fill="#000000" font-family="sans-serif" font-size="14" lengthAdjust="spacing" textLength="120" x="349" y="838.9405">condition: integer</text><text fill="#000000" font-family="sans-serif" font-size="14" lengthAdjust="spacing" textLength="164" x="349" y="858.0084">firmware_version: string</text><text fill="#000000" font-family="sans-serif" font-size="14" lengthAdjust="spacing" textLength="86" x="349" y="877.0764">connector_id</text></g><!--class Location--><g id="elem_Location"><rect codeLine="48" fill="#FFF1D9" filter="url(#f4p980ekjk3mp)" height="86.1358" id="Location" rx="5" ry="5" style="stroke:#181818;stroke-width:0.5;" width="136" x="420" y="200.81"/><rect fill="#FFD080" height="32" rx="5" ry="5" style="stroke:#FFD080;stroke-width:0.5;" width="136" x="420" y="200.81"/><rect fill="#FFD080" height="5" style="stroke:#FFD080;stroke-width:0.5;" width="136" x="420" y="227.81"/><rect codeLine="48" fill="none" height="86.1358" id="Location" rx="5" ry="5" style="stroke:#181818;stroke-width:0.5;" width="136" x="420" y="200.81"/><ellipse cx="456.6" cy="216.81" fill="#ADD1B2" rx="11" ry="11" style="stroke:#181818;stroke-width:1.0;"/><path d="M456.7094,212.3412 Q455.7875,212.3412 455.0531,212.6537 Q454.3344,212.9662 453.8344,213.56 Q453.3344,214.1381 453.0531,215.0131 Q452.7875,215.8881 452.7875,216.9819 Q452.7875,218.4194 453.225,219.4662 Q453.6781,220.5131 454.5219,221.06 Q455.3813,221.6069 456.6938,221.6069 Q457.475,221.6069 458.1625,221.4819 Q458.8656,221.3412 459.8656,221.0287 L459.8656,222.9037 Q459.0063,223.2319 458.2406,223.3569 Q457.4906,223.4819 456.475,223.4819 Q454.5531,223.4819 453.2406,222.685 Q451.9438,221.8725 451.2875,220.4037 Q450.6313,218.9194 450.6313,216.9506 Q450.6313,215.5287 451.0219,214.3569 Q451.4281,213.1694 452.2094,212.2944 Q452.9906,211.4194 454.1313,210.9506 Q455.2719,210.4662 456.7406,210.4662 Q457.6938,210.4662 458.5844,210.6694 Q459.4906,210.8569 460.4281,211.3256 L459.6,213.1069 Q458.8188,212.7319 458.1625,212.5444 Q457.5063,212.3412 456.7094,212.3412 Z " fill="#000000"/><text fill="#000000" font-family="sans-serif" font-size="14" lengthAdjust="spacing" textLength="56" x="475.4" y="222.242">Location</text><line style="stroke:#181818;stroke-width:0.5;" x1="421" x2="555" y1="232.81" y2="232.81"/><text fill="#000000" font-family="sans-serif" font-size="14" lengthAdjust="spacing" textLength="65" x="426" y="251.7759">lid: string</text><text fill="#000000" font-family="sans-serif" font-size="14" lengthAdjust="spacing" textLength="124" x="426" y="270.8439">description: string</text><line style="stroke:#181818;stroke-width:0.5;" x1="421" x2="555" y1="278.9458" y2="278.9458"/></g><!--class Context--><g id="elem_Context"><rect codeLine="53" fill="#FFF1D9" filter="url(#f4p980ekjk3mp)" height="124.2717" id="Context" rx="5" ry="5" style="stroke:#181818;stroke-width:0.5;" width="150" x="233" y="7"/><rect fill="#FFD080" height="32" rx="5" ry="5" style="stroke:#FFD080;stroke-width:0.5;" width="150" x="233" y="7"/><rect fill="#FFD080" height="5" style="stroke:#FFD080;stroke-width:0.5;" width="150" x="233" y="34"/><rect codeLine="53" fill="none" height="124.2717" id="Context" rx="5" ry="5" style="stroke:#181818;stroke-width:0.5;" width="150" x="233" y="7"/><ellipse cx="278.25" cy="23" fill="#ADD1B2" rx="11" ry="11" style="stroke:#181818;stroke-width:1.0;"/><path d="M278.3594,18.5313 Q277.4375,18.5313 276.7031,18.8438 Q275.9844,19.1563 275.4844,19.75 Q274.9844,20.3281 274.7031,21.2031 Q274.4375,22.0781 274.4375,23.1719 Q274.4375,24.6094 274.875,25.6563 Q275.3281,26.7031 276.1719,27.25 Q277.0313,27.7969 278.3438,27.7969 Q279.125,27.7969 279.8125,27.6719 Q280.5156,27.5313 281.5156,27.2188 L281.5156,29.0938 Q280.6563,29.4219 279.8906,29.5469 Q279.1406,29.6719 278.125,29.6719 Q276.2031,29.6719 274.8906,28.875 Q273.5938,28.0625 272.9375,26.5938 Q272.2813,25.1094 272.2813,23.1406 Q272.2813,21.7188 272.6719,20.5469 Q273.0781,19.3594 273.8594,18.4844 Q274.6406,17.6094 275.7813,17.1406 Q276.9219,16.6563 278.3906,16.6563 Q279.3438,16.6563 280.2344,16.8594 Q281.1406,17.0469 282.0781,17.5156 L281.25,19.2969 Q280.4688,18.9219 279.8125,18.7344 Q279.1563,18.5313 278.3594,18.5313 Z " fill="#000000"/><text fill="#000000" font-family="sans-serif" font-size="14" lengthAdjust="spacing" textLength="51" x="298.75" y="28.432">Context</text><line style="stroke:#181818;stroke-width:0.5;" x1="234" x2="382" y1="39" y2="39"/><text fill="#000000" font-family="sans-serif" font-size="14" lengthAdjust="spacing" textLength="109" x="239" y="57.9659">mandant: string</text><text fill="#000000" font-family="sans-serif" font-size="14" lengthAdjust="spacing" textLength="138" x="239" y="77.0339">client_system: string</text><text fill="#000000" font-family="sans-serif" font-size="14" lengthAdjust="spacing" textLength="116" x="239" y="96.1018">workplace: string</text><text fill="#000000" font-family="sans-serif" font-size="14" lengthAdjust="spacing" textLength="124" x="239" y="115.1697">description: string</text><line style="stroke:#181818;stroke-width:0.5;" x1="234" x2="382" y1="123.2717" y2="123.2717"/></g><!--class ConnectorContext--><g id="elem_ConnectorContext"><rect codeLine="60" fill="#FFF1D9" filter="url(#f4p980ekjk3mp)" height="105.2038" id="ConnectorContext" rx="5" ry="5" style="stroke:#181818;stroke-width:0.5;" width="152" x="45" y="191.27"/><rect fill="#FFD080" height="32" rx="5" ry="5" style="stroke:#FFD080;stroke-width:0.5;" width="152" x="45" y="191.27"/><rect fill="#FFD080" height="5" style="stroke:#FFD080;stroke-width:0.5;" width="152" x="45" y="218.27"/><rect codeLine="60" fill="none" height="105.2038" id="ConnectorContext" rx="5" ry="5" style="stroke:#181818;stroke-width:0.5;" width="152" x="45" y="191.27"/><ellipse cx="60" cy="207.27" fill="#ADD1B2" rx="11" ry="11" style="stroke:#181818;stroke-width:1.0;"/><path d="M60.1094,202.8012 Q59.1875,202.8012 58.4531,203.1137 Q57.7344,203.4262 57.2344,204.02 Q56.7344,204.5981 56.4531,205.4731 Q56.1875,206.3481 56.1875,207.4419 Q56.1875,208.8794 56.625,209.9262 Q57.0781,210.9731 57.9219,211.52 Q58.7813,212.0669 60.0938,212.0669 Q60.875,212.0669 61.5625,211.9419 Q62.2656,211.8012 63.2656,211.4887 L63.2656,213.3637 Q62.4063,213.6919 61.6406,213.8169 Q60.8906,213.9419 59.875,213.9419 Q57.9531,213.9419 56.6406,213.145 Q55.3438,212.3325 54.6875,210.8637 Q54.0313,209.3794 54.0313,207.4106 Q54.0313,205.9887 54.4219,204.8169 Q54.8281,203.6294 55.6094,202.7544 Q56.3906,201.8794 57.5313,201.4106 Q58.6719,200.9262 60.1406,200.9262 Q61.0938,200.9262 61.9844,201.1294 Q62.8906,201.3169 63.8281,201.7856 L63,203.5669 Q62.2188,203.1919 61.5625,203.0044 Q60.9063,202.8012 60.1094,202.8012 Z " fill="#000000"/><text fill="#000000" font-family="sans-serif" font-size="14" lengthAdjust="spacing" textLength="120" x="74" y="212.702">ConnectorContext</text><line style="stroke:#181818;stroke-width:0.5;" x1="46" x2="196" y1="223.27" y2="223.27"/><text fill="#000000" font-family="sans-serif" font-size="14" lengthAdjust="spacing" textLength="86" x="51" y="242.2359">connector_id</text><text fill="#000000" font-family="sans-serif" font-size="14" lengthAdjust="spacing" textLength="68" x="51" y="261.3039">context_id</text><text fill="#000000" font-family="sans-serif" font-size="14" lengthAdjust="spacing" textLength="111" x="51" y="280.3718">position: integer</text><line style="stroke:#181818;stroke-width:0.5;" x1="46" x2="196" y1="288.4738" y2="288.4738"/></g><!--class Card--><g id="elem_Card"><rect codeLine="66" fill="#FFF1D9" filter="url(#f4p980ekjk3mp)" height="628.0375" id="Card" rx="5" ry="5" style="stroke:#181818;stroke-width:0.5;" width="222" x="554" y="356.48"/><rect fill="#FFD080" height="32" rx="5" ry="5" style="stroke:#FFD080;stroke-width:0.5;" width="222" x="554" y="356.48"/><rect fill="#FFD080" height="5" style="stroke:#FFD080;stroke-width:0.5;" width="222" x="554" y="383.48"/><rect codeLine="66" fill="none" height="628.0375" id="Card" rx="5" ry="5" style="stroke:#181818;stroke-width:0.5;" width="222" x="554" y="356.48"/><ellipse cx="644.75" cy="372.48" fill="#ADD1B2" rx="11" ry="11" style="stroke:#181818;stroke-width:1.0;"/><path d="M644.8594,368.0113 Q643.9375,368.0113 643.2031,368.3238 Q642.4844,368.6363 641.9844,369.23 Q641.4844,369.8081 641.2031,370.6831 Q640.9375,371.5581 640.9375,372.6519 Q640.9375,374.0894 641.375,375.1363 Q641.8281,376.1831 642.6719,376.73 Q643.5313,377.2769 644.8438,377.2769 Q645.625,377.2769 646.3125,377.1519 Q647.0156,377.0113 648.0156,376.6988 L648.0156,378.5738 Q647.1563,378.9019 646.3906,379.0269 Q645.6406,379.1519 644.625,379.1519 Q642.7031,379.1519 641.3906,378.355 Q640.0938,377.5425 639.4375,376.0738 Q638.7813,374.5894 638.7813,372.6206 Q638.7813,371.1988 639.1719,370.0269 Q639.5781,368.8394 640.3594,367.9644 Q641.1406,367.0894 642.2813,366.6206 Q643.4219,366.1363 644.8906,366.1363 Q645.8438,366.1363 646.7344,366.3394 Q647.6406,366.5269 648.5781,366.9956 L647.75,368.7769 Q646.9688,368.4019 646.3125,368.2144 Q645.6563,368.0113 644.8594,368.0113 Z " fill="#000000"/><text fill="#000000" font-family="sans-serif" font-size="14" lengthAdjust="spacing" textLength="32" x="665.25" y="377.912">Card</text><line style="stroke:#181818;stroke-width:0.5;" x1="555" x2="775" y1="388.48" y2="388.48"/><text fill="#000000" font-family="sans-serif" font-size="14" lengthAdjust="spacing" textLength="86" x="560" y="407.4459">name: string</text><text fill="#000000" font-family="sans-serif" font-size="14" lengthAdjust="spacing" textLength="141" x="560" y="426.5139">description: rich_text</text><text fill="#000000" font-family="sans-serif" font-size="14" lengthAdjust="spacing" textLength="135" x="560" y="445.5818">operational_state_id</text><text fill="#000000" font-family="sans-serif" font-size="14" lengthAdjust="spacing" textLength="72" x="560" y="464.6497">location_id</text><text fill="#000000" font-family="sans-serif" font-size="14" lengthAdjust="spacing" textLength="75" x="560" y="483.7176">lanr: string</text><text fill="#000000" font-family="sans-serif" font-size="14" lengthAdjust="spacing" textLength="135" x="560" y="502.7855">fachrichtung: string</text><text fill="#000000" font-family="sans-serif" font-size="14" lengthAdjust="spacing" textLength="79" x="560" y="521.8534">bsnr: string</text><text fill="#000000" font-family="sans-serif" font-size="14" lengthAdjust="spacing" textLength="123" x="560" y="540.9214">telematikid: string</text><text fill="#000000" font-family="sans-serif" font-size="14" lengthAdjust="spacing" textLength="197" x="560" y="559.9893">private_information: rich_text</text><text fill="#000000" font-family="sans-serif" font-size="14" lengthAdjust="spacing" textLength="68" x="560" y="579.0572">context_id</text><line style="stroke:#181818;stroke-width:1.0;" x1="555" x2="775" y1="587.1592" y2="587.1592"/><text fill="#000000" font-family="sans-serif" font-size="14" lengthAdjust="spacing" textLength="115" x="560" y="606.1251">properties: jsonb</text><text fill="#000000" font-family="sans-serif" font-size="14" lengthAdjust="spacing" textLength="131" x="560" y="625.193">card_handle: string</text><text fill="#000000" font-family="sans-serif" font-size="14" lengthAdjust="spacing" textLength="113" x="560" y="644.2609">card_type: string</text><text fill="#000000" font-family="sans-serif" font-size="14" lengthAdjust="spacing" textLength="82" x="560" y="663.3289">iccsn: string</text><text fill="#000000" font-family="sans-serif" font-size="14" lengthAdjust="spacing" textLength="94" x="560" y="682.3968">slotid: integer</text><text fill="#000000" font-family="sans-serif" font-size="14" lengthAdjust="spacing" textLength="155" x="560" y="701.4647">insert_time: timestamp</text><text fill="#000000" font-family="sans-serif" font-size="14" lengthAdjust="spacing" textLength="172" x="560" y="720.5326">card_holder_name: string</text><text fill="#000000" font-family="sans-serif" font-size="14" lengthAdjust="spacing" textLength="142" x="560" y="739.6005">expiration_date: date</text><text fill="#000000" font-family="sans-serif" font-size="14" lengthAdjust="spacing" textLength="120" x="560" y="758.6684">condition: integer</text><text fill="#000000" font-family="sans-serif" font-size="14" lengthAdjust="spacing" textLength="117" x="560" y="777.7364">pin_status: string</text><text fill="#000000" font-family="sans-serif" font-size="14" lengthAdjust="spacing" textLength="112" x="560" y="796.8043">card_terminal_id</text><line style="stroke:#181818;stroke-width:1.0;" x1="555" x2="775" y1="804.9063" y2="804.9063"/><text fill="#000000" font-family="sans-serif" font-size="14" lengthAdjust="spacing" textLength="96" x="560" y="823.8722">certificate:text</text><text fill="#000000" font-family="sans-serif" font-size="14" lengthAdjust="spacing" textLength="151" x="560" y="842.9401">cert_subject_cn: string</text><text fill="#000000" font-family="sans-serif" font-size="14" lengthAdjust="spacing" textLength="161" x="560" y="862.008">cert_subject_title: string</text><text fill="#000000" font-family="sans-serif" font-size="14" lengthAdjust="spacing" textLength="151" x="560" y="881.0759">cert_subject_sn: string</text><text fill="#000000" font-family="sans-serif" font-size="14" lengthAdjust="spacing" textLength="210" x="560" y="900.1439">cert_subject_givenname: string</text><text fill="#000000" font-family="sans-serif" font-size="14" lengthAdjust="spacing" textLength="174" x="560" y="919.2118">cert_subject_street: string</text><text fill="#000000" font-family="sans-serif" font-size="14" lengthAdjust="spacing" textLength="208" x="560" y="938.2797">cert_subject_postalcode: string</text><text fill="#000000" font-family="sans-serif" font-size="14" lengthAdjust="spacing" textLength="139" x="560" y="957.3476">cert_subject_l: string</text><text fill="#000000" font-family="sans-serif" font-size="14" lengthAdjust="spacing" textLength="143" x="560" y="976.4155">cert_subject_o: string</text></g><!--class Workplace--><g id="elem_Workplace"><rect codeLine="101" fill="#FFF1D9" filter="url(#f4p980ekjk3mp)" height="86.1358" id="Workplace" rx="5" ry="5" style="stroke:#181818;stroke-width:0.5;" width="136" x="303" y="1247.85"/><rect fill="#FFD080" height="32" rx="5" ry="5" style="stroke:#FFD080;stroke-width:0.5;" width="136" x="303" y="1247.85"/><rect fill="#FFD080" height="5" style="stroke:#FFD080;stroke-width:0.5;" width="136" x="303" y="1274.85"/><rect codeLine="101" fill="none" height="86.1358" id="Workplace" rx="5" ry="5" style="stroke:#181818;stroke-width:0.5;" width="136" x="303" y="1247.85"/><ellipse cx="333.3" cy="1263.85" fill="#ADD1B2" rx="11" ry="11" style="stroke:#181818;stroke-width:1.0;"/><path d="M333.4094,1259.3813 Q332.4875,1259.3813 331.7531,1259.6938 Q331.0344,1260.0063 330.5344,1260.6 Q330.0344,1261.1781 329.7531,1262.0531 Q329.4875,1262.9281 329.4875,1264.0219 Q329.4875,1265.4594 329.925,1266.5063 Q330.3781,1267.5531 331.2219,1268.1 Q332.0813,1268.6469 333.3938,1268.6469 Q334.175,1268.6469 334.8625,1268.5219 Q335.5656,1268.3813 336.5656,1268.0688 L336.5656,1269.9438 Q335.7063,1270.2719 334.9406,1270.3969 Q334.1906,1270.5219 333.175,1270.5219 Q331.2531,1270.5219 329.9406,1269.725 Q328.6438,1268.9125 327.9875,1267.4438 Q327.3313,1265.9594 327.3313,1263.9906 Q327.3313,1262.5688 327.7219,1261.3969 Q328.1281,1260.2094 328.9094,1259.3344 Q329.6906,1258.4594 330.8313,1257.9906 Q331.9719,1257.5063 333.4406,1257.5063 Q334.3938,1257.5063 335.2844,1257.7094 Q336.1906,1257.8969 337.1281,1258.3656 L336.3,1260.1469 Q335.5188,1259.7719 334.8625,1259.5844 Q334.2063,1259.3813 333.4094,1259.3813 Z " fill="#000000"/><text fill="#000000" font-family="sans-serif" font-size="14" lengthAdjust="spacing" textLength="70" x="350.7" y="1269.282">Workplace</text><line style="stroke:#181818;stroke-width:0.5;" x1="304" x2="438" y1="1279.85" y2="1279.85"/><text fill="#000000" font-family="sans-serif" font-size="14" lengthAdjust="spacing" textLength="124" x="309" y="1298.8159">description: string</text><line style="stroke:#181818;stroke-width:1.0;" x1="304" x2="438" y1="1306.9179" y2="1306.9179"/><text fill="#000000" font-family="sans-serif" font-size="14" lengthAdjust="spacing" textLength="86" x="309" y="1325.8839">name: string</text></g><!--class TerminalWorkplaces--><g id="elem_TerminalWorkplaces"><rect codeLine="106" fill="#FFF1D9" filter="url(#f4p980ekjk3mp)" height="143.3396" id="TerminalWorkplaces" rx="5" ry="5" style="stroke:#181818;stroke-width:0.5;" width="169" x="164.5" y="1044.51"/><rect fill="#FFD080" height="32" rx="5" ry="5" style="stroke:#FFD080;stroke-width:0.5;" width="169" x="164.5" y="1044.51"/><rect fill="#FFD080" height="5" style="stroke:#FFD080;stroke-width:0.5;" width="169" x="164.5" y="1071.51"/><rect codeLine="106" fill="none" height="143.3396" id="TerminalWorkplaces" rx="5" ry="5" style="stroke:#181818;stroke-width:0.5;" width="169" x="164.5" y="1044.51"/><ellipse cx="179.5" cy="1060.51" fill="#ADD1B2" rx="11" ry="11" style="stroke:#181818;stroke-width:1.0;"/><path d="M179.6094,1056.0413 Q178.6875,1056.0413 177.9531,1056.3538 Q177.2344,1056.6663 176.7344,1057.26 Q176.2344,1057.8381 175.9531,1058.7131 Q175.6875,1059.5881 175.6875,1060.6819 Q175.6875,1062.1194 176.125,1063.1663 Q176.5781,1064.2131 177.4219,1064.76 Q178.2813,1065.3069 179.5938,1065.3069 Q180.375,1065.3069 181.0625,1065.1819 Q181.7656,1065.0413 182.7656,1064.7288 L182.7656,1066.6038 Q181.9063,1066.9319 181.1406,1067.0569 Q180.3906,1067.1819 179.375,1067.1819 Q177.4531,1067.1819 176.1406,1066.385 Q174.8438,1065.5725 174.1875,1064.1038 Q173.5313,1062.6194 173.5313,1060.6506 Q173.5313,1059.2288 173.9219,1058.0569 Q174.3281,1056.8694 175.1094,1055.9944 Q175.8906,1055.1194 177.0313,1054.6506 Q178.1719,1054.1663 179.6406,1054.1663 Q180.5938,1054.1663 181.4844,1054.3694 Q182.3906,1054.5569 183.3281,1055.0256 L182.5,1056.8069 Q181.7188,1056.4319 181.0625,1056.2444 Q180.4063,1056.0413 179.6094,1056.0413 Z " fill="#000000"/><text fill="#000000" font-family="sans-serif" font-size="14" lengthAdjust="spacing" textLength="137" x="193.5" y="1065.942">TerminalWorkplaces</text><line style="stroke:#181818;stroke-width:0.5;" x1="165.5" x2="332.5" y1="1076.51" y2="1076.51"/><text fill="#000000" font-family="sans-serif" font-size="14" lengthAdjust="spacing" textLength="112" x="170.5" y="1095.4759">card_terminal_id</text><text fill="#000000" font-family="sans-serif" font-size="14" lengthAdjust="spacing" textLength="87" x="170.5" y="1114.5439">workplace_id</text><text fill="#000000" font-family="sans-serif" font-size="14" lengthAdjust="spacing" textLength="109" x="170.5" y="1133.6118">mandant: string</text><text fill="#000000" font-family="sans-serif" font-size="14" lengthAdjust="spacing" textLength="138" x="170.5" y="1152.6797">client_system: string</text><text fill="#000000" font-family="sans-serif" font-size="14" lengthAdjust="spacing" textLength="76" x="170.5" y="1171.7476">updated_at</text><line style="stroke:#181818;stroke-width:0.5;" x1="165.5" x2="332.5" y1="1179.8496" y2="1179.8496"/></g><!--class OperationalState--><g id="elem_OperationalState"><rect codeLine="113" fill="#FFF1D9" filter="url(#f4p980ekjk3mp)" height="105.2038" id="OperationalState" rx="5" ry="5" style="stroke:#181818;stroke-width:0.5;" width="151" x="661.5" y="191.27"/><rect fill="#FFD080" height="32" rx="5" ry="5" style="stroke:#FFD080;stroke-width:0.5;" width="151" x="661.5" y="191.27"/><rect fill="#FFD080" height="5" style="stroke:#FFD080;stroke-width:0.5;" width="151" x="661.5" y="218.27"/><rect codeLine="113" fill="none" height="105.2038" id="OperationalState" rx="5" ry="5" style="stroke:#181818;stroke-width:0.5;" width="151" x="661.5" y="191.27"/><ellipse cx="678.75" cy="207.27" fill="#ADD1B2" rx="11" ry="11" style="stroke:#181818;stroke-width:1.0;"/><path d="M678.8594,202.8012 Q677.9375,202.8012 677.2031,203.1137 Q676.4844,203.4262 675.9844,204.02 Q675.4844,204.5981 675.2031,205.4731 Q674.9375,206.3481 674.9375,207.4419 Q674.9375,208.8794 675.375,209.9262 Q675.8281,210.9731 676.6719,211.52 Q677.5313,212.0669 678.8438,212.0669 Q679.625,212.0669 680.3125,211.9419 Q681.0156,211.8012 682.0156,211.4887 L682.0156,213.3637 Q681.1563,213.6919 680.3906,213.8169 Q679.6406,213.9419 678.625,213.9419 Q676.7031,213.9419 675.3906,213.145 Q674.0938,212.3325 673.4375,210.8637 Q672.7813,209.3794 672.7813,207.4106 Q672.7813,205.9887 673.1719,204.8169 Q673.5781,203.6294 674.3594,202.7544 Q675.1406,201.8794 676.2813,201.4106 Q677.4219,200.9262 678.8906,200.9262 Q679.8438,200.9262 680.7344,201.1294 Q681.6406,201.3169 682.5781,201.7856 L681.75,203.5669 Q680.9688,203.1919 680.3125,203.0044 Q679.6563,202.8012 678.8594,202.8012 Z " fill="#000000"/><text fill="#000000" font-family="sans-serif" font-size="14" lengthAdjust="spacing" textLength="114" x="693.25" y="212.702">OperationalState</text><line style="stroke:#181818;stroke-width:0.5;" x1="662.5" x2="811.5" y1="223.27" y2="223.27"/><text fill="#000000" font-family="sans-serif" font-size="14" lengthAdjust="spacing" textLength="86" x="667.5" y="242.2359">name: string</text><text fill="#000000" font-family="sans-serif" font-size="14" lengthAdjust="spacing" textLength="124" x="667.5" y="261.3039">description: string</text><text fill="#000000" font-family="sans-serif" font-size="14" lengthAdjust="spacing" textLength="139" x="667.5" y="280.3718">operational: boolean</text><line style="stroke:#181818;stroke-width:0.5;" x1="662.5" x2="811.5" y1="288.4738" y2="288.4738"/></g><!--class Log--><g id="elem_Log"><rect codeLine="119" fill="#FFF1D9" filter="url(#f4p980ekjk3mp)" height="143.3396" id="Log" rx="5" ry="5" style="stroke:#181818;stroke-width:0.5;" width="163" x="408.5" y="1044.51"/><rect fill="#FFD080" height="32" rx="5" ry="5" style="stroke:#FFD080;stroke-width:0.5;" width="163" x="408.5" y="1044.51"/><rect fill="#FFD080" height="5" style="stroke:#FFD080;stroke-width:0.5;" width="163" x="408.5" y="1071.51"/><rect codeLine="119" fill="none" height="143.3396" id="Log" rx="5" ry="5" style="stroke:#181818;stroke-width:0.5;" width="163" x="408.5" y="1044.51"/><ellipse cx="473.75" cy="1060.51" fill="#ADD1B2" rx="11" ry="11" style="stroke:#181818;stroke-width:1.0;"/><path d="M473.8594,1056.0413 Q472.9375,1056.0413 472.2031,1056.3538 Q471.4844,1056.6663 470.9844,1057.26 Q470.4844,1057.8381 470.2031,1058.7131 Q469.9375,1059.5881 469.9375,1060.6819 Q469.9375,1062.1194 470.375,1063.1663 Q470.8281,1064.2131 471.6719,1064.76 Q472.5313,1065.3069 473.8438,1065.3069 Q474.625,1065.3069 475.3125,1065.1819 Q476.0156,1065.0413 477.0156,1064.7288 L477.0156,1066.6038 Q476.1563,1066.9319 475.3906,1067.0569 Q474.6406,1067.1819 473.625,1067.1819 Q471.7031,1067.1819 470.3906,1066.385 Q469.0938,1065.5725 468.4375,1064.1038 Q467.7813,1062.6194 467.7813,1060.6506 Q467.7813,1059.2288 468.1719,1058.0569 Q468.5781,1056.8694 469.3594,1055.9944 Q470.1406,1055.1194 471.2813,1054.6506 Q472.4219,1054.1663 473.8906,1054.1663 Q474.8438,1054.1663 475.7344,1054.3694 Q476.6406,1054.5569 477.5781,1055.0256 L476.75,1056.8069 Q475.9688,1056.4319 475.3125,1056.2444 Q474.6563,1056.0413 473.8594,1056.0413 Z " fill="#000000"/><text fill="#000000" font-family="sans-serif" font-size="14" lengthAdjust="spacing" textLength="24" x="494.25" y="1065.942">Log</text><line style="stroke:#181818;stroke-width:0.5;" x1="409.5" x2="570.5" y1="1076.51" y2="1076.51"/><text fill="#000000" font-family="sans-serif" font-size="14" lengthAdjust="spacing" textLength="151" x="414.5" y="1095.4759">loggable: polymorphic</text><text fill="#000000" font-family="sans-serif" font-size="14" lengthAdjust="spacing" textLength="89" x="414.5" y="1114.5439">action: string</text><text fill="#000000" font-family="sans-serif" font-size="14" lengthAdjust="spacing" textLength="142" x="414.5" y="1133.6118">last_seen: timestamp</text><text fill="#000000" font-family="sans-serif" font-size="14" lengthAdjust="spacing" textLength="79" x="414.5" y="1152.6797">level: string</text><text fill="#000000" font-family="sans-serif" font-size="14" lengthAdjust="spacing" textLength="93" x="414.5" y="1171.7476">message: text</text><line style="stroke:#181818;stroke-width:0.5;" x1="409.5" x2="570.5" y1="1179.8496" y2="1179.8496"/></g><!--class Network--><g id="elem_Network"><rect codeLine="127" fill="#FFF1D9" filter="url(#f4p980ekjk3mp)" height="105.2038" id="Network" rx="5" ry="5" style="stroke:#181818;stroke-width:0.5;" width="153" x="231.5" y="191.27"/><rect fill="#FFD080" height="32" rx="5" ry="5" style="stroke:#FFD080;stroke-width:0.5;" width="153" x="231.5" y="191.27"/><rect fill="#FFD080" height="5" style="stroke:#FFD080;stroke-width:0.5;" width="153" x="231.5" y="218.27"/><rect codeLine="127" fill="none" height="105.2038" id="Network" rx="5" ry="5" style="stroke:#181818;stroke-width:0.5;" width="153" x="231.5" y="191.27"/><ellipse cx="275.75" cy="207.27" fill="#ADD1B2" rx="11" ry="11" style="stroke:#181818;stroke-width:1.0;"/><path d="M275.8594,202.8012 Q274.9375,202.8012 274.2031,203.1137 Q273.4844,203.4262 272.9844,204.02 Q272.4844,204.5981 272.2031,205.4731 Q271.9375,206.3481 271.9375,207.4419 Q271.9375,208.8794 272.375,209.9262 Q272.8281,210.9731 273.6719,211.52 Q274.5313,212.0669 275.8438,212.0669 Q276.625,212.0669 277.3125,211.9419 Q278.0156,211.8012 279.0156,211.4887 L279.0156,213.3637 Q278.1563,213.6919 277.3906,213.8169 Q276.6406,213.9419 275.625,213.9419 Q273.7031,213.9419 272.3906,213.145 Q271.0938,212.3325 270.4375,210.8637 Q269.7813,209.3794 269.7813,207.4106 Q269.7813,205.9887 270.1719,204.8169 Q270.5781,203.6294 271.3594,202.7544 Q272.1406,201.8794 273.2813,201.4106 Q274.4219,200.9262 275.8906,200.9262 Q276.8438,200.9262 277.7344,201.1294 Q278.6406,201.3169 279.5781,201.7856 L278.75,203.5669 Q277.9688,203.1919 277.3125,203.0044 Q276.6563,202.8012 275.8594,202.8012 Z " fill="#000000"/><text fill="#000000" font-family="sans-serif" font-size="14" lengthAdjust="spacing" textLength="56" x="296.25" y="212.702">Network</text><line style="stroke:#181818;stroke-width:0.5;" x1="232.5" x2="383.5" y1="223.27" y2="223.27"/><text fill="#000000" font-family="sans-serif" font-size="14" lengthAdjust="spacing" textLength="95" x="237.5" y="242.2359">netzwerk: cidr</text><text fill="#000000" font-family="sans-serif" font-size="14" lengthAdjust="spacing" textLength="141" x="237.5" y="261.3039">description: rich_text</text><text fill="#000000" font-family="sans-serif" font-size="14" lengthAdjust="spacing" textLength="72" x="237.5" y="280.3718">location_id</text><line style="stroke:#181818;stroke-width:0.5;" x1="232.5" x2="383.5" y1="288.4738" y2="288.4738"/></g><ellipse cx="8" cy="243.88" fill="#181818" rx="2" ry="2" style="stroke:#181818;stroke-width:1.0;"/><ellipse cx="371" cy="1116.18" fill="#181818" rx="2" ry="2" style="stroke:#181818;stroke-width:1.0;"/><!--link Network to Location--><g id="link_Network_Location"><path codeLine="133" d="M384.99,243.88 C396.53,243.88 408.06,243.88 419.6,243.88 " fill="none" id="Network-Location" style="stroke:#181818;stroke-width:1.0;"/><text fill="#000000" font-family="sans-serif" font-size="13" lengthAdjust="spacing" textLength="7" x="392.4102" y="240.0267">*</text><text fill="#000000" font-family="sans-serif" font-size="13" lengthAdjust="spacing" textLength="7" x="405.1853" y="239.9371">1</text></g><!--link Location to Connector--><g id="link_Location_Connector"><path codeLine="134" d="M419.9,286.27 C382.14,310.26 340.05,339.07 326,356.48 C291.38,399.35 264.82,452.8 245.06,503.33 " fill="none" id="Location-Connector" style="stroke:#181818;stroke-width:1.0;"/><text fill="#000000" font-family="sans-serif" font-size="13" lengthAdjust="spacing" textLength="7" x="405.0687" y="286.9126">*</text><text fill="#000000" font-family="sans-serif" font-size="13" lengthAdjust="spacing" textLength="7" x="240.2184" y="491.7351">*</text></g><!--link Connector to CardTerminal--><g id="link_Connector_CardTerminal"><path codeLine="136" d="M308.06,670.5 C319.58,670.5 331.11,670.5 342.64,670.5 " fill="none" id="Connector-CardTerminal" style="stroke:#181818;stroke-width:1.0;"/><text fill="#000000" font-family="sans-serif" font-size="13" lengthAdjust="spacing" textLength="20" x="314.9937" y="666.8074">0..1</text><text fill="#000000" font-family="sans-serif" font-size="13" lengthAdjust="spacing" textLength="7" x="328.0328" y="666.7224">*</text></g><!--link Location to CardTerminal--><g id="link_Location_CardTerminal"><path codeLine="137" d="M482.33,287.14 C476.92,327.42 468.35,391.26 459.75,455.32 " fill="none" id="Location-CardTerminal" style="stroke:#181818;stroke-width:1.0;"/><text fill="#000000" font-family="sans-serif" font-size="13" lengthAdjust="spacing" textLength="20" x="460.0285" y="308.6914">0..1</text><text fill="#000000" font-family="sans-serif" font-size="13" lengthAdjust="spacing" textLength="7" x="453.6574" y="444.1912">*</text></g><!--link Context to apoint18--><g id="link_Context_apoint18"><path d="M232.69,85.63 C170.33,102.06 83.27,133.83 28,191.27 C13.08,206.78 8.96,234.66 8.16,241.38 " fill="none" id="Context-apoint18" style="stroke:#181818;stroke-width:1.0;"/><text fill="#000000" font-family="sans-serif" font-size="13" lengthAdjust="spacing" textLength="7" x="217.9321" y="83.3487">*</text></g><!--link apoint18 to Connector--><g id="link_apoint18_Connector"><path d="M8.47,246.16 C10.6,252.01 19.67,276.63 28,296.48 C56.63,364.65 89.89,439 119.29,503.25 " fill="none" id="apoint18-Connector" style="stroke:#181818;stroke-width:1.0;"/><text fill="#000000" font-family="sans-serif" font-size="13" lengthAdjust="spacing" textLength="7" x="108.3564" y="491.6513">*</text></g><!--link apoint18 to ConnectorContext--><g id="link_apoint18_ConnectorContext"><path d="M10.21,243.88 C21.75,243.88 33.29,243.88 44.83,243.88 " fill="none" id="apoint18-ConnectorContext" style="stroke:#181818;stroke-width:1.0;stroke-dasharray:7.0,7.0;"/></g><!--link CardTerminal to Card--><g id="link_CardTerminal_Card"><path codeLine="139" d="M519.21,670.5 C530.69,670.5 542.18,670.5 553.66,670.5 " fill="none" id="CardTerminal-Card" style="stroke:#181818;stroke-width:1.0;"/><text fill="#000000" font-family="sans-serif" font-size="13" lengthAdjust="spacing" textLength="20" x="526.0364" y="666.6792">0..1</text><text fill="#000000" font-family="sans-serif" font-size="13" lengthAdjust="spacing" textLength="7" x="538.9442" y="666.8497">*</text></g><!--link CardTerminal to apoint25--><g id="link_CardTerminal_apoint25"><path d="M402.05,885.54 C387.67,991.91 372.96,1100.67 371.18,1113.85 " fill="none" id="CardTerminal-apoint25" style="stroke:#181818;stroke-width:1.0;"/><text fill="#000000" font-family="sans-serif" font-size="13" lengthAdjust="spacing" textLength="7" x="393.9852" y="906.7835">*</text></g><!--link apoint25 to Workplace--><g id="link_apoint25_Workplace"><path d="M371,1118.68 C371,1129.79 371,1200.46 371,1247.48 " fill="none" id="apoint25-Workplace" style="stroke:#181818;stroke-width:1.0;"/><text fill="#000000" font-family="sans-serif" font-size="13" lengthAdjust="spacing" textLength="7" x="363.4422" y="1236.1557">*</text></g><!--link TerminalWorkplaces to apoint25--><g id="link_TerminalWorkplaces_apoint25"><path d="M333.83,1116.18 C345.44,1116.18 357.06,1116.18 368.68,1116.18 " fill="none" id="TerminalWorkplaces-apoint25" style="stroke:#181818;stroke-width:1.0;stroke-dasharray:7.0,7.0;"/></g><!--link Location to Card--><g id="link_Location_Card"><path codeLine="142" d="M506.39,287.21 C515.39,308.04 526.34,333.54 536,356.48 C541.76,370.16 547.64,384.18 553.56,398.35 " fill="none" id="Location-Card" style="stroke:#181818;stroke-width:1.0;"/><text fill="#000000" font-family="sans-serif" font-size="13" lengthAdjust="spacing" textLength="20" x="487.6223" y="308.7717">0..1</text><text fill="#000000" font-family="sans-serif" font-size="13" lengthAdjust="spacing" textLength="7" x="538.8375" y="376.4146">*</text></g><!--link OperationalState to Card--><g id="link_OperationalState_Card"><path codeLine="143" d="M728.17,296.94 C725.3,313.88 721.87,334.08 718.13,356.18 " fill="none" id="OperationalState-Card" style="stroke:#181818;stroke-width:1.0;"/><text fill="#000000" font-family="sans-serif" font-size="13" lengthAdjust="spacing" textLength="7" x="719.6673" y="318.3837">1</text><text fill="#000000" font-family="sans-serif" font-size="13" lengthAdjust="spacing" textLength="7" x="712.4483" y="344.5115">*</text></g><!--link Context to Card--><g id="link_Context_Card"><path codeLine="144" d="M383.48,84.61 C444.3,100.32 527.14,131.61 574,191.27 C611.26,238.71 634.81,296.88 649.41,356.09 " fill="none" id="Context-Card" style="stroke:#181818;stroke-width:1.0;"/><text fill="#000000" font-family="sans-serif" font-size="13" lengthAdjust="spacing" textLength="7" x="391.0078" y="82.2054">1</text><text fill="#000000" font-family="sans-serif" font-size="13" lengthAdjust="spacing" textLength="7" x="641.9029" y="344.4191">*</text></g><!--link Connector to Log--><g id="link_Connector_Log"><path codeLine="146" d="M247.51,837.85 C267.3,887.84 293.25,940.93 326,984.51 C338.74,1001.47 373.85,1030.05 408.33,1056.17 " fill="none" id="Connector-Log" style="stroke:#181818;stroke-width:1.0;"/><text fill="#000000" font-family="sans-serif" font-size="13" lengthAdjust="spacing" textLength="7" x="242.4932" y="859.1806">1</text><text fill="#000000" font-family="sans-serif" font-size="13" lengthAdjust="spacing" textLength="7" x="393.4784" y="1046.7838">*</text></g><!--link CardTerminal to Log--><g id="link_CardTerminal_Log"><path codeLine="147" d="M459.46,885.54 C467.08,942.83 474.79,1000.8 480.56,1044.17 " fill="none" id="CardTerminal-Log" style="stroke:#181818;stroke-width:1.0;"/><text fill="#000000" font-family="sans-serif" font-size="13" lengthAdjust="spacing" textLength="7" x="453.279" y="906.7835">1</text><text fill="#000000" font-family="sans-serif" font-size="13" lengthAdjust="spacing" textLength="7" x="472.2256" y="1032.8008">*</text></g><!--link Card to Log--><g id="link_Card_Log"><path codeLine="148" d="M553.55,954.06 C540.49,987.17 528.21,1018.32 517.98,1044.24 " fill="none" id="Card-Log" style="stroke:#181818;stroke-width:1.0;"/><text fill="#000000" font-family="sans-serif" font-size="13" lengthAdjust="spacing" textLength="7" x="538.8268" y="969.4614">1</text><text fill="#000000" font-family="sans-serif" font-size="13" lengthAdjust="spacing" textLength="7" x="513.5045" y="1032.8781">*</text></g><!--SRC=[bLOzSzim3DtrArXFII_sDQlNhBrsQEywycWIbbbJ94j2JjnU_dj1IPP9oMgJnOa141yF3u3HUOQExHoYQvZI0IHgPwlg0nwW0IQT546nVI3jfgga4J6o9sSjsRd0s9-ACIiQsBA8GTkQlYg8CcYVt6nPqFB04LwG5DflcRQG_XMgqPQtmMJleeeJIIDiAmnllH984NRE6H2M5ElrOF_IaFtWldlVcIekaCIwWOYYyQIJbunvX73I4kAM_OpExaX79I6N1v37yirLpjrnvaxfla1j4Me8ARuJdWVurP8PZwsa835F-kGjQkwi8Gno-Lw7vba4u2S8iVCv0F0wuaqj-0w181EcGrpfw8qulnNuu5oJsL7sA2Hc4c_QkYROj2tS6KqfdNcFVlfCLRRU6mqXRnm4BVA-QSLzSAejOXXYKagDQtNf81bv2AZpRangaaZs1INaDdq8fK99gMWSnhmVGyz1vM3VxDnY1tBYKDfZGpuFjNJDC4M2HHDcZIJagINTCoAt4ZP7I1AkbgXpZWXvlvvTE5Ax9RmZJ9zq7g-ef2S1gVeltiK9A0NttZNbgQKTE3IvD2y8VOYo_KROd45x8G_91xQspiIxM5WX66Z8oR40t0TzwgBOlGkDc2TKLBh8kxJc-85wOWhw9IcUVIxJKiQS8ebuAQChdxIbaK2UDiPaRtH1d54G-0HFUF6wnwsSjvk4zRGy4xPjdEKwh8ciMfbAtMkPl5uWIUd5TlUJ2C5bmVTSWnfBD79bN7nMqzgmqpakdc80m2KjaH65aKujlZTB2ZUVXH-NuUaNvusn6M0g4dwjdhhNbwqxUedzBCsX7eUq__hswRwUh37gr-i8VKiJzD_v6wNPy5st7c7nDAojkjzOhgx5BhNMEtDkNF07BTDLbXDttGcC07Po6U44nPscIoTg62xn6EuBO4AbpnxmzpC4kgDITvjxSN_aYu9SNPoiFgxOcgqUL-FohSOjtEdMtPznzLMNtRUa77x1h3vjDe-TwsIG7ThC_M1om-PkTFHmMUxtR3DRm5LnmMSX9-fhmYFjgXj4tB2x_Dt3rVgU_IlvQaQlrSHWX6uYps6xgeXLamBckediBm00]--></g></svg>