<?xml version="1.0" encoding="us-ascii" standalone="no"?><svg xmlns="http://www.w3.org/2000/svg" xmlns:xlink="http://www.w3.org/1999/xlink" contentStyleType="text/css" height="628px" preserveAspectRatio="none" style="width:383px;height:628px;background:#FFFFFF;" version="1.1" viewBox="0 0 383 628" width="383px" zoomAndPan="magnify"><defs><filter height="300%" id="f1hwkw2z7lv0us" width="300%" x="-1" y="-1"><feGaussianBlur result="blurOut" stdDeviation="2.0"/><feColorMatrix in="blurOut" result="blurOut2" type="matrix" values="0 0 0 0 0 0 0 0 0 0 0 0 0 0 0 0 0 0 .4 0"/><feOffset dx="4.0" dy="4.0" in="blurOut2" result="blurOut3"/><feBlend in="SourceGraphic" in2="blurOut3" mode="normal"/></filter></defs><g><!--class Connector--><g id="elem_Connector"><rect codeLine="5" fill="#FFF1D9" filter="url(#f1hwkw2z7lv0us)" height="257.7471" id="Connector" rx="5" ry="5" style="stroke:#181818;stroke-width:0.5;" width="197" x="28.5" y="356.47"/><rect fill="#FFD080" height="32" rx="5" ry="5" style="stroke:#FFD080;stroke-width:0.5;" width="197" x="28.5" y="356.47"/><rect fill="#FFD080" height="5" style="stroke:#FFD080;stroke-width:0.5;" width="197" x="28.5" y="383.47"/><rect codeLine="5" fill="none" height="257.7471" id="Connector" rx="5" ry="5" style="stroke:#181818;stroke-width:0.5;" width="197" x="28.5" y="356.47"/><ellipse cx="88.25" cy="372.47" fill="#ADD1B2" rx="11" ry="11" style="stroke:#181818;stroke-width:1.0;"/><path d="M88.3594,368.0013 Q87.4375,368.0013 86.7031,368.3138 Q85.9844,368.6263 85.4844,369.22 Q84.9844,369.7981 84.7031,370.6731 Q84.4375,371.5481 84.4375,372.6419 Q84.4375,374.0794 84.875,375.1263 Q85.3281,376.1731 86.1719,376.72 Q87.0313,377.2669 88.3438,377.2669 Q89.125,377.2669 89.8125,377.1419 Q90.5156,377.0013 91.5156,376.6888 L91.5156,378.5638 Q90.6563,378.8919 89.8906,379.0169 Q89.1406,379.1419 88.125,379.1419 Q86.2031,379.1419 84.8906,378.345 Q83.5938,377.5325 82.9375,376.0638 Q82.2813,374.5794 82.2813,372.6106 Q82.2813,371.1888 82.6719,370.0169 Q83.0781,368.8294 83.8594,367.9544 Q84.6406,367.0794 85.7813,366.6106 Q86.9219,366.1263 88.3906,366.1263 Q89.3438,366.1263 90.2344,366.3294 Q91.1406,366.5169 92.0781,366.9856 L91.25,368.7669 Q90.4688,368.3919 89.8125,368.2044 Q89.1563,368.0013 88.3594,368.0013 Z " fill="#000000"/><text fill="#000000" font-family="sans-serif" font-size="14" lengthAdjust="spacing" textLength="69" x="108.75" y="377.902">Connector</text><line style="stroke:#181818;stroke-width:0.5;" x1="29.5" x2="224.5" y1="388.47" y2="388.47"/><text fill="#000000" font-family="sans-serif" font-size="14" lengthAdjust="spacing" textLength="86" x="34.5" y="407.4359">name: string</text><text fill="#000000" font-family="sans-serif" font-size="14" lengthAdjust="spacing" textLength="141" x="34.5" y="426.5039">description: rich_text</text><text fill="#000000" font-family="sans-serif" font-size="14" lengthAdjust="spacing" textLength="47" x="34.5" y="445.5718">ip: inet</text><text fill="#000000" font-family="sans-serif" font-size="14" lengthAdjust="spacing" textLength="96" x="34.5" y="464.6397">sds_url: string</text><text fill="#000000" font-family="sans-serif" font-size="14" lengthAdjust="spacing" textLength="167" x="34.5" y="483.7076">manual_update: boolean</text><line style="stroke:#181818;stroke-width:1.0;" x1="29.5" x2="224.5" y1="491.8096" y2="491.8096"/><text fill="#000000" font-family="sans-serif" font-size="14" lengthAdjust="spacing" textLength="86" x="34.5" y="510.7755">sds_xml: text</text><text fill="#000000" font-family="sans-serif" font-size="14" lengthAdjust="spacing" textLength="185" x="34.5" y="529.8434">sds_updated_at: timestamp</text><text fill="#000000" font-family="sans-serif" font-size="14" lengthAdjust="spacing" textLength="172" x="34.5" y="548.9114">connector_services: jsonb</text><text fill="#000000" font-family="sans-serif" font-size="14" lengthAdjust="spacing" textLength="148" x="34.5" y="567.9793">last_check: timestamp</text><text fill="#000000" font-family="sans-serif" font-size="14" lengthAdjust="spacing" textLength="169" x="34.5" y="587.0472">last_check_ok: timestamp</text><text fill="#000000" font-family="sans-serif" font-size="14" lengthAdjust="spacing" textLength="120" x="34.5" y="606.1151">condition: integer</text></g><!--class Location--><g id="elem_Location"><rect codeLine="20" fill="#FFF1D9" filter="url(#f1hwkw2z7lv0us)" height="86.1358" id="Location" rx="5" ry="5" style="stroke:#181818;stroke-width:0.5;" width="136" x="7" y="200.8"/><rect fill="#FFD080" height="32" rx="5" ry="5" style="stroke:#FFD080;stroke-width:0.5;" width="136" x="7" y="200.8"/><rect fill="#FFD080" height="5" style="stroke:#FFD080;stroke-width:0.5;" width="136" x="7" y="227.8"/><rect codeLine="20" fill="none" height="86.1358" id="Location" rx="5" ry="5" style="stroke:#181818;stroke-width:0.5;" width="136" x="7" y="200.8"/><ellipse cx="43.6" cy="216.8" fill="#ADD1B2" rx="11" ry="11" style="stroke:#181818;stroke-width:1.0;"/><path d="M43.7094,212.3313 Q42.7875,212.3313 42.0531,212.6438 Q41.3344,212.9563 40.8344,213.55 Q40.3344,214.1281 40.0531,215.0031 Q39.7875,215.8781 39.7875,216.9719 Q39.7875,218.4094 40.225,219.4563 Q40.6781,220.5031 41.5219,221.05 Q42.3813,221.5969 43.6938,221.5969 Q44.475,221.5969 45.1625,221.4719 Q45.8656,221.3313 46.8656,221.0188 L46.8656,222.8938 Q46.0063,223.2219 45.2406,223.3469 Q44.4906,223.4719 43.475,223.4719 Q41.5531,223.4719 40.2406,222.675 Q38.9438,221.8625 38.2875,220.3938 Q37.6313,218.9094 37.6313,216.9406 Q37.6313,215.5188 38.0219,214.3469 Q38.4281,213.1594 39.2094,212.2844 Q39.9906,211.4094 41.1313,210.9406 Q42.2719,210.4563 43.7406,210.4563 Q44.6938,210.4563 45.5844,210.6594 Q46.4906,210.8469 47.4281,211.3156 L46.6,213.0969 Q45.8188,212.7219 45.1625,212.5344 Q44.5063,212.3313 43.7094,212.3313 Z " fill="#000000"/><text fill="#000000" font-family="sans-serif" font-size="14" lengthAdjust="spacing" textLength="56" x="62.4" y="222.232">Location</text><line style="stroke:#181818;stroke-width:0.5;" x1="8" x2="142" y1="232.8" y2="232.8"/><text fill="#000000" font-family="sans-serif" font-size="14" lengthAdjust="spacing" textLength="65" x="13" y="251.7659">lid: string</text><text fill="#000000" font-family="sans-serif" font-size="14" lengthAdjust="spacing" textLength="124" x="13" y="270.8339">description: string</text><line style="stroke:#181818;stroke-width:0.5;" x1="8" x2="142" y1="278.9358" y2="278.9358"/></g><!--class Context--><g id="elem_Context"><rect codeLine="25" fill="#FFF1D9" filter="url(#f1hwkw2z7lv0us)" height="124.2717" id="Context" rx="5" ry="5" style="stroke:#181818;stroke-width:0.5;" width="150" x="105" y="7"/><rect fill="#FFD080" height="32" rx="5" ry="5" style="stroke:#FFD080;stroke-width:0.5;" width="150" x="105" y="7"/><rect fill="#FFD080" height="5" style="stroke:#FFD080;stroke-width:0.5;" width="150" x="105" y="34"/><rect codeLine="25" fill="none" height="124.2717" id="Context" rx="5" ry="5" style="stroke:#181818;stroke-width:0.5;" width="150" x="105" y="7"/><ellipse cx="150.25" cy="23" fill="#ADD1B2" rx="11" ry="11" style="stroke:#181818;stroke-width:1.0;"/><path d="M150.3594,18.5313 Q149.4375,18.5313 148.7031,18.8438 Q147.9844,19.1563 147.4844,19.75 Q146.9844,20.3281 146.7031,21.2031 Q146.4375,22.0781 146.4375,23.1719 Q146.4375,24.6094 146.875,25.6563 Q147.3281,26.7031 148.1719,27.25 Q149.0313,27.7969 150.3438,27.7969 Q151.125,27.7969 151.8125,27.6719 Q152.5156,27.5313 153.5156,27.2188 L153.5156,29.0938 Q152.6563,29.4219 151.8906,29.5469 Q151.1406,29.6719 150.125,29.6719 Q148.2031,29.6719 146.8906,28.875 Q145.5938,28.0625 144.9375,26.5938 Q144.2813,25.1094 144.2813,23.1406 Q144.2813,21.7188 144.6719,20.5469 Q145.0781,19.3594 145.8594,18.4844 Q146.6406,17.6094 147.7813,17.1406 Q148.9219,16.6563 150.3906,16.6563 Q151.3438,16.6563 152.2344,16.8594 Q153.1406,17.0469 154.0781,17.5156 L153.25,19.2969 Q152.4688,18.9219 151.8125,18.7344 Q151.1563,18.5313 150.3594,18.5313 Z " fill="#000000"/><text fill="#000000" font-family="sans-serif" font-size="14" lengthAdjust="spacing" textLength="51" x="170.75" y="28.432">Context</text><line style="stroke:#181818;stroke-width:0.5;" x1="106" x2="254" y1="39" y2="39"/><text fill="#000000" font-family="sans-serif" font-size="14" lengthAdjust="spacing" textLength="109" x="111" y="57.9659">mandant: string</text><text fill="#000000" font-family="sans-serif" font-size="14" lengthAdjust="spacing" textLength="138" x="111" y="77.0339">client_system: string</text><text fill="#000000" font-family="sans-serif" font-size="14" lengthAdjust="spacing" textLength="116" x="111" y="96.1018">workplace: string</text><text fill="#000000" font-family="sans-serif" font-size="14" lengthAdjust="spacing" textLength="124" x="111" y="115.1697">description: string</text><line style="stroke:#181818;stroke-width:0.5;" x1="106" x2="254" y1="123.2717" y2="123.2717"/></g><!--class ConnectorContext--><g id="elem_ConnectorContext"><rect codeLine="32" fill="#FFF1D9" filter="url(#f1hwkw2z7lv0us)" height="105.2038" id="ConnectorContext" rx="5" ry="5" style="stroke:#181818;stroke-width:0.5;" width="152" x="217" y="191.27"/><rect fill="#FFD080" height="32" rx="5" ry="5" style="stroke:#FFD080;stroke-width:0.5;" width="152" x="217" y="191.27"/><rect fill="#FFD080" height="5" style="stroke:#FFD080;stroke-width:0.5;" width="152" x="217" y="218.27"/><rect codeLine="32" fill="none" height="105.2038" id="ConnectorContext" rx="5" ry="5" style="stroke:#181818;stroke-width:0.5;" width="152" x="217" y="191.27"/><ellipse cx="232" cy="207.27" fill="#ADD1B2" rx="11" ry="11" style="stroke:#181818;stroke-width:1.0;"/><path d="M232.1094,202.8013 Q231.1875,202.8013 230.4531,203.1138 Q229.7344,203.4263 229.2344,204.02 Q228.7344,204.5981 228.4531,205.4731 Q228.1875,206.3481 228.1875,207.4419 Q228.1875,208.8794 228.625,209.9263 Q229.0781,210.9731 229.9219,211.52 Q230.7813,212.0669 232.0938,212.0669 Q232.875,212.0669 233.5625,211.9419 Q234.2656,211.8013 235.2656,211.4888 L235.2656,213.3638 Q234.4063,213.6919 233.6406,213.8169 Q232.8906,213.9419 231.875,213.9419 Q229.9531,213.9419 228.6406,213.145 Q227.3438,212.3325 226.6875,210.8638 Q226.0313,209.3794 226.0313,207.4106 Q226.0313,205.9888 226.4219,204.8169 Q226.8281,203.6294 227.6094,202.7544 Q228.3906,201.8794 229.5313,201.4106 Q230.6719,200.9263 232.1406,200.9263 Q233.0938,200.9263 233.9844,201.1294 Q234.8906,201.3169 235.8281,201.7856 L235,203.5669 Q234.2188,203.1919 233.5625,203.0044 Q232.9063,202.8013 232.1094,202.8013 Z " fill="#000000"/><text fill="#000000" font-family="sans-serif" font-size="14" lengthAdjust="spacing" textLength="120" x="246" y="212.702">ConnectorContext</text><line style="stroke:#181818;stroke-width:0.5;" x1="218" x2="368" y1="223.27" y2="223.27"/><text fill="#000000" font-family="sans-serif" font-size="14" lengthAdjust="spacing" textLength="86" x="223" y="242.2359">connector_id</text><text fill="#000000" font-family="sans-serif" font-size="14" lengthAdjust="spacing" textLength="68" x="223" y="261.3039">context_id</text><text fill="#000000" font-family="sans-serif" font-size="14" lengthAdjust="spacing" textLength="111" x="223" y="280.3718">position: integer</text><line style="stroke:#181818;stroke-width:0.5;" x1="218" x2="368" y1="288.4738" y2="288.4738"/></g><ellipse cx="180" cy="243.87" fill="#181818" rx="2" ry="2" style="stroke:#181818;stroke-width:1.0;"/><!--link Location to Connector--><g id="link_Location_Connector"><path codeLine="38" d="M84.24,287.41 C88.48,306.96 93.77,331.31 99.16,356.14 " fill="none" id="Location-Connector" style="stroke:#181818;stroke-width:1.0;"/><text fill="#000000" font-family="sans-serif" font-size="13" lengthAdjust="spacing" textLength="7" x="78.0472" y="308.6751">*</text><text fill="#000000" font-family="sans-serif" font-size="13" lengthAdjust="spacing" textLength="7" x="90.2502" y="344.6672">*</text></g><!--link Context to apoint8--><g id="link_Context_apoint8"><path d="M180,131.52 C180,177.29 180,233.3 180,241.78 " fill="none" id="Context-apoint8" style="stroke:#181818;stroke-width:1.0;"/><text fill="#000000" font-family="sans-serif" font-size="13" lengthAdjust="spacing" textLength="7" x="172.6172" y="153.2086">*</text></g><!--link apoint8 to Connector--><g id="link_apoint8_Connector"><path d="M179.76,245.94 C178.02,253.8 166.94,303.88 155.38,356.12 " fill="none" id="apoint8-Connector" style="stroke:#181818;stroke-width:1.0;"/><text fill="#000000" font-family="sans-serif" font-size="13" lengthAdjust="spacing" textLength="7" x="149.8961" y="344.646">*</text></g><!--link apoint8 to ConnectorContext--><g id="link_apoint8_ConnectorContext"><path d="M182.21,243.87 C193.75,243.87 205.29,243.87 216.83,243.87 " fill="none" id="apoint8-ConnectorContext" style="stroke:#181818;stroke-width:1.0;stroke-dasharray:7.0,7.0;"/></g><!--SRC=[bL51KiCm3Bpx5Q8dO6WVa2jN_k1nRD6AsfR7Lg4Cqx-Z94qRfd3WP4khNMlNmWM4eMSHJX2eeXVYRCoTx30XUFQk1dYjYcwCyT6r1i-Siyvn1VWo0DabxA19fRpLCc3pbSeWqq4blxE2Hr60IWUKSRYsqEoXnWKhkNnmqHvASA9gFND4bnLOhy_pnwJpPwcHFuu6wqJRbB29IqKnFszd6zPtyjWwU6kSUyLqVR5-Xtx_atFjMzxVo0MQp50Mt68rfpc85qrdWCOO8eM_KZXtJui01oCZJOq7bsL1zP4mYssVJJ0j-XzSzoKwZ_zuPafY-Tur7WfJEK1JKRZTMhsON3skz3V6uw9iPkbVGND_kJ_DfXzWixdPp7m3]--></g></svg>