<?xml version="1.0" encoding="us-ascii" standalone="no"?><svg xmlns="http://www.w3.org/2000/svg" xmlns:xlink="http://www.w3.org/1999/xlink" contentStyleType="text/css" height="723px" preserveAspectRatio="none" style="width:670px;height:723px;background:#FFFFFF;" version="1.1" viewBox="0 0 670 723" width="670px" zoomAndPan="magnify"><defs><filter height="300%" id="ftmzi572k3v01" width="300%" x="-1" y="-1"><feGaussianBlur result="blurOut" stdDeviation="2.0"/><feColorMatrix in="blurOut" result="blurOut2" type="matrix" values="0 0 0 0 0 0 0 0 0 0 0 0 0 0 0 0 0 0 .4 0"/><feOffset dx="4.0" dy="4.0" in="blurOut2" result="blurOut3"/><feBlend in="SourceGraphic" in2="blurOut3" mode="normal"/></filter></defs><g><!--class Connector--><g id="elem_Connector"><rect codeLine="5" fill="#FFF1D9" filter="url(#ftmzi572k3v01)" height="295.8829" id="Connector" rx="5" ry="5" style="stroke:#181818;stroke-width:0.5;" width="222" x="231" y="153.13"/><rect fill="#FFD080" height="32" rx="5" ry="5" style="stroke:#FFD080;stroke-width:0.5;" width="222" x="231" y="153.13"/><rect fill="#FFD080" height="5" style="stroke:#FFD080;stroke-width:0.5;" width="222" x="231" y="180.13"/><rect codeLine="5" fill="none" height="295.8829" id="Connector" rx="5" ry="5" style="stroke:#181818;stroke-width:0.5;" width="222" x="231" y="153.13"/><ellipse cx="303.25" cy="169.13" fill="#ADD1B2" rx="11" ry="11" style="stroke:#181818;stroke-width:1.0;"/><path d="M303.3594,164.6613 Q302.4375,164.6613 301.7031,164.9738 Q300.9844,165.2863 300.4844,165.88 Q299.9844,166.4581 299.7031,167.3331 Q299.4375,168.2081 299.4375,169.3019 Q299.4375,170.7394 299.875,171.7863 Q300.3281,172.8331 301.1719,173.38 Q302.0313,173.9269 303.3438,173.9269 Q304.125,173.9269 304.8125,173.8019 Q305.5156,173.6613 306.5156,173.3488 L306.5156,175.2238 Q305.6563,175.5519 304.8906,175.6769 Q304.1406,175.8019 303.125,175.8019 Q301.2031,175.8019 299.8906,175.005 Q298.5938,174.1925 297.9375,172.7238 Q297.2813,171.2394 297.2813,169.2706 Q297.2813,167.8488 297.6719,166.6769 Q298.0781,165.4894 298.8594,164.6144 Q299.6406,163.7394 300.7813,163.2706 Q301.9219,162.7863 303.3906,162.7863 Q304.3438,162.7863 305.2344,162.9894 Q306.1406,163.1769 307.0781,163.6456 L306.25,165.4269 Q305.4688,165.0519 304.8125,164.8644 Q304.1563,164.6613 303.3594,164.6613 Z " fill="#000000"/><text fill="#000000" font-family="sans-serif" font-size="14" lengthAdjust="spacing" textLength="69" x="323.75" y="174.562">Connector</text><line style="stroke:#181818;stroke-width:0.5;" x1="232" x2="452" y1="185.13" y2="185.13"/><text fill="#000000" font-family="sans-serif" font-size="14" lengthAdjust="spacing" textLength="86" x="237" y="204.0959">name: string</text><text fill="#000000" font-family="sans-serif" font-size="14" lengthAdjust="spacing" textLength="141" x="237" y="223.1639">description: rich_text</text><text fill="#000000" font-family="sans-serif" font-size="14" lengthAdjust="spacing" textLength="47" x="237" y="242.2318">ip: inet</text><text fill="#000000" font-family="sans-serif" font-size="14" lengthAdjust="spacing" textLength="96" x="237" y="261.2997">sds_url: string</text><text fill="#000000" font-family="sans-serif" font-size="14" lengthAdjust="spacing" textLength="167" x="237" y="280.3676">manual_update: boolean</text><line style="stroke:#181818;stroke-width:1.0;" x1="232" x2="452" y1="288.4696" y2="288.4696"/><text fill="#000000" font-family="sans-serif" font-size="14" lengthAdjust="spacing" textLength="86" x="237" y="307.4355">sds_xml: text</text><text fill="#000000" font-family="sans-serif" font-size="14" lengthAdjust="spacing" textLength="185" x="237" y="326.5034">sds_updated_at: timestamp</text><text fill="#000000" font-family="sans-serif" font-size="14" lengthAdjust="spacing" textLength="172" x="237" y="345.5714">connector_services: jsonb</text><text fill="#000000" font-family="sans-serif" font-size="14" lengthAdjust="spacing" textLength="148" x="237" y="364.6393">last_check: timestamp</text><text fill="#000000" font-family="sans-serif" font-size="14" lengthAdjust="spacing" textLength="169" x="237" y="383.7072">last_check_ok: timestamp</text><text fill="#000000" font-family="sans-serif" font-size="14" lengthAdjust="spacing" textLength="120" x="237" y="402.7751">condition: integer</text><text fill="#000000" font-family="sans-serif" font-size="14" lengthAdjust="spacing" textLength="210" x="237" y="421.843">soap_request_success: boolean</text><text fill="#000000" font-family="sans-serif" font-size="14" lengthAdjust="spacing" textLength="144" x="237" y="440.9109">vpnti_online: boolean</text></g><!--class CardTerminal--><g id="elem_CardTerminal"><rect codeLine="22" fill="#FFF1D9" filter="url(#ftmzi572k3v01)" height="257.7471" id="CardTerminal" rx="5" ry="5" style="stroke:#181818;stroke-width:0.5;" width="153" x="487.5" y="172.2"/><rect fill="#FFD080" height="32" rx="5" ry="5" style="stroke:#FFD080;stroke-width:0.5;" width="153" x="487.5" y="172.2"/><rect fill="#FFD080" height="5" style="stroke:#FFD080;stroke-width:0.5;" width="153" x="487.5" y="199.2"/><rect codeLine="22" fill="none" height="257.7471" id="CardTerminal" rx="5" ry="5" style="stroke:#181818;stroke-width:0.5;" width="153" x="487.5" y="172.2"/><ellipse cx="515.55" cy="188.2" fill="#ADD1B2" rx="11" ry="11" style="stroke:#181818;stroke-width:1.0;"/><path d="M515.6594,183.7312 Q514.7375,183.7312 514.0031,184.0437 Q513.2844,184.3562 512.7844,184.95 Q512.2844,185.5281 512.0031,186.4031 Q511.7375,187.2781 511.7375,188.3719 Q511.7375,189.8094 512.175,190.8562 Q512.6281,191.9031 513.4719,192.45 Q514.3313,192.9969 515.6438,192.9969 Q516.425,192.9969 517.1125,192.8719 Q517.8156,192.7312 518.8156,192.4187 L518.8156,194.2937 Q517.9563,194.6219 517.1906,194.7469 Q516.4406,194.8719 515.425,194.8719 Q513.5031,194.8719 512.1906,194.075 Q510.8937,193.2625 510.2375,191.7937 Q509.5812,190.3094 509.5812,188.3406 Q509.5812,186.9187 509.9719,185.7469 Q510.3781,184.5594 511.1594,183.6844 Q511.9406,182.8094 513.0813,182.3406 Q514.2219,181.8562 515.6906,181.8562 Q516.6438,181.8562 517.5344,182.0594 Q518.4406,182.2469 519.3781,182.7156 L518.55,184.4969 Q517.7688,184.1219 517.1125,183.9344 Q516.4563,183.7312 515.6594,183.7312 Z " fill="#000000"/><text fill="#000000" font-family="sans-serif" font-size="14" lengthAdjust="spacing" textLength="92" x="532.45" y="193.632">CardTerminal</text><line style="stroke:#181818;stroke-width:0.5;" x1="488.5" x2="639.5" y1="204.2" y2="204.2"/><text fill="#000000" font-family="sans-serif" font-size="14" lengthAdjust="spacing" textLength="134" x="493.5" y="223.1659">displayname: string</text><text fill="#000000" font-family="sans-serif" font-size="14" lengthAdjust="spacing" textLength="141" x="493.5" y="242.2339">description: rich_text</text><text fill="#000000" font-family="sans-serif" font-size="14" lengthAdjust="spacing" textLength="72" x="493.5" y="261.3018">location_id</text><line style="stroke:#181818;stroke-width:1.0;" x1="488.5" x2="639.5" y1="269.4038" y2="269.4038"/><text fill="#000000" font-family="sans-serif" font-size="14" lengthAdjust="spacing" textLength="115" x="493.5" y="288.3697">properties: jsonb</text><text fill="#000000" font-family="sans-serif" font-size="14" lengthAdjust="spacing" textLength="86" x="493.5" y="307.4376">name: string</text><text fill="#000000" font-family="sans-serif" font-size="14" lengthAdjust="spacing" textLength="79" x="493.5" y="326.5055">ct_id: string</text><text fill="#000000" font-family="sans-serif" font-size="14" lengthAdjust="spacing" textLength="96" x="493.5" y="345.5734">mac: macaddr</text><text fill="#000000" font-family="sans-serif" font-size="14" lengthAdjust="spacing" textLength="47" x="493.5" y="364.6414">ip: inet</text><text fill="#000000" font-family="sans-serif" font-size="14" lengthAdjust="spacing" textLength="132" x="493.5" y="383.7093">connected: boolean</text><text fill="#000000" font-family="sans-serif" font-size="14" lengthAdjust="spacing" textLength="120" x="493.5" y="402.7772">condition: integer</text><text fill="#000000" font-family="sans-serif" font-size="14" lengthAdjust="spacing" textLength="86" x="493.5" y="421.8451">connector_id</text></g><!--class Location--><g id="elem_Location"><rect codeLine="37" fill="#FFF1D9" filter="url(#ftmzi572k3v01)" height="86.1358" id="Location" rx="5" ry="5" style="stroke:#181818;stroke-width:0.5;" width="136" x="385" y="7"/><rect fill="#FFD080" height="32" rx="5" ry="5" style="stroke:#FFD080;stroke-width:0.5;" width="136" x="385" y="7"/><rect fill="#FFD080" height="5" style="stroke:#FFD080;stroke-width:0.5;" width="136" x="385" y="34"/><rect codeLine="37" fill="none" height="86.1358" id="Location" rx="5" ry="5" style="stroke:#181818;stroke-width:0.5;" width="136" x="385" y="7"/><ellipse cx="421.6" cy="23" fill="#ADD1B2" rx="11" ry="11" style="stroke:#181818;stroke-width:1.0;"/><path d="M421.7094,18.5313 Q420.7875,18.5313 420.0531,18.8438 Q419.3344,19.1563 418.8344,19.75 Q418.3344,20.3281 418.0531,21.2031 Q417.7875,22.0781 417.7875,23.1719 Q417.7875,24.6094 418.225,25.6563 Q418.6781,26.7031 419.5219,27.25 Q420.3813,27.7969 421.6938,27.7969 Q422.475,27.7969 423.1625,27.6719 Q423.8656,27.5313 424.8656,27.2188 L424.8656,29.0938 Q424.0063,29.4219 423.2406,29.5469 Q422.4906,29.6719 421.475,29.6719 Q419.5531,29.6719 418.2406,28.875 Q416.9438,28.0625 416.2875,26.5938 Q415.6313,25.1094 415.6313,23.1406 Q415.6313,21.7188 416.0219,20.5469 Q416.4281,19.3594 417.2094,18.4844 Q417.9906,17.6094 419.1313,17.1406 Q420.2719,16.6563 421.7406,16.6563 Q422.6938,16.6563 423.5844,16.8594 Q424.4906,17.0469 425.4281,17.5156 L424.6,19.2969 Q423.8188,18.9219 423.1625,18.7344 Q422.5063,18.5313 421.7094,18.5313 Z " fill="#000000"/><text fill="#000000" font-family="sans-serif" font-size="14" lengthAdjust="spacing" textLength="56" x="440.4" y="28.432">Location</text><line style="stroke:#181818;stroke-width:0.5;" x1="386" x2="520" y1="39" y2="39"/><text fill="#000000" font-family="sans-serif" font-size="14" lengthAdjust="spacing" textLength="65" x="391" y="57.9659">lid: string</text><text fill="#000000" font-family="sans-serif" font-size="14" lengthAdjust="spacing" textLength="124" x="391" y="77.0339">description: string</text><line style="stroke:#181818;stroke-width:0.5;" x1="386" x2="520" y1="85.1358" y2="85.1358"/></g><!--class Context--><g id="elem_Context"><rect codeLine="42" fill="#FFF1D9" filter="url(#ftmzi572k3v01)" height="124.2717" id="Context" rx="5" ry="5" style="stroke:#181818;stroke-width:0.5;" width="150" x="7" y="238.94"/><rect fill="#FFD080" height="32" rx="5" ry="5" style="stroke:#FFD080;stroke-width:0.5;" width="150" x="7" y="238.94"/><rect fill="#FFD080" height="5" style="stroke:#FFD080;stroke-width:0.5;" width="150" x="7" y="265.94"/><rect codeLine="42" fill="none" height="124.2717" id="Context" rx="5" ry="5" style="stroke:#181818;stroke-width:0.5;" width="150" x="7" y="238.94"/><ellipse cx="52.25" cy="254.94" fill="#ADD1B2" rx="11" ry="11" style="stroke:#181818;stroke-width:1.0;"/><path d="M52.3594,250.4712 Q51.4375,250.4712 50.7031,250.7837 Q49.9844,251.0962 49.4844,251.69 Q48.9844,252.2681 48.7031,253.1431 Q48.4375,254.0181 48.4375,255.1119 Q48.4375,256.5494 48.875,257.5962 Q49.3281,258.6431 50.1719,259.19 Q51.0313,259.7369 52.3438,259.7369 Q53.125,259.7369 53.8125,259.6119 Q54.5156,259.4712 55.5156,259.1587 L55.5156,261.0337 Q54.6563,261.3619 53.8906,261.4869 Q53.1406,261.6119 52.125,261.6119 Q50.2031,261.6119 48.8906,260.815 Q47.5938,260.0025 46.9375,258.5337 Q46.2813,257.0494 46.2813,255.0806 Q46.2813,253.6587 46.6719,252.4869 Q47.0781,251.2994 47.8594,250.4244 Q48.6406,249.5494 49.7813,249.0806 Q50.9219,248.5962 52.3906,248.5962 Q53.3438,248.5962 54.2344,248.7994 Q55.1406,248.9869 56.0781,249.4556 L55.25,251.2369 Q54.4688,250.8619 53.8125,250.6744 Q53.1563,250.4712 52.3594,250.4712 Z " fill="#000000"/><text fill="#000000" font-family="sans-serif" font-size="14" lengthAdjust="spacing" textLength="51" x="72.75" y="260.372">Context</text><line style="stroke:#181818;stroke-width:0.5;" x1="8" x2="156" y1="270.94" y2="270.94"/><text fill="#000000" font-family="sans-serif" font-size="14" lengthAdjust="spacing" textLength="109" x="13" y="289.9059">mandant: string</text><text fill="#000000" font-family="sans-serif" font-size="14" lengthAdjust="spacing" textLength="138" x="13" y="308.9739">client_system: string</text><text fill="#000000" font-family="sans-serif" font-size="14" lengthAdjust="spacing" textLength="116" x="13" y="328.0418">workplace: string</text><text fill="#000000" font-family="sans-serif" font-size="14" lengthAdjust="spacing" textLength="124" x="13" y="347.1097">description: string</text><line style="stroke:#181818;stroke-width:0.5;" x1="8" x2="156" y1="355.2117" y2="355.2117"/></g><!--class ConnectorContext--><g id="elem_ConnectorContext"><rect codeLine="49" fill="#FFF1D9" filter="url(#ftmzi572k3v01)" height="105.2038" id="ConnectorContext" rx="5" ry="5" style="stroke:#181818;stroke-width:0.5;" width="152" x="118" y="556.69"/><rect fill="#FFD080" height="32" rx="5" ry="5" style="stroke:#FFD080;stroke-width:0.5;" width="152" x="118" y="556.69"/><rect fill="#FFD080" height="5" style="stroke:#FFD080;stroke-width:0.5;" width="152" x="118" y="583.69"/><rect codeLine="49" fill="none" height="105.2038" id="ConnectorContext" rx="5" ry="5" style="stroke:#181818;stroke-width:0.5;" width="152" x="118" y="556.69"/><ellipse cx="133" cy="572.69" fill="#ADD1B2" rx="11" ry="11" style="stroke:#181818;stroke-width:1.0;"/><path d="M133.1094,568.2212 Q132.1875,568.2212 131.4531,568.5337 Q130.7344,568.8462 130.2344,569.44 Q129.7344,570.0181 129.4531,570.8931 Q129.1875,571.7681 129.1875,572.8619 Q129.1875,574.2994 129.625,575.3462 Q130.0781,576.3931 130.9219,576.94 Q131.7813,577.4869 133.0938,577.4869 Q133.875,577.4869 134.5625,577.3619 Q135.2656,577.2212 136.2656,576.9087 L136.2656,578.7837 Q135.4063,579.1119 134.6406,579.2369 Q133.8906,579.3619 132.875,579.3619 Q130.9531,579.3619 129.6406,578.565 Q128.3438,577.7525 127.6875,576.2837 Q127.0313,574.7994 127.0313,572.8306 Q127.0313,571.4087 127.4219,570.2369 Q127.8281,569.0494 128.6094,568.1744 Q129.3906,567.2994 130.5313,566.8306 Q131.6719,566.3462 133.1406,566.3462 Q134.0938,566.3462 134.9844,566.5494 Q135.8906,566.7369 136.8281,567.2056 L136,568.9869 Q135.2188,568.6119 134.5625,568.4244 Q133.9063,568.2212 133.1094,568.2212 Z " fill="#000000"/><text fill="#000000" font-family="sans-serif" font-size="14" lengthAdjust="spacing" textLength="120" x="147" y="578.122">ConnectorContext</text><line style="stroke:#181818;stroke-width:0.5;" x1="119" x2="269" y1="588.69" y2="588.69"/><text fill="#000000" font-family="sans-serif" font-size="14" lengthAdjust="spacing" textLength="86" x="124" y="607.6559">connector_id</text><text fill="#000000" font-family="sans-serif" font-size="14" lengthAdjust="spacing" textLength="68" x="124" y="626.7239">context_id</text><text fill="#000000" font-family="sans-serif" font-size="14" lengthAdjust="spacing" textLength="111" x="124" y="645.7918">position: integer</text><line style="stroke:#181818;stroke-width:0.5;" x1="119" x2="269" y1="653.8938" y2="653.8938"/></g><!--class Card--><g id="elem_Card"><rect codeLine="55" fill="#FFF1D9" filter="url(#ftmzi572k3v01)" height="200.5433" id="Card" rx="5" ry="5" style="stroke:#181818;stroke-width:0.5;" width="184" x="472" y="509.02"/><rect fill="#FFD080" height="32" rx="5" ry="5" style="stroke:#FFD080;stroke-width:0.5;" width="184" x="472" y="509.02"/><rect fill="#FFD080" height="5" style="stroke:#FFD080;stroke-width:0.5;" width="184" x="472" y="536.02"/><rect codeLine="55" fill="none" height="200.5433" id="Card" rx="5" ry="5" style="stroke:#181818;stroke-width:0.5;" width="184" x="472" y="509.02"/><ellipse cx="543.75" cy="525.02" fill="#ADD1B2" rx="11" ry="11" style="stroke:#181818;stroke-width:1.0;"/><path d="M543.8594,520.5513 Q542.9375,520.5513 542.2031,520.8638 Q541.4844,521.1763 540.9844,521.77 Q540.4844,522.3481 540.2031,523.2231 Q539.9375,524.0981 539.9375,525.1919 Q539.9375,526.6294 540.375,527.6763 Q540.8281,528.7231 541.6719,529.27 Q542.5313,529.8169 543.8438,529.8169 Q544.625,529.8169 545.3125,529.6919 Q546.0156,529.5513 547.0156,529.2388 L547.0156,531.1138 Q546.1563,531.4419 545.3906,531.5669 Q544.6406,531.6919 543.625,531.6919 Q541.7031,531.6919 540.3906,530.895 Q539.0938,530.0825 538.4375,528.6138 Q537.7813,527.1294 537.7813,525.1606 Q537.7813,523.7388 538.1719,522.5669 Q538.5781,521.3794 539.3594,520.5044 Q540.1406,519.6294 541.2813,519.1606 Q542.4219,518.6763 543.8906,518.6763 Q544.8438,518.6763 545.7344,518.8794 Q546.6406,519.0669 547.5781,519.5356 L546.75,521.3169 Q545.9688,520.9419 545.3125,520.7544 Q544.6563,520.5513 543.8594,520.5513 Z " fill="#000000"/><text fill="#000000" font-family="sans-serif" font-size="14" lengthAdjust="spacing" textLength="32" x="564.25" y="530.452">Card</text><line style="stroke:#181818;stroke-width:0.5;" x1="473" x2="655" y1="541.02" y2="541.02"/><line style="stroke:#181818;stroke-width:1.0;" x1="473" x2="655" y1="549.02" y2="549.02"/><text fill="#000000" font-family="sans-serif" font-size="14" lengthAdjust="spacing" textLength="131" x="478" y="567.9859">card_handle: string</text><text fill="#000000" font-family="sans-serif" font-size="14" lengthAdjust="spacing" textLength="113" x="478" y="587.0539">card_type: string</text><text fill="#000000" font-family="sans-serif" font-size="14" lengthAdjust="spacing" textLength="82" x="478" y="606.1218">iccsn: string</text><text fill="#000000" font-family="sans-serif" font-size="14" lengthAdjust="spacing" textLength="94" x="478" y="625.1897">slotid: integer</text><text fill="#000000" font-family="sans-serif" font-size="14" lengthAdjust="spacing" textLength="155" x="478" y="644.2576">insert_time: timestamp</text><text fill="#000000" font-family="sans-serif" font-size="14" lengthAdjust="spacing" textLength="172" x="478" y="663.3255">card_holder_name: string</text><text fill="#000000" font-family="sans-serif" font-size="14" lengthAdjust="spacing" textLength="142" x="478" y="682.3934">expiration_date: date</text><text fill="#000000" font-family="sans-serif" font-size="14" lengthAdjust="spacing" textLength="112" x="478" y="701.4614">card_terminal_id</text></g><ellipse cx="194" cy="301.08" fill="#181818" rx="2" ry="2" style="stroke:#181818;stroke-width:1.0;"/><!--link Location to Connector--><g id="link_Location_Connector"><path codeLine="68" d="M434.04,93.59 C426.49,110.54 417.31,131.13 407.71,152.67 " fill="none" id="Location-Connector" style="stroke:#181818;stroke-width:1.0;"/><text fill="#000000" font-family="sans-serif" font-size="13" lengthAdjust="spacing" textLength="7" x="423.7412" y="115.1796">*</text><text fill="#000000" font-family="sans-serif" font-size="13" lengthAdjust="spacing" textLength="7" x="403.9177" y="141.495">*</text></g><!--link Connector to CardTerminal--><g id="link_Connector_CardTerminal"><path codeLine="70" d="M453.43,301.08 C464.66,301.08 475.89,301.08 487.12,301.08 " fill="none" id="Connector-CardTerminal" style="stroke:#181818;stroke-width:1.0;"/><text fill="#000000" font-family="sans-serif" font-size="13" lengthAdjust="spacing" textLength="7" x="461.1519" y="297.4302">1</text><text fill="#000000" font-family="sans-serif" font-size="13" lengthAdjust="spacing" textLength="7" x="472.4588" y="297.2011">*</text></g><!--link Location to CardTerminal--><g id="link_Location_CardTerminal"><path codeLine="71" d="M471.96,93.59 C481.74,115.54 494.25,143.6 506.87,171.92 " fill="none" id="Location-CardTerminal" style="stroke:#181818;stroke-width:1.0;"/><text fill="#000000" font-family="sans-serif" font-size="13" lengthAdjust="spacing" textLength="7" x="467.2307" y="115.1796">1</text><text fill="#000000" font-family="sans-serif" font-size="13" lengthAdjust="spacing" textLength="7" x="496.1754" y="160.4503">*</text></g><!--link Context to apoint12--><g id="link_Context_apoint12"><path d="M157.25,301.08 C168.73,301.08 180.22,301.08 191.7,301.08 " fill="none" id="Context-apoint12" style="stroke:#181818;stroke-width:1.0;"/><text fill="#000000" font-family="sans-serif" font-size="13" lengthAdjust="spacing" textLength="7" x="165.002" y="297.1755">*</text></g><!--link apoint12 to Connector--><g id="link_apoint12_Connector"><path d="M196.31,301.08 C207.79,301.08 219.27,301.08 230.74,301.08 " fill="none" id="apoint12-Connector" style="stroke:#181818;stroke-width:1.0;"/><text fill="#000000" font-family="sans-serif" font-size="13" lengthAdjust="spacing" textLength="7" x="216.0296" y="297.4302">*</text></g><!--link apoint12 to ConnectorContext--><g id="link_apoint12_ConnectorContext"><path d="M194,303.44 C194,319.51 194,473.56 194,556.31 " fill="none" id="apoint12-ConnectorContext" style="stroke:#181818;stroke-width:1.0;stroke-dasharray:7.0,7.0;"/></g><!--link CardTerminal to Card--><g id="link_CardTerminal_Card"><path codeLine="73" d="M564,430.16 C564,456.38 564,483.61 564,508.66 " fill="none" id="CardTerminal-Card" style="stroke:#181818;stroke-width:1.0;"/><text fill="#000000" font-family="sans-serif" font-size="13" lengthAdjust="spacing" textLength="7" x="556.7977" y="452.0316">1</text><text fill="#000000" font-family="sans-serif" font-size="13" lengthAdjust="spacing" textLength="7" x="556.732" y="497.2286">*</text></g><!--SRC=[bLGzSzim3DtrArXFIQ_nNLQjMJjsvz4a6YEc29Q4Kljw-Uy5ALcYx0pj8ebu-7eFe9YYOb87OgP1EKnW6IbqtHS-mW3AaZN9gPz9q7tNMMzoLYyKWlXHKkfFfrGm0_GgSyBmAaS7sIQC9Ksl4jgZPZYp01XxXG7APtPPZyatKOC9e_5wZCwmP3iGUJ11WAUdsVyyYF-SgiPNLwSDYna7o6o6A9YzTgSpf7Uqa7lrbYaS19FsMTiZsDCsPhLhEjsbSpYHmS3m2gdK9nDrWb-ZkEayMYcIswRVOs3K5BpmNUqVYu2YwGz80mRZguGES_JcygzAUfbAiMfqLuLYeWY9iMLxaywo-6yajtrv6EVITZopXE1QJfyAiOejhIpyli_zLMv-KtJ3QRP-D8jL6DOmMGXd0hVzUuGWSbyomz3OVrCwYNeM_gFCr7HRRyEa7Wiq7IBb6-QIwsKPPOslKoYNHH-bSxyHlbZv4biRMfj3SywUk0YrIej1zfTrsSMRZQn5o3j8-cR4S8wOfjMOxb5vBXtC6pUFgbkcjFkwa_RhQv6cksfJmNji_W7idXUqsUaczUVumvBXstNeZsg_lvjCjxafDTcQxIy0]--></g></svg>