<?xml version="1.0" encoding="us-ascii" standalone="no"?><svg xmlns="http://www.w3.org/2000/svg" xmlns:xlink="http://www.w3.org/1999/xlink" contentStyleType="text/css" height="1405px" preserveAspectRatio="none" style="width:879px;height:1405px;background:#FFFFFF;" version="1.1" viewBox="0 0 879 1405" width="879px" zoomAndPan="magnify"><defs><filter height="300%" id="fh9vwknd7698f" width="300%" x="-1" y="-1"><feGaussianBlur result="blurOut" stdDeviation="2.0"/><feColorMatrix in="blurOut" result="blurOut2" type="matrix" values="0 0 0 0 0 0 0 0 0 0 0 0 0 0 0 0 0 0 .4 0"/><feOffset dx="4.0" dy="4.0" in="blurOut2" result="blurOut3"/><feBlend in="SourceGraphic" in2="blurOut3" mode="normal"/></filter></defs><g><!--class Connector--><g id="elem_Connector"><rect codeLine="5" fill="#FFF1D9" filter="url(#fh9vwknd7698f)" height="429.3583" id="Connector" rx="5" ry="5" style="stroke:#181818;stroke-width:0.5;" width="222" x="129.5" y="465.35"/><rect fill="#FFD080" height="32" rx="5" ry="5" style="stroke:#FFD080;stroke-width:0.5;" width="222" x="129.5" y="465.35"/><rect fill="#FFD080" height="5" style="stroke:#FFD080;stroke-width:0.5;" width="222" x="129.5" y="492.35"/><rect codeLine="5" fill="none" height="429.3583" id="Connector" rx="5" ry="5" style="stroke:#181818;stroke-width:0.5;" width="222" x="129.5" y="465.35"/><ellipse cx="201.75" cy="481.35" fill="#ADD1B2" rx="11" ry="11" style="stroke:#181818;stroke-width:1.0;"/><path d="M201.8594,476.8813 Q200.9375,476.8813 200.2031,477.1938 Q199.4844,477.5063 198.9844,478.1 Q198.4844,478.6781 198.2031,479.5531 Q197.9375,480.4281 197.9375,481.5219 Q197.9375,482.9594 198.375,484.0063 Q198.8281,485.0531 199.6719,485.6 Q200.5313,486.1469 201.8438,486.1469 Q202.625,486.1469 203.3125,486.0219 Q204.0156,485.8813 205.0156,485.5688 L205.0156,487.4438 Q204.1563,487.7719 203.3906,487.8969 Q202.6406,488.0219 201.625,488.0219 Q199.7031,488.0219 198.3906,487.225 Q197.0938,486.4125 196.4375,484.9438 Q195.7813,483.4594 195.7813,481.4906 Q195.7813,480.0688 196.1719,478.8969 Q196.5781,477.7094 197.3594,476.8344 Q198.1406,475.9594 199.2813,475.4906 Q200.4219,475.0063 201.8906,475.0063 Q202.8438,475.0063 203.7344,475.2094 Q204.6406,475.3969 205.5781,475.8656 L204.75,477.6469 Q203.9688,477.2719 203.3125,477.0844 Q202.6563,476.8813 201.8594,476.8813 Z " fill="#000000"/><text fill="#000000" font-family="sans-serif" font-size="14" lengthAdjust="spacing" textLength="69" x="222.25" y="486.782">Connector</text><line style="stroke:#181818;stroke-width:0.5;" x1="130.5" x2="350.5" y1="497.35" y2="497.35"/><text fill="#000000" font-family="sans-serif" font-size="14" lengthAdjust="spacing" textLength="86" x="135.5" y="516.3159">name: string</text><text fill="#000000" font-family="sans-serif" font-size="14" lengthAdjust="spacing" textLength="141" x="135.5" y="535.3839">description: rich_text</text><text fill="#000000" font-family="sans-serif" font-size="14" lengthAdjust="spacing" textLength="47" x="135.5" y="554.4518">ip: inet</text><text fill="#000000" font-family="sans-serif" font-size="14" lengthAdjust="spacing" textLength="116" x="135.5" y="573.5197">admin_url: string</text><text fill="#000000" font-family="sans-serif" font-size="14" lengthAdjust="spacing" textLength="96" x="135.5" y="592.5876">sds_url: string</text><text fill="#000000" font-family="sans-serif" font-size="14" lengthAdjust="spacing" textLength="167" x="135.5" y="611.6555">manual_update: boolean</text><text fill="#000000" font-family="sans-serif" font-size="14" lengthAdjust="spacing" textLength="122" x="135.5" y="630.7234">id_contract: string</text><text fill="#000000" font-family="sans-serif" font-size="14" lengthAdjust="spacing" textLength="85" x="135.5" y="649.7914">serial: string</text><text fill="#000000" font-family="sans-serif" font-size="14" lengthAdjust="spacing" textLength="108" x="135.5" y="668.8593">use_tls: boolean</text><text fill="#000000" font-family="sans-serif" font-size="14" lengthAdjust="spacing" textLength="155" x="135.5" y="687.9272">authentication: integer</text><line style="stroke:#181818;stroke-width:1.0;" x1="130.5" x2="350.5" y1="696.0292" y2="696.0292"/><text fill="#000000" font-family="sans-serif" font-size="14" lengthAdjust="spacing" textLength="86" x="135.5" y="714.9951">sds_xml: text</text><text fill="#000000" font-family="sans-serif" font-size="14" lengthAdjust="spacing" textLength="185" x="135.5" y="734.063">sds_updated_at: timestamp</text><text fill="#000000" font-family="sans-serif" font-size="14" lengthAdjust="spacing" textLength="172" x="135.5" y="753.1309">connector_services: jsonb</text><text fill="#000000" font-family="sans-serif" font-size="14" lengthAdjust="spacing" textLength="148" x="135.5" y="772.1989">last_check: timestamp</text><text fill="#000000" font-family="sans-serif" font-size="14" lengthAdjust="spacing" textLength="169" x="135.5" y="791.2668">last_check_ok: timestamp</text><text fill="#000000" font-family="sans-serif" font-size="14" lengthAdjust="spacing" textLength="120" x="135.5" y="810.3347">condition: integer</text><text fill="#000000" font-family="sans-serif" font-size="14" lengthAdjust="spacing" textLength="177" x="135.5" y="829.4026">condition_message: string</text><text fill="#000000" font-family="sans-serif" font-size="14" lengthAdjust="spacing" textLength="210" x="135.5" y="848.4705">soap_request_success: boolean</text><text fill="#000000" font-family="sans-serif" font-size="14" lengthAdjust="spacing" textLength="144" x="135.5" y="867.5384">vpnti_online: boolean</text><text fill="#000000" font-family="sans-serif" font-size="14" lengthAdjust="spacing" textLength="164" x="135.5" y="886.6064">firmware_version: string</text></g><!--class CardTerminal--><g id="elem_CardTerminal"><rect codeLine="29" fill="#FFF1D9" filter="url(#fh9vwknd7698f)" height="448.4263" id="CardTerminal" rx="5" ry="5" style="stroke:#181818;stroke-width:0.5;" width="189" x="386" y="455.81"/><rect fill="#FFD080" height="32" rx="5" ry="5" style="stroke:#FFD080;stroke-width:0.5;" width="189" x="386" y="455.81"/><rect fill="#FFD080" height="5" style="stroke:#FFD080;stroke-width:0.5;" width="189" x="386" y="482.81"/><rect codeLine="29" fill="none" height="448.4263" id="CardTerminal" rx="5" ry="5" style="stroke:#181818;stroke-width:0.5;" width="189" x="386" y="455.81"/><ellipse cx="430.25" cy="471.81" fill="#ADD1B2" rx="11" ry="11" style="stroke:#181818;stroke-width:1.0;"/><path d="M430.3594,467.3413 Q429.4375,467.3413 428.7031,467.6538 Q427.9844,467.9663 427.4844,468.56 Q426.9844,469.1381 426.7031,470.0131 Q426.4375,470.8881 426.4375,471.9819 Q426.4375,473.4194 426.875,474.4663 Q427.3281,475.5131 428.1719,476.06 Q429.0313,476.6069 430.3438,476.6069 Q431.125,476.6069 431.8125,476.4819 Q432.5156,476.3413 433.5156,476.0288 L433.5156,477.9038 Q432.6563,478.2319 431.8906,478.3569 Q431.1406,478.4819 430.125,478.4819 Q428.2031,478.4819 426.8906,477.685 Q425.5938,476.8725 424.9375,475.4038 Q424.2813,473.9194 424.2813,471.9506 Q424.2813,470.5288 424.6719,469.3569 Q425.0781,468.1694 425.8594,467.2944 Q426.6406,466.4194 427.7813,465.9506 Q428.9219,465.4663 430.3906,465.4663 Q431.3438,465.4663 432.2344,465.6694 Q433.1406,465.8569 434.0781,466.3256 L433.25,468.1069 Q432.4688,467.7319 431.8125,467.5444 Q431.1563,467.3413 430.3594,467.3413 Z " fill="#000000"/><text fill="#000000" font-family="sans-serif" font-size="14" lengthAdjust="spacing" textLength="92" x="450.75" y="477.242">CardTerminal</text><line style="stroke:#181818;stroke-width:0.5;" x1="387" x2="574" y1="487.81" y2="487.81"/><text fill="#000000" font-family="sans-serif" font-size="14" lengthAdjust="spacing" textLength="134" x="392" y="506.7759">displayname: string</text><text fill="#000000" font-family="sans-serif" font-size="14" lengthAdjust="spacing" textLength="141" x="392" y="525.8439">description: rich_text</text><text fill="#000000" font-family="sans-serif" font-size="14" lengthAdjust="spacing" textLength="83" x="392" y="544.9118">room: string</text><text fill="#000000" font-family="sans-serif" font-size="14" lengthAdjust="spacing" textLength="97" x="392" y="563.9797">contact: string</text><text fill="#000000" font-family="sans-serif" font-size="14" lengthAdjust="spacing" textLength="124" x="392" y="583.0476">plugged_in: string</text><text fill="#000000" font-family="sans-serif" font-size="14" lengthAdjust="spacing" textLength="127" x="392" y="602.1155">delivery_date: date</text><text fill="#000000" font-family="sans-serif" font-size="14" lengthAdjust="spacing" textLength="104" x="392" y="621.1834">supplier: string</text><text fill="#000000" font-family="sans-serif" font-size="14" lengthAdjust="spacing" textLength="85" x="392" y="640.2514">serial: string</text><text fill="#000000" font-family="sans-serif" font-size="14" lengthAdjust="spacing" textLength="120" x="392" y="659.3193">id_product: string</text><text fill="#000000" font-family="sans-serif" font-size="14" lengthAdjust="spacing" textLength="72" x="392" y="678.3872">location_id</text><line style="stroke:#181818;stroke-width:1.0;" x1="387" x2="574" y1="686.4892" y2="686.4892"/><text fill="#000000" font-family="sans-serif" font-size="14" lengthAdjust="spacing" textLength="115" x="392" y="705.4551">properties: jsonb</text><text fill="#000000" font-family="sans-serif" font-size="14" lengthAdjust="spacing" textLength="86" x="392" y="724.523">name: string</text><text fill="#000000" font-family="sans-serif" font-size="14" lengthAdjust="spacing" textLength="79" x="392" y="743.5909">ct_id: string</text><text fill="#000000" font-family="sans-serif" font-size="14" lengthAdjust="spacing" textLength="96" x="392" y="762.6589">mac: macaddr</text><text fill="#000000" font-family="sans-serif" font-size="14" lengthAdjust="spacing" textLength="47" x="392" y="781.7268">ip: inet</text><text fill="#000000" font-family="sans-serif" font-size="14" lengthAdjust="spacing" textLength="88" x="392" y="800.7947">slots: integer</text><text fill="#000000" font-family="sans-serif" font-size="14" lengthAdjust="spacing" textLength="132" x="392" y="819.8626">connected: boolean</text><text fill="#000000" font-family="sans-serif" font-size="14" lengthAdjust="spacing" textLength="177" x="392" y="838.9305">condition_message: string</text><text fill="#000000" font-family="sans-serif" font-size="14" lengthAdjust="spacing" textLength="120" x="392" y="857.9984">condition: integer</text><text fill="#000000" font-family="sans-serif" font-size="14" lengthAdjust="spacing" textLength="164" x="392" y="877.0664">firmware_version: string</text><text fill="#000000" font-family="sans-serif" font-size="14" lengthAdjust="spacing" textLength="86" x="392" y="896.1343">connector_id</text></g><!--class Location--><g id="elem_Location"><rect codeLine="54" fill="#FFF1D9" filter="url(#fh9vwknd7698f)" height="86.1358" id="Location" rx="5" ry="5" style="stroke:#181818;stroke-width:0.5;" width="136" x="472.5" y="200.8"/><rect fill="#FFD080" height="32" rx="5" ry="5" style="stroke:#FFD080;stroke-width:0.5;" width="136" x="472.5" y="200.8"/><rect fill="#FFD080" height="5" style="stroke:#FFD080;stroke-width:0.5;" width="136" x="472.5" y="227.8"/><rect codeLine="54" fill="none" height="86.1358" id="Location" rx="5" ry="5" style="stroke:#181818;stroke-width:0.5;" width="136" x="472.5" y="200.8"/><ellipse cx="509.1" cy="216.8" fill="#ADD1B2" rx="11" ry="11" style="stroke:#181818;stroke-width:1.0;"/><path d="M509.2094,212.3312 Q508.2875,212.3312 507.5531,212.6437 Q506.8344,212.9562 506.3344,213.55 Q505.8344,214.1281 505.5531,215.0031 Q505.2875,215.8781 505.2875,216.9719 Q505.2875,218.4094 505.725,219.4562 Q506.1781,220.5031 507.0219,221.05 Q507.8813,221.5969 509.1938,221.5969 Q509.975,221.5969 510.6625,221.4719 Q511.3656,221.3312 512.3656,221.0187 L512.3656,222.8937 Q511.5063,223.2219 510.7406,223.3469 Q509.9906,223.4719 508.975,223.4719 Q507.0531,223.4719 505.7406,222.675 Q504.4438,221.8625 503.7875,220.3937 Q503.1313,218.9094 503.1313,216.9406 Q503.1313,215.5187 503.5219,214.3469 Q503.9281,213.1594 504.7094,212.2844 Q505.4906,211.4094 506.6313,210.9406 Q507.7719,210.4562 509.2406,210.4562 Q510.1938,210.4562 511.0844,210.6594 Q511.9906,210.8469 512.9281,211.3156 L512.1,213.0969 Q511.3188,212.7219 510.6625,212.5344 Q510.0063,212.3312 509.2094,212.3312 Z " fill="#000000"/><text fill="#000000" font-family="sans-serif" font-size="14" lengthAdjust="spacing" textLength="56" x="527.9" y="222.232">Location</text><line style="stroke:#181818;stroke-width:0.5;" x1="473.5" x2="607.5" y1="232.8" y2="232.8"/><text fill="#000000" font-family="sans-serif" font-size="14" lengthAdjust="spacing" textLength="65" x="478.5" y="251.7659">lid: string</text><text fill="#000000" font-family="sans-serif" font-size="14" lengthAdjust="spacing" textLength="124" x="478.5" y="270.8339">description: string</text><line style="stroke:#181818;stroke-width:0.5;" x1="473.5" x2="607.5" y1="278.9358" y2="278.9358"/></g><!--class Context--><g id="elem_Context"><rect codeLine="59" fill="#FFF1D9" filter="url(#fh9vwknd7698f)" height="124.2717" id="Context" rx="5" ry="5" style="stroke:#181818;stroke-width:0.5;" width="150" x="285.5" y="7"/><rect fill="#FFD080" height="32" rx="5" ry="5" style="stroke:#FFD080;stroke-width:0.5;" width="150" x="285.5" y="7"/><rect fill="#FFD080" height="5" style="stroke:#FFD080;stroke-width:0.5;" width="150" x="285.5" y="34"/><rect codeLine="59" fill="none" height="124.2717" id="Context" rx="5" ry="5" style="stroke:#181818;stroke-width:0.5;" width="150" x="285.5" y="7"/><ellipse cx="330.75" cy="23" fill="#ADD1B2" rx="11" ry="11" style="stroke:#181818;stroke-width:1.0;"/><path d="M330.8594,18.5313 Q329.9375,18.5313 329.2031,18.8438 Q328.4844,19.1563 327.9844,19.75 Q327.4844,20.3281 327.2031,21.2031 Q326.9375,22.0781 326.9375,23.1719 Q326.9375,24.6094 327.375,25.6563 Q327.8281,26.7031 328.6719,27.25 Q329.5313,27.7969 330.8438,27.7969 Q331.625,27.7969 332.3125,27.6719 Q333.0156,27.5313 334.0156,27.2188 L334.0156,29.0938 Q333.1563,29.4219 332.3906,29.5469 Q331.6406,29.6719 330.625,29.6719 Q328.7031,29.6719 327.3906,28.875 Q326.0938,28.0625 325.4375,26.5938 Q324.7813,25.1094 324.7813,23.1406 Q324.7813,21.7188 325.1719,20.5469 Q325.5781,19.3594 326.3594,18.4844 Q327.1406,17.6094 328.2813,17.1406 Q329.4219,16.6563 330.8906,16.6563 Q331.8438,16.6563 332.7344,16.8594 Q333.6406,17.0469 334.5781,17.5156 L333.75,19.2969 Q332.9688,18.9219 332.3125,18.7344 Q331.6563,18.5313 330.8594,18.5313 Z " fill="#000000"/><text fill="#000000" font-family="sans-serif" font-size="14" lengthAdjust="spacing" textLength="51" x="351.25" y="28.432">Context</text><line style="stroke:#181818;stroke-width:0.5;" x1="286.5" x2="434.5" y1="39" y2="39"/><text fill="#000000" font-family="sans-serif" font-size="14" lengthAdjust="spacing" textLength="109" x="291.5" y="57.9659">mandant: string</text><text fill="#000000" font-family="sans-serif" font-size="14" lengthAdjust="spacing" textLength="138" x="291.5" y="77.0339">client_system: string</text><text fill="#000000" font-family="sans-serif" font-size="14" lengthAdjust="spacing" textLength="116" x="291.5" y="96.1018">workplace: string</text><text fill="#000000" font-family="sans-serif" font-size="14" lengthAdjust="spacing" textLength="124" x="291.5" y="115.1697">description: string</text><line style="stroke:#181818;stroke-width:0.5;" x1="286.5" x2="434.5" y1="123.2717" y2="123.2717"/></g><!--class ConnectorContext--><g id="elem_ConnectorContext"><rect codeLine="66" fill="#FFF1D9" filter="url(#fh9vwknd7698f)" height="105.2038" id="ConnectorContext" rx="5" ry="5" style="stroke:#181818;stroke-width:0.5;" width="152" x="97.5" y="191.27"/><rect fill="#FFD080" height="32" rx="5" ry="5" style="stroke:#FFD080;stroke-width:0.5;" width="152" x="97.5" y="191.27"/><rect fill="#FFD080" height="5" style="stroke:#FFD080;stroke-width:0.5;" width="152" x="97.5" y="218.27"/><rect codeLine="66" fill="none" height="105.2038" id="ConnectorContext" rx="5" ry="5" style="stroke:#181818;stroke-width:0.5;" width="152" x="97.5" y="191.27"/><ellipse cx="112.5" cy="207.27" fill="#ADD1B2" rx="11" ry="11" style="stroke:#181818;stroke-width:1.0;"/><path d="M112.6094,202.8012 Q111.6875,202.8012 110.9531,203.1137 Q110.2344,203.4262 109.7344,204.02 Q109.2344,204.5981 108.9531,205.4731 Q108.6875,206.3481 108.6875,207.4419 Q108.6875,208.8794 109.125,209.9262 Q109.5781,210.9731 110.4219,211.52 Q111.2813,212.0669 112.5938,212.0669 Q113.375,212.0669 114.0625,211.9419 Q114.7656,211.8012 115.7656,211.4887 L115.7656,213.3637 Q114.9063,213.6919 114.1406,213.8169 Q113.3906,213.9419 112.375,213.9419 Q110.4531,213.9419 109.1406,213.145 Q107.8438,212.3325 107.1875,210.8637 Q106.5313,209.3794 106.5313,207.4106 Q106.5313,205.9887 106.9219,204.8169 Q107.3281,203.6294 108.1094,202.7544 Q108.8906,201.8794 110.0313,201.4106 Q111.1719,200.9262 112.6406,200.9262 Q113.5938,200.9262 114.4844,201.1294 Q115.3906,201.3169 116.3281,201.7856 L115.5,203.5669 Q114.7188,203.1919 114.0625,203.0044 Q113.4063,202.8012 112.6094,202.8012 Z " fill="#000000"/><text fill="#000000" font-family="sans-serif" font-size="14" lengthAdjust="spacing" textLength="120" x="126.5" y="212.702">ConnectorContext</text><line style="stroke:#181818;stroke-width:0.5;" x1="98.5" x2="248.5" y1="223.27" y2="223.27"/><text fill="#000000" font-family="sans-serif" font-size="14" lengthAdjust="spacing" textLength="86" x="103.5" y="242.2359">connector_id</text><text fill="#000000" font-family="sans-serif" font-size="14" lengthAdjust="spacing" textLength="68" x="103.5" y="261.3039">context_id</text><text fill="#000000" font-family="sans-serif" font-size="14" lengthAdjust="spacing" textLength="111" x="103.5" y="280.3718">position: integer</text><line style="stroke:#181818;stroke-width:0.5;" x1="98.5" x2="248.5" y1="288.4738" y2="288.4738"/></g><!--class Card--><g id="elem_Card"><rect codeLine="72" fill="#FFF1D9" filter="url(#fh9vwknd7698f)" height="647.1054" id="Card" rx="5" ry="5" style="stroke:#181818;stroke-width:0.5;" width="222" x="609.5" y="356.47"/><rect fill="#FFD080" height="32" rx="5" ry="5" style="stroke:#FFD080;stroke-width:0.5;" width="222" x="609.5" y="356.47"/><rect fill="#FFD080" height="5" style="stroke:#FFD080;stroke-width:0.5;" width="222" x="609.5" y="383.47"/><rect codeLine="72" fill="none" height="647.1054" id="Card" rx="5" ry="5" style="stroke:#181818;stroke-width:0.5;" width="222" x="609.5" y="356.47"/><ellipse cx="700.25" cy="372.47" fill="#ADD1B2" rx="11" ry="11" style="stroke:#181818;stroke-width:1.0;"/><path d="M700.3594,368.0013 Q699.4375,368.0013 698.7031,368.3138 Q697.9844,368.6263 697.4844,369.22 Q696.9844,369.7981 696.7031,370.6731 Q696.4375,371.5481 696.4375,372.6419 Q696.4375,374.0794 696.875,375.1263 Q697.3281,376.1731 698.1719,376.72 Q699.0313,377.2669 700.3438,377.2669 Q701.125,377.2669 701.8125,377.1419 Q702.5156,377.0013 703.5156,376.6888 L703.5156,378.5638 Q702.6563,378.8919 701.8906,379.0169 Q701.1406,379.1419 700.125,379.1419 Q698.2031,379.1419 696.8906,378.345 Q695.5938,377.5325 694.9375,376.0638 Q694.2813,374.5794 694.2813,372.6106 Q694.2813,371.1888 694.6719,370.0169 Q695.0781,368.8294 695.8594,367.9544 Q696.6406,367.0794 697.7813,366.6106 Q698.9219,366.1263 700.3906,366.1263 Q701.3438,366.1263 702.2344,366.3294 Q703.1406,366.5169 704.0781,366.9856 L703.25,368.7669 Q702.4688,368.3919 701.8125,368.2044 Q701.1563,368.0013 700.3594,368.0013 Z " fill="#000000"/><text fill="#000000" font-family="sans-serif" font-size="14" lengthAdjust="spacing" textLength="32" x="720.75" y="377.902">Card</text><line style="stroke:#181818;stroke-width:0.5;" x1="610.5" x2="830.5" y1="388.47" y2="388.47"/><text fill="#000000" font-family="sans-serif" font-size="14" lengthAdjust="spacing" textLength="86" x="615.5" y="407.4359">name: string</text><text fill="#000000" font-family="sans-serif" font-size="14" lengthAdjust="spacing" textLength="141" x="615.5" y="426.5039">description: rich_text</text><text fill="#000000" font-family="sans-serif" font-size="14" lengthAdjust="spacing" textLength="135" x="615.5" y="445.5718">operational_state_id</text><text fill="#000000" font-family="sans-serif" font-size="14" lengthAdjust="spacing" textLength="72" x="615.5" y="464.6397">location_id</text><text fill="#000000" font-family="sans-serif" font-size="14" lengthAdjust="spacing" textLength="75" x="615.5" y="483.7076">lanr: string</text><text fill="#000000" font-family="sans-serif" font-size="14" lengthAdjust="spacing" textLength="135" x="615.5" y="502.7755">fachrichtung: string</text><text fill="#000000" font-family="sans-serif" font-size="14" lengthAdjust="spacing" textLength="79" x="615.5" y="521.8434">bsnr: string</text><text fill="#000000" font-family="sans-serif" font-size="14" lengthAdjust="spacing" textLength="123" x="615.5" y="540.9114">telematikid: string</text><text fill="#000000" font-family="sans-serif" font-size="14" lengthAdjust="spacing" textLength="197" x="615.5" y="559.9793">private_information: rich_text</text><text fill="#000000" font-family="sans-serif" font-size="14" lengthAdjust="spacing" textLength="68" x="615.5" y="579.0472">context_id</text><line style="stroke:#181818;stroke-width:1.0;" x1="610.5" x2="830.5" y1="587.1492" y2="587.1492"/><text fill="#000000" font-family="sans-serif" font-size="14" lengthAdjust="spacing" textLength="115" x="615.5" y="606.1151">properties: jsonb</text><text fill="#000000" font-family="sans-serif" font-size="14" lengthAdjust="spacing" textLength="131" x="615.5" y="625.183">card_handle: string</text><text fill="#000000" font-family="sans-serif" font-size="14" lengthAdjust="spacing" textLength="113" x="615.5" y="644.2509">card_type: string</text><text fill="#000000" font-family="sans-serif" font-size="14" lengthAdjust="spacing" textLength="82" x="615.5" y="663.3189">iccsn: string</text><text fill="#000000" font-family="sans-serif" font-size="14" lengthAdjust="spacing" textLength="94" x="615.5" y="682.3868">slotid: integer</text><text fill="#000000" font-family="sans-serif" font-size="14" lengthAdjust="spacing" textLength="155" x="615.5" y="701.4547">insert_time: timestamp</text><text fill="#000000" font-family="sans-serif" font-size="14" lengthAdjust="spacing" textLength="172" x="615.5" y="720.5226">card_holder_name: string</text><text fill="#000000" font-family="sans-serif" font-size="14" lengthAdjust="spacing" textLength="142" x="615.5" y="739.5905">expiration_date: date</text><text fill="#000000" font-family="sans-serif" font-size="14" lengthAdjust="spacing" textLength="120" x="615.5" y="758.6584">condition: integer</text><text fill="#000000" font-family="sans-serif" font-size="14" lengthAdjust="spacing" textLength="177" x="615.5" y="777.7264">condition_message: string</text><text fill="#000000" font-family="sans-serif" font-size="14" lengthAdjust="spacing" textLength="117" x="615.5" y="796.7943">pin_status: string</text><text fill="#000000" font-family="sans-serif" font-size="14" lengthAdjust="spacing" textLength="112" x="615.5" y="815.8622">card_terminal_id</text><line style="stroke:#181818;stroke-width:1.0;" x1="610.5" x2="830.5" y1="823.9642" y2="823.9642"/><text fill="#000000" font-family="sans-serif" font-size="14" lengthAdjust="spacing" textLength="96" x="615.5" y="842.9301">certificate:text</text><text fill="#000000" font-family="sans-serif" font-size="14" lengthAdjust="spacing" textLength="151" x="615.5" y="861.998">cert_subject_cn: string</text><text fill="#000000" font-family="sans-serif" font-size="14" lengthAdjust="spacing" textLength="161" x="615.5" y="881.0659">cert_subject_title: string</text><text fill="#000000" font-family="sans-serif" font-size="14" lengthAdjust="spacing" textLength="151" x="615.5" y="900.1339">cert_subject_sn: string</text><text fill="#000000" font-family="sans-serif" font-size="14" lengthAdjust="spacing" textLength="210" x="615.5" y="919.2018">cert_subject_givenname: string</text><text fill="#000000" font-family="sans-serif" font-size="14" lengthAdjust="spacing" textLength="174" x="615.5" y="938.2697">cert_subject_street: string</text><text fill="#000000" font-family="sans-serif" font-size="14" lengthAdjust="spacing" textLength="208" x="615.5" y="957.3376">cert_subject_postalcode: string</text><text fill="#000000" font-family="sans-serif" font-size="14" lengthAdjust="spacing" textLength="139" x="615.5" y="976.4055">cert_subject_l: string</text><text fill="#000000" font-family="sans-serif" font-size="14" lengthAdjust="spacing" textLength="143" x="615.5" y="995.4734">cert_subject_o: string</text></g><!--class Workplace--><g id="elem_Workplace"><rect codeLine="108" fill="#FFF1D9" filter="url(#fh9vwknd7698f)" height="86.1358" id="Workplace" rx="5" ry="5" style="stroke:#181818;stroke-width:0.5;" width="136" x="531.5" y="1305.05"/><rect fill="#FFD080" height="32" rx="5" ry="5" style="stroke:#FFD080;stroke-width:0.5;" width="136" x="531.5" y="1305.05"/><rect fill="#FFD080" height="5" style="stroke:#FFD080;stroke-width:0.5;" width="136" x="531.5" y="1332.05"/><rect codeLine="108" fill="none" height="86.1358" id="Workplace" rx="5" ry="5" style="stroke:#181818;stroke-width:0.5;" width="136" x="531.5" y="1305.05"/><ellipse cx="561.8" cy="1321.05" fill="#ADD1B2" rx="11" ry="11" style="stroke:#181818;stroke-width:1.0;"/><path d="M561.9094,1316.5813 Q560.9875,1316.5813 560.2531,1316.8938 Q559.5344,1317.2063 559.0344,1317.8 Q558.5344,1318.3781 558.2531,1319.2531 Q557.9875,1320.1281 557.9875,1321.2219 Q557.9875,1322.6594 558.425,1323.7063 Q558.8781,1324.7531 559.7219,1325.3 Q560.5813,1325.8469 561.8938,1325.8469 Q562.675,1325.8469 563.3625,1325.7219 Q564.0656,1325.5813 565.0656,1325.2688 L565.0656,1327.1438 Q564.2063,1327.4719 563.4406,1327.5969 Q562.6906,1327.7219 561.675,1327.7219 Q559.7531,1327.7219 558.4406,1326.925 Q557.1438,1326.1125 556.4875,1324.6438 Q555.8313,1323.1594 555.8313,1321.1906 Q555.8313,1319.7688 556.2219,1318.5969 Q556.6281,1317.4094 557.4094,1316.5344 Q558.1906,1315.6594 559.3313,1315.1906 Q560.4719,1314.7063 561.9406,1314.7063 Q562.8938,1314.7063 563.7844,1314.9094 Q564.6906,1315.0969 565.6281,1315.5656 L564.8,1317.3469 Q564.0188,1316.9719 563.3625,1316.7844 Q562.7063,1316.5813 561.9094,1316.5813 Z " fill="#000000"/><text fill="#000000" font-family="sans-serif" font-size="14" lengthAdjust="spacing" textLength="70" x="579.2" y="1326.482">Workplace</text><line style="stroke:#181818;stroke-width:0.5;" x1="532.5" x2="666.5" y1="1337.05" y2="1337.05"/><text fill="#000000" font-family="sans-serif" font-size="14" lengthAdjust="spacing" textLength="124" x="537.5" y="1356.0159">description: string</text><line style="stroke:#181818;stroke-width:1.0;" x1="532.5" x2="666.5" y1="1364.1179" y2="1364.1179"/><text fill="#000000" font-family="sans-serif" font-size="14" lengthAdjust="spacing" textLength="86" x="537.5" y="1383.0839">name: string</text></g><!--class TerminalWorkplaces--><g id="elem_TerminalWorkplaces"><rect codeLine="113" fill="#FFF1D9" filter="url(#fh9vwknd7698f)" height="143.3396" id="TerminalWorkplaces" rx="5" ry="5" style="stroke:#181818;stroke-width:0.5;" width="169" x="195" y="1082.65"/><rect fill="#FFD080" height="32" rx="5" ry="5" style="stroke:#FFD080;stroke-width:0.5;" width="169" x="195" y="1082.65"/><rect fill="#FFD080" height="5" style="stroke:#FFD080;stroke-width:0.5;" width="169" x="195" y="1109.65"/><rect codeLine="113" fill="none" height="143.3396" id="TerminalWorkplaces" rx="5" ry="5" style="stroke:#181818;stroke-width:0.5;" width="169" x="195" y="1082.65"/><ellipse cx="210" cy="1098.65" fill="#ADD1B2" rx="11" ry="11" style="stroke:#181818;stroke-width:1.0;"/><path d="M210.1094,1094.1813 Q209.1875,1094.1813 208.4531,1094.4938 Q207.7344,1094.8063 207.2344,1095.4 Q206.7344,1095.9781 206.4531,1096.8531 Q206.1875,1097.7281 206.1875,1098.8219 Q206.1875,1100.2594 206.625,1101.3063 Q207.0781,1102.3531 207.9219,1102.9 Q208.7813,1103.4469 210.0938,1103.4469 Q210.875,1103.4469 211.5625,1103.3219 Q212.2656,1103.1813 213.2656,1102.8688 L213.2656,1104.7438 Q212.4063,1105.0719 211.6406,1105.1969 Q210.8906,1105.3219 209.875,1105.3219 Q207.9531,1105.3219 206.6406,1104.525 Q205.3438,1103.7125 204.6875,1102.2438 Q204.0313,1100.7594 204.0313,1098.7906 Q204.0313,1097.3688 204.4219,1096.1969 Q204.8281,1095.0094 205.6094,1094.1344 Q206.3906,1093.2594 207.5313,1092.7906 Q208.6719,1092.3063 210.1406,1092.3063 Q211.0938,1092.3063 211.9844,1092.5094 Q212.8906,1092.6969 213.8281,1093.1656 L213,1094.9469 Q212.2188,1094.5719 211.5625,1094.3844 Q210.9063,1094.1813 210.1094,1094.1813 Z " fill="#000000"/><text fill="#000000" font-family="sans-serif" font-size="14" lengthAdjust="spacing" textLength="137" x="224" y="1104.082">TerminalWorkplaces</text><line style="stroke:#181818;stroke-width:0.5;" x1="196" x2="363" y1="1114.65" y2="1114.65"/><text fill="#000000" font-family="sans-serif" font-size="14" lengthAdjust="spacing" textLength="112" x="201" y="1133.6159">card_terminal_id</text><text fill="#000000" font-family="sans-serif" font-size="14" lengthAdjust="spacing" textLength="87" x="201" y="1152.6839">workplace_id</text><text fill="#000000" font-family="sans-serif" font-size="14" lengthAdjust="spacing" textLength="109" x="201" y="1171.7518">mandant: string</text><text fill="#000000" font-family="sans-serif" font-size="14" lengthAdjust="spacing" textLength="138" x="201" y="1190.8197">client_system: string</text><text fill="#000000" font-family="sans-serif" font-size="14" lengthAdjust="spacing" textLength="76" x="201" y="1209.8876">updated_at</text><line style="stroke:#181818;stroke-width:0.5;" x1="196" x2="363" y1="1217.9896" y2="1217.9896"/></g><!--class OperationalState--><g id="elem_OperationalState"><rect codeLine="120" fill="#FFF1D9" filter="url(#fh9vwknd7698f)" height="105.2038" id="OperationalState" rx="5" ry="5" style="stroke:#181818;stroke-width:0.5;" width="151" x="714" y="191.27"/><rect fill="#FFD080" height="32" rx="5" ry="5" style="stroke:#FFD080;stroke-width:0.5;" width="151" x="714" y="191.27"/><rect fill="#FFD080" height="5" style="stroke:#FFD080;stroke-width:0.5;" width="151" x="714" y="218.27"/><rect codeLine="120" fill="none" height="105.2038" id="OperationalState" rx="5" ry="5" style="stroke:#181818;stroke-width:0.5;" width="151" x="714" y="191.27"/><ellipse cx="731.25" cy="207.27" fill="#ADD1B2" rx="11" ry="11" style="stroke:#181818;stroke-width:1.0;"/><path d="M731.3594,202.8012 Q730.4375,202.8012 729.7031,203.1137 Q728.9844,203.4262 728.4844,204.02 Q727.9844,204.5981 727.7031,205.4731 Q727.4375,206.3481 727.4375,207.4419 Q727.4375,208.8794 727.875,209.9262 Q728.3281,210.9731 729.1719,211.52 Q730.0313,212.0669 731.3438,212.0669 Q732.125,212.0669 732.8125,211.9419 Q733.5156,211.8012 734.5156,211.4887 L734.5156,213.3637 Q733.6563,213.6919 732.8906,213.8169 Q732.1406,213.9419 731.125,213.9419 Q729.2031,213.9419 727.8906,213.145 Q726.5938,212.3325 725.9375,210.8637 Q725.2813,209.3794 725.2813,207.4106 Q725.2813,205.9887 725.6719,204.8169 Q726.0781,203.6294 726.8594,202.7544 Q727.6406,201.8794 728.7813,201.4106 Q729.9219,200.9262 731.3906,200.9262 Q732.3438,200.9262 733.2344,201.1294 Q734.1406,201.3169 735.0781,201.7856 L734.25,203.5669 Q733.4688,203.1919 732.8125,203.0044 Q732.1563,202.8012 731.3594,202.8012 Z " fill="#000000"/><text fill="#000000" font-family="sans-serif" font-size="14" lengthAdjust="spacing" textLength="114" x="745.75" y="212.702">OperationalState</text><line style="stroke:#181818;stroke-width:0.5;" x1="715" x2="864" y1="223.27" y2="223.27"/><text fill="#000000" font-family="sans-serif" font-size="14" lengthAdjust="spacing" textLength="86" x="720" y="242.2359">name: string</text><text fill="#000000" font-family="sans-serif" font-size="14" lengthAdjust="spacing" textLength="124" x="720" y="261.3039">description: string</text><text fill="#000000" font-family="sans-serif" font-size="14" lengthAdjust="spacing" textLength="139" x="720" y="280.3718">operational: boolean</text><line style="stroke:#181818;stroke-width:0.5;" x1="715" x2="864" y1="288.4738" y2="288.4738"/></g><!--class Log--><g id="elem_Log"><rect codeLine="126" fill="#FFF1D9" filter="url(#fh9vwknd7698f)" height="181.4754" id="Log" rx="5" ry="5" style="stroke:#181818;stroke-width:0.5;" width="163" x="399" y="1063.58"/><rect fill="#FFD080" height="32" rx="5" ry="5" style="stroke:#FFD080;stroke-width:0.5;" width="163" x="399" y="1063.58"/><rect fill="#FFD080" height="5" style="stroke:#FFD080;stroke-width:0.5;" width="163" x="399" y="1090.58"/><rect codeLine="126" fill="none" height="181.4754" id="Log" rx="5" ry="5" style="stroke:#181818;stroke-width:0.5;" width="163" x="399" y="1063.58"/><ellipse cx="464.25" cy="1079.58" fill="#ADD1B2" rx="11" ry="11" style="stroke:#181818;stroke-width:1.0;"/><path d="M464.3594,1075.1113 Q463.4375,1075.1113 462.7031,1075.4238 Q461.9844,1075.7363 461.4844,1076.33 Q460.9844,1076.9081 460.7031,1077.7831 Q460.4375,1078.6581 460.4375,1079.7519 Q460.4375,1081.1894 460.875,1082.2363 Q461.3281,1083.2831 462.1719,1083.83 Q463.0313,1084.3769 464.3438,1084.3769 Q465.125,1084.3769 465.8125,1084.2519 Q466.5156,1084.1113 467.5156,1083.7988 L467.5156,1085.6738 Q466.6563,1086.0019 465.8906,1086.1269 Q465.1406,1086.2519 464.125,1086.2519 Q462.2031,1086.2519 460.8906,1085.455 Q459.5938,1084.6425 458.9375,1083.1738 Q458.2813,1081.6894 458.2813,1079.7206 Q458.2813,1078.2988 458.6719,1077.1269 Q459.0781,1075.9394 459.8594,1075.0644 Q460.6406,1074.1894 461.7813,1073.7206 Q462.9219,1073.2363 464.3906,1073.2363 Q465.3438,1073.2363 466.2344,1073.4394 Q467.1406,1073.6269 468.0781,1074.0956 L467.25,1075.8769 Q466.4688,1075.5019 465.8125,1075.3144 Q465.1563,1075.1113 464.3594,1075.1113 Z " fill="#000000"/><text fill="#000000" font-family="sans-serif" font-size="14" lengthAdjust="spacing" textLength="24" x="484.75" y="1085.012">Log</text><line style="stroke:#181818;stroke-width:0.5;" x1="400" x2="561" y1="1095.58" y2="1095.58"/><text fill="#000000" font-family="sans-serif" font-size="14" lengthAdjust="spacing" textLength="151" x="405" y="1114.5459">loggable: polymorphic</text><text fill="#000000" font-family="sans-serif" font-size="14" lengthAdjust="spacing" textLength="89" x="405" y="1133.6139">action: string</text><text fill="#000000" font-family="sans-serif" font-size="14" lengthAdjust="spacing" textLength="142" x="405" y="1152.6818">last_seen: timestamp</text><text fill="#000000" font-family="sans-serif" font-size="14" lengthAdjust="spacing" textLength="79" x="405" y="1171.7497">level: string</text><text fill="#000000" font-family="sans-serif" font-size="14" lengthAdjust="spacing" textLength="93" x="405" y="1190.8176">message: text</text><text fill="#000000" font-family="sans-serif" font-size="14" lengthAdjust="spacing" textLength="111" x="405" y="1209.8855">is_valid: boolean</text><text fill="#000000" font-family="sans-serif" font-size="14" lengthAdjust="spacing" textLength="120" x="405" y="1228.9534">condition: integer</text><line style="stroke:#181818;stroke-width:0.5;" x1="400" x2="561" y1="1237.0554" y2="1237.0554"/></g><!--class Network--><g id="elem_Network"><rect codeLine="136" fill="#FFF1D9" filter="url(#fh9vwknd7698f)" height="105.2038" id="Network" rx="5" ry="5" style="stroke:#181818;stroke-width:0.5;" width="153" x="284" y="191.27"/><rect fill="#FFD080" height="32" rx="5" ry="5" style="stroke:#FFD080;stroke-width:0.5;" width="153" x="284" y="191.27"/><rect fill="#FFD080" height="5" style="stroke:#FFD080;stroke-width:0.5;" width="153" x="284" y="218.27"/><rect codeLine="136" fill="none" height="105.2038" id="Network" rx="5" ry="5" style="stroke:#181818;stroke-width:0.5;" width="153" x="284" y="191.27"/><ellipse cx="328.25" cy="207.27" fill="#ADD1B2" rx="11" ry="11" style="stroke:#181818;stroke-width:1.0;"/><path d="M328.3594,202.8012 Q327.4375,202.8012 326.7031,203.1137 Q325.9844,203.4262 325.4844,204.02 Q324.9844,204.5981 324.7031,205.4731 Q324.4375,206.3481 324.4375,207.4419 Q324.4375,208.8794 324.875,209.9262 Q325.3281,210.9731 326.1719,211.52 Q327.0313,212.0669 328.3438,212.0669 Q329.125,212.0669 329.8125,211.9419 Q330.5156,211.8012 331.5156,211.4887 L331.5156,213.3637 Q330.6563,213.6919 329.8906,213.8169 Q329.1406,213.9419 328.125,213.9419 Q326.2031,213.9419 324.8906,213.145 Q323.5938,212.3325 322.9375,210.8637 Q322.2813,209.3794 322.2813,207.4106 Q322.2813,205.9887 322.6719,204.8169 Q323.0781,203.6294 323.8594,202.7544 Q324.6406,201.8794 325.7813,201.4106 Q326.9219,200.9262 328.3906,200.9262 Q329.3438,200.9262 330.2344,201.1294 Q331.1406,201.3169 332.0781,201.7856 L331.25,203.5669 Q330.4688,203.1919 329.8125,203.0044 Q329.1563,202.8012 328.3594,202.8012 Z " fill="#000000"/><text fill="#000000" font-family="sans-serif" font-size="14" lengthAdjust="spacing" textLength="56" x="348.75" y="212.702">Network</text><line style="stroke:#181818;stroke-width:0.5;" x1="285" x2="436" y1="223.27" y2="223.27"/><text fill="#000000" font-family="sans-serif" font-size="14" lengthAdjust="spacing" textLength="95" x="290" y="242.2359">netzwerk: cidr</text><text fill="#000000" font-family="sans-serif" font-size="14" lengthAdjust="spacing" textLength="141" x="290" y="261.3039">description: rich_text</text><text fill="#000000" font-family="sans-serif" font-size="14" lengthAdjust="spacing" textLength="72" x="290" y="280.3718">location_id</text><line style="stroke:#181818;stroke-width:0.5;" x1="285" x2="436" y1="288.4738" y2="288.4738"/></g><!--class ClientCertificate--><g id="elem_ClientCertificate"><rect codeLine="142" fill="#FFF1D9" filter="url(#fh9vwknd7698f)" height="181.4754" id="ClientCertificate" rx="5" ry="5" style="stroke:#181818;stroke-width:0.5;" width="153" x="7" y="1063.58"/><rect fill="#FFD080" height="32" rx="5" ry="5" style="stroke:#FFD080;stroke-width:0.5;" width="153" x="7" y="1063.58"/><rect fill="#FFD080" height="5" style="stroke:#FFD080;stroke-width:0.5;" width="153" x="7" y="1090.58"/><rect codeLine="142" fill="none" height="181.4754" id="ClientCertificate" rx="5" ry="5" style="stroke:#181818;stroke-width:0.5;" width="153" x="7" y="1063.58"/><ellipse cx="27.85" cy="1079.58" fill="#ADD1B2" rx="11" ry="11" style="stroke:#181818;stroke-width:1.0;"/><path d="M27.9594,1075.1113 Q27.0375,1075.1113 26.3031,1075.4238 Q25.5844,1075.7363 25.0844,1076.33 Q24.5844,1076.9081 24.3031,1077.7831 Q24.0375,1078.6581 24.0375,1079.7519 Q24.0375,1081.1894 24.475,1082.2363 Q24.9281,1083.2831 25.7719,1083.83 Q26.6313,1084.3769 27.9438,1084.3769 Q28.725,1084.3769 29.4125,1084.2519 Q30.1156,1084.1113 31.1156,1083.7988 L31.1156,1085.6738 Q30.2563,1086.0019 29.4906,1086.1269 Q28.7406,1086.2519 27.725,1086.2519 Q25.8031,1086.2519 24.4906,1085.455 Q23.1938,1084.6425 22.5375,1083.1738 Q21.8813,1081.6894 21.8813,1079.7206 Q21.8813,1078.2988 22.2719,1077.1269 Q22.6781,1075.9394 23.4594,1075.0644 Q24.2406,1074.1894 25.3813,1073.7206 Q26.5219,1073.2363 27.9906,1073.2363 Q28.9438,1073.2363 29.8344,1073.4394 Q30.7406,1073.6269 31.6781,1074.0956 L30.85,1075.8769 Q30.0688,1075.5019 29.4125,1075.3144 Q28.7563,1075.1113 27.9594,1075.1113 Z " fill="#000000"/><text fill="#000000" font-family="sans-serif" font-size="14" lengthAdjust="spacing" textLength="108" x="43.15" y="1085.012">ClientCertificate</text><line style="stroke:#181818;stroke-width:0.5;" x1="8" x2="159" y1="1095.58" y2="1095.58"/><text fill="#000000" font-family="sans-serif" font-size="14" lengthAdjust="spacing" textLength="86" x="13" y="1114.5459">name: string</text><text fill="#000000" font-family="sans-serif" font-size="14" lengthAdjust="spacing" textLength="138" x="13" y="1133.6139">client_system: string</text><text fill="#000000" font-family="sans-serif" font-size="14" lengthAdjust="spacing" textLength="141" x="13" y="1152.6818">description: rich_text</text><text fill="#000000" font-family="sans-serif" font-size="14" lengthAdjust="spacing" textLength="59" x="13" y="1171.7497">cert: text</text><text fill="#000000" font-family="sans-serif" font-size="14" lengthAdjust="spacing" textLength="64" x="13" y="1190.8176">pkey: text</text><text fill="#000000" font-family="sans-serif" font-size="14" lengthAdjust="spacing" textLength="126" x="13" y="1209.8855">passphrase: string</text><line style="stroke:#181818;stroke-width:0.5;" x1="8" x2="159" y1="1217.9875" y2="1217.9875"/><text fill="#000000" font-family="sans-serif" font-size="14" lengthAdjust="spacing" textLength="24" x="13" y="1236.9534">cn()</text></g><ellipse cx="60.5" cy="243.87" fill="#181818" rx="2" ry="2" style="stroke:#181818;stroke-width:1.0;"/><ellipse cx="599.5" cy="1154.32" fill="#181818" rx="2" ry="2" style="stroke:#181818;stroke-width:1.0;"/><!--link Network to Location--><g id="link_Network_Location"><path codeLine="152" d="M437.49,243.87 C449.03,243.87 460.56,243.87 472.1,243.87 " fill="none" id="Network-Location" style="stroke:#181818;stroke-width:1.0;"/><text fill="#000000" font-family="sans-serif" font-size="13" lengthAdjust="spacing" textLength="7" x="444.9102" y="240.0158">*</text><text fill="#000000" font-family="sans-serif" font-size="13" lengthAdjust="spacing" textLength="7" x="457.6853" y="239.9271">1</text></g><!--link Location to Connector--><g id="link_Location_Connector"><path codeLine="153" d="M472.37,286.33 C427.82,313.9 376.45,346.77 368.5,356.47 C342.25,388.51 320.86,426.6 303.63,465.19 " fill="none" id="Location-Connector" style="stroke:#181818;stroke-width:1.0;"/><text fill="#000000" font-family="sans-serif" font-size="13" lengthAdjust="spacing" textLength="7" x="457.5355" y="286.9802">*</text><text fill="#000000" font-family="sans-serif" font-size="13" lengthAdjust="spacing" textLength="7" x="298.9593" y="453.3766">*</text></g><!--link Connector to CardTerminal--><g id="link_Connector_CardTerminal"><path codeLine="155" d="M351.59,680.03 C362.92,680.03 374.25,680.03 385.58,680.03 " fill="none" id="Connector-CardTerminal" style="stroke:#181818;stroke-width:1.0;"/><text fill="#000000" font-family="sans-serif" font-size="13" lengthAdjust="spacing" textLength="20" x="358.1316" y="676.3104">0..1</text><text fill="#000000" font-family="sans-serif" font-size="13" lengthAdjust="spacing" textLength="7" x="371.0447" y="676.3038">*</text></g><!--link Location to CardTerminal--><g id="link_Location_CardTerminal"><path codeLine="156" d="M534.64,287.29 C529.09,327.46 520.3,391.04 511.41,455.4 " fill="none" id="Location-CardTerminal" style="stroke:#181818;stroke-width:1.0;"/><text fill="#000000" font-family="sans-serif" font-size="13" lengthAdjust="spacing" textLength="20" x="512.3106" y="308.8649">0..1</text><text fill="#000000" font-family="sans-serif" font-size="13" lengthAdjust="spacing" textLength="7" x="505.395" y="443.9318">*</text></g><!--link Context to apoint19--><g id="link_Context_apoint19"><path d="M285.19,85.63 C222.83,102.06 135.77,133.83 80.5,191.27 C65.58,206.78 61.46,234.65 60.66,241.38 " fill="none" id="Context-apoint19" style="stroke:#181818;stroke-width:1.0;"/><text fill="#000000" font-family="sans-serif" font-size="13" lengthAdjust="spacing" textLength="7" x="270.4321" y="83.3487">*</text></g><!--link apoint19 to Connector--><g id="link_apoint19_Connector"><path d="M60.98,246.15 C63.18,251.97 72.46,276.51 80.5,296.47 C102.56,351.23 126.9,410.16 149.8,464.97 " fill="none" id="apoint19-Connector" style="stroke:#181818;stroke-width:1.0;"/><text fill="#000000" font-family="sans-serif" font-size="13" lengthAdjust="spacing" textLength="7" x="139.4147" y="453.8455">*</text></g><!--link apoint19 to ConnectorContext--><g id="link_apoint19_ConnectorContext"><path d="M62.71,243.87 C74.25,243.87 85.79,243.87 97.33,243.87 " fill="none" id="apoint19-ConnectorContext" style="stroke:#181818;stroke-width:1.0;stroke-dasharray:7.0,7.0;"/></g><!--link CardTerminal to Card--><g id="link_CardTerminal_Card"><path codeLine="158" d="M575.19,680.03 C586.54,680.03 597.89,680.03 609.25,680.03 " fill="none" id="CardTerminal-Card" style="stroke:#181818;stroke-width:1.0;"/><text fill="#000000" font-family="sans-serif" font-size="13" lengthAdjust="spacing" textLength="20" x="581.4823" y="676.2337">0..1</text><text fill="#000000" font-family="sans-serif" font-size="13" lengthAdjust="spacing" textLength="7" x="594.5402" y="676.3801">*</text></g><!--link CardTerminal to apoint26--><g id="link_CardTerminal_apoint26"><path d="M539.75,904.74 C553.16,956.79 567.1,1012.05 579.5,1063.58 C588.17,1099.58 597.55,1144.03 599.23,1152.05 " fill="none" id="CardTerminal-apoint26" style="stroke:#181818;stroke-width:1.0;"/><text fill="#000000" font-family="sans-serif" font-size="13" lengthAdjust="spacing" textLength="7" x="534.5793" y="926.301">*</text></g><!--link apoint26 to Workplace--><g id="link_apoint26_Workplace"><path d="M599.5,1156.54 C599.5,1167.68 599.5,1252.18 599.5,1304.86 " fill="none" id="apoint26-Workplace" style="stroke:#181818;stroke-width:1.0;"/><text fill="#000000" font-family="sans-serif" font-size="13" lengthAdjust="spacing" textLength="7" x="591.9203" y="1293.2431">*</text></g><!--link TerminalWorkplaces to apoint26--><g id="link_TerminalWorkplaces_apoint26"><path d="M332.66,1082.33 C351.24,1062.76 373.82,1044.08 399,1033.58 C465.86,1005.68 499.18,997.5 562,1033.58 C606.16,1058.94 601.08,1137.49 599.74,1152 " fill="none" id="TerminalWorkplaces-apoint26" style="stroke:#181818;stroke-width:1.0;stroke-dasharray:7.0,7.0;"/></g><!--link Location to Card--><g id="link_Location_Card"><path codeLine="161" d="M560.96,287.27 C570.79,308.01 582.56,333.41 592.5,356.47 C597.98,369.2 603.52,382.24 609.04,395.44 " fill="none" id="Location-Card" style="stroke:#181818;stroke-width:1.0;"/><text fill="#000000" font-family="sans-serif" font-size="13" lengthAdjust="spacing" textLength="20" x="542.4963" y="308.842">0..1</text><text fill="#000000" font-family="sans-serif" font-size="13" lengthAdjust="spacing" textLength="7" x="594.6754" y="373.584">*</text></g><!--link OperationalState to Card--><g id="link_OperationalState_Card"><path codeLine="162" d="M781.25,296.81 C778.54,313.8 775.32,334.1 771.78,356.34 " fill="none" id="OperationalState-Card" style="stroke:#181818;stroke-width:1.0;"/><text fill="#000000" font-family="sans-serif" font-size="13" lengthAdjust="spacing" textLength="7" x="772.818" y="318.2378">1</text><text fill="#000000" font-family="sans-serif" font-size="13" lengthAdjust="spacing" textLength="7" x="766.0492" y="344.4228">*</text></g><!--link Context to Card--><g id="link_Context_Card"><path codeLine="163" d="M435.94,84.64 C496.74,100.36 579.57,131.66 626.5,191.27 C663.91,238.79 687.88,296.87 702.96,356.17 " fill="none" id="Context-Card" style="stroke:#181818;stroke-width:1.0;"/><text fill="#000000" font-family="sans-serif" font-size="13" lengthAdjust="spacing" textLength="7" x="443.464" y="82.2382">1</text><text fill="#000000" font-family="sans-serif" font-size="13" lengthAdjust="spacing" textLength="7" x="695.4011" y="344.2483">*</text></g><!--link Connector to Log--><g id="link_Connector_Log"><path codeLine="165" d="M316.19,895.11 C331.86,932.07 349.46,969.53 368.5,1003.58 C379.75,1023.69 393.38,1044.17 407.19,1063.26 " fill="none" id="Connector-Log" style="stroke:#181818;stroke-width:1.0;"/><text fill="#000000" font-family="sans-serif" font-size="13" lengthAdjust="spacing" textLength="7" x="311.5587" y="916.3548">1</text><text fill="#000000" font-family="sans-serif" font-size="13" lengthAdjust="spacing" textLength="7" x="393.5891" y="1051.6316">*</text></g><!--link CardTerminal to Log--><g id="link_CardTerminal_Log"><path codeLine="166" d="M480.5,904.72 C480.5,960.87 480.5,1017.96 480.5,1063.25 " fill="none" id="CardTerminal-Log" style="stroke:#181818;stroke-width:1.0;"/><text fill="#000000" font-family="sans-serif" font-size="13" lengthAdjust="spacing" textLength="7" x="473.3852" y="926.2804">1</text><text fill="#000000" font-family="sans-serif" font-size="13" lengthAdjust="spacing" textLength="7" x="473.1992" y="1051.6207">*</text></g><!--link Card to Log--><g id="link_Card_Log"><path codeLine="167" d="M609.09,972.41 C603.7,983.03 598.16,993.46 592.5,1003.58 C581.25,1023.69 567.62,1044.17 553.81,1063.26 " fill="none" id="Card-Log" style="stroke:#181818;stroke-width:1.0;"/><text fill="#000000" font-family="sans-serif" font-size="13" lengthAdjust="spacing" textLength="7" x="594.3695" y="988.4044">1</text><text fill="#000000" font-family="sans-serif" font-size="13" lengthAdjust="spacing" textLength="7" x="552.8093" y="1051.6316">*</text></g><!--link Connector to ClientCertificate--><g id="link_Connector_ClientCertificate"><path codeLine="169" d="M169.35,895.06 C149.67,954.25 129.38,1015.3 113.46,1063.18 " fill="none" id="Connector-ClientCertificate" style="stroke:#181818;stroke-width:1.0;"/><text fill="#000000" font-family="sans-serif" font-size="13" lengthAdjust="spacing" textLength="7" x="159.9005" y="916.3032">*</text><text fill="#000000" font-family="sans-serif" font-size="13" lengthAdjust="spacing" textLength="7" x="108.6512" y="1051.855">*</text></g><!--SRC=[bLPDanid4BtFhy0wxRgyglYggwufvv1KvKWXQ8sm623GerqbvV-UPZvXHhFsNhGxDFJ7UwyRq7c6ZfqSeckOqW4aQcUhwXDUe04cdHH1iNCWwxwgf14nigEpblQvmDX_5MDMD71W4OEsDNqgY39edzmSMD3omX7Ua0pQ7vYsaFuLgj6Mjy5avwAAYvL6s5OOtdeba2ASd3CWRFAak7GMWv2OEu2WHNw-ZS3HnFoaQAakYrgAFZzj4Me8P7bv6N9uQyZ7a7ANKnTUSK6nK3SGKJIUR794WLFWcvP0WRv7Pqza8vYGoml8QtbcNkVkkdAdz3AfQP7JnYZg7EVeXES1_cd91O-jf0IAKc-UwkJE6i8yNp_hqBoA0Fm68NRn1fS_9dw9yhyW44N2T0mh7RqHzrybEZZNPFiILILJthHrJP1gMxWpcbAwyvxjz9kgRBqt6i9xF9CSV72gBM8OrtFCjHhPfKqU0kgSgKLD4cb_8K5vI3z2gL1AE1g7SS5LqWEe7Ept27p8-2OxkU2ef8cituSwEw9CaNn1q8faOeNewevHeobXS_GaOMv9LlU8a7FvwiALf23X0s7wfFDuHIMzGCZKVtWN5w0KklpGn4bqT-3G5A4-G-X3bD8mmkRgEWjvIJwmjNMsV8h5BWG33Jcv5e3xe6zT57jseH7hX8fADpMPHYw_42Uca4jQnRlFrxIKCPT84cNAQDQJjjGkoDEaMSoRBeWp2W9Vu0blNlUubRtuuH7bQSWdtDkugcCOBnaICi5mJfCP3YDSAVNOdhwJMBWiUY6teCOIgTmODu_LD6xiil-BenW0SCjAGaLXf5ERvysMmQtxvE-niVg1-w2b1fYAX7zKn-xqEAqdBx7lipNKKmFtdx_U-VCrE4NzOswlFrDt_RGtfzMiCUTfILWSXv5MzzFCrRKu9MgzC_V61N_HCbtYSk6kkrOZW5tSjd23uZqn2dHya4H-4zt8V32mY_dJv_KDCC7Nbmduxoi4kiIbxgw6pI6KJvl9rR53-JXB_X5sMrHiXaeYcwhpLxZF7nJKNuA8XN_xz9nI6klQVTwn5xRxkfikbMgwNJhRI_Td6kdLEDEtZCChSVVRVl-rSvqsP8-BpFsmvS6UfydHb_7IUcRxrSLI5Q-MLSY5UKvuQfdgGHFjsLD-xiky-vczbtorQetTOiC4tM8zXsqsKKSi2bZRbckvfuoVfV3-1m00]--></g></svg>