<?xml version="1.0" encoding="us-ascii" standalone="no"?><svg xmlns="http://www.w3.org/2000/svg" xmlns:xlink="http://www.w3.org/1999/xlink" contentStyleType="text/css" height="1328px" preserveAspectRatio="none" style="width:826px;height:1328px;background:#FFFFFF;" version="1.1" viewBox="0 0 826 1328" width="826px" zoomAndPan="magnify"><defs><filter height="300%" id="ft9wuc597cfc4" width="300%" x="-1" y="-1"><feGaussianBlur result="blurOut" stdDeviation="2.0"/><feColorMatrix in="blurOut" result="blurOut2" type="matrix" values="0 0 0 0 0 0 0 0 0 0 0 0 0 0 0 0 0 0 .4 0"/><feOffset dx="4.0" dy="4.0" in="blurOut2" result="blurOut3"/><feBlend in="SourceGraphic" in2="blurOut3" mode="normal"/></filter></defs><g><!--class Connector--><g id="elem_Connector"><rect codeLine="5" fill="#FFF1D9" filter="url(#ft9wuc597cfc4)" height="334.0188" id="Connector" rx="5" ry="5" style="stroke:#181818;stroke-width:0.5;" width="222" x="86" y="493.95"/><rect fill="#FFD080" height="32" rx="5" ry="5" style="stroke:#FFD080;stroke-width:0.5;" width="222" x="86" y="493.95"/><rect fill="#FFD080" height="5" style="stroke:#FFD080;stroke-width:0.5;" width="222" x="86" y="520.95"/><rect codeLine="5" fill="none" height="334.0188" id="Connector" rx="5" ry="5" style="stroke:#181818;stroke-width:0.5;" width="222" x="86" y="493.95"/><ellipse cx="158.25" cy="509.95" fill="#ADD1B2" rx="11" ry="11" style="stroke:#181818;stroke-width:1.0;"/><path d="M158.3594,505.4813 Q157.4375,505.4813 156.7031,505.7938 Q155.9844,506.1063 155.4844,506.7 Q154.9844,507.2781 154.7031,508.1531 Q154.4375,509.0281 154.4375,510.1219 Q154.4375,511.5594 154.875,512.6063 Q155.3281,513.6531 156.1719,514.2 Q157.0313,514.7469 158.3438,514.7469 Q159.125,514.7469 159.8125,514.6219 Q160.5156,514.4813 161.5156,514.1688 L161.5156,516.0438 Q160.6563,516.3719 159.8906,516.4969 Q159.1406,516.6219 158.125,516.6219 Q156.2031,516.6219 154.8906,515.825 Q153.5938,515.0125 152.9375,513.5438 Q152.2813,512.0594 152.2813,510.0906 Q152.2813,508.6688 152.6719,507.4969 Q153.0781,506.3094 153.8594,505.4344 Q154.6406,504.5594 155.7813,504.0906 Q156.9219,503.6063 158.3906,503.6063 Q159.3438,503.6063 160.2344,503.8094 Q161.1406,503.9969 162.0781,504.4656 L161.25,506.2469 Q160.4688,505.8719 159.8125,505.6844 Q159.1563,505.4813 158.3594,505.4813 Z " fill="#000000"/><text fill="#000000" font-family="sans-serif" font-size="14" lengthAdjust="spacing" textLength="69" x="178.75" y="515.382">Connector</text><line style="stroke:#181818;stroke-width:0.5;" x1="87" x2="307" y1="525.95" y2="525.95"/><text fill="#000000" font-family="sans-serif" font-size="14" lengthAdjust="spacing" textLength="86" x="92" y="544.9159">name: string</text><text fill="#000000" font-family="sans-serif" font-size="14" lengthAdjust="spacing" textLength="141" x="92" y="563.9839">description: rich_text</text><text fill="#000000" font-family="sans-serif" font-size="14" lengthAdjust="spacing" textLength="47" x="92" y="583.0518">ip: inet</text><text fill="#000000" font-family="sans-serif" font-size="14" lengthAdjust="spacing" textLength="116" x="92" y="602.1197">admin_url: string</text><text fill="#000000" font-family="sans-serif" font-size="14" lengthAdjust="spacing" textLength="96" x="92" y="621.1876">sds_url: string</text><text fill="#000000" font-family="sans-serif" font-size="14" lengthAdjust="spacing" textLength="167" x="92" y="640.2555">manual_update: boolean</text><line style="stroke:#181818;stroke-width:1.0;" x1="87" x2="307" y1="648.3575" y2="648.3575"/><text fill="#000000" font-family="sans-serif" font-size="14" lengthAdjust="spacing" textLength="86" x="92" y="667.3234">sds_xml: text</text><text fill="#000000" font-family="sans-serif" font-size="14" lengthAdjust="spacing" textLength="185" x="92" y="686.3914">sds_updated_at: timestamp</text><text fill="#000000" font-family="sans-serif" font-size="14" lengthAdjust="spacing" textLength="172" x="92" y="705.4593">connector_services: jsonb</text><text fill="#000000" font-family="sans-serif" font-size="14" lengthAdjust="spacing" textLength="148" x="92" y="724.5272">last_check: timestamp</text><text fill="#000000" font-family="sans-serif" font-size="14" lengthAdjust="spacing" textLength="169" x="92" y="743.5951">last_check_ok: timestamp</text><text fill="#000000" font-family="sans-serif" font-size="14" lengthAdjust="spacing" textLength="120" x="92" y="762.663">condition: integer</text><text fill="#000000" font-family="sans-serif" font-size="14" lengthAdjust="spacing" textLength="210" x="92" y="781.7309">soap_request_success: boolean</text><text fill="#000000" font-family="sans-serif" font-size="14" lengthAdjust="spacing" textLength="144" x="92" y="800.7989">vpnti_online: boolean</text><text fill="#000000" font-family="sans-serif" font-size="14" lengthAdjust="spacing" textLength="164" x="92" y="819.8668">firmware_version: string</text></g><!--class CardTerminal--><g id="elem_CardTerminal"><rect codeLine="24" fill="#FFF1D9" filter="url(#ft9wuc597cfc4)" height="391.2225" id="CardTerminal" rx="5" ry="5" style="stroke:#181818;stroke-width:0.5;" width="176" x="343" y="465.35"/><rect fill="#FFD080" height="32" rx="5" ry="5" style="stroke:#FFD080;stroke-width:0.5;" width="176" x="343" y="465.35"/><rect fill="#FFD080" height="5" style="stroke:#FFD080;stroke-width:0.5;" width="176" x="343" y="492.35"/><rect codeLine="24" fill="none" height="391.2225" id="CardTerminal" rx="5" ry="5" style="stroke:#181818;stroke-width:0.5;" width="176" x="343" y="465.35"/><ellipse cx="381.4" cy="481.35" fill="#ADD1B2" rx="11" ry="11" style="stroke:#181818;stroke-width:1.0;"/><path d="M381.5094,476.8813 Q380.5875,476.8813 379.8531,477.1938 Q379.1344,477.5063 378.6344,478.1 Q378.1344,478.6781 377.8531,479.5531 Q377.5875,480.4281 377.5875,481.5219 Q377.5875,482.9594 378.025,484.0063 Q378.4781,485.0531 379.3219,485.6 Q380.1813,486.1469 381.4938,486.1469 Q382.275,486.1469 382.9625,486.0219 Q383.6656,485.8813 384.6656,485.5688 L384.6656,487.4438 Q383.8063,487.7719 383.0406,487.8969 Q382.2906,488.0219 381.275,488.0219 Q379.3531,488.0219 378.0406,487.225 Q376.7438,486.4125 376.0875,484.9438 Q375.4313,483.4594 375.4313,481.4906 Q375.4313,480.0688 375.8219,478.8969 Q376.2281,477.7094 377.0094,476.8344 Q377.7906,475.9594 378.9313,475.4906 Q380.0719,475.0063 381.5406,475.0063 Q382.4938,475.0063 383.3844,475.2094 Q384.2906,475.3969 385.2281,475.8656 L384.4,477.6469 Q383.6188,477.2719 382.9625,477.0844 Q382.3063,476.8813 381.5094,476.8813 Z " fill="#000000"/><text fill="#000000" font-family="sans-serif" font-size="14" lengthAdjust="spacing" textLength="92" x="400.6" y="486.782">CardTerminal</text><line style="stroke:#181818;stroke-width:0.5;" x1="344" x2="518" y1="497.35" y2="497.35"/><text fill="#000000" font-family="sans-serif" font-size="14" lengthAdjust="spacing" textLength="134" x="349" y="516.3159">displayname: string</text><text fill="#000000" font-family="sans-serif" font-size="14" lengthAdjust="spacing" textLength="141" x="349" y="535.3839">description: rich_text</text><text fill="#000000" font-family="sans-serif" font-size="14" lengthAdjust="spacing" textLength="83" x="349" y="554.4518">room: string</text><text fill="#000000" font-family="sans-serif" font-size="14" lengthAdjust="spacing" textLength="97" x="349" y="573.5197">contact: string</text><text fill="#000000" font-family="sans-serif" font-size="14" lengthAdjust="spacing" textLength="124" x="349" y="592.5876">plugged_in: string</text><text fill="#000000" font-family="sans-serif" font-size="14" lengthAdjust="spacing" textLength="127" x="349" y="611.6555">delivery_date: date</text><text fill="#000000" font-family="sans-serif" font-size="14" lengthAdjust="spacing" textLength="104" x="349" y="630.7234">supplier: string</text><text fill="#000000" font-family="sans-serif" font-size="14" lengthAdjust="spacing" textLength="72" x="349" y="649.7914">location_id</text><line style="stroke:#181818;stroke-width:1.0;" x1="344" x2="518" y1="657.8933" y2="657.8933"/><text fill="#000000" font-family="sans-serif" font-size="14" lengthAdjust="spacing" textLength="115" x="349" y="676.8593">properties: jsonb</text><text fill="#000000" font-family="sans-serif" font-size="14" lengthAdjust="spacing" textLength="86" x="349" y="695.9272">name: string</text><text fill="#000000" font-family="sans-serif" font-size="14" lengthAdjust="spacing" textLength="79" x="349" y="714.9951">ct_id: string</text><text fill="#000000" font-family="sans-serif" font-size="14" lengthAdjust="spacing" textLength="96" x="349" y="734.063">mac: macaddr</text><text fill="#000000" font-family="sans-serif" font-size="14" lengthAdjust="spacing" textLength="47" x="349" y="753.1309">ip: inet</text><text fill="#000000" font-family="sans-serif" font-size="14" lengthAdjust="spacing" textLength="88" x="349" y="772.1989">slots: integer</text><text fill="#000000" font-family="sans-serif" font-size="14" lengthAdjust="spacing" textLength="132" x="349" y="791.2668">connected: boolean</text><text fill="#000000" font-family="sans-serif" font-size="14" lengthAdjust="spacing" textLength="120" x="349" y="810.3347">condition: integer</text><text fill="#000000" font-family="sans-serif" font-size="14" lengthAdjust="spacing" textLength="164" x="349" y="829.4026">firmware_version: string</text><text fill="#000000" font-family="sans-serif" font-size="14" lengthAdjust="spacing" textLength="86" x="349" y="848.4705">connector_id</text></g><!--class Location--><g id="elem_Location"><rect codeLine="46" fill="#FFF1D9" filter="url(#ft9wuc597cfc4)" height="86.1358" id="Location" rx="5" ry="5" style="stroke:#181818;stroke-width:0.5;" width="136" x="420" y="200.81"/><rect fill="#FFD080" height="32" rx="5" ry="5" style="stroke:#FFD080;stroke-width:0.5;" width="136" x="420" y="200.81"/><rect fill="#FFD080" height="5" style="stroke:#FFD080;stroke-width:0.5;" width="136" x="420" y="227.81"/><rect codeLine="46" fill="none" height="86.1358" id="Location" rx="5" ry="5" style="stroke:#181818;stroke-width:0.5;" width="136" x="420" y="200.81"/><ellipse cx="456.6" cy="216.81" fill="#ADD1B2" rx="11" ry="11" style="stroke:#181818;stroke-width:1.0;"/><path d="M456.7094,212.3413 Q455.7875,212.3413 455.0531,212.6538 Q454.3344,212.9663 453.8344,213.56 Q453.3344,214.1381 453.0531,215.0131 Q452.7875,215.8881 452.7875,216.9819 Q452.7875,218.4194 453.225,219.4663 Q453.6781,220.5131 454.5219,221.06 Q455.3813,221.6069 456.6938,221.6069 Q457.475,221.6069 458.1625,221.4819 Q458.8656,221.3413 459.8656,221.0288 L459.8656,222.9038 Q459.0063,223.2319 458.2406,223.3569 Q457.4906,223.4819 456.475,223.4819 Q454.5531,223.4819 453.2406,222.685 Q451.9438,221.8725 451.2875,220.4038 Q450.6313,218.9194 450.6313,216.9506 Q450.6313,215.5288 451.0219,214.3569 Q451.4281,213.1694 452.2094,212.2944 Q452.9906,211.4194 454.1313,210.9506 Q455.2719,210.4663 456.7406,210.4663 Q457.6938,210.4663 458.5844,210.6694 Q459.4906,210.8569 460.4281,211.3256 L459.6,213.1069 Q458.8188,212.7319 458.1625,212.5444 Q457.5063,212.3413 456.7094,212.3413 Z " fill="#000000"/><text fill="#000000" font-family="sans-serif" font-size="14" lengthAdjust="spacing" textLength="56" x="475.4" y="222.242">Location</text><line style="stroke:#181818;stroke-width:0.5;" x1="421" x2="555" y1="232.81" y2="232.81"/><text fill="#000000" font-family="sans-serif" font-size="14" lengthAdjust="spacing" textLength="65" x="426" y="251.7759">lid: string</text><text fill="#000000" font-family="sans-serif" font-size="14" lengthAdjust="spacing" textLength="124" x="426" y="270.8439">description: string</text><line style="stroke:#181818;stroke-width:0.5;" x1="421" x2="555" y1="278.9458" y2="278.9458"/></g><!--class Context--><g id="elem_Context"><rect codeLine="51" fill="#FFF1D9" filter="url(#ft9wuc597cfc4)" height="124.2717" id="Context" rx="5" ry="5" style="stroke:#181818;stroke-width:0.5;" width="150" x="233" y="7"/><rect fill="#FFD080" height="32" rx="5" ry="5" style="stroke:#FFD080;stroke-width:0.5;" width="150" x="233" y="7"/><rect fill="#FFD080" height="5" style="stroke:#FFD080;stroke-width:0.5;" width="150" x="233" y="34"/><rect codeLine="51" fill="none" height="124.2717" id="Context" rx="5" ry="5" style="stroke:#181818;stroke-width:0.5;" width="150" x="233" y="7"/><ellipse cx="278.25" cy="23" fill="#ADD1B2" rx="11" ry="11" style="stroke:#181818;stroke-width:1.0;"/><path d="M278.3594,18.5313 Q277.4375,18.5313 276.7031,18.8438 Q275.9844,19.1563 275.4844,19.75 Q274.9844,20.3281 274.7031,21.2031 Q274.4375,22.0781 274.4375,23.1719 Q274.4375,24.6094 274.875,25.6563 Q275.3281,26.7031 276.1719,27.25 Q277.0313,27.7969 278.3438,27.7969 Q279.125,27.7969 279.8125,27.6719 Q280.5156,27.5313 281.5156,27.2188 L281.5156,29.0938 Q280.6563,29.4219 279.8906,29.5469 Q279.1406,29.6719 278.125,29.6719 Q276.2031,29.6719 274.8906,28.875 Q273.5938,28.0625 272.9375,26.5938 Q272.2813,25.1094 272.2813,23.1406 Q272.2813,21.7188 272.6719,20.5469 Q273.0781,19.3594 273.8594,18.4844 Q274.6406,17.6094 275.7813,17.1406 Q276.9219,16.6563 278.3906,16.6563 Q279.3438,16.6563 280.2344,16.8594 Q281.1406,17.0469 282.0781,17.5156 L281.25,19.2969 Q280.4688,18.9219 279.8125,18.7344 Q279.1563,18.5313 278.3594,18.5313 Z " fill="#000000"/><text fill="#000000" font-family="sans-serif" font-size="14" lengthAdjust="spacing" textLength="51" x="298.75" y="28.432">Context</text><line style="stroke:#181818;stroke-width:0.5;" x1="234" x2="382" y1="39" y2="39"/><text fill="#000000" font-family="sans-serif" font-size="14" lengthAdjust="spacing" textLength="109" x="239" y="57.9659">mandant: string</text><text fill="#000000" font-family="sans-serif" font-size="14" lengthAdjust="spacing" textLength="138" x="239" y="77.0339">client_system: string</text><text fill="#000000" font-family="sans-serif" font-size="14" lengthAdjust="spacing" textLength="116" x="239" y="96.1018">workplace: string</text><text fill="#000000" font-family="sans-serif" font-size="14" lengthAdjust="spacing" textLength="124" x="239" y="115.1697">description: string</text><line style="stroke:#181818;stroke-width:0.5;" x1="234" x2="382" y1="123.2717" y2="123.2717"/></g><!--class ConnectorContext--><g id="elem_ConnectorContext"><rect codeLine="58" fill="#FFF1D9" filter="url(#ft9wuc597cfc4)" height="105.2038" id="ConnectorContext" rx="5" ry="5" style="stroke:#181818;stroke-width:0.5;" width="152" x="45" y="191.27"/><rect fill="#FFD080" height="32" rx="5" ry="5" style="stroke:#FFD080;stroke-width:0.5;" width="152" x="45" y="191.27"/><rect fill="#FFD080" height="5" style="stroke:#FFD080;stroke-width:0.5;" width="152" x="45" y="218.27"/><rect codeLine="58" fill="none" height="105.2038" id="ConnectorContext" rx="5" ry="5" style="stroke:#181818;stroke-width:0.5;" width="152" x="45" y="191.27"/><ellipse cx="60" cy="207.27" fill="#ADD1B2" rx="11" ry="11" style="stroke:#181818;stroke-width:1.0;"/><path d="M60.1094,202.8012 Q59.1875,202.8012 58.4531,203.1137 Q57.7344,203.4262 57.2344,204.02 Q56.7344,204.5981 56.4531,205.4731 Q56.1875,206.3481 56.1875,207.4419 Q56.1875,208.8794 56.625,209.9262 Q57.0781,210.9731 57.9219,211.52 Q58.7813,212.0669 60.0938,212.0669 Q60.875,212.0669 61.5625,211.9419 Q62.2656,211.8012 63.2656,211.4887 L63.2656,213.3637 Q62.4063,213.6919 61.6406,213.8169 Q60.8906,213.9419 59.875,213.9419 Q57.9531,213.9419 56.6406,213.145 Q55.3438,212.3325 54.6875,210.8637 Q54.0313,209.3794 54.0313,207.4106 Q54.0313,205.9887 54.4219,204.8169 Q54.8281,203.6294 55.6094,202.7544 Q56.3906,201.8794 57.5313,201.4106 Q58.6719,200.9262 60.1406,200.9262 Q61.0938,200.9262 61.9844,201.1294 Q62.8906,201.3169 63.8281,201.7856 L63,203.5669 Q62.2188,203.1919 61.5625,203.0044 Q60.9063,202.8012 60.1094,202.8012 Z " fill="#000000"/><text fill="#000000" font-family="sans-serif" font-size="14" lengthAdjust="spacing" textLength="120" x="74" y="212.702">ConnectorContext</text><line style="stroke:#181818;stroke-width:0.5;" x1="46" x2="196" y1="223.27" y2="223.27"/><text fill="#000000" font-family="sans-serif" font-size="14" lengthAdjust="spacing" textLength="86" x="51" y="242.2359">connector_id</text><text fill="#000000" font-family="sans-serif" font-size="14" lengthAdjust="spacing" textLength="68" x="51" y="261.3039">context_id</text><text fill="#000000" font-family="sans-serif" font-size="14" lengthAdjust="spacing" textLength="111" x="51" y="280.3718">position: integer</text><line style="stroke:#181818;stroke-width:0.5;" x1="46" x2="196" y1="288.4738" y2="288.4738"/></g><!--class Card--><g id="elem_Card"><rect codeLine="64" fill="#FFF1D9" filter="url(#ft9wuc597cfc4)" height="608.9696" id="Card" rx="5" ry="5" style="stroke:#181818;stroke-width:0.5;" width="222" x="554" y="356.47"/><rect fill="#FFD080" height="32" rx="5" ry="5" style="stroke:#FFD080;stroke-width:0.5;" width="222" x="554" y="356.47"/><rect fill="#FFD080" height="5" style="stroke:#FFD080;stroke-width:0.5;" width="222" x="554" y="383.47"/><rect codeLine="64" fill="none" height="608.9696" id="Card" rx="5" ry="5" style="stroke:#181818;stroke-width:0.5;" width="222" x="554" y="356.47"/><ellipse cx="644.75" cy="372.47" fill="#ADD1B2" rx="11" ry="11" style="stroke:#181818;stroke-width:1.0;"/><path d="M644.8594,368.0013 Q643.9375,368.0013 643.2031,368.3138 Q642.4844,368.6263 641.9844,369.22 Q641.4844,369.7981 641.2031,370.6731 Q640.9375,371.5481 640.9375,372.6419 Q640.9375,374.0794 641.375,375.1263 Q641.8281,376.1731 642.6719,376.72 Q643.5313,377.2669 644.8438,377.2669 Q645.625,377.2669 646.3125,377.1419 Q647.0156,377.0013 648.0156,376.6888 L648.0156,378.5638 Q647.1563,378.8919 646.3906,379.0169 Q645.6406,379.1419 644.625,379.1419 Q642.7031,379.1419 641.3906,378.345 Q640.0938,377.5325 639.4375,376.0638 Q638.7813,374.5794 638.7813,372.6106 Q638.7813,371.1888 639.1719,370.0169 Q639.5781,368.8294 640.3594,367.9544 Q641.1406,367.0794 642.2813,366.6106 Q643.4219,366.1263 644.8906,366.1263 Q645.8438,366.1263 646.7344,366.3294 Q647.6406,366.5169 648.5781,366.9856 L647.75,368.7669 Q646.9688,368.3919 646.3125,368.2044 Q645.6563,368.0013 644.8594,368.0013 Z " fill="#000000"/><text fill="#000000" font-family="sans-serif" font-size="14" lengthAdjust="spacing" textLength="32" x="665.25" y="377.902">Card</text><line style="stroke:#181818;stroke-width:0.5;" x1="555" x2="775" y1="388.47" y2="388.47"/><text fill="#000000" font-family="sans-serif" font-size="14" lengthAdjust="spacing" textLength="86" x="560" y="407.4359">name: string</text><text fill="#000000" font-family="sans-serif" font-size="14" lengthAdjust="spacing" textLength="141" x="560" y="426.5039">description: rich_text</text><text fill="#000000" font-family="sans-serif" font-size="14" lengthAdjust="spacing" textLength="135" x="560" y="445.5718">operational_state_id</text><text fill="#000000" font-family="sans-serif" font-size="14" lengthAdjust="spacing" textLength="72" x="560" y="464.6397">location_id</text><text fill="#000000" font-family="sans-serif" font-size="14" lengthAdjust="spacing" textLength="75" x="560" y="483.7076">lanr: string</text><text fill="#000000" font-family="sans-serif" font-size="14" lengthAdjust="spacing" textLength="135" x="560" y="502.7755">fachrichtung: string</text><text fill="#000000" font-family="sans-serif" font-size="14" lengthAdjust="spacing" textLength="79" x="560" y="521.8434">bsnr: string</text><text fill="#000000" font-family="sans-serif" font-size="14" lengthAdjust="spacing" textLength="123" x="560" y="540.9114">telematikid: string</text><text fill="#000000" font-family="sans-serif" font-size="14" lengthAdjust="spacing" textLength="68" x="560" y="559.9793">context_id</text><line style="stroke:#181818;stroke-width:1.0;" x1="555" x2="775" y1="568.0813" y2="568.0813"/><text fill="#000000" font-family="sans-serif" font-size="14" lengthAdjust="spacing" textLength="115" x="560" y="587.0472">properties: jsonb</text><text fill="#000000" font-family="sans-serif" font-size="14" lengthAdjust="spacing" textLength="131" x="560" y="606.1151">card_handle: string</text><text fill="#000000" font-family="sans-serif" font-size="14" lengthAdjust="spacing" textLength="113" x="560" y="625.183">card_type: string</text><text fill="#000000" font-family="sans-serif" font-size="14" lengthAdjust="spacing" textLength="82" x="560" y="644.2509">iccsn: string</text><text fill="#000000" font-family="sans-serif" font-size="14" lengthAdjust="spacing" textLength="94" x="560" y="663.3189">slotid: integer</text><text fill="#000000" font-family="sans-serif" font-size="14" lengthAdjust="spacing" textLength="155" x="560" y="682.3868">insert_time: timestamp</text><text fill="#000000" font-family="sans-serif" font-size="14" lengthAdjust="spacing" textLength="172" x="560" y="701.4547">card_holder_name: string</text><text fill="#000000" font-family="sans-serif" font-size="14" lengthAdjust="spacing" textLength="142" x="560" y="720.5226">expiration_date: date</text><text fill="#000000" font-family="sans-serif" font-size="14" lengthAdjust="spacing" textLength="120" x="560" y="739.5905">condition: integer</text><text fill="#000000" font-family="sans-serif" font-size="14" lengthAdjust="spacing" textLength="117" x="560" y="758.6584">pin_status: string</text><text fill="#000000" font-family="sans-serif" font-size="14" lengthAdjust="spacing" textLength="112" x="560" y="777.7264">card_terminal_id</text><line style="stroke:#181818;stroke-width:1.0;" x1="555" x2="775" y1="785.8283" y2="785.8283"/><text fill="#000000" font-family="sans-serif" font-size="14" lengthAdjust="spacing" textLength="96" x="560" y="804.7943">certificate:text</text><text fill="#000000" font-family="sans-serif" font-size="14" lengthAdjust="spacing" textLength="151" x="560" y="823.8622">cert_subject_cn: string</text><text fill="#000000" font-family="sans-serif" font-size="14" lengthAdjust="spacing" textLength="161" x="560" y="842.9301">cert_subject_title: string</text><text fill="#000000" font-family="sans-serif" font-size="14" lengthAdjust="spacing" textLength="151" x="560" y="861.998">cert_subject_sn: string</text><text fill="#000000" font-family="sans-serif" font-size="14" lengthAdjust="spacing" textLength="210" x="560" y="881.0659">cert_subject_givenname: string</text><text fill="#000000" font-family="sans-serif" font-size="14" lengthAdjust="spacing" textLength="174" x="560" y="900.1339">cert_subject_street: string</text><text fill="#000000" font-family="sans-serif" font-size="14" lengthAdjust="spacing" textLength="208" x="560" y="919.2018">cert_subject_postalcode: string</text><text fill="#000000" font-family="sans-serif" font-size="14" lengthAdjust="spacing" textLength="139" x="560" y="938.2697">cert_subject_l: string</text><text fill="#000000" font-family="sans-serif" font-size="14" lengthAdjust="spacing" textLength="143" x="560" y="957.3376">cert_subject_o: string</text></g><!--class Workplace--><g id="elem_Workplace"><rect codeLine="98" fill="#FFF1D9" filter="url(#ft9wuc597cfc4)" height="86.1358" id="Workplace" rx="5" ry="5" style="stroke:#181818;stroke-width:0.5;" width="136" x="303" y="1228.78"/><rect fill="#FFD080" height="32" rx="5" ry="5" style="stroke:#FFD080;stroke-width:0.5;" width="136" x="303" y="1228.78"/><rect fill="#FFD080" height="5" style="stroke:#FFD080;stroke-width:0.5;" width="136" x="303" y="1255.78"/><rect codeLine="98" fill="none" height="86.1358" id="Workplace" rx="5" ry="5" style="stroke:#181818;stroke-width:0.5;" width="136" x="303" y="1228.78"/><ellipse cx="333.3" cy="1244.78" fill="#ADD1B2" rx="11" ry="11" style="stroke:#181818;stroke-width:1.0;"/><path d="M333.4094,1240.3113 Q332.4875,1240.3113 331.7531,1240.6238 Q331.0344,1240.9363 330.5344,1241.53 Q330.0344,1242.1081 329.7531,1242.9831 Q329.4875,1243.8581 329.4875,1244.9519 Q329.4875,1246.3894 329.925,1247.4363 Q330.3781,1248.4831 331.2219,1249.03 Q332.0813,1249.5769 333.3938,1249.5769 Q334.175,1249.5769 334.8625,1249.4519 Q335.5656,1249.3113 336.5656,1248.9988 L336.5656,1250.8738 Q335.7063,1251.2019 334.9406,1251.3269 Q334.1906,1251.4519 333.175,1251.4519 Q331.2531,1251.4519 329.9406,1250.655 Q328.6438,1249.8425 327.9875,1248.3738 Q327.3313,1246.8894 327.3313,1244.9206 Q327.3313,1243.4988 327.7219,1242.3269 Q328.1281,1241.1394 328.9094,1240.2644 Q329.6906,1239.3894 330.8313,1238.9206 Q331.9719,1238.4363 333.4406,1238.4363 Q334.3938,1238.4363 335.2844,1238.6394 Q336.1906,1238.8269 337.1281,1239.2956 L336.3,1241.0769 Q335.5188,1240.7019 334.8625,1240.5144 Q334.2063,1240.3113 333.4094,1240.3113 Z " fill="#000000"/><text fill="#000000" font-family="sans-serif" font-size="14" lengthAdjust="spacing" textLength="70" x="350.7" y="1250.212">Workplace</text><line style="stroke:#181818;stroke-width:0.5;" x1="304" x2="438" y1="1260.78" y2="1260.78"/><text fill="#000000" font-family="sans-serif" font-size="14" lengthAdjust="spacing" textLength="124" x="309" y="1279.7459">description: string</text><line style="stroke:#181818;stroke-width:1.0;" x1="304" x2="438" y1="1287.8479" y2="1287.8479"/><text fill="#000000" font-family="sans-serif" font-size="14" lengthAdjust="spacing" textLength="86" x="309" y="1306.8139">name: string</text></g><!--class TerminalWorkplaces--><g id="elem_TerminalWorkplaces"><rect codeLine="103" fill="#FFF1D9" filter="url(#ft9wuc597cfc4)" height="143.3396" id="TerminalWorkplaces" rx="5" ry="5" style="stroke:#181818;stroke-width:0.5;" width="169" x="164.5" y="1025.44"/><rect fill="#FFD080" height="32" rx="5" ry="5" style="stroke:#FFD080;stroke-width:0.5;" width="169" x="164.5" y="1025.44"/><rect fill="#FFD080" height="5" style="stroke:#FFD080;stroke-width:0.5;" width="169" x="164.5" y="1052.44"/><rect codeLine="103" fill="none" height="143.3396" id="TerminalWorkplaces" rx="5" ry="5" style="stroke:#181818;stroke-width:0.5;" width="169" x="164.5" y="1025.44"/><ellipse cx="179.5" cy="1041.44" fill="#ADD1B2" rx="11" ry="11" style="stroke:#181818;stroke-width:1.0;"/><path d="M179.6094,1036.9713 Q178.6875,1036.9713 177.9531,1037.2838 Q177.2344,1037.5963 176.7344,1038.19 Q176.2344,1038.7681 175.9531,1039.6431 Q175.6875,1040.5181 175.6875,1041.6119 Q175.6875,1043.0494 176.125,1044.0963 Q176.5781,1045.1431 177.4219,1045.69 Q178.2813,1046.2369 179.5938,1046.2369 Q180.375,1046.2369 181.0625,1046.1119 Q181.7656,1045.9713 182.7656,1045.6588 L182.7656,1047.5338 Q181.9063,1047.8619 181.1406,1047.9869 Q180.3906,1048.1119 179.375,1048.1119 Q177.4531,1048.1119 176.1406,1047.315 Q174.8438,1046.5025 174.1875,1045.0338 Q173.5313,1043.5494 173.5313,1041.5806 Q173.5313,1040.1588 173.9219,1038.9869 Q174.3281,1037.7994 175.1094,1036.9244 Q175.8906,1036.0494 177.0313,1035.5806 Q178.1719,1035.0963 179.6406,1035.0963 Q180.5938,1035.0963 181.4844,1035.2994 Q182.3906,1035.4869 183.3281,1035.9556 L182.5,1037.7369 Q181.7188,1037.3619 181.0625,1037.1744 Q180.4063,1036.9713 179.6094,1036.9713 Z " fill="#000000"/><text fill="#000000" font-family="sans-serif" font-size="14" lengthAdjust="spacing" textLength="137" x="193.5" y="1046.872">TerminalWorkplaces</text><line style="stroke:#181818;stroke-width:0.5;" x1="165.5" x2="332.5" y1="1057.44" y2="1057.44"/><text fill="#000000" font-family="sans-serif" font-size="14" lengthAdjust="spacing" textLength="112" x="170.5" y="1076.4059">card_terminal_id</text><text fill="#000000" font-family="sans-serif" font-size="14" lengthAdjust="spacing" textLength="87" x="170.5" y="1095.4739">workplace_id</text><text fill="#000000" font-family="sans-serif" font-size="14" lengthAdjust="spacing" textLength="109" x="170.5" y="1114.5418">mandant: string</text><text fill="#000000" font-family="sans-serif" font-size="14" lengthAdjust="spacing" textLength="138" x="170.5" y="1133.6097">client_system: string</text><text fill="#000000" font-family="sans-serif" font-size="14" lengthAdjust="spacing" textLength="76" x="170.5" y="1152.6776">updated_at</text><line style="stroke:#181818;stroke-width:0.5;" x1="165.5" x2="332.5" y1="1160.7796" y2="1160.7796"/></g><!--class OperationalState--><g id="elem_OperationalState"><rect codeLine="110" fill="#FFF1D9" filter="url(#ft9wuc597cfc4)" height="105.2038" id="OperationalState" rx="5" ry="5" style="stroke:#181818;stroke-width:0.5;" width="151" x="661.5" y="191.27"/><rect fill="#FFD080" height="32" rx="5" ry="5" style="stroke:#FFD080;stroke-width:0.5;" width="151" x="661.5" y="191.27"/><rect fill="#FFD080" height="5" style="stroke:#FFD080;stroke-width:0.5;" width="151" x="661.5" y="218.27"/><rect codeLine="110" fill="none" height="105.2038" id="OperationalState" rx="5" ry="5" style="stroke:#181818;stroke-width:0.5;" width="151" x="661.5" y="191.27"/><ellipse cx="678.75" cy="207.27" fill="#ADD1B2" rx="11" ry="11" style="stroke:#181818;stroke-width:1.0;"/><path d="M678.8594,202.8012 Q677.9375,202.8012 677.2031,203.1137 Q676.4844,203.4262 675.9844,204.02 Q675.4844,204.5981 675.2031,205.4731 Q674.9375,206.3481 674.9375,207.4419 Q674.9375,208.8794 675.375,209.9262 Q675.8281,210.9731 676.6719,211.52 Q677.5313,212.0669 678.8438,212.0669 Q679.625,212.0669 680.3125,211.9419 Q681.0156,211.8012 682.0156,211.4887 L682.0156,213.3637 Q681.1563,213.6919 680.3906,213.8169 Q679.6406,213.9419 678.625,213.9419 Q676.7031,213.9419 675.3906,213.145 Q674.0938,212.3325 673.4375,210.8637 Q672.7813,209.3794 672.7813,207.4106 Q672.7813,205.9887 673.1719,204.8169 Q673.5781,203.6294 674.3594,202.7544 Q675.1406,201.8794 676.2813,201.4106 Q677.4219,200.9262 678.8906,200.9262 Q679.8438,200.9262 680.7344,201.1294 Q681.6406,201.3169 682.5781,201.7856 L681.75,203.5669 Q680.9688,203.1919 680.3125,203.0044 Q679.6563,202.8012 678.8594,202.8012 Z " fill="#000000"/><text fill="#000000" font-family="sans-serif" font-size="14" lengthAdjust="spacing" textLength="114" x="693.25" y="212.702">OperationalState</text><line style="stroke:#181818;stroke-width:0.5;" x1="662.5" x2="811.5" y1="223.27" y2="223.27"/><text fill="#000000" font-family="sans-serif" font-size="14" lengthAdjust="spacing" textLength="86" x="667.5" y="242.2359">name: string</text><text fill="#000000" font-family="sans-serif" font-size="14" lengthAdjust="spacing" textLength="124" x="667.5" y="261.3039">description: string</text><text fill="#000000" font-family="sans-serif" font-size="14" lengthAdjust="spacing" textLength="139" x="667.5" y="280.3718">operational: boolean</text><line style="stroke:#181818;stroke-width:0.5;" x1="662.5" x2="811.5" y1="288.4738" y2="288.4738"/></g><!--class Log--><g id="elem_Log"><rect codeLine="116" fill="#FFF1D9" filter="url(#ft9wuc597cfc4)" height="143.3396" id="Log" rx="5" ry="5" style="stroke:#181818;stroke-width:0.5;" width="163" x="408.5" y="1025.44"/><rect fill="#FFD080" height="32" rx="5" ry="5" style="stroke:#FFD080;stroke-width:0.5;" width="163" x="408.5" y="1025.44"/><rect fill="#FFD080" height="5" style="stroke:#FFD080;stroke-width:0.5;" width="163" x="408.5" y="1052.44"/><rect codeLine="116" fill="none" height="143.3396" id="Log" rx="5" ry="5" style="stroke:#181818;stroke-width:0.5;" width="163" x="408.5" y="1025.44"/><ellipse cx="473.75" cy="1041.44" fill="#ADD1B2" rx="11" ry="11" style="stroke:#181818;stroke-width:1.0;"/><path d="M473.8594,1036.9713 Q472.9375,1036.9713 472.2031,1037.2838 Q471.4844,1037.5963 470.9844,1038.19 Q470.4844,1038.7681 470.2031,1039.6431 Q469.9375,1040.5181 469.9375,1041.6119 Q469.9375,1043.0494 470.375,1044.0963 Q470.8281,1045.1431 471.6719,1045.69 Q472.5313,1046.2369 473.8438,1046.2369 Q474.625,1046.2369 475.3125,1046.1119 Q476.0156,1045.9713 477.0156,1045.6588 L477.0156,1047.5338 Q476.1563,1047.8619 475.3906,1047.9869 Q474.6406,1048.1119 473.625,1048.1119 Q471.7031,1048.1119 470.3906,1047.315 Q469.0938,1046.5025 468.4375,1045.0338 Q467.7813,1043.5494 467.7813,1041.5806 Q467.7813,1040.1588 468.1719,1038.9869 Q468.5781,1037.7994 469.3594,1036.9244 Q470.1406,1036.0494 471.2813,1035.5806 Q472.4219,1035.0963 473.8906,1035.0963 Q474.8438,1035.0963 475.7344,1035.2994 Q476.6406,1035.4869 477.5781,1035.9556 L476.75,1037.7369 Q475.9688,1037.3619 475.3125,1037.1744 Q474.6563,1036.9713 473.8594,1036.9713 Z " fill="#000000"/><text fill="#000000" font-family="sans-serif" font-size="14" lengthAdjust="spacing" textLength="24" x="494.25" y="1046.872">Log</text><line style="stroke:#181818;stroke-width:0.5;" x1="409.5" x2="570.5" y1="1057.44" y2="1057.44"/><text fill="#000000" font-family="sans-serif" font-size="14" lengthAdjust="spacing" textLength="151" x="414.5" y="1076.4059">loggable: polymorphic</text><text fill="#000000" font-family="sans-serif" font-size="14" lengthAdjust="spacing" textLength="89" x="414.5" y="1095.4739">action: string</text><text fill="#000000" font-family="sans-serif" font-size="14" lengthAdjust="spacing" textLength="142" x="414.5" y="1114.5418">last_seen: timestamp</text><text fill="#000000" font-family="sans-serif" font-size="14" lengthAdjust="spacing" textLength="79" x="414.5" y="1133.6097">level: string</text><text fill="#000000" font-family="sans-serif" font-size="14" lengthAdjust="spacing" textLength="93" x="414.5" y="1152.6776">message: text</text><line style="stroke:#181818;stroke-width:0.5;" x1="409.5" x2="570.5" y1="1160.7796" y2="1160.7796"/></g><!--class Network--><g id="elem_Network"><rect codeLine="124" fill="#FFF1D9" filter="url(#ft9wuc597cfc4)" height="105.2038" id="Network" rx="5" ry="5" style="stroke:#181818;stroke-width:0.5;" width="153" x="231.5" y="191.27"/><rect fill="#FFD080" height="32" rx="5" ry="5" style="stroke:#FFD080;stroke-width:0.5;" width="153" x="231.5" y="191.27"/><rect fill="#FFD080" height="5" style="stroke:#FFD080;stroke-width:0.5;" width="153" x="231.5" y="218.27"/><rect codeLine="124" fill="none" height="105.2038" id="Network" rx="5" ry="5" style="stroke:#181818;stroke-width:0.5;" width="153" x="231.5" y="191.27"/><ellipse cx="275.75" cy="207.27" fill="#ADD1B2" rx="11" ry="11" style="stroke:#181818;stroke-width:1.0;"/><path d="M275.8594,202.8012 Q274.9375,202.8012 274.2031,203.1137 Q273.4844,203.4262 272.9844,204.02 Q272.4844,204.5981 272.2031,205.4731 Q271.9375,206.3481 271.9375,207.4419 Q271.9375,208.8794 272.375,209.9262 Q272.8281,210.9731 273.6719,211.52 Q274.5313,212.0669 275.8438,212.0669 Q276.625,212.0669 277.3125,211.9419 Q278.0156,211.8012 279.0156,211.4887 L279.0156,213.3637 Q278.1563,213.6919 277.3906,213.8169 Q276.6406,213.9419 275.625,213.9419 Q273.7031,213.9419 272.3906,213.145 Q271.0938,212.3325 270.4375,210.8637 Q269.7813,209.3794 269.7813,207.4106 Q269.7813,205.9887 270.1719,204.8169 Q270.5781,203.6294 271.3594,202.7544 Q272.1406,201.8794 273.2813,201.4106 Q274.4219,200.9262 275.8906,200.9262 Q276.8438,200.9262 277.7344,201.1294 Q278.6406,201.3169 279.5781,201.7856 L278.75,203.5669 Q277.9688,203.1919 277.3125,203.0044 Q276.6563,202.8012 275.8594,202.8012 Z " fill="#000000"/><text fill="#000000" font-family="sans-serif" font-size="14" lengthAdjust="spacing" textLength="56" x="296.25" y="212.702">Network</text><line style="stroke:#181818;stroke-width:0.5;" x1="232.5" x2="383.5" y1="223.27" y2="223.27"/><text fill="#000000" font-family="sans-serif" font-size="14" lengthAdjust="spacing" textLength="95" x="237.5" y="242.2359">netzwerk: cidr</text><text fill="#000000" font-family="sans-serif" font-size="14" lengthAdjust="spacing" textLength="141" x="237.5" y="261.3039">description: rich_text</text><text fill="#000000" font-family="sans-serif" font-size="14" lengthAdjust="spacing" textLength="72" x="237.5" y="280.3718">location_id</text><line style="stroke:#181818;stroke-width:0.5;" x1="232.5" x2="383.5" y1="288.4738" y2="288.4738"/></g><ellipse cx="8" cy="243.87" fill="#181818" rx="2" ry="2" style="stroke:#181818;stroke-width:1.0;"/><ellipse cx="371" cy="1097.11" fill="#181818" rx="2" ry="2" style="stroke:#181818;stroke-width:1.0;"/><!--link Network to Location--><g id="link_Network_Location"><path codeLine="130" d="M384.99,243.87 C396.53,243.87 408.06,243.87 419.6,243.87 " fill="none" id="Network-Location" style="stroke:#181818;stroke-width:1.0;"/><text fill="#000000" font-family="sans-serif" font-size="13" lengthAdjust="spacing" textLength="7" x="392.4102" y="240.0158">*</text><text fill="#000000" font-family="sans-serif" font-size="13" lengthAdjust="spacing" textLength="7" x="405.1853" y="239.926">1</text></g><!--link Location to Connector--><g id="link_Location_Connector"><path codeLine="131" d="M419.53,286.59 C381.92,310.55 340.09,339.21 326,356.47 C293.23,396.61 267.51,446.29 247.95,493.76 " fill="none" id="Location-Connector" style="stroke:#181818;stroke-width:1.0;"/><text fill="#000000" font-family="sans-serif" font-size="13" lengthAdjust="spacing" textLength="7" x="405.1081" y="287.0515">*</text><text fill="#000000" font-family="sans-serif" font-size="13" lengthAdjust="spacing" textLength="7" x="243.2484" y="482.1637">*</text></g><!--link Connector to CardTerminal--><g id="link_Connector_CardTerminal"><path codeLine="133" d="M308.06,660.96 C319.58,660.96 331.11,660.96 342.64,660.96 " fill="none" id="Connector-CardTerminal" style="stroke:#181818;stroke-width:1.0;"/><text fill="#000000" font-family="sans-serif" font-size="13" lengthAdjust="spacing" textLength="20" x="314.9937" y="657.2674">0..1</text><text fill="#000000" font-family="sans-serif" font-size="13" lengthAdjust="spacing" textLength="7" x="328.0328" y="657.1822">*</text></g><!--link Location to CardTerminal--><g id="link_Location_CardTerminal"><path codeLine="134" d="M482.17,287.34 C476.34,329.81 466.94,398.21 457.79,464.89 " fill="none" id="Location-CardTerminal" style="stroke:#181818;stroke-width:1.0;"/><text fill="#000000" font-family="sans-serif" font-size="13" lengthAdjust="spacing" textLength="20" x="459.845" y="308.9208">0..1</text><text fill="#000000" font-family="sans-serif" font-size="13" lengthAdjust="spacing" textLength="7" x="451.6998" y="453.8097">*</text></g><!--link Context to apoint18--><g id="link_Context_apoint18"><path d="M232.69,85.63 C170.33,102.06 83.27,133.83 28,191.27 C13.08,206.78 8.96,234.66 8.16,241.38 " fill="none" id="Context-apoint18" style="stroke:#181818;stroke-width:1.0;"/><text fill="#000000" font-family="sans-serif" font-size="13" lengthAdjust="spacing" textLength="7" x="217.9321" y="83.3487">*</text></g><!--link apoint18 to Connector--><g id="link_apoint18_Connector"><path d="M8.46,246.16 C10.58,252.02 19.57,276.67 28,296.47 C55.67,361.47 87.96,432.06 116.87,493.6 " fill="none" id="apoint18-Connector" style="stroke:#181818;stroke-width:1.0;"/><text fill="#000000" font-family="sans-serif" font-size="13" lengthAdjust="spacing" textLength="7" x="105.8192" y="481.9959">*</text></g><!--link apoint18 to ConnectorContext--><g id="link_apoint18_ConnectorContext"><path d="M10.21,243.87 C21.75,243.87 33.29,243.87 44.83,243.87 " fill="none" id="apoint18-ConnectorContext" style="stroke:#181818;stroke-width:1.0;stroke-dasharray:7.0,7.0;"/></g><!--link CardTerminal to Card--><g id="link_CardTerminal_Card"><path codeLine="136" d="M519.21,660.96 C530.69,660.96 542.18,660.96 553.66,660.96 " fill="none" id="CardTerminal-Card" style="stroke:#181818;stroke-width:1.0;"/><text fill="#000000" font-family="sans-serif" font-size="13" lengthAdjust="spacing" textLength="20" x="526.0364" y="657.139">0..1</text><text fill="#000000" font-family="sans-serif" font-size="13" lengthAdjust="spacing" textLength="7" x="538.9442" y="657.31">*</text></g><!--link CardTerminal to apoint25--><g id="link_CardTerminal_apoint25"><path d="M404.07,856.81 C389.12,965.02 373.14,1080.66 371.2,1094.69 " fill="none" id="CardTerminal-apoint25" style="stroke:#181818;stroke-width:1.0;"/><text fill="#000000" font-family="sans-serif" font-size="13" lengthAdjust="spacing" textLength="7" x="395.8813" y="878.7032">*</text></g><!--link apoint25 to Workplace--><g id="link_apoint25_Workplace"><path d="M371,1099.61 C371,1110.72 371,1181.39 371,1228.41 " fill="none" id="apoint25-Workplace" style="stroke:#181818;stroke-width:1.0;"/><text fill="#000000" font-family="sans-serif" font-size="13" lengthAdjust="spacing" textLength="7" x="363.4422" y="1217.0857">*</text></g><!--link TerminalWorkplaces to apoint25--><g id="link_TerminalWorkplaces_apoint25"><path d="M333.83,1097.11 C345.44,1097.11 357.06,1097.11 368.68,1097.11 " fill="none" id="TerminalWorkplaces-apoint25" style="stroke:#181818;stroke-width:1.0;stroke-dasharray:7.0,7.0;"/></g><!--link Location to Card--><g id="link_Location_Card"><path codeLine="139" d="M506.28,287.25 C515.25,308.09 526.22,333.59 536,356.47 C541.74,369.9 547.62,383.66 553.54,397.56 " fill="none" id="Location-Card" style="stroke:#181818;stroke-width:1.0;"/><text fill="#000000" font-family="sans-serif" font-size="13" lengthAdjust="spacing" textLength="20" x="487.4961" y="308.8176">0..1</text><text fill="#000000" font-family="sans-serif" font-size="13" lengthAdjust="spacing" textLength="7" x="539.1754" y="377.0614">*</text></g><!--link OperationalState to Card--><g id="link_OperationalState_Card"><path codeLine="140" d="M728.03,296.6 C725.07,313.66 721.53,334.04 717.67,356.3 " fill="none" id="OperationalState-Card" style="stroke:#181818;stroke-width:1.0;"/><text fill="#000000" font-family="sans-serif" font-size="13" lengthAdjust="spacing" textLength="7" x="719.4323" y="318.3871">1</text><text fill="#000000" font-family="sans-serif" font-size="13" lengthAdjust="spacing" textLength="7" x="711.9761" y="344.8882">*</text></g><!--link Context to Card--><g id="link_Context_Card"><path codeLine="141" d="M383.42,84.66 C444.21,100.39 527.03,131.7 574,191.27 C611.33,238.63 634.8,296.92 649.26,356.1 " fill="none" id="Context-Card" style="stroke:#181818;stroke-width:1.0;"/><text fill="#000000" font-family="sans-serif" font-size="13" lengthAdjust="spacing" textLength="7" x="390.9421" y="82.2602">1</text><text fill="#000000" font-family="sans-serif" font-size="13" lengthAdjust="spacing" textLength="7" x="641.7489" y="344.6829">*</text></g><!--link Connector to Log--><g id="link_Connector_Log"><path codeLine="143" d="M250.37,828.33 C269.9,875.29 294.99,924.65 326,965.44 C338.83,982.33 373.95,1010.9 408.41,1037.04 " fill="none" id="Connector-Log" style="stroke:#181818;stroke-width:1.0;"/><text fill="#000000" font-family="sans-serif" font-size="13" lengthAdjust="spacing" textLength="7" x="245.4739" y="849.6614">1</text><text fill="#000000" font-family="sans-serif" font-size="13" lengthAdjust="spacing" textLength="7" x="393.5658" y="1027.6483">*</text></g><!--link CardTerminal to Log--><g id="link_CardTerminal_Log"><path codeLine="144" d="M457.48,856.81 C465.63,916.78 474.09,979.02 480.34,1025 " fill="none" id="CardTerminal-Log" style="stroke:#181818;stroke-width:1.0;"/><text fill="#000000" font-family="sans-serif" font-size="13" lengthAdjust="spacing" textLength="7" x="451.3777" y="878.7032">1</text><text fill="#000000" font-family="sans-serif" font-size="13" lengthAdjust="spacing" textLength="7" x="471.9829" y="1013.6205">*</text></g><!--link Card to Log--><g id="link_Card_Log"><path codeLine="145" d="M553.55,938.45 C540.76,970.18 528.71,1000.07 518.62,1025.12 " fill="none" id="Card-Log" style="stroke:#181818;stroke-width:1.0;"/><text fill="#000000" font-family="sans-serif" font-size="13" lengthAdjust="spacing" textLength="7" x="538.8268" y="953.4438">1</text><text fill="#000000" font-family="sans-serif" font-size="13" lengthAdjust="spacing" textLength="7" x="514.2105" y="1013.7529">*</text></g><!--SRC=[bLOzSzim3DtrArXFII_sDQlNhBrsQEywycWIbbbJ94j2JjnU_dj1IPP9oMgJnOdnpOS7mEWyGyTs3j4rJEa04hMpLVK13z00aqwAeDW-a7PJLTA86DcJivRiN63iJyMO5GriMSIWRKrV5KGPj4zXjYneUU08BqWAxRTCMqZ_2jLeozjWCh-euaJI2DiAmrkl15A6dNC6X2N5UZtOlpHaFuJl_3jJnGMIM3SGKJIUTF9ICOyGJbf2tBAVqTaTwUX9oEK1vB7qkSgvEyx2ATq_K5k46aBAxuJd0NwrPCPZAob9p8i-UOkQEsi8Wro-rw5v5W7u2KBiOWu0l8vuKmk-Go38XEaGLpfw8yvl1JuursHsL3qAYPd4cxQk2JPjYt16KqbdtgEVFjChM- -DXf0P6k98IigrklJ61-SXeCvndbGhaUoBPijj-X1AXP8iqJYCET93Dq7bCDxioIAsEIMex17gpyDREfXDKM01xwn5X2c1tRaHRPMmERwI4BD4YdD4o3lnxCAH6YdX7MdwelDynKlwzfAg_-9Td81IiEfTyvjQse53CqcJWD2dADjlXCsviHVoa69WQ-jCl8k55OA1Xe8S2y2BXopIAkqdVY38JS6k9CMppsLQofWp8F4g9RpIHLjQ3yZJg4y6lalYZ8B09t31YzSzBEMWtEIZfwsNe6lZhDPXlhFNolJKlPOfwj229ABTilj9_UQoe7EkGOqb6haoBhhLDEzsEgQ5AmO0ND8Irr0OwTIYlrbIk3dLVrncezzuDwPYWAae-BLwwhmlwtAC4ljHcKCzpc3_zUt3UxqrOzQlrmdvbWRal-CrIhFPkYurmk9fs4frlv1SNOjTQgrtvjouu0zQfdCg9-6wsnK1xEIamGcA0qidIjGmdD0ntHV0X4fVFU3lPmXq0ANk5lFYUiZt08Mw15bzNB4rMpsknjrQZKksqwsxF-DcgowhRKav_FHOVTfi7hlGoI2xa5dumUI6pTqOwE6ok-_PPhPVg-Bqpb9ErDU2HzfLDuYuONUvtyFL-fxzg_XgHg_Ln624RYBFORkgY5MJ1ynr4zbV]--></g></svg>