<?xml version="1.0" encoding="us-ascii" standalone="no"?><svg xmlns="http://www.w3.org/2000/svg" xmlns:xlink="http://www.w3.org/1999/xlink" contentStyleType="text/css" height="1015px" preserveAspectRatio="none" style="width:684px;height:1015px;background:#FFFFFF;" version="1.1" viewBox="0 0 684 1015" width="684px" zoomAndPan="magnify"><defs><filter height="300%" id="fgzc7tg3brgor" width="300%" x="-1" y="-1"><feGaussianBlur result="blurOut" stdDeviation="2.0"/><feColorMatrix in="blurOut" result="blurOut2" type="matrix" values="0 0 0 0 0 0 0 0 0 0 0 0 0 0 0 0 0 0 .4 0"/><feOffset dx="4.0" dy="4.0" in="blurOut2" result="blurOut3"/><feBlend in="SourceGraphic" in2="blurOut3" mode="normal"/></filter></defs><g><!--class Connector--><g id="elem_Connector"><rect codeLine="5" fill="#FFF1D9" filter="url(#fgzc7tg3brgor)" height="295.8829" id="Connector" rx="5" ry="5" style="stroke:#181818;stroke-width:0.5;" width="222" x="41" y="375.54"/><rect fill="#FFD080" height="32" rx="5" ry="5" style="stroke:#FFD080;stroke-width:0.5;" width="222" x="41" y="375.54"/><rect fill="#FFD080" height="5" style="stroke:#FFD080;stroke-width:0.5;" width="222" x="41" y="402.54"/><rect codeLine="5" fill="none" height="295.8829" id="Connector" rx="5" ry="5" style="stroke:#181818;stroke-width:0.5;" width="222" x="41" y="375.54"/><ellipse cx="113.25" cy="391.54" fill="#ADD1B2" rx="11" ry="11" style="stroke:#181818;stroke-width:1.0;"/><path d="M113.3594,387.0713 Q112.4375,387.0713 111.7031,387.3838 Q110.9844,387.6963 110.4844,388.29 Q109.9844,388.8681 109.7031,389.7431 Q109.4375,390.6181 109.4375,391.7119 Q109.4375,393.1494 109.875,394.1963 Q110.3281,395.2431 111.1719,395.79 Q112.0313,396.3369 113.3438,396.3369 Q114.125,396.3369 114.8125,396.2119 Q115.5156,396.0713 116.5156,395.7588 L116.5156,397.6338 Q115.6563,397.9619 114.8906,398.0869 Q114.1406,398.2119 113.125,398.2119 Q111.2031,398.2119 109.8906,397.415 Q108.5938,396.6025 107.9375,395.1338 Q107.2813,393.6494 107.2813,391.6806 Q107.2813,390.2588 107.6719,389.0869 Q108.0781,387.8994 108.8594,387.0244 Q109.6406,386.1494 110.7813,385.6806 Q111.9219,385.1963 113.3906,385.1963 Q114.3438,385.1963 115.2344,385.3994 Q116.1406,385.5869 117.0781,386.0556 L116.25,387.8369 Q115.4688,387.4619 114.8125,387.2744 Q114.1563,387.0713 113.3594,387.0713 Z " fill="#000000"/><text fill="#000000" font-family="sans-serif" font-size="14" lengthAdjust="spacing" textLength="69" x="133.75" y="396.972">Connector</text><line style="stroke:#181818;stroke-width:0.5;" x1="42" x2="262" y1="407.54" y2="407.54"/><text fill="#000000" font-family="sans-serif" font-size="14" lengthAdjust="spacing" textLength="86" x="47" y="426.5059">name: string</text><text fill="#000000" font-family="sans-serif" font-size="14" lengthAdjust="spacing" textLength="141" x="47" y="445.5739">description: rich_text</text><text fill="#000000" font-family="sans-serif" font-size="14" lengthAdjust="spacing" textLength="47" x="47" y="464.6418">ip: inet</text><text fill="#000000" font-family="sans-serif" font-size="14" lengthAdjust="spacing" textLength="96" x="47" y="483.7097">sds_url: string</text><text fill="#000000" font-family="sans-serif" font-size="14" lengthAdjust="spacing" textLength="167" x="47" y="502.7776">manual_update: boolean</text><line style="stroke:#181818;stroke-width:1.0;" x1="42" x2="262" y1="510.8796" y2="510.8796"/><text fill="#000000" font-family="sans-serif" font-size="14" lengthAdjust="spacing" textLength="86" x="47" y="529.8455">sds_xml: text</text><text fill="#000000" font-family="sans-serif" font-size="14" lengthAdjust="spacing" textLength="185" x="47" y="548.9134">sds_updated_at: timestamp</text><text fill="#000000" font-family="sans-serif" font-size="14" lengthAdjust="spacing" textLength="172" x="47" y="567.9814">connector_services: jsonb</text><text fill="#000000" font-family="sans-serif" font-size="14" lengthAdjust="spacing" textLength="148" x="47" y="587.0493">last_check: timestamp</text><text fill="#000000" font-family="sans-serif" font-size="14" lengthAdjust="spacing" textLength="169" x="47" y="606.1172">last_check_ok: timestamp</text><text fill="#000000" font-family="sans-serif" font-size="14" lengthAdjust="spacing" textLength="120" x="47" y="625.1851">condition: integer</text><text fill="#000000" font-family="sans-serif" font-size="14" lengthAdjust="spacing" textLength="210" x="47" y="644.253">soap_request_success: boolean</text><text fill="#000000" font-family="sans-serif" font-size="14" lengthAdjust="spacing" textLength="144" x="47" y="663.3209">vpnti_online: boolean</text></g><!--class CardTerminal--><g id="elem_CardTerminal"><rect codeLine="22" fill="#FFF1D9" filter="url(#fgzc7tg3brgor)" height="334.0188" id="CardTerminal" rx="5" ry="5" style="stroke:#181818;stroke-width:0.5;" width="153" x="297.5" y="356.47"/><rect fill="#FFD080" height="32" rx="5" ry="5" style="stroke:#FFD080;stroke-width:0.5;" width="153" x="297.5" y="356.47"/><rect fill="#FFD080" height="5" style="stroke:#FFD080;stroke-width:0.5;" width="153" x="297.5" y="383.47"/><rect codeLine="22" fill="none" height="334.0188" id="CardTerminal" rx="5" ry="5" style="stroke:#181818;stroke-width:0.5;" width="153" x="297.5" y="356.47"/><ellipse cx="325.55" cy="372.47" fill="#ADD1B2" rx="11" ry="11" style="stroke:#181818;stroke-width:1.0;"/><path d="M325.6594,368.0013 Q324.7375,368.0013 324.0031,368.3138 Q323.2844,368.6263 322.7844,369.22 Q322.2844,369.7981 322.0031,370.6731 Q321.7375,371.5481 321.7375,372.6419 Q321.7375,374.0794 322.175,375.1263 Q322.6281,376.1731 323.4719,376.72 Q324.3313,377.2669 325.6438,377.2669 Q326.425,377.2669 327.1125,377.1419 Q327.8156,377.0013 328.8156,376.6888 L328.8156,378.5638 Q327.9563,378.8919 327.1906,379.0169 Q326.4406,379.1419 325.425,379.1419 Q323.5031,379.1419 322.1906,378.345 Q320.8938,377.5325 320.2375,376.0638 Q319.5813,374.5794 319.5813,372.6106 Q319.5813,371.1888 319.9719,370.0169 Q320.3781,368.8294 321.1594,367.9544 Q321.9406,367.0794 323.0813,366.6106 Q324.2219,366.1263 325.6906,366.1263 Q326.6438,366.1263 327.5344,366.3294 Q328.4406,366.5169 329.3781,366.9856 L328.55,368.7669 Q327.7688,368.3919 327.1125,368.2044 Q326.4563,368.0013 325.6594,368.0013 Z " fill="#000000"/><text fill="#000000" font-family="sans-serif" font-size="14" lengthAdjust="spacing" textLength="92" x="342.45" y="377.902">CardTerminal</text><line style="stroke:#181818;stroke-width:0.5;" x1="298.5" x2="449.5" y1="388.47" y2="388.47"/><text fill="#000000" font-family="sans-serif" font-size="14" lengthAdjust="spacing" textLength="134" x="303.5" y="407.4359">displayname: string</text><text fill="#000000" font-family="sans-serif" font-size="14" lengthAdjust="spacing" textLength="141" x="303.5" y="426.5039">description: rich_text</text><text fill="#000000" font-family="sans-serif" font-size="14" lengthAdjust="spacing" textLength="83" x="303.5" y="445.5718">room: string</text><text fill="#000000" font-family="sans-serif" font-size="14" lengthAdjust="spacing" textLength="97" x="303.5" y="464.6397">contact: string</text><text fill="#000000" font-family="sans-serif" font-size="14" lengthAdjust="spacing" textLength="124" x="303.5" y="483.7076">plugged_in: string</text><text fill="#000000" font-family="sans-serif" font-size="14" lengthAdjust="spacing" textLength="72" x="303.5" y="502.7755">location_id</text><line style="stroke:#181818;stroke-width:1.0;" x1="298.5" x2="449.5" y1="510.8775" y2="510.8775"/><text fill="#000000" font-family="sans-serif" font-size="14" lengthAdjust="spacing" textLength="115" x="303.5" y="529.8434">properties: jsonb</text><text fill="#000000" font-family="sans-serif" font-size="14" lengthAdjust="spacing" textLength="86" x="303.5" y="548.9114">name: string</text><text fill="#000000" font-family="sans-serif" font-size="14" lengthAdjust="spacing" textLength="79" x="303.5" y="567.9793">ct_id: string</text><text fill="#000000" font-family="sans-serif" font-size="14" lengthAdjust="spacing" textLength="96" x="303.5" y="587.0472">mac: macaddr</text><text fill="#000000" font-family="sans-serif" font-size="14" lengthAdjust="spacing" textLength="47" x="303.5" y="606.1151">ip: inet</text><text fill="#000000" font-family="sans-serif" font-size="14" lengthAdjust="spacing" textLength="88" x="303.5" y="625.183">slots: integer</text><text fill="#000000" font-family="sans-serif" font-size="14" lengthAdjust="spacing" textLength="132" x="303.5" y="644.2509">connected: boolean</text><text fill="#000000" font-family="sans-serif" font-size="14" lengthAdjust="spacing" textLength="120" x="303.5" y="663.3189">condition: integer</text><text fill="#000000" font-family="sans-serif" font-size="14" lengthAdjust="spacing" textLength="86" x="303.5" y="682.3868">connector_id</text></g><!--class Location--><g id="elem_Location"><rect codeLine="41" fill="#FFF1D9" filter="url(#fgzc7tg3brgor)" height="86.1358" id="Location" rx="5" ry="5" style="stroke:#181818;stroke-width:0.5;" width="136" x="306" y="200.8"/><rect fill="#FFD080" height="32" rx="5" ry="5" style="stroke:#FFD080;stroke-width:0.5;" width="136" x="306" y="200.8"/><rect fill="#FFD080" height="5" style="stroke:#FFD080;stroke-width:0.5;" width="136" x="306" y="227.8"/><rect codeLine="41" fill="none" height="86.1358" id="Location" rx="5" ry="5" style="stroke:#181818;stroke-width:0.5;" width="136" x="306" y="200.8"/><ellipse cx="342.6" cy="216.8" fill="#ADD1B2" rx="11" ry="11" style="stroke:#181818;stroke-width:1.0;"/><path d="M342.7094,212.3313 Q341.7875,212.3313 341.0531,212.6438 Q340.3344,212.9563 339.8344,213.55 Q339.3344,214.1281 339.0531,215.0031 Q338.7875,215.8781 338.7875,216.9719 Q338.7875,218.4094 339.225,219.4563 Q339.6781,220.5031 340.5219,221.05 Q341.3813,221.5969 342.6938,221.5969 Q343.475,221.5969 344.1625,221.4719 Q344.8656,221.3313 345.8656,221.0188 L345.8656,222.8938 Q345.0063,223.2219 344.2406,223.3469 Q343.4906,223.4719 342.475,223.4719 Q340.5531,223.4719 339.2406,222.675 Q337.9438,221.8625 337.2875,220.3938 Q336.6313,218.9094 336.6313,216.9406 Q336.6313,215.5188 337.0219,214.3469 Q337.4281,213.1594 338.2094,212.2844 Q338.9906,211.4094 340.1313,210.9406 Q341.2719,210.4563 342.7406,210.4563 Q343.6938,210.4563 344.5844,210.6594 Q345.4906,210.8469 346.4281,211.3156 L345.6,213.0969 Q344.8188,212.7219 344.1625,212.5344 Q343.5063,212.3313 342.7094,212.3313 Z " fill="#000000"/><text fill="#000000" font-family="sans-serif" font-size="14" lengthAdjust="spacing" textLength="56" x="361.4" y="222.232">Location</text><line style="stroke:#181818;stroke-width:0.5;" x1="307" x2="441" y1="232.8" y2="232.8"/><text fill="#000000" font-family="sans-serif" font-size="14" lengthAdjust="spacing" textLength="65" x="312" y="251.7659">lid: string</text><text fill="#000000" font-family="sans-serif" font-size="14" lengthAdjust="spacing" textLength="124" x="312" y="270.8339">description: string</text><line style="stroke:#181818;stroke-width:0.5;" x1="307" x2="441" y1="278.9358" y2="278.9358"/></g><!--class Context--><g id="elem_Context"><rect codeLine="46" fill="#FFF1D9" filter="url(#fgzc7tg3brgor)" height="124.2717" id="Context" rx="5" ry="5" style="stroke:#181818;stroke-width:0.5;" width="150" x="7" y="7"/><rect fill="#FFD080" height="32" rx="5" ry="5" style="stroke:#FFD080;stroke-width:0.5;" width="150" x="7" y="7"/><rect fill="#FFD080" height="5" style="stroke:#FFD080;stroke-width:0.5;" width="150" x="7" y="34"/><rect codeLine="46" fill="none" height="124.2717" id="Context" rx="5" ry="5" style="stroke:#181818;stroke-width:0.5;" width="150" x="7" y="7"/><ellipse cx="52.25" cy="23" fill="#ADD1B2" rx="11" ry="11" style="stroke:#181818;stroke-width:1.0;"/><path d="M52.3594,18.5313 Q51.4375,18.5313 50.7031,18.8438 Q49.9844,19.1563 49.4844,19.75 Q48.9844,20.3281 48.7031,21.2031 Q48.4375,22.0781 48.4375,23.1719 Q48.4375,24.6094 48.875,25.6563 Q49.3281,26.7031 50.1719,27.25 Q51.0313,27.7969 52.3438,27.7969 Q53.125,27.7969 53.8125,27.6719 Q54.5156,27.5313 55.5156,27.2188 L55.5156,29.0938 Q54.6563,29.4219 53.8906,29.5469 Q53.1406,29.6719 52.125,29.6719 Q50.2031,29.6719 48.8906,28.875 Q47.5938,28.0625 46.9375,26.5938 Q46.2813,25.1094 46.2813,23.1406 Q46.2813,21.7188 46.6719,20.5469 Q47.0781,19.3594 47.8594,18.4844 Q48.6406,17.6094 49.7813,17.1406 Q50.9219,16.6563 52.3906,16.6563 Q53.3438,16.6563 54.2344,16.8594 Q55.1406,17.0469 56.0781,17.5156 L55.25,19.2969 Q54.4688,18.9219 53.8125,18.7344 Q53.1563,18.5313 52.3594,18.5313 Z " fill="#000000"/><text fill="#000000" font-family="sans-serif" font-size="14" lengthAdjust="spacing" textLength="51" x="72.75" y="28.432">Context</text><line style="stroke:#181818;stroke-width:0.5;" x1="8" x2="156" y1="39" y2="39"/><text fill="#000000" font-family="sans-serif" font-size="14" lengthAdjust="spacing" textLength="109" x="13" y="57.9659">mandant: string</text><text fill="#000000" font-family="sans-serif" font-size="14" lengthAdjust="spacing" textLength="138" x="13" y="77.0339">client_system: string</text><text fill="#000000" font-family="sans-serif" font-size="14" lengthAdjust="spacing" textLength="116" x="13" y="96.1018">workplace: string</text><text fill="#000000" font-family="sans-serif" font-size="14" lengthAdjust="spacing" textLength="124" x="13" y="115.1697">description: string</text><line style="stroke:#181818;stroke-width:0.5;" x1="8" x2="156" y1="123.2717" y2="123.2717"/></g><!--class ConnectorContext--><g id="elem_ConnectorContext"><rect codeLine="53" fill="#FFF1D9" filter="url(#fgzc7tg3brgor)" height="105.2038" id="ConnectorContext" rx="5" ry="5" style="stroke:#181818;stroke-width:0.5;" width="152" x="119" y="191.27"/><rect fill="#FFD080" height="32" rx="5" ry="5" style="stroke:#FFD080;stroke-width:0.5;" width="152" x="119" y="191.27"/><rect fill="#FFD080" height="5" style="stroke:#FFD080;stroke-width:0.5;" width="152" x="119" y="218.27"/><rect codeLine="53" fill="none" height="105.2038" id="ConnectorContext" rx="5" ry="5" style="stroke:#181818;stroke-width:0.5;" width="152" x="119" y="191.27"/><ellipse cx="134" cy="207.27" fill="#ADD1B2" rx="11" ry="11" style="stroke:#181818;stroke-width:1.0;"/><path d="M134.1094,202.8013 Q133.1875,202.8013 132.4531,203.1138 Q131.7344,203.4263 131.2344,204.02 Q130.7344,204.5981 130.4531,205.4731 Q130.1875,206.3481 130.1875,207.4419 Q130.1875,208.8794 130.625,209.9263 Q131.0781,210.9731 131.9219,211.52 Q132.7813,212.0669 134.0938,212.0669 Q134.875,212.0669 135.5625,211.9419 Q136.2656,211.8013 137.2656,211.4888 L137.2656,213.3638 Q136.4063,213.6919 135.6406,213.8169 Q134.8906,213.9419 133.875,213.9419 Q131.9531,213.9419 130.6406,213.145 Q129.3438,212.3325 128.6875,210.8638 Q128.0313,209.3794 128.0313,207.4106 Q128.0313,205.9888 128.4219,204.8169 Q128.8281,203.6294 129.6094,202.7544 Q130.3906,201.8794 131.5313,201.4106 Q132.6719,200.9263 134.1406,200.9263 Q135.0938,200.9263 135.9844,201.1294 Q136.8906,201.3169 137.8281,201.7856 L137,203.5669 Q136.2188,203.1919 135.5625,203.0044 Q134.9063,202.8013 134.1094,202.8013 Z " fill="#000000"/><text fill="#000000" font-family="sans-serif" font-size="14" lengthAdjust="spacing" textLength="120" x="148" y="212.702">ConnectorContext</text><line style="stroke:#181818;stroke-width:0.5;" x1="120" x2="270" y1="223.27" y2="223.27"/><text fill="#000000" font-family="sans-serif" font-size="14" lengthAdjust="spacing" textLength="86" x="125" y="242.2359">connector_id</text><text fill="#000000" font-family="sans-serif" font-size="14" lengthAdjust="spacing" textLength="68" x="125" y="261.3039">context_id</text><text fill="#000000" font-family="sans-serif" font-size="14" lengthAdjust="spacing" textLength="111" x="125" y="280.3718">position: integer</text><line style="stroke:#181818;stroke-width:0.5;" x1="120" x2="270" y1="288.4738" y2="288.4738"/></g><!--class Card--><g id="elem_Card"><rect codeLine="59" fill="#FFF1D9" filter="url(#fgzc7tg3brgor)" height="257.7471" id="Card" rx="5" ry="5" style="stroke:#181818;stroke-width:0.5;" width="184" x="486" y="394.61"/><rect fill="#FFD080" height="32" rx="5" ry="5" style="stroke:#FFD080;stroke-width:0.5;" width="184" x="486" y="394.61"/><rect fill="#FFD080" height="5" style="stroke:#FFD080;stroke-width:0.5;" width="184" x="486" y="421.61"/><rect codeLine="59" fill="none" height="257.7471" id="Card" rx="5" ry="5" style="stroke:#181818;stroke-width:0.5;" width="184" x="486" y="394.61"/><ellipse cx="557.75" cy="410.61" fill="#ADD1B2" rx="11" ry="11" style="stroke:#181818;stroke-width:1.0;"/><path d="M557.8594,406.1413 Q556.9375,406.1413 556.2031,406.4538 Q555.4844,406.7663 554.9844,407.36 Q554.4844,407.9381 554.2031,408.8131 Q553.9375,409.6881 553.9375,410.7819 Q553.9375,412.2194 554.375,413.2663 Q554.8281,414.3131 555.6719,414.86 Q556.5313,415.4069 557.8438,415.4069 Q558.625,415.4069 559.3125,415.2819 Q560.0156,415.1413 561.0156,414.8288 L561.0156,416.7038 Q560.1563,417.0319 559.3906,417.1569 Q558.6406,417.2819 557.625,417.2819 Q555.7031,417.2819 554.3906,416.485 Q553.0938,415.6725 552.4375,414.2038 Q551.7813,412.7194 551.7813,410.7506 Q551.7813,409.3288 552.1719,408.1569 Q552.5781,406.9694 553.3594,406.0944 Q554.1406,405.2194 555.2813,404.7506 Q556.4219,404.2663 557.8906,404.2663 Q558.8438,404.2663 559.7344,404.4694 Q560.6406,404.6569 561.5781,405.1256 L560.75,406.9069 Q559.9688,406.5319 559.3125,406.3444 Q558.6563,406.1413 557.8594,406.1413 Z " fill="#000000"/><text fill="#000000" font-family="sans-serif" font-size="14" lengthAdjust="spacing" textLength="32" x="578.25" y="416.042">Card</text><line style="stroke:#181818;stroke-width:0.5;" x1="487" x2="669" y1="426.61" y2="426.61"/><text fill="#000000" font-family="sans-serif" font-size="14" lengthAdjust="spacing" textLength="86" x="492" y="445.5759">name: string</text><text fill="#000000" font-family="sans-serif" font-size="14" lengthAdjust="spacing" textLength="141" x="492" y="464.6439">description: rich_text</text><line style="stroke:#181818;stroke-width:1.0;" x1="487" x2="669" y1="472.7458" y2="472.7458"/><text fill="#000000" font-family="sans-serif" font-size="14" lengthAdjust="spacing" textLength="115" x="492" y="491.7118">properties: jsonb</text><text fill="#000000" font-family="sans-serif" font-size="14" lengthAdjust="spacing" textLength="131" x="492" y="510.7797">card_handle: string</text><text fill="#000000" font-family="sans-serif" font-size="14" lengthAdjust="spacing" textLength="113" x="492" y="529.8476">card_type: string</text><text fill="#000000" font-family="sans-serif" font-size="14" lengthAdjust="spacing" textLength="82" x="492" y="548.9155">iccsn: string</text><text fill="#000000" font-family="sans-serif" font-size="14" lengthAdjust="spacing" textLength="94" x="492" y="567.9834">slotid: integer</text><text fill="#000000" font-family="sans-serif" font-size="14" lengthAdjust="spacing" textLength="155" x="492" y="587.0514">insert_time: timestamp</text><text fill="#000000" font-family="sans-serif" font-size="14" lengthAdjust="spacing" textLength="172" x="492" y="606.1193">card_holder_name: string</text><text fill="#000000" font-family="sans-serif" font-size="14" lengthAdjust="spacing" textLength="142" x="492" y="625.1872">expiration_date: date</text><text fill="#000000" font-family="sans-serif" font-size="14" lengthAdjust="spacing" textLength="112" x="492" y="644.2551">card_terminal_id</text></g><!--class Workplace--><g id="elem_Workplace"><rect codeLine="74" fill="#FFF1D9" filter="url(#fgzc7tg3brgor)" height="86.1358" id="Workplace" rx="5" ry="5" style="stroke:#181818;stroke-width:0.5;" width="136" x="306" y="915.69"/><rect fill="#FFD080" height="32" rx="5" ry="5" style="stroke:#FFD080;stroke-width:0.5;" width="136" x="306" y="915.69"/><rect fill="#FFD080" height="5" style="stroke:#FFD080;stroke-width:0.5;" width="136" x="306" y="942.69"/><rect codeLine="74" fill="none" height="86.1358" id="Workplace" rx="5" ry="5" style="stroke:#181818;stroke-width:0.5;" width="136" x="306" y="915.69"/><ellipse cx="336.3" cy="931.69" fill="#ADD1B2" rx="11" ry="11" style="stroke:#181818;stroke-width:1.0;"/><path d="M336.4094,927.2213 Q335.4875,927.2213 334.7531,927.5338 Q334.0344,927.8463 333.5344,928.44 Q333.0344,929.0181 332.7531,929.8931 Q332.4875,930.7681 332.4875,931.8619 Q332.4875,933.2994 332.925,934.3463 Q333.3781,935.3931 334.2219,935.94 Q335.0813,936.4869 336.3938,936.4869 Q337.175,936.4869 337.8625,936.3619 Q338.5656,936.2213 339.5656,935.9088 L339.5656,937.7838 Q338.7063,938.1119 337.9406,938.2369 Q337.1906,938.3619 336.175,938.3619 Q334.2531,938.3619 332.9406,937.565 Q331.6438,936.7525 330.9875,935.2838 Q330.3313,933.7994 330.3313,931.8306 Q330.3313,930.4088 330.7219,929.2369 Q331.1281,928.0494 331.9094,927.1744 Q332.6906,926.2994 333.8313,925.8306 Q334.9719,925.3463 336.4406,925.3463 Q337.3938,925.3463 338.2844,925.5494 Q339.1906,925.7369 340.1281,926.2056 L339.3,927.9869 Q338.5188,927.6119 337.8625,927.4244 Q337.2063,927.2213 336.4094,927.2213 Z " fill="#000000"/><text fill="#000000" font-family="sans-serif" font-size="14" lengthAdjust="spacing" textLength="70" x="353.7" y="937.122">Workplace</text><line style="stroke:#181818;stroke-width:0.5;" x1="307" x2="441" y1="947.69" y2="947.69"/><text fill="#000000" font-family="sans-serif" font-size="14" lengthAdjust="spacing" textLength="124" x="312" y="966.6559">description: string</text><line style="stroke:#181818;stroke-width:1.0;" x1="307" x2="441" y1="974.7579" y2="974.7579"/><text fill="#000000" font-family="sans-serif" font-size="14" lengthAdjust="spacing" textLength="86" x="312" y="993.7239">name: string</text></g><!--class TerminalWorkplaces--><g id="elem_TerminalWorkplaces"><rect codeLine="79" fill="#FFF1D9" filter="url(#fgzc7tg3brgor)" height="105.2038" id="TerminalWorkplaces" rx="5" ry="5" style="stroke:#181818;stroke-width:0.5;" width="169" x="411.5" y="750.49"/><rect fill="#FFD080" height="32" rx="5" ry="5" style="stroke:#FFD080;stroke-width:0.5;" width="169" x="411.5" y="750.49"/><rect fill="#FFD080" height="5" style="stroke:#FFD080;stroke-width:0.5;" width="169" x="411.5" y="777.49"/><rect codeLine="79" fill="none" height="105.2038" id="TerminalWorkplaces" rx="5" ry="5" style="stroke:#181818;stroke-width:0.5;" width="169" x="411.5" y="750.49"/><ellipse cx="426.5" cy="766.49" fill="#ADD1B2" rx="11" ry="11" style="stroke:#181818;stroke-width:1.0;"/><path d="M426.6094,762.0213 Q425.6875,762.0213 424.9531,762.3338 Q424.2344,762.6463 423.7344,763.24 Q423.2344,763.8181 422.9531,764.6931 Q422.6875,765.5681 422.6875,766.6619 Q422.6875,768.0994 423.125,769.1463 Q423.5781,770.1931 424.4219,770.74 Q425.2813,771.2869 426.5938,771.2869 Q427.375,771.2869 428.0625,771.1619 Q428.7656,771.0213 429.7656,770.7088 L429.7656,772.5838 Q428.9063,772.9119 428.1406,773.0369 Q427.3906,773.1619 426.375,773.1619 Q424.4531,773.1619 423.1406,772.365 Q421.8438,771.5525 421.1875,770.0838 Q420.5313,768.5994 420.5313,766.6306 Q420.5313,765.2088 420.9219,764.0369 Q421.3281,762.8494 422.1094,761.9744 Q422.8906,761.0994 424.0313,760.6306 Q425.1719,760.1463 426.6406,760.1463 Q427.5938,760.1463 428.4844,760.3494 Q429.3906,760.5369 430.3281,761.0056 L429.5,762.7869 Q428.7188,762.4119 428.0625,762.2244 Q427.4063,762.0213 426.6094,762.0213 Z " fill="#000000"/><text fill="#000000" font-family="sans-serif" font-size="14" lengthAdjust="spacing" textLength="137" x="440.5" y="771.922">TerminalWorkplaces</text><line style="stroke:#181818;stroke-width:0.5;" x1="412.5" x2="579.5" y1="782.49" y2="782.49"/><text fill="#000000" font-family="sans-serif" font-size="14" lengthAdjust="spacing" textLength="112" x="417.5" y="801.4559">card_terminal_id</text><text fill="#000000" font-family="sans-serif" font-size="14" lengthAdjust="spacing" textLength="87" x="417.5" y="820.5239">workplace_id</text><text fill="#000000" font-family="sans-serif" font-size="14" lengthAdjust="spacing" textLength="76" x="417.5" y="839.5918">updated_at</text><line style="stroke:#181818;stroke-width:0.5;" x1="412.5" x2="579.5" y1="847.6938" y2="847.6938"/></g><ellipse cx="82" cy="243.87" fill="#181818" rx="2" ry="2" style="stroke:#181818;stroke-width:1.0;"/><ellipse cx="374" cy="803.09" fill="#181818" rx="2" ry="2" style="stroke:#181818;stroke-width:1.0;"/><!--link Location to Connector--><g id="link_Location_Connector"><path codeLine="85" d="M337.41,287.44 C319.83,308.1 298.6,333.4 280,356.47 C274.52,363.27 268.94,370.26 263.33,377.33 " fill="none" id="Location-Connector" style="stroke:#181818;stroke-width:1.0;"/><text fill="#000000" font-family="sans-serif" font-size="13" lengthAdjust="spacing" textLength="7" x="324.7723" y="308.7093">*</text><text fill="#000000" font-family="sans-serif" font-size="13" lengthAdjust="spacing" textLength="7" x="271.0451" y="363.8601">*</text></g><!--link Connector to CardTerminal--><g id="link_Connector_CardTerminal"><path codeLine="87" d="M263.43,523.48 C274.66,523.48 285.89,523.48 297.12,523.48 " fill="none" id="Connector-CardTerminal" style="stroke:#181818;stroke-width:1.0;"/><text fill="#000000" font-family="sans-serif" font-size="13" lengthAdjust="spacing" textLength="7" x="271.1519" y="519.8295">1</text><text fill="#000000" font-family="sans-serif" font-size="13" lengthAdjust="spacing" textLength="7" x="282.4588" y="519.6006">*</text></g><!--link Location to CardTerminal--><g id="link_Location_CardTerminal"><path codeLine="88" d="M374,287.34 C374,306.55 374,330.62 374,355.98 " fill="none" id="Location-CardTerminal" style="stroke:#181818;stroke-width:1.0;"/><text fill="#000000" font-family="sans-serif" font-size="13" lengthAdjust="spacing" textLength="7" x="366.4859" y="308.9223">1</text><text fill="#000000" font-family="sans-serif" font-size="13" lengthAdjust="spacing" textLength="7" x="366.8414" y="344.918">*</text></g><!--link Context to apoint14--><g id="link_Context_apoint14"><path d="M82,131.52 C82,177.29 82,233.3 82,241.78 " fill="none" id="Context-apoint14" style="stroke:#181818;stroke-width:1.0;"/><text fill="#000000" font-family="sans-serif" font-size="13" lengthAdjust="spacing" textLength="7" x="74.6172" y="153.2086">*</text></g><!--link apoint14 to Connector--><g id="link_apoint14_Connector"><path d="M82.31,246.11 C84.63,255.3 99.5,314.28 114.91,375.4 " fill="none" id="apoint14-Connector" style="stroke:#181818;stroke-width:1.0;"/><text fill="#000000" font-family="sans-serif" font-size="13" lengthAdjust="spacing" textLength="7" x="105.6902" y="363.7533">*</text></g><!--link apoint14 to ConnectorContext--><g id="link_apoint14_ConnectorContext"><path d="M84.21,243.87 C95.75,243.87 107.29,243.87 118.83,243.87 " fill="none" id="apoint14-ConnectorContext" style="stroke:#181818;stroke-width:1.0;stroke-dasharray:7.0,7.0;"/></g><!--link CardTerminal to Card--><g id="link_CardTerminal_Card"><path codeLine="90" d="M450.9,523.48 C462.48,523.48 474.07,523.48 485.65,523.48 " fill="none" id="CardTerminal-Card" style="stroke:#181818;stroke-width:1.0;"/><text fill="#000000" font-family="sans-serif" font-size="13" lengthAdjust="spacing" textLength="7" x="458.5631" y="519.6006">1</text><text fill="#000000" font-family="sans-serif" font-size="13" lengthAdjust="spacing" textLength="7" x="471.012" y="519.7275">*</text></g><!--link CardTerminal to apoint21--><g id="link_CardTerminal_apoint21"><path d="M374,690.78 C374,744.36 374,792.25 374,800.75 " fill="none" id="CardTerminal-apoint21" style="stroke:#181818;stroke-width:1.0;"/><text fill="#000000" font-family="sans-serif" font-size="13" lengthAdjust="spacing" textLength="7" x="366.8414" y="712.659">*</text></g><!--link apoint21 to Workplace--><g id="link_apoint21_Workplace"><path d="M374,805.42 C374,814.95 374,873.77 374,915.46 " fill="none" id="apoint21-Workplace" style="stroke:#181818;stroke-width:1.0;"/><text fill="#000000" font-family="sans-serif" font-size="13" lengthAdjust="spacing" textLength="7" x="366.4203" y="903.8365">*</text></g><!--link apoint21 to TerminalWorkplaces--><g id="link_apoint21_TerminalWorkplaces"><path d="M376.38,803.09 C388.06,803.09 399.75,803.09 411.43,803.09 " fill="none" id="apoint21-TerminalWorkplaces" style="stroke:#181818;stroke-width:1.0;stroke-dasharray:7.0,7.0;"/></g><!--SRC=[bLHDZniX3BtFhw0vjTLkf5xdkjSUA-qH4N0J6WPJy6mJLVdlDVC9awpKlKo2RUpdzsm8Wo0K1oJ2JXWRGPD5tpIVw0GT28rQHID-HlRkcqOxbP9uGUyv3gCGVniXlEgW5OcYzKS-6aWwsf3Jj29QVP845sA73Qsm7lBVP9BieojkTShtoia-64MSxO3eG7bsF3zFyPUEuwTKm_qXr4X5RBOT959TO9-UqSa4ySrgIAtubT0VsCVmIUeJw7DzPxLBFD-bCtPindg28yHS7rMG4Nxt72PJhxb8Aa6_1KzMedVSxsg_BGGofpyWTjOhDr1eR0fENV-NoOZO5N4CaPIcmX9SVpmoDzONHiTQvbpIcfdN435095joj06XYUCheNIRFygOk17L8QMIfKa9C2Kr3_bSDMDi2qtV9y03HQv2KL4pMM_5V6QYXciyLqRvaXljB7XMxPe8IXR_O3op21e-K6O4NTQhEXcbOTTu29WsdLSJyQ5bUbU-lA_on5sxIiLifMieRLRhLCv7rY-JlCfYFQyGoRmEcwKOYg0p4EK6CLo2ZUESZQkSlmk2QUWhcLzduiTLU43vr6vLwTQy3BVdFLgof567RRb2uF6ulXyPoZ9hkwyxhZRyB08tiyBlEQVdSFUDtQEtsF0YzsF_voN3qpoxNyH-VpTWJVLkrCaslXNdmWkNAKAULiTGwvx6Vm00]--></g></svg>