<?xml version="1.0" encoding="us-ascii" standalone="no"?><svg xmlns="http://www.w3.org/2000/svg" xmlns:xlink="http://www.w3.org/1999/xlink" contentStyleType="text/css" height="1386px" preserveAspectRatio="none" style="width:826px;height:1386px;background:#FFFFFF;" version="1.1" viewBox="0 0 826 1386" width="826px" zoomAndPan="magnify"><defs><filter height="300%" id="f1garxksvqv3sr" width="300%" x="-1" y="-1"><feGaussianBlur result="blurOut" stdDeviation="2.0"/><feColorMatrix in="blurOut" result="blurOut2" type="matrix" values="0 0 0 0 0 0 0 0 0 0 0 0 0 0 0 0 0 0 .4 0"/><feOffset dx="4.0" dy="4.0" in="blurOut2" result="blurOut3"/><feBlend in="SourceGraphic" in2="blurOut3" mode="normal"/></filter></defs><g><!--class Connector--><g id="elem_Connector"><rect codeLine="5" fill="#FFF1D9" filter="url(#f1garxksvqv3sr)" height="334.0188" id="Connector" rx="5" ry="5" style="stroke:#181818;stroke-width:0.5;" width="222" x="86" y="503.48"/><rect fill="#FFD080" height="32" rx="5" ry="5" style="stroke:#FFD080;stroke-width:0.5;" width="222" x="86" y="503.48"/><rect fill="#FFD080" height="5" style="stroke:#FFD080;stroke-width:0.5;" width="222" x="86" y="530.48"/><rect codeLine="5" fill="none" height="334.0188" id="Connector" rx="5" ry="5" style="stroke:#181818;stroke-width:0.5;" width="222" x="86" y="503.48"/><ellipse cx="158.25" cy="519.48" fill="#ADD1B2" rx="11" ry="11" style="stroke:#181818;stroke-width:1.0;"/><path d="M158.3594,515.0112 Q157.4375,515.0112 156.7031,515.3237 Q155.9844,515.6362 155.4844,516.23 Q154.9844,516.8081 154.7031,517.6831 Q154.4375,518.5581 154.4375,519.6519 Q154.4375,521.0894 154.875,522.1362 Q155.3281,523.1831 156.1719,523.73 Q157.0313,524.2769 158.3438,524.2769 Q159.125,524.2769 159.8125,524.1519 Q160.5156,524.0112 161.5156,523.6987 L161.5156,525.5737 Q160.6563,525.9019 159.8906,526.0269 Q159.1406,526.1519 158.125,526.1519 Q156.2031,526.1519 154.8906,525.355 Q153.5938,524.5425 152.9375,523.0737 Q152.2813,521.5894 152.2813,519.6206 Q152.2813,518.1987 152.6719,517.0269 Q153.0781,515.8394 153.8594,514.9644 Q154.6406,514.0894 155.7813,513.6206 Q156.9219,513.1362 158.3906,513.1362 Q159.3438,513.1362 160.2344,513.3394 Q161.1406,513.5269 162.0781,513.9956 L161.25,515.7769 Q160.4688,515.4019 159.8125,515.2144 Q159.1563,515.0112 158.3594,515.0112 Z " fill="#000000"/><text fill="#000000" font-family="sans-serif" font-size="14" lengthAdjust="spacing" textLength="69" x="178.75" y="524.912">Connector</text><line style="stroke:#181818;stroke-width:0.5;" x1="87" x2="307" y1="535.48" y2="535.48"/><text fill="#000000" font-family="sans-serif" font-size="14" lengthAdjust="spacing" textLength="86" x="92" y="554.4459">name: string</text><text fill="#000000" font-family="sans-serif" font-size="14" lengthAdjust="spacing" textLength="141" x="92" y="573.5139">description: rich_text</text><text fill="#000000" font-family="sans-serif" font-size="14" lengthAdjust="spacing" textLength="47" x="92" y="592.5818">ip: inet</text><text fill="#000000" font-family="sans-serif" font-size="14" lengthAdjust="spacing" textLength="116" x="92" y="611.6497">admin_url: string</text><text fill="#000000" font-family="sans-serif" font-size="14" lengthAdjust="spacing" textLength="96" x="92" y="630.7176">sds_url: string</text><text fill="#000000" font-family="sans-serif" font-size="14" lengthAdjust="spacing" textLength="167" x="92" y="649.7855">manual_update: boolean</text><line style="stroke:#181818;stroke-width:1.0;" x1="87" x2="307" y1="657.8875" y2="657.8875"/><text fill="#000000" font-family="sans-serif" font-size="14" lengthAdjust="spacing" textLength="86" x="92" y="676.8534">sds_xml: text</text><text fill="#000000" font-family="sans-serif" font-size="14" lengthAdjust="spacing" textLength="185" x="92" y="695.9214">sds_updated_at: timestamp</text><text fill="#000000" font-family="sans-serif" font-size="14" lengthAdjust="spacing" textLength="172" x="92" y="714.9893">connector_services: jsonb</text><text fill="#000000" font-family="sans-serif" font-size="14" lengthAdjust="spacing" textLength="148" x="92" y="734.0572">last_check: timestamp</text><text fill="#000000" font-family="sans-serif" font-size="14" lengthAdjust="spacing" textLength="169" x="92" y="753.1251">last_check_ok: timestamp</text><text fill="#000000" font-family="sans-serif" font-size="14" lengthAdjust="spacing" textLength="120" x="92" y="772.193">condition: integer</text><text fill="#000000" font-family="sans-serif" font-size="14" lengthAdjust="spacing" textLength="210" x="92" y="791.2609">soap_request_success: boolean</text><text fill="#000000" font-family="sans-serif" font-size="14" lengthAdjust="spacing" textLength="144" x="92" y="810.3289">vpnti_online: boolean</text><text fill="#000000" font-family="sans-serif" font-size="14" lengthAdjust="spacing" textLength="164" x="92" y="829.3968">firmware_version: string</text></g><!--class CardTerminal--><g id="elem_CardTerminal"><rect codeLine="24" fill="#FFF1D9" filter="url(#f1garxksvqv3sr)" height="429.3583" id="CardTerminal" rx="5" ry="5" style="stroke:#181818;stroke-width:0.5;" width="176" x="343" y="455.81"/><rect fill="#FFD080" height="32" rx="5" ry="5" style="stroke:#FFD080;stroke-width:0.5;" width="176" x="343" y="455.81"/><rect fill="#FFD080" height="5" style="stroke:#FFD080;stroke-width:0.5;" width="176" x="343" y="482.81"/><rect codeLine="24" fill="none" height="429.3583" id="CardTerminal" rx="5" ry="5" style="stroke:#181818;stroke-width:0.5;" width="176" x="343" y="455.81"/><ellipse cx="381.4" cy="471.81" fill="#ADD1B2" rx="11" ry="11" style="stroke:#181818;stroke-width:1.0;"/><path d="M381.5094,467.3412 Q380.5875,467.3412 379.8531,467.6537 Q379.1344,467.9662 378.6344,468.56 Q378.1344,469.1381 377.8531,470.0131 Q377.5875,470.8881 377.5875,471.9819 Q377.5875,473.4194 378.025,474.4662 Q378.4781,475.5131 379.3219,476.06 Q380.1813,476.6069 381.4938,476.6069 Q382.275,476.6069 382.9625,476.4819 Q383.6656,476.3412 384.6656,476.0287 L384.6656,477.9037 Q383.8063,478.2319 383.0406,478.3569 Q382.2906,478.4819 381.275,478.4819 Q379.3531,478.4819 378.0406,477.685 Q376.7438,476.8725 376.0875,475.4037 Q375.4313,473.9194 375.4313,471.9506 Q375.4313,470.5287 375.8219,469.3569 Q376.2281,468.1694 377.0094,467.2944 Q377.7906,466.4194 378.9313,465.9506 Q380.0719,465.4662 381.5406,465.4662 Q382.4938,465.4662 383.3844,465.6694 Q384.2906,465.8569 385.2281,466.3256 L384.4,468.1069 Q383.6188,467.7319 382.9625,467.5444 Q382.3063,467.3412 381.5094,467.3412 Z " fill="#000000"/><text fill="#000000" font-family="sans-serif" font-size="14" lengthAdjust="spacing" textLength="92" x="400.6" y="477.242">CardTerminal</text><line style="stroke:#181818;stroke-width:0.5;" x1="344" x2="518" y1="487.81" y2="487.81"/><text fill="#000000" font-family="sans-serif" font-size="14" lengthAdjust="spacing" textLength="134" x="349" y="506.7759">displayname: string</text><text fill="#000000" font-family="sans-serif" font-size="14" lengthAdjust="spacing" textLength="141" x="349" y="525.8439">description: rich_text</text><text fill="#000000" font-family="sans-serif" font-size="14" lengthAdjust="spacing" textLength="83" x="349" y="544.9118">room: string</text><text fill="#000000" font-family="sans-serif" font-size="14" lengthAdjust="spacing" textLength="97" x="349" y="563.9797">contact: string</text><text fill="#000000" font-family="sans-serif" font-size="14" lengthAdjust="spacing" textLength="124" x="349" y="583.0476">plugged_in: string</text><text fill="#000000" font-family="sans-serif" font-size="14" lengthAdjust="spacing" textLength="127" x="349" y="602.1155">delivery_date: date</text><text fill="#000000" font-family="sans-serif" font-size="14" lengthAdjust="spacing" textLength="104" x="349" y="621.1834">supplier: string</text><text fill="#000000" font-family="sans-serif" font-size="14" lengthAdjust="spacing" textLength="85" x="349" y="640.2514">serial: string</text><text fill="#000000" font-family="sans-serif" font-size="14" lengthAdjust="spacing" textLength="120" x="349" y="659.3193">id_product: string</text><text fill="#000000" font-family="sans-serif" font-size="14" lengthAdjust="spacing" textLength="72" x="349" y="678.3872">location_id</text><line style="stroke:#181818;stroke-width:1.0;" x1="344" x2="518" y1="686.4892" y2="686.4892"/><text fill="#000000" font-family="sans-serif" font-size="14" lengthAdjust="spacing" textLength="115" x="349" y="705.4551">properties: jsonb</text><text fill="#000000" font-family="sans-serif" font-size="14" lengthAdjust="spacing" textLength="86" x="349" y="724.523">name: string</text><text fill="#000000" font-family="sans-serif" font-size="14" lengthAdjust="spacing" textLength="79" x="349" y="743.5909">ct_id: string</text><text fill="#000000" font-family="sans-serif" font-size="14" lengthAdjust="spacing" textLength="96" x="349" y="762.6589">mac: macaddr</text><text fill="#000000" font-family="sans-serif" font-size="14" lengthAdjust="spacing" textLength="47" x="349" y="781.7268">ip: inet</text><text fill="#000000" font-family="sans-serif" font-size="14" lengthAdjust="spacing" textLength="88" x="349" y="800.7947">slots: integer</text><text fill="#000000" font-family="sans-serif" font-size="14" lengthAdjust="spacing" textLength="132" x="349" y="819.8626">connected: boolean</text><text fill="#000000" font-family="sans-serif" font-size="14" lengthAdjust="spacing" textLength="120" x="349" y="838.9305">condition: integer</text><text fill="#000000" font-family="sans-serif" font-size="14" lengthAdjust="spacing" textLength="164" x="349" y="857.9984">firmware_version: string</text><text fill="#000000" font-family="sans-serif" font-size="14" lengthAdjust="spacing" textLength="86" x="349" y="877.0664">connector_id</text></g><!--class Location--><g id="elem_Location"><rect codeLine="48" fill="#FFF1D9" filter="url(#f1garxksvqv3sr)" height="86.1358" id="Location" rx="5" ry="5" style="stroke:#181818;stroke-width:0.5;" width="136" x="420" y="200.8"/><rect fill="#FFD080" height="32" rx="5" ry="5" style="stroke:#FFD080;stroke-width:0.5;" width="136" x="420" y="200.8"/><rect fill="#FFD080" height="5" style="stroke:#FFD080;stroke-width:0.5;" width="136" x="420" y="227.8"/><rect codeLine="48" fill="none" height="86.1358" id="Location" rx="5" ry="5" style="stroke:#181818;stroke-width:0.5;" width="136" x="420" y="200.8"/><ellipse cx="456.6" cy="216.8" fill="#ADD1B2" rx="11" ry="11" style="stroke:#181818;stroke-width:1.0;"/><path d="M456.7094,212.3312 Q455.7875,212.3312 455.0531,212.6437 Q454.3344,212.9562 453.8344,213.55 Q453.3344,214.1281 453.0531,215.0031 Q452.7875,215.8781 452.7875,216.9719 Q452.7875,218.4094 453.225,219.4562 Q453.6781,220.5031 454.5219,221.05 Q455.3813,221.5969 456.6938,221.5969 Q457.475,221.5969 458.1625,221.4719 Q458.8656,221.3312 459.8656,221.0187 L459.8656,222.8937 Q459.0063,223.2219 458.2406,223.3469 Q457.4906,223.4719 456.475,223.4719 Q454.5531,223.4719 453.2406,222.675 Q451.9438,221.8625 451.2875,220.3937 Q450.6313,218.9094 450.6313,216.9406 Q450.6313,215.5187 451.0219,214.3469 Q451.4281,213.1594 452.2094,212.2844 Q452.9906,211.4094 454.1313,210.9406 Q455.2719,210.4562 456.7406,210.4562 Q457.6938,210.4562 458.5844,210.6594 Q459.4906,210.8469 460.4281,211.3156 L459.6,213.0969 Q458.8188,212.7219 458.1625,212.5344 Q457.5063,212.3312 456.7094,212.3312 Z " fill="#000000"/><text fill="#000000" font-family="sans-serif" font-size="14" lengthAdjust="spacing" textLength="56" x="475.4" y="222.232">Location</text><line style="stroke:#181818;stroke-width:0.5;" x1="421" x2="555" y1="232.8" y2="232.8"/><text fill="#000000" font-family="sans-serif" font-size="14" lengthAdjust="spacing" textLength="65" x="426" y="251.7659">lid: string</text><text fill="#000000" font-family="sans-serif" font-size="14" lengthAdjust="spacing" textLength="124" x="426" y="270.8339">description: string</text><line style="stroke:#181818;stroke-width:0.5;" x1="421" x2="555" y1="278.9358" y2="278.9358"/></g><!--class Context--><g id="elem_Context"><rect codeLine="53" fill="#FFF1D9" filter="url(#f1garxksvqv3sr)" height="124.2717" id="Context" rx="5" ry="5" style="stroke:#181818;stroke-width:0.5;" width="150" x="233" y="7"/><rect fill="#FFD080" height="32" rx="5" ry="5" style="stroke:#FFD080;stroke-width:0.5;" width="150" x="233" y="7"/><rect fill="#FFD080" height="5" style="stroke:#FFD080;stroke-width:0.5;" width="150" x="233" y="34"/><rect codeLine="53" fill="none" height="124.2717" id="Context" rx="5" ry="5" style="stroke:#181818;stroke-width:0.5;" width="150" x="233" y="7"/><ellipse cx="278.25" cy="23" fill="#ADD1B2" rx="11" ry="11" style="stroke:#181818;stroke-width:1.0;"/><path d="M278.3594,18.5313 Q277.4375,18.5313 276.7031,18.8438 Q275.9844,19.1563 275.4844,19.75 Q274.9844,20.3281 274.7031,21.2031 Q274.4375,22.0781 274.4375,23.1719 Q274.4375,24.6094 274.875,25.6563 Q275.3281,26.7031 276.1719,27.25 Q277.0313,27.7969 278.3438,27.7969 Q279.125,27.7969 279.8125,27.6719 Q280.5156,27.5313 281.5156,27.2188 L281.5156,29.0938 Q280.6563,29.4219 279.8906,29.5469 Q279.1406,29.6719 278.125,29.6719 Q276.2031,29.6719 274.8906,28.875 Q273.5938,28.0625 272.9375,26.5938 Q272.2813,25.1094 272.2813,23.1406 Q272.2813,21.7188 272.6719,20.5469 Q273.0781,19.3594 273.8594,18.4844 Q274.6406,17.6094 275.7813,17.1406 Q276.9219,16.6563 278.3906,16.6563 Q279.3438,16.6563 280.2344,16.8594 Q281.1406,17.0469 282.0781,17.5156 L281.25,19.2969 Q280.4688,18.9219 279.8125,18.7344 Q279.1563,18.5313 278.3594,18.5313 Z " fill="#000000"/><text fill="#000000" font-family="sans-serif" font-size="14" lengthAdjust="spacing" textLength="51" x="298.75" y="28.432">Context</text><line style="stroke:#181818;stroke-width:0.5;" x1="234" x2="382" y1="39" y2="39"/><text fill="#000000" font-family="sans-serif" font-size="14" lengthAdjust="spacing" textLength="109" x="239" y="57.9659">mandant: string</text><text fill="#000000" font-family="sans-serif" font-size="14" lengthAdjust="spacing" textLength="138" x="239" y="77.0339">client_system: string</text><text fill="#000000" font-family="sans-serif" font-size="14" lengthAdjust="spacing" textLength="116" x="239" y="96.1018">workplace: string</text><text fill="#000000" font-family="sans-serif" font-size="14" lengthAdjust="spacing" textLength="124" x="239" y="115.1697">description: string</text><line style="stroke:#181818;stroke-width:0.5;" x1="234" x2="382" y1="123.2717" y2="123.2717"/></g><!--class ConnectorContext--><g id="elem_ConnectorContext"><rect codeLine="60" fill="#FFF1D9" filter="url(#f1garxksvqv3sr)" height="105.2038" id="ConnectorContext" rx="5" ry="5" style="stroke:#181818;stroke-width:0.5;" width="152" x="45" y="191.27"/><rect fill="#FFD080" height="32" rx="5" ry="5" style="stroke:#FFD080;stroke-width:0.5;" width="152" x="45" y="191.27"/><rect fill="#FFD080" height="5" style="stroke:#FFD080;stroke-width:0.5;" width="152" x="45" y="218.27"/><rect codeLine="60" fill="none" height="105.2038" id="ConnectorContext" rx="5" ry="5" style="stroke:#181818;stroke-width:0.5;" width="152" x="45" y="191.27"/><ellipse cx="60" cy="207.27" fill="#ADD1B2" rx="11" ry="11" style="stroke:#181818;stroke-width:1.0;"/><path d="M60.1094,202.8012 Q59.1875,202.8012 58.4531,203.1137 Q57.7344,203.4262 57.2344,204.02 Q56.7344,204.5981 56.4531,205.4731 Q56.1875,206.3481 56.1875,207.4419 Q56.1875,208.8794 56.625,209.9262 Q57.0781,210.9731 57.9219,211.52 Q58.7813,212.0669 60.0938,212.0669 Q60.875,212.0669 61.5625,211.9419 Q62.2656,211.8012 63.2656,211.4887 L63.2656,213.3637 Q62.4063,213.6919 61.6406,213.8169 Q60.8906,213.9419 59.875,213.9419 Q57.9531,213.9419 56.6406,213.145 Q55.3438,212.3325 54.6875,210.8637 Q54.0313,209.3794 54.0313,207.4106 Q54.0313,205.9887 54.4219,204.8169 Q54.8281,203.6294 55.6094,202.7544 Q56.3906,201.8794 57.5313,201.4106 Q58.6719,200.9262 60.1406,200.9262 Q61.0938,200.9262 61.9844,201.1294 Q62.8906,201.3169 63.8281,201.7856 L63,203.5669 Q62.2188,203.1919 61.5625,203.0044 Q60.9063,202.8012 60.1094,202.8012 Z " fill="#000000"/><text fill="#000000" font-family="sans-serif" font-size="14" lengthAdjust="spacing" textLength="120" x="74" y="212.702">ConnectorContext</text><line style="stroke:#181818;stroke-width:0.5;" x1="46" x2="196" y1="223.27" y2="223.27"/><text fill="#000000" font-family="sans-serif" font-size="14" lengthAdjust="spacing" textLength="86" x="51" y="242.2359">connector_id</text><text fill="#000000" font-family="sans-serif" font-size="14" lengthAdjust="spacing" textLength="68" x="51" y="261.3039">context_id</text><text fill="#000000" font-family="sans-serif" font-size="14" lengthAdjust="spacing" textLength="111" x="51" y="280.3718">position: integer</text><line style="stroke:#181818;stroke-width:0.5;" x1="46" x2="196" y1="288.4738" y2="288.4738"/></g><!--class Card--><g id="elem_Card"><rect codeLine="66" fill="#FFF1D9" filter="url(#f1garxksvqv3sr)" height="628.0375" id="Card" rx="5" ry="5" style="stroke:#181818;stroke-width:0.5;" width="222" x="554" y="356.47"/><rect fill="#FFD080" height="32" rx="5" ry="5" style="stroke:#FFD080;stroke-width:0.5;" width="222" x="554" y="356.47"/><rect fill="#FFD080" height="5" style="stroke:#FFD080;stroke-width:0.5;" width="222" x="554" y="383.47"/><rect codeLine="66" fill="none" height="628.0375" id="Card" rx="5" ry="5" style="stroke:#181818;stroke-width:0.5;" width="222" x="554" y="356.47"/><ellipse cx="644.75" cy="372.47" fill="#ADD1B2" rx="11" ry="11" style="stroke:#181818;stroke-width:1.0;"/><path d="M644.8594,368.0012 Q643.9375,368.0012 643.2031,368.3137 Q642.4844,368.6262 641.9844,369.22 Q641.4844,369.7981 641.2031,370.6731 Q640.9375,371.5481 640.9375,372.6419 Q640.9375,374.0794 641.375,375.1262 Q641.8281,376.1731 642.6719,376.72 Q643.5313,377.2669 644.8438,377.2669 Q645.625,377.2669 646.3125,377.1419 Q647.0156,377.0012 648.0156,376.6887 L648.0156,378.5637 Q647.1563,378.8919 646.3906,379.0169 Q645.6406,379.1419 644.625,379.1419 Q642.7031,379.1419 641.3906,378.345 Q640.0938,377.5325 639.4375,376.0637 Q638.7813,374.5794 638.7813,372.6106 Q638.7813,371.1887 639.1719,370.0169 Q639.5781,368.8294 640.3594,367.9544 Q641.1406,367.0794 642.2813,366.6106 Q643.4219,366.1262 644.8906,366.1262 Q645.8438,366.1262 646.7344,366.3294 Q647.6406,366.5169 648.5781,366.9856 L647.75,368.7669 Q646.9688,368.3919 646.3125,368.2044 Q645.6563,368.0012 644.8594,368.0012 Z " fill="#000000"/><text fill="#000000" font-family="sans-serif" font-size="14" lengthAdjust="spacing" textLength="32" x="665.25" y="377.902">Card</text><line style="stroke:#181818;stroke-width:0.5;" x1="555" x2="775" y1="388.47" y2="388.47"/><text fill="#000000" font-family="sans-serif" font-size="14" lengthAdjust="spacing" textLength="86" x="560" y="407.4359">name: string</text><text fill="#000000" font-family="sans-serif" font-size="14" lengthAdjust="spacing" textLength="141" x="560" y="426.5039">description: rich_text</text><text fill="#000000" font-family="sans-serif" font-size="14" lengthAdjust="spacing" textLength="135" x="560" y="445.5718">operational_state_id</text><text fill="#000000" font-family="sans-serif" font-size="14" lengthAdjust="spacing" textLength="72" x="560" y="464.6397">location_id</text><text fill="#000000" font-family="sans-serif" font-size="14" lengthAdjust="spacing" textLength="75" x="560" y="483.7076">lanr: string</text><text fill="#000000" font-family="sans-serif" font-size="14" lengthAdjust="spacing" textLength="135" x="560" y="502.7755">fachrichtung: string</text><text fill="#000000" font-family="sans-serif" font-size="14" lengthAdjust="spacing" textLength="79" x="560" y="521.8434">bsnr: string</text><text fill="#000000" font-family="sans-serif" font-size="14" lengthAdjust="spacing" textLength="123" x="560" y="540.9114">telematikid: string</text><text fill="#000000" font-family="sans-serif" font-size="14" lengthAdjust="spacing" textLength="197" x="560" y="559.9793">private_information: rich_text</text><text fill="#000000" font-family="sans-serif" font-size="14" lengthAdjust="spacing" textLength="68" x="560" y="579.0472">context_id</text><line style="stroke:#181818;stroke-width:1.0;" x1="555" x2="775" y1="587.1492" y2="587.1492"/><text fill="#000000" font-family="sans-serif" font-size="14" lengthAdjust="spacing" textLength="115" x="560" y="606.1151">properties: jsonb</text><text fill="#000000" font-family="sans-serif" font-size="14" lengthAdjust="spacing" textLength="131" x="560" y="625.183">card_handle: string</text><text fill="#000000" font-family="sans-serif" font-size="14" lengthAdjust="spacing" textLength="113" x="560" y="644.2509">card_type: string</text><text fill="#000000" font-family="sans-serif" font-size="14" lengthAdjust="spacing" textLength="82" x="560" y="663.3189">iccsn: string</text><text fill="#000000" font-family="sans-serif" font-size="14" lengthAdjust="spacing" textLength="94" x="560" y="682.3868">slotid: integer</text><text fill="#000000" font-family="sans-serif" font-size="14" lengthAdjust="spacing" textLength="155" x="560" y="701.4547">insert_time: timestamp</text><text fill="#000000" font-family="sans-serif" font-size="14" lengthAdjust="spacing" textLength="172" x="560" y="720.5226">card_holder_name: string</text><text fill="#000000" font-family="sans-serif" font-size="14" lengthAdjust="spacing" textLength="142" x="560" y="739.5905">expiration_date: date</text><text fill="#000000" font-family="sans-serif" font-size="14" lengthAdjust="spacing" textLength="120" x="560" y="758.6584">condition: integer</text><text fill="#000000" font-family="sans-serif" font-size="14" lengthAdjust="spacing" textLength="117" x="560" y="777.7264">pin_status: string</text><text fill="#000000" font-family="sans-serif" font-size="14" lengthAdjust="spacing" textLength="112" x="560" y="796.7943">card_terminal_id</text><line style="stroke:#181818;stroke-width:1.0;" x1="555" x2="775" y1="804.8963" y2="804.8963"/><text fill="#000000" font-family="sans-serif" font-size="14" lengthAdjust="spacing" textLength="96" x="560" y="823.8622">certificate:text</text><text fill="#000000" font-family="sans-serif" font-size="14" lengthAdjust="spacing" textLength="151" x="560" y="842.9301">cert_subject_cn: string</text><text fill="#000000" font-family="sans-serif" font-size="14" lengthAdjust="spacing" textLength="161" x="560" y="861.998">cert_subject_title: string</text><text fill="#000000" font-family="sans-serif" font-size="14" lengthAdjust="spacing" textLength="151" x="560" y="881.0659">cert_subject_sn: string</text><text fill="#000000" font-family="sans-serif" font-size="14" lengthAdjust="spacing" textLength="210" x="560" y="900.1339">cert_subject_givenname: string</text><text fill="#000000" font-family="sans-serif" font-size="14" lengthAdjust="spacing" textLength="174" x="560" y="919.2018">cert_subject_street: string</text><text fill="#000000" font-family="sans-serif" font-size="14" lengthAdjust="spacing" textLength="208" x="560" y="938.2697">cert_subject_postalcode: string</text><text fill="#000000" font-family="sans-serif" font-size="14" lengthAdjust="spacing" textLength="139" x="560" y="957.3376">cert_subject_l: string</text><text fill="#000000" font-family="sans-serif" font-size="14" lengthAdjust="spacing" textLength="143" x="560" y="976.4055">cert_subject_o: string</text></g><!--class Workplace--><g id="elem_Workplace"><rect codeLine="101" fill="#FFF1D9" filter="url(#f1garxksvqv3sr)" height="86.1358" id="Workplace" rx="5" ry="5" style="stroke:#181818;stroke-width:0.5;" width="136" x="303" y="1285.98"/><rect fill="#FFD080" height="32" rx="5" ry="5" style="stroke:#FFD080;stroke-width:0.5;" width="136" x="303" y="1285.98"/><rect fill="#FFD080" height="5" style="stroke:#FFD080;stroke-width:0.5;" width="136" x="303" y="1312.98"/><rect codeLine="101" fill="none" height="86.1358" id="Workplace" rx="5" ry="5" style="stroke:#181818;stroke-width:0.5;" width="136" x="303" y="1285.98"/><ellipse cx="333.3" cy="1301.98" fill="#ADD1B2" rx="11" ry="11" style="stroke:#181818;stroke-width:1.0;"/><path d="M333.4094,1297.5112 Q332.4875,1297.5112 331.7531,1297.8237 Q331.0344,1298.1362 330.5344,1298.73 Q330.0344,1299.3081 329.7531,1300.1831 Q329.4875,1301.0581 329.4875,1302.1519 Q329.4875,1303.5894 329.925,1304.6362 Q330.3781,1305.6831 331.2219,1306.23 Q332.0813,1306.7769 333.3938,1306.7769 Q334.175,1306.7769 334.8625,1306.6519 Q335.5656,1306.5112 336.5656,1306.1987 L336.5656,1308.0737 Q335.7063,1308.4019 334.9406,1308.5269 Q334.1906,1308.6519 333.175,1308.6519 Q331.2531,1308.6519 329.9406,1307.855 Q328.6438,1307.0425 327.9875,1305.5737 Q327.3313,1304.0894 327.3313,1302.1206 Q327.3313,1300.6987 327.7219,1299.5269 Q328.1281,1298.3394 328.9094,1297.4644 Q329.6906,1296.5894 330.8313,1296.1206 Q331.9719,1295.6362 333.4406,1295.6362 Q334.3938,1295.6362 335.2844,1295.8394 Q336.1906,1296.0269 337.1281,1296.4956 L336.3,1298.2769 Q335.5188,1297.9019 334.8625,1297.7144 Q334.2063,1297.5112 333.4094,1297.5112 Z " fill="#000000"/><text fill="#000000" font-family="sans-serif" font-size="14" lengthAdjust="spacing" textLength="70" x="350.7" y="1307.412">Workplace</text><line style="stroke:#181818;stroke-width:0.5;" x1="304" x2="438" y1="1317.98" y2="1317.98"/><text fill="#000000" font-family="sans-serif" font-size="14" lengthAdjust="spacing" textLength="124" x="309" y="1336.9459">description: string</text><line style="stroke:#181818;stroke-width:1.0;" x1="304" x2="438" y1="1345.0479" y2="1345.0479"/><text fill="#000000" font-family="sans-serif" font-size="14" lengthAdjust="spacing" textLength="86" x="309" y="1364.0139">name: string</text></g><!--class TerminalWorkplaces--><g id="elem_TerminalWorkplaces"><rect codeLine="106" fill="#FFF1D9" filter="url(#f1garxksvqv3sr)" height="143.3396" id="TerminalWorkplaces" rx="5" ry="5" style="stroke:#181818;stroke-width:0.5;" width="169" x="164.5" y="1063.58"/><rect fill="#FFD080" height="32" rx="5" ry="5" style="stroke:#FFD080;stroke-width:0.5;" width="169" x="164.5" y="1063.58"/><rect fill="#FFD080" height="5" style="stroke:#FFD080;stroke-width:0.5;" width="169" x="164.5" y="1090.58"/><rect codeLine="106" fill="none" height="143.3396" id="TerminalWorkplaces" rx="5" ry="5" style="stroke:#181818;stroke-width:0.5;" width="169" x="164.5" y="1063.58"/><ellipse cx="179.5" cy="1079.58" fill="#ADD1B2" rx="11" ry="11" style="stroke:#181818;stroke-width:1.0;"/><path d="M179.6094,1075.1113 Q178.6875,1075.1113 177.9531,1075.4238 Q177.2344,1075.7363 176.7344,1076.33 Q176.2344,1076.9081 175.9531,1077.7831 Q175.6875,1078.6581 175.6875,1079.7519 Q175.6875,1081.1894 176.125,1082.2363 Q176.5781,1083.2831 177.4219,1083.83 Q178.2813,1084.3769 179.5938,1084.3769 Q180.375,1084.3769 181.0625,1084.2519 Q181.7656,1084.1113 182.7656,1083.7988 L182.7656,1085.6738 Q181.9063,1086.0019 181.1406,1086.1269 Q180.3906,1086.2519 179.375,1086.2519 Q177.4531,1086.2519 176.1406,1085.455 Q174.8438,1084.6425 174.1875,1083.1738 Q173.5313,1081.6894 173.5313,1079.7206 Q173.5313,1078.2988 173.9219,1077.1269 Q174.3281,1075.9394 175.1094,1075.0644 Q175.8906,1074.1894 177.0313,1073.7206 Q178.1719,1073.2363 179.6406,1073.2363 Q180.5938,1073.2363 181.4844,1073.4394 Q182.3906,1073.6269 183.3281,1074.0956 L182.5,1075.8769 Q181.7188,1075.5019 181.0625,1075.3144 Q180.4063,1075.1113 179.6094,1075.1113 Z " fill="#000000"/><text fill="#000000" font-family="sans-serif" font-size="14" lengthAdjust="spacing" textLength="137" x="193.5" y="1085.012">TerminalWorkplaces</text><line style="stroke:#181818;stroke-width:0.5;" x1="165.5" x2="332.5" y1="1095.58" y2="1095.58"/><text fill="#000000" font-family="sans-serif" font-size="14" lengthAdjust="spacing" textLength="112" x="170.5" y="1114.5459">card_terminal_id</text><text fill="#000000" font-family="sans-serif" font-size="14" lengthAdjust="spacing" textLength="87" x="170.5" y="1133.6139">workplace_id</text><text fill="#000000" font-family="sans-serif" font-size="14" lengthAdjust="spacing" textLength="109" x="170.5" y="1152.6818">mandant: string</text><text fill="#000000" font-family="sans-serif" font-size="14" lengthAdjust="spacing" textLength="138" x="170.5" y="1171.7497">client_system: string</text><text fill="#000000" font-family="sans-serif" font-size="14" lengthAdjust="spacing" textLength="76" x="170.5" y="1190.8176">updated_at</text><line style="stroke:#181818;stroke-width:0.5;" x1="165.5" x2="332.5" y1="1198.9196" y2="1198.9196"/></g><!--class OperationalState--><g id="elem_OperationalState"><rect codeLine="113" fill="#FFF1D9" filter="url(#f1garxksvqv3sr)" height="105.2038" id="OperationalState" rx="5" ry="5" style="stroke:#181818;stroke-width:0.5;" width="151" x="661.5" y="191.27"/><rect fill="#FFD080" height="32" rx="5" ry="5" style="stroke:#FFD080;stroke-width:0.5;" width="151" x="661.5" y="191.27"/><rect fill="#FFD080" height="5" style="stroke:#FFD080;stroke-width:0.5;" width="151" x="661.5" y="218.27"/><rect codeLine="113" fill="none" height="105.2038" id="OperationalState" rx="5" ry="5" style="stroke:#181818;stroke-width:0.5;" width="151" x="661.5" y="191.27"/><ellipse cx="678.75" cy="207.27" fill="#ADD1B2" rx="11" ry="11" style="stroke:#181818;stroke-width:1.0;"/><path d="M678.8594,202.8012 Q677.9375,202.8012 677.2031,203.1137 Q676.4844,203.4262 675.9844,204.02 Q675.4844,204.5981 675.2031,205.4731 Q674.9375,206.3481 674.9375,207.4419 Q674.9375,208.8794 675.375,209.9262 Q675.8281,210.9731 676.6719,211.52 Q677.5313,212.0669 678.8438,212.0669 Q679.625,212.0669 680.3125,211.9419 Q681.0156,211.8012 682.0156,211.4887 L682.0156,213.3637 Q681.1563,213.6919 680.3906,213.8169 Q679.6406,213.9419 678.625,213.9419 Q676.7031,213.9419 675.3906,213.145 Q674.0938,212.3325 673.4375,210.8637 Q672.7813,209.3794 672.7813,207.4106 Q672.7813,205.9887 673.1719,204.8169 Q673.5781,203.6294 674.3594,202.7544 Q675.1406,201.8794 676.2813,201.4106 Q677.4219,200.9262 678.8906,200.9262 Q679.8438,200.9262 680.7344,201.1294 Q681.6406,201.3169 682.5781,201.7856 L681.75,203.5669 Q680.9688,203.1919 680.3125,203.0044 Q679.6563,202.8012 678.8594,202.8012 Z " fill="#000000"/><text fill="#000000" font-family="sans-serif" font-size="14" lengthAdjust="spacing" textLength="114" x="693.25" y="212.702">OperationalState</text><line style="stroke:#181818;stroke-width:0.5;" x1="662.5" x2="811.5" y1="223.27" y2="223.27"/><text fill="#000000" font-family="sans-serif" font-size="14" lengthAdjust="spacing" textLength="86" x="667.5" y="242.2359">name: string</text><text fill="#000000" font-family="sans-serif" font-size="14" lengthAdjust="spacing" textLength="124" x="667.5" y="261.3039">description: string</text><text fill="#000000" font-family="sans-serif" font-size="14" lengthAdjust="spacing" textLength="139" x="667.5" y="280.3718">operational: boolean</text><line style="stroke:#181818;stroke-width:0.5;" x1="662.5" x2="811.5" y1="288.4738" y2="288.4738"/></g><!--class Log--><g id="elem_Log"><rect codeLine="119" fill="#FFF1D9" filter="url(#f1garxksvqv3sr)" height="181.4754" id="Log" rx="5" ry="5" style="stroke:#181818;stroke-width:0.5;" width="163" x="408.5" y="1044.51"/><rect fill="#FFD080" height="32" rx="5" ry="5" style="stroke:#FFD080;stroke-width:0.5;" width="163" x="408.5" y="1044.51"/><rect fill="#FFD080" height="5" style="stroke:#FFD080;stroke-width:0.5;" width="163" x="408.5" y="1071.51"/><rect codeLine="119" fill="none" height="181.4754" id="Log" rx="5" ry="5" style="stroke:#181818;stroke-width:0.5;" width="163" x="408.5" y="1044.51"/><ellipse cx="473.75" cy="1060.51" fill="#ADD1B2" rx="11" ry="11" style="stroke:#181818;stroke-width:1.0;"/><path d="M473.8594,1056.0412 Q472.9375,1056.0412 472.2031,1056.3537 Q471.4844,1056.6662 470.9844,1057.26 Q470.4844,1057.8381 470.2031,1058.7131 Q469.9375,1059.5881 469.9375,1060.6819 Q469.9375,1062.1194 470.375,1063.1662 Q470.8281,1064.2131 471.6719,1064.76 Q472.5313,1065.3069 473.8438,1065.3069 Q474.625,1065.3069 475.3125,1065.1819 Q476.0156,1065.0412 477.0156,1064.7287 L477.0156,1066.6037 Q476.1563,1066.9319 475.3906,1067.0569 Q474.6406,1067.1819 473.625,1067.1819 Q471.7031,1067.1819 470.3906,1066.385 Q469.0938,1065.5725 468.4375,1064.1037 Q467.7813,1062.6194 467.7813,1060.6506 Q467.7813,1059.2287 468.1719,1058.0569 Q468.5781,1056.8694 469.3594,1055.9944 Q470.1406,1055.1194 471.2813,1054.6506 Q472.4219,1054.1662 473.8906,1054.1662 Q474.8438,1054.1662 475.7344,1054.3694 Q476.6406,1054.5569 477.5781,1055.0256 L476.75,1056.8069 Q475.9688,1056.4319 475.3125,1056.2444 Q474.6563,1056.0412 473.8594,1056.0412 Z " fill="#000000"/><text fill="#000000" font-family="sans-serif" font-size="14" lengthAdjust="spacing" textLength="24" x="494.25" y="1065.942">Log</text><line style="stroke:#181818;stroke-width:0.5;" x1="409.5" x2="570.5" y1="1076.51" y2="1076.51"/><text fill="#000000" font-family="sans-serif" font-size="14" lengthAdjust="spacing" textLength="151" x="414.5" y="1095.4759">loggable: polymorphic</text><text fill="#000000" font-family="sans-serif" font-size="14" lengthAdjust="spacing" textLength="89" x="414.5" y="1114.5439">action: string</text><text fill="#000000" font-family="sans-serif" font-size="14" lengthAdjust="spacing" textLength="142" x="414.5" y="1133.6118">last_seen: timestamp</text><text fill="#000000" font-family="sans-serif" font-size="14" lengthAdjust="spacing" textLength="79" x="414.5" y="1152.6797">level: string</text><text fill="#000000" font-family="sans-serif" font-size="14" lengthAdjust="spacing" textLength="93" x="414.5" y="1171.7476">message: text</text><text fill="#000000" font-family="sans-serif" font-size="14" lengthAdjust="spacing" textLength="111" x="414.5" y="1190.8155">is_valid: boolean</text><text fill="#000000" font-family="sans-serif" font-size="14" lengthAdjust="spacing" textLength="120" x="414.5" y="1209.8834">condition: integer</text><line style="stroke:#181818;stroke-width:0.5;" x1="409.5" x2="570.5" y1="1217.9854" y2="1217.9854"/></g><!--class Network--><g id="elem_Network"><rect codeLine="129" fill="#FFF1D9" filter="url(#f1garxksvqv3sr)" height="105.2038" id="Network" rx="5" ry="5" style="stroke:#181818;stroke-width:0.5;" width="153" x="231.5" y="191.27"/><rect fill="#FFD080" height="32" rx="5" ry="5" style="stroke:#FFD080;stroke-width:0.5;" width="153" x="231.5" y="191.27"/><rect fill="#FFD080" height="5" style="stroke:#FFD080;stroke-width:0.5;" width="153" x="231.5" y="218.27"/><rect codeLine="129" fill="none" height="105.2038" id="Network" rx="5" ry="5" style="stroke:#181818;stroke-width:0.5;" width="153" x="231.5" y="191.27"/><ellipse cx="275.75" cy="207.27" fill="#ADD1B2" rx="11" ry="11" style="stroke:#181818;stroke-width:1.0;"/><path d="M275.8594,202.8012 Q274.9375,202.8012 274.2031,203.1137 Q273.4844,203.4262 272.9844,204.02 Q272.4844,204.5981 272.2031,205.4731 Q271.9375,206.3481 271.9375,207.4419 Q271.9375,208.8794 272.375,209.9262 Q272.8281,210.9731 273.6719,211.52 Q274.5313,212.0669 275.8438,212.0669 Q276.625,212.0669 277.3125,211.9419 Q278.0156,211.8012 279.0156,211.4887 L279.0156,213.3637 Q278.1563,213.6919 277.3906,213.8169 Q276.6406,213.9419 275.625,213.9419 Q273.7031,213.9419 272.3906,213.145 Q271.0938,212.3325 270.4375,210.8637 Q269.7813,209.3794 269.7813,207.4106 Q269.7813,205.9887 270.1719,204.8169 Q270.5781,203.6294 271.3594,202.7544 Q272.1406,201.8794 273.2813,201.4106 Q274.4219,200.9262 275.8906,200.9262 Q276.8438,200.9262 277.7344,201.1294 Q278.6406,201.3169 279.5781,201.7856 L278.75,203.5669 Q277.9688,203.1919 277.3125,203.0044 Q276.6563,202.8012 275.8594,202.8012 Z " fill="#000000"/><text fill="#000000" font-family="sans-serif" font-size="14" lengthAdjust="spacing" textLength="56" x="296.25" y="212.702">Network</text><line style="stroke:#181818;stroke-width:0.5;" x1="232.5" x2="383.5" y1="223.27" y2="223.27"/><text fill="#000000" font-family="sans-serif" font-size="14" lengthAdjust="spacing" textLength="95" x="237.5" y="242.2359">netzwerk: cidr</text><text fill="#000000" font-family="sans-serif" font-size="14" lengthAdjust="spacing" textLength="141" x="237.5" y="261.3039">description: rich_text</text><text fill="#000000" font-family="sans-serif" font-size="14" lengthAdjust="spacing" textLength="72" x="237.5" y="280.3718">location_id</text><line style="stroke:#181818;stroke-width:0.5;" x1="232.5" x2="383.5" y1="288.4738" y2="288.4738"/></g><ellipse cx="8" cy="243.87" fill="#181818" rx="2" ry="2" style="stroke:#181818;stroke-width:1.0;"/><ellipse cx="371" cy="1135.25" fill="#181818" rx="2" ry="2" style="stroke:#181818;stroke-width:1.0;"/><!--link Network to Location--><g id="link_Network_Location"><path codeLine="135" d="M384.99,243.87 C396.53,243.87 408.06,243.87 419.6,243.87 " fill="none" id="Network-Location" style="stroke:#181818;stroke-width:1.0;"/><text fill="#000000" font-family="sans-serif" font-size="13" lengthAdjust="spacing" textLength="7" x="392.4102" y="240.0158">*</text><text fill="#000000" font-family="sans-serif" font-size="13" lengthAdjust="spacing" textLength="7" x="405.1853" y="239.9271">1</text></g><!--link Location to Connector--><g id="link_Location_Connector"><path codeLine="136" d="M419.9,286.26 C382.14,310.25 340.05,339.07 326,356.47 C291.38,399.35 264.82,452.8 245.06,503.33 " fill="none" id="Location-Connector" style="stroke:#181818;stroke-width:1.0;"/><text fill="#000000" font-family="sans-serif" font-size="13" lengthAdjust="spacing" textLength="7" x="405.0687" y="286.9026">*</text><text fill="#000000" font-family="sans-serif" font-size="13" lengthAdjust="spacing" textLength="7" x="240.2184" y="491.7356">*</text></g><!--link Connector to CardTerminal--><g id="link_Connector_CardTerminal"><path codeLine="138" d="M308.06,670.49 C319.58,670.49 331.11,670.49 342.64,670.49 " fill="none" id="Connector-CardTerminal" style="stroke:#181818;stroke-width:1.0;"/><text fill="#000000" font-family="sans-serif" font-size="13" lengthAdjust="spacing" textLength="20" x="314.9937" y="666.7974">0..1</text><text fill="#000000" font-family="sans-serif" font-size="13" lengthAdjust="spacing" textLength="7" x="328.0328" y="666.7124">*</text></g><!--link Location to CardTerminal--><g id="link_Location_CardTerminal"><path codeLine="139" d="M482.33,287.14 C476.92,327.41 468.35,391.25 459.75,455.31 " fill="none" id="Location-CardTerminal" style="stroke:#181818;stroke-width:1.0;"/><text fill="#000000" font-family="sans-serif" font-size="13" lengthAdjust="spacing" textLength="20" x="460.0285" y="308.6929">0..1</text><text fill="#000000" font-family="sans-serif" font-size="13" lengthAdjust="spacing" textLength="7" x="453.6574" y="444.1812">*</text></g><!--link Context to apoint18--><g id="link_Context_apoint18"><path d="M232.69,85.63 C170.33,102.06 83.27,133.83 28,191.27 C13.08,206.78 8.96,234.65 8.16,241.38 " fill="none" id="Context-apoint18" style="stroke:#181818;stroke-width:1.0;"/><text fill="#000000" font-family="sans-serif" font-size="13" lengthAdjust="spacing" textLength="7" x="217.9321" y="83.3487">*</text></g><!--link apoint18 to Connector--><g id="link_apoint18_Connector"><path d="M8.47,246.16 C10.6,252 19.67,276.63 28,296.47 C56.63,364.64 89.89,438.99 119.29,503.24 " fill="none" id="apoint18-Connector" style="stroke:#181818;stroke-width:1.0;"/><text fill="#000000" font-family="sans-serif" font-size="13" lengthAdjust="spacing" textLength="7" x="108.3564" y="491.6413">*</text></g><!--link apoint18 to ConnectorContext--><g id="link_apoint18_ConnectorContext"><path d="M10.21,243.87 C21.75,243.87 33.29,243.87 44.83,243.87 " fill="none" id="apoint18-ConnectorContext" style="stroke:#181818;stroke-width:1.0;stroke-dasharray:7.0,7.0;"/></g><!--link CardTerminal to Card--><g id="link_CardTerminal_Card"><path codeLine="141" d="M519.21,670.49 C530.69,670.49 542.18,670.49 553.66,670.49 " fill="none" id="CardTerminal-Card" style="stroke:#181818;stroke-width:1.0;"/><text fill="#000000" font-family="sans-serif" font-size="13" lengthAdjust="spacing" textLength="20" x="526.0364" y="666.6692">0..1</text><text fill="#000000" font-family="sans-serif" font-size="13" lengthAdjust="spacing" textLength="7" x="538.9442" y="666.8397">*</text></g><!--link CardTerminal to apoint25--><g id="link_CardTerminal_apoint25"><path d="M403.24,885.6 C388.51,999.17 373.06,1118.33 371.19,1132.78 " fill="none" id="CardTerminal-apoint25" style="stroke:#181818;stroke-width:1.0;"/><text fill="#000000" font-family="sans-serif" font-size="13" lengthAdjust="spacing" textLength="7" x="395.2143" y="906.8458">*</text></g><!--link apoint25 to Workplace--><g id="link_apoint25_Workplace"><path d="M371,1137.47 C371,1148.61 371,1233.11 371,1285.79 " fill="none" id="apoint25-Workplace" style="stroke:#181818;stroke-width:1.0;"/><text fill="#000000" font-family="sans-serif" font-size="13" lengthAdjust="spacing" textLength="7" x="363.4203" y="1274.1731">*</text></g><!--link TerminalWorkplaces to apoint25--><g id="link_TerminalWorkplaces_apoint25"><path d="M333.83,1135.25 C345.44,1135.25 357.06,1135.25 368.68,1135.25 " fill="none" id="TerminalWorkplaces-apoint25" style="stroke:#181818;stroke-width:1.0;stroke-dasharray:7.0,7.0;"/></g><!--link Location to Card--><g id="link_Location_Card"><path codeLine="144" d="M506.39,287.2 C515.39,308.03 526.34,333.53 536,356.47 C541.76,370.15 547.64,384.17 553.56,398.35 " fill="none" id="Location-Card" style="stroke:#181818;stroke-width:1.0;"/><text fill="#000000" font-family="sans-serif" font-size="13" lengthAdjust="spacing" textLength="20" x="487.6223" y="308.7617">0..1</text><text fill="#000000" font-family="sans-serif" font-size="13" lengthAdjust="spacing" textLength="7" x="538.8375" y="376.4153">*</text></g><!--link OperationalState to Card--><g id="link_OperationalState_Card"><path codeLine="145" d="M728.17,296.94 C725.3,313.88 721.87,334.07 718.13,356.17 " fill="none" id="OperationalState-Card" style="stroke:#181818;stroke-width:1.0;"/><text fill="#000000" font-family="sans-serif" font-size="13" lengthAdjust="spacing" textLength="7" x="719.6673" y="318.3837">1</text><text fill="#000000" font-family="sans-serif" font-size="13" lengthAdjust="spacing" textLength="7" x="712.4483" y="344.5015">*</text></g><!--link Context to Card--><g id="link_Context_Card"><path codeLine="146" d="M383.48,84.61 C444.3,100.32 527.14,131.61 574,191.27 C611.26,238.71 634.81,296.87 649.41,356.09 " fill="none" id="Context-Card" style="stroke:#181818;stroke-width:1.0;"/><text fill="#000000" font-family="sans-serif" font-size="13" lengthAdjust="spacing" textLength="7" x="391.0078" y="82.2054">1</text><text fill="#000000" font-family="sans-serif" font-size="13" lengthAdjust="spacing" textLength="7" x="641.9029" y="344.4194">*</text></g><!--link Connector to Log--><g id="link_Connector_Log"><path codeLine="148" d="M249.81,837.75 C269.6,887.33 294.98,940.21 326,984.51 C326.88,985.77 367.56,1022.91 408.19,1059.89 " fill="none" id="Connector-Log" style="stroke:#181818;stroke-width:1.0;"/><text fill="#000000" font-family="sans-serif" font-size="13" lengthAdjust="spacing" textLength="7" x="245.0444" y="859.6272">1</text><text fill="#000000" font-family="sans-serif" font-size="13" lengthAdjust="spacing" textLength="7" x="393.5921" y="1049.3499">*</text></g><!--link CardTerminal to Log--><g id="link_CardTerminal_Log"><path codeLine="149" d="M458.3,885.6 C465.42,941.44 472.71,998.63 478.5,1044.06 " fill="none" id="CardTerminal-Log" style="stroke:#181818;stroke-width:1.0;"/><text fill="#000000" font-family="sans-serif" font-size="13" lengthAdjust="spacing" textLength="7" x="452.0809" y="906.8458">1</text><text fill="#000000" font-family="sans-serif" font-size="13" lengthAdjust="spacing" textLength="7" x="470.2578" y="1032.7309">*</text></g><!--link Card to Log--><g id="link_Card_Log"><path codeLine="150" d="M553.55,966.2 C542.98,994.14 532.92,1020.75 524.05,1044.21 " fill="none" id="Card-Log" style="stroke:#181818;stroke-width:1.0;"/><text fill="#000000" font-family="sans-serif" font-size="13" lengthAdjust="spacing" textLength="7" x="538.8268" y="982.4177">1</text><text fill="#000000" font-family="sans-serif" font-size="13" lengthAdjust="spacing" textLength="7" x="519.6754" y="1032.5833">*</text></g><!--SRC=[bLOzSzim3DtrArXFII_nDQlNhBrsQEywycWIbXbJ94j2JjnU_dj1IPP9oKgJnOa141yF3u3HUOQERHsYQvZI0IHgPwlg4-wX0IQT546nNI3jkgga4J6oHsSjsRd0sD-ACIiQsB28GTkQlYg8CcYVt6nOq7BF4LwG5DflcBQG_XMgqPQtmMJleeeJIIDiAmnllH984RRE6H2M5FVtW_rBG_Q3- -vzPwguG1Bh1YAAnfDEdZFc4S9HIuWRzXITtPAEIa8kzo0FvPkBdBl3p9tIVO7Q8jGGKdmdF0_mkoKp7bj9GMAUzD5RrDnPGnZayfqEpRC8m8yGOkTp0E1rn9jQy1C2GIPCXxZIqHjnUY_mmRaciwFiKKZC9DwqTKsmQLkuCvfIEl4U_VIPgcozDnf2tZW8MkHzquhxu5HRn334f9GQr-hSGJBo453dtPZK997i2qh8JVeGIeMIKj4uZ7a_Xfw3oi6-shd53kJ4eRJ7XdmTQkcQOOe4YoRC6ad8KqkwPqHk9MoEa2HSBL7d517oVZsxSA1sI_X0c3xfF5vHIKy2KlLVl8iJK0hkVMZAKqixS6XoQLuG-X1b-usmEODsGkwJ3snjdOctiR12CD2GaqC1k0_ws4MnEnSQCK-eg7IHTsdDyJtrn1JqIr8y-LocfOmvHHBnKaONFcbB8u4yROp9tkY2EACWy0cUyE9rZrivRrS9wsbv9cpRECjrM1DPjJALkjCoUJr3ajABxVQ92C5bmVTSWnfBD79bN7nMqzgmqpakdc80m2KjaH65aKujlZTB2ZUVXL_duUaNvvMn6M0g4dwj7hlNvwqxUedzBCsX7eUq__h-wRwSh37gzyi8_KWJzD_v6wNPy5ss7c7nEAojkjzOhgx5DhNMEtDgNF1xBTDLbXDttGcC07Po6U48nPscIoTg62-nZlmekhNuvk8Ty_e6cE3homJyymo13gxKtOfVN3JvHY5NPoUhpojsprOFgt5BL-EwxdJttPznHrRd9Rca77xghBwirm-TwsIGNUJC_M1onUPcT7HtlWAtR3tRr5LnwcSX9-fBmYC_gokCNRER_DtTnVgMlPLyDUFXQc8mGZUHvx1TL4I_IG5ptKJs3m00]--></g></svg>