<?xml version="1.0" encoding="us-ascii" standalone="no"?><svg xmlns="http://www.w3.org/2000/svg" xmlns:xlink="http://www.w3.org/1999/xlink" contentStyleType="text/css" height="1386px" preserveAspectRatio="none" style="width:876px;height:1386px;background:#FFFFFF;" version="1.1" viewBox="0 0 876 1386" width="876px" zoomAndPan="magnify"><defs><filter height="300%" id="f4qz1ng0ms9ze" width="300%" x="-1" y="-1"><feGaussianBlur result="blurOut" stdDeviation="2.0"/><feColorMatrix in="blurOut" result="blurOut2" type="matrix" values="0 0 0 0 0 0 0 0 0 0 0 0 0 0 0 0 0 0 .4 0"/><feOffset dx="4.0" dy="4.0" in="blurOut2" result="blurOut3"/><feBlend in="SourceGraphic" in2="blurOut3" mode="normal"/></filter></defs><g><!--class Connector--><g id="elem_Connector"><rect codeLine="5" fill="#FFF1D9" filter="url(#f4qz1ng0ms9ze)" height="410.2904" id="Connector" rx="5" ry="5" style="stroke:#181818;stroke-width:0.5;" width="222" x="135.5" y="465.34"/><rect fill="#FFD080" height="32" rx="5" ry="5" style="stroke:#FFD080;stroke-width:0.5;" width="222" x="135.5" y="465.34"/><rect fill="#FFD080" height="5" style="stroke:#FFD080;stroke-width:0.5;" width="222" x="135.5" y="492.34"/><rect codeLine="5" fill="none" height="410.2904" id="Connector" rx="5" ry="5" style="stroke:#181818;stroke-width:0.5;" width="222" x="135.5" y="465.34"/><ellipse cx="207.75" cy="481.34" fill="#ADD1B2" rx="11" ry="11" style="stroke:#181818;stroke-width:1.0;"/><path d="M207.8594,476.8712 Q206.9375,476.8712 206.2031,477.1837 Q205.4844,477.4962 204.9844,478.09 Q204.4844,478.6681 204.2031,479.5431 Q203.9375,480.4181 203.9375,481.5119 Q203.9375,482.9494 204.375,483.9962 Q204.8281,485.0431 205.6719,485.59 Q206.5313,486.1369 207.8438,486.1369 Q208.625,486.1369 209.3125,486.0119 Q210.0156,485.8712 211.0156,485.5587 L211.0156,487.4337 Q210.1563,487.7619 209.3906,487.8869 Q208.6406,488.0119 207.625,488.0119 Q205.7031,488.0119 204.3906,487.215 Q203.0938,486.4025 202.4375,484.9337 Q201.7813,483.4494 201.7813,481.4806 Q201.7813,480.0587 202.1719,478.8869 Q202.5781,477.6994 203.3594,476.8244 Q204.1406,475.9494 205.2813,475.4806 Q206.4219,474.9962 207.8906,474.9962 Q208.8438,474.9962 209.7344,475.1994 Q210.6406,475.3869 211.5781,475.8556 L210.75,477.6369 Q209.9688,477.2619 209.3125,477.0744 Q208.6563,476.8712 207.8594,476.8712 Z " fill="#000000"/><text fill="#000000" font-family="sans-serif" font-size="14" lengthAdjust="spacing" textLength="69" x="228.25" y="486.772">Connector</text><line style="stroke:#181818;stroke-width:0.5;" x1="136.5" x2="356.5" y1="497.34" y2="497.34"/><text fill="#000000" font-family="sans-serif" font-size="14" lengthAdjust="spacing" textLength="86" x="141.5" y="516.3059">name: string</text><text fill="#000000" font-family="sans-serif" font-size="14" lengthAdjust="spacing" textLength="141" x="141.5" y="535.3739">description: rich_text</text><text fill="#000000" font-family="sans-serif" font-size="14" lengthAdjust="spacing" textLength="47" x="141.5" y="554.4418">ip: inet</text><text fill="#000000" font-family="sans-serif" font-size="14" lengthAdjust="spacing" textLength="116" x="141.5" y="573.5097">admin_url: string</text><text fill="#000000" font-family="sans-serif" font-size="14" lengthAdjust="spacing" textLength="96" x="141.5" y="592.5776">sds_url: string</text><text fill="#000000" font-family="sans-serif" font-size="14" lengthAdjust="spacing" textLength="167" x="141.5" y="611.6455">manual_update: boolean</text><text fill="#000000" font-family="sans-serif" font-size="14" lengthAdjust="spacing" textLength="122" x="141.5" y="630.7134">id_contract: string</text><text fill="#000000" font-family="sans-serif" font-size="14" lengthAdjust="spacing" textLength="85" x="141.5" y="649.7814">serial: string</text><text fill="#000000" font-family="sans-serif" font-size="14" lengthAdjust="spacing" textLength="108" x="141.5" y="668.8493">use_tls: boolean</text><text fill="#000000" font-family="sans-serif" font-size="14" lengthAdjust="spacing" textLength="146" x="141.5" y="687.9172">authentication: string</text><line style="stroke:#181818;stroke-width:1.0;" x1="136.5" x2="356.5" y1="696.0192" y2="696.0192"/><text fill="#000000" font-family="sans-serif" font-size="14" lengthAdjust="spacing" textLength="86" x="141.5" y="714.9851">sds_xml: text</text><text fill="#000000" font-family="sans-serif" font-size="14" lengthAdjust="spacing" textLength="185" x="141.5" y="734.053">sds_updated_at: timestamp</text><text fill="#000000" font-family="sans-serif" font-size="14" lengthAdjust="spacing" textLength="172" x="141.5" y="753.1209">connector_services: jsonb</text><text fill="#000000" font-family="sans-serif" font-size="14" lengthAdjust="spacing" textLength="148" x="141.5" y="772.1889">last_check: timestamp</text><text fill="#000000" font-family="sans-serif" font-size="14" lengthAdjust="spacing" textLength="169" x="141.5" y="791.2568">last_check_ok: timestamp</text><text fill="#000000" font-family="sans-serif" font-size="14" lengthAdjust="spacing" textLength="120" x="141.5" y="810.3247">condition: integer</text><text fill="#000000" font-family="sans-serif" font-size="14" lengthAdjust="spacing" textLength="210" x="141.5" y="829.3926">soap_request_success: boolean</text><text fill="#000000" font-family="sans-serif" font-size="14" lengthAdjust="spacing" textLength="144" x="141.5" y="848.4605">vpnti_online: boolean</text><text fill="#000000" font-family="sans-serif" font-size="14" lengthAdjust="spacing" textLength="164" x="141.5" y="867.5284">firmware_version: string</text></g><!--class CardTerminal--><g id="elem_CardTerminal"><rect codeLine="28" fill="#FFF1D9" filter="url(#f4qz1ng0ms9ze)" height="429.3583" id="CardTerminal" rx="5" ry="5" style="stroke:#181818;stroke-width:0.5;" width="176" x="392.5" y="455.81"/><rect fill="#FFD080" height="32" rx="5" ry="5" style="stroke:#FFD080;stroke-width:0.5;" width="176" x="392.5" y="455.81"/><rect fill="#FFD080" height="5" style="stroke:#FFD080;stroke-width:0.5;" width="176" x="392.5" y="482.81"/><rect codeLine="28" fill="none" height="429.3583" id="CardTerminal" rx="5" ry="5" style="stroke:#181818;stroke-width:0.5;" width="176" x="392.5" y="455.81"/><ellipse cx="430.9" cy="471.81" fill="#ADD1B2" rx="11" ry="11" style="stroke:#181818;stroke-width:1.0;"/><path d="M431.0094,467.3412 Q430.0875,467.3412 429.3531,467.6537 Q428.6344,467.9662 428.1344,468.56 Q427.6344,469.1381 427.3531,470.0131 Q427.0875,470.8881 427.0875,471.9819 Q427.0875,473.4194 427.525,474.4662 Q427.9781,475.5131 428.8219,476.06 Q429.6813,476.6069 430.9938,476.6069 Q431.775,476.6069 432.4625,476.4819 Q433.1656,476.3412 434.1656,476.0287 L434.1656,477.9037 Q433.3063,478.2319 432.5406,478.3569 Q431.7906,478.4819 430.775,478.4819 Q428.8531,478.4819 427.5406,477.685 Q426.2438,476.8725 425.5875,475.4037 Q424.9313,473.9194 424.9313,471.9506 Q424.9313,470.5287 425.3219,469.3569 Q425.7281,468.1694 426.5094,467.2944 Q427.2906,466.4194 428.4313,465.9506 Q429.5719,465.4662 431.0406,465.4662 Q431.9938,465.4662 432.8844,465.6694 Q433.7906,465.8569 434.7281,466.3256 L433.9,468.1069 Q433.1188,467.7319 432.4625,467.5444 Q431.8063,467.3412 431.0094,467.3412 Z " fill="#000000"/><text fill="#000000" font-family="sans-serif" font-size="14" lengthAdjust="spacing" textLength="92" x="450.1" y="477.242">CardTerminal</text><line style="stroke:#181818;stroke-width:0.5;" x1="393.5" x2="567.5" y1="487.81" y2="487.81"/><text fill="#000000" font-family="sans-serif" font-size="14" lengthAdjust="spacing" textLength="134" x="398.5" y="506.7759">displayname: string</text><text fill="#000000" font-family="sans-serif" font-size="14" lengthAdjust="spacing" textLength="141" x="398.5" y="525.8439">description: rich_text</text><text fill="#000000" font-family="sans-serif" font-size="14" lengthAdjust="spacing" textLength="83" x="398.5" y="544.9118">room: string</text><text fill="#000000" font-family="sans-serif" font-size="14" lengthAdjust="spacing" textLength="97" x="398.5" y="563.9797">contact: string</text><text fill="#000000" font-family="sans-serif" font-size="14" lengthAdjust="spacing" textLength="124" x="398.5" y="583.0476">plugged_in: string</text><text fill="#000000" font-family="sans-serif" font-size="14" lengthAdjust="spacing" textLength="127" x="398.5" y="602.1155">delivery_date: date</text><text fill="#000000" font-family="sans-serif" font-size="14" lengthAdjust="spacing" textLength="104" x="398.5" y="621.1834">supplier: string</text><text fill="#000000" font-family="sans-serif" font-size="14" lengthAdjust="spacing" textLength="85" x="398.5" y="640.2514">serial: string</text><text fill="#000000" font-family="sans-serif" font-size="14" lengthAdjust="spacing" textLength="120" x="398.5" y="659.3193">id_product: string</text><text fill="#000000" font-family="sans-serif" font-size="14" lengthAdjust="spacing" textLength="72" x="398.5" y="678.3872">location_id</text><line style="stroke:#181818;stroke-width:1.0;" x1="393.5" x2="567.5" y1="686.4892" y2="686.4892"/><text fill="#000000" font-family="sans-serif" font-size="14" lengthAdjust="spacing" textLength="115" x="398.5" y="705.4551">properties: jsonb</text><text fill="#000000" font-family="sans-serif" font-size="14" lengthAdjust="spacing" textLength="86" x="398.5" y="724.523">name: string</text><text fill="#000000" font-family="sans-serif" font-size="14" lengthAdjust="spacing" textLength="79" x="398.5" y="743.5909">ct_id: string</text><text fill="#000000" font-family="sans-serif" font-size="14" lengthAdjust="spacing" textLength="96" x="398.5" y="762.6589">mac: macaddr</text><text fill="#000000" font-family="sans-serif" font-size="14" lengthAdjust="spacing" textLength="47" x="398.5" y="781.7268">ip: inet</text><text fill="#000000" font-family="sans-serif" font-size="14" lengthAdjust="spacing" textLength="88" x="398.5" y="800.7947">slots: integer</text><text fill="#000000" font-family="sans-serif" font-size="14" lengthAdjust="spacing" textLength="132" x="398.5" y="819.8626">connected: boolean</text><text fill="#000000" font-family="sans-serif" font-size="14" lengthAdjust="spacing" textLength="120" x="398.5" y="838.9305">condition: integer</text><text fill="#000000" font-family="sans-serif" font-size="14" lengthAdjust="spacing" textLength="164" x="398.5" y="857.9984">firmware_version: string</text><text fill="#000000" font-family="sans-serif" font-size="14" lengthAdjust="spacing" textLength="86" x="398.5" y="877.0664">connector_id</text></g><!--class Location--><g id="elem_Location"><rect codeLine="52" fill="#FFF1D9" filter="url(#f4qz1ng0ms9ze)" height="86.1358" id="Location" rx="5" ry="5" style="stroke:#181818;stroke-width:0.5;" width="136" x="469.5" y="200.8"/><rect fill="#FFD080" height="32" rx="5" ry="5" style="stroke:#FFD080;stroke-width:0.5;" width="136" x="469.5" y="200.8"/><rect fill="#FFD080" height="5" style="stroke:#FFD080;stroke-width:0.5;" width="136" x="469.5" y="227.8"/><rect codeLine="52" fill="none" height="86.1358" id="Location" rx="5" ry="5" style="stroke:#181818;stroke-width:0.5;" width="136" x="469.5" y="200.8"/><ellipse cx="506.1" cy="216.8" fill="#ADD1B2" rx="11" ry="11" style="stroke:#181818;stroke-width:1.0;"/><path d="M506.2094,212.3312 Q505.2875,212.3312 504.5531,212.6437 Q503.8344,212.9562 503.3344,213.55 Q502.8344,214.1281 502.5531,215.0031 Q502.2875,215.8781 502.2875,216.9719 Q502.2875,218.4094 502.725,219.4562 Q503.1781,220.5031 504.0219,221.05 Q504.8813,221.5969 506.1938,221.5969 Q506.975,221.5969 507.6625,221.4719 Q508.3656,221.3312 509.3656,221.0187 L509.3656,222.8937 Q508.5063,223.2219 507.7406,223.3469 Q506.9906,223.4719 505.975,223.4719 Q504.0531,223.4719 502.7406,222.675 Q501.4438,221.8625 500.7875,220.3937 Q500.1313,218.9094 500.1313,216.9406 Q500.1313,215.5187 500.5219,214.3469 Q500.9281,213.1594 501.7094,212.2844 Q502.4906,211.4094 503.6313,210.9406 Q504.7719,210.4562 506.2406,210.4562 Q507.1938,210.4562 508.0844,210.6594 Q508.9906,210.8469 509.9281,211.3156 L509.1,213.0969 Q508.3188,212.7219 507.6625,212.5344 Q507.0063,212.3312 506.2094,212.3312 Z " fill="#000000"/><text fill="#000000" font-family="sans-serif" font-size="14" lengthAdjust="spacing" textLength="56" x="524.9" y="222.232">Location</text><line style="stroke:#181818;stroke-width:0.5;" x1="470.5" x2="604.5" y1="232.8" y2="232.8"/><text fill="#000000" font-family="sans-serif" font-size="14" lengthAdjust="spacing" textLength="65" x="475.5" y="251.7659">lid: string</text><text fill="#000000" font-family="sans-serif" font-size="14" lengthAdjust="spacing" textLength="124" x="475.5" y="270.8339">description: string</text><line style="stroke:#181818;stroke-width:0.5;" x1="470.5" x2="604.5" y1="278.9358" y2="278.9358"/></g><!--class Context--><g id="elem_Context"><rect codeLine="57" fill="#FFF1D9" filter="url(#f4qz1ng0ms9ze)" height="124.2717" id="Context" rx="5" ry="5" style="stroke:#181818;stroke-width:0.5;" width="150" x="282.5" y="7"/><rect fill="#FFD080" height="32" rx="5" ry="5" style="stroke:#FFD080;stroke-width:0.5;" width="150" x="282.5" y="7"/><rect fill="#FFD080" height="5" style="stroke:#FFD080;stroke-width:0.5;" width="150" x="282.5" y="34"/><rect codeLine="57" fill="none" height="124.2717" id="Context" rx="5" ry="5" style="stroke:#181818;stroke-width:0.5;" width="150" x="282.5" y="7"/><ellipse cx="327.75" cy="23" fill="#ADD1B2" rx="11" ry="11" style="stroke:#181818;stroke-width:1.0;"/><path d="M327.8594,18.5313 Q326.9375,18.5313 326.2031,18.8438 Q325.4844,19.1563 324.9844,19.75 Q324.4844,20.3281 324.2031,21.2031 Q323.9375,22.0781 323.9375,23.1719 Q323.9375,24.6094 324.375,25.6563 Q324.8281,26.7031 325.6719,27.25 Q326.5313,27.7969 327.8438,27.7969 Q328.625,27.7969 329.3125,27.6719 Q330.0156,27.5313 331.0156,27.2188 L331.0156,29.0938 Q330.1563,29.4219 329.3906,29.5469 Q328.6406,29.6719 327.625,29.6719 Q325.7031,29.6719 324.3906,28.875 Q323.0938,28.0625 322.4375,26.5938 Q321.7813,25.1094 321.7813,23.1406 Q321.7813,21.7188 322.1719,20.5469 Q322.5781,19.3594 323.3594,18.4844 Q324.1406,17.6094 325.2813,17.1406 Q326.4219,16.6563 327.8906,16.6563 Q328.8438,16.6563 329.7344,16.8594 Q330.6406,17.0469 331.5781,17.5156 L330.75,19.2969 Q329.9688,18.9219 329.3125,18.7344 Q328.6563,18.5313 327.8594,18.5313 Z " fill="#000000"/><text fill="#000000" font-family="sans-serif" font-size="14" lengthAdjust="spacing" textLength="51" x="348.25" y="28.432">Context</text><line style="stroke:#181818;stroke-width:0.5;" x1="283.5" x2="431.5" y1="39" y2="39"/><text fill="#000000" font-family="sans-serif" font-size="14" lengthAdjust="spacing" textLength="109" x="288.5" y="57.9659">mandant: string</text><text fill="#000000" font-family="sans-serif" font-size="14" lengthAdjust="spacing" textLength="138" x="288.5" y="77.0339">client_system: string</text><text fill="#000000" font-family="sans-serif" font-size="14" lengthAdjust="spacing" textLength="116" x="288.5" y="96.1018">workplace: string</text><text fill="#000000" font-family="sans-serif" font-size="14" lengthAdjust="spacing" textLength="124" x="288.5" y="115.1697">description: string</text><line style="stroke:#181818;stroke-width:0.5;" x1="283.5" x2="431.5" y1="123.2717" y2="123.2717"/></g><!--class ConnectorContext--><g id="elem_ConnectorContext"><rect codeLine="64" fill="#FFF1D9" filter="url(#f4qz1ng0ms9ze)" height="105.2038" id="ConnectorContext" rx="5" ry="5" style="stroke:#181818;stroke-width:0.5;" width="152" x="94.5" y="191.27"/><rect fill="#FFD080" height="32" rx="5" ry="5" style="stroke:#FFD080;stroke-width:0.5;" width="152" x="94.5" y="191.27"/><rect fill="#FFD080" height="5" style="stroke:#FFD080;stroke-width:0.5;" width="152" x="94.5" y="218.27"/><rect codeLine="64" fill="none" height="105.2038" id="ConnectorContext" rx="5" ry="5" style="stroke:#181818;stroke-width:0.5;" width="152" x="94.5" y="191.27"/><ellipse cx="109.5" cy="207.27" fill="#ADD1B2" rx="11" ry="11" style="stroke:#181818;stroke-width:1.0;"/><path d="M109.6094,202.8012 Q108.6875,202.8012 107.9531,203.1137 Q107.2344,203.4262 106.7344,204.02 Q106.2344,204.5981 105.9531,205.4731 Q105.6875,206.3481 105.6875,207.4419 Q105.6875,208.8794 106.125,209.9262 Q106.5781,210.9731 107.4219,211.52 Q108.2813,212.0669 109.5938,212.0669 Q110.375,212.0669 111.0625,211.9419 Q111.7656,211.8012 112.7656,211.4887 L112.7656,213.3637 Q111.9063,213.6919 111.1406,213.8169 Q110.3906,213.9419 109.375,213.9419 Q107.4531,213.9419 106.1406,213.145 Q104.8438,212.3325 104.1875,210.8637 Q103.5313,209.3794 103.5313,207.4106 Q103.5313,205.9887 103.9219,204.8169 Q104.3281,203.6294 105.1094,202.7544 Q105.8906,201.8794 107.0313,201.4106 Q108.1719,200.9262 109.6406,200.9262 Q110.5938,200.9262 111.4844,201.1294 Q112.3906,201.3169 113.3281,201.7856 L112.5,203.5669 Q111.7188,203.1919 111.0625,203.0044 Q110.4063,202.8012 109.6094,202.8012 Z " fill="#000000"/><text fill="#000000" font-family="sans-serif" font-size="14" lengthAdjust="spacing" textLength="120" x="123.5" y="212.702">ConnectorContext</text><line style="stroke:#181818;stroke-width:0.5;" x1="95.5" x2="245.5" y1="223.27" y2="223.27"/><text fill="#000000" font-family="sans-serif" font-size="14" lengthAdjust="spacing" textLength="86" x="100.5" y="242.2359">connector_id</text><text fill="#000000" font-family="sans-serif" font-size="14" lengthAdjust="spacing" textLength="68" x="100.5" y="261.3039">context_id</text><text fill="#000000" font-family="sans-serif" font-size="14" lengthAdjust="spacing" textLength="111" x="100.5" y="280.3718">position: integer</text><line style="stroke:#181818;stroke-width:0.5;" x1="95.5" x2="245.5" y1="288.4738" y2="288.4738"/></g><!--class Card--><g id="elem_Card"><rect codeLine="70" fill="#FFF1D9" filter="url(#f4qz1ng0ms9ze)" height="628.0375" id="Card" rx="5" ry="5" style="stroke:#181818;stroke-width:0.5;" width="222" x="603.5" y="356.47"/><rect fill="#FFD080" height="32" rx="5" ry="5" style="stroke:#FFD080;stroke-width:0.5;" width="222" x="603.5" y="356.47"/><rect fill="#FFD080" height="5" style="stroke:#FFD080;stroke-width:0.5;" width="222" x="603.5" y="383.47"/><rect codeLine="70" fill="none" height="628.0375" id="Card" rx="5" ry="5" style="stroke:#181818;stroke-width:0.5;" width="222" x="603.5" y="356.47"/><ellipse cx="694.25" cy="372.47" fill="#ADD1B2" rx="11" ry="11" style="stroke:#181818;stroke-width:1.0;"/><path d="M694.3594,368.0012 Q693.4375,368.0012 692.7031,368.3137 Q691.9844,368.6262 691.4844,369.22 Q690.9844,369.7981 690.7031,370.6731 Q690.4375,371.5481 690.4375,372.6419 Q690.4375,374.0794 690.875,375.1262 Q691.3281,376.1731 692.1719,376.72 Q693.0313,377.2669 694.3438,377.2669 Q695.125,377.2669 695.8125,377.1419 Q696.5156,377.0012 697.5156,376.6887 L697.5156,378.5637 Q696.6563,378.8919 695.8906,379.0169 Q695.1406,379.1419 694.125,379.1419 Q692.2031,379.1419 690.8906,378.345 Q689.5938,377.5325 688.9375,376.0637 Q688.2813,374.5794 688.2813,372.6106 Q688.2813,371.1887 688.6719,370.0169 Q689.0781,368.8294 689.8594,367.9544 Q690.6406,367.0794 691.7813,366.6106 Q692.9219,366.1262 694.3906,366.1262 Q695.3438,366.1262 696.2344,366.3294 Q697.1406,366.5169 698.0781,366.9856 L697.25,368.7669 Q696.4688,368.3919 695.8125,368.2044 Q695.1563,368.0012 694.3594,368.0012 Z " fill="#000000"/><text fill="#000000" font-family="sans-serif" font-size="14" lengthAdjust="spacing" textLength="32" x="714.75" y="377.902">Card</text><line style="stroke:#181818;stroke-width:0.5;" x1="604.5" x2="824.5" y1="388.47" y2="388.47"/><text fill="#000000" font-family="sans-serif" font-size="14" lengthAdjust="spacing" textLength="86" x="609.5" y="407.4359">name: string</text><text fill="#000000" font-family="sans-serif" font-size="14" lengthAdjust="spacing" textLength="141" x="609.5" y="426.5039">description: rich_text</text><text fill="#000000" font-family="sans-serif" font-size="14" lengthAdjust="spacing" textLength="135" x="609.5" y="445.5718">operational_state_id</text><text fill="#000000" font-family="sans-serif" font-size="14" lengthAdjust="spacing" textLength="72" x="609.5" y="464.6397">location_id</text><text fill="#000000" font-family="sans-serif" font-size="14" lengthAdjust="spacing" textLength="75" x="609.5" y="483.7076">lanr: string</text><text fill="#000000" font-family="sans-serif" font-size="14" lengthAdjust="spacing" textLength="135" x="609.5" y="502.7755">fachrichtung: string</text><text fill="#000000" font-family="sans-serif" font-size="14" lengthAdjust="spacing" textLength="79" x="609.5" y="521.8434">bsnr: string</text><text fill="#000000" font-family="sans-serif" font-size="14" lengthAdjust="spacing" textLength="123" x="609.5" y="540.9114">telematikid: string</text><text fill="#000000" font-family="sans-serif" font-size="14" lengthAdjust="spacing" textLength="197" x="609.5" y="559.9793">private_information: rich_text</text><text fill="#000000" font-family="sans-serif" font-size="14" lengthAdjust="spacing" textLength="68" x="609.5" y="579.0472">context_id</text><line style="stroke:#181818;stroke-width:1.0;" x1="604.5" x2="824.5" y1="587.1492" y2="587.1492"/><text fill="#000000" font-family="sans-serif" font-size="14" lengthAdjust="spacing" textLength="115" x="609.5" y="606.1151">properties: jsonb</text><text fill="#000000" font-family="sans-serif" font-size="14" lengthAdjust="spacing" textLength="131" x="609.5" y="625.183">card_handle: string</text><text fill="#000000" font-family="sans-serif" font-size="14" lengthAdjust="spacing" textLength="113" x="609.5" y="644.2509">card_type: string</text><text fill="#000000" font-family="sans-serif" font-size="14" lengthAdjust="spacing" textLength="82" x="609.5" y="663.3189">iccsn: string</text><text fill="#000000" font-family="sans-serif" font-size="14" lengthAdjust="spacing" textLength="94" x="609.5" y="682.3868">slotid: integer</text><text fill="#000000" font-family="sans-serif" font-size="14" lengthAdjust="spacing" textLength="155" x="609.5" y="701.4547">insert_time: timestamp</text><text fill="#000000" font-family="sans-serif" font-size="14" lengthAdjust="spacing" textLength="172" x="609.5" y="720.5226">card_holder_name: string</text><text fill="#000000" font-family="sans-serif" font-size="14" lengthAdjust="spacing" textLength="142" x="609.5" y="739.5905">expiration_date: date</text><text fill="#000000" font-family="sans-serif" font-size="14" lengthAdjust="spacing" textLength="120" x="609.5" y="758.6584">condition: integer</text><text fill="#000000" font-family="sans-serif" font-size="14" lengthAdjust="spacing" textLength="117" x="609.5" y="777.7264">pin_status: string</text><text fill="#000000" font-family="sans-serif" font-size="14" lengthAdjust="spacing" textLength="112" x="609.5" y="796.7943">card_terminal_id</text><line style="stroke:#181818;stroke-width:1.0;" x1="604.5" x2="824.5" y1="804.8963" y2="804.8963"/><text fill="#000000" font-family="sans-serif" font-size="14" lengthAdjust="spacing" textLength="96" x="609.5" y="823.8622">certificate:text</text><text fill="#000000" font-family="sans-serif" font-size="14" lengthAdjust="spacing" textLength="151" x="609.5" y="842.9301">cert_subject_cn: string</text><text fill="#000000" font-family="sans-serif" font-size="14" lengthAdjust="spacing" textLength="161" x="609.5" y="861.998">cert_subject_title: string</text><text fill="#000000" font-family="sans-serif" font-size="14" lengthAdjust="spacing" textLength="151" x="609.5" y="881.0659">cert_subject_sn: string</text><text fill="#000000" font-family="sans-serif" font-size="14" lengthAdjust="spacing" textLength="210" x="609.5" y="900.1339">cert_subject_givenname: string</text><text fill="#000000" font-family="sans-serif" font-size="14" lengthAdjust="spacing" textLength="174" x="609.5" y="919.2018">cert_subject_street: string</text><text fill="#000000" font-family="sans-serif" font-size="14" lengthAdjust="spacing" textLength="208" x="609.5" y="938.2697">cert_subject_postalcode: string</text><text fill="#000000" font-family="sans-serif" font-size="14" lengthAdjust="spacing" textLength="139" x="609.5" y="957.3376">cert_subject_l: string</text><text fill="#000000" font-family="sans-serif" font-size="14" lengthAdjust="spacing" textLength="143" x="609.5" y="976.4055">cert_subject_o: string</text></g><!--class Workplace--><g id="elem_Workplace"><rect codeLine="105" fill="#FFF1D9" filter="url(#f4qz1ng0ms9ze)" height="86.1358" id="Workplace" rx="5" ry="5" style="stroke:#181818;stroke-width:0.5;" width="136" x="531.5" y="1285.98"/><rect fill="#FFD080" height="32" rx="5" ry="5" style="stroke:#FFD080;stroke-width:0.5;" width="136" x="531.5" y="1285.98"/><rect fill="#FFD080" height="5" style="stroke:#FFD080;stroke-width:0.5;" width="136" x="531.5" y="1312.98"/><rect codeLine="105" fill="none" height="86.1358" id="Workplace" rx="5" ry="5" style="stroke:#181818;stroke-width:0.5;" width="136" x="531.5" y="1285.98"/><ellipse cx="561.8" cy="1301.98" fill="#ADD1B2" rx="11" ry="11" style="stroke:#181818;stroke-width:1.0;"/><path d="M561.9094,1297.5112 Q560.9875,1297.5112 560.2531,1297.8237 Q559.5344,1298.1362 559.0344,1298.73 Q558.5344,1299.3081 558.2531,1300.1831 Q557.9875,1301.0581 557.9875,1302.1519 Q557.9875,1303.5894 558.425,1304.6362 Q558.8781,1305.6831 559.7219,1306.23 Q560.5813,1306.7769 561.8938,1306.7769 Q562.675,1306.7769 563.3625,1306.6519 Q564.0656,1306.5112 565.0656,1306.1987 L565.0656,1308.0737 Q564.2063,1308.4019 563.4406,1308.5269 Q562.6906,1308.6519 561.675,1308.6519 Q559.7531,1308.6519 558.4406,1307.855 Q557.1438,1307.0425 556.4875,1305.5737 Q555.8313,1304.0894 555.8313,1302.1206 Q555.8313,1300.6987 556.2219,1299.5269 Q556.6281,1298.3394 557.4094,1297.4644 Q558.1906,1296.5894 559.3313,1296.1206 Q560.4719,1295.6362 561.9406,1295.6362 Q562.8938,1295.6362 563.7844,1295.8394 Q564.6906,1296.0269 565.6281,1296.4956 L564.8,1298.2769 Q564.0188,1297.9019 563.3625,1297.7144 Q562.7063,1297.5112 561.9094,1297.5112 Z " fill="#000000"/><text fill="#000000" font-family="sans-serif" font-size="14" lengthAdjust="spacing" textLength="70" x="579.2" y="1307.412">Workplace</text><line style="stroke:#181818;stroke-width:0.5;" x1="532.5" x2="666.5" y1="1317.98" y2="1317.98"/><text fill="#000000" font-family="sans-serif" font-size="14" lengthAdjust="spacing" textLength="124" x="537.5" y="1336.9459">description: string</text><line style="stroke:#181818;stroke-width:1.0;" x1="532.5" x2="666.5" y1="1345.0479" y2="1345.0479"/><text fill="#000000" font-family="sans-serif" font-size="14" lengthAdjust="spacing" textLength="86" x="537.5" y="1364.0139">name: string</text></g><!--class TerminalWorkplaces--><g id="elem_TerminalWorkplaces"><rect codeLine="110" fill="#FFF1D9" filter="url(#f4qz1ng0ms9ze)" height="143.3396" id="TerminalWorkplaces" rx="5" ry="5" style="stroke:#181818;stroke-width:0.5;" width="169" x="195" y="1063.58"/><rect fill="#FFD080" height="32" rx="5" ry="5" style="stroke:#FFD080;stroke-width:0.5;" width="169" x="195" y="1063.58"/><rect fill="#FFD080" height="5" style="stroke:#FFD080;stroke-width:0.5;" width="169" x="195" y="1090.58"/><rect codeLine="110" fill="none" height="143.3396" id="TerminalWorkplaces" rx="5" ry="5" style="stroke:#181818;stroke-width:0.5;" width="169" x="195" y="1063.58"/><ellipse cx="210" cy="1079.58" fill="#ADD1B2" rx="11" ry="11" style="stroke:#181818;stroke-width:1.0;"/><path d="M210.1094,1075.1113 Q209.1875,1075.1113 208.4531,1075.4238 Q207.7344,1075.7363 207.2344,1076.33 Q206.7344,1076.9081 206.4531,1077.7831 Q206.1875,1078.6581 206.1875,1079.7519 Q206.1875,1081.1894 206.625,1082.2363 Q207.0781,1083.2831 207.9219,1083.83 Q208.7813,1084.3769 210.0938,1084.3769 Q210.875,1084.3769 211.5625,1084.2519 Q212.2656,1084.1113 213.2656,1083.7988 L213.2656,1085.6738 Q212.4063,1086.0019 211.6406,1086.1269 Q210.8906,1086.2519 209.875,1086.2519 Q207.9531,1086.2519 206.6406,1085.455 Q205.3438,1084.6425 204.6875,1083.1738 Q204.0313,1081.6894 204.0313,1079.7206 Q204.0313,1078.2988 204.4219,1077.1269 Q204.8281,1075.9394 205.6094,1075.0644 Q206.3906,1074.1894 207.5313,1073.7206 Q208.6719,1073.2363 210.1406,1073.2363 Q211.0938,1073.2363 211.9844,1073.4394 Q212.8906,1073.6269 213.8281,1074.0956 L213,1075.8769 Q212.2188,1075.5019 211.5625,1075.3144 Q210.9063,1075.1113 210.1094,1075.1113 Z " fill="#000000"/><text fill="#000000" font-family="sans-serif" font-size="14" lengthAdjust="spacing" textLength="137" x="224" y="1085.012">TerminalWorkplaces</text><line style="stroke:#181818;stroke-width:0.5;" x1="196" x2="363" y1="1095.58" y2="1095.58"/><text fill="#000000" font-family="sans-serif" font-size="14" lengthAdjust="spacing" textLength="112" x="201" y="1114.5459">card_terminal_id</text><text fill="#000000" font-family="sans-serif" font-size="14" lengthAdjust="spacing" textLength="87" x="201" y="1133.6139">workplace_id</text><text fill="#000000" font-family="sans-serif" font-size="14" lengthAdjust="spacing" textLength="109" x="201" y="1152.6818">mandant: string</text><text fill="#000000" font-family="sans-serif" font-size="14" lengthAdjust="spacing" textLength="138" x="201" y="1171.7497">client_system: string</text><text fill="#000000" font-family="sans-serif" font-size="14" lengthAdjust="spacing" textLength="76" x="201" y="1190.8176">updated_at</text><line style="stroke:#181818;stroke-width:0.5;" x1="196" x2="363" y1="1198.9196" y2="1198.9196"/></g><!--class OperationalState--><g id="elem_OperationalState"><rect codeLine="117" fill="#FFF1D9" filter="url(#f4qz1ng0ms9ze)" height="105.2038" id="OperationalState" rx="5" ry="5" style="stroke:#181818;stroke-width:0.5;" width="151" x="711" y="191.27"/><rect fill="#FFD080" height="32" rx="5" ry="5" style="stroke:#FFD080;stroke-width:0.5;" width="151" x="711" y="191.27"/><rect fill="#FFD080" height="5" style="stroke:#FFD080;stroke-width:0.5;" width="151" x="711" y="218.27"/><rect codeLine="117" fill="none" height="105.2038" id="OperationalState" rx="5" ry="5" style="stroke:#181818;stroke-width:0.5;" width="151" x="711" y="191.27"/><ellipse cx="728.25" cy="207.27" fill="#ADD1B2" rx="11" ry="11" style="stroke:#181818;stroke-width:1.0;"/><path d="M728.3594,202.8012 Q727.4375,202.8012 726.7031,203.1137 Q725.9844,203.4262 725.4844,204.02 Q724.9844,204.5981 724.7031,205.4731 Q724.4375,206.3481 724.4375,207.4419 Q724.4375,208.8794 724.875,209.9262 Q725.3281,210.9731 726.1719,211.52 Q727.0313,212.0669 728.3438,212.0669 Q729.125,212.0669 729.8125,211.9419 Q730.5156,211.8012 731.5156,211.4887 L731.5156,213.3637 Q730.6563,213.6919 729.8906,213.8169 Q729.1406,213.9419 728.125,213.9419 Q726.2031,213.9419 724.8906,213.145 Q723.5938,212.3325 722.9375,210.8637 Q722.2813,209.3794 722.2813,207.4106 Q722.2813,205.9887 722.6719,204.8169 Q723.0781,203.6294 723.8594,202.7544 Q724.6406,201.8794 725.7813,201.4106 Q726.9219,200.9262 728.3906,200.9262 Q729.3438,200.9262 730.2344,201.1294 Q731.1406,201.3169 732.0781,201.7856 L731.25,203.5669 Q730.4688,203.1919 729.8125,203.0044 Q729.1563,202.8012 728.3594,202.8012 Z " fill="#000000"/><text fill="#000000" font-family="sans-serif" font-size="14" lengthAdjust="spacing" textLength="114" x="742.75" y="212.702">OperationalState</text><line style="stroke:#181818;stroke-width:0.5;" x1="712" x2="861" y1="223.27" y2="223.27"/><text fill="#000000" font-family="sans-serif" font-size="14" lengthAdjust="spacing" textLength="86" x="717" y="242.2359">name: string</text><text fill="#000000" font-family="sans-serif" font-size="14" lengthAdjust="spacing" textLength="124" x="717" y="261.3039">description: string</text><text fill="#000000" font-family="sans-serif" font-size="14" lengthAdjust="spacing" textLength="139" x="717" y="280.3718">operational: boolean</text><line style="stroke:#181818;stroke-width:0.5;" x1="712" x2="861" y1="288.4738" y2="288.4738"/></g><!--class Log--><g id="elem_Log"><rect codeLine="123" fill="#FFF1D9" filter="url(#f4qz1ng0ms9ze)" height="181.4754" id="Log" rx="5" ry="5" style="stroke:#181818;stroke-width:0.5;" width="163" x="399" y="1044.51"/><rect fill="#FFD080" height="32" rx="5" ry="5" style="stroke:#FFD080;stroke-width:0.5;" width="163" x="399" y="1044.51"/><rect fill="#FFD080" height="5" style="stroke:#FFD080;stroke-width:0.5;" width="163" x="399" y="1071.51"/><rect codeLine="123" fill="none" height="181.4754" id="Log" rx="5" ry="5" style="stroke:#181818;stroke-width:0.5;" width="163" x="399" y="1044.51"/><ellipse cx="464.25" cy="1060.51" fill="#ADD1B2" rx="11" ry="11" style="stroke:#181818;stroke-width:1.0;"/><path d="M464.3594,1056.0412 Q463.4375,1056.0412 462.7031,1056.3537 Q461.9844,1056.6662 461.4844,1057.26 Q460.9844,1057.8381 460.7031,1058.7131 Q460.4375,1059.5881 460.4375,1060.6819 Q460.4375,1062.1194 460.875,1063.1662 Q461.3281,1064.2131 462.1719,1064.76 Q463.0313,1065.3069 464.3438,1065.3069 Q465.125,1065.3069 465.8125,1065.1819 Q466.5156,1065.0412 467.5156,1064.7287 L467.5156,1066.6037 Q466.6563,1066.9319 465.8906,1067.0569 Q465.1406,1067.1819 464.125,1067.1819 Q462.2031,1067.1819 460.8906,1066.385 Q459.5938,1065.5725 458.9375,1064.1037 Q458.2813,1062.6194 458.2813,1060.6506 Q458.2813,1059.2287 458.6719,1058.0569 Q459.0781,1056.8694 459.8594,1055.9944 Q460.6406,1055.1194 461.7813,1054.6506 Q462.9219,1054.1662 464.3906,1054.1662 Q465.3438,1054.1662 466.2344,1054.3694 Q467.1406,1054.5569 468.0781,1055.0256 L467.25,1056.8069 Q466.4688,1056.4319 465.8125,1056.2444 Q465.1563,1056.0412 464.3594,1056.0412 Z " fill="#000000"/><text fill="#000000" font-family="sans-serif" font-size="14" lengthAdjust="spacing" textLength="24" x="484.75" y="1065.942">Log</text><line style="stroke:#181818;stroke-width:0.5;" x1="400" x2="561" y1="1076.51" y2="1076.51"/><text fill="#000000" font-family="sans-serif" font-size="14" lengthAdjust="spacing" textLength="151" x="405" y="1095.4759">loggable: polymorphic</text><text fill="#000000" font-family="sans-serif" font-size="14" lengthAdjust="spacing" textLength="89" x="405" y="1114.5439">action: string</text><text fill="#000000" font-family="sans-serif" font-size="14" lengthAdjust="spacing" textLength="142" x="405" y="1133.6118">last_seen: timestamp</text><text fill="#000000" font-family="sans-serif" font-size="14" lengthAdjust="spacing" textLength="79" x="405" y="1152.6797">level: string</text><text fill="#000000" font-family="sans-serif" font-size="14" lengthAdjust="spacing" textLength="93" x="405" y="1171.7476">message: text</text><text fill="#000000" font-family="sans-serif" font-size="14" lengthAdjust="spacing" textLength="111" x="405" y="1190.8155">is_valid: boolean</text><text fill="#000000" font-family="sans-serif" font-size="14" lengthAdjust="spacing" textLength="120" x="405" y="1209.8834">condition: integer</text><line style="stroke:#181818;stroke-width:0.5;" x1="400" x2="561" y1="1217.9854" y2="1217.9854"/></g><!--class Network--><g id="elem_Network"><rect codeLine="133" fill="#FFF1D9" filter="url(#f4qz1ng0ms9ze)" height="105.2038" id="Network" rx="5" ry="5" style="stroke:#181818;stroke-width:0.5;" width="153" x="281" y="191.27"/><rect fill="#FFD080" height="32" rx="5" ry="5" style="stroke:#FFD080;stroke-width:0.5;" width="153" x="281" y="191.27"/><rect fill="#FFD080" height="5" style="stroke:#FFD080;stroke-width:0.5;" width="153" x="281" y="218.27"/><rect codeLine="133" fill="none" height="105.2038" id="Network" rx="5" ry="5" style="stroke:#181818;stroke-width:0.5;" width="153" x="281" y="191.27"/><ellipse cx="325.25" cy="207.27" fill="#ADD1B2" rx="11" ry="11" style="stroke:#181818;stroke-width:1.0;"/><path d="M325.3594,202.8012 Q324.4375,202.8012 323.7031,203.1137 Q322.9844,203.4262 322.4844,204.02 Q321.9844,204.5981 321.7031,205.4731 Q321.4375,206.3481 321.4375,207.4419 Q321.4375,208.8794 321.875,209.9262 Q322.3281,210.9731 323.1719,211.52 Q324.0313,212.0669 325.3438,212.0669 Q326.125,212.0669 326.8125,211.9419 Q327.5156,211.8012 328.5156,211.4887 L328.5156,213.3637 Q327.6563,213.6919 326.8906,213.8169 Q326.1406,213.9419 325.125,213.9419 Q323.2031,213.9419 321.8906,213.145 Q320.5938,212.3325 319.9375,210.8637 Q319.2813,209.3794 319.2813,207.4106 Q319.2813,205.9887 319.6719,204.8169 Q320.0781,203.6294 320.8594,202.7544 Q321.6406,201.8794 322.7813,201.4106 Q323.9219,200.9262 325.3906,200.9262 Q326.3438,200.9262 327.2344,201.1294 Q328.1406,201.3169 329.0781,201.7856 L328.25,203.5669 Q327.4688,203.1919 326.8125,203.0044 Q326.1563,202.8012 325.3594,202.8012 Z " fill="#000000"/><text fill="#000000" font-family="sans-serif" font-size="14" lengthAdjust="spacing" textLength="56" x="345.75" y="212.702">Network</text><line style="stroke:#181818;stroke-width:0.5;" x1="282" x2="433" y1="223.27" y2="223.27"/><text fill="#000000" font-family="sans-serif" font-size="14" lengthAdjust="spacing" textLength="95" x="287" y="242.2359">netzwerk: cidr</text><text fill="#000000" font-family="sans-serif" font-size="14" lengthAdjust="spacing" textLength="141" x="287" y="261.3039">description: rich_text</text><text fill="#000000" font-family="sans-serif" font-size="14" lengthAdjust="spacing" textLength="72" x="287" y="280.3718">location_id</text><line style="stroke:#181818;stroke-width:0.5;" x1="282" x2="433" y1="288.4738" y2="288.4738"/></g><!--class ClientCertificate--><g id="elem_ClientCertificate"><rect codeLine="139" fill="#FFF1D9" filter="url(#f4qz1ng0ms9ze)" height="162.4075" id="ClientCertificate" rx="5" ry="5" style="stroke:#181818;stroke-width:0.5;" width="153" x="7" y="1054.04"/><rect fill="#FFD080" height="32" rx="5" ry="5" style="stroke:#FFD080;stroke-width:0.5;" width="153" x="7" y="1054.04"/><rect fill="#FFD080" height="5" style="stroke:#FFD080;stroke-width:0.5;" width="153" x="7" y="1081.04"/><rect codeLine="139" fill="none" height="162.4075" id="ClientCertificate" rx="5" ry="5" style="stroke:#181818;stroke-width:0.5;" width="153" x="7" y="1054.04"/><ellipse cx="27.85" cy="1070.04" fill="#ADD1B2" rx="11" ry="11" style="stroke:#181818;stroke-width:1.0;"/><path d="M27.9594,1065.5713 Q27.0375,1065.5713 26.3031,1065.8838 Q25.5844,1066.1963 25.0844,1066.79 Q24.5844,1067.3681 24.3031,1068.2431 Q24.0375,1069.1181 24.0375,1070.2119 Q24.0375,1071.6494 24.475,1072.6963 Q24.9281,1073.7431 25.7719,1074.29 Q26.6313,1074.8369 27.9438,1074.8369 Q28.725,1074.8369 29.4125,1074.7119 Q30.1156,1074.5713 31.1156,1074.2588 L31.1156,1076.1338 Q30.2563,1076.4619 29.4906,1076.5869 Q28.7406,1076.7119 27.725,1076.7119 Q25.8031,1076.7119 24.4906,1075.915 Q23.1938,1075.1025 22.5375,1073.6338 Q21.8813,1072.1494 21.8813,1070.1806 Q21.8813,1068.7588 22.2719,1067.5869 Q22.6781,1066.3994 23.4594,1065.5244 Q24.2406,1064.6494 25.3813,1064.1806 Q26.5219,1063.6963 27.9906,1063.6963 Q28.9438,1063.6963 29.8344,1063.8994 Q30.7406,1064.0869 31.6781,1064.5556 L30.85,1066.3369 Q30.0688,1065.9619 29.4125,1065.7744 Q28.7563,1065.5713 27.9594,1065.5713 Z " fill="#000000"/><text fill="#000000" font-family="sans-serif" font-size="14" lengthAdjust="spacing" textLength="108" x="43.15" y="1075.472">ClientCertificate</text><line style="stroke:#181818;stroke-width:0.5;" x1="8" x2="159" y1="1086.04" y2="1086.04"/><text fill="#000000" font-family="sans-serif" font-size="14" lengthAdjust="spacing" textLength="86" x="13" y="1105.0059">name: string</text><text fill="#000000" font-family="sans-serif" font-size="14" lengthAdjust="spacing" textLength="141" x="13" y="1124.0739">description: rich_text</text><text fill="#000000" font-family="sans-serif" font-size="14" lengthAdjust="spacing" textLength="59" x="13" y="1143.1418">cert: text</text><text fill="#000000" font-family="sans-serif" font-size="14" lengthAdjust="spacing" textLength="64" x="13" y="1162.2097">pkey: text</text><text fill="#000000" font-family="sans-serif" font-size="14" lengthAdjust="spacing" textLength="126" x="13" y="1181.2776">passphrase: string</text><line style="stroke:#181818;stroke-width:0.5;" x1="8" x2="159" y1="1189.3796" y2="1189.3796"/><text fill="#000000" font-family="sans-serif" font-size="14" lengthAdjust="spacing" textLength="45" x="13" y="1208.3455">client()</text></g><ellipse cx="57.5" cy="243.87" fill="#181818" rx="2" ry="2" style="stroke:#181818;stroke-width:1.0;"/><ellipse cx="599.5" cy="1135.25" fill="#181818" rx="2" ry="2" style="stroke:#181818;stroke-width:1.0;"/><!--link Network to Location--><g id="link_Network_Location"><path codeLine="148" d="M434.49,243.87 C446.03,243.87 457.56,243.87 469.1,243.87 " fill="none" id="Network-Location" style="stroke:#181818;stroke-width:1.0;"/><text fill="#000000" font-family="sans-serif" font-size="13" lengthAdjust="spacing" textLength="7" x="441.9102" y="240.0158">*</text><text fill="#000000" font-family="sans-serif" font-size="13" lengthAdjust="spacing" textLength="7" x="454.6853" y="239.9271">1</text></g><!--link Location to Connector--><g id="link_Location_Connector"><path codeLine="149" d="M469.4,286.26 C431.64,310.25 389.55,339.07 375.5,356.47 C349.56,388.6 328.14,426.66 310.72,464.99 " fill="none" id="Location-Connector" style="stroke:#181818;stroke-width:1.0;"/><text fill="#000000" font-family="sans-serif" font-size="13" lengthAdjust="spacing" textLength="7" x="454.5687" y="286.9026">*</text><text fill="#000000" font-family="sans-serif" font-size="13" lengthAdjust="spacing" textLength="7" x="306.0919" y="453.5416">*</text></g><!--link Connector to CardTerminal--><g id="link_Connector_CardTerminal"><path codeLine="151" d="M357.56,670.49 C369.08,670.49 380.61,670.49 392.14,670.49 " fill="none" id="Connector-CardTerminal" style="stroke:#181818;stroke-width:1.0;"/><text fill="#000000" font-family="sans-serif" font-size="13" lengthAdjust="spacing" textLength="20" x="364.4937" y="666.7977">0..1</text><text fill="#000000" font-family="sans-serif" font-size="13" lengthAdjust="spacing" textLength="7" x="377.5328" y="666.7124">*</text></g><!--link Location to CardTerminal--><g id="link_Location_CardTerminal"><path codeLine="152" d="M531.83,287.14 C526.42,327.41 517.85,391.25 509.25,455.31 " fill="none" id="Location-CardTerminal" style="stroke:#181818;stroke-width:1.0;"/><text fill="#000000" font-family="sans-serif" font-size="13" lengthAdjust="spacing" textLength="20" x="509.5285" y="308.6929">0..1</text><text fill="#000000" font-family="sans-serif" font-size="13" lengthAdjust="spacing" textLength="7" x="503.1574" y="444.1812">*</text></g><!--link Context to apoint19--><g id="link_Context_apoint19"><path d="M282.19,85.63 C219.83,102.06 132.77,133.83 77.5,191.27 C62.58,206.78 58.46,234.65 57.66,241.38 " fill="none" id="Context-apoint19" style="stroke:#181818;stroke-width:1.0;"/><text fill="#000000" font-family="sans-serif" font-size="13" lengthAdjust="spacing" textLength="7" x="267.4321" y="83.3487">*</text></g><!--link apoint19 to Connector--><g id="link_apoint19_Connector"><path d="M57.97,246.16 C60.1,252 69.17,276.63 77.5,296.47 C100.62,351.53 126.77,410.62 151.46,465.17 " fill="none" id="apoint19-Connector" style="stroke:#181818;stroke-width:1.0;"/><text fill="#000000" font-family="sans-serif" font-size="13" lengthAdjust="spacing" textLength="7" x="140.6108" y="453.7286">*</text></g><!--link apoint19 to ConnectorContext--><g id="link_apoint19_ConnectorContext"><path d="M59.71,243.87 C71.25,243.87 82.79,243.87 94.33,243.87 " fill="none" id="apoint19-ConnectorContext" style="stroke:#181818;stroke-width:1.0;stroke-dasharray:7.0,7.0;"/></g><!--link CardTerminal to Card--><g id="link_CardTerminal_Card"><path codeLine="154" d="M568.71,670.49 C580.19,670.49 591.68,670.49 603.16,670.49 " fill="none" id="CardTerminal-Card" style="stroke:#181818;stroke-width:1.0;"/><text fill="#000000" font-family="sans-serif" font-size="13" lengthAdjust="spacing" textLength="20" x="575.5364" y="666.6692">0..1</text><text fill="#000000" font-family="sans-serif" font-size="13" lengthAdjust="spacing" textLength="7" x="588.4442" y="666.8397">*</text></g><!--link CardTerminal to apoint26--><g id="link_CardTerminal_apoint26"><path d="M538.91,885.63 C552.63,937.53 566.91,992.92 579.5,1044.51 C588.28,1080.48 597.57,1124.95 599.24,1132.98 " fill="none" id="CardTerminal-apoint26" style="stroke:#181818;stroke-width:1.0;"/><text fill="#000000" font-family="sans-serif" font-size="13" lengthAdjust="spacing" textLength="7" x="533.7117" y="906.8768">*</text></g><!--link apoint26 to Workplace--><g id="link_apoint26_Workplace"><path d="M599.5,1137.47 C599.5,1148.61 599.5,1233.11 599.5,1285.79 " fill="none" id="apoint26-Workplace" style="stroke:#181818;stroke-width:1.0;"/><text fill="#000000" font-family="sans-serif" font-size="13" lengthAdjust="spacing" textLength="7" x="591.9203" y="1274.1731">*</text></g><!--link TerminalWorkplaces to apoint26--><g id="link_TerminalWorkplaces_apoint26"><path d="M332.66,1063.26 C351.24,1043.69 373.82,1025.01 399,1014.51 C465.86,986.61 499.18,978.43 562,1014.51 C606.16,1039.87 601.08,1118.42 599.74,1132.93 " fill="none" id="TerminalWorkplaces-apoint26" style="stroke:#181818;stroke-width:1.0;stroke-dasharray:7.0,7.0;"/></g><!--link Location to Card--><g id="link_Location_Card"><path codeLine="157" d="M555.89,287.2 C564.89,308.03 575.84,333.53 585.5,356.47 C591.26,370.15 597.14,384.17 603.06,398.35 " fill="none" id="Location-Card" style="stroke:#181818;stroke-width:1.0;"/><text fill="#000000" font-family="sans-serif" font-size="13" lengthAdjust="spacing" textLength="20" x="537.1223" y="308.7617">0..1</text><text fill="#000000" font-family="sans-serif" font-size="13" lengthAdjust="spacing" textLength="7" x="588.3375" y="376.4153">*</text></g><!--link OperationalState to Card--><g id="link_OperationalState_Card"><path codeLine="158" d="M777.67,296.94 C774.8,313.88 771.37,334.07 767.63,356.17 " fill="none" id="OperationalState-Card" style="stroke:#181818;stroke-width:1.0;"/><text fill="#000000" font-family="sans-serif" font-size="13" lengthAdjust="spacing" textLength="7" x="769.1673" y="318.3837">1</text><text fill="#000000" font-family="sans-serif" font-size="13" lengthAdjust="spacing" textLength="7" x="761.9483" y="344.5015">*</text></g><!--link Context to Card--><g id="link_Context_Card"><path codeLine="159" d="M432.98,84.61 C493.8,100.32 576.64,131.61 623.5,191.27 C660.76,238.71 684.31,296.87 698.91,356.09 " fill="none" id="Context-Card" style="stroke:#181818;stroke-width:1.0;"/><text fill="#000000" font-family="sans-serif" font-size="13" lengthAdjust="spacing" textLength="7" x="440.5078" y="82.2054">1</text><text fill="#000000" font-family="sans-serif" font-size="13" lengthAdjust="spacing" textLength="7" x="691.4029" y="344.4194">*</text></g><!--link Connector to Log--><g id="link_Connector_Log"><path codeLine="161" d="M323.03,875.77 C338.99,912.64 356.72,950.23 375.5,984.51 C386.41,1004.42 399.41,1024.89 412.49,1044.05 " fill="none" id="Connector-Log" style="stroke:#181818;stroke-width:1.0;"/><text fill="#000000" font-family="sans-serif" font-size="13" lengthAdjust="spacing" textLength="7" x="318.6545" y="897.3626">1</text><text fill="#000000" font-family="sans-serif" font-size="13" lengthAdjust="spacing" textLength="7" x="399.5681" y="1032.72">*</text></g><!--link CardTerminal to Log--><g id="link_CardTerminal_Log"><path codeLine="162" d="M480.5,885.6 C480.5,941.44 480.5,998.63 480.5,1044.06 " fill="none" id="CardTerminal-Log" style="stroke:#181818;stroke-width:1.0;"/><text fill="#000000" font-family="sans-serif" font-size="13" lengthAdjust="spacing" textLength="7" x="473.3852" y="906.8458">1</text><text fill="#000000" font-family="sans-serif" font-size="13" lengthAdjust="spacing" textLength="7" x="473.2102" y="1032.7309">*</text></g><!--link Card to Log--><g id="link_Card_Log"><path codeLine="163" d="M603.16,950.76 C597.4,962.26 591.5,973.55 585.5,984.51 C574.59,1004.42 561.59,1024.89 548.51,1044.05 " fill="none" id="Card-Log" style="stroke:#181818;stroke-width:1.0;"/><text fill="#000000" font-family="sans-serif" font-size="13" lengthAdjust="spacing" textLength="7" x="588.4442" y="965.9404">1</text><text fill="#000000" font-family="sans-serif" font-size="13" lengthAdjust="spacing" textLength="7" x="546.8522" y="1032.72">*</text></g><!--link Connector to ClientCertificate--><g id="link_Connector_ClientCertificate"><path codeLine="165" d="M174.53,875.81 C152.36,938.76 129.23,1004.42 111.83,1053.81 " fill="none" id="Connector-ClientCertificate" style="stroke:#181818;stroke-width:1.0;"/><text fill="#000000" font-family="sans-serif" font-size="13" lengthAdjust="spacing" textLength="7" x="164.8178" y="897.404">*</text><text fill="#000000" font-family="sans-serif" font-size="13" lengthAdjust="spacing" textLength="7" x="107.1966" y="1042.1688">*</text></g><!--SRC=[bLPBa-Cc4BxhLx0-pMpjkB9NNtrDRGv9LOuKXhRC6W61bcUSrFxtD9ACGB9dTowoHJVz-Bv-29rdwDZ18RgEAHr0edQsQJxX2JfWqaaH53i6acwRHXeH8zixQqdF1SR-QnYpeeCTYnYqRUbLGPH1-sHcnuAM9uxmXYJGViUqXVHNg4vRtWTJt8igBauwONjXUE-LGF9mSCw0iCcIuj9P349YQG225kNzFW974ykRegUyB6efnlYoxilB5C9RHoQcY8UG1k-A2tA5keE8elCaapSGEFczQ0davtjqza0oGWcvF84yrtVcS-xEAtDAZp5fYz12IFwTy3p0FpsfyTXBSb9bS_6K2dVM4Apb-L67xbK4u1S8iSppHwQGMFqB0h4Wp42Yqj4RSVrLBeDpNQ6NsAZ9yAPlMu9DsygSqHJIbO-4fcVAilVUQ0ZlKKcC- -1KN_amRgIHQtLZa9Gy1DGb6ukS999-LMLobnv2gL1NQJGEOyd7n3ce4koxp3rae2mS2ZiJylkKoq26gGAiI5WHISWJ9SCrwXSbR8cG95mjbSur8fHylRfm9hebVC3D67JfhyfaB08IZI_UnGKeLUrzQ70aIWTmQ1XGlo2CBchwZR1b1Hs5F2KRsDksE3x4IWl1G4T6pXNWFkZBuCKUNUZ4Eg0gquTrboOdFn4dfYg_T8fNNvvfAMDP8gdmKaHpFMbBBO4yJOp5t1YSEACWy0MUyERrY5lTRtSBrjCyJjZsSHNhD2QAR6LAzPY6AEnkaAJmOd_uJWN1PLNlfGGrrcYKmlZmMajZmoxxkBgA0G0VIQaOKHZfrCFxvf70hNlXxrlpZ8FpJjjCC5K1_sZsm-tRrCrMujXBQwXpauwllzxTyyhANl-OM-ZFr44_xRzyMZJVFFK8Y_qqjjfnOhcs5OT4hNVcshdWJrgcVIiNveOL607iOZF21QhLJvjEj90tiOxy8eQn-ExWpN5z0qpmZMa2_liAWHQkrCE8VpXeoecIJUq7bFTpoNzeTgLYobduCrpd5pBkJq54M57wz9pSttBOVDwm5xRvkibBeidROf2z33zvH3Ut6Vr8E7syRNxRRhyEffD2yK5Gc9zKxkWyPKDVRalecMrNYwAflZHMBXVYEU3S7isTXjcof_BUbrdxcRqNVBDgWyr28KEtE2zXcqLK_Oi4rhBbMMcfu6TPPFy3]--></g></svg>