<?xml version="1.0" encoding="us-ascii" standalone="no"?><svg xmlns="http://www.w3.org/2000/svg" xmlns:xlink="http://www.w3.org/1999/xlink" contentStyleType="text/css" height="1290px" preserveAspectRatio="none" style="width:687px;height:1290px;background:#FFFFFF;" version="1.1" viewBox="0 0 687 1290" width="687px" zoomAndPan="magnify"><defs><filter height="300%" id="fsrbccr3t5umt" width="300%" x="-1" y="-1"><feGaussianBlur result="blurOut" stdDeviation="2.0"/><feColorMatrix in="blurOut" result="blurOut2" type="matrix" values="0 0 0 0 0 0 0 0 0 0 0 0 0 0 0 0 0 0 .4 0"/><feOffset dx="4.0" dy="4.0" in="blurOut2" result="blurOut3"/><feBlend in="SourceGraphic" in2="blurOut3" mode="normal"/></filter></defs><g><!--class Connector--><g id="elem_Connector"><rect codeLine="5" fill="#FFF1D9" filter="url(#fsrbccr3t5umt)" height="295.8829" id="Connector" rx="5" ry="5" style="stroke:#181818;stroke-width:0.5;" width="222" x="7" y="513.01"/><rect fill="#FFD080" height="32" rx="5" ry="5" style="stroke:#FFD080;stroke-width:0.5;" width="222" x="7" y="513.01"/><rect fill="#FFD080" height="5" style="stroke:#FFD080;stroke-width:0.5;" width="222" x="7" y="540.01"/><rect codeLine="5" fill="none" height="295.8829" id="Connector" rx="5" ry="5" style="stroke:#181818;stroke-width:0.5;" width="222" x="7" y="513.01"/><ellipse cx="79.25" cy="529.01" fill="#ADD1B2" rx="11" ry="11" style="stroke:#181818;stroke-width:1.0;"/><path d="M79.3594,524.5413 Q78.4375,524.5413 77.7031,524.8538 Q76.9844,525.1663 76.4844,525.76 Q75.9844,526.3381 75.7031,527.2131 Q75.4375,528.0881 75.4375,529.1819 Q75.4375,530.6194 75.875,531.6663 Q76.3281,532.7131 77.1719,533.26 Q78.0313,533.8069 79.3438,533.8069 Q80.125,533.8069 80.8125,533.6819 Q81.5156,533.5413 82.5156,533.2288 L82.5156,535.1038 Q81.6563,535.4319 80.8906,535.5569 Q80.1406,535.6819 79.125,535.6819 Q77.2031,535.6819 75.8906,534.885 Q74.5938,534.0725 73.9375,532.6038 Q73.2813,531.1194 73.2813,529.1506 Q73.2813,527.7288 73.6719,526.5569 Q74.0781,525.3694 74.8594,524.4944 Q75.6406,523.6194 76.7813,523.1506 Q77.9219,522.6663 79.3906,522.6663 Q80.3438,522.6663 81.2344,522.8694 Q82.1406,523.0569 83.0781,523.5256 L82.25,525.3069 Q81.4688,524.9319 80.8125,524.7444 Q80.1563,524.5413 79.3594,524.5413 Z " fill="#000000"/><text fill="#000000" font-family="sans-serif" font-size="14" lengthAdjust="spacing" textLength="69" x="99.75" y="534.442">Connector</text><line style="stroke:#181818;stroke-width:0.5;" x1="8" x2="228" y1="545.01" y2="545.01"/><text fill="#000000" font-family="sans-serif" font-size="14" lengthAdjust="spacing" textLength="86" x="13" y="563.9759">name: string</text><text fill="#000000" font-family="sans-serif" font-size="14" lengthAdjust="spacing" textLength="141" x="13" y="583.0439">description: rich_text</text><text fill="#000000" font-family="sans-serif" font-size="14" lengthAdjust="spacing" textLength="47" x="13" y="602.1118">ip: inet</text><text fill="#000000" font-family="sans-serif" font-size="14" lengthAdjust="spacing" textLength="96" x="13" y="621.1797">sds_url: string</text><text fill="#000000" font-family="sans-serif" font-size="14" lengthAdjust="spacing" textLength="167" x="13" y="640.2476">manual_update: boolean</text><line style="stroke:#181818;stroke-width:1.0;" x1="8" x2="228" y1="648.3496" y2="648.3496"/><text fill="#000000" font-family="sans-serif" font-size="14" lengthAdjust="spacing" textLength="86" x="13" y="667.3155">sds_xml: text</text><text fill="#000000" font-family="sans-serif" font-size="14" lengthAdjust="spacing" textLength="185" x="13" y="686.3834">sds_updated_at: timestamp</text><text fill="#000000" font-family="sans-serif" font-size="14" lengthAdjust="spacing" textLength="172" x="13" y="705.4514">connector_services: jsonb</text><text fill="#000000" font-family="sans-serif" font-size="14" lengthAdjust="spacing" textLength="148" x="13" y="724.5193">last_check: timestamp</text><text fill="#000000" font-family="sans-serif" font-size="14" lengthAdjust="spacing" textLength="169" x="13" y="743.5872">last_check_ok: timestamp</text><text fill="#000000" font-family="sans-serif" font-size="14" lengthAdjust="spacing" textLength="120" x="13" y="762.6551">condition: integer</text><text fill="#000000" font-family="sans-serif" font-size="14" lengthAdjust="spacing" textLength="210" x="13" y="781.723">soap_request_success: boolean</text><text fill="#000000" font-family="sans-serif" font-size="14" lengthAdjust="spacing" textLength="144" x="13" y="800.7909">vpnti_online: boolean</text></g><!--class CardTerminal--><g id="elem_CardTerminal"><rect codeLine="22" fill="#FFF1D9" filter="url(#fsrbccr3t5umt)" height="334.0188" id="CardTerminal" rx="5" ry="5" style="stroke:#181818;stroke-width:0.5;" width="153" x="263.5" y="493.95"/><rect fill="#FFD080" height="32" rx="5" ry="5" style="stroke:#FFD080;stroke-width:0.5;" width="153" x="263.5" y="493.95"/><rect fill="#FFD080" height="5" style="stroke:#FFD080;stroke-width:0.5;" width="153" x="263.5" y="520.95"/><rect codeLine="22" fill="none" height="334.0188" id="CardTerminal" rx="5" ry="5" style="stroke:#181818;stroke-width:0.5;" width="153" x="263.5" y="493.95"/><ellipse cx="291.55" cy="509.95" fill="#ADD1B2" rx="11" ry="11" style="stroke:#181818;stroke-width:1.0;"/><path d="M291.6594,505.4812 Q290.7375,505.4812 290.0031,505.7937 Q289.2844,506.1062 288.7844,506.7 Q288.2844,507.2781 288.0031,508.1531 Q287.7375,509.0281 287.7375,510.1219 Q287.7375,511.5594 288.175,512.6062 Q288.6281,513.6531 289.4719,514.2 Q290.3313,514.7469 291.6438,514.7469 Q292.425,514.7469 293.1125,514.6219 Q293.8156,514.4812 294.8156,514.1687 L294.8156,516.0437 Q293.9563,516.3719 293.1906,516.4969 Q292.4406,516.6219 291.425,516.6219 Q289.5031,516.6219 288.1906,515.825 Q286.8938,515.0125 286.2375,513.5437 Q285.5813,512.0594 285.5813,510.0906 Q285.5813,508.6687 285.9719,507.4969 Q286.3781,506.3094 287.1594,505.4344 Q287.9406,504.5594 289.0813,504.0906 Q290.2219,503.6062 291.6906,503.6062 Q292.6438,503.6062 293.5344,503.8094 Q294.4406,503.9969 295.3781,504.4656 L294.55,506.2469 Q293.7688,505.8719 293.1125,505.6844 Q292.4563,505.4812 291.6594,505.4812 Z " fill="#000000"/><text fill="#000000" font-family="sans-serif" font-size="14" lengthAdjust="spacing" textLength="92" x="308.45" y="515.382">CardTerminal</text><line style="stroke:#181818;stroke-width:0.5;" x1="264.5" x2="415.5" y1="525.95" y2="525.95"/><text fill="#000000" font-family="sans-serif" font-size="14" lengthAdjust="spacing" textLength="134" x="269.5" y="544.9159">displayname: string</text><text fill="#000000" font-family="sans-serif" font-size="14" lengthAdjust="spacing" textLength="141" x="269.5" y="563.9839">description: rich_text</text><text fill="#000000" font-family="sans-serif" font-size="14" lengthAdjust="spacing" textLength="83" x="269.5" y="583.0518">room: string</text><text fill="#000000" font-family="sans-serif" font-size="14" lengthAdjust="spacing" textLength="97" x="269.5" y="602.1197">contact: string</text><text fill="#000000" font-family="sans-serif" font-size="14" lengthAdjust="spacing" textLength="124" x="269.5" y="621.1876">plugged_in: string</text><text fill="#000000" font-family="sans-serif" font-size="14" lengthAdjust="spacing" textLength="72" x="269.5" y="640.2555">location_id</text><line style="stroke:#181818;stroke-width:1.0;" x1="264.5" x2="415.5" y1="648.3575" y2="648.3575"/><text fill="#000000" font-family="sans-serif" font-size="14" lengthAdjust="spacing" textLength="115" x="269.5" y="667.3234">properties: jsonb</text><text fill="#000000" font-family="sans-serif" font-size="14" lengthAdjust="spacing" textLength="86" x="269.5" y="686.3914">name: string</text><text fill="#000000" font-family="sans-serif" font-size="14" lengthAdjust="spacing" textLength="79" x="269.5" y="705.4593">ct_id: string</text><text fill="#000000" font-family="sans-serif" font-size="14" lengthAdjust="spacing" textLength="96" x="269.5" y="724.5272">mac: macaddr</text><text fill="#000000" font-family="sans-serif" font-size="14" lengthAdjust="spacing" textLength="47" x="269.5" y="743.5951">ip: inet</text><text fill="#000000" font-family="sans-serif" font-size="14" lengthAdjust="spacing" textLength="88" x="269.5" y="762.663">slots: integer</text><text fill="#000000" font-family="sans-serif" font-size="14" lengthAdjust="spacing" textLength="132" x="269.5" y="781.7309">connected: boolean</text><text fill="#000000" font-family="sans-serif" font-size="14" lengthAdjust="spacing" textLength="120" x="269.5" y="800.7989">condition: integer</text><text fill="#000000" font-family="sans-serif" font-size="14" lengthAdjust="spacing" textLength="86" x="269.5" y="819.8668">connector_id</text></g><!--class Location--><g id="elem_Location"><rect codeLine="41" fill="#FFF1D9" filter="url(#fsrbccr3t5umt)" height="86.1358" id="Location" rx="5" ry="5" style="stroke:#181818;stroke-width:0.5;" width="136" x="295" y="200.8"/><rect fill="#FFD080" height="32" rx="5" ry="5" style="stroke:#FFD080;stroke-width:0.5;" width="136" x="295" y="200.8"/><rect fill="#FFD080" height="5" style="stroke:#FFD080;stroke-width:0.5;" width="136" x="295" y="227.8"/><rect codeLine="41" fill="none" height="86.1358" id="Location" rx="5" ry="5" style="stroke:#181818;stroke-width:0.5;" width="136" x="295" y="200.8"/><ellipse cx="331.6" cy="216.8" fill="#ADD1B2" rx="11" ry="11" style="stroke:#181818;stroke-width:1.0;"/><path d="M331.7094,212.3312 Q330.7875,212.3312 330.0531,212.6437 Q329.3344,212.9562 328.8344,213.55 Q328.3344,214.1281 328.0531,215.0031 Q327.7875,215.8781 327.7875,216.9719 Q327.7875,218.4094 328.225,219.4562 Q328.6781,220.5031 329.5219,221.05 Q330.3813,221.5969 331.6938,221.5969 Q332.475,221.5969 333.1625,221.4719 Q333.8656,221.3312 334.8656,221.0187 L334.8656,222.8937 Q334.0063,223.2219 333.2406,223.3469 Q332.4906,223.4719 331.475,223.4719 Q329.5531,223.4719 328.2406,222.675 Q326.9438,221.8625 326.2875,220.3937 Q325.6313,218.9094 325.6313,216.9406 Q325.6313,215.5187 326.0219,214.3469 Q326.4281,213.1594 327.2094,212.2844 Q327.9906,211.4094 329.1313,210.9406 Q330.2719,210.4562 331.7406,210.4562 Q332.6938,210.4562 333.5844,210.6594 Q334.4906,210.8469 335.4281,211.3156 L334.6,213.0969 Q333.8188,212.7219 333.1625,212.5344 Q332.5063,212.3312 331.7094,212.3312 Z " fill="#000000"/><text fill="#000000" font-family="sans-serif" font-size="14" lengthAdjust="spacing" textLength="56" x="350.4" y="222.232">Location</text><line style="stroke:#181818;stroke-width:0.5;" x1="296" x2="430" y1="232.8" y2="232.8"/><text fill="#000000" font-family="sans-serif" font-size="14" lengthAdjust="spacing" textLength="65" x="301" y="251.7659">lid: string</text><text fill="#000000" font-family="sans-serif" font-size="14" lengthAdjust="spacing" textLength="124" x="301" y="270.8339">description: string</text><line style="stroke:#181818;stroke-width:0.5;" x1="296" x2="430" y1="278.9358" y2="278.9358"/></g><!--class Context--><g id="elem_Context"><rect codeLine="46" fill="#FFF1D9" filter="url(#fsrbccr3t5umt)" height="124.2717" id="Context" rx="5" ry="5" style="stroke:#181818;stroke-width:0.5;" width="150" x="293" y="7"/><rect fill="#FFD080" height="32" rx="5" ry="5" style="stroke:#FFD080;stroke-width:0.5;" width="150" x="293" y="7"/><rect fill="#FFD080" height="5" style="stroke:#FFD080;stroke-width:0.5;" width="150" x="293" y="34"/><rect codeLine="46" fill="none" height="124.2717" id="Context" rx="5" ry="5" style="stroke:#181818;stroke-width:0.5;" width="150" x="293" y="7"/><ellipse cx="338.25" cy="23" fill="#ADD1B2" rx="11" ry="11" style="stroke:#181818;stroke-width:1.0;"/><path d="M338.3594,18.5313 Q337.4375,18.5313 336.7031,18.8438 Q335.9844,19.1563 335.4844,19.75 Q334.9844,20.3281 334.7031,21.2031 Q334.4375,22.0781 334.4375,23.1719 Q334.4375,24.6094 334.875,25.6563 Q335.3281,26.7031 336.1719,27.25 Q337.0313,27.7969 338.3438,27.7969 Q339.125,27.7969 339.8125,27.6719 Q340.5156,27.5313 341.5156,27.2188 L341.5156,29.0938 Q340.6563,29.4219 339.8906,29.5469 Q339.1406,29.6719 338.125,29.6719 Q336.2031,29.6719 334.8906,28.875 Q333.5938,28.0625 332.9375,26.5938 Q332.2813,25.1094 332.2813,23.1406 Q332.2813,21.7188 332.6719,20.5469 Q333.0781,19.3594 333.8594,18.4844 Q334.6406,17.6094 335.7813,17.1406 Q336.9219,16.6563 338.3906,16.6563 Q339.3438,16.6563 340.2344,16.8594 Q341.1406,17.0469 342.0781,17.5156 L341.25,19.2969 Q340.4688,18.9219 339.8125,18.7344 Q339.1563,18.5313 338.3594,18.5313 Z " fill="#000000"/><text fill="#000000" font-family="sans-serif" font-size="14" lengthAdjust="spacing" textLength="51" x="358.75" y="28.432">Context</text><line style="stroke:#181818;stroke-width:0.5;" x1="294" x2="442" y1="39" y2="39"/><text fill="#000000" font-family="sans-serif" font-size="14" lengthAdjust="spacing" textLength="109" x="299" y="57.9659">mandant: string</text><text fill="#000000" font-family="sans-serif" font-size="14" lengthAdjust="spacing" textLength="138" x="299" y="77.0339">client_system: string</text><text fill="#000000" font-family="sans-serif" font-size="14" lengthAdjust="spacing" textLength="116" x="299" y="96.1018">workplace: string</text><text fill="#000000" font-family="sans-serif" font-size="14" lengthAdjust="spacing" textLength="124" x="299" y="115.1697">description: string</text><line style="stroke:#181818;stroke-width:0.5;" x1="294" x2="442" y1="123.2717" y2="123.2717"/></g><!--class ConnectorContext--><g id="elem_ConnectorContext"><rect codeLine="53" fill="#FFF1D9" filter="url(#fsrbccr3t5umt)" height="105.2038" id="ConnectorContext" rx="5" ry="5" style="stroke:#181818;stroke-width:0.5;" width="152" x="108" y="191.27"/><rect fill="#FFD080" height="32" rx="5" ry="5" style="stroke:#FFD080;stroke-width:0.5;" width="152" x="108" y="191.27"/><rect fill="#FFD080" height="5" style="stroke:#FFD080;stroke-width:0.5;" width="152" x="108" y="218.27"/><rect codeLine="53" fill="none" height="105.2038" id="ConnectorContext" rx="5" ry="5" style="stroke:#181818;stroke-width:0.5;" width="152" x="108" y="191.27"/><ellipse cx="123" cy="207.27" fill="#ADD1B2" rx="11" ry="11" style="stroke:#181818;stroke-width:1.0;"/><path d="M123.1094,202.8012 Q122.1875,202.8012 121.4531,203.1137 Q120.7344,203.4262 120.2344,204.02 Q119.7344,204.5981 119.4531,205.4731 Q119.1875,206.3481 119.1875,207.4419 Q119.1875,208.8794 119.625,209.9262 Q120.0781,210.9731 120.9219,211.52 Q121.7813,212.0669 123.0938,212.0669 Q123.875,212.0669 124.5625,211.9419 Q125.2656,211.8012 126.2656,211.4887 L126.2656,213.3637 Q125.4063,213.6919 124.6406,213.8169 Q123.8906,213.9419 122.875,213.9419 Q120.9531,213.9419 119.6406,213.145 Q118.3438,212.3325 117.6875,210.8637 Q117.0313,209.3794 117.0313,207.4106 Q117.0313,205.9887 117.4219,204.8169 Q117.8281,203.6294 118.6094,202.7544 Q119.3906,201.8794 120.5313,201.4106 Q121.6719,200.9262 123.1406,200.9262 Q124.0938,200.9262 124.9844,201.1294 Q125.8906,201.3169 126.8281,201.7856 L126,203.5669 Q125.2188,203.1919 124.5625,203.0044 Q123.9063,202.8012 123.1094,202.8012 Z " fill="#000000"/><text fill="#000000" font-family="sans-serif" font-size="14" lengthAdjust="spacing" textLength="120" x="137" y="212.702">ConnectorContext</text><line style="stroke:#181818;stroke-width:0.5;" x1="109" x2="259" y1="223.27" y2="223.27"/><text fill="#000000" font-family="sans-serif" font-size="14" lengthAdjust="spacing" textLength="86" x="114" y="242.2359">connector_id</text><text fill="#000000" font-family="sans-serif" font-size="14" lengthAdjust="spacing" textLength="68" x="114" y="261.3039">context_id</text><text fill="#000000" font-family="sans-serif" font-size="14" lengthAdjust="spacing" textLength="111" x="114" y="280.3718">position: integer</text><line style="stroke:#181818;stroke-width:0.5;" x1="109" x2="259" y1="288.4738" y2="288.4738"/></g><!--class Card--><g id="elem_Card"><rect codeLine="59" fill="#FFF1D9" filter="url(#fsrbccr3t5umt)" height="608.9696" id="Card" rx="5" ry="5" style="stroke:#181818;stroke-width:0.5;" width="222" x="451" y="356.47"/><rect fill="#FFD080" height="32" rx="5" ry="5" style="stroke:#FFD080;stroke-width:0.5;" width="222" x="451" y="356.47"/><rect fill="#FFD080" height="5" style="stroke:#FFD080;stroke-width:0.5;" width="222" x="451" y="383.47"/><rect codeLine="59" fill="none" height="608.9696" id="Card" rx="5" ry="5" style="stroke:#181818;stroke-width:0.5;" width="222" x="451" y="356.47"/><ellipse cx="541.75" cy="372.47" fill="#ADD1B2" rx="11" ry="11" style="stroke:#181818;stroke-width:1.0;"/><path d="M541.8594,368.0013 Q540.9375,368.0013 540.2031,368.3138 Q539.4844,368.6263 538.9844,369.22 Q538.4844,369.7981 538.2031,370.6731 Q537.9375,371.5481 537.9375,372.6419 Q537.9375,374.0794 538.375,375.1263 Q538.8281,376.1731 539.6719,376.72 Q540.5313,377.2669 541.8438,377.2669 Q542.625,377.2669 543.3125,377.1419 Q544.0156,377.0013 545.0156,376.6888 L545.0156,378.5638 Q544.1563,378.8919 543.3906,379.0169 Q542.6406,379.1419 541.625,379.1419 Q539.7031,379.1419 538.3906,378.345 Q537.0938,377.5325 536.4375,376.0638 Q535.7813,374.5794 535.7813,372.6106 Q535.7813,371.1888 536.1719,370.0169 Q536.5781,368.8294 537.3594,367.9544 Q538.1406,367.0794 539.2813,366.6106 Q540.4219,366.1263 541.8906,366.1263 Q542.8438,366.1263 543.7344,366.3294 Q544.6406,366.5169 545.5781,366.9856 L544.75,368.7669 Q543.9688,368.3919 543.3125,368.2044 Q542.6563,368.0013 541.8594,368.0013 Z " fill="#000000"/><text fill="#000000" font-family="sans-serif" font-size="14" lengthAdjust="spacing" textLength="32" x="562.25" y="377.902">Card</text><line style="stroke:#181818;stroke-width:0.5;" x1="452" x2="672" y1="388.47" y2="388.47"/><text fill="#000000" font-family="sans-serif" font-size="14" lengthAdjust="spacing" textLength="86" x="457" y="407.4359">name: string</text><text fill="#000000" font-family="sans-serif" font-size="14" lengthAdjust="spacing" textLength="141" x="457" y="426.5039">description: rich_text</text><text fill="#000000" font-family="sans-serif" font-size="14" lengthAdjust="spacing" textLength="135" x="457" y="445.5718">operational_state_id</text><text fill="#000000" font-family="sans-serif" font-size="14" lengthAdjust="spacing" textLength="72" x="457" y="464.6397">location_id</text><text fill="#000000" font-family="sans-serif" font-size="14" lengthAdjust="spacing" textLength="75" x="457" y="483.7076">lanr: string</text><text fill="#000000" font-family="sans-serif" font-size="14" lengthAdjust="spacing" textLength="135" x="457" y="502.7755">fachrichtung: string</text><text fill="#000000" font-family="sans-serif" font-size="14" lengthAdjust="spacing" textLength="79" x="457" y="521.8434">bsnr: string</text><text fill="#000000" font-family="sans-serif" font-size="14" lengthAdjust="spacing" textLength="123" x="457" y="540.9114">telematikid: string</text><text fill="#000000" font-family="sans-serif" font-size="14" lengthAdjust="spacing" textLength="68" x="457" y="559.9793">context_id</text><line style="stroke:#181818;stroke-width:1.0;" x1="452" x2="672" y1="568.0813" y2="568.0813"/><text fill="#000000" font-family="sans-serif" font-size="14" lengthAdjust="spacing" textLength="115" x="457" y="587.0472">properties: jsonb</text><text fill="#000000" font-family="sans-serif" font-size="14" lengthAdjust="spacing" textLength="131" x="457" y="606.1151">card_handle: string</text><text fill="#000000" font-family="sans-serif" font-size="14" lengthAdjust="spacing" textLength="113" x="457" y="625.183">card_type: string</text><text fill="#000000" font-family="sans-serif" font-size="14" lengthAdjust="spacing" textLength="82" x="457" y="644.2509">iccsn: string</text><text fill="#000000" font-family="sans-serif" font-size="14" lengthAdjust="spacing" textLength="94" x="457" y="663.3189">slotid: integer</text><text fill="#000000" font-family="sans-serif" font-size="14" lengthAdjust="spacing" textLength="155" x="457" y="682.3868">insert_time: timestamp</text><text fill="#000000" font-family="sans-serif" font-size="14" lengthAdjust="spacing" textLength="172" x="457" y="701.4547">card_holder_name: string</text><text fill="#000000" font-family="sans-serif" font-size="14" lengthAdjust="spacing" textLength="142" x="457" y="720.5226">expiration_date: date</text><text fill="#000000" font-family="sans-serif" font-size="14" lengthAdjust="spacing" textLength="120" x="457" y="739.5905">condition: integer</text><text fill="#000000" font-family="sans-serif" font-size="14" lengthAdjust="spacing" textLength="117" x="457" y="758.6584">pin_status: string</text><text fill="#000000" font-family="sans-serif" font-size="14" lengthAdjust="spacing" textLength="112" x="457" y="777.7264">card_terminal_id</text><line style="stroke:#181818;stroke-width:1.0;" x1="452" x2="672" y1="785.8283" y2="785.8283"/><text fill="#000000" font-family="sans-serif" font-size="14" lengthAdjust="spacing" textLength="96" x="457" y="804.7943">certificate:text</text><text fill="#000000" font-family="sans-serif" font-size="14" lengthAdjust="spacing" textLength="151" x="457" y="823.8622">cert_subject_cn: string</text><text fill="#000000" font-family="sans-serif" font-size="14" lengthAdjust="spacing" textLength="161" x="457" y="842.9301">cert_subject_title: string</text><text fill="#000000" font-family="sans-serif" font-size="14" lengthAdjust="spacing" textLength="151" x="457" y="861.998">cert_subject_sn: string</text><text fill="#000000" font-family="sans-serif" font-size="14" lengthAdjust="spacing" textLength="210" x="457" y="881.0659">cert_subject_givenname: string</text><text fill="#000000" font-family="sans-serif" font-size="14" lengthAdjust="spacing" textLength="174" x="457" y="900.1339">cert_subject_street: string</text><text fill="#000000" font-family="sans-serif" font-size="14" lengthAdjust="spacing" textLength="208" x="457" y="919.2018">cert_subject_postalcode: string</text><text fill="#000000" font-family="sans-serif" font-size="14" lengthAdjust="spacing" textLength="139" x="457" y="938.2697">cert_subject_l: string</text><text fill="#000000" font-family="sans-serif" font-size="14" lengthAdjust="spacing" textLength="143" x="457" y="957.3376">cert_subject_o: string</text></g><!--class Workplace--><g id="elem_Workplace"><rect codeLine="93" fill="#FFF1D9" filter="url(#fsrbccr3t5umt)" height="86.1358" id="Workplace" rx="5" ry="5" style="stroke:#181818;stroke-width:0.5;" width="136" x="272" y="1190.64"/><rect fill="#FFD080" height="32" rx="5" ry="5" style="stroke:#FFD080;stroke-width:0.5;" width="136" x="272" y="1190.64"/><rect fill="#FFD080" height="5" style="stroke:#FFD080;stroke-width:0.5;" width="136" x="272" y="1217.64"/><rect codeLine="93" fill="none" height="86.1358" id="Workplace" rx="5" ry="5" style="stroke:#181818;stroke-width:0.5;" width="136" x="272" y="1190.64"/><ellipse cx="302.3" cy="1206.64" fill="#ADD1B2" rx="11" ry="11" style="stroke:#181818;stroke-width:1.0;"/><path d="M302.4094,1202.1712 Q301.4875,1202.1712 300.7531,1202.4837 Q300.0344,1202.7962 299.5344,1203.39 Q299.0344,1203.9681 298.7531,1204.8431 Q298.4875,1205.7181 298.4875,1206.8119 Q298.4875,1208.2494 298.925,1209.2962 Q299.3781,1210.3431 300.2219,1210.89 Q301.0813,1211.4369 302.3938,1211.4369 Q303.175,1211.4369 303.8625,1211.3119 Q304.5656,1211.1712 305.5656,1210.8587 L305.5656,1212.7337 Q304.7063,1213.0619 303.9406,1213.1869 Q303.1906,1213.3119 302.175,1213.3119 Q300.2531,1213.3119 298.9406,1212.515 Q297.6438,1211.7025 296.9875,1210.2337 Q296.3313,1208.7494 296.3313,1206.7806 Q296.3313,1205.3587 296.7219,1204.1869 Q297.1281,1202.9994 297.9094,1202.1244 Q298.6906,1201.2494 299.8313,1200.7806 Q300.9719,1200.2962 302.4406,1200.2962 Q303.3938,1200.2962 304.2844,1200.4994 Q305.1906,1200.6869 306.1281,1201.1556 L305.3,1202.9369 Q304.5188,1202.5619 303.8625,1202.3744 Q303.2063,1202.1712 302.4094,1202.1712 Z " fill="#000000"/><text fill="#000000" font-family="sans-serif" font-size="14" lengthAdjust="spacing" textLength="70" x="319.7" y="1212.072">Workplace</text><line style="stroke:#181818;stroke-width:0.5;" x1="273" x2="407" y1="1222.64" y2="1222.64"/><text fill="#000000" font-family="sans-serif" font-size="14" lengthAdjust="spacing" textLength="124" x="278" y="1241.6059">description: string</text><line style="stroke:#181818;stroke-width:1.0;" x1="273" x2="407" y1="1249.7079" y2="1249.7079"/><text fill="#000000" font-family="sans-serif" font-size="14" lengthAdjust="spacing" textLength="86" x="278" y="1268.6739">name: string</text></g><!--class TerminalWorkplaces--><g id="elem_TerminalWorkplaces"><rect codeLine="98" fill="#FFF1D9" filter="url(#fsrbccr3t5umt)" height="105.2038" id="TerminalWorkplaces" rx="5" ry="5" style="stroke:#181818;stroke-width:0.5;" width="169" x="377.5" y="1025.44"/><rect fill="#FFD080" height="32" rx="5" ry="5" style="stroke:#FFD080;stroke-width:0.5;" width="169" x="377.5" y="1025.44"/><rect fill="#FFD080" height="5" style="stroke:#FFD080;stroke-width:0.5;" width="169" x="377.5" y="1052.44"/><rect codeLine="98" fill="none" height="105.2038" id="TerminalWorkplaces" rx="5" ry="5" style="stroke:#181818;stroke-width:0.5;" width="169" x="377.5" y="1025.44"/><ellipse cx="392.5" cy="1041.44" fill="#ADD1B2" rx="11" ry="11" style="stroke:#181818;stroke-width:1.0;"/><path d="M392.6094,1036.9713 Q391.6875,1036.9713 390.9531,1037.2838 Q390.2344,1037.5963 389.7344,1038.19 Q389.2344,1038.7681 388.9531,1039.6431 Q388.6875,1040.5181 388.6875,1041.6119 Q388.6875,1043.0494 389.125,1044.0963 Q389.5781,1045.1431 390.4219,1045.69 Q391.2813,1046.2369 392.5938,1046.2369 Q393.375,1046.2369 394.0625,1046.1119 Q394.7656,1045.9713 395.7656,1045.6588 L395.7656,1047.5338 Q394.9063,1047.8619 394.1406,1047.9869 Q393.3906,1048.1119 392.375,1048.1119 Q390.4531,1048.1119 389.1406,1047.315 Q387.8438,1046.5025 387.1875,1045.0338 Q386.5313,1043.5494 386.5313,1041.5806 Q386.5313,1040.1588 386.9219,1038.9869 Q387.3281,1037.7994 388.1094,1036.9244 Q388.8906,1036.0494 390.0313,1035.5806 Q391.1719,1035.0963 392.6406,1035.0963 Q393.5938,1035.0963 394.4844,1035.2994 Q395.3906,1035.4869 396.3281,1035.9556 L395.5,1037.7369 Q394.7188,1037.3619 394.0625,1037.1744 Q393.4063,1036.9713 392.6094,1036.9713 Z " fill="#000000"/><text fill="#000000" font-family="sans-serif" font-size="14" lengthAdjust="spacing" textLength="137" x="406.5" y="1046.872">TerminalWorkplaces</text><line style="stroke:#181818;stroke-width:0.5;" x1="378.5" x2="545.5" y1="1057.44" y2="1057.44"/><text fill="#000000" font-family="sans-serif" font-size="14" lengthAdjust="spacing" textLength="112" x="383.5" y="1076.4059">card_terminal_id</text><text fill="#000000" font-family="sans-serif" font-size="14" lengthAdjust="spacing" textLength="87" x="383.5" y="1095.4739">workplace_id</text><text fill="#000000" font-family="sans-serif" font-size="14" lengthAdjust="spacing" textLength="76" x="383.5" y="1114.5418">updated_at</text><line style="stroke:#181818;stroke-width:0.5;" x1="378.5" x2="545.5" y1="1122.6438" y2="1122.6438"/></g><!--class OperationalState--><g id="elem_OperationalState"><rect codeLine="103" fill="#FFF1D9" filter="url(#fsrbccr3t5umt)" height="86.1358" id="OperationalState" rx="5" ry="5" style="stroke:#181818;stroke-width:0.5;" width="146" x="466" y="200.8"/><rect fill="#FFD080" height="32" rx="5" ry="5" style="stroke:#FFD080;stroke-width:0.5;" width="146" x="466" y="200.8"/><rect fill="#FFD080" height="5" style="stroke:#FFD080;stroke-width:0.5;" width="146" x="466" y="227.8"/><rect codeLine="103" fill="none" height="86.1358" id="OperationalState" rx="5" ry="5" style="stroke:#181818;stroke-width:0.5;" width="146" x="466" y="200.8"/><ellipse cx="481" cy="216.8" fill="#ADD1B2" rx="11" ry="11" style="stroke:#181818;stroke-width:1.0;"/><path d="M481.1094,212.3312 Q480.1875,212.3312 479.4531,212.6437 Q478.7344,212.9562 478.2344,213.55 Q477.7344,214.1281 477.4531,215.0031 Q477.1875,215.8781 477.1875,216.9719 Q477.1875,218.4094 477.625,219.4562 Q478.0781,220.5031 478.9219,221.05 Q479.7813,221.5969 481.0938,221.5969 Q481.875,221.5969 482.5625,221.4719 Q483.2656,221.3312 484.2656,221.0187 L484.2656,222.8937 Q483.4063,223.2219 482.6406,223.3469 Q481.8906,223.4719 480.875,223.4719 Q478.9531,223.4719 477.6406,222.675 Q476.3438,221.8625 475.6875,220.3937 Q475.0313,218.9094 475.0313,216.9406 Q475.0313,215.5187 475.4219,214.3469 Q475.8281,213.1594 476.6094,212.2844 Q477.3906,211.4094 478.5313,210.9406 Q479.6719,210.4562 481.1406,210.4562 Q482.0938,210.4562 482.9844,210.6594 Q483.8906,210.8469 484.8281,211.3156 L484,213.0969 Q483.2188,212.7219 482.5625,212.5344 Q481.9063,212.3312 481.1094,212.3312 Z " fill="#000000"/><text fill="#000000" font-family="sans-serif" font-size="14" lengthAdjust="spacing" textLength="114" x="495" y="222.232">OperationalState</text><line style="stroke:#181818;stroke-width:0.5;" x1="467" x2="611" y1="232.8" y2="232.8"/><text fill="#000000" font-family="sans-serif" font-size="14" lengthAdjust="spacing" textLength="86" x="472" y="251.7659">name: string</text><text fill="#000000" font-family="sans-serif" font-size="14" lengthAdjust="spacing" textLength="124" x="472" y="270.8339">description: string</text><line style="stroke:#181818;stroke-width:0.5;" x1="467" x2="611" y1="278.9358" y2="278.9358"/></g><ellipse cx="71" cy="243.87" fill="#181818" rx="2" ry="2" style="stroke:#181818;stroke-width:1.0;"/><ellipse cx="340" cy="1078.04" fill="#181818" rx="2" ry="2" style="stroke:#181818;stroke-width:1.0;"/><!--link Location to Connector--><g id="link_Location_Connector"><path codeLine="108" d="M309.65,287.3 C287.83,306.66 263.62,330.94 246,356.47 C213.28,403.89 186.48,460.99 166.02,512.8 " fill="none" id="Location-Connector" style="stroke:#181818;stroke-width:1.0;"/><text fill="#000000" font-family="sans-serif" font-size="13" lengthAdjust="spacing" textLength="7" x="294.3002" y="308.8764">*</text><text fill="#000000" font-family="sans-serif" font-size="13" lengthAdjust="spacing" textLength="7" x="161.4547" y="501.1494">*</text></g><!--link Connector to CardTerminal--><g id="link_Connector_CardTerminal"><path codeLine="110" d="M229.43,660.96 C240.66,660.96 251.89,660.96 263.12,660.96 " fill="none" id="Connector-CardTerminal" style="stroke:#181818;stroke-width:1.0;"/><text fill="#000000" font-family="sans-serif" font-size="13" lengthAdjust="spacing" textLength="20" x="235.5194" y="657.2395">0..1</text><text fill="#000000" font-family="sans-serif" font-size="13" lengthAdjust="spacing" textLength="7" x="248.4588" y="657.0806">*</text></g><!--link Location to CardTerminal--><g id="link_Location_CardTerminal"><path codeLine="111" d="M360.65,287.34 C357.95,336 353.37,418.73 349.2,493.89 " fill="none" id="Location-CardTerminal" style="stroke:#181818;stroke-width:1.0;"/><text fill="#000000" font-family="sans-serif" font-size="13" lengthAdjust="spacing" textLength="20" x="338.8361" y="308.9223">0..1</text><text fill="#000000" font-family="sans-serif" font-size="13" lengthAdjust="spacing" textLength="7" x="342.4761" y="482.3">*</text></g><!--link Context to apoint15--><g id="link_Context_apoint15"><path d="M292.57,86.08 C230.93,102.71 145.39,134.52 91,191.27 C76.11,206.81 71.96,234.66 71.16,241.38 " fill="none" id="Context-apoint15" style="stroke:#181818;stroke-width:1.0;"/><text fill="#000000" font-family="sans-serif" font-size="13" lengthAdjust="spacing" textLength="7" x="278.047" y="83.8155">*</text></g><!--link apoint15 to Connector--><g id="link_apoint15_Connector"><path d="M71.13,246.06 C72.75,260.3 88.51,399.51 101.32,512.61 " fill="none" id="apoint15-Connector" style="stroke:#181818;stroke-width:1.0;"/><text fill="#000000" font-family="sans-serif" font-size="13" lengthAdjust="spacing" textLength="7" x="93.2795" y="501.4381">*</text></g><!--link apoint15 to ConnectorContext--><g id="link_apoint15_ConnectorContext"><path d="M73.21,243.87 C84.75,243.87 96.29,243.87 107.83,243.87 " fill="none" id="apoint15-ConnectorContext" style="stroke:#181818;stroke-width:1.0;stroke-dasharray:7.0,7.0;"/></g><!--link CardTerminal to Card--><g id="link_CardTerminal_Card"><path codeLine="113" d="M416.75,660.96 C428,660.96 439.25,660.96 450.51,660.96 " fill="none" id="CardTerminal-Card" style="stroke:#181818;stroke-width:1.0;"/><text fill="#000000" font-family="sans-serif" font-size="13" lengthAdjust="spacing" textLength="20" x="423.0814" y="657.0345">0..1</text><text fill="#000000" font-family="sans-serif" font-size="13" lengthAdjust="spacing" textLength="7" x="436.1435" y="657.3354">*</text></g><!--link CardTerminal to apoint22--><g id="link_CardTerminal_apoint22"><path d="M340,828.4 C340,938.46 340,1064.6 340,1076.18 " fill="none" id="CardTerminal-apoint22" style="stroke:#181818;stroke-width:1.0;"/><text fill="#000000" font-family="sans-serif" font-size="13" lengthAdjust="spacing" textLength="7" x="332.8523" y="849.7344">*</text></g><!--link apoint22 to Workplace--><g id="link_apoint22_Workplace"><path d="M340,1080.37 C340,1089.9 340,1148.72 340,1190.41 " fill="none" id="apoint22-Workplace" style="stroke:#181818;stroke-width:1.0;"/><text fill="#000000" font-family="sans-serif" font-size="13" lengthAdjust="spacing" textLength="7" x="332.4203" y="1178.7865">*</text></g><!--link apoint22 to TerminalWorkplaces--><g id="link_apoint22_TerminalWorkplaces"><path d="M342.38,1078.04 C354.06,1078.04 365.75,1078.04 377.43,1078.04 " fill="none" id="apoint22-TerminalWorkplaces" style="stroke:#181818;stroke-width:1.0;stroke-dasharray:7.0,7.0;"/></g><!--link Location to Card--><g id="link_Location_Card"><path codeLine="116" d="M392.38,287.33 C405.89,307.75 421.63,332.88 434,356.47 C439.58,367.11 445.1,378.04 450.54,389.15 " fill="none" id="Location-Card" style="stroke:#181818;stroke-width:1.0;"/><text fill="#000000" font-family="sans-serif" font-size="13" lengthAdjust="spacing" textLength="20" x="375.2264" y="308.9108">0..1</text><text fill="#000000" font-family="sans-serif" font-size="13" lengthAdjust="spacing" textLength="7" x="436.1754" y="368.1126">*</text></g><!--link OperationalState to Card--><g id="link_OperationalState_Card"><path codeLine="117" d="M541.35,287.34 C542.39,306.04 543.7,329.77 545.17,356.17 " fill="none" id="OperationalState-Card" style="stroke:#181818;stroke-width:1.0;"/><text fill="#000000" font-family="sans-serif" font-size="13" lengthAdjust="spacing" textLength="7" x="534.1811" y="308.9223">1</text><text fill="#000000" font-family="sans-serif" font-size="13" lengthAdjust="spacing" textLength="7" x="537.63" y="344.7548">*</text></g><!--link Context to Card--><g id="link_Context_Card"><path codeLine="118" d="M443.5,82.37 C505.41,96.82 589.24,127.51 630,191.27 C661.39,240.36 670.19,298.2 666.5,356.17 " fill="none" id="Context-Card" style="stroke:#181818;stroke-width:1.0;"/><text fill="#000000" font-family="sans-serif" font-size="13" lengthAdjust="spacing" textLength="7" x="451.0297" y="79.7519">1</text><text fill="#000000" font-family="sans-serif" font-size="13" lengthAdjust="spacing" textLength="7" x="662.1828" y="344.7548">*</text></g><!--SRC=[bLLBZzCm4BxdLvYU0ErMSErrhqWSGE9ekVQqzTQnZJqfhL3_E-CyxQG1zf8syvvlvfkWymmTspj4LpEb0qZKpbRLEpn13KmwAO9YXq3QRLL98s9aByvQidE1iTyLOrRKi6CHWxP7UbKGPT0-XTcneEM98roH5DhlcBQG_aOLUHDCvbKBsmZ36wy4KhIzSmQ49SNpSsz_hSc-3zNwjwQA2oInhY6Yg3tfv50TZn0kMaBSiTVex9vqL3voUG9vBdqcENVdHJYbksQqHJX2IFcTy3p0puRCU6ma9ObvqHTlKNDd3VKxoUyZW8JfTmYrjiAq42eTlH6t_qKoE5TdTbGY2ecPn9lcU2HijCs4XcQPOd6j1bnzS1u2wXoZMH4IoRuObDobXr0gp8Pg7COSfNuIe79e7k8vpOng6s7wqXVSGcIAAWfeUkazsyy4LEj6UwM4pR6HHeEbgTqYGexYBnVED0G9RqZJ5PtdAphfHaEgxiMxEEkys8WtaIdDhGM7I4EhYj2bA6TiX0rPi8EGfnG36tlCnFjOM24Og2d8kG2yQ6HrTzAnu2U2t1GhbAHuyxbCIndpvKpBan9EEw4jyHTvukACaMqIPnG4FeCBhbvtiF3kZgJdsj9vRLlechYejUTcrgrChHwqJ57x4IGHaN__IlFcCc-cqA364erS6LVTZle2Tix5mXK30AvfQTTG6EdKghzPKxZbglyOkD5TgmUiw64g2hvNBwttSEh6AB6ZoXBgaOFTwtJYnrXVfxt_bjR-dwIPMXdFoURZXgfjVqOELmE9rvJz5s_pQRlzJ1QTGNR7i_2zoGERzsEWf-5AVM3RnIMfYW_48kLCFHKy0ao9CfEdIK7PjW_cyRVYgmNacvd125qf_mC0]--></g></svg>