<?xml version="1.0" encoding="us-ascii" standalone="no"?><svg xmlns="http://www.w3.org/2000/svg" xmlns:xlink="http://www.w3.org/1999/xlink" contentStyleType="text/css" height="1252px" preserveAspectRatio="none" style="width:687px;height:1252px;background:#FFFFFF;" version="1.1" viewBox="0 0 687 1252" width="687px" zoomAndPan="magnify"><defs><filter height="300%" id="f12frb2qju988b" width="300%" x="-1" y="-1"><feGaussianBlur result="blurOut" stdDeviation="2.0"/><feColorMatrix in="blurOut" result="blurOut2" type="matrix" values="0 0 0 0 0 0 0 0 0 0 0 0 0 0 0 0 0 0 .4 0"/><feOffset dx="4.0" dy="4.0" in="blurOut2" result="blurOut3"/><feBlend in="SourceGraphic" in2="blurOut3" mode="normal"/></filter></defs><g><!--class Connector--><g id="elem_Connector"><rect codeLine="5" fill="#FFF1D9" filter="url(#f12frb2qju988b)" height="295.8829" id="Connector" rx="5" ry="5" style="stroke:#181818;stroke-width:0.5;" width="222" x="7" y="493.95"/><rect fill="#FFD080" height="32" rx="5" ry="5" style="stroke:#FFD080;stroke-width:0.5;" width="222" x="7" y="493.95"/><rect fill="#FFD080" height="5" style="stroke:#FFD080;stroke-width:0.5;" width="222" x="7" y="520.95"/><rect codeLine="5" fill="none" height="295.8829" id="Connector" rx="5" ry="5" style="stroke:#181818;stroke-width:0.5;" width="222" x="7" y="493.95"/><ellipse cx="79.25" cy="509.95" fill="#ADD1B2" rx="11" ry="11" style="stroke:#181818;stroke-width:1.0;"/><path d="M79.3594,505.4813 Q78.4375,505.4813 77.7031,505.7938 Q76.9844,506.1063 76.4844,506.7 Q75.9844,507.2781 75.7031,508.1531 Q75.4375,509.0281 75.4375,510.1219 Q75.4375,511.5594 75.875,512.6063 Q76.3281,513.6531 77.1719,514.2 Q78.0313,514.7469 79.3438,514.7469 Q80.125,514.7469 80.8125,514.6219 Q81.5156,514.4813 82.5156,514.1688 L82.5156,516.0438 Q81.6563,516.3719 80.8906,516.4969 Q80.1406,516.6219 79.125,516.6219 Q77.2031,516.6219 75.8906,515.825 Q74.5938,515.0125 73.9375,513.5438 Q73.2813,512.0594 73.2813,510.0906 Q73.2813,508.6688 73.6719,507.4969 Q74.0781,506.3094 74.8594,505.4344 Q75.6406,504.5594 76.7813,504.0906 Q77.9219,503.6063 79.3906,503.6063 Q80.3438,503.6063 81.2344,503.8094 Q82.1406,503.9969 83.0781,504.4656 L82.25,506.2469 Q81.4688,505.8719 80.8125,505.6844 Q80.1563,505.4813 79.3594,505.4813 Z " fill="#000000"/><text fill="#000000" font-family="sans-serif" font-size="14" lengthAdjust="spacing" textLength="69" x="99.75" y="515.382">Connector</text><line style="stroke:#181818;stroke-width:0.5;" x1="8" x2="228" y1="525.95" y2="525.95"/><text fill="#000000" font-family="sans-serif" font-size="14" lengthAdjust="spacing" textLength="86" x="13" y="544.9159">name: string</text><text fill="#000000" font-family="sans-serif" font-size="14" lengthAdjust="spacing" textLength="141" x="13" y="563.9839">description: rich_text</text><text fill="#000000" font-family="sans-serif" font-size="14" lengthAdjust="spacing" textLength="47" x="13" y="583.0518">ip: inet</text><text fill="#000000" font-family="sans-serif" font-size="14" lengthAdjust="spacing" textLength="96" x="13" y="602.1197">sds_url: string</text><text fill="#000000" font-family="sans-serif" font-size="14" lengthAdjust="spacing" textLength="167" x="13" y="621.1876">manual_update: boolean</text><line style="stroke:#181818;stroke-width:1.0;" x1="8" x2="228" y1="629.2896" y2="629.2896"/><text fill="#000000" font-family="sans-serif" font-size="14" lengthAdjust="spacing" textLength="86" x="13" y="648.2555">sds_xml: text</text><text fill="#000000" font-family="sans-serif" font-size="14" lengthAdjust="spacing" textLength="185" x="13" y="667.3234">sds_updated_at: timestamp</text><text fill="#000000" font-family="sans-serif" font-size="14" lengthAdjust="spacing" textLength="172" x="13" y="686.3914">connector_services: jsonb</text><text fill="#000000" font-family="sans-serif" font-size="14" lengthAdjust="spacing" textLength="148" x="13" y="705.4593">last_check: timestamp</text><text fill="#000000" font-family="sans-serif" font-size="14" lengthAdjust="spacing" textLength="169" x="13" y="724.5272">last_check_ok: timestamp</text><text fill="#000000" font-family="sans-serif" font-size="14" lengthAdjust="spacing" textLength="120" x="13" y="743.5951">condition: integer</text><text fill="#000000" font-family="sans-serif" font-size="14" lengthAdjust="spacing" textLength="210" x="13" y="762.663">soap_request_success: boolean</text><text fill="#000000" font-family="sans-serif" font-size="14" lengthAdjust="spacing" textLength="144" x="13" y="781.7309">vpnti_online: boolean</text></g><!--class CardTerminal--><g id="elem_CardTerminal"><rect codeLine="22" fill="#FFF1D9" filter="url(#f12frb2qju988b)" height="334.0188" id="CardTerminal" rx="5" ry="5" style="stroke:#181818;stroke-width:0.5;" width="153" x="263.5" y="474.88"/><rect fill="#FFD080" height="32" rx="5" ry="5" style="stroke:#FFD080;stroke-width:0.5;" width="153" x="263.5" y="474.88"/><rect fill="#FFD080" height="5" style="stroke:#FFD080;stroke-width:0.5;" width="153" x="263.5" y="501.88"/><rect codeLine="22" fill="none" height="334.0188" id="CardTerminal" rx="5" ry="5" style="stroke:#181818;stroke-width:0.5;" width="153" x="263.5" y="474.88"/><ellipse cx="291.55" cy="490.88" fill="#ADD1B2" rx="11" ry="11" style="stroke:#181818;stroke-width:1.0;"/><path d="M291.6594,486.4113 Q290.7375,486.4113 290.0031,486.7238 Q289.2844,487.0363 288.7844,487.63 Q288.2844,488.2081 288.0031,489.0831 Q287.7375,489.9581 287.7375,491.0519 Q287.7375,492.4894 288.175,493.5363 Q288.6281,494.5831 289.4719,495.13 Q290.3313,495.6769 291.6438,495.6769 Q292.425,495.6769 293.1125,495.5519 Q293.8156,495.4113 294.8156,495.0988 L294.8156,496.9738 Q293.9563,497.3019 293.1906,497.4269 Q292.4406,497.5519 291.425,497.5519 Q289.5031,497.5519 288.1906,496.755 Q286.8938,495.9425 286.2375,494.4738 Q285.5813,492.9894 285.5813,491.0206 Q285.5813,489.5988 285.9719,488.4269 Q286.3781,487.2394 287.1594,486.3644 Q287.9406,485.4894 289.0813,485.0206 Q290.2219,484.5363 291.6906,484.5363 Q292.6438,484.5363 293.5344,484.7394 Q294.4406,484.9269 295.3781,485.3956 L294.55,487.1769 Q293.7688,486.8019 293.1125,486.6144 Q292.4563,486.4113 291.6594,486.4113 Z " fill="#000000"/><text fill="#000000" font-family="sans-serif" font-size="14" lengthAdjust="spacing" textLength="92" x="308.45" y="496.312">CardTerminal</text><line style="stroke:#181818;stroke-width:0.5;" x1="264.5" x2="415.5" y1="506.88" y2="506.88"/><text fill="#000000" font-family="sans-serif" font-size="14" lengthAdjust="spacing" textLength="134" x="269.5" y="525.8459">displayname: string</text><text fill="#000000" font-family="sans-serif" font-size="14" lengthAdjust="spacing" textLength="141" x="269.5" y="544.9139">description: rich_text</text><text fill="#000000" font-family="sans-serif" font-size="14" lengthAdjust="spacing" textLength="83" x="269.5" y="563.9818">room: string</text><text fill="#000000" font-family="sans-serif" font-size="14" lengthAdjust="spacing" textLength="97" x="269.5" y="583.0497">contact: string</text><text fill="#000000" font-family="sans-serif" font-size="14" lengthAdjust="spacing" textLength="124" x="269.5" y="602.1176">plugged_in: string</text><text fill="#000000" font-family="sans-serif" font-size="14" lengthAdjust="spacing" textLength="72" x="269.5" y="621.1855">location_id</text><line style="stroke:#181818;stroke-width:1.0;" x1="264.5" x2="415.5" y1="629.2875" y2="629.2875"/><text fill="#000000" font-family="sans-serif" font-size="14" lengthAdjust="spacing" textLength="115" x="269.5" y="648.2534">properties: jsonb</text><text fill="#000000" font-family="sans-serif" font-size="14" lengthAdjust="spacing" textLength="86" x="269.5" y="667.3214">name: string</text><text fill="#000000" font-family="sans-serif" font-size="14" lengthAdjust="spacing" textLength="79" x="269.5" y="686.3893">ct_id: string</text><text fill="#000000" font-family="sans-serif" font-size="14" lengthAdjust="spacing" textLength="96" x="269.5" y="705.4572">mac: macaddr</text><text fill="#000000" font-family="sans-serif" font-size="14" lengthAdjust="spacing" textLength="47" x="269.5" y="724.5251">ip: inet</text><text fill="#000000" font-family="sans-serif" font-size="14" lengthAdjust="spacing" textLength="88" x="269.5" y="743.593">slots: integer</text><text fill="#000000" font-family="sans-serif" font-size="14" lengthAdjust="spacing" textLength="132" x="269.5" y="762.6609">connected: boolean</text><text fill="#000000" font-family="sans-serif" font-size="14" lengthAdjust="spacing" textLength="120" x="269.5" y="781.7289">condition: integer</text><text fill="#000000" font-family="sans-serif" font-size="14" lengthAdjust="spacing" textLength="86" x="269.5" y="800.7968">connector_id</text></g><!--class Location--><g id="elem_Location"><rect codeLine="41" fill="#FFF1D9" filter="url(#f12frb2qju988b)" height="86.1358" id="Location" rx="5" ry="5" style="stroke:#181818;stroke-width:0.5;" width="136" x="295" y="200.81"/><rect fill="#FFD080" height="32" rx="5" ry="5" style="stroke:#FFD080;stroke-width:0.5;" width="136" x="295" y="200.81"/><rect fill="#FFD080" height="5" style="stroke:#FFD080;stroke-width:0.5;" width="136" x="295" y="227.81"/><rect codeLine="41" fill="none" height="86.1358" id="Location" rx="5" ry="5" style="stroke:#181818;stroke-width:0.5;" width="136" x="295" y="200.81"/><ellipse cx="331.6" cy="216.81" fill="#ADD1B2" rx="11" ry="11" style="stroke:#181818;stroke-width:1.0;"/><path d="M331.7094,212.3413 Q330.7875,212.3413 330.0531,212.6538 Q329.3344,212.9663 328.8344,213.56 Q328.3344,214.1381 328.0531,215.0131 Q327.7875,215.8881 327.7875,216.9819 Q327.7875,218.4194 328.225,219.4663 Q328.6781,220.5131 329.5219,221.06 Q330.3813,221.6069 331.6938,221.6069 Q332.475,221.6069 333.1625,221.4819 Q333.8656,221.3413 334.8656,221.0288 L334.8656,222.9038 Q334.0063,223.2319 333.2406,223.3569 Q332.4906,223.4819 331.475,223.4819 Q329.5531,223.4819 328.2406,222.685 Q326.9438,221.8725 326.2875,220.4038 Q325.6313,218.9194 325.6313,216.9506 Q325.6313,215.5288 326.0219,214.3569 Q326.4281,213.1694 327.2094,212.2944 Q327.9906,211.4194 329.1313,210.9506 Q330.2719,210.4663 331.7406,210.4663 Q332.6938,210.4663 333.5844,210.6694 Q334.4906,210.8569 335.4281,211.3256 L334.6,213.1069 Q333.8188,212.7319 333.1625,212.5444 Q332.5063,212.3413 331.7094,212.3413 Z " fill="#000000"/><text fill="#000000" font-family="sans-serif" font-size="14" lengthAdjust="spacing" textLength="56" x="350.4" y="222.242">Location</text><line style="stroke:#181818;stroke-width:0.5;" x1="296" x2="430" y1="232.81" y2="232.81"/><text fill="#000000" font-family="sans-serif" font-size="14" lengthAdjust="spacing" textLength="65" x="301" y="251.7759">lid: string</text><text fill="#000000" font-family="sans-serif" font-size="14" lengthAdjust="spacing" textLength="124" x="301" y="270.8439">description: string</text><line style="stroke:#181818;stroke-width:0.5;" x1="296" x2="430" y1="278.9458" y2="278.9458"/></g><!--class Context--><g id="elem_Context"><rect codeLine="46" fill="#FFF1D9" filter="url(#f12frb2qju988b)" height="124.2717" id="Context" rx="5" ry="5" style="stroke:#181818;stroke-width:0.5;" width="150" x="293" y="7"/><rect fill="#FFD080" height="32" rx="5" ry="5" style="stroke:#FFD080;stroke-width:0.5;" width="150" x="293" y="7"/><rect fill="#FFD080" height="5" style="stroke:#FFD080;stroke-width:0.5;" width="150" x="293" y="34"/><rect codeLine="46" fill="none" height="124.2717" id="Context" rx="5" ry="5" style="stroke:#181818;stroke-width:0.5;" width="150" x="293" y="7"/><ellipse cx="338.25" cy="23" fill="#ADD1B2" rx="11" ry="11" style="stroke:#181818;stroke-width:1.0;"/><path d="M338.3594,18.5313 Q337.4375,18.5313 336.7031,18.8438 Q335.9844,19.1563 335.4844,19.75 Q334.9844,20.3281 334.7031,21.2031 Q334.4375,22.0781 334.4375,23.1719 Q334.4375,24.6094 334.875,25.6563 Q335.3281,26.7031 336.1719,27.25 Q337.0313,27.7969 338.3438,27.7969 Q339.125,27.7969 339.8125,27.6719 Q340.5156,27.5313 341.5156,27.2188 L341.5156,29.0938 Q340.6563,29.4219 339.8906,29.5469 Q339.1406,29.6719 338.125,29.6719 Q336.2031,29.6719 334.8906,28.875 Q333.5938,28.0625 332.9375,26.5938 Q332.2813,25.1094 332.2813,23.1406 Q332.2813,21.7188 332.6719,20.5469 Q333.0781,19.3594 333.8594,18.4844 Q334.6406,17.6094 335.7813,17.1406 Q336.9219,16.6563 338.3906,16.6563 Q339.3438,16.6563 340.2344,16.8594 Q341.1406,17.0469 342.0781,17.5156 L341.25,19.2969 Q340.4688,18.9219 339.8125,18.7344 Q339.1563,18.5313 338.3594,18.5313 Z " fill="#000000"/><text fill="#000000" font-family="sans-serif" font-size="14" lengthAdjust="spacing" textLength="51" x="358.75" y="28.432">Context</text><line style="stroke:#181818;stroke-width:0.5;" x1="294" x2="442" y1="39" y2="39"/><text fill="#000000" font-family="sans-serif" font-size="14" lengthAdjust="spacing" textLength="109" x="299" y="57.9659">mandant: string</text><text fill="#000000" font-family="sans-serif" font-size="14" lengthAdjust="spacing" textLength="138" x="299" y="77.0339">client_system: string</text><text fill="#000000" font-family="sans-serif" font-size="14" lengthAdjust="spacing" textLength="116" x="299" y="96.1018">workplace: string</text><text fill="#000000" font-family="sans-serif" font-size="14" lengthAdjust="spacing" textLength="124" x="299" y="115.1697">description: string</text><line style="stroke:#181818;stroke-width:0.5;" x1="294" x2="442" y1="123.2717" y2="123.2717"/></g><!--class ConnectorContext--><g id="elem_ConnectorContext"><rect codeLine="53" fill="#FFF1D9" filter="url(#f12frb2qju988b)" height="105.2038" id="ConnectorContext" rx="5" ry="5" style="stroke:#181818;stroke-width:0.5;" width="152" x="108" y="191.27"/><rect fill="#FFD080" height="32" rx="5" ry="5" style="stroke:#FFD080;stroke-width:0.5;" width="152" x="108" y="191.27"/><rect fill="#FFD080" height="5" style="stroke:#FFD080;stroke-width:0.5;" width="152" x="108" y="218.27"/><rect codeLine="53" fill="none" height="105.2038" id="ConnectorContext" rx="5" ry="5" style="stroke:#181818;stroke-width:0.5;" width="152" x="108" y="191.27"/><ellipse cx="123" cy="207.27" fill="#ADD1B2" rx="11" ry="11" style="stroke:#181818;stroke-width:1.0;"/><path d="M123.1094,202.8012 Q122.1875,202.8012 121.4531,203.1137 Q120.7344,203.4262 120.2344,204.02 Q119.7344,204.5981 119.4531,205.4731 Q119.1875,206.3481 119.1875,207.4419 Q119.1875,208.8794 119.625,209.9262 Q120.0781,210.9731 120.9219,211.52 Q121.7813,212.0669 123.0938,212.0669 Q123.875,212.0669 124.5625,211.9419 Q125.2656,211.8012 126.2656,211.4887 L126.2656,213.3637 Q125.4063,213.6919 124.6406,213.8169 Q123.8906,213.9419 122.875,213.9419 Q120.9531,213.9419 119.6406,213.145 Q118.3438,212.3325 117.6875,210.8637 Q117.0313,209.3794 117.0313,207.4106 Q117.0313,205.9887 117.4219,204.8169 Q117.8281,203.6294 118.6094,202.7544 Q119.3906,201.8794 120.5313,201.4106 Q121.6719,200.9262 123.1406,200.9262 Q124.0938,200.9262 124.9844,201.1294 Q125.8906,201.3169 126.8281,201.7856 L126,203.5669 Q125.2188,203.1919 124.5625,203.0044 Q123.9063,202.8012 123.1094,202.8012 Z " fill="#000000"/><text fill="#000000" font-family="sans-serif" font-size="14" lengthAdjust="spacing" textLength="120" x="137" y="212.702">ConnectorContext</text><line style="stroke:#181818;stroke-width:0.5;" x1="109" x2="259" y1="223.27" y2="223.27"/><text fill="#000000" font-family="sans-serif" font-size="14" lengthAdjust="spacing" textLength="86" x="114" y="242.2359">connector_id</text><text fill="#000000" font-family="sans-serif" font-size="14" lengthAdjust="spacing" textLength="68" x="114" y="261.3039">context_id</text><text fill="#000000" font-family="sans-serif" font-size="14" lengthAdjust="spacing" textLength="111" x="114" y="280.3718">position: integer</text><line style="stroke:#181818;stroke-width:0.5;" x1="109" x2="259" y1="288.4738" y2="288.4738"/></g><!--class Card--><g id="elem_Card"><rect codeLine="59" fill="#FFF1D9" filter="url(#f12frb2qju988b)" height="570.8338" id="Card" rx="5" ry="5" style="stroke:#181818;stroke-width:0.5;" width="222" x="451" y="356.48"/><rect fill="#FFD080" height="32" rx="5" ry="5" style="stroke:#FFD080;stroke-width:0.5;" width="222" x="451" y="356.48"/><rect fill="#FFD080" height="5" style="stroke:#FFD080;stroke-width:0.5;" width="222" x="451" y="383.48"/><rect codeLine="59" fill="none" height="570.8338" id="Card" rx="5" ry="5" style="stroke:#181818;stroke-width:0.5;" width="222" x="451" y="356.48"/><ellipse cx="541.75" cy="372.48" fill="#ADD1B2" rx="11" ry="11" style="stroke:#181818;stroke-width:1.0;"/><path d="M541.8594,368.0113 Q540.9375,368.0113 540.2031,368.3238 Q539.4844,368.6363 538.9844,369.23 Q538.4844,369.8081 538.2031,370.6831 Q537.9375,371.5581 537.9375,372.6519 Q537.9375,374.0894 538.375,375.1363 Q538.8281,376.1831 539.6719,376.73 Q540.5313,377.2769 541.8438,377.2769 Q542.625,377.2769 543.3125,377.1519 Q544.0156,377.0113 545.0156,376.6988 L545.0156,378.5738 Q544.1563,378.9019 543.3906,379.0269 Q542.6406,379.1519 541.625,379.1519 Q539.7031,379.1519 538.3906,378.355 Q537.0938,377.5425 536.4375,376.0738 Q535.7813,374.5894 535.7813,372.6206 Q535.7813,371.1988 536.1719,370.0269 Q536.5781,368.8394 537.3594,367.9644 Q538.1406,367.0894 539.2813,366.6206 Q540.4219,366.1363 541.8906,366.1363 Q542.8438,366.1363 543.7344,366.3394 Q544.6406,366.5269 545.5781,366.9956 L544.75,368.7769 Q543.9688,368.4019 543.3125,368.2144 Q542.6563,368.0113 541.8594,368.0113 Z " fill="#000000"/><text fill="#000000" font-family="sans-serif" font-size="14" lengthAdjust="spacing" textLength="32" x="562.25" y="377.912">Card</text><line style="stroke:#181818;stroke-width:0.5;" x1="452" x2="672" y1="388.48" y2="388.48"/><text fill="#000000" font-family="sans-serif" font-size="14" lengthAdjust="spacing" textLength="86" x="457" y="407.4459">name: string</text><text fill="#000000" font-family="sans-serif" font-size="14" lengthAdjust="spacing" textLength="141" x="457" y="426.5139">description: rich_text</text><text fill="#000000" font-family="sans-serif" font-size="14" lengthAdjust="spacing" textLength="135" x="457" y="445.5818">operational_state_id</text><text fill="#000000" font-family="sans-serif" font-size="14" lengthAdjust="spacing" textLength="72" x="457" y="464.6497">location_id</text><text fill="#000000" font-family="sans-serif" font-size="14" lengthAdjust="spacing" textLength="75" x="457" y="483.7176">lanr: string</text><text fill="#000000" font-family="sans-serif" font-size="14" lengthAdjust="spacing" textLength="135" x="457" y="502.7855">fachrichtung: string</text><text fill="#000000" font-family="sans-serif" font-size="14" lengthAdjust="spacing" textLength="79" x="457" y="521.8534">bsnr: string</text><text fill="#000000" font-family="sans-serif" font-size="14" lengthAdjust="spacing" textLength="123" x="457" y="540.9214">telematikid: string</text><text fill="#000000" font-family="sans-serif" font-size="14" lengthAdjust="spacing" textLength="68" x="457" y="559.9893">context_id</text><line style="stroke:#181818;stroke-width:1.0;" x1="452" x2="672" y1="568.0913" y2="568.0913"/><text fill="#000000" font-family="sans-serif" font-size="14" lengthAdjust="spacing" textLength="115" x="457" y="587.0572">properties: jsonb</text><text fill="#000000" font-family="sans-serif" font-size="14" lengthAdjust="spacing" textLength="131" x="457" y="606.1251">card_handle: string</text><text fill="#000000" font-family="sans-serif" font-size="14" lengthAdjust="spacing" textLength="113" x="457" y="625.193">card_type: string</text><text fill="#000000" font-family="sans-serif" font-size="14" lengthAdjust="spacing" textLength="82" x="457" y="644.2609">iccsn: string</text><text fill="#000000" font-family="sans-serif" font-size="14" lengthAdjust="spacing" textLength="94" x="457" y="663.3289">slotid: integer</text><text fill="#000000" font-family="sans-serif" font-size="14" lengthAdjust="spacing" textLength="155" x="457" y="682.3968">insert_time: timestamp</text><text fill="#000000" font-family="sans-serif" font-size="14" lengthAdjust="spacing" textLength="172" x="457" y="701.4647">card_holder_name: string</text><text fill="#000000" font-family="sans-serif" font-size="14" lengthAdjust="spacing" textLength="142" x="457" y="720.5326">expiration_date: date</text><text fill="#000000" font-family="sans-serif" font-size="14" lengthAdjust="spacing" textLength="112" x="457" y="739.6005">card_terminal_id</text><line style="stroke:#181818;stroke-width:1.0;" x1="452" x2="672" y1="747.7025" y2="747.7025"/><text fill="#000000" font-family="sans-serif" font-size="14" lengthAdjust="spacing" textLength="96" x="457" y="766.6684">certificate:text</text><text fill="#000000" font-family="sans-serif" font-size="14" lengthAdjust="spacing" textLength="151" x="457" y="785.7364">cert_subject_cn: string</text><text fill="#000000" font-family="sans-serif" font-size="14" lengthAdjust="spacing" textLength="161" x="457" y="804.8043">cert_subject_title: string</text><text fill="#000000" font-family="sans-serif" font-size="14" lengthAdjust="spacing" textLength="151" x="457" y="823.8722">cert_subject_sn: string</text><text fill="#000000" font-family="sans-serif" font-size="14" lengthAdjust="spacing" textLength="210" x="457" y="842.9401">cert_subject_givenname: string</text><text fill="#000000" font-family="sans-serif" font-size="14" lengthAdjust="spacing" textLength="174" x="457" y="862.008">cert_subject_street: string</text><text fill="#000000" font-family="sans-serif" font-size="14" lengthAdjust="spacing" textLength="208" x="457" y="881.0759">cert_subject_postalcode: string</text><text fill="#000000" font-family="sans-serif" font-size="14" lengthAdjust="spacing" textLength="139" x="457" y="900.1439">cert_subject_l: string</text><text fill="#000000" font-family="sans-serif" font-size="14" lengthAdjust="spacing" textLength="143" x="457" y="919.2118">cert_subject_o: string</text></g><!--class Workplace--><g id="elem_Workplace"><rect codeLine="91" fill="#FFF1D9" filter="url(#f12frb2qju988b)" height="86.1358" id="Workplace" rx="5" ry="5" style="stroke:#181818;stroke-width:0.5;" width="136" x="272" y="1152.51"/><rect fill="#FFD080" height="32" rx="5" ry="5" style="stroke:#FFD080;stroke-width:0.5;" width="136" x="272" y="1152.51"/><rect fill="#FFD080" height="5" style="stroke:#FFD080;stroke-width:0.5;" width="136" x="272" y="1179.51"/><rect codeLine="91" fill="none" height="86.1358" id="Workplace" rx="5" ry="5" style="stroke:#181818;stroke-width:0.5;" width="136" x="272" y="1152.51"/><ellipse cx="302.3" cy="1168.51" fill="#ADD1B2" rx="11" ry="11" style="stroke:#181818;stroke-width:1.0;"/><path d="M302.4094,1164.0413 Q301.4875,1164.0413 300.7531,1164.3538 Q300.0344,1164.6663 299.5344,1165.26 Q299.0344,1165.8381 298.7531,1166.7131 Q298.4875,1167.5881 298.4875,1168.6819 Q298.4875,1170.1194 298.925,1171.1663 Q299.3781,1172.2131 300.2219,1172.76 Q301.0813,1173.3069 302.3938,1173.3069 Q303.175,1173.3069 303.8625,1173.1819 Q304.5656,1173.0413 305.5656,1172.7288 L305.5656,1174.6038 Q304.7063,1174.9319 303.9406,1175.0569 Q303.1906,1175.1819 302.175,1175.1819 Q300.2531,1175.1819 298.9406,1174.385 Q297.6438,1173.5725 296.9875,1172.1038 Q296.3313,1170.6194 296.3313,1168.6506 Q296.3313,1167.2288 296.7219,1166.0569 Q297.1281,1164.8694 297.9094,1163.9944 Q298.6906,1163.1194 299.8313,1162.6506 Q300.9719,1162.1663 302.4406,1162.1663 Q303.3938,1162.1663 304.2844,1162.3694 Q305.1906,1162.5569 306.1281,1163.0256 L305.3,1164.8069 Q304.5188,1164.4319 303.8625,1164.2444 Q303.2063,1164.0413 302.4094,1164.0413 Z " fill="#000000"/><text fill="#000000" font-family="sans-serif" font-size="14" lengthAdjust="spacing" textLength="70" x="319.7" y="1173.942">Workplace</text><line style="stroke:#181818;stroke-width:0.5;" x1="273" x2="407" y1="1184.51" y2="1184.51"/><text fill="#000000" font-family="sans-serif" font-size="14" lengthAdjust="spacing" textLength="124" x="278" y="1203.4759">description: string</text><line style="stroke:#181818;stroke-width:1.0;" x1="273" x2="407" y1="1211.5779" y2="1211.5779"/><text fill="#000000" font-family="sans-serif" font-size="14" lengthAdjust="spacing" textLength="86" x="278" y="1230.5439">name: string</text></g><!--class TerminalWorkplaces--><g id="elem_TerminalWorkplaces"><rect codeLine="96" fill="#FFF1D9" filter="url(#f12frb2qju988b)" height="105.2038" id="TerminalWorkplaces" rx="5" ry="5" style="stroke:#181818;stroke-width:0.5;" width="169" x="377.5" y="987.31"/><rect fill="#FFD080" height="32" rx="5" ry="5" style="stroke:#FFD080;stroke-width:0.5;" width="169" x="377.5" y="987.31"/><rect fill="#FFD080" height="5" style="stroke:#FFD080;stroke-width:0.5;" width="169" x="377.5" y="1014.31"/><rect codeLine="96" fill="none" height="105.2038" id="TerminalWorkplaces" rx="5" ry="5" style="stroke:#181818;stroke-width:0.5;" width="169" x="377.5" y="987.31"/><ellipse cx="392.5" cy="1003.31" fill="#ADD1B2" rx="11" ry="11" style="stroke:#181818;stroke-width:1.0;"/><path d="M392.6094,998.8413 Q391.6875,998.8413 390.9531,999.1538 Q390.2344,999.4663 389.7344,1000.06 Q389.2344,1000.6381 388.9531,1001.5131 Q388.6875,1002.3881 388.6875,1003.4819 Q388.6875,1004.9194 389.125,1005.9663 Q389.5781,1007.0131 390.4219,1007.56 Q391.2813,1008.1069 392.5938,1008.1069 Q393.375,1008.1069 394.0625,1007.9819 Q394.7656,1007.8413 395.7656,1007.5288 L395.7656,1009.4038 Q394.9063,1009.7319 394.1406,1009.8569 Q393.3906,1009.9819 392.375,1009.9819 Q390.4531,1009.9819 389.1406,1009.185 Q387.8438,1008.3725 387.1875,1006.9038 Q386.5313,1005.4194 386.5313,1003.4506 Q386.5313,1002.0288 386.9219,1000.8569 Q387.3281,999.6694 388.1094,998.7944 Q388.8906,997.9194 390.0313,997.4506 Q391.1719,996.9663 392.6406,996.9663 Q393.5938,996.9663 394.4844,997.1694 Q395.3906,997.3569 396.3281,997.8256 L395.5,999.6069 Q394.7188,999.2319 394.0625,999.0444 Q393.4063,998.8413 392.6094,998.8413 Z " fill="#000000"/><text fill="#000000" font-family="sans-serif" font-size="14" lengthAdjust="spacing" textLength="137" x="406.5" y="1008.742">TerminalWorkplaces</text><line style="stroke:#181818;stroke-width:0.5;" x1="378.5" x2="545.5" y1="1019.31" y2="1019.31"/><text fill="#000000" font-family="sans-serif" font-size="14" lengthAdjust="spacing" textLength="112" x="383.5" y="1038.2759">card_terminal_id</text><text fill="#000000" font-family="sans-serif" font-size="14" lengthAdjust="spacing" textLength="87" x="383.5" y="1057.3439">workplace_id</text><text fill="#000000" font-family="sans-serif" font-size="14" lengthAdjust="spacing" textLength="76" x="383.5" y="1076.4118">updated_at</text><line style="stroke:#181818;stroke-width:0.5;" x1="378.5" x2="545.5" y1="1084.5138" y2="1084.5138"/></g><!--class OperationalState--><g id="elem_OperationalState"><rect codeLine="101" fill="#FFF1D9" filter="url(#f12frb2qju988b)" height="86.1358" id="OperationalState" rx="5" ry="5" style="stroke:#181818;stroke-width:0.5;" width="146" x="466" y="200.81"/><rect fill="#FFD080" height="32" rx="5" ry="5" style="stroke:#FFD080;stroke-width:0.5;" width="146" x="466" y="200.81"/><rect fill="#FFD080" height="5" style="stroke:#FFD080;stroke-width:0.5;" width="146" x="466" y="227.81"/><rect codeLine="101" fill="none" height="86.1358" id="OperationalState" rx="5" ry="5" style="stroke:#181818;stroke-width:0.5;" width="146" x="466" y="200.81"/><ellipse cx="481" cy="216.81" fill="#ADD1B2" rx="11" ry="11" style="stroke:#181818;stroke-width:1.0;"/><path d="M481.1094,212.3413 Q480.1875,212.3413 479.4531,212.6538 Q478.7344,212.9663 478.2344,213.56 Q477.7344,214.1381 477.4531,215.0131 Q477.1875,215.8881 477.1875,216.9819 Q477.1875,218.4194 477.625,219.4663 Q478.0781,220.5131 478.9219,221.06 Q479.7813,221.6069 481.0938,221.6069 Q481.875,221.6069 482.5625,221.4819 Q483.2656,221.3413 484.2656,221.0288 L484.2656,222.9038 Q483.4063,223.2319 482.6406,223.3569 Q481.8906,223.4819 480.875,223.4819 Q478.9531,223.4819 477.6406,222.685 Q476.3438,221.8725 475.6875,220.4038 Q475.0313,218.9194 475.0313,216.9506 Q475.0313,215.5288 475.4219,214.3569 Q475.8281,213.1694 476.6094,212.2944 Q477.3906,211.4194 478.5313,210.9506 Q479.6719,210.4663 481.1406,210.4663 Q482.0938,210.4663 482.9844,210.6694 Q483.8906,210.8569 484.8281,211.3256 L484,213.1069 Q483.2188,212.7319 482.5625,212.5444 Q481.9063,212.3413 481.1094,212.3413 Z " fill="#000000"/><text fill="#000000" font-family="sans-serif" font-size="14" lengthAdjust="spacing" textLength="114" x="495" y="222.242">OperationalState</text><line style="stroke:#181818;stroke-width:0.5;" x1="467" x2="611" y1="232.81" y2="232.81"/><text fill="#000000" font-family="sans-serif" font-size="14" lengthAdjust="spacing" textLength="86" x="472" y="251.7759">name: string</text><text fill="#000000" font-family="sans-serif" font-size="14" lengthAdjust="spacing" textLength="124" x="472" y="270.8439">description: string</text><line style="stroke:#181818;stroke-width:0.5;" x1="467" x2="611" y1="278.9458" y2="278.9458"/></g><ellipse cx="71" cy="243.87" fill="#181818" rx="2" ry="2" style="stroke:#181818;stroke-width:1.0;"/><ellipse cx="340" cy="1039.91" fill="#181818" rx="2" ry="2" style="stroke:#181818;stroke-width:1.0;"/><!--link Location to Connector--><g id="link_Location_Connector"><path codeLine="106" d="M310.24,287.25 C288.39,306.68 264,331.04 246,356.48 C216.52,398.13 191.39,447.67 171.41,493.63 " fill="none" id="Location-Connector" style="stroke:#181818;stroke-width:1.0;"/><text fill="#000000" font-family="sans-serif" font-size="13" lengthAdjust="spacing" textLength="7" x="294.9768" y="308.8176">*</text><text fill="#000000" font-family="sans-serif" font-size="13" lengthAdjust="spacing" textLength="7" x="167.1395" y="481.9734">*</text></g><!--link Connector to CardTerminal--><g id="link_Connector_CardTerminal"><path codeLine="108" d="M229.43,641.89 C240.66,641.89 251.89,641.89 263.12,641.89 " fill="none" id="Connector-CardTerminal" style="stroke:#181818;stroke-width:1.0;"/><text fill="#000000" font-family="sans-serif" font-size="13" lengthAdjust="spacing" textLength="20" x="235.5194" y="638.1689">0..1</text><text fill="#000000" font-family="sans-serif" font-size="13" lengthAdjust="spacing" textLength="7" x="248.4588" y="638.0106">*</text></g><!--link Location to CardTerminal--><g id="link_Location_CardTerminal"><path codeLine="109" d="M360.54,287.26 C357.93,332.15 353.65,405.88 349.67,474.43 " fill="none" id="Location-CardTerminal" style="stroke:#181818;stroke-width:1.0;"/><text fill="#000000" font-family="sans-serif" font-size="13" lengthAdjust="spacing" textLength="20" x="338.7099" y="308.829">0..1</text><text fill="#000000" font-family="sans-serif" font-size="13" lengthAdjust="spacing" textLength="7" x="342.9689" y="462.8211">*</text></g><!--link Context to apoint15--><g id="link_Context_apoint15"><path d="M292.57,86.09 C230.93,102.72 145.39,134.53 91,191.27 C76.11,206.81 71.96,234.67 71.16,241.39 " fill="none" id="Context-apoint15" style="stroke:#181818;stroke-width:1.0;"/><text fill="#000000" font-family="sans-serif" font-size="13" lengthAdjust="spacing" textLength="7" x="278.047" y="83.8264">*</text></g><!--link apoint15 to Connector--><g id="link_apoint15_Connector"><path d="M71.17,246.31 C72.93,261.12 87.96,387.79 100.53,493.67 " fill="none" id="apoint15-Connector" style="stroke:#181818;stroke-width:1.0;"/><text fill="#000000" font-family="sans-serif" font-size="13" lengthAdjust="spacing" textLength="7" x="92.3832" y="482.0156">*</text></g><!--link apoint15 to ConnectorContext--><g id="link_apoint15_ConnectorContext"><path d="M73.21,243.87 C84.75,243.87 96.29,243.87 107.83,243.87 " fill="none" id="apoint15-ConnectorContext" style="stroke:#181818;stroke-width:1.0;stroke-dasharray:7.0,7.0;"/></g><!--link CardTerminal to Card--><g id="link_CardTerminal_Card"><path codeLine="111" d="M416.75,641.89 C428,641.89 439.25,641.89 450.51,641.89 " fill="none" id="CardTerminal-Card" style="stroke:#181818;stroke-width:1.0;"/><text fill="#000000" font-family="sans-serif" font-size="13" lengthAdjust="spacing" textLength="20" x="423.0814" y="637.9644">0..1</text><text fill="#000000" font-family="sans-serif" font-size="13" lengthAdjust="spacing" textLength="7" x="436.1435" y="638.2647">*</text></g><!--link CardTerminal to apoint22--><g id="link_CardTerminal_apoint22"><path d="M340,809.12 C340,910.72 340,1023.79 340,1037.52 " fill="none" id="CardTerminal-apoint22" style="stroke:#181818;stroke-width:1.0;"/><text fill="#000000" font-family="sans-serif" font-size="13" lengthAdjust="spacing" textLength="7" x="332.8414" y="830.9958">*</text></g><!--link apoint22 to Workplace--><g id="link_apoint22_Workplace"><path d="M340,1042.24 C340,1051.77 340,1110.59 340,1152.28 " fill="none" id="apoint22-Workplace" style="stroke:#181818;stroke-width:1.0;"/><text fill="#000000" font-family="sans-serif" font-size="13" lengthAdjust="spacing" textLength="7" x="332.4203" y="1140.6565">*</text></g><!--link apoint22 to TerminalWorkplaces--><g id="link_apoint22_TerminalWorkplaces"><path d="M342.38,1039.91 C354.06,1039.91 365.75,1039.91 377.43,1039.91 " fill="none" id="apoint22-TerminalWorkplaces" style="stroke:#181818;stroke-width:1.0;stroke-dasharray:7.0,7.0;"/></g><!--link Location to Card--><g id="link_Location_Card"><path codeLine="114" d="M391.96,287.2 C405.45,307.7 421.3,332.93 434,356.48 C439.59,366.84 445.16,377.5 450.66,388.32 " fill="none" id="Location-Card" style="stroke:#181818;stroke-width:1.0;"/><text fill="#000000" font-family="sans-serif" font-size="13" lengthAdjust="spacing" textLength="20" x="374.7447" y="308.7602">0..1</text><text fill="#000000" font-family="sans-serif" font-size="13" lengthAdjust="spacing" textLength="7" x="435.9442" y="367.6324">*</text></g><!--link OperationalState to Card--><g id="link_OperationalState_Card"><path codeLine="115" d="M541.46,287.26 C542.55,306.01 543.93,329.8 545.46,356.14 " fill="none" id="OperationalState-Card" style="stroke:#181818;stroke-width:1.0;"/><text fill="#000000" font-family="sans-serif" font-size="13" lengthAdjust="spacing" textLength="7" x="534.3073" y="308.829">1</text><text fill="#000000" font-family="sans-serif" font-size="13" lengthAdjust="spacing" textLength="7" x="537.8651" y="344.3117">*</text></g><!--link Context to Card--><g id="link_Context_Card"><path codeLine="116" d="M443.5,82.38 C505.41,96.83 589.24,127.52 630,191.27 C661.31,240.24 668.99,298.24 664.03,356.01 " fill="none" id="Context-Card" style="stroke:#181818;stroke-width:1.0;"/><text fill="#000000" font-family="sans-serif" font-size="13" lengthAdjust="spacing" textLength="7" x="451.0297" y="79.7628">1</text><text fill="#000000" font-family="sans-serif" font-size="13" lengthAdjust="spacing" textLength="7" x="659.6472" y="345.0967">*</text></g><!--SRC=[bLLBZzCm4BxdLvYU0ErMSErrhqWSGE9ekVQqzTQnZJqfhL3_E-CyxQG1zf8syvvllfcWymmTspj4LpEb0qZKpbRLEpn13KmwAO9YXq3QRLL98s9aByvQidE1iTyLOrRKi6CHWxP7UbKGPT0-XTcneEM98roH5DhlcBQG_aOLUHDCvbKBsmZ36wy4KhIzSmQ49SNpSsz_hSc-3zNwjwQA2oInhY6Yg3tfv50TZn0kMaBSiTVex9vqL3voUG9vBdqcENVdHJYbksQqHJX2IFcTy3p0puRCU6ma9ObvqHTlKNDd3VKxoUyZW8JfTmYrjiAq42eTlH6t_qKoE5TdTbGY2ecPn9lcU2HijCs4XcQPOd6j1bnzS1u2wXoZMH4IoRuObDobXr0gp8Pg7COSfNuIe79e7k8vpOng6s7wqXVSGcIAAWfeUkazusS2gdKZNYbXSsoaqM1fQhU8aAFuouKp3K726z9qHUVvYawwqP2gU_4kpZel6F6cPKfpQy6XfI6g8dGfoXaROKCMx23aASN0nXupyJuMLWW6QWfoBW0l6bdbJZeM_4IGcu92IOetdykqb34dPo9FIZXnGblQN-Hf5sSRsIPnHa7WCxZWwdK72-_kI7gE5VGRb_KWKmC7BPDj3smIqKhlNscANEOb5XhKMFQOA-Egsr5VmCuth735081hMc8G2YETMlKtQmgt9F2FWV7T3Nh0zHwcek1xzT9w3mTiZ1Ax1LX2FMvMzpeTxZ7MrudDtnAP_xaAKolZaTXyt52rxS-ucTMmcclA_Zks-RJTVYQBpY2xpbdutkI1pVinqDDmUpwmxU8-LCNPNwISgQU2Hu0fKMRoD2aes_R1FFvMVBM0V3Cp6A4hvNy0]--></g></svg>