<?xml version="1.0" encoding="us-ascii" standalone="no"?><svg xmlns="http://www.w3.org/2000/svg" xmlns:xlink="http://www.w3.org/1999/xlink" contentStyleType="text/css" height="405px" preserveAspectRatio="none" style="width:328px;height:405px;background:#FFFFFF;" version="1.1" viewBox="0 0 328 405" width="328px" zoomAndPan="magnify"><defs><filter height="300%" id="f1r2pxs725qzfk" width="300%" x="-1" y="-1"><feGaussianBlur result="blurOut" stdDeviation="2.0"/><feColorMatrix in="blurOut" result="blurOut2" type="matrix" values="0 0 0 0 0 0 0 0 0 0 0 0 0 0 0 0 0 0 .4 0"/><feOffset dx="4.0" dy="4.0" in="blurOut2" result="blurOut3"/><feBlend in="SourceGraphic" in2="blurOut3" mode="normal"/></filter></defs><g><!--class Connector--><g id="elem_Connector"><rect codeLine="5" fill="#FFF1D9" filter="url(#f1r2pxs725qzfk)" height="238.6792" id="Connector" rx="5" ry="5" style="stroke:#181818;stroke-width:0.5;" width="197" x="61.5" y="153.13"/><rect fill="#FFD080" height="32" rx="5" ry="5" style="stroke:#FFD080;stroke-width:0.5;" width="197" x="61.5" y="153.13"/><rect fill="#FFD080" height="5" style="stroke:#FFD080;stroke-width:0.5;" width="197" x="61.5" y="180.13"/><rect codeLine="5" fill="none" height="238.6792" id="Connector" rx="5" ry="5" style="stroke:#181818;stroke-width:0.5;" width="197" x="61.5" y="153.13"/><ellipse cx="121.25" cy="169.13" fill="#ADD1B2" rx="11" ry="11" style="stroke:#181818;stroke-width:1.0;"/><path d="M121.3594,164.6613 Q120.4375,164.6613 119.7031,164.9738 Q118.9844,165.2863 118.4844,165.88 Q117.9844,166.4581 117.7031,167.3331 Q117.4375,168.2081 117.4375,169.3019 Q117.4375,170.7394 117.875,171.7863 Q118.3281,172.8331 119.1719,173.38 Q120.0313,173.9269 121.3438,173.9269 Q122.125,173.9269 122.8125,173.8019 Q123.5156,173.6613 124.5156,173.3488 L124.5156,175.2238 Q123.6563,175.5519 122.8906,175.6769 Q122.1406,175.8019 121.125,175.8019 Q119.2031,175.8019 117.8906,175.005 Q116.5938,174.1925 115.9375,172.7238 Q115.2813,171.2394 115.2813,169.2706 Q115.2813,167.8488 115.6719,166.6769 Q116.0781,165.4894 116.8594,164.6144 Q117.6406,163.7394 118.7813,163.2706 Q119.9219,162.7863 121.3906,162.7863 Q122.3438,162.7863 123.2344,162.9894 Q124.1406,163.1769 125.0781,163.6456 L124.25,165.4269 Q123.4688,165.0519 122.8125,164.8644 Q122.1563,164.6613 121.3594,164.6613 Z " fill="#000000"/><text fill="#000000" font-family="sans-serif" font-size="14" lengthAdjust="spacing" textLength="69" x="141.75" y="174.562">Connector</text><line style="stroke:#181818;stroke-width:0.5;" x1="62.5" x2="257.5" y1="185.13" y2="185.13"/><text fill="#000000" font-family="sans-serif" font-size="14" lengthAdjust="spacing" textLength="86" x="67.5" y="204.0959">name: string</text><text fill="#000000" font-family="sans-serif" font-size="14" lengthAdjust="spacing" textLength="47" x="67.5" y="223.1639">ip: inet</text><text fill="#000000" font-family="sans-serif" font-size="14" lengthAdjust="spacing" textLength="96" x="67.5" y="242.2318">sds_url: string</text><text fill="#000000" font-family="sans-serif" font-size="14" lengthAdjust="spacing" textLength="86" x="67.5" y="261.2997">sds_xml: text</text><text fill="#000000" font-family="sans-serif" font-size="14" lengthAdjust="spacing" textLength="185" x="67.5" y="280.3676">sds_updated_at: timestamp</text><text fill="#000000" font-family="sans-serif" font-size="14" lengthAdjust="spacing" textLength="115" x="67.5" y="299.4355">properties: jsonb</text><text fill="#000000" font-family="sans-serif" font-size="14" lengthAdjust="spacing" textLength="148" x="67.5" y="318.5034">last_check: timestamp</text><text fill="#000000" font-family="sans-serif" font-size="14" lengthAdjust="spacing" textLength="169" x="67.5" y="337.5714">last_check_ok: timestamp</text><text fill="#000000" font-family="sans-serif" font-size="14" lengthAdjust="spacing" textLength="120" x="67.5" y="356.6393">condition: integer</text><text fill="#000000" font-family="sans-serif" font-size="14" lengthAdjust="spacing" textLength="167" x="67.5" y="375.7072">manual_update: boolean</text><line style="stroke:#181818;stroke-width:0.5;" x1="62.5" x2="257.5" y1="383.8092" y2="383.8092"/></g><!--class Location--><g id="elem_Location"><rect codeLine="18" fill="#FFF1D9" filter="url(#f1r2pxs725qzfk)" height="86.1358" id="Location" rx="5" ry="5" style="stroke:#181818;stroke-width:0.5;" width="136" x="7" y="7"/><rect fill="#FFD080" height="32" rx="5" ry="5" style="stroke:#FFD080;stroke-width:0.5;" width="136" x="7" y="7"/><rect fill="#FFD080" height="5" style="stroke:#FFD080;stroke-width:0.5;" width="136" x="7" y="34"/><rect codeLine="18" fill="none" height="86.1358" id="Location" rx="5" ry="5" style="stroke:#181818;stroke-width:0.5;" width="136" x="7" y="7"/><ellipse cx="43.6" cy="23" fill="#ADD1B2" rx="11" ry="11" style="stroke:#181818;stroke-width:1.0;"/><path d="M43.7094,18.5313 Q42.7875,18.5313 42.0531,18.8438 Q41.3344,19.1563 40.8344,19.75 Q40.3344,20.3281 40.0531,21.2031 Q39.7875,22.0781 39.7875,23.1719 Q39.7875,24.6094 40.225,25.6563 Q40.6781,26.7031 41.5219,27.25 Q42.3813,27.7969 43.6938,27.7969 Q44.475,27.7969 45.1625,27.6719 Q45.8656,27.5313 46.8656,27.2188 L46.8656,29.0938 Q46.0063,29.4219 45.2406,29.5469 Q44.4906,29.6719 43.475,29.6719 Q41.5531,29.6719 40.2406,28.875 Q38.9438,28.0625 38.2875,26.5938 Q37.6313,25.1094 37.6313,23.1406 Q37.6313,21.7188 38.0219,20.5469 Q38.4281,19.3594 39.2094,18.4844 Q39.9906,17.6094 41.1313,17.1406 Q42.2719,16.6563 43.7406,16.6563 Q44.6938,16.6563 45.5844,16.8594 Q46.4906,17.0469 47.4281,17.5156 L46.6,19.2969 Q45.8188,18.9219 45.1625,18.7344 Q44.5063,18.5313 43.7094,18.5313 Z " fill="#000000"/><text fill="#000000" font-family="sans-serif" font-size="14" lengthAdjust="spacing" textLength="56" x="62.4" y="28.432">Location</text><line style="stroke:#181818;stroke-width:0.5;" x1="8" x2="142" y1="39" y2="39"/><text fill="#000000" font-family="sans-serif" font-size="14" lengthAdjust="spacing" textLength="65" x="13" y="57.9659">lid: string</text><text fill="#000000" font-family="sans-serif" font-size="14" lengthAdjust="spacing" textLength="124" x="13" y="77.0339">description: string</text><line style="stroke:#181818;stroke-width:0.5;" x1="8" x2="142" y1="85.1358" y2="85.1358"/></g><!--class Client--><g id="elem_Client"><rect codeLine="23" fill="#FFF1D9" filter="url(#f1r2pxs725qzfk)" height="86.1358" id="Client" rx="5" ry="5" style="stroke:#181818;stroke-width:0.5;" width="136" x="178" y="7"/><rect fill="#FFD080" height="32" rx="5" ry="5" style="stroke:#FFD080;stroke-width:0.5;" width="136" x="178" y="7"/><rect fill="#FFD080" height="5" style="stroke:#FFD080;stroke-width:0.5;" width="136" x="178" y="34"/><rect codeLine="23" fill="none" height="86.1358" id="Client" rx="5" ry="5" style="stroke:#181818;stroke-width:0.5;" width="136" x="178" y="7"/><ellipse cx="222.25" cy="23" fill="#ADD1B2" rx="11" ry="11" style="stroke:#181818;stroke-width:1.0;"/><path d="M222.3594,18.5313 Q221.4375,18.5313 220.7031,18.8438 Q219.9844,19.1563 219.4844,19.75 Q218.9844,20.3281 218.7031,21.2031 Q218.4375,22.0781 218.4375,23.1719 Q218.4375,24.6094 218.875,25.6563 Q219.3281,26.7031 220.1719,27.25 Q221.0313,27.7969 222.3438,27.7969 Q223.125,27.7969 223.8125,27.6719 Q224.5156,27.5313 225.5156,27.2188 L225.5156,29.0938 Q224.6563,29.4219 223.8906,29.5469 Q223.1406,29.6719 222.125,29.6719 Q220.2031,29.6719 218.8906,28.875 Q217.5938,28.0625 216.9375,26.5938 Q216.2813,25.1094 216.2813,23.1406 Q216.2813,21.7188 216.6719,20.5469 Q217.0781,19.3594 217.8594,18.4844 Q218.6406,17.6094 219.7813,17.1406 Q220.9219,16.6563 222.3906,16.6563 Q223.3438,16.6563 224.2344,16.8594 Q225.1406,17.0469 226.0781,17.5156 L225.25,19.2969 Q224.4688,18.9219 223.8125,18.7344 Q223.1563,18.5313 222.3594,18.5313 Z " fill="#000000"/><text fill="#000000" font-family="sans-serif" font-size="14" lengthAdjust="spacing" textLength="39" x="242.75" y="28.432">Client</text><line style="stroke:#181818;stroke-width:0.5;" x1="179" x2="313" y1="39" y2="39"/><text fill="#000000" font-family="sans-serif" font-size="14" lengthAdjust="spacing" textLength="86" x="184" y="57.9659">name: string</text><text fill="#000000" font-family="sans-serif" font-size="14" lengthAdjust="spacing" textLength="124" x="184" y="77.0339">description: string</text><line style="stroke:#181818;stroke-width:0.5;" x1="179" x2="313" y1="85.1358" y2="85.1358"/></g><!--link Location to Connector--><g id="link_Location_Connector"><path codeLine="28" d="M91.39,93.56 C98.05,110.82 106.1,131.7 114.31,153 " fill="none" id="Location-Connector" style="stroke:#181818;stroke-width:1.0;"/><text fill="#000000" font-family="sans-serif" font-size="13" lengthAdjust="spacing" textLength="7" x="86.2832" y="115.1452">*</text><text fill="#000000" font-family="sans-serif" font-size="13" lengthAdjust="spacing" textLength="7" x="104.005" y="141.3228">*</text></g><!--link Client to Connector--><g id="link_Client_Connector"><path codeLine="29" d="M229.42,93.56 C222.68,110.82 214.53,131.7 206.23,153 " fill="none" id="Client-Connector" style="stroke:#181818;stroke-width:1.0;"/><text fill="#000000" font-family="sans-serif" font-size="13" lengthAdjust="spacing" textLength="7" x="219.4707" y="115.1452">*</text><text fill="#000000" font-family="sans-serif" font-size="13" lengthAdjust="spacing" textLength="7" x="202.1009" y="141.3228">*</text></g><!--SRC=[TP11RW8n34NtEONB4eaUOBPikSCe92wuJUp8CH9IrRlN0yCKAbWbUT_spxT90nFOYvbKoAIOZ8H3UBCZLeGaAMg63tNrFOHKOk-m5MQl4mNu3W0SAmxGJOaF_gGs036QNtlkuqdBdJYHStLYU5ugMew6UOpcc2fsYxMvrbGQgX7s0JwxyDwP-zkOZfY-7cl_-2Z_f2ISQGerVSlmWEgmHZx5CbiFdbyAHWu_juWxpptrN08ModSHClQarAuJPxhqRGiXsxErl6XRZ5Rh5MmsbsFPRvZ7FTL-0G00]--></g></svg>