<?xml version="1.0" encoding="us-ascii" standalone="no"?><svg xmlns="http://www.w3.org/2000/svg" xmlns:xlink="http://www.w3.org/1999/xlink" contentStyleType="text/css" height="367px" preserveAspectRatio="none" style="width:250px;height:367px;background:#FFFFFF;" version="1.1" viewBox="0 0 250 367" width="250px" zoomAndPan="magnify"><defs><filter height="300%" id="f1c4i2hb0mxi2y" width="300%" x="-1" y="-1"><feGaussianBlur result="blurOut" stdDeviation="2.0"/><feColorMatrix in="blurOut" result="blurOut2" type="matrix" values="0 0 0 0 0 0 0 0 0 0 0 0 0 0 0 0 0 0 .4 0"/><feOffset dx="4.0" dy="4.0" in="blurOut2" result="blurOut3"/><feBlend in="SourceGraphic" in2="blurOut3" mode="normal"/></filter></defs><g><!--class rise--><g id="elem_rise"><rect codeLine="5" fill="#FFF1D9" filter="url(#f1c4i2hb0mxi2y)" height="162.4075" id="rise" rx="5" ry="5" style="stroke:#181818;stroke-width:0.5;" width="229" x="7" y="7"/><rect fill="#FFD080" height="32" rx="5" ry="5" style="stroke:#FFD080;stroke-width:0.5;" width="229" x="7" y="7"/><rect fill="#FFD080" height="5" style="stroke:#FFD080;stroke-width:0.5;" width="229" x="7" y="34"/><rect codeLine="5" fill="none" height="162.4075" id="rise" rx="5" ry="5" style="stroke:#181818;stroke-width:0.5;" width="229" x="7" y="7"/><ellipse cx="22" cy="23" fill="#ADD1B2" rx="11" ry="11" style="stroke:#181818;stroke-width:1.0;"/><path d="M22.1094,18.5313 Q21.1875,18.5313 20.4531,18.8438 Q19.7344,19.1563 19.2344,19.75 Q18.7344,20.3281 18.4531,21.2031 Q18.1875,22.0781 18.1875,23.1719 Q18.1875,24.6094 18.625,25.6563 Q19.0781,26.7031 19.9219,27.25 Q20.7813,27.7969 22.0938,27.7969 Q22.875,27.7969 23.5625,27.6719 Q24.2656,27.5313 25.2656,27.2188 L25.2656,29.0938 Q24.4063,29.4219 23.6406,29.5469 Q22.8906,29.6719 21.875,29.6719 Q19.9531,29.6719 18.6406,28.875 Q17.3438,28.0625 16.6875,26.5938 Q16.0313,25.1094 16.0313,23.1406 Q16.0313,21.7188 16.4219,20.5469 Q16.8281,19.3594 17.6094,18.4844 Q18.3906,17.6094 19.5313,17.1406 Q20.6719,16.6563 22.1406,16.6563 Q23.0938,16.6563 23.9844,16.8594 Q24.8906,17.0469 25.8281,17.5156 L25,19.2969 Q24.2188,18.9219 23.5625,18.7344 Q22.9063,18.5313 22.1094,18.5313 Z " fill="#000000"/><text fill="#000000" font-family="sans-serif" font-size="14" lengthAdjust="spacing" textLength="197" x="36" y="28.432">RISE::TIClient::CardTerminals</text><line style="stroke:#181818;stroke-width:0.5;" x1="8" x2="235" y1="39" y2="39"/><text fill="#000000" font-family="sans-serif" font-size="14" lengthAdjust="spacing" textLength="46" x="13" y="57.9659">ticlient</text><line style="stroke:#181818;stroke-width:0.5;" x1="8" x2="235" y1="66.0679" y2="66.0679"/><ellipse cx="18" cy="81.1019" fill="#84BE84" rx="3" ry="3" style="stroke:#038048;stroke-width:1.0;"/><text fill="#000000" font-family="sans-serif" font-size="14" lengthAdjust="spacing" textLength="85" x="27" y="85.0339">get_proxies()</text><ellipse cx="18" cy="100.1698" fill="#84BE84" rx="3" ry="3" style="stroke:#038048;stroke-width:1.0;"/><text fill="#000000" font-family="sans-serif" font-size="14" lengthAdjust="spacing" textLength="122" x="27" y="104.1018">get_proxy(ktproxy)</text><ellipse cx="18" cy="119.2377" fill="#84BE84" rx="3" ry="3" style="stroke:#038048;stroke-width:1.0;"/><text fill="#000000" font-family="sans-serif" font-size="14" lengthAdjust="spacing" textLength="142" x="27" y="123.1697">create_proxy(ktproxy)</text><ellipse cx="18" cy="138.3056" fill="#84BE84" rx="3" ry="3" style="stroke:#038048;stroke-width:1.0;"/><text fill="#000000" font-family="sans-serif" font-size="14" lengthAdjust="spacing" textLength="148" x="27" y="142.2376">update_proxy(ktproxy)</text><ellipse cx="18" cy="157.3735" fill="#84BE84" rx="3" ry="3" style="stroke:#038048;stroke-width:1.0;"/><text fill="#000000" font-family="sans-serif" font-size="14" lengthAdjust="spacing" textLength="150" x="27" y="161.3055">destroy_proxy(ktproxy)</text></g><!--class rise_base--><g id="elem_rise_base"><rect codeLine="14" fill="#FFF1D9" filter="url(#f1c4i2hb0mxi2y)" height="124.2717" id="rise_base" rx="5" ry="5" style="stroke:#181818;stroke-width:0.5;" width="152" x="45.5" y="229.41"/><rect fill="#FFD080" height="32" rx="5" ry="5" style="stroke:#FFD080;stroke-width:0.5;" width="152" x="45.5" y="229.41"/><rect fill="#FFD080" height="5" style="stroke:#FFD080;stroke-width:0.5;" width="152" x="45.5" y="256.41"/><rect codeLine="14" fill="none" height="124.2717" id="rise_base" rx="5" ry="5" style="stroke:#181818;stroke-width:0.5;" width="152" x="45.5" y="229.41"/><ellipse cx="60.5" cy="245.41" fill="#A9DCDF" rx="11" ry="11" style="stroke:#181818;stroke-width:1.0;"/><path d="M63.8438,250.66 L62.375,246.91 L57.9375,246.91 L56.5,250.66 L54.375,250.66 L59.3281,237.9413 L61.0781,237.9413 L66,250.66 L63.8438,250.66 Z M60.5,241.7069 Q60.4531,241.5506 60.3281,241.1913 Q60.2031,240.8319 60.0938,240.4569 Q59.9844,240.0663 60.1875,240.0038 Q60.3438,240.1913 60.25,240.5506 Q60.1563,240.8944 60.0625,241.1913 Q59.9688,241.4725 59.8906,241.7069 L58.6563,245.0194 L61.7344,245.0194 L60.5,241.7069 Z " fill="#000000"/><text fill="#000000" font-family="sans-serif" font-size="14" font-style="italic" lengthAdjust="spacing" textLength="120" x="74.5" y="250.842">RISE::TIClient::Base</text><line style="stroke:#181818;stroke-width:0.5;" x1="46.5" x2="196.5" y1="261.41" y2="261.41"/><text fill="#000000" font-family="sans-serif" font-size="14" lengthAdjust="spacing" textLength="46" x="51.5" y="280.3759">ticlient</text><line style="stroke:#181818;stroke-width:0.5;" x1="46.5" x2="196.5" y1="288.4779" y2="288.4779"/><polygon fill="#FFFF44" points="56.5,298.5119,60.5,302.5119,56.5,306.5119,52.5,302.5119" style="stroke:#B38D22;stroke-width:1.0;"/><text fill="#000000" font-family="sans-serif" font-size="14" lengthAdjust="spacing" textLength="72" x="65.5" y="307.4439">api_token()</text><polygon fill="#FFFF44" points="56.5,317.5798,60.5,321.5798,56.5,325.5798,52.5,321.5798" style="stroke:#B38D22;stroke-width:1.0;"/><text fill="#000000" font-family="sans-serif" font-size="14" lengthAdjust="spacing" textLength="98" x="65.5" y="326.5118">authorization()</text><polygon fill="#FFFF44" points="56.5,336.6477,60.5,340.6477,56.5,344.6477,52.5,340.6477" style="stroke:#B38D22;stroke-width:1.0;"/><text fill="#000000" font-family="sans-serif" font-size="14" lengthAdjust="spacing" textLength="82" x="65.5" y="345.5797">connection()</text></g><!--reverse link rise to rise_base--><g id="link_rise_rise_base"><path codeLine="21" d="M121.5,187.65 C121.5,207.47 121.5,210.39 121.5,229.15 " fill="none" id="rise-backto-rise_base" style="stroke:#181818;stroke-width:1.0;"/><polygon fill="none" points="121.5,169.65,115.5,187.65,127.5,187.65,121.5,169.65" style="stroke:#181818;stroke-width:1.0;"/></g><!--SRC=[RP1DReD038NtSmgNR8WgSW3KLQ8ksARiaHdSO0N6o6EafZztBvb8RTMmilM-9_lP9XEOG2jcCaB7IjvOWdCFrjD8uCMZTl2g2ztjdFC3nWZPiNfvBikwEWnCmShoi9Xgqf433Z43ZA0S2JuSWB5FfgLzF94rayeRKyotVuLBVhPKa-gLq6W5p5Et3ZgAfdBvJxwSmtOXwEq-ynuZ_KHjMhpFky696vCpXPHsWxFreloErnVT92yXt5wMRm7WkZ5T_lHP5B-3lm40]--></g></svg>