<?xml version="1.0" encoding="us-ascii" standalone="no"?><svg xmlns="http://www.w3.org/2000/svg" xmlns:xlink="http://www.w3.org/1999/xlink" contentStyleType="text/css" height="761px" preserveAspectRatio="none" style="width:482px;height:761px;background:#FFFFFF;" version="1.1" viewBox="0 0 482 761" width="482px" zoomAndPan="magnify"><defs><filter height="300%" id="fv0wcrim7pj71" width="300%" x="-1" y="-1"><feGaussianBlur result="blurOut" stdDeviation="2.0"/><feColorMatrix in="blurOut" result="blurOut2" type="matrix" values="0 0 0 0 0 0 0 0 0 0 0 0 0 0 0 0 0 0 .4 0"/><feOffset dx="4.0" dy="4.0" in="blurOut2" result="blurOut3"/><feBlend in="SourceGraphic" in2="blurOut3" mode="normal"/></filter></defs><g><!--class rmi--><g id="elem_rmi"><rect codeLine="5" fill="#FFF1D9" filter="url(#fv0wcrim7pj71)" height="219.6113" id="rmi" rx="5" ry="5" style="stroke:#181818;stroke-width:0.5;" width="211" x="137.5" y="7"/><rect fill="#FFD080" height="32" rx="5" ry="5" style="stroke:#FFD080;stroke-width:0.5;" width="211" x="137.5" y="7"/><rect fill="#FFD080" height="5" style="stroke:#FFD080;stroke-width:0.5;" width="211" x="137.5" y="34"/><rect codeLine="5" fill="none" height="219.6113" id="rmi" rx="5" ry="5" style="stroke:#181818;stroke-width:0.5;" width="211" x="137.5" y="7"/><ellipse cx="176.8" cy="23" fill="#B4A7E5" rx="11" ry="11" style="stroke:#181818;stroke-width:1.0;"/><path d="M178.8938,29.5 L173.9875,29.5 L173.9875,28.125 L175.4094,27.8125 L175.4094,18.5313 L173.9875,18.1875 L173.9875,16.8281 L178.8938,16.8281 L178.8938,18.1875 L177.4719,18.5313 L177.4719,27.8125 L178.8938,28.125 L178.8938,29.5 Z " fill="#000000"/><text fill="#000000" font-family="sans-serif" font-size="14" font-style="italic" lengthAdjust="spacing" textLength="125" x="196.2" y="28.432">CardTerminals::RMI</text><line style="stroke:#181818;stroke-width:0.5;" x1="138.5" x2="347.5" y1="39" y2="39"/><text fill="#000000" font-family="sans-serif" font-size="14" lengthAdjust="spacing" textLength="93" x="143.5" y="57.9659">card_terminal</text><line style="stroke:#181818;stroke-width:0.5;" x1="138.5" x2="347.5" y1="66.0679" y2="66.0679"/><ellipse cx="148.5" cy="81.1019" fill="#84BE84" rx="3" ry="3" style="stroke:#038048;stroke-width:1.0;"/><text fill="#000000" font-family="sans-serif" font-size="14" lengthAdjust="spacing" textLength="122" x="157.5" y="85.0339">available_actions()</text><ellipse cx="148.5" cy="100.1698" fill="#84BE84" rx="3" ry="3" style="stroke:#038048;stroke-width:1.0;"/><text fill="#000000" font-family="sans-serif" font-size="14" lengthAdjust="spacing" textLength="65" x="157.5" y="104.1018">rmi_port()</text><ellipse cx="148.5" cy="119.2377" fill="#84BE84" rx="3" ry="3" style="stroke:#038048;stroke-width:1.0;"/><text fill="#000000" font-family="sans-serif" font-size="14" lengthAdjust="spacing" textLength="52" x="157.5" y="123.1697">reboot()</text><ellipse cx="148.5" cy="138.3056" fill="#84BE84" rx="3" ry="3" style="stroke:#038048;stroke-width:1.0;"/><text fill="#000000" font-family="sans-serif" font-size="14" lengthAdjust="spacing" textLength="127" x="157.5" y="142.2376">get_idle_message()</text><ellipse cx="148.5" cy="157.3735" fill="#84BE84" rx="3" ry="3" style="stroke:#038048;stroke-width:1.0;"/><text fill="#000000" font-family="sans-serif" font-size="14" lengthAdjust="spacing" textLength="185" x="157.5" y="161.3055">set_idle_message(message)</text><ellipse cx="148.5" cy="176.4415" fill="#84BE84" rx="3" ry="3" style="stroke:#038048;stroke-width:1.0;"/><text fill="#000000" font-family="sans-serif" font-size="14" lengthAdjust="spacing" textLength="107" x="157.5" y="180.3734">verify_pin(iccsn)</text><ellipse cx="148.5" cy="195.5094" fill="#84BE84" rx="3" ry="3" style="stroke:#038048;stroke-width:1.0;"/><text fill="#000000" font-family="sans-serif" font-size="14" lengthAdjust="spacing" textLength="84" x="157.5" y="199.4414">supported?()</text><ellipse cx="148.5" cy="214.5773" fill="#84BE84" rx="3" ry="3" style="stroke:#038048;stroke-width:1.0;"/><text fill="#000000" font-family="sans-serif" font-size="14" lengthAdjust="spacing" textLength="62" x="157.5" y="218.5093">get_info()</text></g><!--class rmi_koco--><g id="elem_rmi_koco"><rect codeLine="17" fill="#FFF1D9" filter="url(#fv0wcrim7pj71)" height="276.815" id="rmi_koco" rx="5" ry="5" style="stroke:#181818;stroke-width:0.5;" width="224" x="7" y="286.61"/><rect fill="#FFD080" height="32" rx="5" ry="5" style="stroke:#FFD080;stroke-width:0.5;" width="224" x="7" y="286.61"/><rect fill="#FFD080" height="5" style="stroke:#FFD080;stroke-width:0.5;" width="224" x="7" y="313.61"/><rect codeLine="17" fill="none" height="276.815" id="rmi_koco" rx="5" ry="5" style="stroke:#181818;stroke-width:0.5;" width="224" x="7" y="286.61"/><ellipse cx="22" cy="302.61" fill="#ADD1B2" rx="11" ry="11" style="stroke:#181818;stroke-width:1.0;"/><path d="M22.1094,298.1413 Q21.1875,298.1413 20.4531,298.4538 Q19.7344,298.7663 19.2344,299.36 Q18.7344,299.9381 18.4531,300.8131 Q18.1875,301.6881 18.1875,302.7819 Q18.1875,304.2194 18.625,305.2663 Q19.0781,306.3131 19.9219,306.86 Q20.7813,307.4069 22.0938,307.4069 Q22.875,307.4069 23.5625,307.2819 Q24.2656,307.1413 25.2656,306.8288 L25.2656,308.7038 Q24.4063,309.0319 23.6406,309.1569 Q22.8906,309.2819 21.875,309.2819 Q19.9531,309.2819 18.6406,308.485 Q17.3438,307.6725 16.6875,306.2038 Q16.0313,304.7194 16.0313,302.7506 Q16.0313,301.3288 16.4219,300.1569 Q16.8281,298.9694 17.6094,298.0944 Q18.3906,297.2194 19.5313,296.7506 Q20.6719,296.2663 22.1406,296.2663 Q23.0938,296.2663 23.9844,296.4694 Q24.8906,296.6569 25.8281,297.1256 L25,298.9069 Q24.2188,298.5319 23.5625,298.3444 Q22.9063,298.1413 22.1094,298.1413 Z " fill="#000000"/><text fill="#000000" font-family="sans-serif" font-size="14" lengthAdjust="spacing" textLength="192" x="36" y="308.042">CardTerminals::RMI::OrgaV1</text><line style="stroke:#181818;stroke-width:0.5;" x1="8" x2="230" y1="318.61" y2="318.61"/><text fill="#000000" font-family="sans-serif" font-size="14" lengthAdjust="spacing" textLength="93" x="13" y="337.5759">card_terminal</text><line style="stroke:#181818;stroke-width:0.5;" x1="8" x2="230" y1="345.6779" y2="345.6779"/><ellipse cx="18" cy="360.7119" fill="#84BE84" rx="3" ry="3" style="stroke:#038048;stroke-width:1.0;"/><text fill="#000000" font-family="sans-serif" font-size="14" lengthAdjust="spacing" textLength="122" x="27" y="364.6439">available_actions()</text><ellipse cx="18" cy="379.7798" fill="#84BE84" rx="3" ry="3" style="stroke:#038048;stroke-width:1.0;"/><text fill="#000000" font-family="sans-serif" font-size="14" lengthAdjust="spacing" textLength="65" x="27" y="383.7118">rmi_port()</text><ellipse cx="18" cy="398.8477" fill="#84BE84" rx="3" ry="3" style="stroke:#038048;stroke-width:1.0;"/><text fill="#000000" font-family="sans-serif" font-size="14" lengthAdjust="spacing" textLength="52" x="27" y="402.7797">reboot()</text><ellipse cx="18" cy="417.9156" fill="#84BE84" rx="3" ry="3" style="stroke:#038048;stroke-width:1.0;"/><text fill="#000000" font-family="sans-serif" font-size="14" lengthAdjust="spacing" textLength="127" x="27" y="421.8476">get_idle_message()</text><ellipse cx="18" cy="436.9835" fill="#84BE84" rx="3" ry="3" style="stroke:#038048;stroke-width:1.0;"/><text fill="#000000" font-family="sans-serif" font-size="14" lengthAdjust="spacing" textLength="185" x="27" y="440.9155">set_idle_message(message)</text><ellipse cx="18" cy="456.0515" fill="#84BE84" rx="3" ry="3" style="stroke:#038048;stroke-width:1.0;"/><text fill="#000000" font-family="sans-serif" font-size="14" lengthAdjust="spacing" textLength="107" x="27" y="459.9834">verify_pin(iccsn)</text><ellipse cx="18" cy="475.1194" fill="#84BE84" rx="3" ry="3" style="stroke:#038048;stroke-width:1.0;"/><text fill="#000000" font-family="sans-serif" font-size="14" lengthAdjust="spacing" textLength="111" x="27" y="479.0514">remote_pairing()</text><ellipse cx="18" cy="494.1873" fill="#84BE84" rx="3" ry="3" style="stroke:#038048;stroke-width:1.0;"/><text fill="#000000" font-family="sans-serif" font-size="14" lengthAdjust="spacing" textLength="133" x="27" y="498.1193">supported?() -&gt; true</text><ellipse cx="18" cy="513.2552" fill="#84BE84" rx="3" ry="3" style="stroke:#038048;stroke-width:1.0;"/><text fill="#000000" font-family="sans-serif" font-size="14" lengthAdjust="spacing" textLength="62" x="27" y="517.1872">get_info()</text><ellipse cx="18" cy="532.3231" fill="#84BE84" rx="3" ry="3" style="stroke:#038048;stroke-width:1.0;"/><text fill="#000000" font-family="sans-serif" font-size="14" lengthAdjust="spacing" textLength="106" x="27" y="536.2551">get_properties()</text><ellipse cx="18" cy="551.391" fill="#84BE84" rx="3" ry="3" style="stroke:#038048;stroke-width:1.0;"/><text fill="#000000" font-family="sans-serif" font-size="14" lengthAdjust="spacing" textLength="104" x="27" y="555.323">set_properties()</text></g><!--class rmi_null--><g id="elem_rmi_null"><rect codeLine="32" fill="#FFF1D9" filter="url(#fv0wcrim7pj71)" height="124.2717" id="rmi_null" rx="5" ry="5" style="stroke:#181818;stroke-width:0.5;" width="202" x="266" y="362.89"/><rect fill="#FFD080" height="32" rx="5" ry="5" style="stroke:#FFD080;stroke-width:0.5;" width="202" x="266" y="362.89"/><rect fill="#FFD080" height="5" style="stroke:#FFD080;stroke-width:0.5;" width="202" x="266" y="389.89"/><rect codeLine="32" fill="none" height="124.2717" id="rmi_null" rx="5" ry="5" style="stroke:#181818;stroke-width:0.5;" width="202" x="266" y="362.89"/><ellipse cx="281" cy="378.89" fill="#ADD1B2" rx="11" ry="11" style="stroke:#181818;stroke-width:1.0;"/><path d="M281.1094,374.4213 Q280.1875,374.4213 279.4531,374.7338 Q278.7344,375.0463 278.2344,375.64 Q277.7344,376.2181 277.4531,377.0931 Q277.1875,377.9681 277.1875,379.0619 Q277.1875,380.4994 277.625,381.5463 Q278.0781,382.5931 278.9219,383.14 Q279.7813,383.6869 281.0938,383.6869 Q281.875,383.6869 282.5625,383.5619 Q283.2656,383.4213 284.2656,383.1088 L284.2656,384.9838 Q283.4063,385.3119 282.6406,385.4369 Q281.8906,385.5619 280.875,385.5619 Q278.9531,385.5619 277.6406,384.765 Q276.3438,383.9525 275.6875,382.4838 Q275.0313,380.9994 275.0313,379.0306 Q275.0313,377.6088 275.4219,376.4369 Q275.8281,375.2494 276.6094,374.3744 Q277.3906,373.4994 278.5313,373.0306 Q279.6719,372.5463 281.1406,372.5463 Q282.0938,372.5463 282.9844,372.7494 Q283.8906,372.9369 284.8281,373.4056 L284,375.1869 Q283.2188,374.8119 282.5625,374.6244 Q281.9063,374.4213 281.1094,374.4213 Z " fill="#000000"/><text fill="#000000" font-family="sans-serif" font-size="14" lengthAdjust="spacing" textLength="170" x="295" y="384.322">CardTerminals::RMI::Null</text><line style="stroke:#181818;stroke-width:0.5;" x1="267" x2="467" y1="394.89" y2="394.89"/><text fill="#000000" font-family="sans-serif" font-size="14" lengthAdjust="spacing" textLength="93" x="272" y="413.8559">card_terminal</text><line style="stroke:#181818;stroke-width:0.5;" x1="267" x2="467" y1="421.9579" y2="421.9579"/><ellipse cx="277" cy="436.9919" fill="#84BE84" rx="3" ry="3" style="stroke:#038048;stroke-width:1.0;"/><text fill="#000000" font-family="sans-serif" font-size="14" lengthAdjust="spacing" textLength="122" x="286" y="440.9239">available_actions()</text><ellipse cx="277" cy="456.0598" fill="#84BE84" rx="3" ry="3" style="stroke:#038048;stroke-width:1.0;"/><text fill="#000000" font-family="sans-serif" font-size="14" lengthAdjust="spacing" textLength="65" x="286" y="459.9918">rmi_port()</text><ellipse cx="277" cy="475.1277" fill="#84BE84" rx="3" ry="3" style="stroke:#038048;stroke-width:1.0;"/><text fill="#000000" font-family="sans-serif" font-size="14" lengthAdjust="spacing" textLength="137" x="286" y="479.0597">supported?() -&gt; false</text></g><!--class rmi_base--><g id="elem_rmi_base"><rect codeLine="39" fill="#FFF1D9" filter="url(#fv0wcrim7pj71)" height="124.2717" id="rmi_base" rx="5" ry="5" style="stroke:#181818;stroke-width:0.5;" width="194" x="146" y="623.43"/><rect fill="#FFD080" height="32" rx="5" ry="5" style="stroke:#FFD080;stroke-width:0.5;" width="194" x="146" y="623.43"/><rect fill="#FFD080" height="5" style="stroke:#FFD080;stroke-width:0.5;" width="194" x="146" y="650.43"/><rect codeLine="39" fill="none" height="124.2717" id="rmi_base" rx="5" ry="5" style="stroke:#181818;stroke-width:0.5;" width="194" x="146" y="623.43"/><ellipse cx="161" cy="639.43" fill="#A9DCDF" rx="11" ry="11" style="stroke:#181818;stroke-width:1.0;"/><path d="M164.3438,644.68 L162.875,640.93 L158.4375,640.93 L157,644.68 L154.875,644.68 L159.8281,631.9613 L161.5781,631.9613 L166.5,644.68 L164.3438,644.68 Z M161,635.7269 Q160.9531,635.5706 160.8281,635.2113 Q160.7031,634.8519 160.5938,634.4769 Q160.4844,634.0863 160.6875,634.0238 Q160.8438,634.2113 160.75,634.5706 Q160.6563,634.9144 160.5625,635.2113 Q160.4688,635.4925 160.3906,635.7269 L159.1563,639.0394 L162.2344,639.0394 L161,635.7269 Z " fill="#000000"/><text fill="#000000" font-family="sans-serif" font-size="14" font-style="italic" lengthAdjust="spacing" textLength="162" x="175" y="644.862">CardTerminals::RMI::Base</text><line style="stroke:#181818;stroke-width:0.5;" x1="147" x2="339" y1="655.43" y2="655.43"/><text fill="#000000" font-family="sans-serif" font-size="14" lengthAdjust="spacing" textLength="93" x="152" y="674.3959">card_terminal</text><line style="stroke:#181818;stroke-width:0.5;" x1="147" x2="339" y1="682.4979" y2="682.4979"/><polygon fill="#FFFF44" points="157,692.5319,161,696.5319,157,700.5319,153,696.5319" style="stroke:#B38D22;stroke-width:1.0;"/><text fill="#000000" font-family="sans-serif" font-size="14" lengthAdjust="spacing" textLength="122" x="166" y="701.4639">available_actions()</text><polygon fill="#FFFF44" points="157,711.5998,161,715.5998,157,719.5998,153,715.5998" style="stroke:#B38D22;stroke-width:1.0;"/><text fill="#000000" font-family="sans-serif" font-size="14" lengthAdjust="spacing" textLength="65" x="166" y="720.5318">rmi_port()</text><ellipse cx="157" cy="735.6677" fill="#84BE84" rx="3" ry="3" style="stroke:#038048;stroke-width:1.0;"/><text fill="#000000" font-family="sans-serif" font-size="14" lengthAdjust="spacing" textLength="137" x="166" y="739.5997">supported?() -&gt; false</text></g><!--reverse link rmi to rmi_koco--><g id="link_rmi_rmi_koco"><path codeLine="46" d="M191.9999,243.7424 C184.2399,262.8924 182.84,266.36 174.82,286.17 " fill="none" id="rmi-backto-rmi_koco" style="stroke:#181818;stroke-width:1.0;stroke-dasharray:7.0,7.0;"/><polygon fill="none" points="198.76,227.06,186.4391,241.489,197.5607,245.9957,198.76,227.06" style="stroke:#181818;stroke-width:1.0;"/></g><!--reverse link rmi to rmi_null--><g id="link_rmi_rmi_null"><path codeLine="47" d="M293.9951,243.7444 C312.4251,289.2644 326.39,323.74 342.09,362.51 " fill="none" id="rmi-backto-rmi_null" style="stroke:#181818;stroke-width:1.0;stroke-dasharray:7.0,7.0;"/><polygon fill="none" points="287.24,227.06,288.4337,245.9961,299.5566,241.4927,287.24,227.06" style="stroke:#181818;stroke-width:1.0;"/></g><!--reverse link rmi_koco to rmi_base--><g id="link_rmi_koco_rmi_base"><path codeLine="48" d="M192.7774,579.8483 C202.7874,600.7083 204.87,605.05 213.55,623.15 " fill="none" id="rmi_koco-backto-rmi_base" style="stroke:#181818;stroke-width:1.0;"/><polygon fill="none" points="184.99,563.62,187.368,582.4441,198.1868,577.2525,184.99,563.62" style="stroke:#181818;stroke-width:1.0;"/></g><!--reverse link rmi_null to rmi_base--><g id="link_rmi_null_rmi_base"><path codeLine="49" d="M329.6746,503.8492 C310.0446,544.7692 292.16,582.07 272.53,622.99 " fill="none" id="rmi_null-backto-rmi_base" style="stroke:#181818;stroke-width:1.0;"/><polygon fill="none" points="337.46,487.62,324.2648,501.2541,335.0843,506.4443,337.46,487.62" style="stroke:#181818;stroke-width:1.0;"/></g><!--SRC=[lLB1IiD04BtlLupjfI89U0r5GKyUL13nkamsaxYOx2wpqu9O_zrD6wEjGGg2kIJlpSw-zoOZFe1uABs8xw2oJ4QiTqgTo3Dr1CORv0fgJjKyLyew8QxH4CokK-6HkBCEsrWK3xStCy08YO0t1T3tQHdg2P_X6csBPKiQjnfnSThJwO0EdcL0L7e_V3SasbRfV4SnOaCxDXwomtjRN1FR-bK7wnRMcEXs7QlG2r1r-UrUL_k4tfKoBSOubQOexhd1f_FFLFh56tzqD4ZF_yHZwhoG3cZPkcRn8p9a5o2yeeFe0mhi0x5OYb_wUzpl8xfRjUqu89V07_xzeUawoL2lZsKKJetJ5gumqcYXJ63ImdpQmln82_rMBpTvFYx2FjCdL-EEB3TPDhfHusJsQVK1]--></g></svg>