<?xml version="1.0" encoding="us-ascii" standalone="no"?><svg xmlns="http://www.w3.org/2000/svg" xmlns:xlink="http://www.w3.org/1999/xlink" contentStyleType="text/css" height="685px" preserveAspectRatio="none" style="width:490px;height:685px;background:#FFFFFF;" version="1.1" viewBox="0 0 490 685" width="490px" zoomAndPan="magnify"><defs><filter height="300%" id="f1vqube8pfhbhq" width="300%" x="-1" y="-1"><feGaussianBlur result="blurOut" stdDeviation="2.0"/><feColorMatrix in="blurOut" result="blurOut2" type="matrix" values="0 0 0 0 0 0 0 0 0 0 0 0 0 0 0 0 0 0 .4 0"/><feOffset dx="4.0" dy="4.0" in="blurOut2" result="blurOut3"/><feBlend in="SourceGraphic" in2="blurOut3" mode="normal"/></filter></defs><g><!--class rmi--><g id="elem_rmi"><rect codeLine="5" fill="#FFF1D9" filter="url(#f1vqube8pfhbhq)" height="200.5433" id="rmi" rx="5" ry="5" style="stroke:#181818;stroke-width:0.5;" width="211" x="143.5" y="7"/><rect fill="#FFD080" height="32" rx="5" ry="5" style="stroke:#FFD080;stroke-width:0.5;" width="211" x="143.5" y="7"/><rect fill="#FFD080" height="5" style="stroke:#FFD080;stroke-width:0.5;" width="211" x="143.5" y="34"/><rect codeLine="5" fill="none" height="200.5433" id="rmi" rx="5" ry="5" style="stroke:#181818;stroke-width:0.5;" width="211" x="143.5" y="7"/><ellipse cx="182.8" cy="23" fill="#B4A7E5" rx="11" ry="11" style="stroke:#181818;stroke-width:1.0;"/><path d="M184.8938,29.5 L179.9875,29.5 L179.9875,28.125 L181.4094,27.8125 L181.4094,18.5313 L179.9875,18.1875 L179.9875,16.8281 L184.8938,16.8281 L184.8938,18.1875 L183.4719,18.5313 L183.4719,27.8125 L184.8938,28.125 L184.8938,29.5 Z " fill="#000000"/><text fill="#000000" font-family="sans-serif" font-size="14" font-style="italic" lengthAdjust="spacing" textLength="125" x="202.2" y="28.432">CardTerminals::RMI</text><line style="stroke:#181818;stroke-width:0.5;" x1="144.5" x2="353.5" y1="39" y2="39"/><text fill="#000000" font-family="sans-serif" font-size="14" lengthAdjust="spacing" textLength="93" x="149.5" y="57.9659">card_terminal</text><line style="stroke:#181818;stroke-width:0.5;" x1="144.5" x2="353.5" y1="66.0679" y2="66.0679"/><ellipse cx="154.5" cy="81.1019" fill="#84BE84" rx="3" ry="3" style="stroke:#038048;stroke-width:1.0;"/><text fill="#000000" font-family="sans-serif" font-size="14" lengthAdjust="spacing" textLength="122" x="163.5" y="85.0339">available_actions()</text><ellipse cx="154.5" cy="100.1698" fill="#84BE84" rx="3" ry="3" style="stroke:#038048;stroke-width:1.0;"/><text fill="#000000" font-family="sans-serif" font-size="14" lengthAdjust="spacing" textLength="65" x="163.5" y="104.1018">rmi_port()</text><ellipse cx="154.5" cy="119.2377" fill="#84BE84" rx="3" ry="3" style="stroke:#038048;stroke-width:1.0;"/><text fill="#000000" font-family="sans-serif" font-size="14" lengthAdjust="spacing" textLength="52" x="163.5" y="123.1697">reboot()</text><ellipse cx="154.5" cy="138.3056" fill="#84BE84" rx="3" ry="3" style="stroke:#038048;stroke-width:1.0;"/><text fill="#000000" font-family="sans-serif" font-size="14" lengthAdjust="spacing" textLength="127" x="163.5" y="142.2376">get_idle_message()</text><ellipse cx="154.5" cy="157.3735" fill="#84BE84" rx="3" ry="3" style="stroke:#038048;stroke-width:1.0;"/><text fill="#000000" font-family="sans-serif" font-size="14" lengthAdjust="spacing" textLength="185" x="163.5" y="161.3055">set_idle_message(message)</text><ellipse cx="154.5" cy="176.4415" fill="#84BE84" rx="3" ry="3" style="stroke:#038048;stroke-width:1.0;"/><text fill="#000000" font-family="sans-serif" font-size="14" lengthAdjust="spacing" textLength="107" x="163.5" y="180.3734">verify_pin(iccsn)</text><ellipse cx="154.5" cy="195.5094" fill="#84BE84" rx="3" ry="3" style="stroke:#038048;stroke-width:1.0;"/><text fill="#000000" font-family="sans-serif" font-size="14" lengthAdjust="spacing" textLength="84" x="163.5" y="199.4414">supported?()</text></g><!--class rmi_koco--><g id="elem_rmi_koco"><rect codeLine="16" fill="#FFF1D9" filter="url(#f1vqube8pfhbhq)" height="219.6113" id="rmi_koco" rx="5" ry="5" style="stroke:#181818;stroke-width:0.5;" width="232" x="7" y="267.55"/><rect fill="#FFD080" height="32" rx="5" ry="5" style="stroke:#FFD080;stroke-width:0.5;" width="232" x="7" y="267.55"/><rect fill="#FFD080" height="5" style="stroke:#FFD080;stroke-width:0.5;" width="232" x="7" y="294.55"/><rect codeLine="16" fill="none" height="219.6113" id="rmi_koco" rx="5" ry="5" style="stroke:#181818;stroke-width:0.5;" width="232" x="7" y="267.55"/><ellipse cx="22" cy="283.55" fill="#ADD1B2" rx="11" ry="11" style="stroke:#181818;stroke-width:1.0;"/><path d="M22.1094,279.0812 Q21.1875,279.0812 20.4531,279.3937 Q19.7344,279.7062 19.2344,280.3 Q18.7344,280.8781 18.4531,281.7531 Q18.1875,282.6281 18.1875,283.7219 Q18.1875,285.1594 18.625,286.2062 Q19.0781,287.2531 19.9219,287.8 Q20.7813,288.3469 22.0938,288.3469 Q22.875,288.3469 23.5625,288.2219 Q24.2656,288.0812 25.2656,287.7687 L25.2656,289.6437 Q24.4063,289.9719 23.6406,290.0969 Q22.8906,290.2219 21.875,290.2219 Q19.9531,290.2219 18.6406,289.425 Q17.3438,288.6125 16.6875,287.1437 Q16.0313,285.6594 16.0313,283.6906 Q16.0313,282.2687 16.4219,281.0969 Q16.8281,279.9094 17.6094,279.0344 Q18.3906,278.1594 19.5313,277.6906 Q20.6719,277.2062 22.1406,277.2062 Q23.0938,277.2062 23.9844,277.4094 Q24.8906,277.5969 25.8281,278.0656 L25,279.8469 Q24.2188,279.4719 23.5625,279.2844 Q22.9063,279.0812 22.1094,279.0812 Z " fill="#000000"/><text fill="#000000" font-family="sans-serif" font-size="14" lengthAdjust="spacing" textLength="200" x="36" y="288.982">CardTerminals::RMI::KoCoBox</text><line style="stroke:#181818;stroke-width:0.5;" x1="8" x2="238" y1="299.55" y2="299.55"/><text fill="#000000" font-family="sans-serif" font-size="14" lengthAdjust="spacing" textLength="93" x="13" y="318.5159">card_terminal</text><line style="stroke:#181818;stroke-width:0.5;" x1="8" x2="238" y1="326.6179" y2="326.6179"/><ellipse cx="18" cy="341.6519" fill="#84BE84" rx="3" ry="3" style="stroke:#038048;stroke-width:1.0;"/><text fill="#000000" font-family="sans-serif" font-size="14" lengthAdjust="spacing" textLength="122" x="27" y="345.5839">available_actions()</text><ellipse cx="18" cy="360.7198" fill="#84BE84" rx="3" ry="3" style="stroke:#038048;stroke-width:1.0;"/><text fill="#000000" font-family="sans-serif" font-size="14" lengthAdjust="spacing" textLength="65" x="27" y="364.6518">rmi_port()</text><ellipse cx="18" cy="379.7877" fill="#84BE84" rx="3" ry="3" style="stroke:#038048;stroke-width:1.0;"/><text fill="#000000" font-family="sans-serif" font-size="14" lengthAdjust="spacing" textLength="52" x="27" y="383.7197">reboot()</text><ellipse cx="18" cy="398.8556" fill="#84BE84" rx="3" ry="3" style="stroke:#038048;stroke-width:1.0;"/><text fill="#000000" font-family="sans-serif" font-size="14" lengthAdjust="spacing" textLength="127" x="27" y="402.7876">get_idle_message()</text><ellipse cx="18" cy="417.9235" fill="#84BE84" rx="3" ry="3" style="stroke:#038048;stroke-width:1.0;"/><text fill="#000000" font-family="sans-serif" font-size="14" lengthAdjust="spacing" textLength="185" x="27" y="421.8555">set_idle_message(message)</text><ellipse cx="18" cy="436.9915" fill="#84BE84" rx="3" ry="3" style="stroke:#038048;stroke-width:1.0;"/><text fill="#000000" font-family="sans-serif" font-size="14" lengthAdjust="spacing" textLength="107" x="27" y="440.9234">verify_pin(iccsn)</text><ellipse cx="18" cy="456.0594" fill="#84BE84" rx="3" ry="3" style="stroke:#038048;stroke-width:1.0;"/><text fill="#000000" font-family="sans-serif" font-size="14" lengthAdjust="spacing" textLength="111" x="27" y="459.9914">remote_pairing()</text><ellipse cx="18" cy="475.1273" fill="#84BE84" rx="3" ry="3" style="stroke:#038048;stroke-width:1.0;"/><text fill="#000000" font-family="sans-serif" font-size="14" lengthAdjust="spacing" textLength="133" x="27" y="479.0593">supported?() -&gt; true</text></g><!--class rmi_null--><g id="elem_rmi_null"><rect codeLine="28" fill="#FFF1D9" filter="url(#f1vqube8pfhbhq)" height="124.2717" id="rmi_null" rx="5" ry="5" style="stroke:#181818;stroke-width:0.5;" width="202" x="274" y="315.22"/><rect fill="#FFD080" height="32" rx="5" ry="5" style="stroke:#FFD080;stroke-width:0.5;" width="202" x="274" y="315.22"/><rect fill="#FFD080" height="5" style="stroke:#FFD080;stroke-width:0.5;" width="202" x="274" y="342.22"/><rect codeLine="28" fill="none" height="124.2717" id="rmi_null" rx="5" ry="5" style="stroke:#181818;stroke-width:0.5;" width="202" x="274" y="315.22"/><ellipse cx="289" cy="331.22" fill="#ADD1B2" rx="11" ry="11" style="stroke:#181818;stroke-width:1.0;"/><path d="M289.1094,326.7512 Q288.1875,326.7512 287.4531,327.0637 Q286.7344,327.3762 286.2344,327.97 Q285.7344,328.5481 285.4531,329.4231 Q285.1875,330.2981 285.1875,331.3919 Q285.1875,332.8294 285.625,333.8762 Q286.0781,334.9231 286.9219,335.47 Q287.7813,336.0169 289.0938,336.0169 Q289.875,336.0169 290.5625,335.8919 Q291.2656,335.7512 292.2656,335.4387 L292.2656,337.3137 Q291.4063,337.6419 290.6406,337.7669 Q289.8906,337.8919 288.875,337.8919 Q286.9531,337.8919 285.6406,337.095 Q284.3438,336.2825 283.6875,334.8137 Q283.0313,333.3294 283.0313,331.3606 Q283.0313,329.9387 283.4219,328.7669 Q283.8281,327.5794 284.6094,326.7044 Q285.3906,325.8294 286.5313,325.3606 Q287.6719,324.8762 289.1406,324.8762 Q290.0938,324.8762 290.9844,325.0794 Q291.8906,325.2669 292.8281,325.7356 L292,327.5169 Q291.2188,327.1419 290.5625,326.9544 Q289.9063,326.7512 289.1094,326.7512 Z " fill="#000000"/><text fill="#000000" font-family="sans-serif" font-size="14" lengthAdjust="spacing" textLength="170" x="303" y="336.652">CardTerminals::RMI::Null</text><line style="stroke:#181818;stroke-width:0.5;" x1="275" x2="475" y1="347.22" y2="347.22"/><text fill="#000000" font-family="sans-serif" font-size="14" lengthAdjust="spacing" textLength="93" x="280" y="366.1859">card_terminal</text><line style="stroke:#181818;stroke-width:0.5;" x1="275" x2="475" y1="374.2879" y2="374.2879"/><ellipse cx="285" cy="389.3219" fill="#84BE84" rx="3" ry="3" style="stroke:#038048;stroke-width:1.0;"/><text fill="#000000" font-family="sans-serif" font-size="14" lengthAdjust="spacing" textLength="122" x="294" y="393.2539">available_actions()</text><ellipse cx="285" cy="408.3898" fill="#84BE84" rx="3" ry="3" style="stroke:#038048;stroke-width:1.0;"/><text fill="#000000" font-family="sans-serif" font-size="14" lengthAdjust="spacing" textLength="65" x="294" y="412.3218">rmi_port()</text><ellipse cx="285" cy="427.4577" fill="#84BE84" rx="3" ry="3" style="stroke:#038048;stroke-width:1.0;"/><text fill="#000000" font-family="sans-serif" font-size="14" lengthAdjust="spacing" textLength="137" x="294" y="431.3897">supported?() -&gt; false</text></g><!--class rmi_base--><g id="elem_rmi_base"><rect codeLine="35" fill="#FFF1D9" filter="url(#f1vqube8pfhbhq)" height="124.2717" id="rmi_base" rx="5" ry="5" style="stroke:#181818;stroke-width:0.5;" width="194" x="152" y="547.16"/><rect fill="#FFD080" height="32" rx="5" ry="5" style="stroke:#FFD080;stroke-width:0.5;" width="194" x="152" y="547.16"/><rect fill="#FFD080" height="5" style="stroke:#FFD080;stroke-width:0.5;" width="194" x="152" y="574.16"/><rect codeLine="35" fill="none" height="124.2717" id="rmi_base" rx="5" ry="5" style="stroke:#181818;stroke-width:0.5;" width="194" x="152" y="547.16"/><ellipse cx="167" cy="563.16" fill="#A9DCDF" rx="11" ry="11" style="stroke:#181818;stroke-width:1.0;"/><path d="M170.3438,568.41 L168.875,564.66 L164.4375,564.66 L163,568.41 L160.875,568.41 L165.8281,555.6913 L167.5781,555.6913 L172.5,568.41 L170.3438,568.41 Z M167,559.4569 Q166.9531,559.3006 166.8281,558.9413 Q166.7031,558.5819 166.5938,558.2069 Q166.4844,557.8163 166.6875,557.7538 Q166.8438,557.9413 166.75,558.3006 Q166.6563,558.6444 166.5625,558.9413 Q166.4688,559.2225 166.3906,559.4569 L165.1563,562.7694 L168.2344,562.7694 L167,559.4569 Z " fill="#000000"/><text fill="#000000" font-family="sans-serif" font-size="14" font-style="italic" lengthAdjust="spacing" textLength="162" x="181" y="568.592">CardTerminals::RMI::Base</text><line style="stroke:#181818;stroke-width:0.5;" x1="153" x2="345" y1="579.16" y2="579.16"/><text fill="#000000" font-family="sans-serif" font-size="14" lengthAdjust="spacing" textLength="93" x="158" y="598.1259">card_terminal</text><line style="stroke:#181818;stroke-width:0.5;" x1="153" x2="345" y1="606.2279" y2="606.2279"/><polygon fill="#FFFF44" points="163,616.2619,167,620.2619,163,624.2619,159,620.2619" style="stroke:#B38D22;stroke-width:1.0;"/><text fill="#000000" font-family="sans-serif" font-size="14" lengthAdjust="spacing" textLength="122" x="172" y="625.1939">available_actions()</text><polygon fill="#FFFF44" points="163,635.3298,167,639.3298,163,643.3298,159,639.3298" style="stroke:#B38D22;stroke-width:1.0;"/><text fill="#000000" font-family="sans-serif" font-size="14" lengthAdjust="spacing" textLength="65" x="172" y="644.2618">rmi_port()</text><ellipse cx="163" cy="659.3977" fill="#84BE84" rx="3" ry="3" style="stroke:#038048;stroke-width:1.0;"/><text fill="#000000" font-family="sans-serif" font-size="14" lengthAdjust="spacing" textLength="137" x="172" y="663.3297">supported?() -&gt; false</text></g><!--reverse link rmi to rmi_koco--><g id="link_rmi_rmi_koco"><path codeLine="42" d="M194.6062,224.0117 C185.5062,243.3817 183.57,247.49 174.32,267.16 " fill="none" id="rmi-backto-rmi_koco" style="stroke:#181818;stroke-width:1.0;stroke-dasharray:7.0,7.0;"/><polygon fill="none" points="202.26,207.72,189.1756,221.4604,200.0367,226.563,202.26,207.72" style="stroke:#181818;stroke-width:1.0;"/></g><!--reverse link rmi to rmi_null--><g id="link_rmi_rmi_null"><path codeLine="43" d="M303.3974,224.01 C320.2774,259.92 331.17,283.09 346.08,314.81 " fill="none" id="rmi-backto-rmi_null" style="stroke:#181818;stroke-width:1.0;stroke-dasharray:7.0,7.0;"/><polygon fill="none" points="295.74,207.72,297.9673,226.5625,308.8274,221.4576,295.74,207.72" style="stroke:#181818;stroke-width:1.0;"/></g><!--reverse link rmi_koco to rmi_base--><g id="link_rmi_koco_rmi_base"><path codeLine="44" d="M191.514,503.3831 C202.694,523.7731 205.35,528.63 215.37,546.93 " fill="none" id="rmi_koco-backto-rmi_base" style="stroke:#181818;stroke-width:1.0;"/><polygon fill="none" points="182.86,487.6,186.253,506.2678,196.7751,500.4985,182.86,487.6" style="stroke:#181818;stroke-width:1.0;"/></g><!--reverse link rmi_null to rmi_base--><g id="link_rmi_null_rmi_base"><path codeLine="45" d="M332.5816,455.7563 C314.4316,488.8863 300.77,513.81 282.64,546.9 " fill="none" id="rmi_null-backto-rmi_base" style="stroke:#181818;stroke-width:1.0;"/><polygon fill="none" points="341.23,439.97,327.3195,452.8735,337.8437,458.639,341.23,439.97" style="stroke:#181818;stroke-width:1.0;"/></g><!--SRC=[lLB1QiCm3BtxAxJsaZ6I3mXbW_OqndOOknl5KJgpn0gsKZRM_VkSD0kq2wmmg2-sdYI_zomBjo0C1Ojm0wNrPCIoK-fANgaXC6pGbr3vcCqofQmJyXKQWiKc9bx8DzPX7VBy-V5-0HWW0l2f0Fe-BMC-nZUuGrjZKPF6WICarpqS2tJBNiQ82kRnl2NHjepr3OM0MpgWuHGTzo6v8s-h3zrQbrXZWZjqT6rFGELTlE5BALDZ27Fwy_o1DxpcznyZ-eqDd-q6uhgC8qyD2-aMhRTkc_no2UajYE_e3xTFNLrFLbqC_Z6uK_egqWpyM0JniN5UmXe3JHAA6CnAMCvBM9ufeV-IgtsMJICzHdhdQfhsQf-canerlSmnhBu1]--></g></svg>