<?xml version="1.0" encoding="us-ascii" standalone="no"?><svg xmlns="http://www.w3.org/2000/svg" xmlns:xlink="http://www.w3.org/1999/xlink" contentStyleType="text/css" height="456px" preserveAspectRatio="none" style="width:784px;height:456px;background:#FFFFFF;" version="1.1" viewBox="0 0 784 456" width="784px" zoomAndPan="magnify"><defs><filter height="300%" id="f10tviqfim3o2y" width="300%" x="-1" y="-1"><feGaussianBlur result="blurOut" stdDeviation="2.0"/><feColorMatrix in="blurOut" result="blurOut2" type="matrix" values="0 0 0 0 0 0 0 0 0 0 0 0 0 0 0 0 0 0 .4 0"/><feOffset dx="4.0" dy="4.0" in="blurOut2" result="blurOut3"/><feBlend in="SourceGraphic" in2="blurOut3" mode="normal"/></filter></defs><g><!--class rmi--><g id="elem_rmi"><rect codeLine="5" fill="#FFF1D9" filter="url(#f10tviqfim3o2y)" height="105.2038" id="rmi" rx="5" ry="5" style="stroke:#181818;stroke-width:0.5;" width="157" x="329" y="7"/><rect fill="#FFD080" height="32" rx="5" ry="5" style="stroke:#FFD080;stroke-width:0.5;" width="157" x="329" y="7"/><rect fill="#FFD080" height="5" style="stroke:#FFD080;stroke-width:0.5;" width="157" x="329" y="34"/><rect codeLine="5" fill="none" height="105.2038" id="rmi" rx="5" ry="5" style="stroke:#181818;stroke-width:0.5;" width="157" x="329" y="7"/><ellipse cx="344" cy="23" fill="#B4A7E5" rx="11" ry="11" style="stroke:#181818;stroke-width:1.0;"/><path d="M346.0938,29.5 L341.1875,29.5 L341.1875,28.125 L342.6094,27.8125 L342.6094,18.5313 L341.1875,18.1875 L341.1875,16.8281 L346.0938,16.8281 L346.0938,18.1875 L344.6719,18.5313 L344.6719,27.8125 L346.0938,28.125 L346.0938,29.5 Z " fill="#000000"/><text fill="#000000" font-family="sans-serif" font-size="14" font-style="italic" lengthAdjust="spacing" textLength="125" x="358" y="28.432">CardTerminals::RMI</text><line style="stroke:#181818;stroke-width:0.5;" x1="330" x2="485" y1="39" y2="39"/><text fill="#000000" font-family="sans-serif" font-size="14" lengthAdjust="spacing" textLength="93" x="335" y="57.9659">card_terminal</text><line style="stroke:#181818;stroke-width:0.5;" x1="330" x2="485" y1="66.0679" y2="66.0679"/><text fill="#000000" font-family="sans-serif" font-size="14" lengthAdjust="spacing" textLength="122" x="335" y="85.0339">available_actions()</text><text fill="#000000" font-family="sans-serif" font-size="14" lengthAdjust="spacing" textLength="31" x="335" y="104.1018">call()</text></g><!--class rmi_koco--><g id="elem_rmi_koco"><rect codeLine="11" fill="#FFF1D9" filter="url(#f10tviqfim3o2y)" height="105.2038" id="rmi_koco" rx="5" ry="5" style="stroke:#181818;stroke-width:0.5;" width="232" x="165.5" y="172.2"/><rect fill="#FFD080" height="32" rx="5" ry="5" style="stroke:#FFD080;stroke-width:0.5;" width="232" x="165.5" y="172.2"/><rect fill="#FFD080" height="5" style="stroke:#FFD080;stroke-width:0.5;" width="232" x="165.5" y="199.2"/><rect codeLine="11" fill="none" height="105.2038" id="rmi_koco" rx="5" ry="5" style="stroke:#181818;stroke-width:0.5;" width="232" x="165.5" y="172.2"/><ellipse cx="180.5" cy="188.2" fill="#ADD1B2" rx="11" ry="11" style="stroke:#181818;stroke-width:1.0;"/><path d="M180.6094,183.7313 Q179.6875,183.7313 178.9531,184.0438 Q178.2344,184.3563 177.7344,184.95 Q177.2344,185.5281 176.9531,186.4031 Q176.6875,187.2781 176.6875,188.3719 Q176.6875,189.8094 177.125,190.8563 Q177.5781,191.9031 178.4219,192.45 Q179.2813,192.9969 180.5938,192.9969 Q181.375,192.9969 182.0625,192.8719 Q182.7656,192.7313 183.7656,192.4188 L183.7656,194.2938 Q182.9063,194.6219 182.1406,194.7469 Q181.3906,194.8719 180.375,194.8719 Q178.4531,194.8719 177.1406,194.075 Q175.8438,193.2625 175.1875,191.7938 Q174.5313,190.3094 174.5313,188.3406 Q174.5313,186.9188 174.9219,185.7469 Q175.3281,184.5594 176.1094,183.6844 Q176.8906,182.8094 178.0313,182.3406 Q179.1719,181.8563 180.6406,181.8563 Q181.5938,181.8563 182.4844,182.0594 Q183.3906,182.2469 184.3281,182.7156 L183.5,184.4969 Q182.7188,184.1219 182.0625,183.9344 Q181.4063,183.7313 180.6094,183.7313 Z " fill="#000000"/><text fill="#000000" font-family="sans-serif" font-size="14" lengthAdjust="spacing" textLength="200" x="194.5" y="193.632">CardTerminals::RMI::KoCoBox</text><line style="stroke:#181818;stroke-width:0.5;" x1="166.5" x2="396.5" y1="204.2" y2="204.2"/><text fill="#000000" font-family="sans-serif" font-size="14" lengthAdjust="spacing" textLength="93" x="171.5" y="223.1659">card_terminal</text><line style="stroke:#181818;stroke-width:0.5;" x1="166.5" x2="396.5" y1="231.2679" y2="231.2679"/><text fill="#000000" font-family="sans-serif" font-size="14" lengthAdjust="spacing" textLength="122" x="171.5" y="250.2339">available_actions()</text><text fill="#000000" font-family="sans-serif" font-size="14" lengthAdjust="spacing" textLength="31" x="171.5" y="269.3018">call()</text></g><g id="elem_GMN4"><path d="M6,198.25 L6,251.368 A5,5 0 0 0 11,256.368 L126,256.368 A5,5 0 0 0 131,251.368 L131,228.8 L165.05,224.8 L131,220.8 L131,203.25 L121,193.25 L11,193.25 A5,5 0 0 0 6,198.25 " fill="#FEFFDD" filter="url(#f10tviqfim3o2y)" style="stroke:#181818;stroke-width:0.5;"/><path d="M121,193.25 L121,200.75 A2.5,2.5 0 0 0 123.5,203.25 L131,203.25 L121,193.25 " fill="#FEFFDD" style="stroke:#181818;stroke-width:0.5;"/><text fill="#000000" font-family="sans-serif" font-size="13" lengthAdjust="spacing" textLength="104" x="12" y="212.147">available_actions:</text><ellipse cx="17.5" cy="226.162" fill="#000000" rx="2.5" ry="2.5" style="stroke:#000000;stroke-width:0.0;"/><text fill="#000000" font-family="sans-serif" font-size="13" lengthAdjust="spacing" textLength="41" x="24" y="229.853">reboot</text><ellipse cx="17.5" cy="243.868" fill="#000000" rx="2.5" ry="2.5" style="stroke:#000000;stroke-width:0.0;"/><text fill="#000000" font-family="sans-serif" font-size="13" lengthAdjust="spacing" textLength="9" x="24" y="247.559">...</text></g><!--class rmi_null--><g id="elem_rmi_null"><rect codeLine="22" fill="#FFF1D9" filter="url(#f10tviqfim3o2y)" height="105.2038" id="rmi_null" rx="5" ry="5" style="stroke:#181818;stroke-width:0.5;" width="202" x="432.5" y="172.2"/><rect fill="#FFD080" height="32" rx="5" ry="5" style="stroke:#FFD080;stroke-width:0.5;" width="202" x="432.5" y="172.2"/><rect fill="#FFD080" height="5" style="stroke:#FFD080;stroke-width:0.5;" width="202" x="432.5" y="199.2"/><rect codeLine="22" fill="none" height="105.2038" id="rmi_null" rx="5" ry="5" style="stroke:#181818;stroke-width:0.5;" width="202" x="432.5" y="172.2"/><ellipse cx="447.5" cy="188.2" fill="#ADD1B2" rx="11" ry="11" style="stroke:#181818;stroke-width:1.0;"/><path d="M447.6094,183.7313 Q446.6875,183.7313 445.9531,184.0438 Q445.2344,184.3563 444.7344,184.95 Q444.2344,185.5281 443.9531,186.4031 Q443.6875,187.2781 443.6875,188.3719 Q443.6875,189.8094 444.125,190.8563 Q444.5781,191.9031 445.4219,192.45 Q446.2813,192.9969 447.5938,192.9969 Q448.375,192.9969 449.0625,192.8719 Q449.7656,192.7313 450.7656,192.4188 L450.7656,194.2938 Q449.9063,194.6219 449.1406,194.7469 Q448.3906,194.8719 447.375,194.8719 Q445.4531,194.8719 444.1406,194.075 Q442.8438,193.2625 442.1875,191.7938 Q441.5313,190.3094 441.5313,188.3406 Q441.5313,186.9188 441.9219,185.7469 Q442.3281,184.5594 443.1094,183.6844 Q443.8906,182.8094 445.0313,182.3406 Q446.1719,181.8563 447.6406,181.8563 Q448.5938,181.8563 449.4844,182.0594 Q450.3906,182.2469 451.3281,182.7156 L450.5,184.4969 Q449.7188,184.1219 449.0625,183.9344 Q448.4063,183.7313 447.6094,183.7313 Z " fill="#000000"/><text fill="#000000" font-family="sans-serif" font-size="14" lengthAdjust="spacing" textLength="170" x="461.5" y="193.632">CardTerminals::RMI::Null</text><line style="stroke:#181818;stroke-width:0.5;" x1="433.5" x2="633.5" y1="204.2" y2="204.2"/><text fill="#000000" font-family="sans-serif" font-size="14" lengthAdjust="spacing" textLength="93" x="438.5" y="223.1659">card_terminal</text><line style="stroke:#181818;stroke-width:0.5;" x1="433.5" x2="633.5" y1="231.2679" y2="231.2679"/><text fill="#000000" font-family="sans-serif" font-size="14" lengthAdjust="spacing" textLength="122" x="438.5" y="250.2339">available_actions()</text><text fill="#000000" font-family="sans-serif" font-size="14" lengthAdjust="spacing" textLength="31" x="438.5" y="269.3018">call()</text></g><!--class rmi_base--><g id="elem_rmi_base"><rect codeLine="28" fill="#FFF1D9" filter="url(#f10tviqfim3o2y)" height="105.2038" id="rmi_base" rx="5" ry="5" style="stroke:#181818;stroke-width:0.5;" width="206" x="304.5" y="337.41"/><rect fill="#FFD080" height="32" rx="5" ry="5" style="stroke:#FFD080;stroke-width:0.5;" width="206" x="304.5" y="337.41"/><rect fill="#FFD080" height="5" style="stroke:#FFD080;stroke-width:0.5;" width="206" x="304.5" y="364.41"/><rect codeLine="28" fill="none" height="105.2038" id="rmi_base" rx="5" ry="5" style="stroke:#181818;stroke-width:0.5;" width="206" x="304.5" y="337.41"/><ellipse cx="319.5" cy="353.41" fill="#ADD1B2" rx="11" ry="11" style="stroke:#181818;stroke-width:1.0;"/><path d="M319.6094,348.9413 Q318.6875,348.9413 317.9531,349.2538 Q317.2344,349.5663 316.7344,350.16 Q316.2344,350.7381 315.9531,351.6131 Q315.6875,352.4881 315.6875,353.5819 Q315.6875,355.0194 316.125,356.0663 Q316.5781,357.1131 317.4219,357.66 Q318.2813,358.2069 319.5938,358.2069 Q320.375,358.2069 321.0625,358.0819 Q321.7656,357.9413 322.7656,357.6288 L322.7656,359.5038 Q321.9063,359.8319 321.1406,359.9569 Q320.3906,360.0819 319.375,360.0819 Q317.4531,360.0819 316.1406,359.285 Q314.8438,358.4725 314.1875,357.0038 Q313.5313,355.5194 313.5313,353.5506 Q313.5313,352.1288 313.9219,350.9569 Q314.3281,349.7694 315.1094,348.8944 Q315.8906,348.0194 317.0313,347.5506 Q318.1719,347.0663 319.6406,347.0663 Q320.5938,347.0663 321.4844,347.2694 Q322.3906,347.4569 323.3281,347.9256 L322.5,349.7069 Q321.7188,349.3319 321.0625,349.1444 Q320.4063,348.9413 319.6094,348.9413 Z " fill="#000000"/><text fill="#000000" font-family="sans-serif" font-size="14" lengthAdjust="spacing" textLength="174" x="333.5" y="358.842">CardTerminals::RMI::Base</text><line style="stroke:#181818;stroke-width:0.5;" x1="305.5" x2="509.5" y1="369.41" y2="369.41"/><text fill="#000000" font-family="sans-serif" font-size="14" lengthAdjust="spacing" textLength="93" x="310.5" y="388.3759">card_terminal</text><line style="stroke:#181818;stroke-width:0.5;" x1="305.5" x2="509.5" y1="396.4779" y2="396.4779"/><text fill="#000000" font-family="sans-serif" font-size="14" lengthAdjust="spacing" textLength="122" x="310.5" y="415.4439">available_actions()</text><text fill="#000000" font-family="sans-serif" font-size="14" lengthAdjust="spacing" textLength="31" x="310.5" y="434.5118">call()</text></g><g id="elem_n1"><path d="M521,50.75 L521,68.456 A5,5 0 0 0 526,73.456 L765,73.456 A5,5 0 0 0 770,68.456 L770,55.75 L760,45.75 L526,45.75 A5,5 0 0 0 521,50.75 " fill="#FEFFDD" filter="url(#f10tviqfim3o2y)" style="stroke:#181818;stroke-width:0.5;"/><path d="M760,45.75 L760,53.25 A2.5,2.5 0 0 0 762.5,55.75 L770,55.75 L760,45.75 " fill="#FEFFDD" style="stroke:#181818;stroke-width:1.0;"/><text fill="#000000" font-family="sans-serif" font-size="13" lengthAdjust="spacing" textLength="228" x="527" y="64.647">supported? = available_actions.size &gt; 0</text></g><!--reverse link rmi to rmi_koco--><g id="link_rmi_rmi_koco"><path codeLine="34" d="M356.2912,126.9388 C341.6712,145.8788 336.15,153.01 321.55,171.93 " fill="none" id="rmi-backto-rmi_koco" style="stroke:#181818;stroke-width:1.0;stroke-dasharray:7.0,7.0;"/><polygon fill="none" points="367.29,112.69,351.5416,123.2725,361.0408,130.605,367.29,112.69" style="stroke:#181818;stroke-width:1.0;"/></g><!--reverse link rmi to rmi_null--><g id="link_rmi_rmi_null"><path codeLine="35" d="M458.7088,126.9388 C473.3288,145.8788 478.85,153.01 493.45,171.93 " fill="none" id="rmi-backto-rmi_null" style="stroke:#181818;stroke-width:1.0;stroke-dasharray:7.0,7.0;"/><polygon fill="none" points="447.71,112.69,453.9592,130.605,463.4584,123.2725,447.71,112.69" style="stroke:#181818;stroke-width:1.0;"/></g><!--reverse link rmi_koco to rmi_base--><g id="link_rmi_koco_rmi_base"><path codeLine="36" d="M332.7088,292.1388 C347.3288,311.0788 352.85,318.22 367.45,337.14 " fill="none" id="rmi_koco-backto-rmi_base" style="stroke:#181818;stroke-width:1.0;"/><polygon fill="none" points="321.71,277.89,327.9592,295.805,337.4584,288.4725,321.71,277.89" style="stroke:#181818;stroke-width:1.0;"/></g><!--reverse link rmi_null to rmi_base--><g id="link_rmi_null_rmi_base"><path codeLine="37" d="M482.2912,292.1388 C467.6712,311.0788 462.15,318.22 447.55,337.14 " fill="none" id="rmi_null-backto-rmi_base" style="stroke:#181818;stroke-width:1.0;"/><polygon fill="none" points="493.29,277.89,477.5416,288.4725,487.0408,295.805,493.29,277.89" style="stroke:#181818;stroke-width:1.0;"/></g><!--SRC=[hP71JiCm38RlVWgp4o0j6jTgWBIT41e7nBrAKrT4f76LU0Z1U7VS0HdJ40A9d68xzlVxZ_20mjYm2FVO-aHEF4U08xcddj2niwd5BcdL600VXL9d7U5agOKxIhsFDkIgkbrTJT1cr0I-0EBOLyj7NMFxQ7smJQ3QRX7v-6JxAWIzl0AuO7F-RcfLNVEI5_pqERv-OCU_PQ2Uhvp8GXYe4-Ik38E3nWfECL73B7enkZd55iVU7uNUh4CeAgC6_-t4mcOgW4Q3FmD6EvGn_j9yOypEWhtCg1sArVFDT5g8K7RRJxyxgzBY6UJrC70IQY_n_52DoVwPy09dErFV0000]--></g></svg>