<?xml version="1.0" encoding="us-ascii" standalone="no"?><svg xmlns="http://www.w3.org/2000/svg" xmlns:xlink="http://www.w3.org/1999/xlink" contentStyleType="text/css" height="505px" preserveAspectRatio="none" style="width:365px;height:505px;background:#FFFFFF;" version="1.1" viewBox="0 0 365 505" width="365px" zoomAndPan="magnify"><defs><filter height="300%" id="f44qufofik6rl" width="300%" x="-1" y="-1"><feGaussianBlur result="blurOut" stdDeviation="2.0"/><feColorMatrix in="blurOut" result="blurOut2" type="matrix" values="0 0 0 0 0 0 0 0 0 0 0 0 0 0 0 0 0 0 .4 0"/><feOffset dx="4.0" dy="4.0" in="blurOut2" result="blurOut3"/><feBlend in="SourceGraphic" in2="blurOut3" mode="normal"/></filter></defs><g><!--class soap_gcards--><g id="elem_soap_gcards"><rect codeLine="5" fill="#FFF1D9" filter="url(#f44qufofik6rl)" height="159.4754" id="soap_gcards" rx="5" ry="5" style="stroke:#181818;stroke-width:0.5;" width="150" x="201" y="7"/><rect fill="#FFD080" height="48.1358" rx="5" ry="5" style="stroke:#FFD080;stroke-width:0.5;" width="150" x="201" y="7"/><rect fill="#FFD080" height="5" style="stroke:#FFD080;stroke-width:0.5;" width="150" x="201" y="50.1358"/><rect codeLine="5" fill="none" height="159.4754" id="soap_gcards" rx="5" ry="5" style="stroke:#181818;stroke-width:0.5;" width="150" x="201" y="7"/><ellipse cx="224.55" cy="31.0679" fill="#ADD1B2" rx="11" ry="11" style="stroke:#181818;stroke-width:1.0;"/><path d="M224.6594,26.5992 Q223.7375,26.5992 223.0031,26.9117 Q222.2844,27.2242 221.7844,27.8179 Q221.2844,28.396 221.0031,29.271 Q220.7375,30.146 220.7375,31.2398 Q220.7375,32.6773 221.175,33.7242 Q221.6281,34.771 222.4719,35.3179 Q223.3313,35.8648 224.6438,35.8648 Q225.425,35.8648 226.1125,35.7398 Q226.8156,35.5992 227.8156,35.2867 L227.8156,37.1617 Q226.9563,37.4898 226.1906,37.6148 Q225.4406,37.7398 224.425,37.7398 Q222.5031,37.7398 221.1906,36.9429 Q219.8938,36.1304 219.2375,34.6617 Q218.5813,33.1773 218.5813,31.2085 Q218.5813,29.7867 218.9719,28.6148 Q219.3781,27.4273 220.1594,26.5523 Q220.9406,25.6773 222.0813,25.2085 Q223.2219,24.7242 224.6906,24.7242 Q225.6438,24.7242 226.5344,24.9273 Q227.4406,25.1148 228.3781,25.5835 L227.55,27.3648 Q226.7688,26.9898 226.1125,26.8023 Q225.4563,26.5992 224.6594,26.5992 Z " fill="#000000"/><text fill="#000000" font-family="sans-serif" font-size="14" lengthAdjust="spacing" textLength="99" x="240.45" y="26.9659">Cocard::SOAP::</text><text fill="#000000" font-family="sans-serif" font-size="14" lengthAdjust="spacing" textLength="62" x="258.95" y="46.0339">GetCards</text><line style="stroke:#181818;stroke-width:0.5;" x1="202" x2="350" y1="55.1358" y2="55.1358"/><text fill="#000000" font-family="sans-serif" font-size="14" lengthAdjust="spacing" textLength="116" x="207" y="74.1018">connector: object</text><text fill="#000000" font-family="sans-serif" font-size="14" lengthAdjust="spacing" textLength="109" x="207" y="93.1697">mandant: string</text><text fill="#000000" font-family="sans-serif" font-size="14" lengthAdjust="spacing" textLength="138" x="207" y="112.2376">client_system: string</text><text fill="#000000" font-family="sans-serif" font-size="14" lengthAdjust="spacing" textLength="116" x="207" y="131.3055">workplace: string</text><line style="stroke:#181818;stroke-width:0.5;" x1="202" x2="350" y1="139.4075" y2="139.4075"/><text fill="#000000" font-family="sans-serif" font-size="14" lengthAdjust="spacing" textLength="31" x="207" y="158.3734">call()</text></g><path d="M6,41.33 L6,122.1541 A0,0 0 0 0 6,122.1541 L166,122.1541 A0,0 0 0 0 166,122.1541 L166,85.742 L205,152.9415 L166,77.742 L166,51.33 L156,41.33 L6,41.33 A0,0 0 0 0 6,41.33 " fill="#FEFFDD" filter="url(#f44qufofik6rl)" style="stroke:#181818;stroke-width:0.5;"/><path d="M156,41.33 L156,51.33 L166,51.33 L156,41.33 " fill="#FEFFDD" style="stroke:#181818;stroke-width:0.5;"/><text fill="#000000" font-family="sans-serif" font-size="13" font-weight="bold" lengthAdjust="spacing" textLength="42.8438" x="12" y="60.227">Result:</text><text fill="#000000" font-family="sans-serif" font-size="13" lengthAdjust="spacing" textLength="106" x="18" y="77.933">success?: Boolean</text><text fill="#000000" font-family="sans-serif" font-size="13" lengthAdjust="spacing" textLength="133" x="18" y="95.639">error_messages: Array</text><text fill="#000000" font-family="sans-serif" font-size="13" lengthAdjust="spacing" textLength="92" x="18" y="113.3451">response: Hash</text><!--class gcards--><g id="elem_gcards"><rect codeLine="20" fill="#FFF1D9" filter="url(#f44qufofik6rl)" height="121.3396" id="gcards" rx="5" ry="5" style="stroke:#181818;stroke-width:0.5;" width="128" x="212" y="226.48"/><rect fill="#FFD080" height="48.1358" rx="5" ry="5" style="stroke:#FFD080;stroke-width:0.5;" width="128" x="212" y="226.48"/><rect fill="#FFD080" height="5" style="stroke:#FFD080;stroke-width:0.5;" width="128" x="212" y="269.6158"/><rect codeLine="20" fill="none" height="121.3396" id="gcards" rx="5" ry="5" style="stroke:#181818;stroke-width:0.5;" width="128" x="212" y="226.48"/><ellipse cx="242.3" cy="250.5479" fill="#ADD1B2" rx="11" ry="11" style="stroke:#181818;stroke-width:1.0;"/><path d="M242.4094,246.0792 Q241.4875,246.0792 240.7531,246.3917 Q240.0344,246.7042 239.5344,247.2979 Q239.0344,247.876 238.7531,248.751 Q238.4875,249.626 238.4875,250.7198 Q238.4875,252.1573 238.925,253.2042 Q239.3781,254.251 240.2219,254.7979 Q241.0813,255.3448 242.3938,255.3448 Q243.175,255.3448 243.8625,255.2198 Q244.5656,255.0792 245.5656,254.7667 L245.5656,256.6417 Q244.7063,256.9698 243.9406,257.0948 Q243.1906,257.2198 242.175,257.2198 Q240.2531,257.2198 238.9406,256.4229 Q237.6438,255.6104 236.9875,254.1417 Q236.3313,252.6573 236.3313,250.6885 Q236.3313,249.2667 236.7219,248.0948 Q237.1281,246.9073 237.9094,246.0323 Q238.6906,245.1573 239.8313,244.6885 Q240.9719,244.2042 242.4406,244.2042 Q243.3938,244.2042 244.2844,244.4073 Q245.1906,244.5948 246.1281,245.0635 L245.3,246.8448 Q244.5188,246.4698 243.8625,246.2823 Q243.2063,246.0792 242.4094,246.0792 Z " fill="#000000"/><text fill="#000000" font-family="sans-serif" font-size="14" lengthAdjust="spacing" textLength="55" x="263.2" y="246.4459">Cocard::</text><text fill="#000000" font-family="sans-serif" font-size="14" lengthAdjust="spacing" textLength="62" x="259.7" y="265.5139">GetCards</text><line style="stroke:#181818;stroke-width:0.5;" x1="213" x2="339" y1="274.6158" y2="274.6158"/><text fill="#000000" font-family="sans-serif" font-size="14" lengthAdjust="spacing" textLength="116" x="218" y="293.5818">connector: object</text><text fill="#000000" font-family="sans-serif" font-size="14" lengthAdjust="spacing" textLength="98" x="218" y="312.6497">context: object</text><line style="stroke:#181818;stroke-width:0.5;" x1="213" x2="339" y1="320.7517" y2="320.7517"/><text fill="#000000" font-family="sans-serif" font-size="14" lengthAdjust="spacing" textLength="31" x="218" y="339.7176">call()</text></g><path d="M17,241.73 L17,322.5541 A0,0 0 0 0 17,322.5541 L177,322.5541 A0,0 0 0 0 177,322.5541 L177,286.142 L216,334.2856 L177,278.142 L177,251.73 L167,241.73 L17,241.73 A0,0 0 0 0 17,241.73 " fill="#FEFFDD" filter="url(#f44qufofik6rl)" style="stroke:#181818;stroke-width:0.5;"/><path d="M167,241.73 L167,251.73 L177,251.73 L167,241.73 " fill="#FEFFDD" style="stroke:#181818;stroke-width:0.5;"/><text fill="#000000" font-family="sans-serif" font-size="13" font-weight="bold" lengthAdjust="spacing" textLength="42.8438" x="23" y="260.627">Result:</text><text fill="#000000" font-family="sans-serif" font-size="13" lengthAdjust="spacing" textLength="106" x="29" y="278.333">success?: Boolean</text><text fill="#000000" font-family="sans-serif" font-size="13" lengthAdjust="spacing" textLength="133" x="29" y="296.039">error_messages: Array</text><text fill="#000000" font-family="sans-serif" font-size="13" lengthAdjust="spacing" textLength="70" x="29" y="313.7451">cards: Array</text><!--class gcards_job--><g id="elem_gcards_job"><rect codeLine="33" fill="#FFF1D9" filter="url(#f44qufofik6rl)" height="83.2038" id="gcards_job" rx="5" ry="5" style="stroke:#181818;stroke-width:0.5;" width="115" x="218.5" y="407.82"/><rect fill="#FFD080" height="48.1358" rx="5" ry="5" style="stroke:#FFD080;stroke-width:0.5;" width="115" x="218.5" y="407.82"/><rect fill="#FFD080" height="5" style="stroke:#FFD080;stroke-width:0.5;" width="115" x="218.5" y="450.9558"/><rect codeLine="33" fill="none" height="83.2038" id="gcards_job" rx="5" ry="5" style="stroke:#181818;stroke-width:0.5;" width="115" x="218.5" y="407.82"/><ellipse cx="233.5" cy="431.8879" fill="#ADD1B2" rx="11" ry="11" style="stroke:#181818;stroke-width:1.0;"/><path d="M233.6094,427.4192 Q232.6875,427.4192 231.9531,427.7317 Q231.2344,428.0442 230.7344,428.6379 Q230.2344,429.216 229.9531,430.091 Q229.6875,430.966 229.6875,432.0598 Q229.6875,433.4973 230.125,434.5442 Q230.5781,435.591 231.4219,436.1379 Q232.2813,436.6848 233.5938,436.6848 Q234.375,436.6848 235.0625,436.5598 Q235.7656,436.4192 236.7656,436.1067 L236.7656,437.9817 Q235.9063,438.3098 235.1406,438.4348 Q234.3906,438.5598 233.375,438.5598 Q231.4531,438.5598 230.1406,437.7629 Q228.8438,436.9504 228.1875,435.4817 Q227.5313,433.9973 227.5313,432.0285 Q227.5313,430.6067 227.9219,429.4348 Q228.3281,428.2473 229.1094,427.3723 Q229.8906,426.4973 231.0313,426.0285 Q232.1719,425.5442 233.6406,425.5442 Q234.5938,425.5442 235.4844,425.7473 Q236.3906,425.9348 237.3281,426.4035 L236.5,428.1848 Q235.7188,427.8098 235.0625,427.6223 Q234.4063,427.4192 233.6094,427.4192 Z " fill="#000000"/><text fill="#000000" font-family="sans-serif" font-size="14" lengthAdjust="spacing" textLength="55" x="261.5" y="427.7859">Cocard::</text><text fill="#000000" font-family="sans-serif" font-size="14" lengthAdjust="spacing" textLength="83" x="247.5" y="446.8539">GetCardsJob</text><line style="stroke:#181818;stroke-width:0.5;" x1="219.5" x2="332.5" y1="455.9558" y2="455.9558"/><line style="stroke:#181818;stroke-width:0.5;" x1="219.5" x2="332.5" y1="463.9558" y2="463.9558"/><text fill="#000000" font-family="sans-serif" font-size="14" lengthAdjust="spacing" textLength="63" x="224.5" y="482.9218">perform()</text></g><path d="M50.45,421.71 L50.45,467.122 A0,0 0 0 0 50.45,467.122 L183.5438,467.122 A0,0 0 0 0 183.5438,467.122 L183.5438,448.416 L222.5,477.4898 L183.5438,440.416 L183.5438,431.71 L173.5438,421.71 L50.45,421.71 A0,0 0 0 0 50.45,421.71 " fill="#FFD700" filter="url(#f44qufofik6rl)" style="stroke:#181818;stroke-width:0.5;"/><path d="M173.5438,421.71 L173.5438,431.71 L183.5438,431.71 L173.5438,421.71 " fill="#FFD700" style="stroke:#181818;stroke-width:0.5;"/><text fill="#000000" font-family="sans-serif" font-size="13" font-weight="bold" lengthAdjust="spacing" textLength="112.0938" x="56.45" y="440.607">Create or Update:</text><text fill="#000000" font-family="sans-serif" font-size="13" lengthAdjust="spacing" textLength="28" x="62.45" y="458.313">Card</text><!--link soap_gcards to gcards--><g id="link_soap_gcards_gcards"><path codeLine="42" d="M276,166.72 C276,186.5 276,207.4 276,226.08 " fill="none" id="soap_gcards-gcards" style="stroke:#181818;stroke-width:1.0;"/></g><!--link gcards to gcards_job--><g id="link_gcards_gcards_job"><path codeLine="43" d="M276,348.28 C276,368 276,389.45 276,407.41 " fill="none" id="gcards-gcards_job" style="stroke:#181818;stroke-width:1.0;"/></g><!--SRC=[hPB1JiCm44Jl_egbN21I-m6-eD934HSGY1jIv3YRDCNnHhjRGONuTsnQ90krDsxEsydiZ1Eb2PIW8LKQeHqOlGuKZRdG3Ou8dhpZ5ZfEqyN261-S20YvgUxpHC09p5O_AckV7vQFrhx6DUeg3sVmQI1vn9XiYIrGiqsdn4ONMnVLWYWFiS-gC63KMlQYE1RydVXj2ivZgNKXN5sRBsCYAKB0Je6wCfQrMMEgwWbb5zHMLNfDTjwZo8s5MwA0BYQ6pCJrcB3hKImicTq-SKQPA4hQUkTaOp2sa7Vzti29ycNjixqJK_pGafpkyayr3Yx7nzCbwYqrPuhSKtFuX1DoHpoUpPazh3sguBAdqARGAqQNfCJmChNfT8YVdOievRyqdn_zp5-G5tm3]--></g></svg>