<?xml version="1.0" encoding="us-ascii" standalone="no"?><svg xmlns="http://www.w3.org/2000/svg" xmlns:xlink="http://www.w3.org/1999/xlink" contentStyleType="text/css" height="505px" preserveAspectRatio="none" style="width:379px;height:505px;background:#FFFFFF;" version="1.1" viewBox="0 0 379 505" width="379px" zoomAndPan="magnify"><defs><filter height="300%" id="f1x810g43vdlnm" width="300%" x="-1" y="-1"><feGaussianBlur result="blurOut" stdDeviation="2.0"/><feColorMatrix in="blurOut" result="blurOut2" type="matrix" values="0 0 0 0 0 0 0 0 0 0 0 0 0 0 0 0 0 0 .4 0"/><feOffset dx="4.0" dy="4.0" in="blurOut2" result="blurOut3"/><feBlend in="SourceGraphic" in2="blurOut3" mode="normal"/></filter></defs><g><!--class soap_gct--><g id="elem_soap_gct"><rect codeLine="5" fill="#FFF1D9" filter="url(#f1x810g43vdlnm)" height="159.4754" id="soap_gct" rx="5" ry="5" style="stroke:#181818;stroke-width:0.5;" width="154" x="201" y="7"/><rect fill="#FFD080" height="48.1358" rx="5" ry="5" style="stroke:#FFD080;stroke-width:0.5;" width="154" x="201" y="7"/><rect fill="#FFD080" height="5" style="stroke:#FFD080;stroke-width:0.5;" width="154" x="201" y="50.1358"/><rect codeLine="5" fill="none" height="159.4754" id="soap_gct" rx="5" ry="5" style="stroke:#181818;stroke-width:0.5;" width="154" x="201" y="7"/><ellipse cx="216" cy="31.0679" fill="#ADD1B2" rx="11" ry="11" style="stroke:#181818;stroke-width:1.0;"/><path d="M216.1094,26.5992 Q215.1875,26.5992 214.4531,26.9117 Q213.7344,27.2242 213.2344,27.8179 Q212.7344,28.396 212.4531,29.271 Q212.1875,30.146 212.1875,31.2398 Q212.1875,32.6773 212.625,33.7242 Q213.0781,34.771 213.9219,35.3179 Q214.7813,35.8648 216.0938,35.8648 Q216.875,35.8648 217.5625,35.7398 Q218.2656,35.5992 219.2656,35.2867 L219.2656,37.1617 Q218.4063,37.4898 217.6406,37.6148 Q216.8906,37.7398 215.875,37.7398 Q213.9531,37.7398 212.6406,36.9429 Q211.3438,36.1304 210.6875,34.6617 Q210.0313,33.1773 210.0313,31.2085 Q210.0313,29.7867 210.4219,28.6148 Q210.8281,27.4273 211.6094,26.5523 Q212.3906,25.6773 213.5313,25.2085 Q214.6719,24.7242 216.1406,24.7242 Q217.0938,24.7242 217.9844,24.9273 Q218.8906,25.1148 219.8281,25.5835 L219,27.3648 Q218.2188,26.9898 217.5625,26.8023 Q216.9063,26.5992 216.1094,26.5992 Z " fill="#000000"/><text fill="#000000" font-family="sans-serif" font-size="14" lengthAdjust="spacing" textLength="99" x="241.5" y="26.9659">Cocard::SOAP::</text><text fill="#000000" font-family="sans-serif" font-size="14" lengthAdjust="spacing" textLength="122" x="230" y="46.0339">GetCardTerminals</text><line style="stroke:#181818;stroke-width:0.5;" x1="202" x2="354" y1="55.1358" y2="55.1358"/><text fill="#000000" font-family="sans-serif" font-size="14" lengthAdjust="spacing" textLength="116" x="207" y="74.1018">connector: object</text><text fill="#000000" font-family="sans-serif" font-size="14" lengthAdjust="spacing" textLength="109" x="207" y="93.1697">mandant: string</text><text fill="#000000" font-family="sans-serif" font-size="14" lengthAdjust="spacing" textLength="138" x="207" y="112.2376">client_system: string</text><text fill="#000000" font-family="sans-serif" font-size="14" lengthAdjust="spacing" textLength="116" x="207" y="131.3055">workplace: string</text><line style="stroke:#181818;stroke-width:0.5;" x1="202" x2="354" y1="139.4075" y2="139.4075"/><text fill="#000000" font-family="sans-serif" font-size="14" lengthAdjust="spacing" textLength="31" x="207" y="158.3734">call()</text></g><path d="M6,41.33 L6,122.1541 A0,0 0 0 0 6,122.1541 L166,122.1541 A0,0 0 0 0 166,122.1541 L166,85.742 L205,152.9415 L166,77.742 L166,51.33 L156,41.33 L6,41.33 A0,0 0 0 0 6,41.33 " fill="#FEFFDD" filter="url(#f1x810g43vdlnm)" style="stroke:#181818;stroke-width:0.5;"/><path d="M156,41.33 L156,51.33 L166,51.33 L156,41.33 " fill="#FEFFDD" style="stroke:#181818;stroke-width:0.5;"/><text fill="#000000" font-family="sans-serif" font-size="13" font-weight="bold" lengthAdjust="spacing" textLength="42.8438" x="12" y="60.227">Result:</text><text fill="#000000" font-family="sans-serif" font-size="13" lengthAdjust="spacing" textLength="106" x="18" y="77.933">success?: Boolean</text><text fill="#000000" font-family="sans-serif" font-size="13" lengthAdjust="spacing" textLength="133" x="18" y="95.639">error_messages: Array</text><text fill="#000000" font-family="sans-serif" font-size="13" lengthAdjust="spacing" textLength="92" x="18" y="113.3451">response: Hash</text><!--class gct--><g id="elem_gct"><rect codeLine="20" fill="#FFF1D9" filter="url(#f1x810g43vdlnm)" height="121.3396" id="gct" rx="5" ry="5" style="stroke:#181818;stroke-width:0.5;" width="154" x="201" y="226.48"/><rect fill="#FFD080" height="48.1358" rx="5" ry="5" style="stroke:#FFD080;stroke-width:0.5;" width="154" x="201" y="226.48"/><rect fill="#FFD080" height="5" style="stroke:#FFD080;stroke-width:0.5;" width="154" x="201" y="269.6158"/><rect codeLine="20" fill="none" height="121.3396" id="gct" rx="5" ry="5" style="stroke:#181818;stroke-width:0.5;" width="154" x="201" y="226.48"/><ellipse cx="216" cy="250.5479" fill="#ADD1B2" rx="11" ry="11" style="stroke:#181818;stroke-width:1.0;"/><path d="M216.1094,246.0792 Q215.1875,246.0792 214.4531,246.3917 Q213.7344,246.7042 213.2344,247.2979 Q212.7344,247.876 212.4531,248.751 Q212.1875,249.626 212.1875,250.7198 Q212.1875,252.1573 212.625,253.2042 Q213.0781,254.251 213.9219,254.7979 Q214.7813,255.3448 216.0938,255.3448 Q216.875,255.3448 217.5625,255.2198 Q218.2656,255.0792 219.2656,254.7667 L219.2656,256.6417 Q218.4063,256.9698 217.6406,257.0948 Q216.8906,257.2198 215.875,257.2198 Q213.9531,257.2198 212.6406,256.4229 Q211.3438,255.6104 210.6875,254.1417 Q210.0313,252.6573 210.0313,250.6885 Q210.0313,249.2667 210.4219,248.0948 Q210.8281,246.9073 211.6094,246.0323 Q212.3906,245.1573 213.5313,244.6885 Q214.6719,244.2042 216.1406,244.2042 Q217.0938,244.2042 217.9844,244.4073 Q218.8906,244.5948 219.8281,245.0635 L219,246.8448 Q218.2188,246.4698 217.5625,246.2823 Q216.9063,246.0792 216.1094,246.0792 Z " fill="#000000"/><text fill="#000000" font-family="sans-serif" font-size="14" lengthAdjust="spacing" textLength="55" x="263.5" y="246.4459">Cocard::</text><text fill="#000000" font-family="sans-serif" font-size="14" lengthAdjust="spacing" textLength="122" x="230" y="265.5139">GetCardTerminals</text><line style="stroke:#181818;stroke-width:0.5;" x1="202" x2="354" y1="274.6158" y2="274.6158"/><text fill="#000000" font-family="sans-serif" font-size="14" lengthAdjust="spacing" textLength="116" x="207" y="293.5818">connector: object</text><text fill="#000000" font-family="sans-serif" font-size="14" lengthAdjust="spacing" textLength="98" x="207" y="312.6497">context: object</text><line style="stroke:#181818;stroke-width:0.5;" x1="202" x2="354" y1="320.7517" y2="320.7517"/><text fill="#000000" font-family="sans-serif" font-size="14" lengthAdjust="spacing" textLength="31" x="207" y="339.7176">call()</text></g><path d="M6,241.73 L6,322.5541 A0,0 0 0 0 6,322.5541 L166,322.5541 A0,0 0 0 0 166,322.5541 L166,286.142 L205,334.2856 L166,278.142 L166,251.73 L156,241.73 L6,241.73 A0,0 0 0 0 6,241.73 " fill="#FEFFDD" filter="url(#f1x810g43vdlnm)" style="stroke:#181818;stroke-width:0.5;"/><path d="M156,241.73 L156,251.73 L166,251.73 L156,241.73 " fill="#FEFFDD" style="stroke:#181818;stroke-width:0.5;"/><text fill="#000000" font-family="sans-serif" font-size="13" font-weight="bold" lengthAdjust="spacing" textLength="42.8438" x="12" y="260.627">Result:</text><text fill="#000000" font-family="sans-serif" font-size="13" lengthAdjust="spacing" textLength="106" x="18" y="278.333">success?: Boolean</text><text fill="#000000" font-family="sans-serif" font-size="13" lengthAdjust="spacing" textLength="133" x="18" y="296.039">error_messages: Array</text><text fill="#000000" font-family="sans-serif" font-size="13" lengthAdjust="spacing" textLength="126" x="18" y="313.7451">card_terminals: Array</text><!--class gct_job--><g id="elem_gct_job"><rect codeLine="33" fill="#FFF1D9" filter="url(#f1x810g43vdlnm)" height="83.2038" id="gct_job" rx="5" ry="5" style="stroke:#181818;stroke-width:0.5;" width="175" x="190.5" y="407.82"/><rect fill="#FFD080" height="48.1358" rx="5" ry="5" style="stroke:#FFD080;stroke-width:0.5;" width="175" x="190.5" y="407.82"/><rect fill="#FFD080" height="5" style="stroke:#FFD080;stroke-width:0.5;" width="175" x="190.5" y="450.9558"/><rect codeLine="33" fill="none" height="83.2038" id="gct_job" rx="5" ry="5" style="stroke:#181818;stroke-width:0.5;" width="175" x="190.5" y="407.82"/><ellipse cx="205.5" cy="431.8879" fill="#ADD1B2" rx="11" ry="11" style="stroke:#181818;stroke-width:1.0;"/><path d="M205.6094,427.4192 Q204.6875,427.4192 203.9531,427.7317 Q203.2344,428.0442 202.7344,428.6379 Q202.2344,429.216 201.9531,430.091 Q201.6875,430.966 201.6875,432.0598 Q201.6875,433.4973 202.125,434.5442 Q202.5781,435.591 203.4219,436.1379 Q204.2813,436.6848 205.5938,436.6848 Q206.375,436.6848 207.0625,436.5598 Q207.7656,436.4192 208.7656,436.1067 L208.7656,437.9817 Q207.9063,438.3098 207.1406,438.4348 Q206.3906,438.5598 205.375,438.5598 Q203.4531,438.5598 202.1406,437.7629 Q200.8438,436.9504 200.1875,435.4817 Q199.5313,433.9973 199.5313,432.0285 Q199.5313,430.6067 199.9219,429.4348 Q200.3281,428.2473 201.1094,427.3723 Q201.8906,426.4973 203.0313,426.0285 Q204.1719,425.5442 205.6406,425.5442 Q206.5938,425.5442 207.4844,425.7473 Q208.3906,425.9348 209.3281,426.4035 L208.5,428.1848 Q207.7188,427.8098 207.0625,427.6223 Q206.4063,427.4192 205.6094,427.4192 Z " fill="#000000"/><text fill="#000000" font-family="sans-serif" font-size="14" lengthAdjust="spacing" textLength="55" x="263.5" y="427.7859">Cocard::</text><text fill="#000000" font-family="sans-serif" font-size="14" lengthAdjust="spacing" textLength="143" x="219.5" y="446.8539">GetCardTerminalsJob</text><line style="stroke:#181818;stroke-width:0.5;" x1="191.5" x2="364.5" y1="455.9558" y2="455.9558"/><line style="stroke:#181818;stroke-width:0.5;" x1="191.5" x2="364.5" y1="463.9558" y2="463.9558"/><text fill="#000000" font-family="sans-serif" font-size="14" lengthAdjust="spacing" textLength="63" x="196.5" y="482.9218">perform()</text></g><path d="M22.45,421.71 L22.45,467.122 A0,0 0 0 0 22.45,467.122 L155.5438,467.122 A0,0 0 0 0 155.5438,467.122 L155.5438,448.416 L194.5,477.4898 L155.5438,440.416 L155.5438,431.71 L145.5438,421.71 L22.45,421.71 A0,0 0 0 0 22.45,421.71 " fill="#FFD700" filter="url(#f1x810g43vdlnm)" style="stroke:#181818;stroke-width:0.5;"/><path d="M145.5438,421.71 L145.5438,431.71 L155.5438,431.71 L145.5438,421.71 " fill="#FFD700" style="stroke:#181818;stroke-width:0.5;"/><text fill="#000000" font-family="sans-serif" font-size="13" font-weight="bold" lengthAdjust="spacing" textLength="112.0938" x="28.45" y="440.607">Create or Update:</text><text fill="#000000" font-family="sans-serif" font-size="13" lengthAdjust="spacing" textLength="80" x="34.45" y="458.313">CardTerminal</text><!--link soap_gct to gct--><g id="link_soap_gct_gct"><path codeLine="44" d="M278,166.72 C278,186.5 278,207.4 278,226.08 " fill="none" id="soap_gct-gct" style="stroke:#181818;stroke-width:1.0;"/></g><!--link gct to gct_job--><g id="link_gct_gct_job"><path codeLine="45" d="M278,348.28 C278,368 278,389.45 278,407.41 " fill="none" id="gct-gct_job" style="stroke:#181818;stroke-width:1.0;"/></g><!--SRC=[hPBDJiCm48JlVegbN21I-m2-eD83Y0k8dnjIv3YRDCNsHhjRGOLuTnnAImH5NBYjFe_7CxQLUb22YbGfGjqnUkqe6NEaIum8dhpZ6XhEgxEPCJuu4H1oVTbw1ISmMNn8hBsxdjzO-vWkK1SPt2F7BhaW4tWra8rIojx45gXQvIcpw5BjabeGvIwrWofqcBIKZIZ64NycVkg3ypZMkX1EJisRCOaK8M2ZGCq-cxM3m1J5BSewg2sAl4VMtgF8cOLpee0kPORCn6NCsBKe5kRCRfCve_IK91zvwMHfCDKm7BIxW-_r3nN_jNbcYYyw9eVR_4UH8L-fkrGxVg1FkQBgZqvNL6tViqTkYECsye_CWvErdneuRYdKkS22qMKTCJpqTPwsLSR-erHc_yccqy7IV8s3-pi0]--></g></svg>