<?xml version="1.0" encoding="us-ascii" standalone="no"?><svg xmlns="http://www.w3.org/2000/svg" xmlns:xlink="http://www.w3.org/1999/xlink" contentStyleType="text/css" height="685px" preserveAspectRatio="none" style="width:756px;height:685px;background:#FFFFFF;" version="1.1" viewBox="0 0 756 685" width="756px" zoomAndPan="magnify"><defs/><g><rect fill="#FFFFFF" height="547.6902" style="stroke:#181818;stroke-width:1.0;" width="10" x="162" y="90.4799"/><rect fill="#FFFFFF" height="426.8661" style="stroke:#181818;stroke-width:1.0;" width="10" x="357" y="139.892"/><rect fill="#90EE90" height="250.63" style="stroke:#000000;stroke-width:1.5;" width="421" x="319" y="267.716"/><rect fill="#FFB6C1" height="193.218" style="stroke:none;stroke-width:1.0;" width="421" x="319" y="325.1281"/><line style="stroke:#181818;stroke-width:0.5;stroke-dasharray:5.0,5.0;" x1="58" x2="58" y1="39.0679" y2="647.1701"/><line style="stroke:#181818;stroke-width:0.5;stroke-dasharray:5.0,5.0;" x1="166.5" x2="166.5" y1="39.0679" y2="647.1701"/><line style="stroke:#181818;stroke-width:0.5;stroke-dasharray:5.0,5.0;" x1="362" x2="362" y1="39.0679" y2="647.1701"/><line style="stroke:#181818;stroke-width:0.5;stroke-dasharray:5.0,5.0;" x1="465.5" x2="465.5" y1="39.0679" y2="647.1701"/><rect fill="#FFD700" height="33.0679" rx="2.5" ry="2.5" style="stroke:#181818;stroke-width:0.5;" width="106" x="5" y="5"/><text fill="#000000" font-family="sans-serif" font-size="14" lengthAdjust="spacing" textLength="92" x="12" y="26.9659">CardTerminal</text><rect fill="#FFD700" height="33.0679" rx="2.5" ry="2.5" style="stroke:#181818;stroke-width:0.5;" width="106" x="5" y="646.1701"/><text fill="#000000" font-family="sans-serif" font-size="14" lengthAdjust="spacing" textLength="92" x="12" y="668.1361">CardTerminal</text><rect fill="#FFD700" height="33.0679" rx="2.5" ry="2.5" style="stroke:#181818;stroke-width:0.5;" width="67" x="133.5" y="5"/><text fill="#000000" font-family="sans-serif" font-size="14" lengthAdjust="spacing" textLength="53" x="140.5" y="26.9659">KTProxy</text><rect fill="#FFD700" height="33.0679" rx="2.5" ry="2.5" style="stroke:#181818;stroke-width:0.5;" width="67" x="133.5" y="646.1701"/><text fill="#000000" font-family="sans-serif" font-size="14" lengthAdjust="spacing" textLength="53" x="140.5" y="668.1361">KTProxy</text><rect fill="#FFD700" height="33.0679" rx="2.5" ry="2.5" style="stroke:#181818;stroke-width:0.5;" width="66" x="329" y="5"/><text fill="#000000" font-family="sans-serif" font-size="14" lengthAdjust="spacing" textLength="52" x="336" y="26.9659">TIClient</text><rect fill="#FFD700" height="33.0679" rx="2.5" ry="2.5" style="stroke:#181818;stroke-width:0.5;" width="66" x="329" y="646.1701"/><text fill="#000000" font-family="sans-serif" font-size="14" lengthAdjust="spacing" textLength="52" x="336" y="668.1361">TIClient</text><rect fill="#E2E2F0" height="33.0679" rx="2.5" ry="2.5" style="stroke:#181818;stroke-width:0.5;" width="101" x="415.5" y="5"/><text fill="#000000" font-family="sans-serif" font-size="14" lengthAdjust="spacing" textLength="87" x="422.5" y="26.9659">TIClient::RMI</text><rect fill="#E2E2F0" height="33.0679" rx="2.5" ry="2.5" style="stroke:#181818;stroke-width:0.5;" width="101" x="415.5" y="646.1701"/><text fill="#000000" font-family="sans-serif" font-size="14" lengthAdjust="spacing" textLength="87" x="422.5" y="668.1361">TIClient::RMI</text><rect fill="#FFFFFF" height="547.6902" style="stroke:#181818;stroke-width:1.0;" width="10" x="162" y="90.4799"/><rect fill="#FFFFFF" height="426.8661" style="stroke:#181818;stroke-width:1.0;" width="10" x="357" y="139.892"/><polygon fill="#181818" points="150,86.4799,160,90.4799,150,94.4799,154,90.4799" style="stroke:#181818;stroke-width:1.0;"/><line style="stroke:#181818;stroke-width:1.0;" x1="58" x2="156" y1="90.4799" y2="90.4799"/><text fill="#000000" font-family="sans-serif" font-size="13" lengthAdjust="spacing" textLength="85" x="65" y="66.9649">find_or_create</text><text fill="#000000" font-family="sans-serif" font-size="13" lengthAdjust="spacing" textLength="63" x="65" y="84.6709">(ct, vkonn)</text><polygon fill="#181818" points="345,135.892,355,139.892,345,143.892,349,139.892" style="stroke:#181818;stroke-width:1.0;"/><line style="stroke:#181818;stroke-width:1.0;" x1="172" x2="351" y1="139.892" y2="139.892"/><text fill="#000000" font-family="sans-serif" font-size="13" lengthAdjust="spacing" textLength="138" x="179" y="116.377">find_or_create_ktproxy</text><text fill="#000000" font-family="sans-serif" font-size="13" lengthAdjust="spacing" textLength="55" x="179" y="134.083">(ktproxy)</text><polygon fill="#181818" points="454,185.304,464,189.304,454,193.304,458,189.304" style="stroke:#181818;stroke-width:1.0;"/><line style="stroke:#181818;stroke-width:1.0;" x1="367" x2="460" y1="189.304" y2="189.304"/><text fill="#000000" font-family="sans-serif" font-size="13" lengthAdjust="spacing" textLength="23" x="374" y="165.789">find</text><text fill="#000000" font-family="sans-serif" font-size="13" lengthAdjust="spacing" textLength="55" x="374" y="183.495">(ktproxy)</text><polygon fill="#181818" points="738,217.01,748,221.01,738,225.01,742,221.01" style="stroke:#181818;stroke-width:1.0;"/><line style="stroke:#181818;stroke-width:1.0;" x1="466" x2="744" y1="221.01" y2="221.01"/><text fill="#000000" font-family="sans-serif" font-size="13" lengthAdjust="spacing" textLength="244" x="473" y="215.201">GET /v1/manager/card-terminals/proxies</text><polygon fill="#181818" points="477,248.716,467,252.716,477,256.716,473,252.716" style="stroke:#181818;stroke-width:1.0;"/><line style="stroke:#181818;stroke-width:1.0;stroke-dasharray:2.0,2.0;" x1="471" x2="749" y1="252.716" y2="252.716"/><text fill="#000000" font-family="sans-serif" font-size="13" lengthAdjust="spacing" textLength="74" x="483" y="246.907">result (REST)</text><path d="M319,267.716 L380.2188,267.716 L380.2188,277.4221 L370.2188,287.4221 L319,287.4221 L319,267.716 " fill="#EEEEEE" style="stroke:#000000;stroke-width:1.5;"/><rect fill="none" height="250.63" style="stroke:#000000;stroke-width:1.5;" width="421" x="319" y="267.716"/><text fill="#000000" font-family="sans-serif" font-size="13" font-weight="bold" lengthAdjust="spacing" textLength="16.2188" x="334" y="282.6131">alt</text><text fill="#000000" font-family="sans-serif" font-size="11" font-weight="bold" lengthAdjust="spacing" textLength="86.1563" x="395.2188" y="281.475">[ktproxy exists]</text><polygon fill="#181818" points="378,310.1281,368,314.1281,378,318.1281,374,314.1281" style="stroke:#181818;stroke-width:1.0;"/><line style="stroke:#181818;stroke-width:1.0;" x1="372" x2="465" y1="314.1281" y2="314.1281"/><text fill="#000000" font-family="sans-serif" font-size="13" lengthAdjust="spacing" textLength="75" x="384" y="308.3191">ktproxy.json</text><path d="M471,292.4221 L471,319.4221 L696,319.4221 L696,302.4221 L686,292.4221 L471,292.4221 " fill="#FEFFDD" style="stroke:#181818;stroke-width:0.5;"/><path d="M686,292.4221 L686,302.4221 L696,302.4221 L686,292.4221 " fill="#FEFFDD" style="stroke:#181818;stroke-width:0.5;"/><text fill="#000000" font-family="sans-serif" font-size="13" lengthAdjust="spacing" textLength="204" x="477" y="311.3191">single ktproxy match by ip or uuid</text><line style="stroke:#000000;stroke-width:1.0;stroke-dasharray:2.0,2.0;" x1="319" x2="740" y1="326.1281" y2="326.1281"/><text fill="#000000" font-family="sans-serif" font-size="11" font-weight="bold" lengthAdjust="spacing" textLength="97.5" x="324" y="337.887">[ktproxy missing]</text><polygon fill="#181818" points="378,361.816,368,365.816,378,369.816,374,365.816" style="stroke:#181818;stroke-width:1.0;"/><line style="stroke:#181818;stroke-width:1.0;stroke-dasharray:2.0,2.0;" x1="372" x2="465" y1="365.816" y2="365.816"/><text fill="#000000" font-family="sans-serif" font-size="13" lengthAdjust="spacing" textLength="60" x="384" y="360.007">not found</text><polygon fill="#181818" points="454,411.228,464,415.228,454,419.228,458,415.228" style="stroke:#181818;stroke-width:1.0;"/><line style="stroke:#181818;stroke-width:1.0;" x1="367" x2="460" y1="415.228" y2="415.228"/><text fill="#000000" font-family="sans-serif" font-size="13" lengthAdjust="spacing" textLength="37" x="374" y="391.713">create</text><text fill="#000000" font-family="sans-serif" font-size="13" lengthAdjust="spacing" textLength="55" x="374" y="409.419">(ktproxy)</text><polygon fill="#181818" points="738,442.934,748,446.934,738,450.934,742,446.934" style="stroke:#181818;stroke-width:1.0;"/><line style="stroke:#181818;stroke-width:1.0;" x1="466" x2="744" y1="446.934" y2="446.934"/><text fill="#000000" font-family="sans-serif" font-size="13" lengthAdjust="spacing" textLength="253" x="473" y="441.125">POST /v1/manager/card-terminals/proxies</text><polygon fill="#181818" points="477,474.6401,467,478.6401,477,482.6401,473,478.6401" style="stroke:#181818;stroke-width:1.0;"/><line style="stroke:#181818;stroke-width:1.0;stroke-dasharray:2.0,2.0;" x1="471" x2="749" y1="478.6401" y2="478.6401"/><text fill="#000000" font-family="sans-serif" font-size="13" lengthAdjust="spacing" textLength="58" x="483" y="472.831">Response</text><polygon fill="#181818" points="378,506.3461,368,510.3461,378,514.3461,374,510.3461" style="stroke:#181818;stroke-width:1.0;"/><line style="stroke:#181818;stroke-width:1.0;stroke-dasharray:2.0,2.0;" x1="372" x2="465" y1="510.3461" y2="510.3461"/><text fill="#000000" font-family="sans-serif" font-size="13" lengthAdjust="spacing" textLength="75" x="384" y="504.5371">ktproxy.json</text><polygon fill="#181818" points="183,562.7581,173,566.7581,183,570.7581,179,566.7581" style="stroke:#181818;stroke-width:1.0;"/><line style="stroke:#181818;stroke-width:1.0;stroke-dasharray:2.0,2.0;" x1="177" x2="361" y1="566.7581" y2="566.7581"/><text fill="#000000" font-family="sans-serif" font-size="13" lengthAdjust="spacing" textLength="85" x="189" y="543.2431">find_or_create</text><text fill="#000000" font-family="sans-serif" font-size="13" lengthAdjust="spacing" textLength="161" x="189" y="560.9491">(Cocard::NewKTProxy.new)</text><line style="stroke:#181818;stroke-width:1.0;" x1="172" x2="214" y1="616.1701" y2="616.1701"/><line style="stroke:#181818;stroke-width:1.0;" x1="214" x2="214" y1="616.1701" y2="629.1701"/><line style="stroke:#181818;stroke-width:1.0;" x1="173" x2="214" y1="629.1701" y2="629.1701"/><polygon fill="#181818" points="183,625.1701,173,629.1701,183,633.1701,179,629.1701" style="stroke:#181818;stroke-width:1.0;"/><text fill="#000000" font-family="sans-serif" font-size="13" lengthAdjust="spacing" textLength="43" x="179" y="592.6551">update</text><text fill="#000000" font-family="sans-serif" font-size="13" lengthAdjust="spacing" textLength="36" x="179" y="610.3611">(ct_id)</text><!--SRC=[ZLB9Ri8m4BtxAqPm8L93r6iEN112g1k278iYDnw2Ix0jss7v-zgG15FQgZSdyvRnyrDKMrvmHOM5CTKiGxtZWbP03HGM-gMi6541w2cRQtay-VdMglFn7jJBPkEAex0zZtE_pnz_0TDqyJ9hqMu5GfnxFEeyKbXpmNAfyq8ZjVWk1eLzWFrM2X4HMbY-TtzRE6bfJg5p_owHDo0drPm2ePP5Elf5ogtM28MqPX2FLcuudMIGx1-J7HMqH9qKBjRODhcQn5Cu6hAAGqMDfgui31QJPHOHGjsv_ypBZPrgHD75W4Tkh240dMDulmOr_3HIE8oGxYBQYxYPuQAike1WHssnWOyJS0LIGrrpHh0o2FtA4nGNsokM6yyEN6zjdG-iPItO1N4VL_TaNM311NnayxVblp83k4rjWKP9OV3NrMuIGRTXy9xNTlrGhh7qAwJfAnwQnWy57YB2yBuYOTkkVQqLQtkQSnQHBm00]--></g></svg>