<?xml version="1.0" encoding="us-ascii" standalone="no"?><svg xmlns="http://www.w3.org/2000/svg" xmlns:xlink="http://www.w3.org/1999/xlink" contentStyleType="text/css" height="675px" preserveAspectRatio="none" style="width:496px;height:675px;background:#FFFFFF;" version="1.1" viewBox="0 0 496 675" width="496px" zoomAndPan="magnify"><defs/><g><line style="stroke:#181818;stroke-width:0.5;stroke-dasharray:5.0,5.0;" x1="38" x2="38" y1="39.0679" y2="637.1882"/><line style="stroke:#181818;stroke-width:0.5;stroke-dasharray:5.0,5.0;" x1="187" x2="187" y1="39.0679" y2="637.1882"/><rect fill="#FFD700" height="33.0679" rx="2.5" ry="2.5" style="stroke:#181818;stroke-width:0.5;" width="67" x="5" y="5"/><text fill="#000000" font-family="sans-serif" font-size="14" lengthAdjust="spacing" textLength="53" x="12" y="26.9659">KTProxy</text><rect fill="#FFD700" height="33.0679" rx="2.5" ry="2.5" style="stroke:#181818;stroke-width:0.5;" width="67" x="5" y="636.1882"/><text fill="#000000" font-family="sans-serif" font-size="14" lengthAdjust="spacing" textLength="53" x="12" y="658.1542">KTProxy</text><rect fill="#FFD700" height="33.0679" rx="2.5" ry="2.5" style="stroke:#181818;stroke-width:0.5;" width="211" x="82" y="5"/><text fill="#000000" font-family="sans-serif" font-size="14" lengthAdjust="spacing" textLength="197" x="89" y="26.9659">RISE::TIClient::CardTerminals</text><rect fill="#FFD700" height="33.0679" rx="2.5" ry="2.5" style="stroke:#181818;stroke-width:0.5;" width="211" x="82" y="636.1882"/><text fill="#000000" font-family="sans-serif" font-size="14" lengthAdjust="spacing" textLength="197" x="89" y="658.1542">RISE::TIClient::CardTerminals</text><polygon fill="#181818" points="175.5,86.4799,185.5,90.4799,175.5,94.4799,179.5,90.4799" style="stroke:#181818;stroke-width:1.0;"/><line style="stroke:#181818;stroke-width:1.0;" x1="38.5" x2="181.5" y1="90.4799" y2="90.4799"/><text fill="#000000" font-family="sans-serif" font-size="13" lengthAdjust="spacing" textLength="61" x="45.5" y="66.9649">get_proxy</text><text fill="#000000" font-family="sans-serif" font-size="13" lengthAdjust="spacing" textLength="55" x="45.5" y="84.6709">(ktproxy)</text><polygon fill="#181818" points="478.5,118.186,488.5,122.186,478.5,126.186,482.5,122.186" style="stroke:#181818;stroke-width:1.0;"/><line style="stroke:#181818;stroke-width:1.0;" x1="187.5" x2="484.5" y1="122.186" y2="122.186"/><text fill="#000000" font-family="sans-serif" font-size="13" lengthAdjust="spacing" textLength="270" x="194.5" y="116.377">GET /v1/manager/card-terminals/proxies/{id}</text><polygon fill="#181818" points="198.5,149.892,188.5,153.892,198.5,157.892,194.5,153.892" style="stroke:#181818;stroke-width:1.0;"/><line style="stroke:#181818;stroke-width:1.0;stroke-dasharray:2.0,2.0;" x1="192.5" x2="489.5" y1="153.892" y2="153.892"/><text fill="#000000" font-family="sans-serif" font-size="13" lengthAdjust="spacing" textLength="223" x="204.5" y="148.083">Response (cardterminal_proxies.json)</text><polygon fill="#181818" points="49.5,181.598,39.5,185.598,49.5,189.598,45.5,185.598" style="stroke:#181818;stroke-width:1.0;"/><line style="stroke:#181818;stroke-width:1.0;" x1="43.5" x2="186.5" y1="185.598" y2="185.598"/><text fill="#000000" font-family="sans-serif" font-size="13" lengthAdjust="spacing" textLength="75" x="55.5" y="179.789">ktproxy.json</text><polygon fill="#181818" points="175.5,231.01,185.5,235.01,175.5,239.01,179.5,235.01" style="stroke:#181818;stroke-width:1.0;"/><line style="stroke:#181818;stroke-width:1.0;" x1="38.5" x2="181.5" y1="235.01" y2="235.01"/><text fill="#000000" font-family="sans-serif" font-size="13" lengthAdjust="spacing" textLength="78" x="45.5" y="211.495">create_proxy</text><text fill="#000000" font-family="sans-serif" font-size="13" lengthAdjust="spacing" textLength="55" x="45.5" y="229.201">(ktproxy)</text><polygon fill="#181818" points="478.5,262.716,488.5,266.716,478.5,270.716,482.5,266.716" style="stroke:#181818;stroke-width:1.0;"/><line style="stroke:#181818;stroke-width:1.0;" x1="187.5" x2="484.5" y1="266.716" y2="266.716"/><text fill="#000000" font-family="sans-serif" font-size="13" lengthAdjust="spacing" textLength="253" x="194.5" y="260.907">POST /v1/manager/card-terminals/proxies</text><polygon fill="#181818" points="198.5,294.4221,188.5,298.4221,198.5,302.4221,194.5,298.4221" style="stroke:#181818;stroke-width:1.0;"/><line style="stroke:#181818;stroke-width:1.0;stroke-dasharray:2.0,2.0;" x1="192.5" x2="489.5" y1="298.4221" y2="298.4221"/><text fill="#000000" font-family="sans-serif" font-size="13" lengthAdjust="spacing" textLength="132" x="204.5" y="292.6131">Response (proxy.json)</text><polygon fill="#181818" points="49.5,326.1281,39.5,330.1281,49.5,334.1281,45.5,330.1281" style="stroke:#181818;stroke-width:1.0;"/><line style="stroke:#181818;stroke-width:1.0;stroke-dasharray:2.0,2.0;" x1="43.5" x2="186.5" y1="330.1281" y2="330.1281"/><text fill="#000000" font-family="sans-serif" font-size="13" lengthAdjust="spacing" textLength="75" x="55.5" y="324.3191">ktproxy.json</text><polygon fill="#181818" points="175.5,375.5401,185.5,379.5401,175.5,383.5401,179.5,379.5401" style="stroke:#181818;stroke-width:1.0;"/><line style="stroke:#181818;stroke-width:1.0;" x1="38.5" x2="181.5" y1="379.5401" y2="379.5401"/><text fill="#000000" font-family="sans-serif" font-size="13" lengthAdjust="spacing" textLength="84" x="45.5" y="356.0251">update_proxy</text><text fill="#000000" font-family="sans-serif" font-size="13" lengthAdjust="spacing" textLength="55" x="45.5" y="373.7311">(ktproxy)</text><polygon fill="#181818" points="478.5,407.2461,488.5,411.2461,478.5,415.2461,482.5,411.2461" style="stroke:#181818;stroke-width:1.0;"/><line style="stroke:#181818;stroke-width:1.0;" x1="187.5" x2="484.5" y1="411.2461" y2="411.2461"/><text fill="#000000" font-family="sans-serif" font-size="13" lengthAdjust="spacing" textLength="279" x="194.5" y="405.4371">POST /v1/manager/card-terminals/proxies/{id}</text><polygon fill="#181818" points="198.5,438.9521,188.5,442.9521,198.5,446.9521,194.5,442.9521" style="stroke:#181818;stroke-width:1.0;"/><line style="stroke:#181818;stroke-width:1.0;stroke-dasharray:2.0,2.0;" x1="192.5" x2="489.5" y1="442.9521" y2="442.9521"/><text fill="#000000" font-family="sans-serif" font-size="13" lengthAdjust="spacing" textLength="106" x="204.5" y="437.1431">Response (status)</text><polygon fill="#181818" points="49.5,470.6582,39.5,474.6582,49.5,478.6582,45.5,474.6582" style="stroke:#181818;stroke-width:1.0;"/><line style="stroke:#181818;stroke-width:1.0;stroke-dasharray:2.0,2.0;" x1="43.5" x2="186.5" y1="474.6582" y2="474.6582"/><text fill="#000000" font-family="sans-serif" font-size="13" lengthAdjust="spacing" textLength="57" x="55.5" y="468.8492">true/false</text><polygon fill="#181818" points="175.5,520.0702,185.5,524.0702,175.5,528.0702,179.5,524.0702" style="stroke:#181818;stroke-width:1.0;"/><line style="stroke:#181818;stroke-width:1.0;" x1="38.5" x2="181.5" y1="524.0702" y2="524.0702"/><text fill="#000000" font-family="sans-serif" font-size="13" lengthAdjust="spacing" textLength="87" x="45.5" y="500.5552">destroy_proxy</text><text fill="#000000" font-family="sans-serif" font-size="13" lengthAdjust="spacing" textLength="55" x="45.5" y="518.2612">(ktproxy)</text><polygon fill="#181818" points="478.5,551.7762,488.5,555.7762,478.5,559.7762,482.5,555.7762" style="stroke:#181818;stroke-width:1.0;"/><line style="stroke:#181818;stroke-width:1.0;" x1="187.5" x2="484.5" y1="555.7762" y2="555.7762"/><text fill="#000000" font-family="sans-serif" font-size="13" lengthAdjust="spacing" textLength="279" x="194.5" y="549.9672">POST /v1/manager/card-terminals/proxies/{id}</text><polygon fill="#181818" points="198.5,583.4822,188.5,587.4822,198.5,591.4822,194.5,587.4822" style="stroke:#181818;stroke-width:1.0;"/><line style="stroke:#181818;stroke-width:1.0;stroke-dasharray:2.0,2.0;" x1="192.5" x2="489.5" y1="587.4822" y2="587.4822"/><text fill="#000000" font-family="sans-serif" font-size="13" lengthAdjust="spacing" textLength="106" x="204.5" y="581.6732">Response (status)</text><polygon fill="#181818" points="49.5,615.1882,39.5,619.1882,49.5,623.1882,45.5,619.1882" style="stroke:#181818;stroke-width:1.0;"/><line style="stroke:#181818;stroke-width:1.0;stroke-dasharray:2.0,2.0;" x1="43.5" x2="186.5" y1="619.1882" y2="619.1882"/><text fill="#000000" font-family="sans-serif" font-size="13" lengthAdjust="spacing" textLength="57" x="55.5" y="613.3792">true/false</text><!--SRC=[pP0_Ry8m4CLtVmeB5ZgaLbSFB0XLg0C8CeBGARv6ReDj-IuL2F7TcqG9VuQKLkh0TlAzz-xt722opMm0ntBmbYwYtny64aX-SgXdESnzOKIubYrdgwdMwMnIM7IizGIYIJ7kh8E26dEbRNQjMuWkBHbVTbhcoDlcVUr6hU99dFV9U5DfNgUfL5ylQWSESemgguubt5rJjSaYgQCr9x59RlENIC4xGZcgNPrfstgUFyYxctldqhgR6aqVVXOH6EysMCnNlwdm0_q5vJhypxnbCF_8U-_BYO5BwWNcMA9wh_Am3zSWSVI7n-Fz1W00]--></g></svg>