<?xml version="1.0" encoding="us-ascii" standalone="no"?><svg xmlns="http://www.w3.org/2000/svg" xmlns:xlink="http://www.w3.org/1999/xlink" contentStyleType="text/css" height="1290px" preserveAspectRatio="none" style="width:687px;height:1290px;background:#FFFFFF;" version="1.1" viewBox="0 0 687 1290" width="687px" zoomAndPan="magnify"><defs><filter height="300%" id="f3ydwr27n04e0" width="300%" x="-1" y="-1"><feGaussianBlur result="blurOut" stdDeviation="2.0"/><feColorMatrix in="blurOut" result="blurOut2" type="matrix" values="0 0 0 0 0 0 0 0 0 0 0 0 0 0 0 0 0 0 .4 0"/><feOffset dx="4.0" dy="4.0" in="blurOut2" result="blurOut3"/><feBlend in="SourceGraphic" in2="blurOut3" mode="normal"/></filter></defs><g><!--class Connector--><g id="elem_Connector"><rect codeLine="5" fill="#FFF1D9" filter="url(#f3ydwr27n04e0)" height="314.9508" id="Connector" rx="5" ry="5" style="stroke:#181818;stroke-width:0.5;" width="222" x="7" y="503.48"/><rect fill="#FFD080" height="32" rx="5" ry="5" style="stroke:#FFD080;stroke-width:0.5;" width="222" x="7" y="503.48"/><rect fill="#FFD080" height="5" style="stroke:#FFD080;stroke-width:0.5;" width="222" x="7" y="530.48"/><rect codeLine="5" fill="none" height="314.9508" id="Connector" rx="5" ry="5" style="stroke:#181818;stroke-width:0.5;" width="222" x="7" y="503.48"/><ellipse cx="79.25" cy="519.48" fill="#ADD1B2" rx="11" ry="11" style="stroke:#181818;stroke-width:1.0;"/><path d="M79.3594,515.0113 Q78.4375,515.0113 77.7031,515.3238 Q76.9844,515.6363 76.4844,516.23 Q75.9844,516.8081 75.7031,517.6831 Q75.4375,518.5581 75.4375,519.6519 Q75.4375,521.0894 75.875,522.1363 Q76.3281,523.1831 77.1719,523.73 Q78.0313,524.2769 79.3438,524.2769 Q80.125,524.2769 80.8125,524.1519 Q81.5156,524.0113 82.5156,523.6988 L82.5156,525.5738 Q81.6563,525.9019 80.8906,526.0269 Q80.1406,526.1519 79.125,526.1519 Q77.2031,526.1519 75.8906,525.355 Q74.5938,524.5425 73.9375,523.0738 Q73.2813,521.5894 73.2813,519.6206 Q73.2813,518.1988 73.6719,517.0269 Q74.0781,515.8394 74.8594,514.9644 Q75.6406,514.0894 76.7813,513.6206 Q77.9219,513.1363 79.3906,513.1363 Q80.3438,513.1363 81.2344,513.3394 Q82.1406,513.5269 83.0781,513.9956 L82.25,515.7769 Q81.4688,515.4019 80.8125,515.2144 Q80.1563,515.0113 79.3594,515.0113 Z " fill="#000000"/><text fill="#000000" font-family="sans-serif" font-size="14" lengthAdjust="spacing" textLength="69" x="99.75" y="524.912">Connector</text><line style="stroke:#181818;stroke-width:0.5;" x1="8" x2="228" y1="535.48" y2="535.48"/><text fill="#000000" font-family="sans-serif" font-size="14" lengthAdjust="spacing" textLength="86" x="13" y="554.4459">name: string</text><text fill="#000000" font-family="sans-serif" font-size="14" lengthAdjust="spacing" textLength="141" x="13" y="573.5139">description: rich_text</text><text fill="#000000" font-family="sans-serif" font-size="14" lengthAdjust="spacing" textLength="47" x="13" y="592.5818">ip: inet</text><text fill="#000000" font-family="sans-serif" font-size="14" lengthAdjust="spacing" textLength="96" x="13" y="611.6497">sds_url: string</text><text fill="#000000" font-family="sans-serif" font-size="14" lengthAdjust="spacing" textLength="167" x="13" y="630.7176">manual_update: boolean</text><line style="stroke:#181818;stroke-width:1.0;" x1="8" x2="228" y1="638.8196" y2="638.8196"/><text fill="#000000" font-family="sans-serif" font-size="14" lengthAdjust="spacing" textLength="86" x="13" y="657.7855">sds_xml: text</text><text fill="#000000" font-family="sans-serif" font-size="14" lengthAdjust="spacing" textLength="185" x="13" y="676.8534">sds_updated_at: timestamp</text><text fill="#000000" font-family="sans-serif" font-size="14" lengthAdjust="spacing" textLength="172" x="13" y="695.9214">connector_services: jsonb</text><text fill="#000000" font-family="sans-serif" font-size="14" lengthAdjust="spacing" textLength="148" x="13" y="714.9893">last_check: timestamp</text><text fill="#000000" font-family="sans-serif" font-size="14" lengthAdjust="spacing" textLength="169" x="13" y="734.0572">last_check_ok: timestamp</text><text fill="#000000" font-family="sans-serif" font-size="14" lengthAdjust="spacing" textLength="120" x="13" y="753.1251">condition: integer</text><text fill="#000000" font-family="sans-serif" font-size="14" lengthAdjust="spacing" textLength="210" x="13" y="772.193">soap_request_success: boolean</text><text fill="#000000" font-family="sans-serif" font-size="14" lengthAdjust="spacing" textLength="144" x="13" y="791.2609">vpnti_online: boolean</text><text fill="#000000" font-family="sans-serif" font-size="14" lengthAdjust="spacing" textLength="164" x="13" y="810.3289">firmware_version: string</text></g><!--class CardTerminal--><g id="elem_CardTerminal"><rect codeLine="23" fill="#FFF1D9" filter="url(#f3ydwr27n04e0)" height="334.0188" id="CardTerminal" rx="5" ry="5" style="stroke:#181818;stroke-width:0.5;" width="153" x="263.5" y="493.95"/><rect fill="#FFD080" height="32" rx="5" ry="5" style="stroke:#FFD080;stroke-width:0.5;" width="153" x="263.5" y="493.95"/><rect fill="#FFD080" height="5" style="stroke:#FFD080;stroke-width:0.5;" width="153" x="263.5" y="520.95"/><rect codeLine="23" fill="none" height="334.0188" id="CardTerminal" rx="5" ry="5" style="stroke:#181818;stroke-width:0.5;" width="153" x="263.5" y="493.95"/><ellipse cx="291.55" cy="509.95" fill="#ADD1B2" rx="11" ry="11" style="stroke:#181818;stroke-width:1.0;"/><path d="M291.6594,505.4812 Q290.7375,505.4812 290.0031,505.7937 Q289.2844,506.1062 288.7844,506.7 Q288.2844,507.2781 288.0031,508.1531 Q287.7375,509.0281 287.7375,510.1219 Q287.7375,511.5594 288.175,512.6062 Q288.6281,513.6531 289.4719,514.2 Q290.3313,514.7469 291.6438,514.7469 Q292.425,514.7469 293.1125,514.6219 Q293.8156,514.4812 294.8156,514.1687 L294.8156,516.0437 Q293.9563,516.3719 293.1906,516.4969 Q292.4406,516.6219 291.425,516.6219 Q289.5031,516.6219 288.1906,515.825 Q286.8938,515.0125 286.2375,513.5437 Q285.5813,512.0594 285.5813,510.0906 Q285.5813,508.6687 285.9719,507.4969 Q286.3781,506.3094 287.1594,505.4344 Q287.9406,504.5594 289.0813,504.0906 Q290.2219,503.6062 291.6906,503.6062 Q292.6438,503.6062 293.5344,503.8094 Q294.4406,503.9969 295.3781,504.4656 L294.55,506.2469 Q293.7688,505.8719 293.1125,505.6844 Q292.4563,505.4812 291.6594,505.4812 Z " fill="#000000"/><text fill="#000000" font-family="sans-serif" font-size="14" lengthAdjust="spacing" textLength="92" x="308.45" y="515.382">CardTerminal</text><line style="stroke:#181818;stroke-width:0.5;" x1="264.5" x2="415.5" y1="525.95" y2="525.95"/><text fill="#000000" font-family="sans-serif" font-size="14" lengthAdjust="spacing" textLength="134" x="269.5" y="544.9159">displayname: string</text><text fill="#000000" font-family="sans-serif" font-size="14" lengthAdjust="spacing" textLength="141" x="269.5" y="563.9839">description: rich_text</text><text fill="#000000" font-family="sans-serif" font-size="14" lengthAdjust="spacing" textLength="83" x="269.5" y="583.0518">room: string</text><text fill="#000000" font-family="sans-serif" font-size="14" lengthAdjust="spacing" textLength="97" x="269.5" y="602.1197">contact: string</text><text fill="#000000" font-family="sans-serif" font-size="14" lengthAdjust="spacing" textLength="124" x="269.5" y="621.1876">plugged_in: string</text><text fill="#000000" font-family="sans-serif" font-size="14" lengthAdjust="spacing" textLength="72" x="269.5" y="640.2555">location_id</text><line style="stroke:#181818;stroke-width:1.0;" x1="264.5" x2="415.5" y1="648.3575" y2="648.3575"/><text fill="#000000" font-family="sans-serif" font-size="14" lengthAdjust="spacing" textLength="115" x="269.5" y="667.3234">properties: jsonb</text><text fill="#000000" font-family="sans-serif" font-size="14" lengthAdjust="spacing" textLength="86" x="269.5" y="686.3914">name: string</text><text fill="#000000" font-family="sans-serif" font-size="14" lengthAdjust="spacing" textLength="79" x="269.5" y="705.4593">ct_id: string</text><text fill="#000000" font-family="sans-serif" font-size="14" lengthAdjust="spacing" textLength="96" x="269.5" y="724.5272">mac: macaddr</text><text fill="#000000" font-family="sans-serif" font-size="14" lengthAdjust="spacing" textLength="47" x="269.5" y="743.5951">ip: inet</text><text fill="#000000" font-family="sans-serif" font-size="14" lengthAdjust="spacing" textLength="88" x="269.5" y="762.663">slots: integer</text><text fill="#000000" font-family="sans-serif" font-size="14" lengthAdjust="spacing" textLength="132" x="269.5" y="781.7309">connected: boolean</text><text fill="#000000" font-family="sans-serif" font-size="14" lengthAdjust="spacing" textLength="120" x="269.5" y="800.7989">condition: integer</text><text fill="#000000" font-family="sans-serif" font-size="14" lengthAdjust="spacing" textLength="86" x="269.5" y="819.8668">connector_id</text></g><!--class Location--><g id="elem_Location"><rect codeLine="42" fill="#FFF1D9" filter="url(#f3ydwr27n04e0)" height="86.1358" id="Location" rx="5" ry="5" style="stroke:#181818;stroke-width:0.5;" width="136" x="294" y="200.8"/><rect fill="#FFD080" height="32" rx="5" ry="5" style="stroke:#FFD080;stroke-width:0.5;" width="136" x="294" y="200.8"/><rect fill="#FFD080" height="5" style="stroke:#FFD080;stroke-width:0.5;" width="136" x="294" y="227.8"/><rect codeLine="42" fill="none" height="86.1358" id="Location" rx="5" ry="5" style="stroke:#181818;stroke-width:0.5;" width="136" x="294" y="200.8"/><ellipse cx="330.6" cy="216.8" fill="#ADD1B2" rx="11" ry="11" style="stroke:#181818;stroke-width:1.0;"/><path d="M330.7094,212.3312 Q329.7875,212.3312 329.0531,212.6437 Q328.3344,212.9562 327.8344,213.55 Q327.3344,214.1281 327.0531,215.0031 Q326.7875,215.8781 326.7875,216.9719 Q326.7875,218.4094 327.225,219.4562 Q327.6781,220.5031 328.5219,221.05 Q329.3813,221.5969 330.6938,221.5969 Q331.475,221.5969 332.1625,221.4719 Q332.8656,221.3312 333.8656,221.0187 L333.8656,222.8937 Q333.0063,223.2219 332.2406,223.3469 Q331.4906,223.4719 330.475,223.4719 Q328.5531,223.4719 327.2406,222.675 Q325.9438,221.8625 325.2875,220.3937 Q324.6313,218.9094 324.6313,216.9406 Q324.6313,215.5187 325.0219,214.3469 Q325.4281,213.1594 326.2094,212.2844 Q326.9906,211.4094 328.1313,210.9406 Q329.2719,210.4562 330.7406,210.4562 Q331.6938,210.4562 332.5844,210.6594 Q333.4906,210.8469 334.4281,211.3156 L333.6,213.0969 Q332.8188,212.7219 332.1625,212.5344 Q331.5063,212.3312 330.7094,212.3312 Z " fill="#000000"/><text fill="#000000" font-family="sans-serif" font-size="14" lengthAdjust="spacing" textLength="56" x="349.4" y="222.232">Location</text><line style="stroke:#181818;stroke-width:0.5;" x1="295" x2="429" y1="232.8" y2="232.8"/><text fill="#000000" font-family="sans-serif" font-size="14" lengthAdjust="spacing" textLength="65" x="300" y="251.7659">lid: string</text><text fill="#000000" font-family="sans-serif" font-size="14" lengthAdjust="spacing" textLength="124" x="300" y="270.8339">description: string</text><line style="stroke:#181818;stroke-width:0.5;" x1="295" x2="429" y1="278.9358" y2="278.9358"/></g><!--class Context--><g id="elem_Context"><rect codeLine="47" fill="#FFF1D9" filter="url(#f3ydwr27n04e0)" height="124.2717" id="Context" rx="5" ry="5" style="stroke:#181818;stroke-width:0.5;" width="150" x="294" y="7"/><rect fill="#FFD080" height="32" rx="5" ry="5" style="stroke:#FFD080;stroke-width:0.5;" width="150" x="294" y="7"/><rect fill="#FFD080" height="5" style="stroke:#FFD080;stroke-width:0.5;" width="150" x="294" y="34"/><rect codeLine="47" fill="none" height="124.2717" id="Context" rx="5" ry="5" style="stroke:#181818;stroke-width:0.5;" width="150" x="294" y="7"/><ellipse cx="339.25" cy="23" fill="#ADD1B2" rx="11" ry="11" style="stroke:#181818;stroke-width:1.0;"/><path d="M339.3594,18.5313 Q338.4375,18.5313 337.7031,18.8438 Q336.9844,19.1563 336.4844,19.75 Q335.9844,20.3281 335.7031,21.2031 Q335.4375,22.0781 335.4375,23.1719 Q335.4375,24.6094 335.875,25.6563 Q336.3281,26.7031 337.1719,27.25 Q338.0313,27.7969 339.3438,27.7969 Q340.125,27.7969 340.8125,27.6719 Q341.5156,27.5313 342.5156,27.2188 L342.5156,29.0938 Q341.6563,29.4219 340.8906,29.5469 Q340.1406,29.6719 339.125,29.6719 Q337.2031,29.6719 335.8906,28.875 Q334.5938,28.0625 333.9375,26.5938 Q333.2813,25.1094 333.2813,23.1406 Q333.2813,21.7188 333.6719,20.5469 Q334.0781,19.3594 334.8594,18.4844 Q335.6406,17.6094 336.7813,17.1406 Q337.9219,16.6563 339.3906,16.6563 Q340.3438,16.6563 341.2344,16.8594 Q342.1406,17.0469 343.0781,17.5156 L342.25,19.2969 Q341.4688,18.9219 340.8125,18.7344 Q340.1563,18.5313 339.3594,18.5313 Z " fill="#000000"/><text fill="#000000" font-family="sans-serif" font-size="14" lengthAdjust="spacing" textLength="51" x="359.75" y="28.432">Context</text><line style="stroke:#181818;stroke-width:0.5;" x1="295" x2="443" y1="39" y2="39"/><text fill="#000000" font-family="sans-serif" font-size="14" lengthAdjust="spacing" textLength="109" x="300" y="57.9659">mandant: string</text><text fill="#000000" font-family="sans-serif" font-size="14" lengthAdjust="spacing" textLength="138" x="300" y="77.0339">client_system: string</text><text fill="#000000" font-family="sans-serif" font-size="14" lengthAdjust="spacing" textLength="116" x="300" y="96.1018">workplace: string</text><text fill="#000000" font-family="sans-serif" font-size="14" lengthAdjust="spacing" textLength="124" x="300" y="115.1697">description: string</text><line style="stroke:#181818;stroke-width:0.5;" x1="295" x2="443" y1="123.2717" y2="123.2717"/></g><!--class ConnectorContext--><g id="elem_ConnectorContext"><rect codeLine="54" fill="#FFF1D9" filter="url(#f3ydwr27n04e0)" height="105.2038" id="ConnectorContext" rx="5" ry="5" style="stroke:#181818;stroke-width:0.5;" width="152" x="107" y="191.27"/><rect fill="#FFD080" height="32" rx="5" ry="5" style="stroke:#FFD080;stroke-width:0.5;" width="152" x="107" y="191.27"/><rect fill="#FFD080" height="5" style="stroke:#FFD080;stroke-width:0.5;" width="152" x="107" y="218.27"/><rect codeLine="54" fill="none" height="105.2038" id="ConnectorContext" rx="5" ry="5" style="stroke:#181818;stroke-width:0.5;" width="152" x="107" y="191.27"/><ellipse cx="122" cy="207.27" fill="#ADD1B2" rx="11" ry="11" style="stroke:#181818;stroke-width:1.0;"/><path d="M122.1094,202.8012 Q121.1875,202.8012 120.4531,203.1137 Q119.7344,203.4262 119.2344,204.02 Q118.7344,204.5981 118.4531,205.4731 Q118.1875,206.3481 118.1875,207.4419 Q118.1875,208.8794 118.625,209.9262 Q119.0781,210.9731 119.9219,211.52 Q120.7813,212.0669 122.0938,212.0669 Q122.875,212.0669 123.5625,211.9419 Q124.2656,211.8012 125.2656,211.4887 L125.2656,213.3637 Q124.4063,213.6919 123.6406,213.8169 Q122.8906,213.9419 121.875,213.9419 Q119.9531,213.9419 118.6406,213.145 Q117.3438,212.3325 116.6875,210.8637 Q116.0313,209.3794 116.0313,207.4106 Q116.0313,205.9887 116.4219,204.8169 Q116.8281,203.6294 117.6094,202.7544 Q118.3906,201.8794 119.5313,201.4106 Q120.6719,200.9262 122.1406,200.9262 Q123.0938,200.9262 123.9844,201.1294 Q124.8906,201.3169 125.8281,201.7856 L125,203.5669 Q124.2188,203.1919 123.5625,203.0044 Q122.9063,202.8012 122.1094,202.8012 Z " fill="#000000"/><text fill="#000000" font-family="sans-serif" font-size="14" lengthAdjust="spacing" textLength="120" x="136" y="212.702">ConnectorContext</text><line style="stroke:#181818;stroke-width:0.5;" x1="108" x2="258" y1="223.27" y2="223.27"/><text fill="#000000" font-family="sans-serif" font-size="14" lengthAdjust="spacing" textLength="86" x="113" y="242.2359">connector_id</text><text fill="#000000" font-family="sans-serif" font-size="14" lengthAdjust="spacing" textLength="68" x="113" y="261.3039">context_id</text><text fill="#000000" font-family="sans-serif" font-size="14" lengthAdjust="spacing" textLength="111" x="113" y="280.3718">position: integer</text><line style="stroke:#181818;stroke-width:0.5;" x1="108" x2="258" y1="288.4738" y2="288.4738"/></g><!--class Card--><g id="elem_Card"><rect codeLine="60" fill="#FFF1D9" filter="url(#f3ydwr27n04e0)" height="608.9696" id="Card" rx="5" ry="5" style="stroke:#181818;stroke-width:0.5;" width="222" x="451" y="356.47"/><rect fill="#FFD080" height="32" rx="5" ry="5" style="stroke:#FFD080;stroke-width:0.5;" width="222" x="451" y="356.47"/><rect fill="#FFD080" height="5" style="stroke:#FFD080;stroke-width:0.5;" width="222" x="451" y="383.47"/><rect codeLine="60" fill="none" height="608.9696" id="Card" rx="5" ry="5" style="stroke:#181818;stroke-width:0.5;" width="222" x="451" y="356.47"/><ellipse cx="541.75" cy="372.47" fill="#ADD1B2" rx="11" ry="11" style="stroke:#181818;stroke-width:1.0;"/><path d="M541.8594,368.0013 Q540.9375,368.0013 540.2031,368.3138 Q539.4844,368.6263 538.9844,369.22 Q538.4844,369.7981 538.2031,370.6731 Q537.9375,371.5481 537.9375,372.6419 Q537.9375,374.0794 538.375,375.1263 Q538.8281,376.1731 539.6719,376.72 Q540.5313,377.2669 541.8438,377.2669 Q542.625,377.2669 543.3125,377.1419 Q544.0156,377.0013 545.0156,376.6888 L545.0156,378.5638 Q544.1563,378.8919 543.3906,379.0169 Q542.6406,379.1419 541.625,379.1419 Q539.7031,379.1419 538.3906,378.345 Q537.0938,377.5325 536.4375,376.0638 Q535.7813,374.5794 535.7813,372.6106 Q535.7813,371.1888 536.1719,370.0169 Q536.5781,368.8294 537.3594,367.9544 Q538.1406,367.0794 539.2813,366.6106 Q540.4219,366.1263 541.8906,366.1263 Q542.8438,366.1263 543.7344,366.3294 Q544.6406,366.5169 545.5781,366.9856 L544.75,368.7669 Q543.9688,368.3919 543.3125,368.2044 Q542.6563,368.0013 541.8594,368.0013 Z " fill="#000000"/><text fill="#000000" font-family="sans-serif" font-size="14" lengthAdjust="spacing" textLength="32" x="562.25" y="377.902">Card</text><line style="stroke:#181818;stroke-width:0.5;" x1="452" x2="672" y1="388.47" y2="388.47"/><text fill="#000000" font-family="sans-serif" font-size="14" lengthAdjust="spacing" textLength="86" x="457" y="407.4359">name: string</text><text fill="#000000" font-family="sans-serif" font-size="14" lengthAdjust="spacing" textLength="141" x="457" y="426.5039">description: rich_text</text><text fill="#000000" font-family="sans-serif" font-size="14" lengthAdjust="spacing" textLength="135" x="457" y="445.5718">operational_state_id</text><text fill="#000000" font-family="sans-serif" font-size="14" lengthAdjust="spacing" textLength="72" x="457" y="464.6397">location_id</text><text fill="#000000" font-family="sans-serif" font-size="14" lengthAdjust="spacing" textLength="75" x="457" y="483.7076">lanr: string</text><text fill="#000000" font-family="sans-serif" font-size="14" lengthAdjust="spacing" textLength="135" x="457" y="502.7755">fachrichtung: string</text><text fill="#000000" font-family="sans-serif" font-size="14" lengthAdjust="spacing" textLength="79" x="457" y="521.8434">bsnr: string</text><text fill="#000000" font-family="sans-serif" font-size="14" lengthAdjust="spacing" textLength="123" x="457" y="540.9114">telematikid: string</text><text fill="#000000" font-family="sans-serif" font-size="14" lengthAdjust="spacing" textLength="68" x="457" y="559.9793">context_id</text><line style="stroke:#181818;stroke-width:1.0;" x1="452" x2="672" y1="568.0813" y2="568.0813"/><text fill="#000000" font-family="sans-serif" font-size="14" lengthAdjust="spacing" textLength="115" x="457" y="587.0472">properties: jsonb</text><text fill="#000000" font-family="sans-serif" font-size="14" lengthAdjust="spacing" textLength="131" x="457" y="606.1151">card_handle: string</text><text fill="#000000" font-family="sans-serif" font-size="14" lengthAdjust="spacing" textLength="113" x="457" y="625.183">card_type: string</text><text fill="#000000" font-family="sans-serif" font-size="14" lengthAdjust="spacing" textLength="82" x="457" y="644.2509">iccsn: string</text><text fill="#000000" font-family="sans-serif" font-size="14" lengthAdjust="spacing" textLength="94" x="457" y="663.3189">slotid: integer</text><text fill="#000000" font-family="sans-serif" font-size="14" lengthAdjust="spacing" textLength="155" x="457" y="682.3868">insert_time: timestamp</text><text fill="#000000" font-family="sans-serif" font-size="14" lengthAdjust="spacing" textLength="172" x="457" y="701.4547">card_holder_name: string</text><text fill="#000000" font-family="sans-serif" font-size="14" lengthAdjust="spacing" textLength="142" x="457" y="720.5226">expiration_date: date</text><text fill="#000000" font-family="sans-serif" font-size="14" lengthAdjust="spacing" textLength="120" x="457" y="739.5905">condition: integer</text><text fill="#000000" font-family="sans-serif" font-size="14" lengthAdjust="spacing" textLength="117" x="457" y="758.6584">pin_status: string</text><text fill="#000000" font-family="sans-serif" font-size="14" lengthAdjust="spacing" textLength="112" x="457" y="777.7264">card_terminal_id</text><line style="stroke:#181818;stroke-width:1.0;" x1="452" x2="672" y1="785.8283" y2="785.8283"/><text fill="#000000" font-family="sans-serif" font-size="14" lengthAdjust="spacing" textLength="96" x="457" y="804.7943">certificate:text</text><text fill="#000000" font-family="sans-serif" font-size="14" lengthAdjust="spacing" textLength="151" x="457" y="823.8622">cert_subject_cn: string</text><text fill="#000000" font-family="sans-serif" font-size="14" lengthAdjust="spacing" textLength="161" x="457" y="842.9301">cert_subject_title: string</text><text fill="#000000" font-family="sans-serif" font-size="14" lengthAdjust="spacing" textLength="151" x="457" y="861.998">cert_subject_sn: string</text><text fill="#000000" font-family="sans-serif" font-size="14" lengthAdjust="spacing" textLength="210" x="457" y="881.0659">cert_subject_givenname: string</text><text fill="#000000" font-family="sans-serif" font-size="14" lengthAdjust="spacing" textLength="174" x="457" y="900.1339">cert_subject_street: string</text><text fill="#000000" font-family="sans-serif" font-size="14" lengthAdjust="spacing" textLength="208" x="457" y="919.2018">cert_subject_postalcode: string</text><text fill="#000000" font-family="sans-serif" font-size="14" lengthAdjust="spacing" textLength="139" x="457" y="938.2697">cert_subject_l: string</text><text fill="#000000" font-family="sans-serif" font-size="14" lengthAdjust="spacing" textLength="143" x="457" y="957.3376">cert_subject_o: string</text></g><!--class Workplace--><g id="elem_Workplace"><rect codeLine="94" fill="#FFF1D9" filter="url(#f3ydwr27n04e0)" height="86.1358" id="Workplace" rx="5" ry="5" style="stroke:#181818;stroke-width:0.5;" width="136" x="272" y="1190.64"/><rect fill="#FFD080" height="32" rx="5" ry="5" style="stroke:#FFD080;stroke-width:0.5;" width="136" x="272" y="1190.64"/><rect fill="#FFD080" height="5" style="stroke:#FFD080;stroke-width:0.5;" width="136" x="272" y="1217.64"/><rect codeLine="94" fill="none" height="86.1358" id="Workplace" rx="5" ry="5" style="stroke:#181818;stroke-width:0.5;" width="136" x="272" y="1190.64"/><ellipse cx="302.3" cy="1206.64" fill="#ADD1B2" rx="11" ry="11" style="stroke:#181818;stroke-width:1.0;"/><path d="M302.4094,1202.1712 Q301.4875,1202.1712 300.7531,1202.4837 Q300.0344,1202.7962 299.5344,1203.39 Q299.0344,1203.9681 298.7531,1204.8431 Q298.4875,1205.7181 298.4875,1206.8119 Q298.4875,1208.2494 298.925,1209.2962 Q299.3781,1210.3431 300.2219,1210.89 Q301.0813,1211.4369 302.3938,1211.4369 Q303.175,1211.4369 303.8625,1211.3119 Q304.5656,1211.1712 305.5656,1210.8587 L305.5656,1212.7337 Q304.7063,1213.0619 303.9406,1213.1869 Q303.1906,1213.3119 302.175,1213.3119 Q300.2531,1213.3119 298.9406,1212.515 Q297.6438,1211.7025 296.9875,1210.2337 Q296.3313,1208.7494 296.3313,1206.7806 Q296.3313,1205.3587 296.7219,1204.1869 Q297.1281,1202.9994 297.9094,1202.1244 Q298.6906,1201.2494 299.8313,1200.7806 Q300.9719,1200.2962 302.4406,1200.2962 Q303.3938,1200.2962 304.2844,1200.4994 Q305.1906,1200.6869 306.1281,1201.1556 L305.3,1202.9369 Q304.5188,1202.5619 303.8625,1202.3744 Q303.2063,1202.1712 302.4094,1202.1712 Z " fill="#000000"/><text fill="#000000" font-family="sans-serif" font-size="14" lengthAdjust="spacing" textLength="70" x="319.7" y="1212.072">Workplace</text><line style="stroke:#181818;stroke-width:0.5;" x1="273" x2="407" y1="1222.64" y2="1222.64"/><text fill="#000000" font-family="sans-serif" font-size="14" lengthAdjust="spacing" textLength="124" x="278" y="1241.6059">description: string</text><line style="stroke:#181818;stroke-width:1.0;" x1="273" x2="407" y1="1249.7079" y2="1249.7079"/><text fill="#000000" font-family="sans-serif" font-size="14" lengthAdjust="spacing" textLength="86" x="278" y="1268.6739">name: string</text></g><!--class TerminalWorkplaces--><g id="elem_TerminalWorkplaces"><rect codeLine="99" fill="#FFF1D9" filter="url(#f3ydwr27n04e0)" height="105.2038" id="TerminalWorkplaces" rx="5" ry="5" style="stroke:#181818;stroke-width:0.5;" width="169" x="377.5" y="1025.44"/><rect fill="#FFD080" height="32" rx="5" ry="5" style="stroke:#FFD080;stroke-width:0.5;" width="169" x="377.5" y="1025.44"/><rect fill="#FFD080" height="5" style="stroke:#FFD080;stroke-width:0.5;" width="169" x="377.5" y="1052.44"/><rect codeLine="99" fill="none" height="105.2038" id="TerminalWorkplaces" rx="5" ry="5" style="stroke:#181818;stroke-width:0.5;" width="169" x="377.5" y="1025.44"/><ellipse cx="392.5" cy="1041.44" fill="#ADD1B2" rx="11" ry="11" style="stroke:#181818;stroke-width:1.0;"/><path d="M392.6094,1036.9713 Q391.6875,1036.9713 390.9531,1037.2838 Q390.2344,1037.5963 389.7344,1038.19 Q389.2344,1038.7681 388.9531,1039.6431 Q388.6875,1040.5181 388.6875,1041.6119 Q388.6875,1043.0494 389.125,1044.0963 Q389.5781,1045.1431 390.4219,1045.69 Q391.2813,1046.2369 392.5938,1046.2369 Q393.375,1046.2369 394.0625,1046.1119 Q394.7656,1045.9713 395.7656,1045.6588 L395.7656,1047.5338 Q394.9063,1047.8619 394.1406,1047.9869 Q393.3906,1048.1119 392.375,1048.1119 Q390.4531,1048.1119 389.1406,1047.315 Q387.8438,1046.5025 387.1875,1045.0338 Q386.5313,1043.5494 386.5313,1041.5806 Q386.5313,1040.1588 386.9219,1038.9869 Q387.3281,1037.7994 388.1094,1036.9244 Q388.8906,1036.0494 390.0313,1035.5806 Q391.1719,1035.0963 392.6406,1035.0963 Q393.5938,1035.0963 394.4844,1035.2994 Q395.3906,1035.4869 396.3281,1035.9556 L395.5,1037.7369 Q394.7188,1037.3619 394.0625,1037.1744 Q393.4063,1036.9713 392.6094,1036.9713 Z " fill="#000000"/><text fill="#000000" font-family="sans-serif" font-size="14" lengthAdjust="spacing" textLength="137" x="406.5" y="1046.872">TerminalWorkplaces</text><line style="stroke:#181818;stroke-width:0.5;" x1="378.5" x2="545.5" y1="1057.44" y2="1057.44"/><text fill="#000000" font-family="sans-serif" font-size="14" lengthAdjust="spacing" textLength="112" x="383.5" y="1076.4059">card_terminal_id</text><text fill="#000000" font-family="sans-serif" font-size="14" lengthAdjust="spacing" textLength="87" x="383.5" y="1095.4739">workplace_id</text><text fill="#000000" font-family="sans-serif" font-size="14" lengthAdjust="spacing" textLength="76" x="383.5" y="1114.5418">updated_at</text><line style="stroke:#181818;stroke-width:0.5;" x1="378.5" x2="545.5" y1="1122.6438" y2="1122.6438"/></g><!--class OperationalState--><g id="elem_OperationalState"><rect codeLine="104" fill="#FFF1D9" filter="url(#f3ydwr27n04e0)" height="105.2038" id="OperationalState" rx="5" ry="5" style="stroke:#181818;stroke-width:0.5;" width="151" x="464.5" y="191.27"/><rect fill="#FFD080" height="32" rx="5" ry="5" style="stroke:#FFD080;stroke-width:0.5;" width="151" x="464.5" y="191.27"/><rect fill="#FFD080" height="5" style="stroke:#FFD080;stroke-width:0.5;" width="151" x="464.5" y="218.27"/><rect codeLine="104" fill="none" height="105.2038" id="OperationalState" rx="5" ry="5" style="stroke:#181818;stroke-width:0.5;" width="151" x="464.5" y="191.27"/><ellipse cx="481.75" cy="207.27" fill="#ADD1B2" rx="11" ry="11" style="stroke:#181818;stroke-width:1.0;"/><path d="M481.8594,202.8012 Q480.9375,202.8012 480.2031,203.1137 Q479.4844,203.4262 478.9844,204.02 Q478.4844,204.5981 478.2031,205.4731 Q477.9375,206.3481 477.9375,207.4419 Q477.9375,208.8794 478.375,209.9262 Q478.8281,210.9731 479.6719,211.52 Q480.5313,212.0669 481.8438,212.0669 Q482.625,212.0669 483.3125,211.9419 Q484.0156,211.8012 485.0156,211.4887 L485.0156,213.3637 Q484.1563,213.6919 483.3906,213.8169 Q482.6406,213.9419 481.625,213.9419 Q479.7031,213.9419 478.3906,213.145 Q477.0938,212.3325 476.4375,210.8637 Q475.7813,209.3794 475.7813,207.4106 Q475.7813,205.9887 476.1719,204.8169 Q476.5781,203.6294 477.3594,202.7544 Q478.1406,201.8794 479.2813,201.4106 Q480.4219,200.9262 481.8906,200.9262 Q482.8438,200.9262 483.7344,201.1294 Q484.6406,201.3169 485.5781,201.7856 L484.75,203.5669 Q483.9688,203.1919 483.3125,203.0044 Q482.6563,202.8012 481.8594,202.8012 Z " fill="#000000"/><text fill="#000000" font-family="sans-serif" font-size="14" lengthAdjust="spacing" textLength="114" x="496.25" y="212.702">OperationalState</text><line style="stroke:#181818;stroke-width:0.5;" x1="465.5" x2="614.5" y1="223.27" y2="223.27"/><text fill="#000000" font-family="sans-serif" font-size="14" lengthAdjust="spacing" textLength="86" x="470.5" y="242.2359">name: string</text><text fill="#000000" font-family="sans-serif" font-size="14" lengthAdjust="spacing" textLength="124" x="470.5" y="261.3039">description: string</text><text fill="#000000" font-family="sans-serif" font-size="14" lengthAdjust="spacing" textLength="139" x="470.5" y="280.3718">operational: boolean</text><line style="stroke:#181818;stroke-width:0.5;" x1="465.5" x2="614.5" y1="288.4738" y2="288.4738"/></g><ellipse cx="70" cy="243.87" fill="#181818" rx="2" ry="2" style="stroke:#181818;stroke-width:1.0;"/><ellipse cx="340" cy="1078.04" fill="#181818" rx="2" ry="2" style="stroke:#181818;stroke-width:1.0;"/><!--link Location to Connector--><g id="link_Location_Connector"><path codeLine="110" d="M309.12,287.38 C287.49,306.74 263.49,331.02 246,356.47 C215.4,401.01 189.95,454.02 170.02,503.18 " fill="none" id="Location-Connector" style="stroke:#181818;stroke-width:1.0;"/><text fill="#000000" font-family="sans-serif" font-size="13" lengthAdjust="spacing" textLength="7" x="293.8392" y="308.9681">*</text><text fill="#000000" font-family="sans-serif" font-size="13" lengthAdjust="spacing" textLength="7" x="165.5218" y="491.5216">*</text></g><!--link Connector to CardTerminal--><g id="link_Connector_CardTerminal"><path codeLine="112" d="M229.43,660.96 C240.66,660.96 251.89,660.96 263.12,660.96 " fill="none" id="Connector-CardTerminal" style="stroke:#181818;stroke-width:1.0;"/><text fill="#000000" font-family="sans-serif" font-size="13" lengthAdjust="spacing" textLength="20" x="235.5194" y="657.2393">0..1</text><text fill="#000000" font-family="sans-serif" font-size="13" lengthAdjust="spacing" textLength="7" x="248.4588" y="657.0806">*</text></g><!--link Location to CardTerminal--><g id="link_Location_CardTerminal"><path codeLine="113" d="M359.75,287.34 C357.17,336 352.79,418.73 348.8,493.89 " fill="none" id="Location-CardTerminal" style="stroke:#181818;stroke-width:1.0;"/><text fill="#000000" font-family="sans-serif" font-size="13" lengthAdjust="spacing" textLength="20" x="337.9508" y="308.9223">0..1</text><text fill="#000000" font-family="sans-serif" font-size="13" lengthAdjust="spacing" textLength="7" x="342.0567" y="482.3">*</text></g><!--link Context to apoint15--><g id="link_Context_apoint15"><path d="M293.65,85.78 C231.52,102.27 144.97,134.06 90,191.27 C75.09,206.79 70.96,234.65 70.16,241.38 " fill="none" id="Context-apoint15" style="stroke:#181818;stroke-width:1.0;"/><text fill="#000000" font-family="sans-serif" font-size="13" lengthAdjust="spacing" textLength="7" x="278.8882" y="83.5135">*</text></g><!--link apoint15 to Connector--><g id="link_apoint15_Connector"><path d="M70.14,246.06 C71.74,259.91 87.01,391.93 99.87,503.2 " fill="none" id="apoint15-Connector" style="stroke:#181818;stroke-width:1.0;"/><text fill="#000000" font-family="sans-serif" font-size="13" lengthAdjust="spacing" textLength="7" x="91.7547" y="491.5427">*</text></g><!--link apoint15 to ConnectorContext--><g id="link_apoint15_ConnectorContext"><path d="M72.21,243.87 C83.75,243.87 95.29,243.87 106.83,243.87 " fill="none" id="apoint15-ConnectorContext" style="stroke:#181818;stroke-width:1.0;stroke-dasharray:7.0,7.0;"/></g><!--link CardTerminal to Card--><g id="link_CardTerminal_Card"><path codeLine="115" d="M416.75,660.96 C428,660.96 439.25,660.96 450.51,660.96 " fill="none" id="CardTerminal-Card" style="stroke:#181818;stroke-width:1.0;"/><text fill="#000000" font-family="sans-serif" font-size="13" lengthAdjust="spacing" textLength="20" x="423.0814" y="657.0345">0..1</text><text fill="#000000" font-family="sans-serif" font-size="13" lengthAdjust="spacing" textLength="7" x="436.1435" y="657.3354">*</text></g><!--link CardTerminal to apoint22--><g id="link_CardTerminal_apoint22"><path d="M340,828.4 C340,938.46 340,1064.6 340,1076.18 " fill="none" id="CardTerminal-apoint22" style="stroke:#181818;stroke-width:1.0;"/><text fill="#000000" font-family="sans-serif" font-size="13" lengthAdjust="spacing" textLength="7" x="332.8523" y="849.7344">*</text></g><!--link apoint22 to Workplace--><g id="link_apoint22_Workplace"><path d="M340,1080.37 C340,1089.9 340,1148.72 340,1190.41 " fill="none" id="apoint22-Workplace" style="stroke:#181818;stroke-width:1.0;"/><text fill="#000000" font-family="sans-serif" font-size="13" lengthAdjust="spacing" textLength="7" x="332.4203" y="1178.7865">*</text></g><!--link apoint22 to TerminalWorkplaces--><g id="link_apoint22_TerminalWorkplaces"><path d="M342.38,1078.04 C354.06,1078.04 365.75,1078.04 377.43,1078.04 " fill="none" id="apoint22-TerminalWorkplaces" style="stroke:#181818;stroke-width:1.0;stroke-dasharray:7.0,7.0;"/></g><!--link Location to Card--><g id="link_Location_Card"><path codeLine="118" d="M391.84,287.28 C405.55,307.69 421.51,332.82 434,356.47 C439.61,367.09 445.16,378.01 450.62,389.1 " fill="none" id="Location-Card" style="stroke:#181818;stroke-width:1.0;"/><text fill="#000000" font-family="sans-serif" font-size="13" lengthAdjust="spacing" textLength="20" x="374.754" y="308.8534">0..1</text><text fill="#000000" font-family="sans-serif" font-size="13" lengthAdjust="spacing" textLength="7" x="435.9015" y="367.1844">*</text></g><!--link OperationalState to Card--><g id="link_OperationalState_Card"><path codeLine="119" d="M542.74,296.6 C543.65,313.66 544.73,334.03 545.91,356.3 " fill="none" id="OperationalState-Card" style="stroke:#181818;stroke-width:1.0;"/><text fill="#000000" font-family="sans-serif" font-size="13" lengthAdjust="spacing" textLength="7" x="535.6426" y="318.3871">1</text><text fill="#000000" font-family="sans-serif" font-size="13" lengthAdjust="spacing" textLength="7" x="538.3896" y="344.8882">*</text></g><!--link Context to Card--><g id="link_Context_Card"><path codeLine="120" d="M444.44,82.06 C506.87,96.34 591.75,126.96 633,191.27 C664.49,240.36 673.1,298.2 669.09,356.17 " fill="none" id="Context-Card" style="stroke:#181818;stroke-width:1.0;"/><text fill="#000000" font-family="sans-serif" font-size="13" lengthAdjust="spacing" textLength="7" x="451.964" y="79.4123">1</text><text fill="#000000" font-family="sans-serif" font-size="13" lengthAdjust="spacing" textLength="7" x="664.8416" y="344.7548">*</text></g><!--SRC=[bLKxRzim4DxrArXFRP4OxUerQu4EBT2HeCcppPWYMVBas2ZottlKavIiDbbawzxttNqdT9wXOtk7w6gcT029sjcg-e0dg8599qLGx118kwqgQKICxCbPItOkCFQdOioA6dOiOj3sIAyAeWpQfp0x5hGySOGhaaBx7TCMqj-e8c-2oRngOHjXUEELG8gsTyw0iAHuVEpjhpNPzw5Q_zPKSO4arZL45BKddHogun72HKk8E_OSdTsJZif7BayWpwNF9EVkl0YdTDUCjWX722c_4vu7-DsG6O-Df2GnB_hYBMhkhA5-S_b1X_f51E0N2B6DsGFmEc9BSF-4K6ihJ8kkqj4RSNihoC6vEhEZwb58p2JUDCSZmQPj9ZGqvXIBQpL0xeFp453dyCsAa4ZsnGpbBZs4Kc4sR-CmvW3sGmALetCNwccSLDi8qxU-u1OYKrHHGBE0b_0We5etMZabR8wDD1ei3VGM4N8KNrmuqn0al2DDLtIUh-Ya6msfkXVlugppOYFUnRCqjnOSuXDjCKANefon4JPamGv2db8CREmn4-zZOOLWeAOWvmBmef7LtKbtX9y8SbEiK9BYpUSoBMNCbpCjJqeuxOIsH6taYQOpihP9d54G-0mkk7hTmSAx4vEUQqldjMsXQ-AYrfwRMRSojNhGCaNjHv14T1VsppHlBlDc2WrgBD78bN7LxQWlOETSB5mn0E2QbdODXP5EhVgRDOLRhlglWHlTjRh3YXwcek3Nwgdr7axT62LsL5b2FNAmUvsk_nZh-xJtFzBQ_vSqepHZp7IFgCFnocm-RwY9zcUaTZLmUqtPVoCtNxRRhsJH6MJdFGlVczon-JW6UXYEroUsNHoOglXkB5BEr5F18-wKA3Dvc1IKRNjdJFyglbfCOZCp6A4hvNy1]--></g></svg>