<?xml version="1.0" encoding="us-ascii" standalone="no"?><svg xmlns="http://www.w3.org/2000/svg" xmlns:xlink="http://www.w3.org/1999/xlink" contentStyleType="text/css" height="977px" preserveAspectRatio="none" style="width:684px;height:977px;background:#FFFFFF;" version="1.1" viewBox="0 0 684 977" width="684px" zoomAndPan="magnify"><defs><filter height="300%" id="f1ompshprtj0oc" width="300%" x="-1" y="-1"><feGaussianBlur result="blurOut" stdDeviation="2.0"/><feColorMatrix in="blurOut" result="blurOut2" type="matrix" values="0 0 0 0 0 0 0 0 0 0 0 0 0 0 0 0 0 0 .4 0"/><feOffset dx="4.0" dy="4.0" in="blurOut2" result="blurOut3"/><feBlend in="SourceGraphic" in2="blurOut3" mode="normal"/></filter></defs><g><!--class Connector--><g id="elem_Connector"><rect codeLine="5" fill="#FFF1D9" filter="url(#f1ompshprtj0oc)" height="295.8829" id="Connector" rx="5" ry="5" style="stroke:#181818;stroke-width:0.5;" width="222" x="41" y="356.48"/><rect fill="#FFD080" height="32" rx="5" ry="5" style="stroke:#FFD080;stroke-width:0.5;" width="222" x="41" y="356.48"/><rect fill="#FFD080" height="5" style="stroke:#FFD080;stroke-width:0.5;" width="222" x="41" y="383.48"/><rect codeLine="5" fill="none" height="295.8829" id="Connector" rx="5" ry="5" style="stroke:#181818;stroke-width:0.5;" width="222" x="41" y="356.48"/><ellipse cx="113.25" cy="372.48" fill="#ADD1B2" rx="11" ry="11" style="stroke:#181818;stroke-width:1.0;"/><path d="M113.3594,368.0113 Q112.4375,368.0113 111.7031,368.3238 Q110.9844,368.6363 110.4844,369.23 Q109.9844,369.8081 109.7031,370.6831 Q109.4375,371.5581 109.4375,372.6519 Q109.4375,374.0894 109.875,375.1363 Q110.3281,376.1831 111.1719,376.73 Q112.0313,377.2769 113.3438,377.2769 Q114.125,377.2769 114.8125,377.1519 Q115.5156,377.0113 116.5156,376.6988 L116.5156,378.5738 Q115.6563,378.9019 114.8906,379.0269 Q114.1406,379.1519 113.125,379.1519 Q111.2031,379.1519 109.8906,378.355 Q108.5938,377.5425 107.9375,376.0738 Q107.2813,374.5894 107.2813,372.6206 Q107.2813,371.1988 107.6719,370.0269 Q108.0781,368.8394 108.8594,367.9644 Q109.6406,367.0894 110.7813,366.6206 Q111.9219,366.1363 113.3906,366.1363 Q114.3438,366.1363 115.2344,366.3394 Q116.1406,366.5269 117.0781,366.9956 L116.25,368.7769 Q115.4688,368.4019 114.8125,368.2144 Q114.1563,368.0113 113.3594,368.0113 Z " fill="#000000"/><text fill="#000000" font-family="sans-serif" font-size="14" lengthAdjust="spacing" textLength="69" x="133.75" y="377.912">Connector</text><line style="stroke:#181818;stroke-width:0.5;" x1="42" x2="262" y1="388.48" y2="388.48"/><text fill="#000000" font-family="sans-serif" font-size="14" lengthAdjust="spacing" textLength="86" x="47" y="407.4459">name: string</text><text fill="#000000" font-family="sans-serif" font-size="14" lengthAdjust="spacing" textLength="141" x="47" y="426.5139">description: rich_text</text><text fill="#000000" font-family="sans-serif" font-size="14" lengthAdjust="spacing" textLength="47" x="47" y="445.5818">ip: inet</text><text fill="#000000" font-family="sans-serif" font-size="14" lengthAdjust="spacing" textLength="96" x="47" y="464.6497">sds_url: string</text><text fill="#000000" font-family="sans-serif" font-size="14" lengthAdjust="spacing" textLength="167" x="47" y="483.7176">manual_update: boolean</text><line style="stroke:#181818;stroke-width:1.0;" x1="42" x2="262" y1="491.8196" y2="491.8196"/><text fill="#000000" font-family="sans-serif" font-size="14" lengthAdjust="spacing" textLength="86" x="47" y="510.7855">sds_xml: text</text><text fill="#000000" font-family="sans-serif" font-size="14" lengthAdjust="spacing" textLength="185" x="47" y="529.8534">sds_updated_at: timestamp</text><text fill="#000000" font-family="sans-serif" font-size="14" lengthAdjust="spacing" textLength="172" x="47" y="548.9214">connector_services: jsonb</text><text fill="#000000" font-family="sans-serif" font-size="14" lengthAdjust="spacing" textLength="148" x="47" y="567.9893">last_check: timestamp</text><text fill="#000000" font-family="sans-serif" font-size="14" lengthAdjust="spacing" textLength="169" x="47" y="587.0572">last_check_ok: timestamp</text><text fill="#000000" font-family="sans-serif" font-size="14" lengthAdjust="spacing" textLength="120" x="47" y="606.1251">condition: integer</text><text fill="#000000" font-family="sans-serif" font-size="14" lengthAdjust="spacing" textLength="210" x="47" y="625.193">soap_request_success: boolean</text><text fill="#000000" font-family="sans-serif" font-size="14" lengthAdjust="spacing" textLength="144" x="47" y="644.2609">vpnti_online: boolean</text></g><!--class CardTerminal--><g id="elem_CardTerminal"><rect codeLine="22" fill="#FFF1D9" filter="url(#f1ompshprtj0oc)" height="276.815" id="CardTerminal" rx="5" ry="5" style="stroke:#181818;stroke-width:0.5;" width="153" x="297.5" y="366.01"/><rect fill="#FFD080" height="32" rx="5" ry="5" style="stroke:#FFD080;stroke-width:0.5;" width="153" x="297.5" y="366.01"/><rect fill="#FFD080" height="5" style="stroke:#FFD080;stroke-width:0.5;" width="153" x="297.5" y="393.01"/><rect codeLine="22" fill="none" height="276.815" id="CardTerminal" rx="5" ry="5" style="stroke:#181818;stroke-width:0.5;" width="153" x="297.5" y="366.01"/><ellipse cx="325.55" cy="382.01" fill="#ADD1B2" rx="11" ry="11" style="stroke:#181818;stroke-width:1.0;"/><path d="M325.6594,377.5413 Q324.7375,377.5413 324.0031,377.8538 Q323.2844,378.1663 322.7844,378.76 Q322.2844,379.3381 322.0031,380.2131 Q321.7375,381.0881 321.7375,382.1819 Q321.7375,383.6194 322.175,384.6663 Q322.6281,385.7131 323.4719,386.26 Q324.3313,386.8069 325.6438,386.8069 Q326.425,386.8069 327.1125,386.6819 Q327.8156,386.5413 328.8156,386.2288 L328.8156,388.1038 Q327.9563,388.4319 327.1906,388.5569 Q326.4406,388.6819 325.425,388.6819 Q323.5031,388.6819 322.1906,387.885 Q320.8938,387.0725 320.2375,385.6038 Q319.5813,384.1194 319.5813,382.1506 Q319.5813,380.7288 319.9719,379.5569 Q320.3781,378.3694 321.1594,377.4944 Q321.9406,376.6194 323.0813,376.1506 Q324.2219,375.6663 325.6906,375.6663 Q326.6438,375.6663 327.5344,375.8694 Q328.4406,376.0569 329.3781,376.5256 L328.55,378.3069 Q327.7688,377.9319 327.1125,377.7444 Q326.4563,377.5413 325.6594,377.5413 Z " fill="#000000"/><text fill="#000000" font-family="sans-serif" font-size="14" lengthAdjust="spacing" textLength="92" x="342.45" y="387.442">CardTerminal</text><line style="stroke:#181818;stroke-width:0.5;" x1="298.5" x2="449.5" y1="398.01" y2="398.01"/><text fill="#000000" font-family="sans-serif" font-size="14" lengthAdjust="spacing" textLength="134" x="303.5" y="416.9759">displayname: string</text><text fill="#000000" font-family="sans-serif" font-size="14" lengthAdjust="spacing" textLength="141" x="303.5" y="436.0439">description: rich_text</text><text fill="#000000" font-family="sans-serif" font-size="14" lengthAdjust="spacing" textLength="72" x="303.5" y="455.1118">location_id</text><line style="stroke:#181818;stroke-width:1.0;" x1="298.5" x2="449.5" y1="463.2138" y2="463.2138"/><text fill="#000000" font-family="sans-serif" font-size="14" lengthAdjust="spacing" textLength="115" x="303.5" y="482.1797">properties: jsonb</text><text fill="#000000" font-family="sans-serif" font-size="14" lengthAdjust="spacing" textLength="86" x="303.5" y="501.2476">name: string</text><text fill="#000000" font-family="sans-serif" font-size="14" lengthAdjust="spacing" textLength="79" x="303.5" y="520.3155">ct_id: string</text><text fill="#000000" font-family="sans-serif" font-size="14" lengthAdjust="spacing" textLength="96" x="303.5" y="539.3834">mac: macaddr</text><text fill="#000000" font-family="sans-serif" font-size="14" lengthAdjust="spacing" textLength="47" x="303.5" y="558.4514">ip: inet</text><text fill="#000000" font-family="sans-serif" font-size="14" lengthAdjust="spacing" textLength="88" x="303.5" y="577.5193">slots: integer</text><text fill="#000000" font-family="sans-serif" font-size="14" lengthAdjust="spacing" textLength="132" x="303.5" y="596.5872">connected: boolean</text><text fill="#000000" font-family="sans-serif" font-size="14" lengthAdjust="spacing" textLength="120" x="303.5" y="615.6551">condition: integer</text><text fill="#000000" font-family="sans-serif" font-size="14" lengthAdjust="spacing" textLength="86" x="303.5" y="634.723">connector_id</text></g><!--class Location--><g id="elem_Location"><rect codeLine="38" fill="#FFF1D9" filter="url(#f1ompshprtj0oc)" height="86.1358" id="Location" rx="5" ry="5" style="stroke:#181818;stroke-width:0.5;" width="136" x="306" y="200.81"/><rect fill="#FFD080" height="32" rx="5" ry="5" style="stroke:#FFD080;stroke-width:0.5;" width="136" x="306" y="200.81"/><rect fill="#FFD080" height="5" style="stroke:#FFD080;stroke-width:0.5;" width="136" x="306" y="227.81"/><rect codeLine="38" fill="none" height="86.1358" id="Location" rx="5" ry="5" style="stroke:#181818;stroke-width:0.5;" width="136" x="306" y="200.81"/><ellipse cx="342.6" cy="216.81" fill="#ADD1B2" rx="11" ry="11" style="stroke:#181818;stroke-width:1.0;"/><path d="M342.7094,212.3413 Q341.7875,212.3413 341.0531,212.6538 Q340.3344,212.9663 339.8344,213.56 Q339.3344,214.1381 339.0531,215.0131 Q338.7875,215.8881 338.7875,216.9819 Q338.7875,218.4194 339.225,219.4663 Q339.6781,220.5131 340.5219,221.06 Q341.3813,221.6069 342.6938,221.6069 Q343.475,221.6069 344.1625,221.4819 Q344.8656,221.3413 345.8656,221.0288 L345.8656,222.9038 Q345.0063,223.2319 344.2406,223.3569 Q343.4906,223.4819 342.475,223.4819 Q340.5531,223.4819 339.2406,222.685 Q337.9438,221.8725 337.2875,220.4038 Q336.6313,218.9194 336.6313,216.9506 Q336.6313,215.5288 337.0219,214.3569 Q337.4281,213.1694 338.2094,212.2944 Q338.9906,211.4194 340.1313,210.9506 Q341.2719,210.4663 342.7406,210.4663 Q343.6938,210.4663 344.5844,210.6694 Q345.4906,210.8569 346.4281,211.3256 L345.6,213.1069 Q344.8188,212.7319 344.1625,212.5444 Q343.5063,212.3413 342.7094,212.3413 Z " fill="#000000"/><text fill="#000000" font-family="sans-serif" font-size="14" lengthAdjust="spacing" textLength="56" x="361.4" y="222.242">Location</text><line style="stroke:#181818;stroke-width:0.5;" x1="307" x2="441" y1="232.81" y2="232.81"/><text fill="#000000" font-family="sans-serif" font-size="14" lengthAdjust="spacing" textLength="65" x="312" y="251.7759">lid: string</text><text fill="#000000" font-family="sans-serif" font-size="14" lengthAdjust="spacing" textLength="124" x="312" y="270.8439">description: string</text><line style="stroke:#181818;stroke-width:0.5;" x1="307" x2="441" y1="278.9458" y2="278.9458"/></g><!--class Context--><g id="elem_Context"><rect codeLine="43" fill="#FFF1D9" filter="url(#f1ompshprtj0oc)" height="124.2717" id="Context" rx="5" ry="5" style="stroke:#181818;stroke-width:0.5;" width="150" x="7" y="7"/><rect fill="#FFD080" height="32" rx="5" ry="5" style="stroke:#FFD080;stroke-width:0.5;" width="150" x="7" y="7"/><rect fill="#FFD080" height="5" style="stroke:#FFD080;stroke-width:0.5;" width="150" x="7" y="34"/><rect codeLine="43" fill="none" height="124.2717" id="Context" rx="5" ry="5" style="stroke:#181818;stroke-width:0.5;" width="150" x="7" y="7"/><ellipse cx="52.25" cy="23" fill="#ADD1B2" rx="11" ry="11" style="stroke:#181818;stroke-width:1.0;"/><path d="M52.3594,18.5313 Q51.4375,18.5313 50.7031,18.8438 Q49.9844,19.1563 49.4844,19.75 Q48.9844,20.3281 48.7031,21.2031 Q48.4375,22.0781 48.4375,23.1719 Q48.4375,24.6094 48.875,25.6563 Q49.3281,26.7031 50.1719,27.25 Q51.0313,27.7969 52.3438,27.7969 Q53.125,27.7969 53.8125,27.6719 Q54.5156,27.5313 55.5156,27.2188 L55.5156,29.0938 Q54.6563,29.4219 53.8906,29.5469 Q53.1406,29.6719 52.125,29.6719 Q50.2031,29.6719 48.8906,28.875 Q47.5938,28.0625 46.9375,26.5938 Q46.2813,25.1094 46.2813,23.1406 Q46.2813,21.7188 46.6719,20.5469 Q47.0781,19.3594 47.8594,18.4844 Q48.6406,17.6094 49.7813,17.1406 Q50.9219,16.6563 52.3906,16.6563 Q53.3438,16.6563 54.2344,16.8594 Q55.1406,17.0469 56.0781,17.5156 L55.25,19.2969 Q54.4688,18.9219 53.8125,18.7344 Q53.1563,18.5313 52.3594,18.5313 Z " fill="#000000"/><text fill="#000000" font-family="sans-serif" font-size="14" lengthAdjust="spacing" textLength="51" x="72.75" y="28.432">Context</text><line style="stroke:#181818;stroke-width:0.5;" x1="8" x2="156" y1="39" y2="39"/><text fill="#000000" font-family="sans-serif" font-size="14" lengthAdjust="spacing" textLength="109" x="13" y="57.9659">mandant: string</text><text fill="#000000" font-family="sans-serif" font-size="14" lengthAdjust="spacing" textLength="138" x="13" y="77.0339">client_system: string</text><text fill="#000000" font-family="sans-serif" font-size="14" lengthAdjust="spacing" textLength="116" x="13" y="96.1018">workplace: string</text><text fill="#000000" font-family="sans-serif" font-size="14" lengthAdjust="spacing" textLength="124" x="13" y="115.1697">description: string</text><line style="stroke:#181818;stroke-width:0.5;" x1="8" x2="156" y1="123.2717" y2="123.2717"/></g><!--class ConnectorContext--><g id="elem_ConnectorContext"><rect codeLine="50" fill="#FFF1D9" filter="url(#f1ompshprtj0oc)" height="105.2038" id="ConnectorContext" rx="5" ry="5" style="stroke:#181818;stroke-width:0.5;" width="152" x="119" y="191.27"/><rect fill="#FFD080" height="32" rx="5" ry="5" style="stroke:#FFD080;stroke-width:0.5;" width="152" x="119" y="191.27"/><rect fill="#FFD080" height="5" style="stroke:#FFD080;stroke-width:0.5;" width="152" x="119" y="218.27"/><rect codeLine="50" fill="none" height="105.2038" id="ConnectorContext" rx="5" ry="5" style="stroke:#181818;stroke-width:0.5;" width="152" x="119" y="191.27"/><ellipse cx="134" cy="207.27" fill="#ADD1B2" rx="11" ry="11" style="stroke:#181818;stroke-width:1.0;"/><path d="M134.1094,202.8013 Q133.1875,202.8013 132.4531,203.1138 Q131.7344,203.4263 131.2344,204.02 Q130.7344,204.5981 130.4531,205.4731 Q130.1875,206.3481 130.1875,207.4419 Q130.1875,208.8794 130.625,209.9263 Q131.0781,210.9731 131.9219,211.52 Q132.7813,212.0669 134.0938,212.0669 Q134.875,212.0669 135.5625,211.9419 Q136.2656,211.8013 137.2656,211.4888 L137.2656,213.3638 Q136.4063,213.6919 135.6406,213.8169 Q134.8906,213.9419 133.875,213.9419 Q131.9531,213.9419 130.6406,213.145 Q129.3438,212.3325 128.6875,210.8638 Q128.0313,209.3794 128.0313,207.4106 Q128.0313,205.9888 128.4219,204.8169 Q128.8281,203.6294 129.6094,202.7544 Q130.3906,201.8794 131.5313,201.4106 Q132.6719,200.9263 134.1406,200.9263 Q135.0938,200.9263 135.9844,201.1294 Q136.8906,201.3169 137.8281,201.7856 L137,203.5669 Q136.2188,203.1919 135.5625,203.0044 Q134.9063,202.8013 134.1094,202.8013 Z " fill="#000000"/><text fill="#000000" font-family="sans-serif" font-size="14" lengthAdjust="spacing" textLength="120" x="148" y="212.702">ConnectorContext</text><line style="stroke:#181818;stroke-width:0.5;" x1="120" x2="270" y1="223.27" y2="223.27"/><text fill="#000000" font-family="sans-serif" font-size="14" lengthAdjust="spacing" textLength="86" x="125" y="242.2359">connector_id</text><text fill="#000000" font-family="sans-serif" font-size="14" lengthAdjust="spacing" textLength="68" x="125" y="261.3039">context_id</text><text fill="#000000" font-family="sans-serif" font-size="14" lengthAdjust="spacing" textLength="111" x="125" y="280.3718">position: integer</text><line style="stroke:#181818;stroke-width:0.5;" x1="120" x2="270" y1="288.4738" y2="288.4738"/></g><!--class Card--><g id="elem_Card"><rect codeLine="56" fill="#FFF1D9" filter="url(#f1ompshprtj0oc)" height="200.5433" id="Card" rx="5" ry="5" style="stroke:#181818;stroke-width:0.5;" width="184" x="486" y="404.15"/><rect fill="#FFD080" height="32" rx="5" ry="5" style="stroke:#FFD080;stroke-width:0.5;" width="184" x="486" y="404.15"/><rect fill="#FFD080" height="5" style="stroke:#FFD080;stroke-width:0.5;" width="184" x="486" y="431.15"/><rect codeLine="56" fill="none" height="200.5433" id="Card" rx="5" ry="5" style="stroke:#181818;stroke-width:0.5;" width="184" x="486" y="404.15"/><ellipse cx="557.75" cy="420.15" fill="#ADD1B2" rx="11" ry="11" style="stroke:#181818;stroke-width:1.0;"/><path d="M557.8594,415.6813 Q556.9375,415.6813 556.2031,415.9938 Q555.4844,416.3063 554.9844,416.9 Q554.4844,417.4781 554.2031,418.3531 Q553.9375,419.2281 553.9375,420.3219 Q553.9375,421.7594 554.375,422.8063 Q554.8281,423.8531 555.6719,424.4 Q556.5313,424.9469 557.8438,424.9469 Q558.625,424.9469 559.3125,424.8219 Q560.0156,424.6813 561.0156,424.3688 L561.0156,426.2438 Q560.1563,426.5719 559.3906,426.6969 Q558.6406,426.8219 557.625,426.8219 Q555.7031,426.8219 554.3906,426.025 Q553.0938,425.2125 552.4375,423.7438 Q551.7813,422.2594 551.7813,420.2906 Q551.7813,418.8688 552.1719,417.6969 Q552.5781,416.5094 553.3594,415.6344 Q554.1406,414.7594 555.2813,414.2906 Q556.4219,413.8063 557.8906,413.8063 Q558.8438,413.8063 559.7344,414.0094 Q560.6406,414.1969 561.5781,414.6656 L560.75,416.4469 Q559.9688,416.0719 559.3125,415.8844 Q558.6563,415.6813 557.8594,415.6813 Z " fill="#000000"/><text fill="#000000" font-family="sans-serif" font-size="14" lengthAdjust="spacing" textLength="32" x="578.25" y="425.582">Card</text><line style="stroke:#181818;stroke-width:0.5;" x1="487" x2="669" y1="436.15" y2="436.15"/><line style="stroke:#181818;stroke-width:1.0;" x1="487" x2="669" y1="444.15" y2="444.15"/><text fill="#000000" font-family="sans-serif" font-size="14" lengthAdjust="spacing" textLength="131" x="492" y="463.1159">card_handle: string</text><text fill="#000000" font-family="sans-serif" font-size="14" lengthAdjust="spacing" textLength="113" x="492" y="482.1839">card_type: string</text><text fill="#000000" font-family="sans-serif" font-size="14" lengthAdjust="spacing" textLength="82" x="492" y="501.2518">iccsn: string</text><text fill="#000000" font-family="sans-serif" font-size="14" lengthAdjust="spacing" textLength="94" x="492" y="520.3197">slotid: integer</text><text fill="#000000" font-family="sans-serif" font-size="14" lengthAdjust="spacing" textLength="155" x="492" y="539.3876">insert_time: timestamp</text><text fill="#000000" font-family="sans-serif" font-size="14" lengthAdjust="spacing" textLength="172" x="492" y="558.4555">card_holder_name: string</text><text fill="#000000" font-family="sans-serif" font-size="14" lengthAdjust="spacing" textLength="142" x="492" y="577.5234">expiration_date: date</text><text fill="#000000" font-family="sans-serif" font-size="14" lengthAdjust="spacing" textLength="112" x="492" y="596.5914">card_terminal_id</text></g><!--class Workplace--><g id="elem_Workplace"><rect codeLine="68" fill="#FFF1D9" filter="url(#f1ompshprtj0oc)" height="86.1358" id="Workplace" rx="5" ry="5" style="stroke:#181818;stroke-width:0.5;" width="136" x="306" y="877.56"/><rect fill="#FFD080" height="32" rx="5" ry="5" style="stroke:#FFD080;stroke-width:0.5;" width="136" x="306" y="877.56"/><rect fill="#FFD080" height="5" style="stroke:#FFD080;stroke-width:0.5;" width="136" x="306" y="904.56"/><rect codeLine="68" fill="none" height="86.1358" id="Workplace" rx="5" ry="5" style="stroke:#181818;stroke-width:0.5;" width="136" x="306" y="877.56"/><ellipse cx="336.3" cy="893.56" fill="#ADD1B2" rx="11" ry="11" style="stroke:#181818;stroke-width:1.0;"/><path d="M336.4094,889.0913 Q335.4875,889.0913 334.7531,889.4038 Q334.0344,889.7163 333.5344,890.31 Q333.0344,890.8881 332.7531,891.7631 Q332.4875,892.6381 332.4875,893.7319 Q332.4875,895.1694 332.925,896.2163 Q333.3781,897.2631 334.2219,897.81 Q335.0813,898.3569 336.3938,898.3569 Q337.175,898.3569 337.8625,898.2319 Q338.5656,898.0913 339.5656,897.7788 L339.5656,899.6538 Q338.7063,899.9819 337.9406,900.1069 Q337.1906,900.2319 336.175,900.2319 Q334.2531,900.2319 332.9406,899.435 Q331.6438,898.6225 330.9875,897.1538 Q330.3313,895.6694 330.3313,893.7006 Q330.3313,892.2788 330.7219,891.1069 Q331.1281,889.9194 331.9094,889.0444 Q332.6906,888.1694 333.8313,887.7006 Q334.9719,887.2163 336.4406,887.2163 Q337.3938,887.2163 338.2844,887.4194 Q339.1906,887.6069 340.1281,888.0756 L339.3,889.8569 Q338.5188,889.4819 337.8625,889.2944 Q337.2063,889.0913 336.4094,889.0913 Z " fill="#000000"/><text fill="#000000" font-family="sans-serif" font-size="14" lengthAdjust="spacing" textLength="70" x="353.7" y="898.992">Workplace</text><line style="stroke:#181818;stroke-width:0.5;" x1="307" x2="441" y1="909.56" y2="909.56"/><text fill="#000000" font-family="sans-serif" font-size="14" lengthAdjust="spacing" textLength="124" x="312" y="928.5259">description: string</text><line style="stroke:#181818;stroke-width:1.0;" x1="307" x2="441" y1="936.6279" y2="936.6279"/><text fill="#000000" font-family="sans-serif" font-size="14" lengthAdjust="spacing" textLength="86" x="312" y="955.5939">name: string</text></g><!--class TerminalWorkplaces--><g id="elem_TerminalWorkplaces"><rect codeLine="73" fill="#FFF1D9" filter="url(#f1ompshprtj0oc)" height="105.2038" id="TerminalWorkplaces" rx="5" ry="5" style="stroke:#181818;stroke-width:0.5;" width="169" x="411.5" y="712.36"/><rect fill="#FFD080" height="32" rx="5" ry="5" style="stroke:#FFD080;stroke-width:0.5;" width="169" x="411.5" y="712.36"/><rect fill="#FFD080" height="5" style="stroke:#FFD080;stroke-width:0.5;" width="169" x="411.5" y="739.36"/><rect codeLine="73" fill="none" height="105.2038" id="TerminalWorkplaces" rx="5" ry="5" style="stroke:#181818;stroke-width:0.5;" width="169" x="411.5" y="712.36"/><ellipse cx="426.5" cy="728.36" fill="#ADD1B2" rx="11" ry="11" style="stroke:#181818;stroke-width:1.0;"/><path d="M426.6094,723.8913 Q425.6875,723.8913 424.9531,724.2038 Q424.2344,724.5163 423.7344,725.11 Q423.2344,725.6881 422.9531,726.5631 Q422.6875,727.4381 422.6875,728.5319 Q422.6875,729.9694 423.125,731.0163 Q423.5781,732.0631 424.4219,732.61 Q425.2813,733.1569 426.5938,733.1569 Q427.375,733.1569 428.0625,733.0319 Q428.7656,732.8913 429.7656,732.5788 L429.7656,734.4538 Q428.9063,734.7819 428.1406,734.9069 Q427.3906,735.0319 426.375,735.0319 Q424.4531,735.0319 423.1406,734.235 Q421.8438,733.4225 421.1875,731.9538 Q420.5313,730.4694 420.5313,728.5006 Q420.5313,727.0788 420.9219,725.9069 Q421.3281,724.7194 422.1094,723.8444 Q422.8906,722.9694 424.0313,722.5006 Q425.1719,722.0163 426.6406,722.0163 Q427.5938,722.0163 428.4844,722.2194 Q429.3906,722.4069 430.3281,722.8756 L429.5,724.6569 Q428.7188,724.2819 428.0625,724.0944 Q427.4063,723.8913 426.6094,723.8913 Z " fill="#000000"/><text fill="#000000" font-family="sans-serif" font-size="14" lengthAdjust="spacing" textLength="137" x="440.5" y="733.792">TerminalWorkplaces</text><line style="stroke:#181818;stroke-width:0.5;" x1="412.5" x2="579.5" y1="744.36" y2="744.36"/><text fill="#000000" font-family="sans-serif" font-size="14" lengthAdjust="spacing" textLength="112" x="417.5" y="763.3259">card_terminal_id</text><text fill="#000000" font-family="sans-serif" font-size="14" lengthAdjust="spacing" textLength="87" x="417.5" y="782.3939">workplace_id</text><text fill="#000000" font-family="sans-serif" font-size="14" lengthAdjust="spacing" textLength="76" x="417.5" y="801.4618">updated_at</text><line style="stroke:#181818;stroke-width:0.5;" x1="412.5" x2="579.5" y1="809.5638" y2="809.5638"/></g><ellipse cx="82" cy="243.88" fill="#181818" rx="2" ry="2" style="stroke:#181818;stroke-width:1.0;"/><ellipse cx="374" cy="764.96" fill="#181818" rx="2" ry="2" style="stroke:#181818;stroke-width:1.0;"/><!--link Location to Connector--><g id="link_Location_Connector"><path codeLine="79" d="M337.59,287.28 C317.11,311.13 290.32,342.33 263.5,373.57 " fill="none" id="Location-Connector" style="stroke:#181818;stroke-width:1.0;"/><text fill="#000000" font-family="sans-serif" font-size="13" lengthAdjust="spacing" textLength="7" x="324.7282" y="308.852">*</text><text fill="#000000" font-family="sans-serif" font-size="13" lengthAdjust="spacing" textLength="7" x="270.8672" y="361.5624">*</text></g><!--link Connector to CardTerminal--><g id="link_Connector_CardTerminal"><path codeLine="81" d="M263.43,504.42 C274.66,504.42 285.89,504.42 297.12,504.42 " fill="none" id="Connector-CardTerminal" style="stroke:#181818;stroke-width:1.0;"/><text fill="#000000" font-family="sans-serif" font-size="13" lengthAdjust="spacing" textLength="7" x="271.1519" y="500.7695">1</text><text fill="#000000" font-family="sans-serif" font-size="13" lengthAdjust="spacing" textLength="7" x="282.4588" y="500.5407">*</text></g><!--link Location to CardTerminal--><g id="link_Location_CardTerminal"><path codeLine="82" d="M374,287.28 C374,309.13 374,337.13 374,365.69 " fill="none" id="Location-CardTerminal" style="stroke:#181818;stroke-width:1.0;"/><text fill="#000000" font-family="sans-serif" font-size="13" lengthAdjust="spacing" textLength="7" x="366.4859" y="308.852">1</text><text fill="#000000" font-family="sans-serif" font-size="13" lengthAdjust="spacing" textLength="7" x="366.7977" y="354.0958">*</text></g><!--link Context to apoint14--><g id="link_Context_apoint14"><path d="M82,131.53 C82,177.3 82,233.31 82,241.78 " fill="none" id="Context-apoint14" style="stroke:#181818;stroke-width:1.0;"/><text fill="#000000" font-family="sans-serif" font-size="13" lengthAdjust="spacing" textLength="7" x="74.6172" y="153.2197">*</text></g><!--link apoint14 to Connector--><g id="link_apoint14_Connector"><path d="M82.31,246.03 C84.49,254.08 97.77,303.14 112.17,356.3 " fill="none" id="apoint14-Connector" style="stroke:#181818;stroke-width:1.0;"/><text fill="#000000" font-family="sans-serif" font-size="13" lengthAdjust="spacing" textLength="7" x="102.8004" y="344.6511">*</text></g><!--link apoint14 to ConnectorContext--><g id="link_apoint14_ConnectorContext"><path d="M84.21,243.88 C95.75,243.88 107.29,243.88 118.83,243.88 " fill="none" id="apoint14-ConnectorContext" style="stroke:#181818;stroke-width:1.0;stroke-dasharray:7.0,7.0;"/></g><!--link CardTerminal to Card--><g id="link_CardTerminal_Card"><path codeLine="84" d="M450.9,504.42 C462.48,504.42 474.07,504.42 485.65,504.42 " fill="none" id="CardTerminal-Card" style="stroke:#181818;stroke-width:1.0;"/><text fill="#000000" font-family="sans-serif" font-size="13" lengthAdjust="spacing" textLength="7" x="458.5631" y="500.5407">1</text><text fill="#000000" font-family="sans-serif" font-size="13" lengthAdjust="spacing" textLength="7" x="471.012" y="500.6677">*</text></g><!--link CardTerminal to apoint21--><g id="link_CardTerminal_apoint21"><path d="M374,643.02 C374,699.94 374,754.7 374,762.91 " fill="none" id="CardTerminal-apoint21" style="stroke:#181818;stroke-width:1.0;"/><text fill="#000000" font-family="sans-serif" font-size="13" lengthAdjust="spacing" textLength="7" x="366.8195" y="664.5202">*</text></g><!--link apoint21 to Workplace--><g id="link_apoint21_Workplace"><path d="M374,767.29 C374,776.82 374,835.64 374,877.33 " fill="none" id="apoint21-Workplace" style="stroke:#181818;stroke-width:1.0;"/><text fill="#000000" font-family="sans-serif" font-size="13" lengthAdjust="spacing" textLength="7" x="366.4203" y="865.7065">*</text></g><!--link apoint21 to TerminalWorkplaces--><g id="link_apoint21_TerminalWorkplaces"><path d="M376.38,764.96 C388.06,764.96 399.75,764.96 411.43,764.96 " fill="none" id="apoint21-TerminalWorkplaces" style="stroke:#181818;stroke-width:1.0;stroke-dasharray:7.0,7.0;"/></g><!--SRC=[bLHDZniX3BtFhw0vjTLkf5vptMkFbVQ82BWRDmnGy6mJLVdlDSmNJ5AflIJ1pzX-pu-G3uAyE7eYtmk34JIXTrttWKxGWz1UgsZ4zyZelkkqLIc95-ySv_aenEzE2ATwE8X44TqR7mqa7J7aCWSHKPyamOKOm70Gw23_J2R98ThgLg_SeAmSWb74rOxUMr2EWUVdAV_IS_vKgjmlgKOguZ3sa4ZrWJ4zJoSJn7VKa0xYH_Bko1YFJrAVG9_REsjS-lDTEOCZ6NG4Rn1pVw-2ZF1pu3IP1irDKZtqUt24qZlBVDVuRH6GDVq6iKUdR97GO0fMNVzLISjRoL69PbOeH1yW4jPiD-KqSNuZkJxa3sLCtAp7UaertqbJC3N9XygiwlDi2-6lqy25h6scQ4XEqLlbj4ovN6E76EMe9cGH7Ej_JGHz5V_buvdbrF0VRSQXwtuDatBCq7W8FcsODxijzyjQykkH9vxSDfl8KRg6EePQ9rUTymwoKAkqwDZG9BCvDnOjJRmr4ELcvt0964UlZ0yhVouJJ1PiLlKwYpSQyu5i4xMcqwrxARTdLozLqgZbjbsrfF6ulkOyokANtUSTTojVovAwUKj_0wS_fzqNXaUqUczLxSVunwN2q-o_JsA_lpD9rxpYjjW6M-TSTE4sLShJ2fHUzpB-0G00]--></g></svg>