<?xml version="1.0" encoding="us-ascii" standalone="no"?><svg xmlns="http://www.w3.org/2000/svg" xmlns:xlink="http://www.w3.org/1999/xlink" contentStyleType="text/css" height="1290px" preserveAspectRatio="none" style="width:711px;height:1290px;background:#FFFFFF;" version="1.1" viewBox="0 0 711 1290" width="711px" zoomAndPan="magnify"><defs><filter height="300%" id="f1khsyfdm2rdcz" width="300%" x="-1" y="-1"><feGaussianBlur result="blurOut" stdDeviation="2.0"/><feColorMatrix in="blurOut" result="blurOut2" type="matrix" values="0 0 0 0 0 0 0 0 0 0 0 0 0 0 0 0 0 0 .4 0"/><feOffset dx="4.0" dy="4.0" in="blurOut2" result="blurOut3"/><feBlend in="SourceGraphic" in2="blurOut3" mode="normal"/></filter></defs><g><!--class Connector--><g id="elem_Connector"><rect codeLine="5" fill="#FFF1D9" filter="url(#f1khsyfdm2rdcz)" height="334.0188" id="Connector" rx="5" ry="5" style="stroke:#181818;stroke-width:0.5;" width="222" x="7" y="493.95"/><rect fill="#FFD080" height="32" rx="5" ry="5" style="stroke:#FFD080;stroke-width:0.5;" width="222" x="7" y="493.95"/><rect fill="#FFD080" height="5" style="stroke:#FFD080;stroke-width:0.5;" width="222" x="7" y="520.95"/><rect codeLine="5" fill="none" height="334.0188" id="Connector" rx="5" ry="5" style="stroke:#181818;stroke-width:0.5;" width="222" x="7" y="493.95"/><ellipse cx="79.25" cy="509.95" fill="#ADD1B2" rx="11" ry="11" style="stroke:#181818;stroke-width:1.0;"/><path d="M79.3594,505.4812 Q78.4375,505.4812 77.7031,505.7937 Q76.9844,506.1062 76.4844,506.7 Q75.9844,507.2781 75.7031,508.1531 Q75.4375,509.0281 75.4375,510.1219 Q75.4375,511.5594 75.875,512.6062 Q76.3281,513.6531 77.1719,514.2 Q78.0313,514.7469 79.3438,514.7469 Q80.125,514.7469 80.8125,514.6219 Q81.5156,514.4812 82.5156,514.1687 L82.5156,516.0437 Q81.6563,516.3719 80.8906,516.4969 Q80.1406,516.6219 79.125,516.6219 Q77.2031,516.6219 75.8906,515.825 Q74.5938,515.0125 73.9375,513.5437 Q73.2813,512.0594 73.2813,510.0906 Q73.2813,508.6687 73.6719,507.4969 Q74.0781,506.3094 74.8594,505.4344 Q75.6406,504.5594 76.7813,504.0906 Q77.9219,503.6062 79.3906,503.6062 Q80.3438,503.6062 81.2344,503.8094 Q82.1406,503.9969 83.0781,504.4656 L82.25,506.2469 Q81.4688,505.8719 80.8125,505.6844 Q80.1563,505.4812 79.3594,505.4812 Z " fill="#000000"/><text fill="#000000" font-family="sans-serif" font-size="14" lengthAdjust="spacing" textLength="69" x="99.75" y="515.382">Connector</text><line style="stroke:#181818;stroke-width:0.5;" x1="8" x2="228" y1="525.95" y2="525.95"/><text fill="#000000" font-family="sans-serif" font-size="14" lengthAdjust="spacing" textLength="86" x="13" y="544.9159">name: string</text><text fill="#000000" font-family="sans-serif" font-size="14" lengthAdjust="spacing" textLength="141" x="13" y="563.9839">description: rich_text</text><text fill="#000000" font-family="sans-serif" font-size="14" lengthAdjust="spacing" textLength="47" x="13" y="583.0518">ip: inet</text><text fill="#000000" font-family="sans-serif" font-size="14" lengthAdjust="spacing" textLength="116" x="13" y="602.1197">admin_url: string</text><text fill="#000000" font-family="sans-serif" font-size="14" lengthAdjust="spacing" textLength="96" x="13" y="621.1876">sds_url: string</text><text fill="#000000" font-family="sans-serif" font-size="14" lengthAdjust="spacing" textLength="167" x="13" y="640.2555">manual_update: boolean</text><line style="stroke:#181818;stroke-width:1.0;" x1="8" x2="228" y1="648.3575" y2="648.3575"/><text fill="#000000" font-family="sans-serif" font-size="14" lengthAdjust="spacing" textLength="86" x="13" y="667.3234">sds_xml: text</text><text fill="#000000" font-family="sans-serif" font-size="14" lengthAdjust="spacing" textLength="185" x="13" y="686.3914">sds_updated_at: timestamp</text><text fill="#000000" font-family="sans-serif" font-size="14" lengthAdjust="spacing" textLength="172" x="13" y="705.4593">connector_services: jsonb</text><text fill="#000000" font-family="sans-serif" font-size="14" lengthAdjust="spacing" textLength="148" x="13" y="724.5272">last_check: timestamp</text><text fill="#000000" font-family="sans-serif" font-size="14" lengthAdjust="spacing" textLength="169" x="13" y="743.5951">last_check_ok: timestamp</text><text fill="#000000" font-family="sans-serif" font-size="14" lengthAdjust="spacing" textLength="120" x="13" y="762.663">condition: integer</text><text fill="#000000" font-family="sans-serif" font-size="14" lengthAdjust="spacing" textLength="210" x="13" y="781.7309">soap_request_success: boolean</text><text fill="#000000" font-family="sans-serif" font-size="14" lengthAdjust="spacing" textLength="144" x="13" y="800.7989">vpnti_online: boolean</text><text fill="#000000" font-family="sans-serif" font-size="14" lengthAdjust="spacing" textLength="164" x="13" y="819.8668">firmware_version: string</text></g><!--class CardTerminal--><g id="elem_CardTerminal"><rect codeLine="24" fill="#FFF1D9" filter="url(#f1khsyfdm2rdcz)" height="391.2225" id="CardTerminal" rx="5" ry="5" style="stroke:#181818;stroke-width:0.5;" width="176" x="264" y="465.34"/><rect fill="#FFD080" height="32" rx="5" ry="5" style="stroke:#FFD080;stroke-width:0.5;" width="176" x="264" y="465.34"/><rect fill="#FFD080" height="5" style="stroke:#FFD080;stroke-width:0.5;" width="176" x="264" y="492.34"/><rect codeLine="24" fill="none" height="391.2225" id="CardTerminal" rx="5" ry="5" style="stroke:#181818;stroke-width:0.5;" width="176" x="264" y="465.34"/><ellipse cx="302.4" cy="481.34" fill="#ADD1B2" rx="11" ry="11" style="stroke:#181818;stroke-width:1.0;"/><path d="M302.5094,476.8712 Q301.5875,476.8712 300.8531,477.1837 Q300.1344,477.4962 299.6344,478.09 Q299.1344,478.6681 298.8531,479.5431 Q298.5875,480.4181 298.5875,481.5119 Q298.5875,482.9494 299.025,483.9962 Q299.4781,485.0431 300.3219,485.59 Q301.1813,486.1369 302.4938,486.1369 Q303.275,486.1369 303.9625,486.0119 Q304.6656,485.8712 305.6656,485.5587 L305.6656,487.4337 Q304.8063,487.7619 304.0406,487.8869 Q303.2906,488.0119 302.275,488.0119 Q300.3531,488.0119 299.0406,487.215 Q297.7438,486.4025 297.0875,484.9337 Q296.4313,483.4494 296.4313,481.4806 Q296.4313,480.0587 296.8219,478.8869 Q297.2281,477.6994 298.0094,476.8244 Q298.7906,475.9494 299.9313,475.4806 Q301.0719,474.9962 302.5406,474.9962 Q303.4938,474.9962 304.3844,475.1994 Q305.2906,475.3869 306.2281,475.8556 L305.4,477.6369 Q304.6188,477.2619 303.9625,477.0744 Q303.3063,476.8712 302.5094,476.8712 Z " fill="#000000"/><text fill="#000000" font-family="sans-serif" font-size="14" lengthAdjust="spacing" textLength="92" x="321.6" y="486.772">CardTerminal</text><line style="stroke:#181818;stroke-width:0.5;" x1="265" x2="439" y1="497.34" y2="497.34"/><text fill="#000000" font-family="sans-serif" font-size="14" lengthAdjust="spacing" textLength="134" x="270" y="516.3059">displayname: string</text><text fill="#000000" font-family="sans-serif" font-size="14" lengthAdjust="spacing" textLength="141" x="270" y="535.3739">description: rich_text</text><text fill="#000000" font-family="sans-serif" font-size="14" lengthAdjust="spacing" textLength="83" x="270" y="554.4418">room: string</text><text fill="#000000" font-family="sans-serif" font-size="14" lengthAdjust="spacing" textLength="97" x="270" y="573.5097">contact: string</text><text fill="#000000" font-family="sans-serif" font-size="14" lengthAdjust="spacing" textLength="124" x="270" y="592.5776">plugged_in: string</text><text fill="#000000" font-family="sans-serif" font-size="14" lengthAdjust="spacing" textLength="127" x="270" y="611.6455">delivery_date: date</text><text fill="#000000" font-family="sans-serif" font-size="14" lengthAdjust="spacing" textLength="104" x="270" y="630.7134">supplier: string</text><text fill="#000000" font-family="sans-serif" font-size="14" lengthAdjust="spacing" textLength="72" x="270" y="649.7814">location_id</text><line style="stroke:#181818;stroke-width:1.0;" x1="265" x2="439" y1="657.8833" y2="657.8833"/><text fill="#000000" font-family="sans-serif" font-size="14" lengthAdjust="spacing" textLength="115" x="270" y="676.8493">properties: jsonb</text><text fill="#000000" font-family="sans-serif" font-size="14" lengthAdjust="spacing" textLength="86" x="270" y="695.9172">name: string</text><text fill="#000000" font-family="sans-serif" font-size="14" lengthAdjust="spacing" textLength="79" x="270" y="714.9851">ct_id: string</text><text fill="#000000" font-family="sans-serif" font-size="14" lengthAdjust="spacing" textLength="96" x="270" y="734.053">mac: macaddr</text><text fill="#000000" font-family="sans-serif" font-size="14" lengthAdjust="spacing" textLength="47" x="270" y="753.1209">ip: inet</text><text fill="#000000" font-family="sans-serif" font-size="14" lengthAdjust="spacing" textLength="88" x="270" y="772.1889">slots: integer</text><text fill="#000000" font-family="sans-serif" font-size="14" lengthAdjust="spacing" textLength="132" x="270" y="791.2568">connected: boolean</text><text fill="#000000" font-family="sans-serif" font-size="14" lengthAdjust="spacing" textLength="120" x="270" y="810.3247">condition: integer</text><text fill="#000000" font-family="sans-serif" font-size="14" lengthAdjust="spacing" textLength="164" x="270" y="829.3926">firmware_version: string</text><text fill="#000000" font-family="sans-serif" font-size="14" lengthAdjust="spacing" textLength="86" x="270" y="848.4605">connector_id</text></g><!--class Location--><g id="elem_Location"><rect codeLine="46" fill="#FFF1D9" filter="url(#f1khsyfdm2rdcz)" height="86.1358" id="Location" rx="5" ry="5" style="stroke:#181818;stroke-width:0.5;" width="136" x="312" y="200.8"/><rect fill="#FFD080" height="32" rx="5" ry="5" style="stroke:#FFD080;stroke-width:0.5;" width="136" x="312" y="200.8"/><rect fill="#FFD080" height="5" style="stroke:#FFD080;stroke-width:0.5;" width="136" x="312" y="227.8"/><rect codeLine="46" fill="none" height="86.1358" id="Location" rx="5" ry="5" style="stroke:#181818;stroke-width:0.5;" width="136" x="312" y="200.8"/><ellipse cx="348.6" cy="216.8" fill="#ADD1B2" rx="11" ry="11" style="stroke:#181818;stroke-width:1.0;"/><path d="M348.7094,212.3312 Q347.7875,212.3312 347.0531,212.6437 Q346.3344,212.9562 345.8344,213.55 Q345.3344,214.1281 345.0531,215.0031 Q344.7875,215.8781 344.7875,216.9719 Q344.7875,218.4094 345.225,219.4562 Q345.6781,220.5031 346.5219,221.05 Q347.3813,221.5969 348.6938,221.5969 Q349.475,221.5969 350.1625,221.4719 Q350.8656,221.3312 351.8656,221.0187 L351.8656,222.8937 Q351.0063,223.2219 350.2406,223.3469 Q349.4906,223.4719 348.475,223.4719 Q346.5531,223.4719 345.2406,222.675 Q343.9438,221.8625 343.2875,220.3937 Q342.6313,218.9094 342.6313,216.9406 Q342.6313,215.5187 343.0219,214.3469 Q343.4281,213.1594 344.2094,212.2844 Q344.9906,211.4094 346.1313,210.9406 Q347.2719,210.4562 348.7406,210.4562 Q349.6938,210.4562 350.5844,210.6594 Q351.4906,210.8469 352.4281,211.3156 L351.6,213.0969 Q350.8188,212.7219 350.1625,212.5344 Q349.5063,212.3312 348.7094,212.3312 Z " fill="#000000"/><text fill="#000000" font-family="sans-serif" font-size="14" lengthAdjust="spacing" textLength="56" x="367.4" y="222.232">Location</text><line style="stroke:#181818;stroke-width:0.5;" x1="313" x2="447" y1="232.8" y2="232.8"/><text fill="#000000" font-family="sans-serif" font-size="14" lengthAdjust="spacing" textLength="65" x="318" y="251.7659">lid: string</text><text fill="#000000" font-family="sans-serif" font-size="14" lengthAdjust="spacing" textLength="124" x="318" y="270.8339">description: string</text><line style="stroke:#181818;stroke-width:0.5;" x1="313" x2="447" y1="278.9358" y2="278.9358"/></g><!--class Context--><g id="elem_Context"><rect codeLine="51" fill="#FFF1D9" filter="url(#f1khsyfdm2rdcz)" height="124.2717" id="Context" rx="5" ry="5" style="stroke:#181818;stroke-width:0.5;" width="150" x="312" y="7"/><rect fill="#FFD080" height="32" rx="5" ry="5" style="stroke:#FFD080;stroke-width:0.5;" width="150" x="312" y="7"/><rect fill="#FFD080" height="5" style="stroke:#FFD080;stroke-width:0.5;" width="150" x="312" y="34"/><rect codeLine="51" fill="none" height="124.2717" id="Context" rx="5" ry="5" style="stroke:#181818;stroke-width:0.5;" width="150" x="312" y="7"/><ellipse cx="357.25" cy="23" fill="#ADD1B2" rx="11" ry="11" style="stroke:#181818;stroke-width:1.0;"/><path d="M357.3594,18.5313 Q356.4375,18.5313 355.7031,18.8438 Q354.9844,19.1563 354.4844,19.75 Q353.9844,20.3281 353.7031,21.2031 Q353.4375,22.0781 353.4375,23.1719 Q353.4375,24.6094 353.875,25.6563 Q354.3281,26.7031 355.1719,27.25 Q356.0313,27.7969 357.3438,27.7969 Q358.125,27.7969 358.8125,27.6719 Q359.5156,27.5313 360.5156,27.2188 L360.5156,29.0938 Q359.6563,29.4219 358.8906,29.5469 Q358.1406,29.6719 357.125,29.6719 Q355.2031,29.6719 353.8906,28.875 Q352.5938,28.0625 351.9375,26.5938 Q351.2813,25.1094 351.2813,23.1406 Q351.2813,21.7188 351.6719,20.5469 Q352.0781,19.3594 352.8594,18.4844 Q353.6406,17.6094 354.7813,17.1406 Q355.9219,16.6563 357.3906,16.6563 Q358.3438,16.6563 359.2344,16.8594 Q360.1406,17.0469 361.0781,17.5156 L360.25,19.2969 Q359.4688,18.9219 358.8125,18.7344 Q358.1563,18.5313 357.3594,18.5313 Z " fill="#000000"/><text fill="#000000" font-family="sans-serif" font-size="14" lengthAdjust="spacing" textLength="51" x="377.75" y="28.432">Context</text><line style="stroke:#181818;stroke-width:0.5;" x1="313" x2="461" y1="39" y2="39"/><text fill="#000000" font-family="sans-serif" font-size="14" lengthAdjust="spacing" textLength="109" x="318" y="57.9659">mandant: string</text><text fill="#000000" font-family="sans-serif" font-size="14" lengthAdjust="spacing" textLength="138" x="318" y="77.0339">client_system: string</text><text fill="#000000" font-family="sans-serif" font-size="14" lengthAdjust="spacing" textLength="116" x="318" y="96.1018">workplace: string</text><text fill="#000000" font-family="sans-serif" font-size="14" lengthAdjust="spacing" textLength="124" x="318" y="115.1697">description: string</text><line style="stroke:#181818;stroke-width:0.5;" x1="313" x2="461" y1="123.2717" y2="123.2717"/></g><!--class ConnectorContext--><g id="elem_ConnectorContext"><rect codeLine="58" fill="#FFF1D9" filter="url(#f1khsyfdm2rdcz)" height="105.2038" id="ConnectorContext" rx="5" ry="5" style="stroke:#181818;stroke-width:0.5;" width="152" x="125" y="191.27"/><rect fill="#FFD080" height="32" rx="5" ry="5" style="stroke:#FFD080;stroke-width:0.5;" width="152" x="125" y="191.27"/><rect fill="#FFD080" height="5" style="stroke:#FFD080;stroke-width:0.5;" width="152" x="125" y="218.27"/><rect codeLine="58" fill="none" height="105.2038" id="ConnectorContext" rx="5" ry="5" style="stroke:#181818;stroke-width:0.5;" width="152" x="125" y="191.27"/><ellipse cx="140" cy="207.27" fill="#ADD1B2" rx="11" ry="11" style="stroke:#181818;stroke-width:1.0;"/><path d="M140.1094,202.8012 Q139.1875,202.8012 138.4531,203.1137 Q137.7344,203.4262 137.2344,204.02 Q136.7344,204.5981 136.4531,205.4731 Q136.1875,206.3481 136.1875,207.4419 Q136.1875,208.8794 136.625,209.9262 Q137.0781,210.9731 137.9219,211.52 Q138.7813,212.0669 140.0938,212.0669 Q140.875,212.0669 141.5625,211.9419 Q142.2656,211.8012 143.2656,211.4887 L143.2656,213.3637 Q142.4063,213.6919 141.6406,213.8169 Q140.8906,213.9419 139.875,213.9419 Q137.9531,213.9419 136.6406,213.145 Q135.3438,212.3325 134.6875,210.8637 Q134.0313,209.3794 134.0313,207.4106 Q134.0313,205.9887 134.4219,204.8169 Q134.8281,203.6294 135.6094,202.7544 Q136.3906,201.8794 137.5313,201.4106 Q138.6719,200.9262 140.1406,200.9262 Q141.0938,200.9262 141.9844,201.1294 Q142.8906,201.3169 143.8281,201.7856 L143,203.5669 Q142.2188,203.1919 141.5625,203.0044 Q140.9063,202.8012 140.1094,202.8012 Z " fill="#000000"/><text fill="#000000" font-family="sans-serif" font-size="14" lengthAdjust="spacing" textLength="120" x="154" y="212.702">ConnectorContext</text><line style="stroke:#181818;stroke-width:0.5;" x1="126" x2="276" y1="223.27" y2="223.27"/><text fill="#000000" font-family="sans-serif" font-size="14" lengthAdjust="spacing" textLength="86" x="131" y="242.2359">connector_id</text><text fill="#000000" font-family="sans-serif" font-size="14" lengthAdjust="spacing" textLength="68" x="131" y="261.3039">context_id</text><text fill="#000000" font-family="sans-serif" font-size="14" lengthAdjust="spacing" textLength="111" x="131" y="280.3718">position: integer</text><line style="stroke:#181818;stroke-width:0.5;" x1="126" x2="276" y1="288.4738" y2="288.4738"/></g><!--class Card--><g id="elem_Card"><rect codeLine="64" fill="#FFF1D9" filter="url(#f1khsyfdm2rdcz)" height="608.9696" id="Card" rx="5" ry="5" style="stroke:#181818;stroke-width:0.5;" width="222" x="475" y="356.47"/><rect fill="#FFD080" height="32" rx="5" ry="5" style="stroke:#FFD080;stroke-width:0.5;" width="222" x="475" y="356.47"/><rect fill="#FFD080" height="5" style="stroke:#FFD080;stroke-width:0.5;" width="222" x="475" y="383.47"/><rect codeLine="64" fill="none" height="608.9696" id="Card" rx="5" ry="5" style="stroke:#181818;stroke-width:0.5;" width="222" x="475" y="356.47"/><ellipse cx="565.75" cy="372.47" fill="#ADD1B2" rx="11" ry="11" style="stroke:#181818;stroke-width:1.0;"/><path d="M565.8594,368.0013 Q564.9375,368.0013 564.2031,368.3138 Q563.4844,368.6263 562.9844,369.22 Q562.4844,369.7981 562.2031,370.6731 Q561.9375,371.5481 561.9375,372.6419 Q561.9375,374.0794 562.375,375.1263 Q562.8281,376.1731 563.6719,376.72 Q564.5313,377.2669 565.8438,377.2669 Q566.625,377.2669 567.3125,377.1419 Q568.0156,377.0013 569.0156,376.6888 L569.0156,378.5638 Q568.1563,378.8919 567.3906,379.0169 Q566.6406,379.1419 565.625,379.1419 Q563.7031,379.1419 562.3906,378.345 Q561.0938,377.5325 560.4375,376.0638 Q559.7813,374.5794 559.7813,372.6106 Q559.7813,371.1888 560.1719,370.0169 Q560.5781,368.8294 561.3594,367.9544 Q562.1406,367.0794 563.2813,366.6106 Q564.4219,366.1263 565.8906,366.1263 Q566.8438,366.1263 567.7344,366.3294 Q568.6406,366.5169 569.5781,366.9856 L568.75,368.7669 Q567.9688,368.3919 567.3125,368.2044 Q566.6563,368.0013 565.8594,368.0013 Z " fill="#000000"/><text fill="#000000" font-family="sans-serif" font-size="14" lengthAdjust="spacing" textLength="32" x="586.25" y="377.902">Card</text><line style="stroke:#181818;stroke-width:0.5;" x1="476" x2="696" y1="388.47" y2="388.47"/><text fill="#000000" font-family="sans-serif" font-size="14" lengthAdjust="spacing" textLength="86" x="481" y="407.4359">name: string</text><text fill="#000000" font-family="sans-serif" font-size="14" lengthAdjust="spacing" textLength="141" x="481" y="426.5039">description: rich_text</text><text fill="#000000" font-family="sans-serif" font-size="14" lengthAdjust="spacing" textLength="135" x="481" y="445.5718">operational_state_id</text><text fill="#000000" font-family="sans-serif" font-size="14" lengthAdjust="spacing" textLength="72" x="481" y="464.6397">location_id</text><text fill="#000000" font-family="sans-serif" font-size="14" lengthAdjust="spacing" textLength="75" x="481" y="483.7076">lanr: string</text><text fill="#000000" font-family="sans-serif" font-size="14" lengthAdjust="spacing" textLength="135" x="481" y="502.7755">fachrichtung: string</text><text fill="#000000" font-family="sans-serif" font-size="14" lengthAdjust="spacing" textLength="79" x="481" y="521.8434">bsnr: string</text><text fill="#000000" font-family="sans-serif" font-size="14" lengthAdjust="spacing" textLength="123" x="481" y="540.9114">telematikid: string</text><text fill="#000000" font-family="sans-serif" font-size="14" lengthAdjust="spacing" textLength="68" x="481" y="559.9793">context_id</text><line style="stroke:#181818;stroke-width:1.0;" x1="476" x2="696" y1="568.0813" y2="568.0813"/><text fill="#000000" font-family="sans-serif" font-size="14" lengthAdjust="spacing" textLength="115" x="481" y="587.0472">properties: jsonb</text><text fill="#000000" font-family="sans-serif" font-size="14" lengthAdjust="spacing" textLength="131" x="481" y="606.1151">card_handle: string</text><text fill="#000000" font-family="sans-serif" font-size="14" lengthAdjust="spacing" textLength="113" x="481" y="625.183">card_type: string</text><text fill="#000000" font-family="sans-serif" font-size="14" lengthAdjust="spacing" textLength="82" x="481" y="644.2509">iccsn: string</text><text fill="#000000" font-family="sans-serif" font-size="14" lengthAdjust="spacing" textLength="94" x="481" y="663.3189">slotid: integer</text><text fill="#000000" font-family="sans-serif" font-size="14" lengthAdjust="spacing" textLength="155" x="481" y="682.3868">insert_time: timestamp</text><text fill="#000000" font-family="sans-serif" font-size="14" lengthAdjust="spacing" textLength="172" x="481" y="701.4547">card_holder_name: string</text><text fill="#000000" font-family="sans-serif" font-size="14" lengthAdjust="spacing" textLength="142" x="481" y="720.5226">expiration_date: date</text><text fill="#000000" font-family="sans-serif" font-size="14" lengthAdjust="spacing" textLength="120" x="481" y="739.5905">condition: integer</text><text fill="#000000" font-family="sans-serif" font-size="14" lengthAdjust="spacing" textLength="117" x="481" y="758.6584">pin_status: string</text><text fill="#000000" font-family="sans-serif" font-size="14" lengthAdjust="spacing" textLength="112" x="481" y="777.7264">card_terminal_id</text><line style="stroke:#181818;stroke-width:1.0;" x1="476" x2="696" y1="785.8283" y2="785.8283"/><text fill="#000000" font-family="sans-serif" font-size="14" lengthAdjust="spacing" textLength="96" x="481" y="804.7943">certificate:text</text><text fill="#000000" font-family="sans-serif" font-size="14" lengthAdjust="spacing" textLength="151" x="481" y="823.8622">cert_subject_cn: string</text><text fill="#000000" font-family="sans-serif" font-size="14" lengthAdjust="spacing" textLength="161" x="481" y="842.9301">cert_subject_title: string</text><text fill="#000000" font-family="sans-serif" font-size="14" lengthAdjust="spacing" textLength="151" x="481" y="861.998">cert_subject_sn: string</text><text fill="#000000" font-family="sans-serif" font-size="14" lengthAdjust="spacing" textLength="210" x="481" y="881.0659">cert_subject_givenname: string</text><text fill="#000000" font-family="sans-serif" font-size="14" lengthAdjust="spacing" textLength="174" x="481" y="900.1339">cert_subject_street: string</text><text fill="#000000" font-family="sans-serif" font-size="14" lengthAdjust="spacing" textLength="208" x="481" y="919.2018">cert_subject_postalcode: string</text><text fill="#000000" font-family="sans-serif" font-size="14" lengthAdjust="spacing" textLength="139" x="481" y="938.2697">cert_subject_l: string</text><text fill="#000000" font-family="sans-serif" font-size="14" lengthAdjust="spacing" textLength="143" x="481" y="957.3376">cert_subject_o: string</text></g><!--class Workplace--><g id="elem_Workplace"><rect codeLine="98" fill="#FFF1D9" filter="url(#f1khsyfdm2rdcz)" height="86.1358" id="Workplace" rx="5" ry="5" style="stroke:#181818;stroke-width:0.5;" width="136" x="284" y="1190.64"/><rect fill="#FFD080" height="32" rx="5" ry="5" style="stroke:#FFD080;stroke-width:0.5;" width="136" x="284" y="1190.64"/><rect fill="#FFD080" height="5" style="stroke:#FFD080;stroke-width:0.5;" width="136" x="284" y="1217.64"/><rect codeLine="98" fill="none" height="86.1358" id="Workplace" rx="5" ry="5" style="stroke:#181818;stroke-width:0.5;" width="136" x="284" y="1190.64"/><ellipse cx="314.3" cy="1206.64" fill="#ADD1B2" rx="11" ry="11" style="stroke:#181818;stroke-width:1.0;"/><path d="M314.4094,1202.1712 Q313.4875,1202.1712 312.7531,1202.4837 Q312.0344,1202.7962 311.5344,1203.39 Q311.0344,1203.9681 310.7531,1204.8431 Q310.4875,1205.7181 310.4875,1206.8119 Q310.4875,1208.2494 310.925,1209.2962 Q311.3781,1210.3431 312.2219,1210.89 Q313.0813,1211.4369 314.3938,1211.4369 Q315.175,1211.4369 315.8625,1211.3119 Q316.5656,1211.1712 317.5656,1210.8587 L317.5656,1212.7337 Q316.7063,1213.0619 315.9406,1213.1869 Q315.1906,1213.3119 314.175,1213.3119 Q312.2531,1213.3119 310.9406,1212.515 Q309.6438,1211.7025 308.9875,1210.2337 Q308.3313,1208.7494 308.3313,1206.7806 Q308.3313,1205.3587 308.7219,1204.1869 Q309.1281,1202.9994 309.9094,1202.1244 Q310.6906,1201.2494 311.8313,1200.7806 Q312.9719,1200.2962 314.4406,1200.2962 Q315.3938,1200.2962 316.2844,1200.4994 Q317.1906,1200.6869 318.1281,1201.1556 L317.3,1202.9369 Q316.5188,1202.5619 315.8625,1202.3744 Q315.2063,1202.1712 314.4094,1202.1712 Z " fill="#000000"/><text fill="#000000" font-family="sans-serif" font-size="14" lengthAdjust="spacing" textLength="70" x="331.7" y="1212.072">Workplace</text><line style="stroke:#181818;stroke-width:0.5;" x1="285" x2="419" y1="1222.64" y2="1222.64"/><text fill="#000000" font-family="sans-serif" font-size="14" lengthAdjust="spacing" textLength="124" x="290" y="1241.6059">description: string</text><line style="stroke:#181818;stroke-width:1.0;" x1="285" x2="419" y1="1249.7079" y2="1249.7079"/><text fill="#000000" font-family="sans-serif" font-size="14" lengthAdjust="spacing" textLength="86" x="290" y="1268.6739">name: string</text></g><!--class TerminalWorkplaces--><g id="elem_TerminalWorkplaces"><rect codeLine="103" fill="#FFF1D9" filter="url(#f1khsyfdm2rdcz)" height="105.2038" id="TerminalWorkplaces" rx="5" ry="5" style="stroke:#181818;stroke-width:0.5;" width="169" x="389.5" y="1025.44"/><rect fill="#FFD080" height="32" rx="5" ry="5" style="stroke:#FFD080;stroke-width:0.5;" width="169" x="389.5" y="1025.44"/><rect fill="#FFD080" height="5" style="stroke:#FFD080;stroke-width:0.5;" width="169" x="389.5" y="1052.44"/><rect codeLine="103" fill="none" height="105.2038" id="TerminalWorkplaces" rx="5" ry="5" style="stroke:#181818;stroke-width:0.5;" width="169" x="389.5" y="1025.44"/><ellipse cx="404.5" cy="1041.44" fill="#ADD1B2" rx="11" ry="11" style="stroke:#181818;stroke-width:1.0;"/><path d="M404.6094,1036.9713 Q403.6875,1036.9713 402.9531,1037.2838 Q402.2344,1037.5963 401.7344,1038.19 Q401.2344,1038.7681 400.9531,1039.6431 Q400.6875,1040.5181 400.6875,1041.6119 Q400.6875,1043.0494 401.125,1044.0963 Q401.5781,1045.1431 402.4219,1045.69 Q403.2813,1046.2369 404.5938,1046.2369 Q405.375,1046.2369 406.0625,1046.1119 Q406.7656,1045.9713 407.7656,1045.6588 L407.7656,1047.5338 Q406.9063,1047.8619 406.1406,1047.9869 Q405.3906,1048.1119 404.375,1048.1119 Q402.4531,1048.1119 401.1406,1047.315 Q399.8438,1046.5025 399.1875,1045.0338 Q398.5313,1043.5494 398.5313,1041.5806 Q398.5313,1040.1588 398.9219,1038.9869 Q399.3281,1037.7994 400.1094,1036.9244 Q400.8906,1036.0494 402.0313,1035.5806 Q403.1719,1035.0963 404.6406,1035.0963 Q405.5938,1035.0963 406.4844,1035.2994 Q407.3906,1035.4869 408.3281,1035.9556 L407.5,1037.7369 Q406.7188,1037.3619 406.0625,1037.1744 Q405.4063,1036.9713 404.6094,1036.9713 Z " fill="#000000"/><text fill="#000000" font-family="sans-serif" font-size="14" lengthAdjust="spacing" textLength="137" x="418.5" y="1046.872">TerminalWorkplaces</text><line style="stroke:#181818;stroke-width:0.5;" x1="390.5" x2="557.5" y1="1057.44" y2="1057.44"/><text fill="#000000" font-family="sans-serif" font-size="14" lengthAdjust="spacing" textLength="112" x="395.5" y="1076.4059">card_terminal_id</text><text fill="#000000" font-family="sans-serif" font-size="14" lengthAdjust="spacing" textLength="87" x="395.5" y="1095.4739">workplace_id</text><text fill="#000000" font-family="sans-serif" font-size="14" lengthAdjust="spacing" textLength="76" x="395.5" y="1114.5418">updated_at</text><line style="stroke:#181818;stroke-width:0.5;" x1="390.5" x2="557.5" y1="1122.6438" y2="1122.6438"/></g><!--class OperationalState--><g id="elem_OperationalState"><rect codeLine="108" fill="#FFF1D9" filter="url(#f1khsyfdm2rdcz)" height="105.2038" id="OperationalState" rx="5" ry="5" style="stroke:#181818;stroke-width:0.5;" width="151" x="482.5" y="191.27"/><rect fill="#FFD080" height="32" rx="5" ry="5" style="stroke:#FFD080;stroke-width:0.5;" width="151" x="482.5" y="191.27"/><rect fill="#FFD080" height="5" style="stroke:#FFD080;stroke-width:0.5;" width="151" x="482.5" y="218.27"/><rect codeLine="108" fill="none" height="105.2038" id="OperationalState" rx="5" ry="5" style="stroke:#181818;stroke-width:0.5;" width="151" x="482.5" y="191.27"/><ellipse cx="499.75" cy="207.27" fill="#ADD1B2" rx="11" ry="11" style="stroke:#181818;stroke-width:1.0;"/><path d="M499.8594,202.8012 Q498.9375,202.8012 498.2031,203.1137 Q497.4844,203.4262 496.9844,204.02 Q496.4844,204.5981 496.2031,205.4731 Q495.9375,206.3481 495.9375,207.4419 Q495.9375,208.8794 496.375,209.9262 Q496.8281,210.9731 497.6719,211.52 Q498.5313,212.0669 499.8438,212.0669 Q500.625,212.0669 501.3125,211.9419 Q502.0156,211.8012 503.0156,211.4887 L503.0156,213.3637 Q502.1563,213.6919 501.3906,213.8169 Q500.6406,213.9419 499.625,213.9419 Q497.7031,213.9419 496.3906,213.145 Q495.0938,212.3325 494.4375,210.8637 Q493.7813,209.3794 493.7813,207.4106 Q493.7813,205.9887 494.1719,204.8169 Q494.5781,203.6294 495.3594,202.7544 Q496.1406,201.8794 497.2813,201.4106 Q498.4219,200.9262 499.8906,200.9262 Q500.8438,200.9262 501.7344,201.1294 Q502.6406,201.3169 503.5781,201.7856 L502.75,203.5669 Q501.9688,203.1919 501.3125,203.0044 Q500.6563,202.8012 499.8594,202.8012 Z " fill="#000000"/><text fill="#000000" font-family="sans-serif" font-size="14" lengthAdjust="spacing" textLength="114" x="514.25" y="212.702">OperationalState</text><line style="stroke:#181818;stroke-width:0.5;" x1="483.5" x2="632.5" y1="223.27" y2="223.27"/><text fill="#000000" font-family="sans-serif" font-size="14" lengthAdjust="spacing" textLength="86" x="488.5" y="242.2359">name: string</text><text fill="#000000" font-family="sans-serif" font-size="14" lengthAdjust="spacing" textLength="124" x="488.5" y="261.3039">description: string</text><text fill="#000000" font-family="sans-serif" font-size="14" lengthAdjust="spacing" textLength="139" x="488.5" y="280.3718">operational: boolean</text><line style="stroke:#181818;stroke-width:0.5;" x1="483.5" x2="632.5" y1="288.4738" y2="288.4738"/></g><ellipse cx="88" cy="243.87" fill="#181818" rx="2" ry="2" style="stroke:#181818;stroke-width:1.0;"/><ellipse cx="352" cy="1078.04" fill="#181818" rx="2" ry="2" style="stroke:#181818;stroke-width:1.0;"/><!--link Location to Connector--><g id="link_Location_Connector"><path codeLine="114" d="M317.46,287.41 C293.07,306.36 266.37,330.31 247,356.47 C216.6,397.54 191.71,446.86 172.2,493.68 " fill="none" id="Location-Connector" style="stroke:#181818;stroke-width:1.0;"/><text fill="#000000" font-family="sans-serif" font-size="13" lengthAdjust="spacing" textLength="7" x="301.1731" y="308.6751">*</text><text fill="#000000" font-family="sans-serif" font-size="13" lengthAdjust="spacing" textLength="7" x="167.6558" y="482.0798">*</text></g><!--link Connector to CardTerminal--><g id="link_Connector_CardTerminal"><path codeLine="116" d="M229.06,660.96 C240.58,660.96 252.11,660.96 263.64,660.96 " fill="none" id="Connector-CardTerminal" style="stroke:#181818;stroke-width:1.0;"/><text fill="#000000" font-family="sans-serif" font-size="13" lengthAdjust="spacing" textLength="20" x="235.9937" y="657.2675">0..1</text><text fill="#000000" font-family="sans-serif" font-size="13" lengthAdjust="spacing" textLength="7" x="249.0328" y="657.1831">*</text></g><!--link Location to CardTerminal--><g id="link_Location_CardTerminal"><path codeLine="117" d="M377.14,287.34 C374.27,329.8 369.66,398.2 365.16,464.88 " fill="none" id="Location-CardTerminal" style="stroke:#181818;stroke-width:1.0;"/><text fill="#000000" font-family="sans-serif" font-size="13" lengthAdjust="spacing" textLength="20" x="355.2512" y="308.9223">0..1</text><text fill="#000000" font-family="sans-serif" font-size="13" lengthAdjust="spacing" textLength="7" x="358.5373" y="453.7997">*</text></g><!--link Context to apoint15--><g id="link_Context_apoint15"><path d="M311.65,85.78 C249.52,102.27 162.97,134.06 108,191.27 C93.09,206.79 88.96,234.65 88.16,241.38 " fill="none" id="Context-apoint15" style="stroke:#181818;stroke-width:1.0;"/><text fill="#000000" font-family="sans-serif" font-size="13" lengthAdjust="spacing" textLength="7" x="296.8882" y="83.5135">*</text></g><!--link apoint15 to Connector--><g id="link_apoint15_Connector"><path d="M88.09,246.06 C89.06,259.52 98.1,384.55 105.98,493.7 " fill="none" id="apoint15-Connector" style="stroke:#181818;stroke-width:1.0;"/><text fill="#000000" font-family="sans-serif" font-size="13" lengthAdjust="spacing" textLength="7" x="98.2283" y="482.1008">*</text></g><!--link apoint15 to ConnectorContext--><g id="link_apoint15_ConnectorContext"><path d="M90.21,243.87 C101.75,243.87 113.29,243.87 124.83,243.87 " fill="none" id="apoint15-ConnectorContext" style="stroke:#181818;stroke-width:1.0;stroke-dasharray:7.0,7.0;"/></g><!--link CardTerminal to Card--><g id="link_CardTerminal_Card"><path codeLine="119" d="M440.21,660.96 C451.69,660.96 463.18,660.96 474.66,660.96 " fill="none" id="CardTerminal-Card" style="stroke:#181818;stroke-width:1.0;"/><text fill="#000000" font-family="sans-serif" font-size="13" lengthAdjust="spacing" textLength="20" x="447.0364" y="657.1398">0..1</text><text fill="#000000" font-family="sans-serif" font-size="13" lengthAdjust="spacing" textLength="7" x="459.9442" y="657.31">*</text></g><!--link CardTerminal to apoint22--><g id="link_CardTerminal_apoint22"><path d="M352,857.04 C352,958.06 352,1063.03 352,1075.76 " fill="none" id="CardTerminal-apoint22" style="stroke:#181818;stroke-width:1.0;"/><text fill="#000000" font-family="sans-serif" font-size="13" lengthAdjust="spacing" textLength="7" x="344.8742" y="878.3021">*</text></g><!--link apoint22 to Workplace--><g id="link_apoint22_Workplace"><path d="M352,1080.37 C352,1089.9 352,1148.72 352,1190.41 " fill="none" id="apoint22-Workplace" style="stroke:#181818;stroke-width:1.0;"/><text fill="#000000" font-family="sans-serif" font-size="13" lengthAdjust="spacing" textLength="7" x="344.4203" y="1178.7865">*</text></g><!--link apoint22 to TerminalWorkplaces--><g id="link_apoint22_TerminalWorkplaces"><path d="M354.38,1078.04 C366.06,1078.04 377.75,1078.04 389.43,1078.04 " fill="none" id="apoint22-TerminalWorkplaces" style="stroke:#181818;stroke-width:1.0;stroke-dasharray:7.0,7.0;"/></g><!--link Location to Card--><g id="link_Location_Card"><path codeLine="122" d="M412.28,287.29 C426.94,307.61 443.9,332.65 457,356.47 C462.93,367.26 468.78,378.37 474.51,389.68 " fill="none" id="Location-Card" style="stroke:#181818;stroke-width:1.0;"/><text fill="#000000" font-family="sans-serif" font-size="13" lengthAdjust="spacing" textLength="20" x="395.5524" y="308.8649">0..1</text><text fill="#000000" font-family="sans-serif" font-size="13" lengthAdjust="spacing" textLength="7" x="460.1435" y="368.6766">*</text></g><!--link OperationalState to Card--><g id="link_OperationalState_Card"><path codeLine="123" d="M561.49,296.6 C562.64,313.66 564.01,334.03 565.52,356.3 " fill="none" id="OperationalState-Card" style="stroke:#181818;stroke-width:1.0;"/><text fill="#000000" font-family="sans-serif" font-size="13" lengthAdjust="spacing" textLength="7" x="554.4887" y="318.3871">1</text><text fill="#000000" font-family="sans-serif" font-size="13" lengthAdjust="spacing" textLength="7" x="557.883" y="344.8882">*</text></g><!--link Context to Card--><g id="link_Context_Card"><path codeLine="124" d="M462.44,82.06 C524.87,96.34 609.75,126.96 651,191.27 C682.43,240.28 691.48,298.07 688.13,356.03 " fill="none" id="Context-Card" style="stroke:#181818;stroke-width:1.0;"/><text fill="#000000" font-family="sans-serif" font-size="13" lengthAdjust="spacing" textLength="7" x="469.964" y="79.4123">1</text><text fill="#000000" font-family="sans-serif" font-size="13" lengthAdjust="spacing" textLength="7" x="683.7499" y="344.611">*</text></g><!--SRC=[bLKxRzim4DxrArXFRP4OxUerQu4EBT2HeCcppPWYMVBas2ZottlKavIiDbbawzxttNSdT9wXOtk7w6gcT029sjcg-e0dg8599qLGx118kwqgQKICxCbPItOkCFQdOioA6dOiOj3sIAyAeWpQfp0x5hGySOGhaaBx7TCMqb-XQcrv4qpc5rMSIMfX6s5uuvL0oh1tpe2mf7XyxEslDTdtuLl_rbHnWIJMDKGKjIUT72hc4S95IuWxzXoTtPEEMa8kJo3FfSyav-wy2ATqrw2s24S8ARyJdWVutP0PZusa934l-k8jQkwi8Gno-K67-aK4u1S8iOtP0_0wuaqZ-0c181EcHLpfw8sulHNuu5oTsL7rA2Hc4c-Quv5WqxO8PpILTECT-kcPkcoyDnf2PcY88oafrsgOZG_EGq2TupohLYBP5yEMk_GGIeMIBD4uZ3dI_JH1vJ3UdSagjZabgEmHwczzBotCfYYmW7Sn8iAKm6xTYBPAs1nVIOXP8iKj8kIJU77XJ8EKy8uqNT5vlgAJRhoawbwyYpDG2bQzQt_JI5jmQ2Tf4n2w5ENuZR0vDmv2db8CREmn4-zZOOLWeAOWvmBmef5LMgNxn4y4kIdObQHuyxbCInbp1YHUfOGJNRIbyu0yhVfiuTiapYW8V0ONNBtkO2aNvIuVFLsz15qJ5xNs-vrrArEh1orJr7u4IKItPVzCy-Qoe7EkGOqb6haohheTQT_jV4qBLmm0kAObhg4mqgbLVxEcS4kg_nfsexjuTxQYXwae-BLwQhs7Spb6YTsgBA4UTx1xdRuWOwpl4-z_9Dh_Tsb6QROnqwcY3iShi_cyeIRQdt6rgs6trvJzjtVpPRlzIXQTGVQ9oCBt9dTiFew17eRZzObj5mUcAhuzYvGpzLJmY3iboamU9WLbszuPqx-AhnQJsCmCHkXA-Ly0]--></g></svg>