<?xml version="1.0" encoding="us-ascii" standalone="no"?><svg xmlns="http://www.w3.org/2000/svg" xmlns:xlink="http://www.w3.org/1999/xlink" contentStyleType="text/css" height="463px" preserveAspectRatio="none" style="width:342px;height:463px;background:#FFFFFF;" version="1.1" viewBox="0 0 342 463" width="342px" zoomAndPan="magnify"><defs><filter height="300%" id="f2oizyt3ldx0c" width="300%" x="-1" y="-1"><feGaussianBlur result="blurOut" stdDeviation="2.0"/><feColorMatrix in="blurOut" result="blurOut2" type="matrix" values="0 0 0 0 0 0 0 0 0 0 0 0 0 0 0 0 0 0 .4 0"/><feOffset dx="4.0" dy="4.0" in="blurOut2" result="blurOut3"/><feBlend in="SourceGraphic" in2="blurOut3" mode="normal"/></filter></defs><g><!--class Connector--><g id="elem_Connector"><rect codeLine="5" fill="#FFF1D9" filter="url(#f2oizyt3ldx0c)" height="257.7471" id="Connector" rx="5" ry="5" style="stroke:#181818;stroke-width:0.5;" width="197" x="65.5" y="191.27"/><rect fill="#FFD080" height="32" rx="5" ry="5" style="stroke:#FFD080;stroke-width:0.5;" width="197" x="65.5" y="191.27"/><rect fill="#FFD080" height="5" style="stroke:#FFD080;stroke-width:0.5;" width="197" x="65.5" y="218.27"/><rect codeLine="5" fill="none" height="257.7471" id="Connector" rx="5" ry="5" style="stroke:#181818;stroke-width:0.5;" width="197" x="65.5" y="191.27"/><ellipse cx="125.25" cy="207.27" fill="#ADD1B2" rx="11" ry="11" style="stroke:#181818;stroke-width:1.0;"/><path d="M125.3594,202.8012 Q124.4375,202.8012 123.7031,203.1137 Q122.9844,203.4262 122.4844,204.02 Q121.9844,204.5981 121.7031,205.4731 Q121.4375,206.3481 121.4375,207.4419 Q121.4375,208.8794 121.875,209.9262 Q122.3281,210.9731 123.1719,211.52 Q124.0313,212.0669 125.3438,212.0669 Q126.125,212.0669 126.8125,211.9419 Q127.5156,211.8012 128.5156,211.4887 L128.5156,213.3637 Q127.6563,213.6919 126.8906,213.8169 Q126.1406,213.9419 125.125,213.9419 Q123.2031,213.9419 121.8906,213.145 Q120.5938,212.3325 119.9375,210.8637 Q119.2813,209.3794 119.2813,207.4106 Q119.2813,205.9887 119.6719,204.8169 Q120.0781,203.6294 120.8594,202.7544 Q121.6406,201.8794 122.7813,201.4106 Q123.9219,200.9262 125.3906,200.9262 Q126.3438,200.9262 127.2344,201.1294 Q128.1406,201.3169 129.0781,201.7856 L128.25,203.5669 Q127.4688,203.1919 126.8125,203.0044 Q126.1563,202.8012 125.3594,202.8012 Z " fill="#000000"/><text fill="#000000" font-family="sans-serif" font-size="14" lengthAdjust="spacing" textLength="69" x="145.75" y="212.702">Connector</text><line style="stroke:#181818;stroke-width:0.5;" x1="66.5" x2="261.5" y1="223.27" y2="223.27"/><text fill="#000000" font-family="sans-serif" font-size="14" lengthAdjust="spacing" textLength="86" x="71.5" y="242.2359">name: string</text><text fill="#000000" font-family="sans-serif" font-size="14" lengthAdjust="spacing" textLength="141" x="71.5" y="261.3039">description: rich_text</text><text fill="#000000" font-family="sans-serif" font-size="14" lengthAdjust="spacing" textLength="47" x="71.5" y="280.3718">ip: inet</text><text fill="#000000" font-family="sans-serif" font-size="14" lengthAdjust="spacing" textLength="96" x="71.5" y="299.4397">sds_url: string</text><text fill="#000000" font-family="sans-serif" font-size="14" lengthAdjust="spacing" textLength="167" x="71.5" y="318.5076">manual_update: boolean</text><line style="stroke:#181818;stroke-width:1.0;" x1="66.5" x2="261.5" y1="326.6096" y2="326.6096"/><text fill="#000000" font-family="sans-serif" font-size="14" lengthAdjust="spacing" textLength="86" x="71.5" y="345.5755">sds_xml: text</text><text fill="#000000" font-family="sans-serif" font-size="14" lengthAdjust="spacing" textLength="185" x="71.5" y="364.6434">sds_updated_at: timestamp</text><text fill="#000000" font-family="sans-serif" font-size="14" lengthAdjust="spacing" textLength="172" x="71.5" y="383.7114">connector_services: jsonb</text><text fill="#000000" font-family="sans-serif" font-size="14" lengthAdjust="spacing" textLength="148" x="71.5" y="402.7793">last_check: timestamp</text><text fill="#000000" font-family="sans-serif" font-size="14" lengthAdjust="spacing" textLength="169" x="71.5" y="421.8472">last_check_ok: timestamp</text><text fill="#000000" font-family="sans-serif" font-size="14" lengthAdjust="spacing" textLength="120" x="71.5" y="440.9151">condition: integer</text></g><!--class Location--><g id="elem_Location"><rect codeLine="20" fill="#FFF1D9" filter="url(#f2oizyt3ldx0c)" height="86.1358" id="Location" rx="5" ry="5" style="stroke:#181818;stroke-width:0.5;" width="136" x="7" y="26.07"/><rect fill="#FFD080" height="32" rx="5" ry="5" style="stroke:#FFD080;stroke-width:0.5;" width="136" x="7" y="26.07"/><rect fill="#FFD080" height="5" style="stroke:#FFD080;stroke-width:0.5;" width="136" x="7" y="53.07"/><rect codeLine="20" fill="none" height="86.1358" id="Location" rx="5" ry="5" style="stroke:#181818;stroke-width:0.5;" width="136" x="7" y="26.07"/><ellipse cx="43.6" cy="42.07" fill="#ADD1B2" rx="11" ry="11" style="stroke:#181818;stroke-width:1.0;"/><path d="M43.7094,37.6012 Q42.7875,37.6012 42.0531,37.9137 Q41.3344,38.2262 40.8344,38.82 Q40.3344,39.3981 40.0531,40.2731 Q39.7875,41.1481 39.7875,42.2419 Q39.7875,43.6794 40.225,44.7262 Q40.6781,45.7731 41.5219,46.32 Q42.3813,46.8669 43.6938,46.8669 Q44.475,46.8669 45.1625,46.7419 Q45.8656,46.6012 46.8656,46.2887 L46.8656,48.1637 Q46.0063,48.4919 45.2406,48.6169 Q44.4906,48.7419 43.475,48.7419 Q41.5531,48.7419 40.2406,47.945 Q38.9438,47.1325 38.2875,45.6637 Q37.6313,44.1794 37.6313,42.2106 Q37.6313,40.7887 38.0219,39.6169 Q38.4281,38.4294 39.2094,37.5544 Q39.9906,36.6794 41.1313,36.2106 Q42.2719,35.7262 43.7406,35.7262 Q44.6938,35.7262 45.5844,35.9294 Q46.4906,36.1169 47.4281,36.5856 L46.6,38.3669 Q45.8188,37.9919 45.1625,37.8044 Q44.5063,37.6012 43.7094,37.6012 Z " fill="#000000"/><text fill="#000000" font-family="sans-serif" font-size="14" lengthAdjust="spacing" textLength="56" x="62.4" y="47.502">Location</text><line style="stroke:#181818;stroke-width:0.5;" x1="8" x2="142" y1="58.07" y2="58.07"/><text fill="#000000" font-family="sans-serif" font-size="14" lengthAdjust="spacing" textLength="65" x="13" y="77.0359">lid: string</text><text fill="#000000" font-family="sans-serif" font-size="14" lengthAdjust="spacing" textLength="124" x="13" y="96.1039">description: string</text><line style="stroke:#181818;stroke-width:0.5;" x1="8" x2="142" y1="104.2058" y2="104.2058"/></g><!--class Context--><g id="elem_Context"><rect codeLine="25" fill="#FFF1D9" filter="url(#f2oizyt3ldx0c)" height="124.2717" id="Context" rx="5" ry="5" style="stroke:#181818;stroke-width:0.5;" width="150" x="178" y="7"/><rect fill="#FFD080" height="32" rx="5" ry="5" style="stroke:#FFD080;stroke-width:0.5;" width="150" x="178" y="7"/><rect fill="#FFD080" height="5" style="stroke:#FFD080;stroke-width:0.5;" width="150" x="178" y="34"/><rect codeLine="25" fill="none" height="124.2717" id="Context" rx="5" ry="5" style="stroke:#181818;stroke-width:0.5;" width="150" x="178" y="7"/><ellipse cx="223.25" cy="23" fill="#ADD1B2" rx="11" ry="11" style="stroke:#181818;stroke-width:1.0;"/><path d="M223.3594,18.5313 Q222.4375,18.5313 221.7031,18.8438 Q220.9844,19.1563 220.4844,19.75 Q219.9844,20.3281 219.7031,21.2031 Q219.4375,22.0781 219.4375,23.1719 Q219.4375,24.6094 219.875,25.6563 Q220.3281,26.7031 221.1719,27.25 Q222.0313,27.7969 223.3438,27.7969 Q224.125,27.7969 224.8125,27.6719 Q225.5156,27.5313 226.5156,27.2188 L226.5156,29.0938 Q225.6563,29.4219 224.8906,29.5469 Q224.1406,29.6719 223.125,29.6719 Q221.2031,29.6719 219.8906,28.875 Q218.5938,28.0625 217.9375,26.5938 Q217.2813,25.1094 217.2813,23.1406 Q217.2813,21.7188 217.6719,20.5469 Q218.0781,19.3594 218.8594,18.4844 Q219.6406,17.6094 220.7813,17.1406 Q221.9219,16.6563 223.3906,16.6563 Q224.3438,16.6563 225.2344,16.8594 Q226.1406,17.0469 227.0781,17.5156 L226.25,19.2969 Q225.4688,18.9219 224.8125,18.7344 Q224.1563,18.5313 223.3594,18.5313 Z " fill="#000000"/><text fill="#000000" font-family="sans-serif" font-size="14" lengthAdjust="spacing" textLength="51" x="243.75" y="28.432">Context</text><line style="stroke:#181818;stroke-width:0.5;" x1="179" x2="327" y1="39" y2="39"/><text fill="#000000" font-family="sans-serif" font-size="14" lengthAdjust="spacing" textLength="109" x="184" y="57.9659">mandant: string</text><text fill="#000000" font-family="sans-serif" font-size="14" lengthAdjust="spacing" textLength="138" x="184" y="77.0339">client_system: string</text><text fill="#000000" font-family="sans-serif" font-size="14" lengthAdjust="spacing" textLength="116" x="184" y="96.1018">workplace: string</text><text fill="#000000" font-family="sans-serif" font-size="14" lengthAdjust="spacing" textLength="124" x="184" y="115.1697">description: string</text><line style="stroke:#181818;stroke-width:0.5;" x1="179" x2="327" y1="123.2717" y2="123.2717"/></g><!--link Location to Connector--><g id="link_Location_Connector"><path codeLine="32" d="M90.2,112.66 C98.04,134.61 108.07,162.67 118.19,190.99 " fill="none" id="Location-Connector" style="stroke:#181818;stroke-width:1.0;"/><text fill="#000000" font-family="sans-serif" font-size="13" lengthAdjust="spacing" textLength="7" x="84.9184" y="134.2496">*</text><text fill="#000000" font-family="sans-serif" font-size="13" lengthAdjust="spacing" textLength="7" x="108.1852" y="179.5203">*</text></g><!--link Context to Connector--><g id="link_Context_Connector"><path codeLine="33" d="M231,131.69 C224.51,149.84 217.16,170.4 209.76,191.1 " fill="none" id="Context-Connector" style="stroke:#181818;stroke-width:1.0;"/><text fill="#000000" font-family="sans-serif" font-size="13" lengthAdjust="spacing" textLength="7" x="221.3703" y="152.9509">*</text><text fill="#000000" font-family="sans-serif" font-size="13" lengthAdjust="spacing" textLength="7" x="205.3352" y="179.637">*</text></g><!--SRC=[XL51JiGm3Bpd5MQFICi3UkNA7w8qCLlJ98uITrc4zk-ufLsA075ACkCPsnFX0iBGimWd25JH2t4svau6J0YUlQi1dgko3yRuw5g3HyvPwxW2l1k0x19sqAHIFkapOFELocpJGIK_MC6BA46b0yeuNrjeTgfnfqekJoxQgGGdwjOpHtHPYUDnhRyahL-j5lrI6gmJXIbX4vUASdwRpZQiP_BOEdXfd7lbT7onVa0_VjTyuPR77tQ1FfUXB7Z2QgvR44-QpamjCKGAVwMmejTTWFCYYqmN3oxBJkeZOHRRtffWsk6lNCSIdSV_szm6EzmVDC7bkFsQsTh_Idu0]--></g></svg>