<?xml version="1.0" encoding="us-ascii" standalone="no"?><svg xmlns="http://www.w3.org/2000/svg" xmlns:xlink="http://www.w3.org/1999/xlink" contentStyleType="text/css" height="1003px" preserveAspectRatio="none" style="width:383px;height:1003px;background:#FFFFFF;" version="1.1" viewBox="0 0 383 1003" width="383px" zoomAndPan="magnify"><defs><filter height="300%" id="fhbvrej4h221e" width="300%" x="-1" y="-1"><feGaussianBlur result="blurOut" stdDeviation="2.0"/><feColorMatrix in="blurOut" result="blurOut2" type="matrix" values="0 0 0 0 0 0 0 0 0 0 0 0 0 0 0 0 0 0 .4 0"/><feOffset dx="4.0" dy="4.0" in="blurOut2" result="blurOut3"/><feBlend in="SourceGraphic" in2="blurOut3" mode="normal"/></filter></defs><g><!--class Connector--><g id="elem_Connector"><rect codeLine="5" fill="#FFF1D9" filter="url(#fhbvrej4h221e)" height="295.8829" id="Connector" rx="5" ry="5" style="stroke:#181818;stroke-width:0.5;" width="222" x="16" y="356.47"/><rect fill="#FFD080" height="32" rx="5" ry="5" style="stroke:#FFD080;stroke-width:0.5;" width="222" x="16" y="356.47"/><rect fill="#FFD080" height="5" style="stroke:#FFD080;stroke-width:0.5;" width="222" x="16" y="383.47"/><rect codeLine="5" fill="none" height="295.8829" id="Connector" rx="5" ry="5" style="stroke:#181818;stroke-width:0.5;" width="222" x="16" y="356.47"/><ellipse cx="88.25" cy="372.47" fill="#ADD1B2" rx="11" ry="11" style="stroke:#181818;stroke-width:1.0;"/><path d="M88.3594,368.0012 Q87.4375,368.0012 86.7031,368.3137 Q85.9844,368.6262 85.4844,369.22 Q84.9844,369.7981 84.7031,370.6731 Q84.4375,371.5481 84.4375,372.6419 Q84.4375,374.0794 84.875,375.1262 Q85.3281,376.1731 86.1719,376.72 Q87.0313,377.2669 88.3438,377.2669 Q89.125,377.2669 89.8125,377.1419 Q90.5156,377.0012 91.5156,376.6887 L91.5156,378.5637 Q90.6563,378.8919 89.8906,379.0169 Q89.1406,379.1419 88.125,379.1419 Q86.2031,379.1419 84.8906,378.345 Q83.5938,377.5325 82.9375,376.0637 Q82.2813,374.5794 82.2813,372.6106 Q82.2813,371.1887 82.6719,370.0169 Q83.0781,368.8294 83.8594,367.9544 Q84.6406,367.0794 85.7813,366.6106 Q86.9219,366.1262 88.3906,366.1262 Q89.3438,366.1262 90.2344,366.3294 Q91.1406,366.5169 92.0781,366.9856 L91.25,368.7669 Q90.4688,368.3919 89.8125,368.2044 Q89.1563,368.0012 88.3594,368.0012 Z " fill="#000000"/><text fill="#000000" font-family="sans-serif" font-size="14" lengthAdjust="spacing" textLength="69" x="108.75" y="377.902">Connector</text><line style="stroke:#181818;stroke-width:0.5;" x1="17" x2="237" y1="388.47" y2="388.47"/><text fill="#000000" font-family="sans-serif" font-size="14" lengthAdjust="spacing" textLength="86" x="22" y="407.4359">name: string</text><text fill="#000000" font-family="sans-serif" font-size="14" lengthAdjust="spacing" textLength="141" x="22" y="426.5039">description: rich_text</text><text fill="#000000" font-family="sans-serif" font-size="14" lengthAdjust="spacing" textLength="47" x="22" y="445.5718">ip: inet</text><text fill="#000000" font-family="sans-serif" font-size="14" lengthAdjust="spacing" textLength="96" x="22" y="464.6397">sds_url: string</text><text fill="#000000" font-family="sans-serif" font-size="14" lengthAdjust="spacing" textLength="167" x="22" y="483.7076">manual_update: boolean</text><line style="stroke:#181818;stroke-width:1.0;" x1="17" x2="237" y1="491.8096" y2="491.8096"/><text fill="#000000" font-family="sans-serif" font-size="14" lengthAdjust="spacing" textLength="86" x="22" y="510.7755">sds_xml: text</text><text fill="#000000" font-family="sans-serif" font-size="14" lengthAdjust="spacing" textLength="185" x="22" y="529.8434">sds_updated_at: timestamp</text><text fill="#000000" font-family="sans-serif" font-size="14" lengthAdjust="spacing" textLength="172" x="22" y="548.9114">connector_services: jsonb</text><text fill="#000000" font-family="sans-serif" font-size="14" lengthAdjust="spacing" textLength="148" x="22" y="567.9793">last_check: timestamp</text><text fill="#000000" font-family="sans-serif" font-size="14" lengthAdjust="spacing" textLength="169" x="22" y="587.0472">last_check_ok: timestamp</text><text fill="#000000" font-family="sans-serif" font-size="14" lengthAdjust="spacing" textLength="120" x="22" y="606.1151">condition: integer</text><text fill="#000000" font-family="sans-serif" font-size="14" lengthAdjust="spacing" textLength="210" x="22" y="625.183">soap_request_success: boolean</text><text fill="#000000" font-family="sans-serif" font-size="14" lengthAdjust="spacing" textLength="144" x="22" y="644.2509">vpnti_online: boolean</text></g><!--class CardTerminal--><g id="elem_CardTerminal"><rect codeLine="22" fill="#FFF1D9" filter="url(#fhbvrej4h221e)" height="276.815" id="CardTerminal" rx="5" ry="5" style="stroke:#181818;stroke-width:0.5;" width="181" x="36.5" y="712.35"/><rect fill="#FFD080" height="32" rx="5" ry="5" style="stroke:#FFD080;stroke-width:0.5;" width="181" x="36.5" y="712.35"/><rect fill="#FFD080" height="5" style="stroke:#FFD080;stroke-width:0.5;" width="181" x="36.5" y="739.35"/><rect codeLine="22" fill="none" height="276.815" id="CardTerminal" rx="5" ry="5" style="stroke:#181818;stroke-width:0.5;" width="181" x="36.5" y="712.35"/><ellipse cx="77.15" cy="728.35" fill="#ADD1B2" rx="11" ry="11" style="stroke:#181818;stroke-width:1.0;"/><path d="M77.2594,723.8813 Q76.3375,723.8813 75.6031,724.1938 Q74.8844,724.5063 74.3844,725.1 Q73.8844,725.6781 73.6031,726.5531 Q73.3375,727.4281 73.3375,728.5219 Q73.3375,729.9594 73.775,731.0063 Q74.2281,732.0531 75.0719,732.6 Q75.9313,733.1469 77.2438,733.1469 Q78.025,733.1469 78.7125,733.0219 Q79.4156,732.8813 80.4156,732.5688 L80.4156,734.4438 Q79.5563,734.7719 78.7906,734.8969 Q78.0406,735.0219 77.025,735.0219 Q75.1031,735.0219 73.7906,734.225 Q72.4938,733.4125 71.8375,731.9438 Q71.1813,730.4594 71.1813,728.4906 Q71.1813,727.0688 71.5719,725.8969 Q71.9781,724.7094 72.7594,723.8344 Q73.5406,722.9594 74.6813,722.4906 Q75.8219,722.0063 77.2906,722.0063 Q78.2438,722.0063 79.1344,722.2094 Q80.0406,722.3969 80.9781,722.8656 L80.15,724.6469 Q79.3688,724.2719 78.7125,724.0844 Q78.0563,723.8813 77.2594,723.8813 Z " fill="#000000"/><text fill="#000000" font-family="sans-serif" font-size="14" lengthAdjust="spacing" textLength="92" x="96.85" y="733.782">CardTerminal</text><line style="stroke:#181818;stroke-width:0.5;" x1="37.5" x2="216.5" y1="744.35" y2="744.35"/><text fill="#000000" font-family="sans-serif" font-size="14" lengthAdjust="spacing" textLength="141" x="42.5" y="763.3159">description: rich_text</text><line style="stroke:#181818;stroke-width:1.0;" x1="37.5" x2="216.5" y1="771.4179" y2="771.4179"/><text fill="#000000" font-family="sans-serif" font-size="14" lengthAdjust="spacing" textLength="86" x="42.5" y="790.3839">connector_id</text><text fill="#000000" font-family="sans-serif" font-size="14" lengthAdjust="spacing" textLength="86" x="42.5" y="809.4518">name: string</text><text fill="#000000" font-family="sans-serif" font-size="14" lengthAdjust="spacing" textLength="115" x="42.5" y="828.5197">properties: jsonb</text><text fill="#000000" font-family="sans-serif" font-size="14" lengthAdjust="spacing" textLength="148" x="42.5" y="847.5876">last_check: timestamp</text><text fill="#000000" font-family="sans-serif" font-size="14" lengthAdjust="spacing" textLength="169" x="42.5" y="866.6555">last_check_ok: timestamp</text><text fill="#000000" font-family="sans-serif" font-size="14" lengthAdjust="spacing" textLength="120" x="42.5" y="885.7234">condition: integer</text><text fill="#000000" font-family="sans-serif" font-size="14" lengthAdjust="spacing" textLength="73" x="42.5" y="904.7914">ctid: string</text><text fill="#000000" font-family="sans-serif" font-size="14" lengthAdjust="spacing" textLength="96" x="42.5" y="923.8593">mac: macaddr</text><text fill="#000000" font-family="sans-serif" font-size="14" lengthAdjust="spacing" textLength="47" x="42.5" y="942.9272">ip: inet</text><text fill="#000000" font-family="sans-serif" font-size="14" lengthAdjust="spacing" textLength="132" x="42.5" y="961.9951">connected: boolean</text><text fill="#000000" font-family="sans-serif" font-size="14" lengthAdjust="spacing" textLength="142" x="42.5" y="981.063">last_seen: timestamp</text></g><!--class Location--><g id="elem_Location"><rect codeLine="38" fill="#FFF1D9" filter="url(#fhbvrej4h221e)" height="86.1358" id="Location" rx="5" ry="5" style="stroke:#181818;stroke-width:0.5;" width="136" x="7" y="200.8"/><rect fill="#FFD080" height="32" rx="5" ry="5" style="stroke:#FFD080;stroke-width:0.5;" width="136" x="7" y="200.8"/><rect fill="#FFD080" height="5" style="stroke:#FFD080;stroke-width:0.5;" width="136" x="7" y="227.8"/><rect codeLine="38" fill="none" height="86.1358" id="Location" rx="5" ry="5" style="stroke:#181818;stroke-width:0.5;" width="136" x="7" y="200.8"/><ellipse cx="43.6" cy="216.8" fill="#ADD1B2" rx="11" ry="11" style="stroke:#181818;stroke-width:1.0;"/><path d="M43.7094,212.3312 Q42.7875,212.3312 42.0531,212.6437 Q41.3344,212.9562 40.8344,213.55 Q40.3344,214.1281 40.0531,215.0031 Q39.7875,215.8781 39.7875,216.9719 Q39.7875,218.4094 40.225,219.4562 Q40.6781,220.5031 41.5219,221.05 Q42.3813,221.5969 43.6938,221.5969 Q44.475,221.5969 45.1625,221.4719 Q45.8656,221.3312 46.8656,221.0187 L46.8656,222.8937 Q46.0063,223.2219 45.2406,223.3469 Q44.4906,223.4719 43.475,223.4719 Q41.5531,223.4719 40.2406,222.675 Q38.9438,221.8625 38.2875,220.3937 Q37.6313,218.9094 37.6313,216.9406 Q37.6313,215.5187 38.0219,214.3469 Q38.4281,213.1594 39.2094,212.2844 Q39.9906,211.4094 41.1313,210.9406 Q42.2719,210.4562 43.7406,210.4562 Q44.6938,210.4562 45.5844,210.6594 Q46.4906,210.8469 47.4281,211.3156 L46.6,213.0969 Q45.8188,212.7219 45.1625,212.5344 Q44.5063,212.3312 43.7094,212.3312 Z " fill="#000000"/><text fill="#000000" font-family="sans-serif" font-size="14" lengthAdjust="spacing" textLength="56" x="62.4" y="222.232">Location</text><line style="stroke:#181818;stroke-width:0.5;" x1="8" x2="142" y1="232.8" y2="232.8"/><text fill="#000000" font-family="sans-serif" font-size="14" lengthAdjust="spacing" textLength="65" x="13" y="251.7659">lid: string</text><text fill="#000000" font-family="sans-serif" font-size="14" lengthAdjust="spacing" textLength="124" x="13" y="270.8339">description: string</text><line style="stroke:#181818;stroke-width:0.5;" x1="8" x2="142" y1="278.9358" y2="278.9358"/></g><!--class Context--><g id="elem_Context"><rect codeLine="43" fill="#FFF1D9" filter="url(#fhbvrej4h221e)" height="124.2717" id="Context" rx="5" ry="5" style="stroke:#181818;stroke-width:0.5;" width="150" x="105" y="7"/><rect fill="#FFD080" height="32" rx="5" ry="5" style="stroke:#FFD080;stroke-width:0.5;" width="150" x="105" y="7"/><rect fill="#FFD080" height="5" style="stroke:#FFD080;stroke-width:0.5;" width="150" x="105" y="34"/><rect codeLine="43" fill="none" height="124.2717" id="Context" rx="5" ry="5" style="stroke:#181818;stroke-width:0.5;" width="150" x="105" y="7"/><ellipse cx="150.25" cy="23" fill="#ADD1B2" rx="11" ry="11" style="stroke:#181818;stroke-width:1.0;"/><path d="M150.3594,18.5313 Q149.4375,18.5313 148.7031,18.8438 Q147.9844,19.1563 147.4844,19.75 Q146.9844,20.3281 146.7031,21.2031 Q146.4375,22.0781 146.4375,23.1719 Q146.4375,24.6094 146.875,25.6563 Q147.3281,26.7031 148.1719,27.25 Q149.0313,27.7969 150.3438,27.7969 Q151.125,27.7969 151.8125,27.6719 Q152.5156,27.5313 153.5156,27.2188 L153.5156,29.0938 Q152.6563,29.4219 151.8906,29.5469 Q151.1406,29.6719 150.125,29.6719 Q148.2031,29.6719 146.8906,28.875 Q145.5938,28.0625 144.9375,26.5938 Q144.2813,25.1094 144.2813,23.1406 Q144.2813,21.7188 144.6719,20.5469 Q145.0781,19.3594 145.8594,18.4844 Q146.6406,17.6094 147.7813,17.1406 Q148.9219,16.6563 150.3906,16.6563 Q151.3438,16.6563 152.2344,16.8594 Q153.1406,17.0469 154.0781,17.5156 L153.25,19.2969 Q152.4688,18.9219 151.8125,18.7344 Q151.1563,18.5313 150.3594,18.5313 Z " fill="#000000"/><text fill="#000000" font-family="sans-serif" font-size="14" lengthAdjust="spacing" textLength="51" x="170.75" y="28.432">Context</text><line style="stroke:#181818;stroke-width:0.5;" x1="106" x2="254" y1="39" y2="39"/><text fill="#000000" font-family="sans-serif" font-size="14" lengthAdjust="spacing" textLength="109" x="111" y="57.9659">mandant: string</text><text fill="#000000" font-family="sans-serif" font-size="14" lengthAdjust="spacing" textLength="138" x="111" y="77.0339">client_system: string</text><text fill="#000000" font-family="sans-serif" font-size="14" lengthAdjust="spacing" textLength="116" x="111" y="96.1018">workplace: string</text><text fill="#000000" font-family="sans-serif" font-size="14" lengthAdjust="spacing" textLength="124" x="111" y="115.1697">description: string</text><line style="stroke:#181818;stroke-width:0.5;" x1="106" x2="254" y1="123.2717" y2="123.2717"/></g><!--class ConnectorContext--><g id="elem_ConnectorContext"><rect codeLine="50" fill="#FFF1D9" filter="url(#fhbvrej4h221e)" height="105.2038" id="ConnectorContext" rx="5" ry="5" style="stroke:#181818;stroke-width:0.5;" width="152" x="217" y="191.27"/><rect fill="#FFD080" height="32" rx="5" ry="5" style="stroke:#FFD080;stroke-width:0.5;" width="152" x="217" y="191.27"/><rect fill="#FFD080" height="5" style="stroke:#FFD080;stroke-width:0.5;" width="152" x="217" y="218.27"/><rect codeLine="50" fill="none" height="105.2038" id="ConnectorContext" rx="5" ry="5" style="stroke:#181818;stroke-width:0.5;" width="152" x="217" y="191.27"/><ellipse cx="232" cy="207.27" fill="#ADD1B2" rx="11" ry="11" style="stroke:#181818;stroke-width:1.0;"/><path d="M232.1094,202.8012 Q231.1875,202.8012 230.4531,203.1137 Q229.7344,203.4262 229.2344,204.02 Q228.7344,204.5981 228.4531,205.4731 Q228.1875,206.3481 228.1875,207.4419 Q228.1875,208.8794 228.625,209.9262 Q229.0781,210.9731 229.9219,211.52 Q230.7813,212.0669 232.0938,212.0669 Q232.875,212.0669 233.5625,211.9419 Q234.2656,211.8012 235.2656,211.4887 L235.2656,213.3637 Q234.4063,213.6919 233.6406,213.8169 Q232.8906,213.9419 231.875,213.9419 Q229.9531,213.9419 228.6406,213.145 Q227.3438,212.3325 226.6875,210.8637 Q226.0313,209.3794 226.0313,207.4106 Q226.0313,205.9887 226.4219,204.8169 Q226.8281,203.6294 227.6094,202.7544 Q228.3906,201.8794 229.5313,201.4106 Q230.6719,200.9262 232.1406,200.9262 Q233.0938,200.9262 233.9844,201.1294 Q234.8906,201.3169 235.8281,201.7856 L235,203.5669 Q234.2188,203.1919 233.5625,203.0044 Q232.9063,202.8012 232.1094,202.8012 Z " fill="#000000"/><text fill="#000000" font-family="sans-serif" font-size="14" lengthAdjust="spacing" textLength="120" x="246" y="212.702">ConnectorContext</text><line style="stroke:#181818;stroke-width:0.5;" x1="218" x2="368" y1="223.27" y2="223.27"/><text fill="#000000" font-family="sans-serif" font-size="14" lengthAdjust="spacing" textLength="86" x="223" y="242.2359">connector_id</text><text fill="#000000" font-family="sans-serif" font-size="14" lengthAdjust="spacing" textLength="68" x="223" y="261.3039">context_id</text><text fill="#000000" font-family="sans-serif" font-size="14" lengthAdjust="spacing" textLength="111" x="223" y="280.3718">position: integer</text><line style="stroke:#181818;stroke-width:0.5;" x1="218" x2="368" y1="288.4738" y2="288.4738"/></g><ellipse cx="180" cy="243.87" fill="#181818" rx="2" ry="2" style="stroke:#181818;stroke-width:1.0;"/><!--link Location to Connector--><g id="link_Location_Connector"><path codeLine="57" d="M83.53,287.27 C87.43,306.69 92.32,330.96 97.38,356.17 " fill="none" id="Location-Connector" style="stroke:#181818;stroke-width:1.0;"/><text fill="#000000" font-family="sans-serif" font-size="13" lengthAdjust="spacing" textLength="7" x="77.2688" y="308.842">*</text><text fill="#000000" font-family="sans-serif" font-size="13" lengthAdjust="spacing" textLength="7" x="88.5688" y="344.5145">*</text></g><!--link Connector to CardTerminal--><g id="link_Connector_CardTerminal"><path codeLine="59" d="M127,652.45 C127,672.19 127,692.38 127,711.96 " fill="none" id="Connector-CardTerminal" style="stroke:#181818;stroke-width:1.0;"/><text fill="#000000" font-family="sans-serif" font-size="13" lengthAdjust="spacing" textLength="7" x="119.8195" y="674.4367">1</text><text fill="#000000" font-family="sans-serif" font-size="13" lengthAdjust="spacing" textLength="7" x="119.7977" y="700.3618">*</text></g><!--link Context to apoint10--><g id="link_Context_apoint10"><path d="M180,131.52 C180,177.29 180,233.3 180,241.78 " fill="none" id="Context-apoint10" style="stroke:#181818;stroke-width:1.0;"/><text fill="#000000" font-family="sans-serif" font-size="13" lengthAdjust="spacing" textLength="7" x="172.6172" y="153.2086">*</text></g><!--link apoint10 to Connector--><g id="link_apoint10_Connector"><path d="M179.76,246.02 C178.11,254.07 168.06,303.13 157.16,356.29 " fill="none" id="apoint10-Connector" style="stroke:#181818;stroke-width:1.0;"/><text fill="#000000" font-family="sans-serif" font-size="13" lengthAdjust="spacing" textLength="7" x="151.618" y="344.6411">*</text></g><!--link apoint10 to ConnectorContext--><g id="link_apoint10_ConnectorContext"><path d="M182.21,243.87 C193.75,243.87 205.29,243.87 216.83,243.87 " fill="none" id="apoint10-ConnectorContext" style="stroke:#181818;stroke-width:1.0;stroke-dasharray:7.0,7.0;"/></g><!--SRC=[jLCzKyCm3DtzAqmdu6ZlMBEoChBxN5kqfhPbRAMKu_hVKJwQEkrrO619OZtfFUbP8KoIKAwH28EqBeCXXr68Ezf206dGw6pbUsPq9OJnkXJvWZ5o7cOfVuIKKGTePA7iueQF5eh9BdKqZSpER1N1WHXmgP4kGlTPR55jzbLLqB7LNhN9QcAsDQ877HbOBiVyG-3yaQglxrEjqiHX5w2G3eanS-fE5SXxPw0qygDWN3F6xPCoMp2xUSqvhd1tHMVTC8oB11l8dJxgf39yjfocIcjOfDHDxrCafp1wdlSSFqu6igTla8EBslSMtlIid_uyaRFNVgUC2JAv_vYJby7EBiaqtKDRc-SNEhO8jdQXLoi0iLQQJ7ZbrUhqUWFyJ6TcnnWzLjlNcTENyTPO7QagDTv1PDNlGX2g-1VcNVBQm1za1jDhlOkRC0Cq71AM2_-OIqnJBXuNV9lzQw8M9-vRuFYRBPxFSBKwGjnFEKydNnxaQdNLlFW5]--></g></svg>