<?xml version="1.0" encoding="us-ascii" standalone="no"?><svg xmlns="http://www.w3.org/2000/svg" xmlns:xlink="http://www.w3.org/1999/xlink" contentStyleType="text/css" height="1176px" preserveAspectRatio="none" style="width:687px;height:1176px;background:#FFFFFF;" version="1.1" viewBox="0 0 687 1176" width="687px" zoomAndPan="magnify"><defs><filter height="300%" id="f6h3sxrgujvj2" width="300%" x="-1" y="-1"><feGaussianBlur result="blurOut" stdDeviation="2.0"/><feColorMatrix in="blurOut" result="blurOut2" type="matrix" values="0 0 0 0 0 0 0 0 0 0 0 0 0 0 0 0 0 0 .4 0"/><feOffset dx="4.0" dy="4.0" in="blurOut2" result="blurOut3"/><feBlend in="SourceGraphic" in2="blurOut3" mode="normal"/></filter></defs><g><!--class Connector--><g id="elem_Connector"><rect codeLine="5" fill="#FFF1D9" filter="url(#f6h3sxrgujvj2)" height="295.8829" id="Connector" rx="5" ry="5" style="stroke:#181818;stroke-width:0.5;" width="222" x="7" y="455.82"/><rect fill="#FFD080" height="32" rx="5" ry="5" style="stroke:#FFD080;stroke-width:0.5;" width="222" x="7" y="455.82"/><rect fill="#FFD080" height="5" style="stroke:#FFD080;stroke-width:0.5;" width="222" x="7" y="482.82"/><rect codeLine="5" fill="none" height="295.8829" id="Connector" rx="5" ry="5" style="stroke:#181818;stroke-width:0.5;" width="222" x="7" y="455.82"/><ellipse cx="79.25" cy="471.82" fill="#ADD1B2" rx="11" ry="11" style="stroke:#181818;stroke-width:1.0;"/><path d="M79.3594,467.3513 Q78.4375,467.3513 77.7031,467.6638 Q76.9844,467.9763 76.4844,468.57 Q75.9844,469.1481 75.7031,470.0231 Q75.4375,470.8981 75.4375,471.9919 Q75.4375,473.4294 75.875,474.4763 Q76.3281,475.5231 77.1719,476.07 Q78.0313,476.6169 79.3438,476.6169 Q80.125,476.6169 80.8125,476.4919 Q81.5156,476.3513 82.5156,476.0388 L82.5156,477.9138 Q81.6563,478.2419 80.8906,478.3669 Q80.1406,478.4919 79.125,478.4919 Q77.2031,478.4919 75.8906,477.695 Q74.5938,476.8825 73.9375,475.4138 Q73.2813,473.9294 73.2813,471.9606 Q73.2813,470.5388 73.6719,469.3669 Q74.0781,468.1794 74.8594,467.3044 Q75.6406,466.4294 76.7813,465.9606 Q77.9219,465.4763 79.3906,465.4763 Q80.3438,465.4763 81.2344,465.6794 Q82.1406,465.8669 83.0781,466.3356 L82.25,468.1169 Q81.4688,467.7419 80.8125,467.5544 Q80.1563,467.3513 79.3594,467.3513 Z " fill="#000000"/><text fill="#000000" font-family="sans-serif" font-size="14" lengthAdjust="spacing" textLength="69" x="99.75" y="477.252">Connector</text><line style="stroke:#181818;stroke-width:0.5;" x1="8" x2="228" y1="487.82" y2="487.82"/><text fill="#000000" font-family="sans-serif" font-size="14" lengthAdjust="spacing" textLength="86" x="13" y="506.7859">name: string</text><text fill="#000000" font-family="sans-serif" font-size="14" lengthAdjust="spacing" textLength="141" x="13" y="525.8539">description: rich_text</text><text fill="#000000" font-family="sans-serif" font-size="14" lengthAdjust="spacing" textLength="47" x="13" y="544.9218">ip: inet</text><text fill="#000000" font-family="sans-serif" font-size="14" lengthAdjust="spacing" textLength="96" x="13" y="563.9897">sds_url: string</text><text fill="#000000" font-family="sans-serif" font-size="14" lengthAdjust="spacing" textLength="167" x="13" y="583.0576">manual_update: boolean</text><line style="stroke:#181818;stroke-width:1.0;" x1="8" x2="228" y1="591.1596" y2="591.1596"/><text fill="#000000" font-family="sans-serif" font-size="14" lengthAdjust="spacing" textLength="86" x="13" y="610.1255">sds_xml: text</text><text fill="#000000" font-family="sans-serif" font-size="14" lengthAdjust="spacing" textLength="185" x="13" y="629.1934">sds_updated_at: timestamp</text><text fill="#000000" font-family="sans-serif" font-size="14" lengthAdjust="spacing" textLength="172" x="13" y="648.2614">connector_services: jsonb</text><text fill="#000000" font-family="sans-serif" font-size="14" lengthAdjust="spacing" textLength="148" x="13" y="667.3293">last_check: timestamp</text><text fill="#000000" font-family="sans-serif" font-size="14" lengthAdjust="spacing" textLength="169" x="13" y="686.3972">last_check_ok: timestamp</text><text fill="#000000" font-family="sans-serif" font-size="14" lengthAdjust="spacing" textLength="120" x="13" y="705.4651">condition: integer</text><text fill="#000000" font-family="sans-serif" font-size="14" lengthAdjust="spacing" textLength="210" x="13" y="724.533">soap_request_success: boolean</text><text fill="#000000" font-family="sans-serif" font-size="14" lengthAdjust="spacing" textLength="144" x="13" y="743.6009">vpnti_online: boolean</text></g><!--class CardTerminal--><g id="elem_CardTerminal"><rect codeLine="22" fill="#FFF1D9" filter="url(#f6h3sxrgujvj2)" height="334.0188" id="CardTerminal" rx="5" ry="5" style="stroke:#181818;stroke-width:0.5;" width="153" x="263.5" y="436.75"/><rect fill="#FFD080" height="32" rx="5" ry="5" style="stroke:#FFD080;stroke-width:0.5;" width="153" x="263.5" y="436.75"/><rect fill="#FFD080" height="5" style="stroke:#FFD080;stroke-width:0.5;" width="153" x="263.5" y="463.75"/><rect codeLine="22" fill="none" height="334.0188" id="CardTerminal" rx="5" ry="5" style="stroke:#181818;stroke-width:0.5;" width="153" x="263.5" y="436.75"/><ellipse cx="291.55" cy="452.75" fill="#ADD1B2" rx="11" ry="11" style="stroke:#181818;stroke-width:1.0;"/><path d="M291.6594,448.2813 Q290.7375,448.2813 290.0031,448.5938 Q289.2844,448.9063 288.7844,449.5 Q288.2844,450.0781 288.0031,450.9531 Q287.7375,451.8281 287.7375,452.9219 Q287.7375,454.3594 288.175,455.4063 Q288.6281,456.4531 289.4719,457 Q290.3313,457.5469 291.6438,457.5469 Q292.425,457.5469 293.1125,457.4219 Q293.8156,457.2813 294.8156,456.9688 L294.8156,458.8438 Q293.9563,459.1719 293.1906,459.2969 Q292.4406,459.4219 291.425,459.4219 Q289.5031,459.4219 288.1906,458.625 Q286.8938,457.8125 286.2375,456.3438 Q285.5813,454.8594 285.5813,452.8906 Q285.5813,451.4688 285.9719,450.2969 Q286.3781,449.1094 287.1594,448.2344 Q287.9406,447.3594 289.0813,446.8906 Q290.2219,446.4063 291.6906,446.4063 Q292.6438,446.4063 293.5344,446.6094 Q294.4406,446.7969 295.3781,447.2656 L294.55,449.0469 Q293.7688,448.6719 293.1125,448.4844 Q292.4563,448.2813 291.6594,448.2813 Z " fill="#000000"/><text fill="#000000" font-family="sans-serif" font-size="14" lengthAdjust="spacing" textLength="92" x="308.45" y="458.182">CardTerminal</text><line style="stroke:#181818;stroke-width:0.5;" x1="264.5" x2="415.5" y1="468.75" y2="468.75"/><text fill="#000000" font-family="sans-serif" font-size="14" lengthAdjust="spacing" textLength="134" x="269.5" y="487.7159">displayname: string</text><text fill="#000000" font-family="sans-serif" font-size="14" lengthAdjust="spacing" textLength="141" x="269.5" y="506.7839">description: rich_text</text><text fill="#000000" font-family="sans-serif" font-size="14" lengthAdjust="spacing" textLength="83" x="269.5" y="525.8518">room: string</text><text fill="#000000" font-family="sans-serif" font-size="14" lengthAdjust="spacing" textLength="97" x="269.5" y="544.9197">contact: string</text><text fill="#000000" font-family="sans-serif" font-size="14" lengthAdjust="spacing" textLength="124" x="269.5" y="563.9876">plugged_in: string</text><text fill="#000000" font-family="sans-serif" font-size="14" lengthAdjust="spacing" textLength="72" x="269.5" y="583.0555">location_id</text><line style="stroke:#181818;stroke-width:1.0;" x1="264.5" x2="415.5" y1="591.1575" y2="591.1575"/><text fill="#000000" font-family="sans-serif" font-size="14" lengthAdjust="spacing" textLength="115" x="269.5" y="610.1234">properties: jsonb</text><text fill="#000000" font-family="sans-serif" font-size="14" lengthAdjust="spacing" textLength="86" x="269.5" y="629.1914">name: string</text><text fill="#000000" font-family="sans-serif" font-size="14" lengthAdjust="spacing" textLength="79" x="269.5" y="648.2593">ct_id: string</text><text fill="#000000" font-family="sans-serif" font-size="14" lengthAdjust="spacing" textLength="96" x="269.5" y="667.3272">mac: macaddr</text><text fill="#000000" font-family="sans-serif" font-size="14" lengthAdjust="spacing" textLength="47" x="269.5" y="686.3951">ip: inet</text><text fill="#000000" font-family="sans-serif" font-size="14" lengthAdjust="spacing" textLength="88" x="269.5" y="705.463">slots: integer</text><text fill="#000000" font-family="sans-serif" font-size="14" lengthAdjust="spacing" textLength="132" x="269.5" y="724.5309">connected: boolean</text><text fill="#000000" font-family="sans-serif" font-size="14" lengthAdjust="spacing" textLength="120" x="269.5" y="743.5989">condition: integer</text><text fill="#000000" font-family="sans-serif" font-size="14" lengthAdjust="spacing" textLength="86" x="269.5" y="762.6668">connector_id</text></g><!--class Location--><g id="elem_Location"><rect codeLine="41" fill="#FFF1D9" filter="url(#f6h3sxrgujvj2)" height="86.1358" id="Location" rx="5" ry="5" style="stroke:#181818;stroke-width:0.5;" width="136" x="307" y="200.81"/><rect fill="#FFD080" height="32" rx="5" ry="5" style="stroke:#FFD080;stroke-width:0.5;" width="136" x="307" y="200.81"/><rect fill="#FFD080" height="5" style="stroke:#FFD080;stroke-width:0.5;" width="136" x="307" y="227.81"/><rect codeLine="41" fill="none" height="86.1358" id="Location" rx="5" ry="5" style="stroke:#181818;stroke-width:0.5;" width="136" x="307" y="200.81"/><ellipse cx="343.6" cy="216.81" fill="#ADD1B2" rx="11" ry="11" style="stroke:#181818;stroke-width:1.0;"/><path d="M343.7094,212.3413 Q342.7875,212.3413 342.0531,212.6538 Q341.3344,212.9663 340.8344,213.56 Q340.3344,214.1381 340.0531,215.0131 Q339.7875,215.8881 339.7875,216.9819 Q339.7875,218.4194 340.225,219.4663 Q340.6781,220.5131 341.5219,221.06 Q342.3813,221.6069 343.6938,221.6069 Q344.475,221.6069 345.1625,221.4819 Q345.8656,221.3413 346.8656,221.0288 L346.8656,222.9038 Q346.0063,223.2319 345.2406,223.3569 Q344.4906,223.4819 343.475,223.4819 Q341.5531,223.4819 340.2406,222.685 Q338.9438,221.8725 338.2875,220.4038 Q337.6313,218.9194 337.6313,216.9506 Q337.6313,215.5288 338.0219,214.3569 Q338.4281,213.1694 339.2094,212.2944 Q339.9906,211.4194 341.1313,210.9506 Q342.2719,210.4663 343.7406,210.4663 Q344.6938,210.4663 345.5844,210.6694 Q346.4906,210.8569 347.4281,211.3256 L346.6,213.1069 Q345.8188,212.7319 345.1625,212.5444 Q344.5063,212.3413 343.7094,212.3413 Z " fill="#000000"/><text fill="#000000" font-family="sans-serif" font-size="14" lengthAdjust="spacing" textLength="56" x="362.4" y="222.242">Location</text><line style="stroke:#181818;stroke-width:0.5;" x1="308" x2="442" y1="232.81" y2="232.81"/><text fill="#000000" font-family="sans-serif" font-size="14" lengthAdjust="spacing" textLength="65" x="313" y="251.7759">lid: string</text><text fill="#000000" font-family="sans-serif" font-size="14" lengthAdjust="spacing" textLength="124" x="313" y="270.8439">description: string</text><line style="stroke:#181818;stroke-width:0.5;" x1="308" x2="442" y1="278.9458" y2="278.9458"/></g><!--class Context--><g id="elem_Context"><rect codeLine="46" fill="#FFF1D9" filter="url(#f6h3sxrgujvj2)" height="124.2717" id="Context" rx="5" ry="5" style="stroke:#181818;stroke-width:0.5;" width="150" x="8" y="7"/><rect fill="#FFD080" height="32" rx="5" ry="5" style="stroke:#FFD080;stroke-width:0.5;" width="150" x="8" y="7"/><rect fill="#FFD080" height="5" style="stroke:#FFD080;stroke-width:0.5;" width="150" x="8" y="34"/><rect codeLine="46" fill="none" height="124.2717" id="Context" rx="5" ry="5" style="stroke:#181818;stroke-width:0.5;" width="150" x="8" y="7"/><ellipse cx="53.25" cy="23" fill="#ADD1B2" rx="11" ry="11" style="stroke:#181818;stroke-width:1.0;"/><path d="M53.3594,18.5313 Q52.4375,18.5313 51.7031,18.8438 Q50.9844,19.1563 50.4844,19.75 Q49.9844,20.3281 49.7031,21.2031 Q49.4375,22.0781 49.4375,23.1719 Q49.4375,24.6094 49.875,25.6563 Q50.3281,26.7031 51.1719,27.25 Q52.0313,27.7969 53.3438,27.7969 Q54.125,27.7969 54.8125,27.6719 Q55.5156,27.5313 56.5156,27.2188 L56.5156,29.0938 Q55.6563,29.4219 54.8906,29.5469 Q54.1406,29.6719 53.125,29.6719 Q51.2031,29.6719 49.8906,28.875 Q48.5938,28.0625 47.9375,26.5938 Q47.2813,25.1094 47.2813,23.1406 Q47.2813,21.7188 47.6719,20.5469 Q48.0781,19.3594 48.8594,18.4844 Q49.6406,17.6094 50.7813,17.1406 Q51.9219,16.6563 53.3906,16.6563 Q54.3438,16.6563 55.2344,16.8594 Q56.1406,17.0469 57.0781,17.5156 L56.25,19.2969 Q55.4688,18.9219 54.8125,18.7344 Q54.1563,18.5313 53.3594,18.5313 Z " fill="#000000"/><text fill="#000000" font-family="sans-serif" font-size="14" lengthAdjust="spacing" textLength="51" x="73.75" y="28.432">Context</text><line style="stroke:#181818;stroke-width:0.5;" x1="9" x2="157" y1="39" y2="39"/><text fill="#000000" font-family="sans-serif" font-size="14" lengthAdjust="spacing" textLength="109" x="14" y="57.9659">mandant: string</text><text fill="#000000" font-family="sans-serif" font-size="14" lengthAdjust="spacing" textLength="138" x="14" y="77.0339">client_system: string</text><text fill="#000000" font-family="sans-serif" font-size="14" lengthAdjust="spacing" textLength="116" x="14" y="96.1018">workplace: string</text><text fill="#000000" font-family="sans-serif" font-size="14" lengthAdjust="spacing" textLength="124" x="14" y="115.1697">description: string</text><line style="stroke:#181818;stroke-width:0.5;" x1="9" x2="157" y1="123.2717" y2="123.2717"/></g><!--class ConnectorContext--><g id="elem_ConnectorContext"><rect codeLine="53" fill="#FFF1D9" filter="url(#f6h3sxrgujvj2)" height="105.2038" id="ConnectorContext" rx="5" ry="5" style="stroke:#181818;stroke-width:0.5;" width="152" x="120" y="191.27"/><rect fill="#FFD080" height="32" rx="5" ry="5" style="stroke:#FFD080;stroke-width:0.5;" width="152" x="120" y="191.27"/><rect fill="#FFD080" height="5" style="stroke:#FFD080;stroke-width:0.5;" width="152" x="120" y="218.27"/><rect codeLine="53" fill="none" height="105.2038" id="ConnectorContext" rx="5" ry="5" style="stroke:#181818;stroke-width:0.5;" width="152" x="120" y="191.27"/><ellipse cx="135" cy="207.27" fill="#ADD1B2" rx="11" ry="11" style="stroke:#181818;stroke-width:1.0;"/><path d="M135.1094,202.8013 Q134.1875,202.8013 133.4531,203.1138 Q132.7344,203.4263 132.2344,204.02 Q131.7344,204.5981 131.4531,205.4731 Q131.1875,206.3481 131.1875,207.4419 Q131.1875,208.8794 131.625,209.9263 Q132.0781,210.9731 132.9219,211.52 Q133.7813,212.0669 135.0938,212.0669 Q135.875,212.0669 136.5625,211.9419 Q137.2656,211.8013 138.2656,211.4888 L138.2656,213.3638 Q137.4063,213.6919 136.6406,213.8169 Q135.8906,213.9419 134.875,213.9419 Q132.9531,213.9419 131.6406,213.145 Q130.3438,212.3325 129.6875,210.8638 Q129.0313,209.3794 129.0313,207.4106 Q129.0313,205.9888 129.4219,204.8169 Q129.8281,203.6294 130.6094,202.7544 Q131.3906,201.8794 132.5313,201.4106 Q133.6719,200.9263 135.1406,200.9263 Q136.0938,200.9263 136.9844,201.1294 Q137.8906,201.3169 138.8281,201.7856 L138,203.5669 Q137.2188,203.1919 136.5625,203.0044 Q135.9063,202.8013 135.1094,202.8013 Z " fill="#000000"/><text fill="#000000" font-family="sans-serif" font-size="14" lengthAdjust="spacing" textLength="120" x="149" y="212.702">ConnectorContext</text><line style="stroke:#181818;stroke-width:0.5;" x1="121" x2="271" y1="223.27" y2="223.27"/><text fill="#000000" font-family="sans-serif" font-size="14" lengthAdjust="spacing" textLength="86" x="126" y="242.2359">connector_id</text><text fill="#000000" font-family="sans-serif" font-size="14" lengthAdjust="spacing" textLength="68" x="126" y="261.3039">context_id</text><text fill="#000000" font-family="sans-serif" font-size="14" lengthAdjust="spacing" textLength="111" x="126" y="280.3718">position: integer</text><line style="stroke:#181818;stroke-width:0.5;" x1="121" x2="271" y1="288.4738" y2="288.4738"/></g><!--class Card--><g id="elem_Card"><rect codeLine="59" fill="#FFF1D9" filter="url(#f6h3sxrgujvj2)" height="494.5621" id="Card" rx="5" ry="5" style="stroke:#181818;stroke-width:0.5;" width="222" x="451" y="356.48"/><rect fill="#FFD080" height="32" rx="5" ry="5" style="stroke:#FFD080;stroke-width:0.5;" width="222" x="451" y="356.48"/><rect fill="#FFD080" height="5" style="stroke:#FFD080;stroke-width:0.5;" width="222" x="451" y="383.48"/><rect codeLine="59" fill="none" height="494.5621" id="Card" rx="5" ry="5" style="stroke:#181818;stroke-width:0.5;" width="222" x="451" y="356.48"/><ellipse cx="541.75" cy="372.48" fill="#ADD1B2" rx="11" ry="11" style="stroke:#181818;stroke-width:1.0;"/><path d="M541.8594,368.0113 Q540.9375,368.0113 540.2031,368.3238 Q539.4844,368.6363 538.9844,369.23 Q538.4844,369.8081 538.2031,370.6831 Q537.9375,371.5581 537.9375,372.6519 Q537.9375,374.0894 538.375,375.1363 Q538.8281,376.1831 539.6719,376.73 Q540.5313,377.2769 541.8438,377.2769 Q542.625,377.2769 543.3125,377.1519 Q544.0156,377.0113 545.0156,376.6988 L545.0156,378.5738 Q544.1563,378.9019 543.3906,379.0269 Q542.6406,379.1519 541.625,379.1519 Q539.7031,379.1519 538.3906,378.355 Q537.0938,377.5425 536.4375,376.0738 Q535.7813,374.5894 535.7813,372.6206 Q535.7813,371.1988 536.1719,370.0269 Q536.5781,368.8394 537.3594,367.9644 Q538.1406,367.0894 539.2813,366.6206 Q540.4219,366.1363 541.8906,366.1363 Q542.8438,366.1363 543.7344,366.3394 Q544.6406,366.5269 545.5781,366.9956 L544.75,368.7769 Q543.9688,368.4019 543.3125,368.2144 Q542.6563,368.0113 541.8594,368.0113 Z " fill="#000000"/><text fill="#000000" font-family="sans-serif" font-size="14" lengthAdjust="spacing" textLength="32" x="562.25" y="377.912">Card</text><line style="stroke:#181818;stroke-width:0.5;" x1="452" x2="672" y1="388.48" y2="388.48"/><text fill="#000000" font-family="sans-serif" font-size="14" lengthAdjust="spacing" textLength="86" x="457" y="407.4459">name: string</text><text fill="#000000" font-family="sans-serif" font-size="14" lengthAdjust="spacing" textLength="141" x="457" y="426.5139">description: rich_text</text><text fill="#000000" font-family="sans-serif" font-size="14" lengthAdjust="spacing" textLength="135" x="457" y="445.5818">operational_state_id</text><text fill="#000000" font-family="sans-serif" font-size="14" lengthAdjust="spacing" textLength="75" x="457" y="464.6497">lanr: string</text><text fill="#000000" font-family="sans-serif" font-size="14" lengthAdjust="spacing" textLength="135" x="457" y="483.7176">fachrichtung: string</text><text fill="#000000" font-family="sans-serif" font-size="14" lengthAdjust="spacing" textLength="79" x="457" y="502.7855">bsnr: string</text><text fill="#000000" font-family="sans-serif" font-size="14" lengthAdjust="spacing" textLength="123" x="457" y="521.8534">telematikid: string</text><line style="stroke:#181818;stroke-width:1.0;" x1="452" x2="672" y1="529.9554" y2="529.9554"/><text fill="#000000" font-family="sans-serif" font-size="14" lengthAdjust="spacing" textLength="115" x="457" y="548.9214">properties: jsonb</text><text fill="#000000" font-family="sans-serif" font-size="14" lengthAdjust="spacing" textLength="131" x="457" y="567.9893">card_handle: string</text><text fill="#000000" font-family="sans-serif" font-size="14" lengthAdjust="spacing" textLength="113" x="457" y="587.0572">card_type: string</text><text fill="#000000" font-family="sans-serif" font-size="14" lengthAdjust="spacing" textLength="82" x="457" y="606.1251">iccsn: string</text><text fill="#000000" font-family="sans-serif" font-size="14" lengthAdjust="spacing" textLength="94" x="457" y="625.193">slotid: integer</text><text fill="#000000" font-family="sans-serif" font-size="14" lengthAdjust="spacing" textLength="155" x="457" y="644.2609">insert_time: timestamp</text><text fill="#000000" font-family="sans-serif" font-size="14" lengthAdjust="spacing" textLength="172" x="457" y="663.3289">card_holder_name: string</text><text fill="#000000" font-family="sans-serif" font-size="14" lengthAdjust="spacing" textLength="142" x="457" y="682.3968">expiration_date: date</text><text fill="#000000" font-family="sans-serif" font-size="14" lengthAdjust="spacing" textLength="112" x="457" y="701.4647">card_terminal_id</text><line style="stroke:#181818;stroke-width:1.0;" x1="452" x2="672" y1="709.5667" y2="709.5667"/><text fill="#000000" font-family="sans-serif" font-size="14" lengthAdjust="spacing" textLength="96" x="457" y="728.5326">certificate:text</text><text fill="#000000" font-family="sans-serif" font-size="14" lengthAdjust="spacing" textLength="161" x="457" y="747.6005">cert_subject_title: string</text><text fill="#000000" font-family="sans-serif" font-size="14" lengthAdjust="spacing" textLength="151" x="457" y="766.6684">cert_subject_sn: string</text><text fill="#000000" font-family="sans-serif" font-size="14" lengthAdjust="spacing" textLength="210" x="457" y="785.7364">cert_subject_givenname: string</text><text fill="#000000" font-family="sans-serif" font-size="14" lengthAdjust="spacing" textLength="174" x="457" y="804.8043">cert_subject_street: string</text><text fill="#000000" font-family="sans-serif" font-size="14" lengthAdjust="spacing" textLength="208" x="457" y="823.8722">cert_subject_postalcode: string</text><text fill="#000000" font-family="sans-serif" font-size="14" lengthAdjust="spacing" textLength="139" x="457" y="842.9401">cert_subject_l: string</text></g><!--class Workplace--><g id="elem_Workplace"><rect codeLine="87" fill="#FFF1D9" filter="url(#f6h3sxrgujvj2)" height="86.1358" id="Workplace" rx="5" ry="5" style="stroke:#181818;stroke-width:0.5;" width="136" x="272" y="1076.24"/><rect fill="#FFD080" height="32" rx="5" ry="5" style="stroke:#FFD080;stroke-width:0.5;" width="136" x="272" y="1076.24"/><rect fill="#FFD080" height="5" style="stroke:#FFD080;stroke-width:0.5;" width="136" x="272" y="1103.24"/><rect codeLine="87" fill="none" height="86.1358" id="Workplace" rx="5" ry="5" style="stroke:#181818;stroke-width:0.5;" width="136" x="272" y="1076.24"/><ellipse cx="302.3" cy="1092.24" fill="#ADD1B2" rx="11" ry="11" style="stroke:#181818;stroke-width:1.0;"/><path d="M302.4094,1087.7713 Q301.4875,1087.7713 300.7531,1088.0838 Q300.0344,1088.3963 299.5344,1088.99 Q299.0344,1089.5681 298.7531,1090.4431 Q298.4875,1091.3181 298.4875,1092.4119 Q298.4875,1093.8494 298.925,1094.8963 Q299.3781,1095.9431 300.2219,1096.49 Q301.0813,1097.0369 302.3938,1097.0369 Q303.175,1097.0369 303.8625,1096.9119 Q304.5656,1096.7713 305.5656,1096.4588 L305.5656,1098.3338 Q304.7063,1098.6619 303.9406,1098.7869 Q303.1906,1098.9119 302.175,1098.9119 Q300.2531,1098.9119 298.9406,1098.115 Q297.6438,1097.3025 296.9875,1095.8338 Q296.3313,1094.3494 296.3313,1092.3806 Q296.3313,1090.9588 296.7219,1089.7869 Q297.1281,1088.5994 297.9094,1087.7244 Q298.6906,1086.8494 299.8313,1086.3806 Q300.9719,1085.8963 302.4406,1085.8963 Q303.3938,1085.8963 304.2844,1086.0994 Q305.1906,1086.2869 306.1281,1086.7556 L305.3,1088.5369 Q304.5188,1088.1619 303.8625,1087.9744 Q303.2063,1087.7713 302.4094,1087.7713 Z " fill="#000000"/><text fill="#000000" font-family="sans-serif" font-size="14" lengthAdjust="spacing" textLength="70" x="319.7" y="1097.672">Workplace</text><line style="stroke:#181818;stroke-width:0.5;" x1="273" x2="407" y1="1108.24" y2="1108.24"/><text fill="#000000" font-family="sans-serif" font-size="14" lengthAdjust="spacing" textLength="124" x="278" y="1127.2059">description: string</text><line style="stroke:#181818;stroke-width:1.0;" x1="273" x2="407" y1="1135.3079" y2="1135.3079"/><text fill="#000000" font-family="sans-serif" font-size="14" lengthAdjust="spacing" textLength="86" x="278" y="1154.2739">name: string</text></g><!--class TerminalWorkplaces--><g id="elem_TerminalWorkplaces"><rect codeLine="92" fill="#FFF1D9" filter="url(#f6h3sxrgujvj2)" height="105.2038" id="TerminalWorkplaces" rx="5" ry="5" style="stroke:#181818;stroke-width:0.5;" width="169" x="377.5" y="911.04"/><rect fill="#FFD080" height="32" rx="5" ry="5" style="stroke:#FFD080;stroke-width:0.5;" width="169" x="377.5" y="911.04"/><rect fill="#FFD080" height="5" style="stroke:#FFD080;stroke-width:0.5;" width="169" x="377.5" y="938.04"/><rect codeLine="92" fill="none" height="105.2038" id="TerminalWorkplaces" rx="5" ry="5" style="stroke:#181818;stroke-width:0.5;" width="169" x="377.5" y="911.04"/><ellipse cx="392.5" cy="927.04" fill="#ADD1B2" rx="11" ry="11" style="stroke:#181818;stroke-width:1.0;"/><path d="M392.6094,922.5713 Q391.6875,922.5713 390.9531,922.8838 Q390.2344,923.1963 389.7344,923.79 Q389.2344,924.3681 388.9531,925.2431 Q388.6875,926.1181 388.6875,927.2119 Q388.6875,928.6494 389.125,929.6963 Q389.5781,930.7431 390.4219,931.29 Q391.2813,931.8369 392.5938,931.8369 Q393.375,931.8369 394.0625,931.7119 Q394.7656,931.5713 395.7656,931.2588 L395.7656,933.1338 Q394.9063,933.4619 394.1406,933.5869 Q393.3906,933.7119 392.375,933.7119 Q390.4531,933.7119 389.1406,932.915 Q387.8438,932.1025 387.1875,930.6338 Q386.5313,929.1494 386.5313,927.1806 Q386.5313,925.7588 386.9219,924.5869 Q387.3281,923.3994 388.1094,922.5244 Q388.8906,921.6494 390.0313,921.1806 Q391.1719,920.6963 392.6406,920.6963 Q393.5938,920.6963 394.4844,920.8994 Q395.3906,921.0869 396.3281,921.5556 L395.5,923.3369 Q394.7188,922.9619 394.0625,922.7744 Q393.4063,922.5713 392.6094,922.5713 Z " fill="#000000"/><text fill="#000000" font-family="sans-serif" font-size="14" lengthAdjust="spacing" textLength="137" x="406.5" y="932.472">TerminalWorkplaces</text><line style="stroke:#181818;stroke-width:0.5;" x1="378.5" x2="545.5" y1="943.04" y2="943.04"/><text fill="#000000" font-family="sans-serif" font-size="14" lengthAdjust="spacing" textLength="112" x="383.5" y="962.0059">card_terminal_id</text><text fill="#000000" font-family="sans-serif" font-size="14" lengthAdjust="spacing" textLength="87" x="383.5" y="981.0739">workplace_id</text><text fill="#000000" font-family="sans-serif" font-size="14" lengthAdjust="spacing" textLength="76" x="383.5" y="1000.1418">updated_at</text><line style="stroke:#181818;stroke-width:0.5;" x1="378.5" x2="545.5" y1="1008.2438" y2="1008.2438"/></g><ellipse cx="83" cy="243.88" fill="#181818" rx="2" ry="2" style="stroke:#181818;stroke-width:1.0;"/><ellipse cx="340" cy="963.64" fill="#181818" rx="2" ry="2" style="stroke:#181818;stroke-width:1.0;"/><!--link Location to Connector--><g id="link_Location_Connector"><path codeLine="98" d="M316.68,287.43 C292.85,306.71 266.19,330.91 246,356.48 C222.33,386.45 201.05,421.46 182.95,455.53 " fill="none" id="Location-Connector" style="stroke:#181818;stroke-width:1.0;"/><text fill="#000000" font-family="sans-serif" font-size="13" lengthAdjust="spacing" textLength="7" x="300.9866" y="308.6965">*</text><text fill="#000000" font-family="sans-serif" font-size="13" lengthAdjust="spacing" textLength="7" x="179.3105" y="443.8751">*</text></g><!--link Connector to CardTerminal--><g id="link_Connector_CardTerminal"><path codeLine="100" d="M229.43,603.76 C240.66,603.76 251.89,603.76 263.12,603.76 " fill="none" id="Connector-CardTerminal" style="stroke:#181818;stroke-width:1.0;"/><text fill="#000000" font-family="sans-serif" font-size="13" lengthAdjust="spacing" textLength="20" x="235.5194" y="600.0389">0..1</text><text fill="#000000" font-family="sans-serif" font-size="13" lengthAdjust="spacing" textLength="7" x="248.4588" y="599.8806">*</text></g><!--link Location to CardTerminal--><g id="link_Location_CardTerminal"><path codeLine="101" d="M370.85,287.34 C367.2,324.64 361.64,381.44 356.25,436.61 " fill="none" id="Location-CardTerminal" style="stroke:#181818;stroke-width:1.0;"/><text fill="#000000" font-family="sans-serif" font-size="13" lengthAdjust="spacing" textLength="20" x="348.7717" y="308.9208">0..1</text><text fill="#000000" font-family="sans-serif" font-size="13" lengthAdjust="spacing" textLength="7" x="349.8676" y="425.0161">*</text></g><!--link Context to apoint14--><g id="link_Context_apoint14"><path d="M83,131.53 C83,177.3 83,233.31 83,241.78 " fill="none" id="Context-apoint14" style="stroke:#181818;stroke-width:1.0;"/><text fill="#000000" font-family="sans-serif" font-size="13" lengthAdjust="spacing" textLength="7" x="75.6172" y="153.2197">*</text></g><!--link apoint14 to Connector--><g id="link_apoint14_Connector"><path d="M83.13,246.17 C84.37,258.89 94.54,362.93 103.58,455.36 " fill="none" id="apoint14-Connector" style="stroke:#181818;stroke-width:1.0;"/><text fill="#000000" font-family="sans-serif" font-size="13" lengthAdjust="spacing" textLength="7" x="95.656" y="444.185">*</text></g><!--link apoint14 to ConnectorContext--><g id="link_apoint14_ConnectorContext"><path d="M85.21,243.88 C96.75,243.88 108.29,243.88 119.83,243.88 " fill="none" id="apoint14-ConnectorContext" style="stroke:#181818;stroke-width:1.0;stroke-dasharray:7.0,7.0;"/></g><!--link CardTerminal to Card--><g id="link_CardTerminal_Card"><path codeLine="103" d="M416.75,603.76 C428,603.76 439.25,603.76 450.51,603.76 " fill="none" id="CardTerminal-Card" style="stroke:#181818;stroke-width:1.0;"/><text fill="#000000" font-family="sans-serif" font-size="13" lengthAdjust="spacing" textLength="20" x="423.0814" y="599.8344">0..1</text><text fill="#000000" font-family="sans-serif" font-size="13" lengthAdjust="spacing" textLength="7" x="436.1435" y="600.135">*</text></g><!--link CardTerminal to apoint21--><g id="link_CardTerminal_apoint21"><path d="M340,771.13 C340,858.02 340,948.88 340,961.22 " fill="none" id="CardTerminal-apoint21" style="stroke:#181818;stroke-width:1.0;"/><text fill="#000000" font-family="sans-serif" font-size="13" lengthAdjust="spacing" textLength="7" x="332.8523" y="792.4614">*</text></g><!--link apoint21 to Workplace--><g id="link_apoint21_Workplace"><path d="M340,965.97 C340,975.5 340,1034.32 340,1076.01 " fill="none" id="apoint21-Workplace" style="stroke:#181818;stroke-width:1.0;"/><text fill="#000000" font-family="sans-serif" font-size="13" lengthAdjust="spacing" textLength="7" x="332.4203" y="1064.3865">*</text></g><!--link apoint21 to TerminalWorkplaces--><g id="link_apoint21_TerminalWorkplaces"><path d="M342.38,963.64 C354.06,963.64 365.75,963.64 377.43,963.64 " fill="none" id="apoint21-TerminalWorkplaces" style="stroke:#181818;stroke-width:1.0;stroke-dasharray:7.0,7.0;"/></g><!--link Location to Card--><g id="link_Location_Card"><path codeLine="106" d="M397.48,287.24 C408.52,308.07 421.99,333.57 434,356.48 C439.43,366.83 444.97,377.43 450.57,388.13 " fill="none" id="Location-Card" style="stroke:#181818;stroke-width:1.0;"/><text fill="#000000" font-family="sans-serif" font-size="13" lengthAdjust="spacing" textLength="20" x="379.313" y="308.8061">0..1</text><text fill="#000000" font-family="sans-serif" font-size="13" lengthAdjust="spacing" textLength="7" x="435.8481" y="369.9919">*</text></g><!--SRC=[bLLBZziW4BxxLz2SscetQg-vxhN7IZqY0hCE6mmKnccYAl-zW_43x8tKlJZnFB_vvc5qdg5ZHuVeEgPq08dQsQRvX2VeW4adHL3iDP1stpJIY1ZPYxEMx5nWx6_3c1KT75Z4e6rBhmgY3DgdC0SMj3nnX2kIGli3qnRItwWYxuCfl3fXUs5uxvL0YdPqpe2mf7X-7ksl7TcFeGR_mLHnWIJM7KGKdIUTdD3n2E6Y9SG3UulE7ab7y97B4yXpxRF8kJjlmYcTYz4MeOMGyZlXUO3VFPdns4jA4alG5szHSsSDrRl8xpE1nEbF29ssmWmKAXsz4RV_PJ8urnLs1165n4BYJT-sn8ssXT1GBrCihjN4gm_EGq1TShG28P7igqR9Gte8fSAggSPXB5aQEm6gfEPTFfUU4RQPfXyZu84YKw6eg1cbzs8-4r636ysL4hRaHXeDbhfsYmWbYtzSE5CJ97mWJGPTvgigoQqXLNxnBgughoRYGykK-ZQGGqj3eugGKnXXG-7-AkGfUM5lsq9yZ9KLWe6EWfqhYXyEIBe8_4IyccfEaXHllfHfAMCvWMb2KewbyThIaY9F2xTQko69Cme2Nt42LwzpxJmVY_IS4OnhLGovJ0MyQfbiH_QIYFRs-4QjekHOLr8gA_oLfjKNiEjbgLmn0E0ZBGq32YETUkXljYFtQvhHV3NUcSwnvWhNlNaPlAUJCqU9UMItlCsxa5-NKvkWp6kv-xgZRCFFl0lDj0oFbEENO_Tjl_zE5jcWk8T5-8Scd-SuJzEoVs7x_MOZc-hGRkAjr0lWcI3AL9WyBOeXtPRFBVWbspy0]--></g></svg>