<?xml version="1.0" encoding="us-ascii" standalone="no"?><svg xmlns="http://www.w3.org/2000/svg" xmlns:xlink="http://www.w3.org/1999/xlink" contentStyleType="text/css" height="1328px" preserveAspectRatio="none" style="width:719px;height:1328px;background:#FFFFFF;" version="1.1" viewBox="0 0 719 1328" width="719px" zoomAndPan="magnify"><defs><filter height="300%" id="f87wu7m8qbvdu" width="300%" x="-1" y="-1"><feGaussianBlur result="blurOut" stdDeviation="2.0"/><feColorMatrix in="blurOut" result="blurOut2" type="matrix" values="0 0 0 0 0 0 0 0 0 0 0 0 0 0 0 0 0 0 .4 0"/><feOffset dx="4.0" dy="4.0" in="blurOut2" result="blurOut3"/><feBlend in="SourceGraphic" in2="blurOut3" mode="normal"/></filter></defs><g><!--class Connector--><g id="elem_Connector"><rect codeLine="5" fill="#FFF1D9" filter="url(#f87wu7m8qbvdu)" height="334.0188" id="Connector" rx="5" ry="5" style="stroke:#181818;stroke-width:0.5;" width="222" x="7" y="493.95"/><rect fill="#FFD080" height="32" rx="5" ry="5" style="stroke:#FFD080;stroke-width:0.5;" width="222" x="7" y="493.95"/><rect fill="#FFD080" height="5" style="stroke:#FFD080;stroke-width:0.5;" width="222" x="7" y="520.95"/><rect codeLine="5" fill="none" height="334.0188" id="Connector" rx="5" ry="5" style="stroke:#181818;stroke-width:0.5;" width="222" x="7" y="493.95"/><ellipse cx="79.25" cy="509.95" fill="#ADD1B2" rx="11" ry="11" style="stroke:#181818;stroke-width:1.0;"/><path d="M79.3594,505.4813 Q78.4375,505.4813 77.7031,505.7938 Q76.9844,506.1063 76.4844,506.7 Q75.9844,507.2781 75.7031,508.1531 Q75.4375,509.0281 75.4375,510.1219 Q75.4375,511.5594 75.875,512.6063 Q76.3281,513.6531 77.1719,514.2 Q78.0313,514.7469 79.3438,514.7469 Q80.125,514.7469 80.8125,514.6219 Q81.5156,514.4813 82.5156,514.1688 L82.5156,516.0438 Q81.6563,516.3719 80.8906,516.4969 Q80.1406,516.6219 79.125,516.6219 Q77.2031,516.6219 75.8906,515.825 Q74.5938,515.0125 73.9375,513.5438 Q73.2813,512.0594 73.2813,510.0906 Q73.2813,508.6688 73.6719,507.4969 Q74.0781,506.3094 74.8594,505.4344 Q75.6406,504.5594 76.7813,504.0906 Q77.9219,503.6063 79.3906,503.6063 Q80.3438,503.6063 81.2344,503.8094 Q82.1406,503.9969 83.0781,504.4656 L82.25,506.2469 Q81.4688,505.8719 80.8125,505.6844 Q80.1563,505.4813 79.3594,505.4813 Z " fill="#000000"/><text fill="#000000" font-family="sans-serif" font-size="14" lengthAdjust="spacing" textLength="69" x="99.75" y="515.382">Connector</text><line style="stroke:#181818;stroke-width:0.5;" x1="8" x2="228" y1="525.95" y2="525.95"/><text fill="#000000" font-family="sans-serif" font-size="14" lengthAdjust="spacing" textLength="86" x="13" y="544.9159">name: string</text><text fill="#000000" font-family="sans-serif" font-size="14" lengthAdjust="spacing" textLength="141" x="13" y="563.9839">description: rich_text</text><text fill="#000000" font-family="sans-serif" font-size="14" lengthAdjust="spacing" textLength="47" x="13" y="583.0518">ip: inet</text><text fill="#000000" font-family="sans-serif" font-size="14" lengthAdjust="spacing" textLength="116" x="13" y="602.1197">admin_url: string</text><text fill="#000000" font-family="sans-serif" font-size="14" lengthAdjust="spacing" textLength="96" x="13" y="621.1876">sds_url: string</text><text fill="#000000" font-family="sans-serif" font-size="14" lengthAdjust="spacing" textLength="167" x="13" y="640.2555">manual_update: boolean</text><line style="stroke:#181818;stroke-width:1.0;" x1="8" x2="228" y1="648.3575" y2="648.3575"/><text fill="#000000" font-family="sans-serif" font-size="14" lengthAdjust="spacing" textLength="86" x="13" y="667.3234">sds_xml: text</text><text fill="#000000" font-family="sans-serif" font-size="14" lengthAdjust="spacing" textLength="185" x="13" y="686.3914">sds_updated_at: timestamp</text><text fill="#000000" font-family="sans-serif" font-size="14" lengthAdjust="spacing" textLength="172" x="13" y="705.4593">connector_services: jsonb</text><text fill="#000000" font-family="sans-serif" font-size="14" lengthAdjust="spacing" textLength="148" x="13" y="724.5272">last_check: timestamp</text><text fill="#000000" font-family="sans-serif" font-size="14" lengthAdjust="spacing" textLength="169" x="13" y="743.5951">last_check_ok: timestamp</text><text fill="#000000" font-family="sans-serif" font-size="14" lengthAdjust="spacing" textLength="120" x="13" y="762.663">condition: integer</text><text fill="#000000" font-family="sans-serif" font-size="14" lengthAdjust="spacing" textLength="210" x="13" y="781.7309">soap_request_success: boolean</text><text fill="#000000" font-family="sans-serif" font-size="14" lengthAdjust="spacing" textLength="144" x="13" y="800.7989">vpnti_online: boolean</text><text fill="#000000" font-family="sans-serif" font-size="14" lengthAdjust="spacing" textLength="164" x="13" y="819.8668">firmware_version: string</text></g><!--class CardTerminal--><g id="elem_CardTerminal"><rect codeLine="24" fill="#FFF1D9" filter="url(#f87wu7m8qbvdu)" height="391.2225" id="CardTerminal" rx="5" ry="5" style="stroke:#181818;stroke-width:0.5;" width="176" x="264" y="465.35"/><rect fill="#FFD080" height="32" rx="5" ry="5" style="stroke:#FFD080;stroke-width:0.5;" width="176" x="264" y="465.35"/><rect fill="#FFD080" height="5" style="stroke:#FFD080;stroke-width:0.5;" width="176" x="264" y="492.35"/><rect codeLine="24" fill="none" height="391.2225" id="CardTerminal" rx="5" ry="5" style="stroke:#181818;stroke-width:0.5;" width="176" x="264" y="465.35"/><ellipse cx="302.4" cy="481.35" fill="#ADD1B2" rx="11" ry="11" style="stroke:#181818;stroke-width:1.0;"/><path d="M302.5094,476.8813 Q301.5875,476.8813 300.8531,477.1938 Q300.1344,477.5063 299.6344,478.1 Q299.1344,478.6781 298.8531,479.5531 Q298.5875,480.4281 298.5875,481.5219 Q298.5875,482.9594 299.025,484.0063 Q299.4781,485.0531 300.3219,485.6 Q301.1813,486.1469 302.4938,486.1469 Q303.275,486.1469 303.9625,486.0219 Q304.6656,485.8813 305.6656,485.5688 L305.6656,487.4438 Q304.8063,487.7719 304.0406,487.8969 Q303.2906,488.0219 302.275,488.0219 Q300.3531,488.0219 299.0406,487.225 Q297.7438,486.4125 297.0875,484.9438 Q296.4313,483.4594 296.4313,481.4906 Q296.4313,480.0688 296.8219,478.8969 Q297.2281,477.7094 298.0094,476.8344 Q298.7906,475.9594 299.9313,475.4906 Q301.0719,475.0063 302.5406,475.0063 Q303.4938,475.0063 304.3844,475.2094 Q305.2906,475.3969 306.2281,475.8656 L305.4,477.6469 Q304.6188,477.2719 303.9625,477.0844 Q303.3063,476.8813 302.5094,476.8813 Z " fill="#000000"/><text fill="#000000" font-family="sans-serif" font-size="14" lengthAdjust="spacing" textLength="92" x="321.6" y="486.782">CardTerminal</text><line style="stroke:#181818;stroke-width:0.5;" x1="265" x2="439" y1="497.35" y2="497.35"/><text fill="#000000" font-family="sans-serif" font-size="14" lengthAdjust="spacing" textLength="134" x="270" y="516.3159">displayname: string</text><text fill="#000000" font-family="sans-serif" font-size="14" lengthAdjust="spacing" textLength="141" x="270" y="535.3839">description: rich_text</text><text fill="#000000" font-family="sans-serif" font-size="14" lengthAdjust="spacing" textLength="83" x="270" y="554.4518">room: string</text><text fill="#000000" font-family="sans-serif" font-size="14" lengthAdjust="spacing" textLength="97" x="270" y="573.5197">contact: string</text><text fill="#000000" font-family="sans-serif" font-size="14" lengthAdjust="spacing" textLength="124" x="270" y="592.5876">plugged_in: string</text><text fill="#000000" font-family="sans-serif" font-size="14" lengthAdjust="spacing" textLength="127" x="270" y="611.6555">delivery_date: date</text><text fill="#000000" font-family="sans-serif" font-size="14" lengthAdjust="spacing" textLength="104" x="270" y="630.7234">supplier: string</text><text fill="#000000" font-family="sans-serif" font-size="14" lengthAdjust="spacing" textLength="72" x="270" y="649.7914">location_id</text><line style="stroke:#181818;stroke-width:1.0;" x1="265" x2="439" y1="657.8933" y2="657.8933"/><text fill="#000000" font-family="sans-serif" font-size="14" lengthAdjust="spacing" textLength="115" x="270" y="676.8593">properties: jsonb</text><text fill="#000000" font-family="sans-serif" font-size="14" lengthAdjust="spacing" textLength="86" x="270" y="695.9272">name: string</text><text fill="#000000" font-family="sans-serif" font-size="14" lengthAdjust="spacing" textLength="79" x="270" y="714.9951">ct_id: string</text><text fill="#000000" font-family="sans-serif" font-size="14" lengthAdjust="spacing" textLength="96" x="270" y="734.063">mac: macaddr</text><text fill="#000000" font-family="sans-serif" font-size="14" lengthAdjust="spacing" textLength="47" x="270" y="753.1309">ip: inet</text><text fill="#000000" font-family="sans-serif" font-size="14" lengthAdjust="spacing" textLength="88" x="270" y="772.1989">slots: integer</text><text fill="#000000" font-family="sans-serif" font-size="14" lengthAdjust="spacing" textLength="132" x="270" y="791.2668">connected: boolean</text><text fill="#000000" font-family="sans-serif" font-size="14" lengthAdjust="spacing" textLength="120" x="270" y="810.3347">condition: integer</text><text fill="#000000" font-family="sans-serif" font-size="14" lengthAdjust="spacing" textLength="164" x="270" y="829.4026">firmware_version: string</text><text fill="#000000" font-family="sans-serif" font-size="14" lengthAdjust="spacing" textLength="86" x="270" y="848.4705">connector_id</text></g><!--class Location--><g id="elem_Location"><rect codeLine="46" fill="#FFF1D9" filter="url(#f87wu7m8qbvdu)" height="86.1358" id="Location" rx="5" ry="5" style="stroke:#181818;stroke-width:0.5;" width="136" x="313" y="200.81"/><rect fill="#FFD080" height="32" rx="5" ry="5" style="stroke:#FFD080;stroke-width:0.5;" width="136" x="313" y="200.81"/><rect fill="#FFD080" height="5" style="stroke:#FFD080;stroke-width:0.5;" width="136" x="313" y="227.81"/><rect codeLine="46" fill="none" height="86.1358" id="Location" rx="5" ry="5" style="stroke:#181818;stroke-width:0.5;" width="136" x="313" y="200.81"/><ellipse cx="349.6" cy="216.81" fill="#ADD1B2" rx="11" ry="11" style="stroke:#181818;stroke-width:1.0;"/><path d="M349.7094,212.3413 Q348.7875,212.3413 348.0531,212.6538 Q347.3344,212.9663 346.8344,213.56 Q346.3344,214.1381 346.0531,215.0131 Q345.7875,215.8881 345.7875,216.9819 Q345.7875,218.4194 346.225,219.4663 Q346.6781,220.5131 347.5219,221.06 Q348.3813,221.6069 349.6938,221.6069 Q350.475,221.6069 351.1625,221.4819 Q351.8656,221.3413 352.8656,221.0288 L352.8656,222.9038 Q352.0063,223.2319 351.2406,223.3569 Q350.4906,223.4819 349.475,223.4819 Q347.5531,223.4819 346.2406,222.685 Q344.9438,221.8725 344.2875,220.4038 Q343.6313,218.9194 343.6313,216.9506 Q343.6313,215.5288 344.0219,214.3569 Q344.4281,213.1694 345.2094,212.2944 Q345.9906,211.4194 347.1313,210.9506 Q348.2719,210.4663 349.7406,210.4663 Q350.6938,210.4663 351.5844,210.6694 Q352.4906,210.8569 353.4281,211.3256 L352.6,213.1069 Q351.8188,212.7319 351.1625,212.5444 Q350.5063,212.3413 349.7094,212.3413 Z " fill="#000000"/><text fill="#000000" font-family="sans-serif" font-size="14" lengthAdjust="spacing" textLength="56" x="368.4" y="222.242">Location</text><line style="stroke:#181818;stroke-width:0.5;" x1="314" x2="448" y1="232.81" y2="232.81"/><text fill="#000000" font-family="sans-serif" font-size="14" lengthAdjust="spacing" textLength="65" x="319" y="251.7759">lid: string</text><text fill="#000000" font-family="sans-serif" font-size="14" lengthAdjust="spacing" textLength="124" x="319" y="270.8439">description: string</text><line style="stroke:#181818;stroke-width:0.5;" x1="314" x2="448" y1="278.9458" y2="278.9458"/></g><!--class Context--><g id="elem_Context"><rect codeLine="51" fill="#FFF1D9" filter="url(#f87wu7m8qbvdu)" height="124.2717" id="Context" rx="5" ry="5" style="stroke:#181818;stroke-width:0.5;" width="150" x="220" y="7"/><rect fill="#FFD080" height="32" rx="5" ry="5" style="stroke:#FFD080;stroke-width:0.5;" width="150" x="220" y="7"/><rect fill="#FFD080" height="5" style="stroke:#FFD080;stroke-width:0.5;" width="150" x="220" y="34"/><rect codeLine="51" fill="none" height="124.2717" id="Context" rx="5" ry="5" style="stroke:#181818;stroke-width:0.5;" width="150" x="220" y="7"/><ellipse cx="265.25" cy="23" fill="#ADD1B2" rx="11" ry="11" style="stroke:#181818;stroke-width:1.0;"/><path d="M265.3594,18.5313 Q264.4375,18.5313 263.7031,18.8438 Q262.9844,19.1563 262.4844,19.75 Q261.9844,20.3281 261.7031,21.2031 Q261.4375,22.0781 261.4375,23.1719 Q261.4375,24.6094 261.875,25.6563 Q262.3281,26.7031 263.1719,27.25 Q264.0313,27.7969 265.3438,27.7969 Q266.125,27.7969 266.8125,27.6719 Q267.5156,27.5313 268.5156,27.2188 L268.5156,29.0938 Q267.6563,29.4219 266.8906,29.5469 Q266.1406,29.6719 265.125,29.6719 Q263.2031,29.6719 261.8906,28.875 Q260.5938,28.0625 259.9375,26.5938 Q259.2813,25.1094 259.2813,23.1406 Q259.2813,21.7188 259.6719,20.5469 Q260.0781,19.3594 260.8594,18.4844 Q261.6406,17.6094 262.7813,17.1406 Q263.9219,16.6563 265.3906,16.6563 Q266.3438,16.6563 267.2344,16.8594 Q268.1406,17.0469 269.0781,17.5156 L268.25,19.2969 Q267.4688,18.9219 266.8125,18.7344 Q266.1563,18.5313 265.3594,18.5313 Z " fill="#000000"/><text fill="#000000" font-family="sans-serif" font-size="14" lengthAdjust="spacing" textLength="51" x="285.75" y="28.432">Context</text><line style="stroke:#181818;stroke-width:0.5;" x1="221" x2="369" y1="39" y2="39"/><text fill="#000000" font-family="sans-serif" font-size="14" lengthAdjust="spacing" textLength="109" x="226" y="57.9659">mandant: string</text><text fill="#000000" font-family="sans-serif" font-size="14" lengthAdjust="spacing" textLength="138" x="226" y="77.0339">client_system: string</text><text fill="#000000" font-family="sans-serif" font-size="14" lengthAdjust="spacing" textLength="116" x="226" y="96.1018">workplace: string</text><text fill="#000000" font-family="sans-serif" font-size="14" lengthAdjust="spacing" textLength="124" x="226" y="115.1697">description: string</text><line style="stroke:#181818;stroke-width:0.5;" x1="221" x2="369" y1="123.2717" y2="123.2717"/></g><!--class ConnectorContext--><g id="elem_ConnectorContext"><rect codeLine="58" fill="#FFF1D9" filter="url(#f87wu7m8qbvdu)" height="105.2038" id="ConnectorContext" rx="5" ry="5" style="stroke:#181818;stroke-width:0.5;" width="152" x="126" y="191.27"/><rect fill="#FFD080" height="32" rx="5" ry="5" style="stroke:#FFD080;stroke-width:0.5;" width="152" x="126" y="191.27"/><rect fill="#FFD080" height="5" style="stroke:#FFD080;stroke-width:0.5;" width="152" x="126" y="218.27"/><rect codeLine="58" fill="none" height="105.2038" id="ConnectorContext" rx="5" ry="5" style="stroke:#181818;stroke-width:0.5;" width="152" x="126" y="191.27"/><ellipse cx="141" cy="207.27" fill="#ADD1B2" rx="11" ry="11" style="stroke:#181818;stroke-width:1.0;"/><path d="M141.1094,202.8012 Q140.1875,202.8012 139.4531,203.1137 Q138.7344,203.4262 138.2344,204.02 Q137.7344,204.5981 137.4531,205.4731 Q137.1875,206.3481 137.1875,207.4419 Q137.1875,208.8794 137.625,209.9262 Q138.0781,210.9731 138.9219,211.52 Q139.7813,212.0669 141.0938,212.0669 Q141.875,212.0669 142.5625,211.9419 Q143.2656,211.8012 144.2656,211.4887 L144.2656,213.3637 Q143.4063,213.6919 142.6406,213.8169 Q141.8906,213.9419 140.875,213.9419 Q138.9531,213.9419 137.6406,213.145 Q136.3438,212.3325 135.6875,210.8637 Q135.0313,209.3794 135.0313,207.4106 Q135.0313,205.9887 135.4219,204.8169 Q135.8281,203.6294 136.6094,202.7544 Q137.3906,201.8794 138.5313,201.4106 Q139.6719,200.9262 141.1406,200.9262 Q142.0938,200.9262 142.9844,201.1294 Q143.8906,201.3169 144.8281,201.7856 L144,203.5669 Q143.2188,203.1919 142.5625,203.0044 Q141.9063,202.8012 141.1094,202.8012 Z " fill="#000000"/><text fill="#000000" font-family="sans-serif" font-size="14" lengthAdjust="spacing" textLength="120" x="155" y="212.702">ConnectorContext</text><line style="stroke:#181818;stroke-width:0.5;" x1="127" x2="277" y1="223.27" y2="223.27"/><text fill="#000000" font-family="sans-serif" font-size="14" lengthAdjust="spacing" textLength="86" x="132" y="242.2359">connector_id</text><text fill="#000000" font-family="sans-serif" font-size="14" lengthAdjust="spacing" textLength="68" x="132" y="261.3039">context_id</text><text fill="#000000" font-family="sans-serif" font-size="14" lengthAdjust="spacing" textLength="111" x="132" y="280.3718">position: integer</text><line style="stroke:#181818;stroke-width:0.5;" x1="127" x2="277" y1="288.4738" y2="288.4738"/></g><!--class Card--><g id="elem_Card"><rect codeLine="64" fill="#FFF1D9" filter="url(#f87wu7m8qbvdu)" height="608.9696" id="Card" rx="5" ry="5" style="stroke:#181818;stroke-width:0.5;" width="222" x="475" y="356.47"/><rect fill="#FFD080" height="32" rx="5" ry="5" style="stroke:#FFD080;stroke-width:0.5;" width="222" x="475" y="356.47"/><rect fill="#FFD080" height="5" style="stroke:#FFD080;stroke-width:0.5;" width="222" x="475" y="383.47"/><rect codeLine="64" fill="none" height="608.9696" id="Card" rx="5" ry="5" style="stroke:#181818;stroke-width:0.5;" width="222" x="475" y="356.47"/><ellipse cx="565.75" cy="372.47" fill="#ADD1B2" rx="11" ry="11" style="stroke:#181818;stroke-width:1.0;"/><path d="M565.8594,368.0013 Q564.9375,368.0013 564.2031,368.3138 Q563.4844,368.6263 562.9844,369.22 Q562.4844,369.7981 562.2031,370.6731 Q561.9375,371.5481 561.9375,372.6419 Q561.9375,374.0794 562.375,375.1263 Q562.8281,376.1731 563.6719,376.72 Q564.5313,377.2669 565.8438,377.2669 Q566.625,377.2669 567.3125,377.1419 Q568.0156,377.0013 569.0156,376.6888 L569.0156,378.5638 Q568.1563,378.8919 567.3906,379.0169 Q566.6406,379.1419 565.625,379.1419 Q563.7031,379.1419 562.3906,378.345 Q561.0938,377.5325 560.4375,376.0638 Q559.7813,374.5794 559.7813,372.6106 Q559.7813,371.1888 560.1719,370.0169 Q560.5781,368.8294 561.3594,367.9544 Q562.1406,367.0794 563.2813,366.6106 Q564.4219,366.1263 565.8906,366.1263 Q566.8438,366.1263 567.7344,366.3294 Q568.6406,366.5169 569.5781,366.9856 L568.75,368.7669 Q567.9688,368.3919 567.3125,368.2044 Q566.6563,368.0013 565.8594,368.0013 Z " fill="#000000"/><text fill="#000000" font-family="sans-serif" font-size="14" lengthAdjust="spacing" textLength="32" x="586.25" y="377.902">Card</text><line style="stroke:#181818;stroke-width:0.5;" x1="476" x2="696" y1="388.47" y2="388.47"/><text fill="#000000" font-family="sans-serif" font-size="14" lengthAdjust="spacing" textLength="86" x="481" y="407.4359">name: string</text><text fill="#000000" font-family="sans-serif" font-size="14" lengthAdjust="spacing" textLength="141" x="481" y="426.5039">description: rich_text</text><text fill="#000000" font-family="sans-serif" font-size="14" lengthAdjust="spacing" textLength="135" x="481" y="445.5718">operational_state_id</text><text fill="#000000" font-family="sans-serif" font-size="14" lengthAdjust="spacing" textLength="72" x="481" y="464.6397">location_id</text><text fill="#000000" font-family="sans-serif" font-size="14" lengthAdjust="spacing" textLength="75" x="481" y="483.7076">lanr: string</text><text fill="#000000" font-family="sans-serif" font-size="14" lengthAdjust="spacing" textLength="135" x="481" y="502.7755">fachrichtung: string</text><text fill="#000000" font-family="sans-serif" font-size="14" lengthAdjust="spacing" textLength="79" x="481" y="521.8434">bsnr: string</text><text fill="#000000" font-family="sans-serif" font-size="14" lengthAdjust="spacing" textLength="123" x="481" y="540.9114">telematikid: string</text><text fill="#000000" font-family="sans-serif" font-size="14" lengthAdjust="spacing" textLength="68" x="481" y="559.9793">context_id</text><line style="stroke:#181818;stroke-width:1.0;" x1="476" x2="696" y1="568.0813" y2="568.0813"/><text fill="#000000" font-family="sans-serif" font-size="14" lengthAdjust="spacing" textLength="115" x="481" y="587.0472">properties: jsonb</text><text fill="#000000" font-family="sans-serif" font-size="14" lengthAdjust="spacing" textLength="131" x="481" y="606.1151">card_handle: string</text><text fill="#000000" font-family="sans-serif" font-size="14" lengthAdjust="spacing" textLength="113" x="481" y="625.183">card_type: string</text><text fill="#000000" font-family="sans-serif" font-size="14" lengthAdjust="spacing" textLength="82" x="481" y="644.2509">iccsn: string</text><text fill="#000000" font-family="sans-serif" font-size="14" lengthAdjust="spacing" textLength="94" x="481" y="663.3189">slotid: integer</text><text fill="#000000" font-family="sans-serif" font-size="14" lengthAdjust="spacing" textLength="155" x="481" y="682.3868">insert_time: timestamp</text><text fill="#000000" font-family="sans-serif" font-size="14" lengthAdjust="spacing" textLength="172" x="481" y="701.4547">card_holder_name: string</text><text fill="#000000" font-family="sans-serif" font-size="14" lengthAdjust="spacing" textLength="142" x="481" y="720.5226">expiration_date: date</text><text fill="#000000" font-family="sans-serif" font-size="14" lengthAdjust="spacing" textLength="120" x="481" y="739.5905">condition: integer</text><text fill="#000000" font-family="sans-serif" font-size="14" lengthAdjust="spacing" textLength="117" x="481" y="758.6584">pin_status: string</text><text fill="#000000" font-family="sans-serif" font-size="14" lengthAdjust="spacing" textLength="112" x="481" y="777.7264">card_terminal_id</text><line style="stroke:#181818;stroke-width:1.0;" x1="476" x2="696" y1="785.8283" y2="785.8283"/><text fill="#000000" font-family="sans-serif" font-size="14" lengthAdjust="spacing" textLength="96" x="481" y="804.7943">certificate:text</text><text fill="#000000" font-family="sans-serif" font-size="14" lengthAdjust="spacing" textLength="151" x="481" y="823.8622">cert_subject_cn: string</text><text fill="#000000" font-family="sans-serif" font-size="14" lengthAdjust="spacing" textLength="161" x="481" y="842.9301">cert_subject_title: string</text><text fill="#000000" font-family="sans-serif" font-size="14" lengthAdjust="spacing" textLength="151" x="481" y="861.998">cert_subject_sn: string</text><text fill="#000000" font-family="sans-serif" font-size="14" lengthAdjust="spacing" textLength="210" x="481" y="881.0659">cert_subject_givenname: string</text><text fill="#000000" font-family="sans-serif" font-size="14" lengthAdjust="spacing" textLength="174" x="481" y="900.1339">cert_subject_street: string</text><text fill="#000000" font-family="sans-serif" font-size="14" lengthAdjust="spacing" textLength="208" x="481" y="919.2018">cert_subject_postalcode: string</text><text fill="#000000" font-family="sans-serif" font-size="14" lengthAdjust="spacing" textLength="139" x="481" y="938.2697">cert_subject_l: string</text><text fill="#000000" font-family="sans-serif" font-size="14" lengthAdjust="spacing" textLength="143" x="481" y="957.3376">cert_subject_o: string</text></g><!--class Workplace--><g id="elem_Workplace"><rect codeLine="98" fill="#FFF1D9" filter="url(#f87wu7m8qbvdu)" height="86.1358" id="Workplace" rx="5" ry="5" style="stroke:#181818;stroke-width:0.5;" width="136" x="343" y="1228.78"/><rect fill="#FFD080" height="32" rx="5" ry="5" style="stroke:#FFD080;stroke-width:0.5;" width="136" x="343" y="1228.78"/><rect fill="#FFD080" height="5" style="stroke:#FFD080;stroke-width:0.5;" width="136" x="343" y="1255.78"/><rect codeLine="98" fill="none" height="86.1358" id="Workplace" rx="5" ry="5" style="stroke:#181818;stroke-width:0.5;" width="136" x="343" y="1228.78"/><ellipse cx="373.3" cy="1244.78" fill="#ADD1B2" rx="11" ry="11" style="stroke:#181818;stroke-width:1.0;"/><path d="M373.4094,1240.3113 Q372.4875,1240.3113 371.7531,1240.6238 Q371.0344,1240.9363 370.5344,1241.53 Q370.0344,1242.1081 369.7531,1242.9831 Q369.4875,1243.8581 369.4875,1244.9519 Q369.4875,1246.3894 369.925,1247.4363 Q370.3781,1248.4831 371.2219,1249.03 Q372.0813,1249.5769 373.3938,1249.5769 Q374.175,1249.5769 374.8625,1249.4519 Q375.5656,1249.3113 376.5656,1248.9988 L376.5656,1250.8738 Q375.7063,1251.2019 374.9406,1251.3269 Q374.1906,1251.4519 373.175,1251.4519 Q371.2531,1251.4519 369.9406,1250.655 Q368.6438,1249.8425 367.9875,1248.3738 Q367.3313,1246.8894 367.3313,1244.9206 Q367.3313,1243.4988 367.7219,1242.3269 Q368.1281,1241.1394 368.9094,1240.2644 Q369.6906,1239.3894 370.8313,1238.9206 Q371.9719,1238.4363 373.4406,1238.4363 Q374.3938,1238.4363 375.2844,1238.6394 Q376.1906,1238.8269 377.1281,1239.2956 L376.3,1241.0769 Q375.5188,1240.7019 374.8625,1240.5144 Q374.2063,1240.3113 373.4094,1240.3113 Z " fill="#000000"/><text fill="#000000" font-family="sans-serif" font-size="14" lengthAdjust="spacing" textLength="70" x="390.7" y="1250.212">Workplace</text><line style="stroke:#181818;stroke-width:0.5;" x1="344" x2="478" y1="1260.78" y2="1260.78"/><text fill="#000000" font-family="sans-serif" font-size="14" lengthAdjust="spacing" textLength="124" x="349" y="1279.7459">description: string</text><line style="stroke:#181818;stroke-width:1.0;" x1="344" x2="478" y1="1287.8479" y2="1287.8479"/><text fill="#000000" font-family="sans-serif" font-size="14" lengthAdjust="spacing" textLength="86" x="349" y="1306.8139">name: string</text></g><!--class TerminalWorkplaces--><g id="elem_TerminalWorkplaces"><rect codeLine="103" fill="#FFF1D9" filter="url(#f87wu7m8qbvdu)" height="105.2038" id="TerminalWorkplaces" rx="5" ry="5" style="stroke:#181818;stroke-width:0.5;" width="169" x="448.5" y="1044.51"/><rect fill="#FFD080" height="32" rx="5" ry="5" style="stroke:#FFD080;stroke-width:0.5;" width="169" x="448.5" y="1044.51"/><rect fill="#FFD080" height="5" style="stroke:#FFD080;stroke-width:0.5;" width="169" x="448.5" y="1071.51"/><rect codeLine="103" fill="none" height="105.2038" id="TerminalWorkplaces" rx="5" ry="5" style="stroke:#181818;stroke-width:0.5;" width="169" x="448.5" y="1044.51"/><ellipse cx="463.5" cy="1060.51" fill="#ADD1B2" rx="11" ry="11" style="stroke:#181818;stroke-width:1.0;"/><path d="M463.6094,1056.0413 Q462.6875,1056.0413 461.9531,1056.3538 Q461.2344,1056.6663 460.7344,1057.26 Q460.2344,1057.8381 459.9531,1058.7131 Q459.6875,1059.5881 459.6875,1060.6819 Q459.6875,1062.1194 460.125,1063.1663 Q460.5781,1064.2131 461.4219,1064.76 Q462.2813,1065.3069 463.5938,1065.3069 Q464.375,1065.3069 465.0625,1065.1819 Q465.7656,1065.0413 466.7656,1064.7288 L466.7656,1066.6038 Q465.9063,1066.9319 465.1406,1067.0569 Q464.3906,1067.1819 463.375,1067.1819 Q461.4531,1067.1819 460.1406,1066.385 Q458.8438,1065.5725 458.1875,1064.1038 Q457.5313,1062.6194 457.5313,1060.6506 Q457.5313,1059.2288 457.9219,1058.0569 Q458.3281,1056.8694 459.1094,1055.9944 Q459.8906,1055.1194 461.0313,1054.6506 Q462.1719,1054.1663 463.6406,1054.1663 Q464.5938,1054.1663 465.4844,1054.3694 Q466.3906,1054.5569 467.3281,1055.0256 L466.5,1056.8069 Q465.7188,1056.4319 465.0625,1056.2444 Q464.4063,1056.0413 463.6094,1056.0413 Z " fill="#000000"/><text fill="#000000" font-family="sans-serif" font-size="14" lengthAdjust="spacing" textLength="137" x="477.5" y="1065.942">TerminalWorkplaces</text><line style="stroke:#181818;stroke-width:0.5;" x1="449.5" x2="616.5" y1="1076.51" y2="1076.51"/><text fill="#000000" font-family="sans-serif" font-size="14" lengthAdjust="spacing" textLength="112" x="454.5" y="1095.4759">card_terminal_id</text><text fill="#000000" font-family="sans-serif" font-size="14" lengthAdjust="spacing" textLength="87" x="454.5" y="1114.5439">workplace_id</text><text fill="#000000" font-family="sans-serif" font-size="14" lengthAdjust="spacing" textLength="76" x="454.5" y="1133.6118">updated_at</text><line style="stroke:#181818;stroke-width:0.5;" x1="449.5" x2="616.5" y1="1141.7138" y2="1141.7138"/></g><!--class OperationalState--><g id="elem_OperationalState"><rect codeLine="108" fill="#FFF1D9" filter="url(#f87wu7m8qbvdu)" height="105.2038" id="OperationalState" rx="5" ry="5" style="stroke:#181818;stroke-width:0.5;" width="151" x="554.5" y="191.27"/><rect fill="#FFD080" height="32" rx="5" ry="5" style="stroke:#FFD080;stroke-width:0.5;" width="151" x="554.5" y="191.27"/><rect fill="#FFD080" height="5" style="stroke:#FFD080;stroke-width:0.5;" width="151" x="554.5" y="218.27"/><rect codeLine="108" fill="none" height="105.2038" id="OperationalState" rx="5" ry="5" style="stroke:#181818;stroke-width:0.5;" width="151" x="554.5" y="191.27"/><ellipse cx="571.75" cy="207.27" fill="#ADD1B2" rx="11" ry="11" style="stroke:#181818;stroke-width:1.0;"/><path d="M571.8594,202.8012 Q570.9375,202.8012 570.2031,203.1137 Q569.4844,203.4262 568.9844,204.02 Q568.4844,204.5981 568.2031,205.4731 Q567.9375,206.3481 567.9375,207.4419 Q567.9375,208.8794 568.375,209.9262 Q568.8281,210.9731 569.6719,211.52 Q570.5313,212.0669 571.8438,212.0669 Q572.625,212.0669 573.3125,211.9419 Q574.0156,211.8012 575.0156,211.4887 L575.0156,213.3637 Q574.1563,213.6919 573.3906,213.8169 Q572.6406,213.9419 571.625,213.9419 Q569.7031,213.9419 568.3906,213.145 Q567.0938,212.3325 566.4375,210.8637 Q565.7813,209.3794 565.7813,207.4106 Q565.7813,205.9887 566.1719,204.8169 Q566.5781,203.6294 567.3594,202.7544 Q568.1406,201.8794 569.2813,201.4106 Q570.4219,200.9262 571.8906,200.9262 Q572.8438,200.9262 573.7344,201.1294 Q574.6406,201.3169 575.5781,201.7856 L574.75,203.5669 Q573.9688,203.1919 573.3125,203.0044 Q572.6563,202.8012 571.8594,202.8012 Z " fill="#000000"/><text fill="#000000" font-family="sans-serif" font-size="14" lengthAdjust="spacing" textLength="114" x="586.25" y="212.702">OperationalState</text><line style="stroke:#181818;stroke-width:0.5;" x1="555.5" x2="704.5" y1="223.27" y2="223.27"/><text fill="#000000" font-family="sans-serif" font-size="14" lengthAdjust="spacing" textLength="86" x="560.5" y="242.2359">name: string</text><text fill="#000000" font-family="sans-serif" font-size="14" lengthAdjust="spacing" textLength="124" x="560.5" y="261.3039">description: string</text><text fill="#000000" font-family="sans-serif" font-size="14" lengthAdjust="spacing" textLength="139" x="560.5" y="280.3718">operational: boolean</text><line style="stroke:#181818;stroke-width:0.5;" x1="555.5" x2="704.5" y1="288.4738" y2="288.4738"/></g><!--class Log--><g id="elem_Log"><rect codeLine="114" fill="#FFF1D9" filter="url(#f87wu7m8qbvdu)" height="143.3396" id="Log" rx="5" ry="5" style="stroke:#181818;stroke-width:0.5;" width="163" x="210.5" y="1025.44"/><rect fill="#FFD080" height="32" rx="5" ry="5" style="stroke:#FFD080;stroke-width:0.5;" width="163" x="210.5" y="1025.44"/><rect fill="#FFD080" height="5" style="stroke:#FFD080;stroke-width:0.5;" width="163" x="210.5" y="1052.44"/><rect codeLine="114" fill="none" height="143.3396" id="Log" rx="5" ry="5" style="stroke:#181818;stroke-width:0.5;" width="163" x="210.5" y="1025.44"/><ellipse cx="275.75" cy="1041.44" fill="#ADD1B2" rx="11" ry="11" style="stroke:#181818;stroke-width:1.0;"/><path d="M275.8594,1036.9713 Q274.9375,1036.9713 274.2031,1037.2838 Q273.4844,1037.5963 272.9844,1038.19 Q272.4844,1038.7681 272.2031,1039.6431 Q271.9375,1040.5181 271.9375,1041.6119 Q271.9375,1043.0494 272.375,1044.0963 Q272.8281,1045.1431 273.6719,1045.69 Q274.5313,1046.2369 275.8438,1046.2369 Q276.625,1046.2369 277.3125,1046.1119 Q278.0156,1045.9713 279.0156,1045.6588 L279.0156,1047.5338 Q278.1563,1047.8619 277.3906,1047.9869 Q276.6406,1048.1119 275.625,1048.1119 Q273.7031,1048.1119 272.3906,1047.315 Q271.0938,1046.5025 270.4375,1045.0338 Q269.7813,1043.5494 269.7813,1041.5806 Q269.7813,1040.1588 270.1719,1038.9869 Q270.5781,1037.7994 271.3594,1036.9244 Q272.1406,1036.0494 273.2813,1035.5806 Q274.4219,1035.0963 275.8906,1035.0963 Q276.8438,1035.0963 277.7344,1035.2994 Q278.6406,1035.4869 279.5781,1035.9556 L278.75,1037.7369 Q277.9688,1037.3619 277.3125,1037.1744 Q276.6563,1036.9713 275.8594,1036.9713 Z " fill="#000000"/><text fill="#000000" font-family="sans-serif" font-size="14" lengthAdjust="spacing" textLength="24" x="296.25" y="1046.872">Log</text><line style="stroke:#181818;stroke-width:0.5;" x1="211.5" x2="372.5" y1="1057.44" y2="1057.44"/><text fill="#000000" font-family="sans-serif" font-size="14" lengthAdjust="spacing" textLength="151" x="216.5" y="1076.4059">loggable: polymorphic</text><text fill="#000000" font-family="sans-serif" font-size="14" lengthAdjust="spacing" textLength="89" x="216.5" y="1095.4739">action: string</text><text fill="#000000" font-family="sans-serif" font-size="14" lengthAdjust="spacing" textLength="142" x="216.5" y="1114.5418">last_seen: timestamp</text><text fill="#000000" font-family="sans-serif" font-size="14" lengthAdjust="spacing" textLength="79" x="216.5" y="1133.6097">level: string</text><text fill="#000000" font-family="sans-serif" font-size="14" lengthAdjust="spacing" textLength="93" x="216.5" y="1152.6776">message: text</text><line style="stroke:#181818;stroke-width:0.5;" x1="211.5" x2="372.5" y1="1160.7796" y2="1160.7796"/></g><ellipse cx="89" cy="243.87" fill="#181818" rx="2" ry="2" style="stroke:#181818;stroke-width:1.0;"/><ellipse cx="411" cy="1097.11" fill="#181818" rx="2" ry="2" style="stroke:#181818;stroke-width:1.0;"/><!--link Location to Connector--><g id="link_Location_Connector"><path codeLine="122" d="M317.98,287.33 C293.4,306.27 266.5,330.23 247,356.47 C216.52,397.49 191.61,446.79 172.1,493.62 " fill="none" id="Location-Connector" style="stroke:#181818;stroke-width:1.0;"/><text fill="#000000" font-family="sans-serif" font-size="13" lengthAdjust="spacing" textLength="7" x="301.2099" y="308.9093">*</text><text fill="#000000" font-family="sans-serif" font-size="13" lengthAdjust="spacing" textLength="7" x="167.5509" y="482.0169">*</text></g><!--link Connector to CardTerminal--><g id="link_Connector_CardTerminal"><path codeLine="124" d="M229.06,660.96 C240.58,660.96 252.11,660.96 263.64,660.96 " fill="none" id="Connector-CardTerminal" style="stroke:#181818;stroke-width:1.0;"/><text fill="#000000" font-family="sans-serif" font-size="13" lengthAdjust="spacing" textLength="20" x="235.9937" y="657.2674">0..1</text><text fill="#000000" font-family="sans-serif" font-size="13" lengthAdjust="spacing" textLength="7" x="249.0328" y="657.1822">*</text></g><!--link Location to CardTerminal--><g id="link_Location_CardTerminal"><path codeLine="125" d="M378.03,287.34 C375.07,329.81 370.29,398.21 365.63,464.89 " fill="none" id="Location-CardTerminal" style="stroke:#181818;stroke-width:1.0;"/><text fill="#000000" font-family="sans-serif" font-size="13" lengthAdjust="spacing" textLength="20" x="356.125" y="308.9208">0..1</text><text fill="#000000" font-family="sans-serif" font-size="13" lengthAdjust="spacing" textLength="7" x="359.0257" y="453.8097">*</text></g><!--link Context to apoint16--><g id="link_Context_apoint16"><path d="M219.81,104.95 C182.25,125.54 138.62,154.76 109,191.27 C95.44,207.98 90.3,234.96 89.22,241.44 " fill="none" id="Context-apoint16" style="stroke:#181818;stroke-width:1.0;"/><text fill="#000000" font-family="sans-serif" font-size="13" lengthAdjust="spacing" textLength="7" x="205.064" y="104.5705">*</text></g><!--link apoint16 to Connector--><g id="link_apoint16_Connector"><path d="M89.08,246.06 C90.02,259.52 98.76,384.55 106.38,493.71 " fill="none" id="apoint16-Connector" style="stroke:#181818;stroke-width:1.0;"/><text fill="#000000" font-family="sans-serif" font-size="13" lengthAdjust="spacing" textLength="7" x="98.6476" y="482.1113">*</text></g><!--link apoint16 to ConnectorContext--><g id="link_apoint16_ConnectorContext"><path d="M91.21,243.87 C102.75,243.87 114.29,243.87 125.83,243.87 " fill="none" id="apoint16-ConnectorContext" style="stroke:#181818;stroke-width:1.0;stroke-dasharray:7.0,7.0;"/></g><!--link CardTerminal to Card--><g id="link_CardTerminal_Card"><path codeLine="127" d="M440.21,660.96 C451.69,660.96 463.18,660.96 474.66,660.96 " fill="none" id="CardTerminal-Card" style="stroke:#181818;stroke-width:1.0;"/><text fill="#000000" font-family="sans-serif" font-size="13" lengthAdjust="spacing" textLength="20" x="447.0364" y="657.139">0..1</text><text fill="#000000" font-family="sans-serif" font-size="13" lengthAdjust="spacing" textLength="7" x="459.9442" y="657.31">*</text></g><!--link CardTerminal to apoint23--><g id="link_CardTerminal_apoint23"><path d="M378.48,856.81 C393.18,965.02 408.9,1080.66 410.81,1094.69 " fill="none" id="CardTerminal-apoint23" style="stroke:#181818;stroke-width:1.0;"/><text fill="#000000" font-family="sans-serif" font-size="13" lengthAdjust="spacing" textLength="7" x="372.3777" y="878.7032">*</text></g><!--link apoint23 to Workplace--><g id="link_apoint23_Workplace"><path d="M411,1099.61 C411,1110.72 411,1181.39 411,1228.41 " fill="none" id="apoint23-Workplace" style="stroke:#181818;stroke-width:1.0;"/><text fill="#000000" font-family="sans-serif" font-size="13" lengthAdjust="spacing" textLength="7" x="403.4422" y="1217.0857">*</text></g><!--link apoint23 to TerminalWorkplaces--><g id="link_apoint23_TerminalWorkplaces"><path d="M413.38,1097.11 C425.06,1097.11 436.75,1097.11 448.43,1097.11 " fill="none" id="apoint23-TerminalWorkplaces" style="stroke:#181818;stroke-width:1.0;stroke-dasharray:7.0,7.0;"/></g><!--link Location to Card--><g id="link_Location_Card"><path codeLine="130" d="M412.82,287.35 C427.28,307.68 444.02,332.71 457,356.47 C462.97,367.4 468.85,378.67 474.63,390.13 " fill="none" id="Location-Card" style="stroke:#181818;stroke-width:1.0;"/><text fill="#000000" font-family="sans-serif" font-size="13" lengthAdjust="spacing" textLength="20" x="396.0248" y="308.9323">0..1</text><text fill="#000000" font-family="sans-serif" font-size="13" lengthAdjust="spacing" textLength="7" x="459.9122" y="368.2836">*</text></g><!--link OperationalState to Card--><g id="link_OperationalState_Card"><path codeLine="131" d="M624.52,296.6 C622.71,313.66 620.55,334.04 618.19,356.3 " fill="none" id="OperationalState-Card" style="stroke:#181818;stroke-width:1.0;"/><text fill="#000000" font-family="sans-serif" font-size="13" lengthAdjust="spacing" textLength="7" x="616.3694" y="318.3871">1</text><text fill="#000000" font-family="sans-serif" font-size="13" lengthAdjust="spacing" textLength="7" x="611.9521" y="344.8882">*</text></g><!--link Context to Card--><g id="link_Context_Card"><path codeLine="132" d="M370.19,107.1 C404.43,127.5 442.66,155.92 467,191.27 C500.74,240.28 524.92,298.08 542.24,356.04 " fill="none" id="Context-Card" style="stroke:#181818;stroke-width:1.0;"/><text fill="#000000" font-family="sans-serif" font-size="13" lengthAdjust="spacing" textLength="7" x="377.936" y="106.9321">1</text><text fill="#000000" font-family="sans-serif" font-size="13" lengthAdjust="spacing" textLength="7" x="533.9847" y="344.6213">*</text></g><!--link Connector to Log--><g id="link_Connector_Log"><path codeLine="134" d="M184.65,828.26 C211.98,896.45 242.15,971.72 263.52,1025.06 " fill="none" id="Connector-Log" style="stroke:#181818;stroke-width:1.0;"/><text fill="#000000" font-family="sans-serif" font-size="13" lengthAdjust="spacing" textLength="7" x="180.5115" y="850.139">1</text><text fill="#000000" font-family="sans-serif" font-size="13" lengthAdjust="spacing" textLength="7" x="253.2221" y="1013.6867">*</text></g><!--link CardTerminal to Log--><g id="link_CardTerminal_Log"><path codeLine="135" d="M325.07,856.81 C316.78,916.78 308.18,979.02 301.83,1025 " fill="none" id="CardTerminal-Log" style="stroke:#181818;stroke-width:1.0;"/><text fill="#000000" font-family="sans-serif" font-size="13" lengthAdjust="spacing" textLength="7" x="316.8813" y="878.7032">1</text><text fill="#000000" font-family="sans-serif" font-size="13" lengthAdjust="spacing" textLength="7" x="295.4828" y="1013.6205">*</text></g><!--link Card to Log--><g id="link_Card_Log"><path codeLine="136" d="M474.54,940.64 C468.92,949.18 463.07,957.48 457,965.44 C444.04,982.44 408.46,1011.2 373.64,1037.41 " fill="none" id="Card-Log" style="stroke:#181818;stroke-width:1.0;"/><text fill="#000000" font-family="sans-serif" font-size="13" lengthAdjust="spacing" textLength="7" x="460.1754" y="954.9324">1</text><text fill="#000000" font-family="sans-serif" font-size="13" lengthAdjust="spacing" textLength="7" x="381.4888" y="1028.0524">*</text></g><!--SRC=[bLLDRzim3BtxLsWvRKCRRDTSUnsmmmRiA2WIuwYH9KsYqmH3__iesx4bEzxQIrgJ53yU7qbqdg5ZUuVe6gPq08dQsQhwW4TeW4adHL3i44YxhIffH8pioLbBTYumzgTYp8e6TYnYqBQcJmLH1ksJcnqBMXuvmWL9eVsEQGlfNw4QRNaRJFOkgZYJDCAsml3MAu4KOU-S0M59yVWus5yQiX_ST-yxKyK5abWt454qddJobZ6F4CvQGjonv-ZiddHK4d9v17agtqnoxauBTqht1MgBK4D8yPtmFC3lbinuR2K5YNdIPszHSsSDOP3B3peqBo80FqE8dSy1WDSHRsh1JmW4cJ0Tuaf7RyJrhS07vvhCZh978J6JUDFMDS6cRU7EQ4hfodlqqs-gilNUQ0YPeI6EfA1SgrjlV70U0keSvrcs4ic-QBRSfH-XL2Z94et3c2CzT1DK3kFTdgnYcrE2qXwX_ZRKqi5iYWGBU1Sj8am9xEuPqLO9c-Ch2J5BfBX6XBmJBowSg94ItX6cJpgFLrJIjvTK_OTtSGPAmQftpMzgQGSEpIHD0a8Veco_4JRdna78O_A1hQqpyJuMLWW66d9oAW0l2bcbLTfF_4YGcu9TIOfNdykqb35dGE9L2ZZHHLjQ3yZJgCy6lWlYZ8B0Pt31nUiUbd9GxlBHqzPBqBLnaUimtrcrCfLwq39v7LgGHBHRzi_KRouBEkSQr5YYaIlZwhEQvjtEnxHuYW40rxJ4DHH6EhNwtgmft9BglswpqM-yErCnm5Ga_5ezTQzlwtBq4ljHMK8zpc3_ELsGqTVtYVS_4kt_EpIZD9kOQLLHXK_3hgdxDUFgMknJmxmpryO5VzGo7KavSzTTf0XWPuSApb2SJJeyeeRXC5AuSQbjFcy8i-xFk4cgsofPKmwdVlDbk_rA5hr1Tf4ozuF97PkFewE7swxynBQBVLOLfsuHSgQU4XxRJ84oauT9GT6sTrZnh-IhHUCtCuCHkfayXsrIKRzd1InrCzbV]--></g></svg>