<?xml version="1.0" encoding="us-ascii" standalone="no"?><svg xmlns="http://www.w3.org/2000/svg" xmlns:xlink="http://www.w3.org/1999/xlink" contentStyleType="text/css" height="1195px" preserveAspectRatio="none" style="width:687px;height:1195px;background:#FFFFFF;" version="1.1" viewBox="0 0 687 1195" width="687px" zoomAndPan="magnify"><defs><filter height="300%" id="fxkde2jb36krf" width="300%" x="-1" y="-1"><feGaussianBlur result="blurOut" stdDeviation="2.0"/><feColorMatrix in="blurOut" result="blurOut2" type="matrix" values="0 0 0 0 0 0 0 0 0 0 0 0 0 0 0 0 0 0 .4 0"/><feOffset dx="4.0" dy="4.0" in="blurOut2" result="blurOut3"/><feBlend in="SourceGraphic" in2="blurOut3" mode="normal"/></filter></defs><g><!--class Connector--><g id="elem_Connector"><rect codeLine="5" fill="#FFF1D9" filter="url(#fxkde2jb36krf)" height="295.8829" id="Connector" rx="5" ry="5" style="stroke:#181818;stroke-width:0.5;" width="222" x="7" y="465.34"/><rect fill="#FFD080" height="32" rx="5" ry="5" style="stroke:#FFD080;stroke-width:0.5;" width="222" x="7" y="465.34"/><rect fill="#FFD080" height="5" style="stroke:#FFD080;stroke-width:0.5;" width="222" x="7" y="492.34"/><rect codeLine="5" fill="none" height="295.8829" id="Connector" rx="5" ry="5" style="stroke:#181818;stroke-width:0.5;" width="222" x="7" y="465.34"/><ellipse cx="79.25" cy="481.34" fill="#ADD1B2" rx="11" ry="11" style="stroke:#181818;stroke-width:1.0;"/><path d="M79.3594,476.8713 Q78.4375,476.8713 77.7031,477.1838 Q76.9844,477.4963 76.4844,478.09 Q75.9844,478.6681 75.7031,479.5431 Q75.4375,480.4181 75.4375,481.5119 Q75.4375,482.9494 75.875,483.9963 Q76.3281,485.0431 77.1719,485.59 Q78.0313,486.1369 79.3438,486.1369 Q80.125,486.1369 80.8125,486.0119 Q81.5156,485.8713 82.5156,485.5588 L82.5156,487.4338 Q81.6563,487.7619 80.8906,487.8869 Q80.1406,488.0119 79.125,488.0119 Q77.2031,488.0119 75.8906,487.215 Q74.5938,486.4025 73.9375,484.9338 Q73.2813,483.4494 73.2813,481.4806 Q73.2813,480.0588 73.6719,478.8869 Q74.0781,477.6994 74.8594,476.8244 Q75.6406,475.9494 76.7813,475.4806 Q77.9219,474.9963 79.3906,474.9963 Q80.3438,474.9963 81.2344,475.1994 Q82.1406,475.3869 83.0781,475.8556 L82.25,477.6369 Q81.4688,477.2619 80.8125,477.0744 Q80.1563,476.8713 79.3594,476.8713 Z " fill="#000000"/><text fill="#000000" font-family="sans-serif" font-size="14" lengthAdjust="spacing" textLength="69" x="99.75" y="486.772">Connector</text><line style="stroke:#181818;stroke-width:0.5;" x1="8" x2="228" y1="497.34" y2="497.34"/><text fill="#000000" font-family="sans-serif" font-size="14" lengthAdjust="spacing" textLength="86" x="13" y="516.3059">name: string</text><text fill="#000000" font-family="sans-serif" font-size="14" lengthAdjust="spacing" textLength="141" x="13" y="535.3739">description: rich_text</text><text fill="#000000" font-family="sans-serif" font-size="14" lengthAdjust="spacing" textLength="47" x="13" y="554.4418">ip: inet</text><text fill="#000000" font-family="sans-serif" font-size="14" lengthAdjust="spacing" textLength="96" x="13" y="573.5097">sds_url: string</text><text fill="#000000" font-family="sans-serif" font-size="14" lengthAdjust="spacing" textLength="167" x="13" y="592.5776">manual_update: boolean</text><line style="stroke:#181818;stroke-width:1.0;" x1="8" x2="228" y1="600.6796" y2="600.6796"/><text fill="#000000" font-family="sans-serif" font-size="14" lengthAdjust="spacing" textLength="86" x="13" y="619.6455">sds_xml: text</text><text fill="#000000" font-family="sans-serif" font-size="14" lengthAdjust="spacing" textLength="185" x="13" y="638.7134">sds_updated_at: timestamp</text><text fill="#000000" font-family="sans-serif" font-size="14" lengthAdjust="spacing" textLength="172" x="13" y="657.7814">connector_services: jsonb</text><text fill="#000000" font-family="sans-serif" font-size="14" lengthAdjust="spacing" textLength="148" x="13" y="676.8493">last_check: timestamp</text><text fill="#000000" font-family="sans-serif" font-size="14" lengthAdjust="spacing" textLength="169" x="13" y="695.9172">last_check_ok: timestamp</text><text fill="#000000" font-family="sans-serif" font-size="14" lengthAdjust="spacing" textLength="120" x="13" y="714.9851">condition: integer</text><text fill="#000000" font-family="sans-serif" font-size="14" lengthAdjust="spacing" textLength="210" x="13" y="734.053">soap_request_success: boolean</text><text fill="#000000" font-family="sans-serif" font-size="14" lengthAdjust="spacing" textLength="144" x="13" y="753.1209">vpnti_online: boolean</text></g><!--class CardTerminal--><g id="elem_CardTerminal"><rect codeLine="22" fill="#FFF1D9" filter="url(#fxkde2jb36krf)" height="334.0188" id="CardTerminal" rx="5" ry="5" style="stroke:#181818;stroke-width:0.5;" width="153" x="263.5" y="446.28"/><rect fill="#FFD080" height="32" rx="5" ry="5" style="stroke:#FFD080;stroke-width:0.5;" width="153" x="263.5" y="446.28"/><rect fill="#FFD080" height="5" style="stroke:#FFD080;stroke-width:0.5;" width="153" x="263.5" y="473.28"/><rect codeLine="22" fill="none" height="334.0188" id="CardTerminal" rx="5" ry="5" style="stroke:#181818;stroke-width:0.5;" width="153" x="263.5" y="446.28"/><ellipse cx="291.55" cy="462.28" fill="#ADD1B2" rx="11" ry="11" style="stroke:#181818;stroke-width:1.0;"/><path d="M291.6594,457.8113 Q290.7375,457.8113 290.0031,458.1238 Q289.2844,458.4363 288.7844,459.03 Q288.2844,459.6081 288.0031,460.4831 Q287.7375,461.3581 287.7375,462.4519 Q287.7375,463.8894 288.175,464.9363 Q288.6281,465.9831 289.4719,466.53 Q290.3313,467.0769 291.6438,467.0769 Q292.425,467.0769 293.1125,466.9519 Q293.8156,466.8113 294.8156,466.4988 L294.8156,468.3738 Q293.9563,468.7019 293.1906,468.8269 Q292.4406,468.9519 291.425,468.9519 Q289.5031,468.9519 288.1906,468.155 Q286.8938,467.3425 286.2375,465.8738 Q285.5813,464.3894 285.5813,462.4206 Q285.5813,460.9988 285.9719,459.8269 Q286.3781,458.6394 287.1594,457.7644 Q287.9406,456.8894 289.0813,456.4206 Q290.2219,455.9363 291.6906,455.9363 Q292.6438,455.9363 293.5344,456.1394 Q294.4406,456.3269 295.3781,456.7956 L294.55,458.5769 Q293.7688,458.2019 293.1125,458.0144 Q292.4563,457.8113 291.6594,457.8113 Z " fill="#000000"/><text fill="#000000" font-family="sans-serif" font-size="14" lengthAdjust="spacing" textLength="92" x="308.45" y="467.712">CardTerminal</text><line style="stroke:#181818;stroke-width:0.5;" x1="264.5" x2="415.5" y1="478.28" y2="478.28"/><text fill="#000000" font-family="sans-serif" font-size="14" lengthAdjust="spacing" textLength="134" x="269.5" y="497.2459">displayname: string</text><text fill="#000000" font-family="sans-serif" font-size="14" lengthAdjust="spacing" textLength="141" x="269.5" y="516.3139">description: rich_text</text><text fill="#000000" font-family="sans-serif" font-size="14" lengthAdjust="spacing" textLength="83" x="269.5" y="535.3818">room: string</text><text fill="#000000" font-family="sans-serif" font-size="14" lengthAdjust="spacing" textLength="97" x="269.5" y="554.4497">contact: string</text><text fill="#000000" font-family="sans-serif" font-size="14" lengthAdjust="spacing" textLength="124" x="269.5" y="573.5176">plugged_in: string</text><text fill="#000000" font-family="sans-serif" font-size="14" lengthAdjust="spacing" textLength="72" x="269.5" y="592.5855">location_id</text><line style="stroke:#181818;stroke-width:1.0;" x1="264.5" x2="415.5" y1="600.6875" y2="600.6875"/><text fill="#000000" font-family="sans-serif" font-size="14" lengthAdjust="spacing" textLength="115" x="269.5" y="619.6534">properties: jsonb</text><text fill="#000000" font-family="sans-serif" font-size="14" lengthAdjust="spacing" textLength="86" x="269.5" y="638.7214">name: string</text><text fill="#000000" font-family="sans-serif" font-size="14" lengthAdjust="spacing" textLength="79" x="269.5" y="657.7893">ct_id: string</text><text fill="#000000" font-family="sans-serif" font-size="14" lengthAdjust="spacing" textLength="96" x="269.5" y="676.8572">mac: macaddr</text><text fill="#000000" font-family="sans-serif" font-size="14" lengthAdjust="spacing" textLength="47" x="269.5" y="695.9251">ip: inet</text><text fill="#000000" font-family="sans-serif" font-size="14" lengthAdjust="spacing" textLength="88" x="269.5" y="714.993">slots: integer</text><text fill="#000000" font-family="sans-serif" font-size="14" lengthAdjust="spacing" textLength="132" x="269.5" y="734.0609">connected: boolean</text><text fill="#000000" font-family="sans-serif" font-size="14" lengthAdjust="spacing" textLength="120" x="269.5" y="753.1289">condition: integer</text><text fill="#000000" font-family="sans-serif" font-size="14" lengthAdjust="spacing" textLength="86" x="269.5" y="772.1968">connector_id</text></g><!--class Location--><g id="elem_Location"><rect codeLine="41" fill="#FFF1D9" filter="url(#fxkde2jb36krf)" height="86.1358" id="Location" rx="5" ry="5" style="stroke:#181818;stroke-width:0.5;" width="136" x="155" y="200.8"/><rect fill="#FFD080" height="32" rx="5" ry="5" style="stroke:#FFD080;stroke-width:0.5;" width="136" x="155" y="200.8"/><rect fill="#FFD080" height="5" style="stroke:#FFD080;stroke-width:0.5;" width="136" x="155" y="227.8"/><rect codeLine="41" fill="none" height="86.1358" id="Location" rx="5" ry="5" style="stroke:#181818;stroke-width:0.5;" width="136" x="155" y="200.8"/><ellipse cx="191.6" cy="216.8" fill="#ADD1B2" rx="11" ry="11" style="stroke:#181818;stroke-width:1.0;"/><path d="M191.7094,212.3313 Q190.7875,212.3313 190.0531,212.6438 Q189.3344,212.9563 188.8344,213.55 Q188.3344,214.1281 188.0531,215.0031 Q187.7875,215.8781 187.7875,216.9719 Q187.7875,218.4094 188.225,219.4563 Q188.6781,220.5031 189.5219,221.05 Q190.3813,221.5969 191.6938,221.5969 Q192.475,221.5969 193.1625,221.4719 Q193.8656,221.3313 194.8656,221.0188 L194.8656,222.8938 Q194.0063,223.2219 193.2406,223.3469 Q192.4906,223.4719 191.475,223.4719 Q189.5531,223.4719 188.2406,222.675 Q186.9438,221.8625 186.2875,220.3938 Q185.6313,218.9094 185.6313,216.9406 Q185.6313,215.5188 186.0219,214.3469 Q186.4281,213.1594 187.2094,212.2844 Q187.9906,211.4094 189.1313,210.9406 Q190.2719,210.4563 191.7406,210.4563 Q192.6938,210.4563 193.5844,210.6594 Q194.4906,210.8469 195.4281,211.3156 L194.6,213.0969 Q193.8188,212.7219 193.1625,212.5344 Q192.5063,212.3313 191.7094,212.3313 Z " fill="#000000"/><text fill="#000000" font-family="sans-serif" font-size="14" lengthAdjust="spacing" textLength="56" x="210.4" y="222.232">Location</text><line style="stroke:#181818;stroke-width:0.5;" x1="156" x2="290" y1="232.8" y2="232.8"/><text fill="#000000" font-family="sans-serif" font-size="14" lengthAdjust="spacing" textLength="65" x="161" y="251.7659">lid: string</text><text fill="#000000" font-family="sans-serif" font-size="14" lengthAdjust="spacing" textLength="124" x="161" y="270.8339">description: string</text><line style="stroke:#181818;stroke-width:0.5;" x1="156" x2="290" y1="278.9358" y2="278.9358"/></g><!--class Context--><g id="elem_Context"><rect codeLine="46" fill="#FFF1D9" filter="url(#fxkde2jb36krf)" height="124.2717" id="Context" rx="5" ry="5" style="stroke:#181818;stroke-width:0.5;" width="150" x="43" y="7"/><rect fill="#FFD080" height="32" rx="5" ry="5" style="stroke:#FFD080;stroke-width:0.5;" width="150" x="43" y="7"/><rect fill="#FFD080" height="5" style="stroke:#FFD080;stroke-width:0.5;" width="150" x="43" y="34"/><rect codeLine="46" fill="none" height="124.2717" id="Context" rx="5" ry="5" style="stroke:#181818;stroke-width:0.5;" width="150" x="43" y="7"/><ellipse cx="88.25" cy="23" fill="#ADD1B2" rx="11" ry="11" style="stroke:#181818;stroke-width:1.0;"/><path d="M88.3594,18.5313 Q87.4375,18.5313 86.7031,18.8438 Q85.9844,19.1563 85.4844,19.75 Q84.9844,20.3281 84.7031,21.2031 Q84.4375,22.0781 84.4375,23.1719 Q84.4375,24.6094 84.875,25.6563 Q85.3281,26.7031 86.1719,27.25 Q87.0313,27.7969 88.3438,27.7969 Q89.125,27.7969 89.8125,27.6719 Q90.5156,27.5313 91.5156,27.2188 L91.5156,29.0938 Q90.6563,29.4219 89.8906,29.5469 Q89.1406,29.6719 88.125,29.6719 Q86.2031,29.6719 84.8906,28.875 Q83.5938,28.0625 82.9375,26.5938 Q82.2813,25.1094 82.2813,23.1406 Q82.2813,21.7188 82.6719,20.5469 Q83.0781,19.3594 83.8594,18.4844 Q84.6406,17.6094 85.7813,17.1406 Q86.9219,16.6563 88.3906,16.6563 Q89.3438,16.6563 90.2344,16.8594 Q91.1406,17.0469 92.0781,17.5156 L91.25,19.2969 Q90.4688,18.9219 89.8125,18.7344 Q89.1563,18.5313 88.3594,18.5313 Z " fill="#000000"/><text fill="#000000" font-family="sans-serif" font-size="14" lengthAdjust="spacing" textLength="51" x="108.75" y="28.432">Context</text><line style="stroke:#181818;stroke-width:0.5;" x1="44" x2="192" y1="39" y2="39"/><text fill="#000000" font-family="sans-serif" font-size="14" lengthAdjust="spacing" textLength="109" x="49" y="57.9659">mandant: string</text><text fill="#000000" font-family="sans-serif" font-size="14" lengthAdjust="spacing" textLength="138" x="49" y="77.0339">client_system: string</text><text fill="#000000" font-family="sans-serif" font-size="14" lengthAdjust="spacing" textLength="116" x="49" y="96.1018">workplace: string</text><text fill="#000000" font-family="sans-serif" font-size="14" lengthAdjust="spacing" textLength="124" x="49" y="115.1697">description: string</text><line style="stroke:#181818;stroke-width:0.5;" x1="44" x2="192" y1="123.2717" y2="123.2717"/></g><!--class ConnectorContext--><g id="elem_ConnectorContext"><rect codeLine="53" fill="#FFF1D9" filter="url(#fxkde2jb36krf)" height="105.2038" id="ConnectorContext" rx="5" ry="5" style="stroke:#181818;stroke-width:0.5;" width="152" x="326" y="191.27"/><rect fill="#FFD080" height="32" rx="5" ry="5" style="stroke:#FFD080;stroke-width:0.5;" width="152" x="326" y="191.27"/><rect fill="#FFD080" height="5" style="stroke:#FFD080;stroke-width:0.5;" width="152" x="326" y="218.27"/><rect codeLine="53" fill="none" height="105.2038" id="ConnectorContext" rx="5" ry="5" style="stroke:#181818;stroke-width:0.5;" width="152" x="326" y="191.27"/><ellipse cx="341" cy="207.27" fill="#ADD1B2" rx="11" ry="11" style="stroke:#181818;stroke-width:1.0;"/><path d="M341.1094,202.8013 Q340.1875,202.8013 339.4531,203.1138 Q338.7344,203.4263 338.2344,204.02 Q337.7344,204.5981 337.4531,205.4731 Q337.1875,206.3481 337.1875,207.4419 Q337.1875,208.8794 337.625,209.9263 Q338.0781,210.9731 338.9219,211.52 Q339.7813,212.0669 341.0938,212.0669 Q341.875,212.0669 342.5625,211.9419 Q343.2656,211.8013 344.2656,211.4888 L344.2656,213.3638 Q343.4063,213.6919 342.6406,213.8169 Q341.8906,213.9419 340.875,213.9419 Q338.9531,213.9419 337.6406,213.145 Q336.3438,212.3325 335.6875,210.8638 Q335.0313,209.3794 335.0313,207.4106 Q335.0313,205.9888 335.4219,204.8169 Q335.8281,203.6294 336.6094,202.7544 Q337.3906,201.8794 338.5313,201.4106 Q339.6719,200.9263 341.1406,200.9263 Q342.0938,200.9263 342.9844,201.1294 Q343.8906,201.3169 344.8281,201.7856 L344,203.5669 Q343.2188,203.1919 342.5625,203.0044 Q341.9063,202.8013 341.1094,202.8013 Z " fill="#000000"/><text fill="#000000" font-family="sans-serif" font-size="14" lengthAdjust="spacing" textLength="120" x="355" y="212.702">ConnectorContext</text><line style="stroke:#181818;stroke-width:0.5;" x1="327" x2="477" y1="223.27" y2="223.27"/><text fill="#000000" font-family="sans-serif" font-size="14" lengthAdjust="spacing" textLength="86" x="332" y="242.2359">connector_id</text><text fill="#000000" font-family="sans-serif" font-size="14" lengthAdjust="spacing" textLength="68" x="332" y="261.3039">context_id</text><text fill="#000000" font-family="sans-serif" font-size="14" lengthAdjust="spacing" textLength="111" x="332" y="280.3718">position: integer</text><line style="stroke:#181818;stroke-width:0.5;" x1="327" x2="477" y1="288.4738" y2="288.4738"/></g><!--class Card--><g id="elem_Card"><rect codeLine="59" fill="#FFF1D9" filter="url(#fxkde2jb36krf)" height="513.63" id="Card" rx="5" ry="5" style="stroke:#181818;stroke-width:0.5;" width="222" x="451" y="356.47"/><rect fill="#FFD080" height="32" rx="5" ry="5" style="stroke:#FFD080;stroke-width:0.5;" width="222" x="451" y="356.47"/><rect fill="#FFD080" height="5" style="stroke:#FFD080;stroke-width:0.5;" width="222" x="451" y="383.47"/><rect codeLine="59" fill="none" height="513.63" id="Card" rx="5" ry="5" style="stroke:#181818;stroke-width:0.5;" width="222" x="451" y="356.47"/><ellipse cx="541.75" cy="372.47" fill="#ADD1B2" rx="11" ry="11" style="stroke:#181818;stroke-width:1.0;"/><path d="M541.8594,368.0013 Q540.9375,368.0013 540.2031,368.3138 Q539.4844,368.6263 538.9844,369.22 Q538.4844,369.7981 538.2031,370.6731 Q537.9375,371.5481 537.9375,372.6419 Q537.9375,374.0794 538.375,375.1263 Q538.8281,376.1731 539.6719,376.72 Q540.5313,377.2669 541.8438,377.2669 Q542.625,377.2669 543.3125,377.1419 Q544.0156,377.0013 545.0156,376.6888 L545.0156,378.5638 Q544.1563,378.8919 543.3906,379.0169 Q542.6406,379.1419 541.625,379.1419 Q539.7031,379.1419 538.3906,378.345 Q537.0938,377.5325 536.4375,376.0638 Q535.7813,374.5794 535.7813,372.6106 Q535.7813,371.1888 536.1719,370.0169 Q536.5781,368.8294 537.3594,367.9544 Q538.1406,367.0794 539.2813,366.6106 Q540.4219,366.1263 541.8906,366.1263 Q542.8438,366.1263 543.7344,366.3294 Q544.6406,366.5169 545.5781,366.9856 L544.75,368.7669 Q543.9688,368.3919 543.3125,368.2044 Q542.6563,368.0013 541.8594,368.0013 Z " fill="#000000"/><text fill="#000000" font-family="sans-serif" font-size="14" lengthAdjust="spacing" textLength="32" x="562.25" y="377.902">Card</text><line style="stroke:#181818;stroke-width:0.5;" x1="452" x2="672" y1="388.47" y2="388.47"/><text fill="#000000" font-family="sans-serif" font-size="14" lengthAdjust="spacing" textLength="86" x="457" y="407.4359">name: string</text><text fill="#000000" font-family="sans-serif" font-size="14" lengthAdjust="spacing" textLength="141" x="457" y="426.5039">description: rich_text</text><text fill="#000000" font-family="sans-serif" font-size="14" lengthAdjust="spacing" textLength="135" x="457" y="445.5718">operational_state_id</text><text fill="#000000" font-family="sans-serif" font-size="14" lengthAdjust="spacing" textLength="72" x="457" y="464.6397">location_id</text><text fill="#000000" font-family="sans-serif" font-size="14" lengthAdjust="spacing" textLength="75" x="457" y="483.7076">lanr: string</text><text fill="#000000" font-family="sans-serif" font-size="14" lengthAdjust="spacing" textLength="135" x="457" y="502.7755">fachrichtung: string</text><text fill="#000000" font-family="sans-serif" font-size="14" lengthAdjust="spacing" textLength="79" x="457" y="521.8434">bsnr: string</text><text fill="#000000" font-family="sans-serif" font-size="14" lengthAdjust="spacing" textLength="123" x="457" y="540.9114">telematikid: string</text><line style="stroke:#181818;stroke-width:1.0;" x1="452" x2="672" y1="549.0133" y2="549.0133"/><text fill="#000000" font-family="sans-serif" font-size="14" lengthAdjust="spacing" textLength="115" x="457" y="567.9793">properties: jsonb</text><text fill="#000000" font-family="sans-serif" font-size="14" lengthAdjust="spacing" textLength="131" x="457" y="587.0472">card_handle: string</text><text fill="#000000" font-family="sans-serif" font-size="14" lengthAdjust="spacing" textLength="113" x="457" y="606.1151">card_type: string</text><text fill="#000000" font-family="sans-serif" font-size="14" lengthAdjust="spacing" textLength="82" x="457" y="625.183">iccsn: string</text><text fill="#000000" font-family="sans-serif" font-size="14" lengthAdjust="spacing" textLength="94" x="457" y="644.2509">slotid: integer</text><text fill="#000000" font-family="sans-serif" font-size="14" lengthAdjust="spacing" textLength="155" x="457" y="663.3189">insert_time: timestamp</text><text fill="#000000" font-family="sans-serif" font-size="14" lengthAdjust="spacing" textLength="172" x="457" y="682.3868">card_holder_name: string</text><text fill="#000000" font-family="sans-serif" font-size="14" lengthAdjust="spacing" textLength="142" x="457" y="701.4547">expiration_date: date</text><text fill="#000000" font-family="sans-serif" font-size="14" lengthAdjust="spacing" textLength="112" x="457" y="720.5226">card_terminal_id</text><line style="stroke:#181818;stroke-width:1.0;" x1="452" x2="672" y1="728.6246" y2="728.6246"/><text fill="#000000" font-family="sans-serif" font-size="14" lengthAdjust="spacing" textLength="96" x="457" y="747.5905">certificate:text</text><text fill="#000000" font-family="sans-serif" font-size="14" lengthAdjust="spacing" textLength="161" x="457" y="766.6584">cert_subject_title: string</text><text fill="#000000" font-family="sans-serif" font-size="14" lengthAdjust="spacing" textLength="151" x="457" y="785.7264">cert_subject_sn: string</text><text fill="#000000" font-family="sans-serif" font-size="14" lengthAdjust="spacing" textLength="210" x="457" y="804.7943">cert_subject_givenname: string</text><text fill="#000000" font-family="sans-serif" font-size="14" lengthAdjust="spacing" textLength="174" x="457" y="823.8622">cert_subject_street: string</text><text fill="#000000" font-family="sans-serif" font-size="14" lengthAdjust="spacing" textLength="208" x="457" y="842.9301">cert_subject_postalcode: string</text><text fill="#000000" font-family="sans-serif" font-size="14" lengthAdjust="spacing" textLength="139" x="457" y="861.998">cert_subject_l: string</text></g><!--class Workplace--><g id="elem_Workplace"><rect codeLine="88" fill="#FFF1D9" filter="url(#fxkde2jb36krf)" height="86.1358" id="Workplace" rx="5" ry="5" style="stroke:#181818;stroke-width:0.5;" width="136" x="272" y="1095.3"/><rect fill="#FFD080" height="32" rx="5" ry="5" style="stroke:#FFD080;stroke-width:0.5;" width="136" x="272" y="1095.3"/><rect fill="#FFD080" height="5" style="stroke:#FFD080;stroke-width:0.5;" width="136" x="272" y="1122.3"/><rect codeLine="88" fill="none" height="86.1358" id="Workplace" rx="5" ry="5" style="stroke:#181818;stroke-width:0.5;" width="136" x="272" y="1095.3"/><ellipse cx="302.3" cy="1111.3" fill="#ADD1B2" rx="11" ry="11" style="stroke:#181818;stroke-width:1.0;"/><path d="M302.4094,1106.8313 Q301.4875,1106.8313 300.7531,1107.1438 Q300.0344,1107.4563 299.5344,1108.05 Q299.0344,1108.6281 298.7531,1109.5031 Q298.4875,1110.3781 298.4875,1111.4719 Q298.4875,1112.9094 298.925,1113.9563 Q299.3781,1115.0031 300.2219,1115.55 Q301.0813,1116.0969 302.3938,1116.0969 Q303.175,1116.0969 303.8625,1115.9719 Q304.5656,1115.8313 305.5656,1115.5188 L305.5656,1117.3938 Q304.7063,1117.7219 303.9406,1117.8469 Q303.1906,1117.9719 302.175,1117.9719 Q300.2531,1117.9719 298.9406,1117.175 Q297.6438,1116.3625 296.9875,1114.8938 Q296.3313,1113.4094 296.3313,1111.4406 Q296.3313,1110.0188 296.7219,1108.8469 Q297.1281,1107.6594 297.9094,1106.7844 Q298.6906,1105.9094 299.8313,1105.4406 Q300.9719,1104.9563 302.4406,1104.9563 Q303.3938,1104.9563 304.2844,1105.1594 Q305.1906,1105.3469 306.1281,1105.8156 L305.3,1107.5969 Q304.5188,1107.2219 303.8625,1107.0344 Q303.2063,1106.8313 302.4094,1106.8313 Z " fill="#000000"/><text fill="#000000" font-family="sans-serif" font-size="14" lengthAdjust="spacing" textLength="70" x="319.7" y="1116.732">Workplace</text><line style="stroke:#181818;stroke-width:0.5;" x1="273" x2="407" y1="1127.3" y2="1127.3"/><text fill="#000000" font-family="sans-serif" font-size="14" lengthAdjust="spacing" textLength="124" x="278" y="1146.2659">description: string</text><line style="stroke:#181818;stroke-width:1.0;" x1="273" x2="407" y1="1154.3679" y2="1154.3679"/><text fill="#000000" font-family="sans-serif" font-size="14" lengthAdjust="spacing" textLength="86" x="278" y="1173.3339">name: string</text></g><!--class TerminalWorkplaces--><g id="elem_TerminalWorkplaces"><rect codeLine="93" fill="#FFF1D9" filter="url(#fxkde2jb36krf)" height="105.2038" id="TerminalWorkplaces" rx="5" ry="5" style="stroke:#181818;stroke-width:0.5;" width="169" x="377.5" y="930.1"/><rect fill="#FFD080" height="32" rx="5" ry="5" style="stroke:#FFD080;stroke-width:0.5;" width="169" x="377.5" y="930.1"/><rect fill="#FFD080" height="5" style="stroke:#FFD080;stroke-width:0.5;" width="169" x="377.5" y="957.1"/><rect codeLine="93" fill="none" height="105.2038" id="TerminalWorkplaces" rx="5" ry="5" style="stroke:#181818;stroke-width:0.5;" width="169" x="377.5" y="930.1"/><ellipse cx="392.5" cy="946.1" fill="#ADD1B2" rx="11" ry="11" style="stroke:#181818;stroke-width:1.0;"/><path d="M392.6094,941.6313 Q391.6875,941.6313 390.9531,941.9438 Q390.2344,942.2563 389.7344,942.85 Q389.2344,943.4281 388.9531,944.3031 Q388.6875,945.1781 388.6875,946.2719 Q388.6875,947.7094 389.125,948.7563 Q389.5781,949.8031 390.4219,950.35 Q391.2813,950.8969 392.5938,950.8969 Q393.375,950.8969 394.0625,950.7719 Q394.7656,950.6313 395.7656,950.3188 L395.7656,952.1938 Q394.9063,952.5219 394.1406,952.6469 Q393.3906,952.7719 392.375,952.7719 Q390.4531,952.7719 389.1406,951.975 Q387.8438,951.1625 387.1875,949.6938 Q386.5313,948.2094 386.5313,946.2406 Q386.5313,944.8188 386.9219,943.6469 Q387.3281,942.4594 388.1094,941.5844 Q388.8906,940.7094 390.0313,940.2406 Q391.1719,939.7563 392.6406,939.7563 Q393.5938,939.7563 394.4844,939.9594 Q395.3906,940.1469 396.3281,940.6156 L395.5,942.3969 Q394.7188,942.0219 394.0625,941.8344 Q393.4063,941.6313 392.6094,941.6313 Z " fill="#000000"/><text fill="#000000" font-family="sans-serif" font-size="14" lengthAdjust="spacing" textLength="137" x="406.5" y="951.532">TerminalWorkplaces</text><line style="stroke:#181818;stroke-width:0.5;" x1="378.5" x2="545.5" y1="962.1" y2="962.1"/><text fill="#000000" font-family="sans-serif" font-size="14" lengthAdjust="spacing" textLength="112" x="383.5" y="981.0659">card_terminal_id</text><text fill="#000000" font-family="sans-serif" font-size="14" lengthAdjust="spacing" textLength="87" x="383.5" y="1000.1339">workplace_id</text><text fill="#000000" font-family="sans-serif" font-size="14" lengthAdjust="spacing" textLength="76" x="383.5" y="1019.2018">updated_at</text><line style="stroke:#181818;stroke-width:0.5;" x1="378.5" x2="545.5" y1="1027.3038" y2="1027.3038"/></g><!--class OperationalState--><g id="elem_OperationalState"><rect codeLine="98" fill="#FFF1D9" filter="url(#fxkde2jb36krf)" height="86.1358" id="OperationalState" rx="5" ry="5" style="stroke:#181818;stroke-width:0.5;" width="146" x="513" y="200.8"/><rect fill="#FFD080" height="32" rx="5" ry="5" style="stroke:#FFD080;stroke-width:0.5;" width="146" x="513" y="200.8"/><rect fill="#FFD080" height="5" style="stroke:#FFD080;stroke-width:0.5;" width="146" x="513" y="227.8"/><rect codeLine="98" fill="none" height="86.1358" id="OperationalState" rx="5" ry="5" style="stroke:#181818;stroke-width:0.5;" width="146" x="513" y="200.8"/><ellipse cx="528" cy="216.8" fill="#ADD1B2" rx="11" ry="11" style="stroke:#181818;stroke-width:1.0;"/><path d="M528.1094,212.3313 Q527.1875,212.3313 526.4531,212.6438 Q525.7344,212.9563 525.2344,213.55 Q524.7344,214.1281 524.4531,215.0031 Q524.1875,215.8781 524.1875,216.9719 Q524.1875,218.4094 524.625,219.4563 Q525.0781,220.5031 525.9219,221.05 Q526.7813,221.5969 528.0938,221.5969 Q528.875,221.5969 529.5625,221.4719 Q530.2656,221.3313 531.2656,221.0188 L531.2656,222.8938 Q530.4063,223.2219 529.6406,223.3469 Q528.8906,223.4719 527.875,223.4719 Q525.9531,223.4719 524.6406,222.675 Q523.3438,221.8625 522.6875,220.3938 Q522.0313,218.9094 522.0313,216.9406 Q522.0313,215.5188 522.4219,214.3469 Q522.8281,213.1594 523.6094,212.2844 Q524.3906,211.4094 525.5313,210.9406 Q526.6719,210.4563 528.1406,210.4563 Q529.0938,210.4563 529.9844,210.6594 Q530.8906,210.8469 531.8281,211.3156 L531,213.0969 Q530.2188,212.7219 529.5625,212.5344 Q528.9063,212.3313 528.1094,212.3313 Z " fill="#000000"/><text fill="#000000" font-family="sans-serif" font-size="14" lengthAdjust="spacing" textLength="114" x="542" y="222.232">OperationalState</text><line style="stroke:#181818;stroke-width:0.5;" x1="514" x2="658" y1="232.8" y2="232.8"/><text fill="#000000" font-family="sans-serif" font-size="14" lengthAdjust="spacing" textLength="86" x="519" y="251.7659">name: string</text><text fill="#000000" font-family="sans-serif" font-size="14" lengthAdjust="spacing" textLength="124" x="519" y="270.8339">description: string</text><line style="stroke:#181818;stroke-width:0.5;" x1="514" x2="658" y1="278.9358" y2="278.9358"/></g><ellipse cx="118" cy="243.87" fill="#181818" rx="2" ry="2" style="stroke:#181818;stroke-width:1.0;"/><ellipse cx="340" cy="982.7" fill="#181818" rx="2" ry="2" style="stroke:#181818;stroke-width:1.0;"/><!--link Location to Connector--><g id="link_Location_Connector"><path codeLine="103" d="M210.85,287.37 C198.41,330.92 178.35,401.1 160.06,465.12 " fill="none" id="Location-Connector" style="stroke:#181818;stroke-width:1.0;"/><text fill="#000000" font-family="sans-serif" font-size="13" lengthAdjust="spacing" textLength="7" x="201.5514" y="308.9567">*</text><text fill="#000000" font-family="sans-serif" font-size="13" lengthAdjust="spacing" textLength="7" x="155.1688" y="453.4689">*</text></g><!--link Connector to CardTerminal--><g id="link_Connector_CardTerminal"><path codeLine="105" d="M229.43,613.29 C240.66,613.29 251.89,613.29 263.12,613.29 " fill="none" id="Connector-CardTerminal" style="stroke:#181818;stroke-width:1.0;"/><text fill="#000000" font-family="sans-serif" font-size="13" lengthAdjust="spacing" textLength="20" x="235.5194" y="609.5695">0..1</text><text fill="#000000" font-family="sans-serif" font-size="13" lengthAdjust="spacing" textLength="7" x="248.4588" y="609.4106">*</text></g><!--link Location to CardTerminal--><g id="link_Location_CardTerminal"><path codeLine="106" d="M236.54,287.37 C249.02,326.57 268.38,387.36 286.99,445.81 " fill="none" id="Location-CardTerminal" style="stroke:#181818;stroke-width:1.0;"/><text fill="#000000" font-family="sans-serif" font-size="13" lengthAdjust="spacing" textLength="20" x="217.0599" y="308.9567">0..1</text><text fill="#000000" font-family="sans-serif" font-size="13" lengthAdjust="spacing" textLength="7" x="277.2528" y="434.2001">*</text></g><!--link Context to apoint15--><g id="link_Context_apoint15"><path d="M118,131.52 C118,177.29 118,233.3 118,241.77 " fill="none" id="Context-apoint15" style="stroke:#181818;stroke-width:1.0;"/><text fill="#000000" font-family="sans-serif" font-size="13" lengthAdjust="spacing" textLength="7" x="110.6172" y="153.2086">*</text></g><!--link apoint15 to Connector--><g id="link_apoint15_Connector"><path d="M118,246.2 C118,259.44 118,369.16 118,465.05 " fill="none" id="apoint15-Connector" style="stroke:#181818;stroke-width:1.0;"/><text fill="#000000" font-family="sans-serif" font-size="13" lengthAdjust="spacing" textLength="7" x="110.8086" y="453.3951">*</text></g><!--link apoint15 to ConnectorContext--><g id="link_apoint15_ConnectorContext"><path d="M118.12,241.46 C118.85,229.78 123.77,178.91 154.5,161.27 C207.3,130.94 233.72,142.06 291.5,161.27 C310.71,167.65 329.27,178.82 345.53,190.92 " fill="none" id="apoint15-ConnectorContext" style="stroke:#181818;stroke-width:1.0;stroke-dasharray:7.0,7.0;"/></g><!--link CardTerminal to Card--><g id="link_CardTerminal_Card"><path codeLine="108" d="M416.75,613.29 C428,613.29 439.25,613.29 450.51,613.29 " fill="none" id="CardTerminal-Card" style="stroke:#181818;stroke-width:1.0;"/><text fill="#000000" font-family="sans-serif" font-size="13" lengthAdjust="spacing" textLength="20" x="423.0814" y="609.3645">0..1</text><text fill="#000000" font-family="sans-serif" font-size="13" lengthAdjust="spacing" textLength="7" x="436.1435" y="609.6654">*</text></g><!--link CardTerminal to apoint22--><g id="link_CardTerminal_apoint22"><path d="M340,780.79 C340,871.17 340,967.15 340,980.2 " fill="none" id="CardTerminal-apoint22" style="stroke:#181818;stroke-width:1.0;"/><text fill="#000000" font-family="sans-serif" font-size="13" lengthAdjust="spacing" textLength="7" x="332.8523" y="802.1269">*</text></g><!--link apoint22 to Workplace--><g id="link_apoint22_Workplace"><path d="M340,985.03 C340,994.56 340,1053.38 340,1095.07 " fill="none" id="apoint22-Workplace" style="stroke:#181818;stroke-width:1.0;"/><text fill="#000000" font-family="sans-serif" font-size="13" lengthAdjust="spacing" textLength="7" x="332.4203" y="1083.4465">*</text></g><!--link apoint22 to TerminalWorkplaces--><g id="link_apoint22_TerminalWorkplaces"><path d="M342.38,982.7 C354.06,982.7 365.75,982.7 377.43,982.7 " fill="none" id="apoint22-TerminalWorkplaces" style="stroke:#181818;stroke-width:1.0;stroke-dasharray:7.0,7.0;"/></g><!--link Location to Card--><g id="link_Location_Card"><path codeLine="111" d="M291.2,286.57 C297.18,289.99 303.17,293.33 309,296.47 C363.26,325.69 390.07,313.25 434,356.47 C439.75,362.13 445.29,368.1 450.62,374.32 " fill="none" id="Location-Card" style="stroke:#181818;stroke-width:1.0;"/><text fill="#000000" font-family="sans-serif" font-size="13" lengthAdjust="spacing" textLength="20" x="280.4756" y="308.6836">0..1</text><text fill="#000000" font-family="sans-serif" font-size="13" lengthAdjust="spacing" textLength="7" x="435.9015" y="354.6142">*</text></g><!--link OperationalState to Card--><g id="link_OperationalState_Card"><path codeLine="112" d="M583.22,287.37 C582,306.17 580.44,329.93 578.74,356.02 " fill="none" id="OperationalState-Card" style="stroke:#181818;stroke-width:1.0;"/><text fill="#000000" font-family="sans-serif" font-size="13" lengthAdjust="spacing" textLength="7" x="575.2976" y="308.9567">1</text><text fill="#000000" font-family="sans-serif" font-size="13" lengthAdjust="spacing" textLength="7" x="572.1331" y="345.0376">*</text></g><!--SRC=[bLKxRzim4DxrArXFRP4OxUerQu4EBP2HeCcpp9WYMVBas2ZyttlKavHYD5bawzxttNSdT9wXOtk7w1gcT029sjcg-eH7Q8199qLGx118kwqgQKICxCbPItOkCFQtOioA1dOiOj2sfbS5KGRjKvWT2reUES85IQ7zZcaBwMzKaRV1P5wDiAqmlFLA84NREsT0M58yFWxsbuRiXr2TVsUgk40IwmOYYiQJJexLyGZXh2N47Nk9pkv9H-KZbqUGfz9dbdDtMeLJkcz6MuGQGihlXES1_hHancChAKdCYpvxYvexQwZVMNwR02HCVqDej1McWr3fw8sulXV9u5oJsL69A2Hc4c_QkYPijCs4XcQPOd6jHbnzS1u2wXoZHH4IoRuObDobXr0gB8Pg7COSfM4Ie79etiHpdXdLDi7qOoYuWyWKLHJG3D9Rniy4LET6l5B2vjX8ey7IrAuH8KVnrOKJ3K721zBqHUVvYaxwqP2gV_4kBZel6F6XPKfpwy2XfI6g8lGfoXaROKCMx23aCSN0rjQPU1yBAmG33GKv5O3VfKkw3_n8A9k2DKcALv_Bj9GnvsFYIyenqq1RMbdaQVqMIzWbSKP1u0k4uE9rZmJlJqTwJXKCIvPHNgO63becsm7B9A8jth_Gu2WvbftaogB-GbFhCzZbwXIk603mdfQeWS98f-xwcpK1dqV6zZVa3QuEFHTrtQgdpdiyG5EKs1DuZTkq6VthV7YdM3zdDlvAPFmlbUTMfYNVVDrGjTtFj5dLk5htbCDtQFDjk_rE5hr1Tbspy7TDFazn7iRJyOLjjwlzhegplOgtKCy5Jm1JfipaOLPqwTRpM1UVPLj1lYaD_W40]--></g></svg>