<?xml version="1.0" encoding="us-ascii" standalone="no"?><svg xmlns="http://www.w3.org/2000/svg" xmlns:xlink="http://www.w3.org/1999/xlink" contentStyleType="text/css" height="1233px" preserveAspectRatio="none" style="width:687px;height:1233px;background:#FFFFFF;" version="1.1" viewBox="0 0 687 1233" width="687px" zoomAndPan="magnify"><defs><filter height="300%" id="f1pvy5rl0tgshv" width="300%" x="-1" y="-1"><feGaussianBlur result="blurOut" stdDeviation="2.0"/><feColorMatrix in="blurOut" result="blurOut2" type="matrix" values="0 0 0 0 0 0 0 0 0 0 0 0 0 0 0 0 0 0 .4 0"/><feOffset dx="4.0" dy="4.0" in="blurOut2" result="blurOut3"/><feBlend in="SourceGraphic" in2="blurOut3" mode="normal"/></filter></defs><g><!--class Connector--><g id="elem_Connector"><rect codeLine="5" fill="#FFF1D9" filter="url(#f1pvy5rl0tgshv)" height="295.8829" id="Connector" rx="5" ry="5" style="stroke:#181818;stroke-width:0.5;" width="222" x="7" y="484.42"/><rect fill="#FFD080" height="32" rx="5" ry="5" style="stroke:#FFD080;stroke-width:0.5;" width="222" x="7" y="484.42"/><rect fill="#FFD080" height="5" style="stroke:#FFD080;stroke-width:0.5;" width="222" x="7" y="511.42"/><rect codeLine="5" fill="none" height="295.8829" id="Connector" rx="5" ry="5" style="stroke:#181818;stroke-width:0.5;" width="222" x="7" y="484.42"/><ellipse cx="79.25" cy="500.42" fill="#ADD1B2" rx="11" ry="11" style="stroke:#181818;stroke-width:1.0;"/><path d="M79.3594,495.9512 Q78.4375,495.9512 77.7031,496.2637 Q76.9844,496.5762 76.4844,497.17 Q75.9844,497.7481 75.7031,498.6231 Q75.4375,499.4981 75.4375,500.5919 Q75.4375,502.0294 75.875,503.0762 Q76.3281,504.1231 77.1719,504.67 Q78.0313,505.2169 79.3438,505.2169 Q80.125,505.2169 80.8125,505.0919 Q81.5156,504.9512 82.5156,504.6387 L82.5156,506.5137 Q81.6563,506.8419 80.8906,506.9669 Q80.1406,507.0919 79.125,507.0919 Q77.2031,507.0919 75.8906,506.295 Q74.5938,505.4825 73.9375,504.0137 Q73.2813,502.5294 73.2813,500.5606 Q73.2813,499.1387 73.6719,497.9669 Q74.0781,496.7794 74.8594,495.9044 Q75.6406,495.0294 76.7813,494.5606 Q77.9219,494.0762 79.3906,494.0762 Q80.3438,494.0762 81.2344,494.2794 Q82.1406,494.4669 83.0781,494.9356 L82.25,496.7169 Q81.4688,496.3419 80.8125,496.1544 Q80.1563,495.9512 79.3594,495.9512 Z " fill="#000000"/><text fill="#000000" font-family="sans-serif" font-size="14" lengthAdjust="spacing" textLength="69" x="99.75" y="505.852">Connector</text><line style="stroke:#181818;stroke-width:0.5;" x1="8" x2="228" y1="516.42" y2="516.42"/><text fill="#000000" font-family="sans-serif" font-size="14" lengthAdjust="spacing" textLength="86" x="13" y="535.3859">name: string</text><text fill="#000000" font-family="sans-serif" font-size="14" lengthAdjust="spacing" textLength="141" x="13" y="554.4539">description: rich_text</text><text fill="#000000" font-family="sans-serif" font-size="14" lengthAdjust="spacing" textLength="47" x="13" y="573.5218">ip: inet</text><text fill="#000000" font-family="sans-serif" font-size="14" lengthAdjust="spacing" textLength="96" x="13" y="592.5897">sds_url: string</text><text fill="#000000" font-family="sans-serif" font-size="14" lengthAdjust="spacing" textLength="167" x="13" y="611.6576">manual_update: boolean</text><line style="stroke:#181818;stroke-width:1.0;" x1="8" x2="228" y1="619.7596" y2="619.7596"/><text fill="#000000" font-family="sans-serif" font-size="14" lengthAdjust="spacing" textLength="86" x="13" y="638.7255">sds_xml: text</text><text fill="#000000" font-family="sans-serif" font-size="14" lengthAdjust="spacing" textLength="185" x="13" y="657.7934">sds_updated_at: timestamp</text><text fill="#000000" font-family="sans-serif" font-size="14" lengthAdjust="spacing" textLength="172" x="13" y="676.8614">connector_services: jsonb</text><text fill="#000000" font-family="sans-serif" font-size="14" lengthAdjust="spacing" textLength="148" x="13" y="695.9293">last_check: timestamp</text><text fill="#000000" font-family="sans-serif" font-size="14" lengthAdjust="spacing" textLength="169" x="13" y="714.9972">last_check_ok: timestamp</text><text fill="#000000" font-family="sans-serif" font-size="14" lengthAdjust="spacing" textLength="120" x="13" y="734.0651">condition: integer</text><text fill="#000000" font-family="sans-serif" font-size="14" lengthAdjust="spacing" textLength="210" x="13" y="753.133">soap_request_success: boolean</text><text fill="#000000" font-family="sans-serif" font-size="14" lengthAdjust="spacing" textLength="144" x="13" y="772.2009">vpnti_online: boolean</text></g><!--class CardTerminal--><g id="elem_CardTerminal"><rect codeLine="22" fill="#FFF1D9" filter="url(#f1pvy5rl0tgshv)" height="334.0188" id="CardTerminal" rx="5" ry="5" style="stroke:#181818;stroke-width:0.5;" width="153" x="263.5" y="465.35"/><rect fill="#FFD080" height="32" rx="5" ry="5" style="stroke:#FFD080;stroke-width:0.5;" width="153" x="263.5" y="465.35"/><rect fill="#FFD080" height="5" style="stroke:#FFD080;stroke-width:0.5;" width="153" x="263.5" y="492.35"/><rect codeLine="22" fill="none" height="334.0188" id="CardTerminal" rx="5" ry="5" style="stroke:#181818;stroke-width:0.5;" width="153" x="263.5" y="465.35"/><ellipse cx="291.55" cy="481.35" fill="#ADD1B2" rx="11" ry="11" style="stroke:#181818;stroke-width:1.0;"/><path d="M291.6594,476.8812 Q290.7375,476.8812 290.0031,477.1937 Q289.2844,477.5062 288.7844,478.1 Q288.2844,478.6781 288.0031,479.5531 Q287.7375,480.4281 287.7375,481.5219 Q287.7375,482.9594 288.175,484.0062 Q288.6281,485.0531 289.4719,485.6 Q290.3313,486.1469 291.6438,486.1469 Q292.425,486.1469 293.1125,486.0219 Q293.8156,485.8812 294.8156,485.5687 L294.8156,487.4437 Q293.9563,487.7719 293.1906,487.8969 Q292.4406,488.0219 291.425,488.0219 Q289.5031,488.0219 288.1906,487.225 Q286.8938,486.4125 286.2375,484.9437 Q285.5813,483.4594 285.5813,481.4906 Q285.5813,480.0687 285.9719,478.8969 Q286.3781,477.7094 287.1594,476.8344 Q287.9406,475.9594 289.0813,475.4906 Q290.2219,475.0062 291.6906,475.0062 Q292.6438,475.0062 293.5344,475.2094 Q294.4406,475.3969 295.3781,475.8656 L294.55,477.6469 Q293.7688,477.2719 293.1125,477.0844 Q292.4563,476.8812 291.6594,476.8812 Z " fill="#000000"/><text fill="#000000" font-family="sans-serif" font-size="14" lengthAdjust="spacing" textLength="92" x="308.45" y="486.782">CardTerminal</text><line style="stroke:#181818;stroke-width:0.5;" x1="264.5" x2="415.5" y1="497.35" y2="497.35"/><text fill="#000000" font-family="sans-serif" font-size="14" lengthAdjust="spacing" textLength="134" x="269.5" y="516.3159">displayname: string</text><text fill="#000000" font-family="sans-serif" font-size="14" lengthAdjust="spacing" textLength="141" x="269.5" y="535.3839">description: rich_text</text><text fill="#000000" font-family="sans-serif" font-size="14" lengthAdjust="spacing" textLength="83" x="269.5" y="554.4518">room: string</text><text fill="#000000" font-family="sans-serif" font-size="14" lengthAdjust="spacing" textLength="97" x="269.5" y="573.5197">contact: string</text><text fill="#000000" font-family="sans-serif" font-size="14" lengthAdjust="spacing" textLength="124" x="269.5" y="592.5876">plugged_in: string</text><text fill="#000000" font-family="sans-serif" font-size="14" lengthAdjust="spacing" textLength="72" x="269.5" y="611.6555">location_id</text><line style="stroke:#181818;stroke-width:1.0;" x1="264.5" x2="415.5" y1="619.7575" y2="619.7575"/><text fill="#000000" font-family="sans-serif" font-size="14" lengthAdjust="spacing" textLength="115" x="269.5" y="638.7234">properties: jsonb</text><text fill="#000000" font-family="sans-serif" font-size="14" lengthAdjust="spacing" textLength="86" x="269.5" y="657.7914">name: string</text><text fill="#000000" font-family="sans-serif" font-size="14" lengthAdjust="spacing" textLength="79" x="269.5" y="676.8593">ct_id: string</text><text fill="#000000" font-family="sans-serif" font-size="14" lengthAdjust="spacing" textLength="96" x="269.5" y="695.9272">mac: macaddr</text><text fill="#000000" font-family="sans-serif" font-size="14" lengthAdjust="spacing" textLength="47" x="269.5" y="714.9951">ip: inet</text><text fill="#000000" font-family="sans-serif" font-size="14" lengthAdjust="spacing" textLength="88" x="269.5" y="734.063">slots: integer</text><text fill="#000000" font-family="sans-serif" font-size="14" lengthAdjust="spacing" textLength="132" x="269.5" y="753.1309">connected: boolean</text><text fill="#000000" font-family="sans-serif" font-size="14" lengthAdjust="spacing" textLength="120" x="269.5" y="772.1989">condition: integer</text><text fill="#000000" font-family="sans-serif" font-size="14" lengthAdjust="spacing" textLength="86" x="269.5" y="791.2668">connector_id</text></g><!--class Location--><g id="elem_Location"><rect codeLine="41" fill="#FFF1D9" filter="url(#f1pvy5rl0tgshv)" height="86.1358" id="Location" rx="5" ry="5" style="stroke:#181818;stroke-width:0.5;" width="136" x="155" y="200.8"/><rect fill="#FFD080" height="32" rx="5" ry="5" style="stroke:#FFD080;stroke-width:0.5;" width="136" x="155" y="200.8"/><rect fill="#FFD080" height="5" style="stroke:#FFD080;stroke-width:0.5;" width="136" x="155" y="227.8"/><rect codeLine="41" fill="none" height="86.1358" id="Location" rx="5" ry="5" style="stroke:#181818;stroke-width:0.5;" width="136" x="155" y="200.8"/><ellipse cx="191.6" cy="216.8" fill="#ADD1B2" rx="11" ry="11" style="stroke:#181818;stroke-width:1.0;"/><path d="M191.7094,212.3312 Q190.7875,212.3312 190.0531,212.6437 Q189.3344,212.9562 188.8344,213.55 Q188.3344,214.1281 188.0531,215.0031 Q187.7875,215.8781 187.7875,216.9719 Q187.7875,218.4094 188.225,219.4562 Q188.6781,220.5031 189.5219,221.05 Q190.3813,221.5969 191.6938,221.5969 Q192.475,221.5969 193.1625,221.4719 Q193.8656,221.3312 194.8656,221.0187 L194.8656,222.8937 Q194.0063,223.2219 193.2406,223.3469 Q192.4906,223.4719 191.475,223.4719 Q189.5531,223.4719 188.2406,222.675 Q186.9438,221.8625 186.2875,220.3937 Q185.6313,218.9094 185.6313,216.9406 Q185.6313,215.5187 186.0219,214.3469 Q186.4281,213.1594 187.2094,212.2844 Q187.9906,211.4094 189.1313,210.9406 Q190.2719,210.4562 191.7406,210.4562 Q192.6938,210.4562 193.5844,210.6594 Q194.4906,210.8469 195.4281,211.3156 L194.6,213.0969 Q193.8188,212.7219 193.1625,212.5344 Q192.5063,212.3312 191.7094,212.3312 Z " fill="#000000"/><text fill="#000000" font-family="sans-serif" font-size="14" lengthAdjust="spacing" textLength="56" x="210.4" y="222.232">Location</text><line style="stroke:#181818;stroke-width:0.5;" x1="156" x2="290" y1="232.8" y2="232.8"/><text fill="#000000" font-family="sans-serif" font-size="14" lengthAdjust="spacing" textLength="65" x="161" y="251.7659">lid: string</text><text fill="#000000" font-family="sans-serif" font-size="14" lengthAdjust="spacing" textLength="124" x="161" y="270.8339">description: string</text><line style="stroke:#181818;stroke-width:0.5;" x1="156" x2="290" y1="278.9358" y2="278.9358"/></g><!--class Context--><g id="elem_Context"><rect codeLine="46" fill="#FFF1D9" filter="url(#f1pvy5rl0tgshv)" height="124.2717" id="Context" rx="5" ry="5" style="stroke:#181818;stroke-width:0.5;" width="150" x="43" y="7"/><rect fill="#FFD080" height="32" rx="5" ry="5" style="stroke:#FFD080;stroke-width:0.5;" width="150" x="43" y="7"/><rect fill="#FFD080" height="5" style="stroke:#FFD080;stroke-width:0.5;" width="150" x="43" y="34"/><rect codeLine="46" fill="none" height="124.2717" id="Context" rx="5" ry="5" style="stroke:#181818;stroke-width:0.5;" width="150" x="43" y="7"/><ellipse cx="88.25" cy="23" fill="#ADD1B2" rx="11" ry="11" style="stroke:#181818;stroke-width:1.0;"/><path d="M88.3594,18.5313 Q87.4375,18.5313 86.7031,18.8438 Q85.9844,19.1563 85.4844,19.75 Q84.9844,20.3281 84.7031,21.2031 Q84.4375,22.0781 84.4375,23.1719 Q84.4375,24.6094 84.875,25.6563 Q85.3281,26.7031 86.1719,27.25 Q87.0313,27.7969 88.3438,27.7969 Q89.125,27.7969 89.8125,27.6719 Q90.5156,27.5313 91.5156,27.2188 L91.5156,29.0938 Q90.6563,29.4219 89.8906,29.5469 Q89.1406,29.6719 88.125,29.6719 Q86.2031,29.6719 84.8906,28.875 Q83.5938,28.0625 82.9375,26.5938 Q82.2813,25.1094 82.2813,23.1406 Q82.2813,21.7188 82.6719,20.5469 Q83.0781,19.3594 83.8594,18.4844 Q84.6406,17.6094 85.7813,17.1406 Q86.9219,16.6563 88.3906,16.6563 Q89.3438,16.6563 90.2344,16.8594 Q91.1406,17.0469 92.0781,17.5156 L91.25,19.2969 Q90.4688,18.9219 89.8125,18.7344 Q89.1563,18.5313 88.3594,18.5313 Z " fill="#000000"/><text fill="#000000" font-family="sans-serif" font-size="14" lengthAdjust="spacing" textLength="51" x="108.75" y="28.432">Context</text><line style="stroke:#181818;stroke-width:0.5;" x1="44" x2="192" y1="39" y2="39"/><text fill="#000000" font-family="sans-serif" font-size="14" lengthAdjust="spacing" textLength="109" x="49" y="57.9659">mandant: string</text><text fill="#000000" font-family="sans-serif" font-size="14" lengthAdjust="spacing" textLength="138" x="49" y="77.0339">client_system: string</text><text fill="#000000" font-family="sans-serif" font-size="14" lengthAdjust="spacing" textLength="116" x="49" y="96.1018">workplace: string</text><text fill="#000000" font-family="sans-serif" font-size="14" lengthAdjust="spacing" textLength="124" x="49" y="115.1697">description: string</text><line style="stroke:#181818;stroke-width:0.5;" x1="44" x2="192" y1="123.2717" y2="123.2717"/></g><!--class ConnectorContext--><g id="elem_ConnectorContext"><rect codeLine="53" fill="#FFF1D9" filter="url(#f1pvy5rl0tgshv)" height="105.2038" id="ConnectorContext" rx="5" ry="5" style="stroke:#181818;stroke-width:0.5;" width="152" x="326" y="191.27"/><rect fill="#FFD080" height="32" rx="5" ry="5" style="stroke:#FFD080;stroke-width:0.5;" width="152" x="326" y="191.27"/><rect fill="#FFD080" height="5" style="stroke:#FFD080;stroke-width:0.5;" width="152" x="326" y="218.27"/><rect codeLine="53" fill="none" height="105.2038" id="ConnectorContext" rx="5" ry="5" style="stroke:#181818;stroke-width:0.5;" width="152" x="326" y="191.27"/><ellipse cx="341" cy="207.27" fill="#ADD1B2" rx="11" ry="11" style="stroke:#181818;stroke-width:1.0;"/><path d="M341.1094,202.8012 Q340.1875,202.8012 339.4531,203.1137 Q338.7344,203.4262 338.2344,204.02 Q337.7344,204.5981 337.4531,205.4731 Q337.1875,206.3481 337.1875,207.4419 Q337.1875,208.8794 337.625,209.9262 Q338.0781,210.9731 338.9219,211.52 Q339.7813,212.0669 341.0938,212.0669 Q341.875,212.0669 342.5625,211.9419 Q343.2656,211.8012 344.2656,211.4887 L344.2656,213.3637 Q343.4063,213.6919 342.6406,213.8169 Q341.8906,213.9419 340.875,213.9419 Q338.9531,213.9419 337.6406,213.145 Q336.3438,212.3325 335.6875,210.8637 Q335.0313,209.3794 335.0313,207.4106 Q335.0313,205.9887 335.4219,204.8169 Q335.8281,203.6294 336.6094,202.7544 Q337.3906,201.8794 338.5313,201.4106 Q339.6719,200.9262 341.1406,200.9262 Q342.0938,200.9262 342.9844,201.1294 Q343.8906,201.3169 344.8281,201.7856 L344,203.5669 Q343.2188,203.1919 342.5625,203.0044 Q341.9063,202.8012 341.1094,202.8012 Z " fill="#000000"/><text fill="#000000" font-family="sans-serif" font-size="14" lengthAdjust="spacing" textLength="120" x="355" y="212.702">ConnectorContext</text><line style="stroke:#181818;stroke-width:0.5;" x1="327" x2="477" y1="223.27" y2="223.27"/><text fill="#000000" font-family="sans-serif" font-size="14" lengthAdjust="spacing" textLength="86" x="332" y="242.2359">connector_id</text><text fill="#000000" font-family="sans-serif" font-size="14" lengthAdjust="spacing" textLength="68" x="332" y="261.3039">context_id</text><text fill="#000000" font-family="sans-serif" font-size="14" lengthAdjust="spacing" textLength="111" x="332" y="280.3718">position: integer</text><line style="stroke:#181818;stroke-width:0.5;" x1="327" x2="477" y1="288.4738" y2="288.4738"/></g><!--class Card--><g id="elem_Card"><rect codeLine="59" fill="#FFF1D9" filter="url(#f1pvy5rl0tgshv)" height="551.7658" id="Card" rx="5" ry="5" style="stroke:#181818;stroke-width:0.5;" width="222" x="451" y="356.47"/><rect fill="#FFD080" height="32" rx="5" ry="5" style="stroke:#FFD080;stroke-width:0.5;" width="222" x="451" y="356.47"/><rect fill="#FFD080" height="5" style="stroke:#FFD080;stroke-width:0.5;" width="222" x="451" y="383.47"/><rect codeLine="59" fill="none" height="551.7658" id="Card" rx="5" ry="5" style="stroke:#181818;stroke-width:0.5;" width="222" x="451" y="356.47"/><ellipse cx="541.75" cy="372.47" fill="#ADD1B2" rx="11" ry="11" style="stroke:#181818;stroke-width:1.0;"/><path d="M541.8594,368.0012 Q540.9375,368.0012 540.2031,368.3137 Q539.4844,368.6262 538.9844,369.22 Q538.4844,369.7981 538.2031,370.6731 Q537.9375,371.5481 537.9375,372.6419 Q537.9375,374.0794 538.375,375.1262 Q538.8281,376.1731 539.6719,376.72 Q540.5313,377.2669 541.8438,377.2669 Q542.625,377.2669 543.3125,377.1419 Q544.0156,377.0012 545.0156,376.6887 L545.0156,378.5637 Q544.1563,378.8919 543.3906,379.0169 Q542.6406,379.1419 541.625,379.1419 Q539.7031,379.1419 538.3906,378.345 Q537.0938,377.5325 536.4375,376.0637 Q535.7813,374.5794 535.7813,372.6106 Q535.7813,371.1887 536.1719,370.0169 Q536.5781,368.8294 537.3594,367.9544 Q538.1406,367.0794 539.2813,366.6106 Q540.4219,366.1262 541.8906,366.1262 Q542.8438,366.1262 543.7344,366.3294 Q544.6406,366.5169 545.5781,366.9856 L544.75,368.7669 Q543.9688,368.3919 543.3125,368.2044 Q542.6563,368.0012 541.8594,368.0012 Z " fill="#000000"/><text fill="#000000" font-family="sans-serif" font-size="14" lengthAdjust="spacing" textLength="32" x="562.25" y="377.902">Card</text><line style="stroke:#181818;stroke-width:0.5;" x1="452" x2="672" y1="388.47" y2="388.47"/><text fill="#000000" font-family="sans-serif" font-size="14" lengthAdjust="spacing" textLength="86" x="457" y="407.4359">name: string</text><text fill="#000000" font-family="sans-serif" font-size="14" lengthAdjust="spacing" textLength="141" x="457" y="426.5039">description: rich_text</text><text fill="#000000" font-family="sans-serif" font-size="14" lengthAdjust="spacing" textLength="135" x="457" y="445.5718">operational_state_id</text><text fill="#000000" font-family="sans-serif" font-size="14" lengthAdjust="spacing" textLength="72" x="457" y="464.6397">location_id</text><text fill="#000000" font-family="sans-serif" font-size="14" lengthAdjust="spacing" textLength="75" x="457" y="483.7076">lanr: string</text><text fill="#000000" font-family="sans-serif" font-size="14" lengthAdjust="spacing" textLength="135" x="457" y="502.7755">fachrichtung: string</text><text fill="#000000" font-family="sans-serif" font-size="14" lengthAdjust="spacing" textLength="79" x="457" y="521.8434">bsnr: string</text><text fill="#000000" font-family="sans-serif" font-size="14" lengthAdjust="spacing" textLength="123" x="457" y="540.9114">telematikid: string</text><line style="stroke:#181818;stroke-width:1.0;" x1="452" x2="672" y1="549.0133" y2="549.0133"/><text fill="#000000" font-family="sans-serif" font-size="14" lengthAdjust="spacing" textLength="115" x="457" y="567.9793">properties: jsonb</text><text fill="#000000" font-family="sans-serif" font-size="14" lengthAdjust="spacing" textLength="131" x="457" y="587.0472">card_handle: string</text><text fill="#000000" font-family="sans-serif" font-size="14" lengthAdjust="spacing" textLength="113" x="457" y="606.1151">card_type: string</text><text fill="#000000" font-family="sans-serif" font-size="14" lengthAdjust="spacing" textLength="82" x="457" y="625.183">iccsn: string</text><text fill="#000000" font-family="sans-serif" font-size="14" lengthAdjust="spacing" textLength="94" x="457" y="644.2509">slotid: integer</text><text fill="#000000" font-family="sans-serif" font-size="14" lengthAdjust="spacing" textLength="155" x="457" y="663.3189">insert_time: timestamp</text><text fill="#000000" font-family="sans-serif" font-size="14" lengthAdjust="spacing" textLength="172" x="457" y="682.3868">card_holder_name: string</text><text fill="#000000" font-family="sans-serif" font-size="14" lengthAdjust="spacing" textLength="142" x="457" y="701.4547">expiration_date: date</text><text fill="#000000" font-family="sans-serif" font-size="14" lengthAdjust="spacing" textLength="112" x="457" y="720.5226">card_terminal_id</text><line style="stroke:#181818;stroke-width:1.0;" x1="452" x2="672" y1="728.6246" y2="728.6246"/><text fill="#000000" font-family="sans-serif" font-size="14" lengthAdjust="spacing" textLength="96" x="457" y="747.5905">certificate:text</text><text fill="#000000" font-family="sans-serif" font-size="14" lengthAdjust="spacing" textLength="151" x="457" y="766.6584">cert_subject_cn: string</text><text fill="#000000" font-family="sans-serif" font-size="14" lengthAdjust="spacing" textLength="161" x="457" y="785.7264">cert_subject_title: string</text><text fill="#000000" font-family="sans-serif" font-size="14" lengthAdjust="spacing" textLength="151" x="457" y="804.7943">cert_subject_sn: string</text><text fill="#000000" font-family="sans-serif" font-size="14" lengthAdjust="spacing" textLength="210" x="457" y="823.8622">cert_subject_givenname: string</text><text fill="#000000" font-family="sans-serif" font-size="14" lengthAdjust="spacing" textLength="174" x="457" y="842.9301">cert_subject_street: string</text><text fill="#000000" font-family="sans-serif" font-size="14" lengthAdjust="spacing" textLength="208" x="457" y="861.998">cert_subject_postalcode: string</text><text fill="#000000" font-family="sans-serif" font-size="14" lengthAdjust="spacing" textLength="139" x="457" y="881.0659">cert_subject_l: string</text><text fill="#000000" font-family="sans-serif" font-size="14" lengthAdjust="spacing" textLength="143" x="457" y="900.1339">cert_subject_o: string</text></g><!--class Workplace--><g id="elem_Workplace"><rect codeLine="90" fill="#FFF1D9" filter="url(#f1pvy5rl0tgshv)" height="86.1358" id="Workplace" rx="5" ry="5" style="stroke:#181818;stroke-width:0.5;" width="136" x="272" y="1133.44"/><rect fill="#FFD080" height="32" rx="5" ry="5" style="stroke:#FFD080;stroke-width:0.5;" width="136" x="272" y="1133.44"/><rect fill="#FFD080" height="5" style="stroke:#FFD080;stroke-width:0.5;" width="136" x="272" y="1160.44"/><rect codeLine="90" fill="none" height="86.1358" id="Workplace" rx="5" ry="5" style="stroke:#181818;stroke-width:0.5;" width="136" x="272" y="1133.44"/><ellipse cx="302.3" cy="1149.44" fill="#ADD1B2" rx="11" ry="11" style="stroke:#181818;stroke-width:1.0;"/><path d="M302.4094,1144.9712 Q301.4875,1144.9712 300.7531,1145.2837 Q300.0344,1145.5962 299.5344,1146.19 Q299.0344,1146.7681 298.7531,1147.6431 Q298.4875,1148.5181 298.4875,1149.6119 Q298.4875,1151.0494 298.925,1152.0962 Q299.3781,1153.1431 300.2219,1153.69 Q301.0813,1154.2369 302.3938,1154.2369 Q303.175,1154.2369 303.8625,1154.1119 Q304.5656,1153.9712 305.5656,1153.6587 L305.5656,1155.5337 Q304.7063,1155.8619 303.9406,1155.9869 Q303.1906,1156.1119 302.175,1156.1119 Q300.2531,1156.1119 298.9406,1155.315 Q297.6438,1154.5025 296.9875,1153.0337 Q296.3313,1151.5494 296.3313,1149.5806 Q296.3313,1148.1587 296.7219,1146.9869 Q297.1281,1145.7994 297.9094,1144.9244 Q298.6906,1144.0494 299.8313,1143.5806 Q300.9719,1143.0962 302.4406,1143.0962 Q303.3938,1143.0962 304.2844,1143.2994 Q305.1906,1143.4869 306.1281,1143.9556 L305.3,1145.7369 Q304.5188,1145.3619 303.8625,1145.1744 Q303.2063,1144.9712 302.4094,1144.9712 Z " fill="#000000"/><text fill="#000000" font-family="sans-serif" font-size="14" lengthAdjust="spacing" textLength="70" x="319.7" y="1154.872">Workplace</text><line style="stroke:#181818;stroke-width:0.5;" x1="273" x2="407" y1="1165.44" y2="1165.44"/><text fill="#000000" font-family="sans-serif" font-size="14" lengthAdjust="spacing" textLength="124" x="278" y="1184.4059">description: string</text><line style="stroke:#181818;stroke-width:1.0;" x1="273" x2="407" y1="1192.5079" y2="1192.5079"/><text fill="#000000" font-family="sans-serif" font-size="14" lengthAdjust="spacing" textLength="86" x="278" y="1211.4739">name: string</text></g><!--class TerminalWorkplaces--><g id="elem_TerminalWorkplaces"><rect codeLine="95" fill="#FFF1D9" filter="url(#f1pvy5rl0tgshv)" height="105.2038" id="TerminalWorkplaces" rx="5" ry="5" style="stroke:#181818;stroke-width:0.5;" width="169" x="377.5" y="968.24"/><rect fill="#FFD080" height="32" rx="5" ry="5" style="stroke:#FFD080;stroke-width:0.5;" width="169" x="377.5" y="968.24"/><rect fill="#FFD080" height="5" style="stroke:#FFD080;stroke-width:0.5;" width="169" x="377.5" y="995.24"/><rect codeLine="95" fill="none" height="105.2038" id="TerminalWorkplaces" rx="5" ry="5" style="stroke:#181818;stroke-width:0.5;" width="169" x="377.5" y="968.24"/><ellipse cx="392.5" cy="984.24" fill="#ADD1B2" rx="11" ry="11" style="stroke:#181818;stroke-width:1.0;"/><path d="M392.6094,979.7712 Q391.6875,979.7712 390.9531,980.0837 Q390.2344,980.3962 389.7344,980.99 Q389.2344,981.5681 388.9531,982.4431 Q388.6875,983.3181 388.6875,984.4119 Q388.6875,985.8494 389.125,986.8962 Q389.5781,987.9431 390.4219,988.49 Q391.2813,989.0369 392.5938,989.0369 Q393.375,989.0369 394.0625,988.9119 Q394.7656,988.7712 395.7656,988.4587 L395.7656,990.3337 Q394.9063,990.6619 394.1406,990.7869 Q393.3906,990.9119 392.375,990.9119 Q390.4531,990.9119 389.1406,990.115 Q387.8438,989.3025 387.1875,987.8337 Q386.5313,986.3494 386.5313,984.3806 Q386.5313,982.9587 386.9219,981.7869 Q387.3281,980.5994 388.1094,979.7244 Q388.8906,978.8494 390.0313,978.3806 Q391.1719,977.8962 392.6406,977.8962 Q393.5938,977.8962 394.4844,978.0994 Q395.3906,978.2869 396.3281,978.7556 L395.5,980.5369 Q394.7188,980.1619 394.0625,979.9744 Q393.4063,979.7712 392.6094,979.7712 Z " fill="#000000"/><text fill="#000000" font-family="sans-serif" font-size="14" lengthAdjust="spacing" textLength="137" x="406.5" y="989.672">TerminalWorkplaces</text><line style="stroke:#181818;stroke-width:0.5;" x1="378.5" x2="545.5" y1="1000.24" y2="1000.24"/><text fill="#000000" font-family="sans-serif" font-size="14" lengthAdjust="spacing" textLength="112" x="383.5" y="1019.2059">card_terminal_id</text><text fill="#000000" font-family="sans-serif" font-size="14" lengthAdjust="spacing" textLength="87" x="383.5" y="1038.2739">workplace_id</text><text fill="#000000" font-family="sans-serif" font-size="14" lengthAdjust="spacing" textLength="76" x="383.5" y="1057.3418">updated_at</text><line style="stroke:#181818;stroke-width:0.5;" x1="378.5" x2="545.5" y1="1065.4438" y2="1065.4438"/></g><!--class OperationalState--><g id="elem_OperationalState"><rect codeLine="100" fill="#FFF1D9" filter="url(#f1pvy5rl0tgshv)" height="86.1358" id="OperationalState" rx="5" ry="5" style="stroke:#181818;stroke-width:0.5;" width="146" x="513" y="200.8"/><rect fill="#FFD080" height="32" rx="5" ry="5" style="stroke:#FFD080;stroke-width:0.5;" width="146" x="513" y="200.8"/><rect fill="#FFD080" height="5" style="stroke:#FFD080;stroke-width:0.5;" width="146" x="513" y="227.8"/><rect codeLine="100" fill="none" height="86.1358" id="OperationalState" rx="5" ry="5" style="stroke:#181818;stroke-width:0.5;" width="146" x="513" y="200.8"/><ellipse cx="528" cy="216.8" fill="#ADD1B2" rx="11" ry="11" style="stroke:#181818;stroke-width:1.0;"/><path d="M528.1094,212.3312 Q527.1875,212.3312 526.4531,212.6437 Q525.7344,212.9562 525.2344,213.55 Q524.7344,214.1281 524.4531,215.0031 Q524.1875,215.8781 524.1875,216.9719 Q524.1875,218.4094 524.625,219.4562 Q525.0781,220.5031 525.9219,221.05 Q526.7813,221.5969 528.0938,221.5969 Q528.875,221.5969 529.5625,221.4719 Q530.2656,221.3312 531.2656,221.0187 L531.2656,222.8937 Q530.4063,223.2219 529.6406,223.3469 Q528.8906,223.4719 527.875,223.4719 Q525.9531,223.4719 524.6406,222.675 Q523.3438,221.8625 522.6875,220.3937 Q522.0313,218.9094 522.0313,216.9406 Q522.0313,215.5187 522.4219,214.3469 Q522.8281,213.1594 523.6094,212.2844 Q524.3906,211.4094 525.5313,210.9406 Q526.6719,210.4562 528.1406,210.4562 Q529.0938,210.4562 529.9844,210.6594 Q530.8906,210.8469 531.8281,211.3156 L531,213.0969 Q530.2188,212.7219 529.5625,212.5344 Q528.9063,212.3312 528.1094,212.3312 Z " fill="#000000"/><text fill="#000000" font-family="sans-serif" font-size="14" lengthAdjust="spacing" textLength="114" x="542" y="222.232">OperationalState</text><line style="stroke:#181818;stroke-width:0.5;" x1="514" x2="658" y1="232.8" y2="232.8"/><text fill="#000000" font-family="sans-serif" font-size="14" lengthAdjust="spacing" textLength="86" x="519" y="251.7659">name: string</text><text fill="#000000" font-family="sans-serif" font-size="14" lengthAdjust="spacing" textLength="124" x="519" y="270.8339">description: string</text><line style="stroke:#181818;stroke-width:0.5;" x1="514" x2="658" y1="278.9358" y2="278.9358"/></g><ellipse cx="118" cy="243.87" fill="#181818" rx="2" ry="2" style="stroke:#181818;stroke-width:1.0;"/><ellipse cx="340" cy="1020.84" fill="#181818" rx="2" ry="2" style="stroke:#181818;stroke-width:1.0;"/><!--link Location to Connector--><g id="link_Location_Connector"><path codeLine="105" d="M211.46,287.34 C198.62,334.6 177.16,413.59 158.04,483.97 " fill="none" id="Location-Connector" style="stroke:#181818;stroke-width:1.0;"/><text fill="#000000" font-family="sans-serif" font-size="13" lengthAdjust="spacing" textLength="7" x="202.251" y="308.9223">*</text><text fill="#000000" font-family="sans-serif" font-size="13" lengthAdjust="spacing" textLength="7" x="152.9241" y="472.7955">*</text></g><!--link Connector to CardTerminal--><g id="link_Connector_CardTerminal"><path codeLine="107" d="M229.43,632.36 C240.66,632.36 251.89,632.36 263.12,632.36 " fill="none" id="Connector-CardTerminal" style="stroke:#181818;stroke-width:1.0;"/><text fill="#000000" font-family="sans-serif" font-size="13" lengthAdjust="spacing" textLength="20" x="235.5194" y="628.6389">0..1</text><text fill="#000000" font-family="sans-serif" font-size="13" lengthAdjust="spacing" textLength="7" x="248.4588" y="628.4806">*</text></g><!--link Location to CardTerminal--><g id="link_Location_CardTerminal"><path codeLine="108" d="M235.86,287.34 C248.89,330.38 269.88,399.75 289.62,464.95 " fill="none" id="Location-CardTerminal" style="stroke:#181818;stroke-width:1.0;"/><text fill="#000000" font-family="sans-serif" font-size="13" lengthAdjust="spacing" textLength="20" x="216.2801" y="308.9223">0..1</text><text fill="#000000" font-family="sans-serif" font-size="13" lengthAdjust="spacing" textLength="7" x="280.0102" y="453.3435">*</text></g><!--link Context to apoint15--><g id="link_Context_apoint15"><path d="M118,131.52 C118,177.29 118,233.31 118,241.78 " fill="none" id="Context-apoint15" style="stroke:#181818;stroke-width:1.0;"/><text fill="#000000" font-family="sans-serif" font-size="13" lengthAdjust="spacing" textLength="7" x="110.6172" y="153.2086">*</text></g><!--link apoint15 to Connector--><g id="link_apoint15_Connector"><path d="M118,246.27 C118,260.55 118,381.4 118,483.96 " fill="none" id="apoint15-Connector" style="stroke:#181818;stroke-width:1.0;"/><text fill="#000000" font-family="sans-serif" font-size="13" lengthAdjust="spacing" textLength="7" x="110.8195" y="472.785">*</text></g><!--link apoint15 to ConnectorContext--><g id="link_apoint15_ConnectorContext"><path d="M118.12,241.46 C118.85,229.78 123.77,178.92 154.5,161.27 C207.3,130.94 233.72,142.06 291.5,161.27 C310.71,167.66 329.27,178.83 345.53,190.93 " fill="none" id="apoint15-ConnectorContext" style="stroke:#181818;stroke-width:1.0;stroke-dasharray:7.0,7.0;"/></g><!--link CardTerminal to Card--><g id="link_CardTerminal_Card"><path codeLine="110" d="M416.75,632.36 C428,632.36 439.25,632.36 450.51,632.36 " fill="none" id="CardTerminal-Card" style="stroke:#181818;stroke-width:1.0;"/><text fill="#000000" font-family="sans-serif" font-size="13" lengthAdjust="spacing" textLength="20" x="423.0814" y="628.4345">0..1</text><text fill="#000000" font-family="sans-serif" font-size="13" lengthAdjust="spacing" textLength="7" x="436.1435" y="628.7356">*</text></g><!--link CardTerminal to apoint22--><g id="link_CardTerminal_apoint22"><path d="M340,799.79 C340,897.92 340,1005.46 340,1018.52 " fill="none" id="CardTerminal-apoint22" style="stroke:#181818;stroke-width:1.0;"/><text fill="#000000" font-family="sans-serif" font-size="13" lengthAdjust="spacing" textLength="7" x="332.8523" y="821.124">*</text></g><!--link apoint22 to Workplace--><g id="link_apoint22_Workplace"><path d="M340,1023.17 C340,1032.7 340,1091.52 340,1133.21 " fill="none" id="apoint22-Workplace" style="stroke:#181818;stroke-width:1.0;"/><text fill="#000000" font-family="sans-serif" font-size="13" lengthAdjust="spacing" textLength="7" x="332.4203" y="1121.5865">*</text></g><!--link apoint22 to TerminalWorkplaces--><g id="link_apoint22_TerminalWorkplaces"><path d="M342.38,1020.84 C354.06,1020.84 365.75,1020.84 377.43,1020.84 " fill="none" id="apoint22-TerminalWorkplaces" style="stroke:#181818;stroke-width:1.0;stroke-dasharray:7.0,7.0;"/></g><!--link Location to Card--><g id="link_Location_Card"><path codeLine="113" d="M291.2,286.58 C297.18,289.99 303.17,293.34 309,296.47 C363.26,325.69 390.68,312.65 434,356.47 C439.74,362.28 445.25,368.39 450.54,374.74 " fill="none" id="Location-Card" style="stroke:#181818;stroke-width:1.0;"/><text fill="#000000" font-family="sans-serif" font-size="13" lengthAdjust="spacing" textLength="20" x="297.8795" y="287.2947">0..1</text><text fill="#000000" font-family="sans-serif" font-size="13" lengthAdjust="spacing" textLength="7" x="436.1754" y="354.6118">*</text></g><!--link OperationalState to Card--><g id="link_OperationalState_Card"><path codeLine="114" d="M583.36,287.34 C582.19,306.16 580.71,330.02 579.08,356.37 " fill="none" id="OperationalState-Card" style="stroke:#181818;stroke-width:1.0;"/><text fill="#000000" font-family="sans-serif" font-size="13" lengthAdjust="spacing" textLength="7" x="575.4582" y="308.9223">1</text><text fill="#000000" font-family="sans-serif" font-size="13" lengthAdjust="spacing" textLength="7" x="572.4832" y="344.8319">*</text></g><!--SRC=[bLKxRzim4DxrArXFRP4OxUerQu4EBT2HeCcBp9WYMVBasYZyttlKavGYD5bawzxttNSdT9wXOqU7w1gcT029sjcg-e0dQ8199qLGx3cGTbzLqeWOsPEpbknSOEnlnPWL3HnOnA1jJQyAeWpQfp075hGySOGhaaBx0zCMqj-e8c-3oRmQOLjXUEkLG8fsTCw0iAHuV1pihmtP3w4w_yvKSO4arWr458qddHohun72HKk81_OIdJsIZif7BayWpwNFBEVkl0gdTD-CjWWrX9JV2Sy3_6x9ZCTMKfAO5ttn5ZLtrb2_i_m-0KYO_eJGQ2jC1w7IqHjnUokImRaciwCIKKZC9DwqTKtOQ9i93SqonU9QZRZwu3m4r3b6Yo8aadqnA7b83w5KM0pLE8mvIiCaGENGl8hdF3EgROBfsr1m1v4fgYYW6QJtZ9y9gCwDUAM4pR6HHeEbgTqYGexY7nVED0G9xqZJ5vtdAphfHqEg_iMxkEYyOCIxbYdDhGE7beQeYj2dA6TiX0rPi6SXJoa6jhREnCTOM24OQ2Z8kG1yaoxfFl0JeMmArYGftdmkqrB6d8-9Bod7J0DjQMMHf_LRB66Nn1a5WIyGWglNFHAyFntfELKmB5b6UPaQUDOosGvO9X5jyV651iTbNcAXGOrbZxaoRhhL-W9skLI5AmO0tD8IQL0OwTIclzbIk3LdVuqaxy_EA_GUO2eAlbTFdVTuiwOeiUVy6kffcVhN-LPFiRxF1FwH-FjVzi-jJ7TXztb7rNO_qp9MupPkAOTFr-xBVl-LB7g3x21duJTDFavn7iPhyudjzwkJK1MNVXLlePuBdW2cJ9d9mwpeqgtdiIu-oxQ2V5SQ_0C0]--></g></svg>