<?xml version="1.0" encoding="us-ascii" standalone="no"?><svg xmlns="http://www.w3.org/2000/svg" xmlns:xlink="http://www.w3.org/1999/xlink" contentStyleType="text/css" height="445px" preserveAspectRatio="none" style="width:648px;height:445px;background:#FFFFFF;" version="1.1" viewBox="0 0 648 445" width="648px" zoomAndPan="magnify"><defs/><g><ellipse cx="288" cy="20" fill="#222222" rx="10" ry="10" style="stroke:#222222;stroke-width:1.0;"/><path d="M372,45.466 L372,64.1721 L352,68.1721 L372,72.1721 L372,90.8781 A0,0 0 0 0 372,90.8781 L636,90.8781 A0,0 0 0 0 636,90.8781 L636,55.466 L626,45.466 L372,45.466 A0,0 0 0 0 372,45.466 " fill="#FEFFDD" style="stroke:#181818;stroke-width:0.5;"/><path d="M626,45.466 L626,55.466 L636,55.466 L626,45.466 " fill="#FEFFDD" style="stroke:#181818;stroke-width:0.5;"/><text fill="#000000" font-family="sans-serif" font-size="13" lengthAdjust="spacing" textLength="55" x="378" y="64.3631">Hash aus</text><text fill="#000000" font-family="sans-serif" font-size="13" lengthAdjust="spacing" textLength="243" x="378" y="82.0691">RISE::TIClient#get_card_terminal_proxies</text><rect fill="#F1F1F1" height="36.3441" rx="12.5" ry="12.5" style="stroke:#181818;stroke-width:0.5;" width="128" x="224" y="50"/><text fill="#000000" font-family="sans-serif" font-size="12" lengthAdjust="spacing" textLength="108" x="234" y="72.8281">cardterminal_proxy</text><polygon fill="#F1F1F1" points="32,110.8781,96,110.8781,108,122.8781,96,134.8781,32,134.8781,20,122.8781,32,110.8781" style="stroke:#181818;stroke-width:0.5;"/><text fill="#000000" font-family="sans-serif" font-size="11" lengthAdjust="spacing" textLength="17" x="68" y="146.637">yes</text><text fill="#000000" font-family="sans-serif" font-size="11" lengthAdjust="spacing" textLength="64" x="32" y="127.146">match uuid?</text><rect fill="#F1F1F1" height="36.3441" rx="12.5" ry="12.5" style="stroke:#181818;stroke-width:0.5;" width="59" x="34.5" y="169.86"/><text fill="#000000" font-family="sans-serif" font-size="12" lengthAdjust="spacing" textLength="39" x="44.5" y="192.6881">update</text><polygon fill="#F1F1F1" points="140,110.8781,237,110.8781,249,122.8781,237,134.8781,140,134.8781,128,122.8781,140,110.8781" style="stroke:#181818;stroke-width:0.5;"/><text fill="#000000" font-family="sans-serif" font-size="11" lengthAdjust="spacing" textLength="17" x="192.5" y="146.637">yes</text><text fill="#000000" font-family="sans-serif" font-size="11" lengthAdjust="spacing" textLength="97" x="140" y="127.146">match :name + :ip?</text><rect fill="#F1F1F1" height="36.3441" rx="12.5" ry="12.5" style="stroke:#181818;stroke-width:0.5;" width="96" x="140.5" y="169.86"/><text fill="#000000" font-family="sans-serif" font-size="12" lengthAdjust="spacing" textLength="76" x="150.5" y="192.6881">update + uuid</text><polygon fill="#F1F1F1" points="313,110.8781,366,110.8781,378,122.8781,366,134.8781,313,134.8781,301,122.8781,313,110.8781" style="stroke:#181818;stroke-width:0.5;"/><text fill="#000000" font-family="sans-serif" font-size="11" lengthAdjust="spacing" textLength="17" x="343.5" y="146.637">yes</text><text fill="#000000" font-family="sans-serif" font-size="11" lengthAdjust="spacing" textLength="53" x="313" y="127.146">match :ip?</text><text fill="#000000" font-family="sans-serif" font-size="11" lengthAdjust="spacing" textLength="14" x="378" y="119.6551">no</text><rect fill="#F1F1F1" height="36.3441" rx="12.5" ry="12.5" style="stroke:#181818;stroke-width:0.5;" width="141" x="269" y="169.86"/><text fill="#000000" font-family="sans-serif" font-size="12" lengthAdjust="spacing" textLength="121" x="279" y="192.6881">update + name + uuid</text><rect fill="#F1F1F1" height="36.3441" rx="12.5" ry="12.5" style="stroke:#181818;stroke-width:0.5;" width="126" x="430" y="165.369"/><text fill="#000000" font-family="sans-serif" font-size="12" lengthAdjust="spacing" textLength="106" x="440" y="188.1971">create new ktproxy</text><rect fill="#F1F1F1" height="52.6882" rx="12.5" ry="12.5" style="stroke:#181818;stroke-width:0.5;" width="121" x="227.5" y="295.695"/><text fill="#000000" font-family="sans-serif" font-size="12" lengthAdjust="spacing" textLength="101" x="237.5" y="318.5231">search and assign</text><text fill="#000000" font-family="sans-serif" font-size="12" lengthAdjust="spacing" textLength="77" x="237.5" y="334.8672">card_terminal</text><polygon fill="#F1F1F1" points="228,246.2041,348,246.2041,360,258.2041,348,270.2041,228,270.2041,216,258.2041,228,246.2041" style="stroke:#181818;stroke-width:0.5;"/><text fill="#000000" font-family="sans-serif" font-size="11" lengthAdjust="spacing" textLength="14" x="292" y="281.963">no</text><text fill="#000000" font-family="sans-serif" font-size="11" lengthAdjust="spacing" textLength="120" x="228" y="262.472">card_terminal.present?</text><text fill="#000000" font-family="sans-serif" font-size="11" lengthAdjust="spacing" textLength="17" x="360" y="254.9811">yes</text><polygon fill="#F1F1F1" points="288,368.3832,300,380.3832,288,392.3832,276,380.3832,288,368.3832" style="stroke:#181818;stroke-width:0.5;"/><ellipse cx="288" cy="423.3832" fill="none" rx="11" ry="11" style="stroke:#222222;stroke-width:1.0;"/><ellipse cx="288" cy="423.3832" fill="#222222" rx="6" ry="6" style="stroke:#222222;stroke-width:1.0;"/><line style="stroke:#181818;stroke-width:1.0;" x1="288" x2="288" y1="30" y2="50"/><polygon fill="#181818" points="284,40,288,50,292,40,288,44" style="stroke:#181818;stroke-width:1.0;"/><line style="stroke:#181818;stroke-width:1.0;" x1="64" x2="64" y1="134.8781" y2="169.86"/><polygon fill="#181818" points="60,159.86,64,169.86,68,159.86,64,163.86" style="stroke:#181818;stroke-width:1.0;"/><line style="stroke:#181818;stroke-width:1.0;" x1="64" x2="64" y1="206.2041" y2="226.2041"/><polygon fill="#181818" points="60,216.2041,64,226.2041,68,216.2041,64,220.2041" style="stroke:#181818;stroke-width:1.0;"/><line style="stroke:#181818;stroke-width:1.0;" x1="188.5" x2="188.5" y1="134.8781" y2="169.86"/><polygon fill="#181818" points="184.5,159.86,188.5,169.86,192.5,159.86,188.5,163.86" style="stroke:#181818;stroke-width:1.0;"/><line style="stroke:#181818;stroke-width:1.0;" x1="188.5" x2="188.5" y1="206.2041" y2="226.2041"/><polygon fill="#181818" points="184.5,216.2041,188.5,226.2041,192.5,216.2041,188.5,220.2041" style="stroke:#181818;stroke-width:1.0;"/><line style="stroke:#181818;stroke-width:1.0;" x1="339.5" x2="339.5" y1="134.8781" y2="169.86"/><polygon fill="#181818" points="335.5,159.86,339.5,169.86,343.5,159.86,339.5,163.86" style="stroke:#181818;stroke-width:1.0;"/><line style="stroke:#181818;stroke-width:1.0;" x1="339.5" x2="339.5" y1="206.2041" y2="226.2041"/><polygon fill="#181818" points="335.5,216.2041,339.5,226.2041,343.5,216.2041,339.5,220.2041" style="stroke:#181818;stroke-width:1.0;"/><line style="stroke:#181818;stroke-width:1.0;" x1="108" x2="128" y1="122.8781" y2="122.8781"/><polygon fill="#181818" points="118,118.8781,128,122.8781,118,126.8781,122,122.8781" style="stroke:#181818;stroke-width:1.0;"/><line style="stroke:#181818;stroke-width:1.0;" x1="249" x2="301" y1="122.8781" y2="122.8781"/><polygon fill="#181818" points="291,118.8781,301,122.8781,291,126.8781,295,122.8781" style="stroke:#181818;stroke-width:1.0;"/><line style="stroke:#181818;stroke-width:1.0;" x1="288" x2="288" y1="86.3441" y2="95.8781"/><line style="stroke:#181818;stroke-width:1.0;" x1="288" x2="64" y1="95.8781" y2="95.8781"/><line style="stroke:#181818;stroke-width:1.0;" x1="64" x2="64" y1="95.8781" y2="110.8781"/><polygon fill="#181818" points="60,100.8781,64,110.8781,68,100.8781,64,104.8781" style="stroke:#181818;stroke-width:1.0;"/><line style="stroke:#181818;stroke-width:1.0;" x1="378" x2="493" y1="122.8781" y2="122.8781"/><line style="stroke:#181818;stroke-width:1.0;" x1="493" x2="493" y1="122.8781" y2="165.369"/><polygon fill="#181818" points="489,155.369,493,165.369,497,155.369,493,159.369" style="stroke:#181818;stroke-width:1.0;"/><line style="stroke:#181818;stroke-width:1.0;" x1="493" x2="493" y1="201.7131" y2="226.2041"/><polygon fill="#181818" points="489,216.2041,493,226.2041,497,216.2041,493,220.2041" style="stroke:#181818;stroke-width:1.0;"/><line style="stroke:#181818;stroke-width:1.0;" x1="64" x2="493" y1="226.2041" y2="226.2041"/><line style="stroke:#181818;stroke-width:1.0;" x1="288" x2="288" y1="270.2041" y2="295.695"/><polygon fill="#181818" points="284,285.695,288,295.695,292,285.695,288,289.695" style="stroke:#181818;stroke-width:1.0;"/><line style="stroke:#181818;stroke-width:1.0;" x1="360" x2="372" y1="258.2041" y2="258.2041"/><polygon fill="#181818" points="368,312.0391,372,322.0391,376,312.0391,372,316.0391" style="stroke:#181818;stroke-width:1.0;"/><line style="stroke:#181818;stroke-width:1.0;" x1="372" x2="372" y1="258.2041" y2="380.3832"/><line style="stroke:#181818;stroke-width:1.0;" x1="372" x2="300" y1="380.3832" y2="380.3832"/><polygon fill="#181818" points="310,376.3832,300,380.3832,310,384.3832,306,380.3832" style="stroke:#181818;stroke-width:1.0;"/><line style="stroke:#181818;stroke-width:1.0;" x1="288" x2="288" y1="348.3832" y2="368.3832"/><polygon fill="#181818" points="284,358.3832,288,368.3832,292,358.3832,288,362.3832" style="stroke:#181818;stroke-width:1.0;"/><line style="stroke:#181818;stroke-width:1.0;" x1="288" x2="288" y1="226.2041" y2="246.2041"/><polygon fill="#181818" points="284,236.2041,288,246.2041,292,236.2041,288,240.2041" style="stroke:#181818;stroke-width:1.0;"/><line style="stroke:#181818;stroke-width:1.0;" x1="288" x2="288" y1="392.3832" y2="412.3832"/><polygon fill="#181818" points="284,402.3832,288,412.3832,292,402.3832,288,406.3832" style="stroke:#181818;stroke-width:1.0;"/><!--SRC=[VP11QiD034NtEeKW6uT23Z1PP54ApJRjic24hTWYjZoCP9hSFcFZD9ZIxWRcloTzcLDo21MbsZdrejILCGtNsnvqSCOaJUk0-4xM8es6-NqwVho5y7byxOJLDmrxEV7bIY1im5hZP04vOz6JLosEezI7BNhBYiMDRPjzOOmrEU-1E-DdD2ZrZ2yO9Fv1vC_9zmly3rYaJmuB7UP8bNYAA7_ZnPSRv0PoXdd_LSLTJ6ov_C-SnM5CAMz0kJYPIQDVkk8U8-UrPZa2c0yHxW00]--></g></svg>