<?xml version="1.0" encoding="us-ascii" standalone="no"?><svg xmlns="http://www.w3.org/2000/svg" xmlns:xlink="http://www.w3.org/1999/xlink" contentStyleType="text/css" height="509px" preserveAspectRatio="none" style="width:463px;height:509px;background:#FFFFFF;" version="1.1" viewBox="0 0 463 509" width="463px" zoomAndPan="magnify"><defs><filter height="300%" id="f1jqgav61dzp93" width="300%" x="-1" y="-1"><feGaussianBlur result="blurOut" stdDeviation="2.0"/><feColorMatrix in="blurOut" result="blurOut2" type="matrix" values="0 0 0 0 0 0 0 0 0 0 0 0 0 0 0 0 0 0 .4 0"/><feOffset dx="4.0" dy="4.0" in="blurOut2" result="blurOut3"/><feBlend in="SourceGraphic" in2="blurOut3" mode="normal"/></filter></defs><g><!--class soap_gri--><g id="elem_soap_gri"><rect codeLine="5" fill="#FFF1D9" filter="url(#f1jqgav61dzp93)" height="159.4754" id="soap_gri" rx="5" ry="5" style="stroke:#181818;stroke-width:0.5;" width="197" x="242" y="7"/><rect fill="#FFD080" height="48.1358" rx="5" ry="5" style="stroke:#FFD080;stroke-width:0.5;" width="197" x="242" y="7"/><rect fill="#FFD080" height="5" style="stroke:#FFD080;stroke-width:0.5;" width="197" x="242" y="50.1358"/><rect codeLine="5" fill="none" height="159.4754" id="soap_gri" rx="5" ry="5" style="stroke:#181818;stroke-width:0.5;" width="197" x="242" y="7"/><ellipse cx="257" cy="31.0679" fill="#ADD1B2" rx="11" ry="11" style="stroke:#181818;stroke-width:1.0;"/><path d="M257.1094,26.5992 Q256.1875,26.5992 255.4531,26.9117 Q254.7344,27.2242 254.2344,27.8179 Q253.7344,28.396 253.4531,29.271 Q253.1875,30.146 253.1875,31.2398 Q253.1875,32.6773 253.625,33.7242 Q254.0781,34.771 254.9219,35.3179 Q255.7813,35.8648 257.0938,35.8648 Q257.875,35.8648 258.5625,35.7398 Q259.2656,35.5992 260.2656,35.2867 L260.2656,37.1617 Q259.4063,37.4898 258.6406,37.6148 Q257.8906,37.7398 256.875,37.7398 Q254.9531,37.7398 253.6406,36.9429 Q252.3438,36.1304 251.6875,34.6617 Q251.0313,33.1773 251.0313,31.2085 Q251.0313,29.7867 251.4219,28.6148 Q251.8281,27.4273 252.6094,26.5523 Q253.3906,25.6773 254.5313,25.2085 Q255.6719,24.7242 257.1406,24.7242 Q258.0938,24.7242 258.9844,24.9273 Q259.8906,25.1148 260.8281,25.5835 L260,27.3648 Q259.2188,26.9898 258.5625,26.8023 Q257.9063,26.5992 257.1094,26.5992 Z " fill="#000000"/><text fill="#000000" font-family="sans-serif" font-size="14" lengthAdjust="spacing" textLength="99" x="304" y="26.9659">Cocard::SOAP::</text><text fill="#000000" font-family="sans-serif" font-size="14" lengthAdjust="spacing" textLength="165" x="271" y="46.0339">GetResourceInformation</text><line style="stroke:#181818;stroke-width:0.5;" x1="243" x2="438" y1="55.1358" y2="55.1358"/><text fill="#000000" font-family="sans-serif" font-size="14" lengthAdjust="spacing" textLength="116" x="248" y="74.1018">connector: object</text><text fill="#000000" font-family="sans-serif" font-size="14" lengthAdjust="spacing" textLength="109" x="248" y="93.1697">mandant: string</text><text fill="#000000" font-family="sans-serif" font-size="14" lengthAdjust="spacing" textLength="138" x="248" y="112.2376">client_system: string</text><text fill="#000000" font-family="sans-serif" font-size="14" lengthAdjust="spacing" textLength="116" x="248" y="131.3055">workplace: string</text><line style="stroke:#181818;stroke-width:0.5;" x1="243" x2="438" y1="139.4075" y2="139.4075"/><text fill="#000000" font-family="sans-serif" font-size="14" lengthAdjust="spacing" textLength="31" x="248" y="158.3734">call()</text></g><path d="M47.5,41.33 L47.5,122.1541 A0,0 0 0 0 47.5,122.1541 L207.5,122.1541 A0,0 0 0 0 207.5,122.1541 L207.5,85.742 L246,152.9415 L207.5,77.742 L207.5,51.33 L197.5,41.33 L47.5,41.33 A0,0 0 0 0 47.5,41.33 " fill="#FEFFDD" filter="url(#f1jqgav61dzp93)" style="stroke:#181818;stroke-width:0.5;"/><path d="M197.5,41.33 L197.5,51.33 L207.5,51.33 L197.5,41.33 " fill="#FEFFDD" style="stroke:#181818;stroke-width:0.5;"/><text fill="#000000" font-family="sans-serif" font-size="13" font-weight="bold" lengthAdjust="spacing" textLength="42.8438" x="53.5" y="60.227">Result:</text><text fill="#000000" font-family="sans-serif" font-size="13" lengthAdjust="spacing" textLength="106" x="59.5" y="77.933">success?: Boolean</text><text fill="#000000" font-family="sans-serif" font-size="13" lengthAdjust="spacing" textLength="133" x="59.5" y="95.639">error_messages: Array</text><text fill="#000000" font-family="sans-serif" font-size="13" lengthAdjust="spacing" textLength="92" x="59.5" y="113.3451">response: Hash</text><!--class gri--><g id="elem_gri"><rect codeLine="20" fill="#FFF1D9" filter="url(#f1jqgav61dzp93)" height="121.3396" id="gri" rx="5" ry="5" style="stroke:#181818;stroke-width:0.5;" width="197" x="242" y="228.93"/><rect fill="#FFD080" height="48.1358" rx="5" ry="5" style="stroke:#FFD080;stroke-width:0.5;" width="197" x="242" y="228.93"/><rect fill="#FFD080" height="5" style="stroke:#FFD080;stroke-width:0.5;" width="197" x="242" y="272.0658"/><rect codeLine="20" fill="none" height="121.3396" id="gri" rx="5" ry="5" style="stroke:#181818;stroke-width:0.5;" width="197" x="242" y="228.93"/><ellipse cx="257" cy="252.9979" fill="#ADD1B2" rx="11" ry="11" style="stroke:#181818;stroke-width:1.0;"/><path d="M257.1094,248.5292 Q256.1875,248.5292 255.4531,248.8417 Q254.7344,249.1542 254.2344,249.7479 Q253.7344,250.326 253.4531,251.201 Q253.1875,252.076 253.1875,253.1698 Q253.1875,254.6073 253.625,255.6542 Q254.0781,256.701 254.9219,257.2479 Q255.7813,257.7948 257.0938,257.7948 Q257.875,257.7948 258.5625,257.6698 Q259.2656,257.5292 260.2656,257.2167 L260.2656,259.0917 Q259.4063,259.4198 258.6406,259.5448 Q257.8906,259.6698 256.875,259.6698 Q254.9531,259.6698 253.6406,258.8729 Q252.3438,258.0604 251.6875,256.5917 Q251.0313,255.1073 251.0313,253.1385 Q251.0313,251.7167 251.4219,250.5448 Q251.8281,249.3573 252.6094,248.4823 Q253.3906,247.6073 254.5313,247.1385 Q255.6719,246.6542 257.1406,246.6542 Q258.0938,246.6542 258.9844,246.8573 Q259.8906,247.0448 260.8281,247.5135 L260,249.2948 Q259.2188,248.9198 258.5625,248.7323 Q257.9063,248.5292 257.1094,248.5292 Z " fill="#000000"/><text fill="#000000" font-family="sans-serif" font-size="14" lengthAdjust="spacing" textLength="55" x="326" y="248.8959">Cocard::</text><text fill="#000000" font-family="sans-serif" font-size="14" lengthAdjust="spacing" textLength="165" x="271" y="267.9639">GetResourceInformation</text><line style="stroke:#181818;stroke-width:0.5;" x1="243" x2="438" y1="277.0658" y2="277.0658"/><text fill="#000000" font-family="sans-serif" font-size="14" lengthAdjust="spacing" textLength="116" x="248" y="296.0318">connector: object</text><text fill="#000000" font-family="sans-serif" font-size="14" lengthAdjust="spacing" textLength="98" x="248" y="315.0997">context: object</text><line style="stroke:#181818;stroke-width:0.5;" x1="243" x2="438" y1="323.2017" y2="323.2017"/><text fill="#000000" font-family="sans-serif" font-size="14" lengthAdjust="spacing" textLength="31" x="248" y="342.1676">call()</text></g><path d="M6,226.48 L6,342.7161 A0,0 0 0 0 6,342.7161 L207,342.7161 A0,0 0 0 0 207,342.7161 L207,288.598 L246,336.7356 L207,280.598 L207,236.48 L197,226.48 L6,226.48 A0,0 0 0 0 6,226.48 " fill="#FFD700" filter="url(#f1jqgav61dzp93)" style="stroke:#181818;stroke-width:0.5;"/><path d="M197,226.48 L197,236.48 L207,236.48 L197,226.48 " fill="#FFD700" style="stroke:#181818;stroke-width:0.5;"/><text fill="#000000" font-family="sans-serif" font-size="13" font-weight="bold" lengthAdjust="spacing" textLength="42.8438" x="12" y="245.377">Result:</text><text fill="#000000" font-family="sans-serif" font-size="13" lengthAdjust="spacing" textLength="106" x="18" y="263.083">success?: Boolean</text><text fill="#000000" font-family="sans-serif" font-size="13" lengthAdjust="spacing" textLength="133" x="18" y="280.789">error_messages: Array</text><text fill="#000000" font-family="sans-serif" font-size="13" lengthAdjust="spacing" textLength="174" x="18" y="298.4951">resource_information: Object</text><text fill="#000000" font-family="sans-serif" font-size="13" font-weight="bold" lengthAdjust="spacing" textLength="112.0938" x="12" y="316.2011">Create or Update:</text><text fill="#000000" font-family="sans-serif" font-size="13" lengthAdjust="spacing" textLength="63" x="18" y="333.9071">Connector</text><!--class gri_job--><g id="elem_gri_job"><rect codeLine="35" fill="#FFF1D9" filter="url(#f1jqgav61dzp93)" height="83.2038" id="gri_job" rx="5" ry="5" style="stroke:#181818;stroke-width:0.5;" width="218" x="231.5" y="412.72"/><rect fill="#FFD080" height="48.1358" rx="5" ry="5" style="stroke:#FFD080;stroke-width:0.5;" width="218" x="231.5" y="412.72"/><rect fill="#FFD080" height="5" style="stroke:#FFD080;stroke-width:0.5;" width="218" x="231.5" y="455.8558"/><rect codeLine="35" fill="none" height="83.2038" id="gri_job" rx="5" ry="5" style="stroke:#181818;stroke-width:0.5;" width="218" x="231.5" y="412.72"/><ellipse cx="246.5" cy="436.7879" fill="#ADD1B2" rx="11" ry="11" style="stroke:#181818;stroke-width:1.0;"/><path d="M246.6094,432.3192 Q245.6875,432.3192 244.9531,432.6317 Q244.2344,432.9442 243.7344,433.5379 Q243.2344,434.116 242.9531,434.991 Q242.6875,435.866 242.6875,436.9598 Q242.6875,438.3973 243.125,439.4442 Q243.5781,440.491 244.4219,441.0379 Q245.2813,441.5848 246.5938,441.5848 Q247.375,441.5848 248.0625,441.4598 Q248.7656,441.3192 249.7656,441.0067 L249.7656,442.8817 Q248.9063,443.2098 248.1406,443.3348 Q247.3906,443.4598 246.375,443.4598 Q244.4531,443.4598 243.1406,442.6629 Q241.8438,441.8504 241.1875,440.3817 Q240.5313,438.8973 240.5313,436.9285 Q240.5313,435.5067 240.9219,434.3348 Q241.3281,433.1473 242.1094,432.2723 Q242.8906,431.3973 244.0313,430.9285 Q245.1719,430.4442 246.6406,430.4442 Q247.5938,430.4442 248.4844,430.6473 Q249.3906,430.8348 250.3281,431.3035 L249.5,433.0848 Q248.7188,432.7098 248.0625,432.5223 Q247.4063,432.3192 246.6094,432.3192 Z " fill="#000000"/><text fill="#000000" font-family="sans-serif" font-size="14" lengthAdjust="spacing" textLength="55" x="326" y="432.6859">Cocard::</text><text fill="#000000" font-family="sans-serif" font-size="14" lengthAdjust="spacing" textLength="186" x="260.5" y="451.7539">GetResourceInformationJob</text><line style="stroke:#181818;stroke-width:0.5;" x1="232.5" x2="448.5" y1="460.8558" y2="460.8558"/><line style="stroke:#181818;stroke-width:0.5;" x1="232.5" x2="448.5" y1="468.8558" y2="468.8558"/><text fill="#000000" font-family="sans-serif" font-size="14" lengthAdjust="spacing" textLength="63" x="237.5" y="487.8218">perform()</text></g><!--link soap_gri to gri--><g id="link_soap_gri_gri"><path codeLine="39" d="M340.5,166.84 C340.5,187.37 340.5,209.14 340.5,228.52 " fill="none" id="soap_gri-gri" style="stroke:#181818;stroke-width:1.0;"/></g><!--link gri to gri_job--><g id="link_gri_gri_job"><path codeLine="40" d="M340.5,350.73 C340.5,371.37 340.5,393.97 340.5,412.69 " fill="none" id="gri-gri_job" style="stroke:#181818;stroke-width:1.0;"/></g><!--SRC=[fL9BIyD04BxlhnZhHGFj3zYBr1vyN2gADo5iDfCqTRCJPYPe4V-xcuO-a1O4RyEttyxtO9GwK8A2LAc5ic7qsb0qva9Ns29uyevBg3YzpcR6-E14GCXrUSqDE879OaknzcKvVxBsBTwXFgDGpnuVOaNSkc7Z1BuCf7Kn9WLY2rIiqvImriNIHRKWoasi1rPeC6ek6r5iZ_0FulSkE8_7N1V2rRNvDYQI8WIi5AZQExHs89WiIvRwe3RBqX_flKUH6mktH05TJ1Wo4-TjWbsDOc7Ex3O9PvIEeYJ9UoShWx64GMZNnEyIpiS_cpzXYfzwZ9pEj8y3bpM5yd-XjWRpvk3GmdBKpx85eqkwnF3QbMaQ1HOxxwTAoDTK_Ac8Hoh6K-YG1t3CkJ-ewNJOPWxZiFW7]--></g></svg>