<?xml version="1.0" encoding="us-ascii" standalone="no"?><svg xmlns="http://www.w3.org/2000/svg" xmlns:xlink="http://www.w3.org/1999/xlink" contentStyleType="text/css" height="383px" preserveAspectRatio="none" style="width:399px;height:383px;background:#FFFFFF;" version="1.1" viewBox="0 0 399 383" width="399px" zoomAndPan="magnify"><defs><filter height="300%" id="f1qxjsj098iyvq" width="300%" x="-1" y="-1"><feGaussianBlur result="blurOut" stdDeviation="2.0"/><feColorMatrix in="blurOut" result="blurOut2" type="matrix" values="0 0 0 0 0 0 0 0 0 0 0 0 0 0 0 0 0 0 .4 0"/><feOffset dx="4.0" dy="4.0" in="blurOut2" result="blurOut3"/><feBlend in="SourceGraphic" in2="blurOut3" mode="normal"/></filter></defs><g><!--class soap_rcert--><g id="elem_soap_rcert"><rect codeLine="5" fill="#FFF1D9" filter="url(#f1qxjsj098iyvq)" height="178.5433" id="soap_rcert" rx="5" ry="5" style="stroke:#181818;stroke-width:0.5;" width="167" x="218" y="7"/><rect fill="#FFD080" height="48.1358" rx="5" ry="5" style="stroke:#FFD080;stroke-width:0.5;" width="167" x="218" y="7"/><rect fill="#FFD080" height="5" style="stroke:#FFD080;stroke-width:0.5;" width="167" x="218" y="50.1358"/><rect codeLine="5" fill="none" height="178.5433" id="soap_rcert" rx="5" ry="5" style="stroke:#181818;stroke-width:0.5;" width="167" x="218" y="7"/><ellipse cx="233" cy="31.0679" fill="#ADD1B2" rx="11" ry="11" style="stroke:#181818;stroke-width:1.0;"/><path d="M233.1094,26.5992 Q232.1875,26.5992 231.4531,26.9117 Q230.7344,27.2242 230.2344,27.8179 Q229.7344,28.396 229.4531,29.271 Q229.1875,30.146 229.1875,31.2398 Q229.1875,32.6773 229.625,33.7242 Q230.0781,34.771 230.9219,35.3179 Q231.7813,35.8648 233.0938,35.8648 Q233.875,35.8648 234.5625,35.7398 Q235.2656,35.5992 236.2656,35.2867 L236.2656,37.1617 Q235.4063,37.4898 234.6406,37.6148 Q233.8906,37.7398 232.875,37.7398 Q230.9531,37.7398 229.6406,36.9429 Q228.3438,36.1304 227.6875,34.6617 Q227.0313,33.1773 227.0313,31.2085 Q227.0313,29.7867 227.4219,28.6148 Q227.8281,27.4273 228.6094,26.5523 Q229.3906,25.6773 230.5313,25.2085 Q231.6719,24.7242 233.1406,24.7242 Q234.0938,24.7242 234.9844,24.9273 Q235.8906,25.1148 236.8281,25.5835 L236,27.3648 Q235.2188,26.9898 234.5625,26.8023 Q233.9063,26.5992 233.1094,26.5992 Z " fill="#000000"/><text fill="#000000" font-family="sans-serif" font-size="14" lengthAdjust="spacing" textLength="99" x="265" y="26.9659">Cocard::SOAP::</text><text fill="#000000" font-family="sans-serif" font-size="14" lengthAdjust="spacing" textLength="135" x="247" y="46.0339">ReadCardCertificate</text><line style="stroke:#181818;stroke-width:0.5;" x1="219" x2="384" y1="55.1358" y2="55.1358"/><text fill="#000000" font-family="sans-serif" font-size="14" lengthAdjust="spacing" textLength="116" x="224" y="74.1018">connector: object</text><text fill="#000000" font-family="sans-serif" font-size="14" lengthAdjust="spacing" textLength="109" x="224" y="93.1697">mandant: string</text><text fill="#000000" font-family="sans-serif" font-size="14" lengthAdjust="spacing" textLength="138" x="224" y="112.2376">client_system: string</text><text fill="#000000" font-family="sans-serif" font-size="14" lengthAdjust="spacing" textLength="116" x="224" y="131.3055">workplace: string</text><text fill="#000000" font-family="sans-serif" font-size="14" lengthAdjust="spacing" textLength="131" x="224" y="150.3734">card_handle: string</text><line style="stroke:#181818;stroke-width:0.5;" x1="219" x2="384" y1="158.4754" y2="158.4754"/><text fill="#000000" font-family="sans-serif" font-size="14" lengthAdjust="spacing" textLength="31" x="224" y="177.4414">call()</text></g><path d="M23.5,50.86 L23.5,131.6841 A0,0 0 0 0 23.5,131.6841 L183.5,131.6841 A0,0 0 0 0 183.5,131.6841 L183.5,95.272 L222,172.0094 L183.5,87.272 L183.5,60.86 L173.5,50.86 L23.5,50.86 A0,0 0 0 0 23.5,50.86 " fill="#FEFFDD" filter="url(#f1qxjsj098iyvq)" style="stroke:#181818;stroke-width:0.5;"/><path d="M173.5,50.86 L173.5,60.86 L183.5,60.86 L173.5,50.86 " fill="#FEFFDD" style="stroke:#181818;stroke-width:0.5;"/><text fill="#000000" font-family="sans-serif" font-size="13" font-weight="bold" lengthAdjust="spacing" textLength="42.8438" x="29.5" y="69.757">Result:</text><text fill="#000000" font-family="sans-serif" font-size="13" lengthAdjust="spacing" textLength="106" x="35.5" y="87.463">success?: Boolean</text><text fill="#000000" font-family="sans-serif" font-size="13" lengthAdjust="spacing" textLength="133" x="35.5" y="105.169">error_messages: Array</text><text fill="#000000" font-family="sans-serif" font-size="13" lengthAdjust="spacing" textLength="92" x="35.5" y="122.8751">response: Hash</text><!--class rcert--><g id="elem_rcert"><rect codeLine="21" fill="#FFF1D9" filter="url(#f1qxjsj098iyvq)" height="121.3396" id="rcert" rx="5" ry="5" style="stroke:#181818;stroke-width:0.5;" width="124" x="239.5" y="247.99"/><rect fill="#FFD080" height="48.1358" rx="5" ry="5" style="stroke:#FFD080;stroke-width:0.5;" width="124" x="239.5" y="247.99"/><rect fill="#FFD080" height="5" style="stroke:#FFD080;stroke-width:0.5;" width="124" x="239.5" y="291.1258"/><rect codeLine="21" fill="none" height="121.3396" id="rcert" rx="5" ry="5" style="stroke:#181818;stroke-width:0.5;" width="124" x="239.5" y="247.99"/><ellipse cx="254.5" cy="272.0579" fill="#ADD1B2" rx="11" ry="11" style="stroke:#181818;stroke-width:1.0;"/><path d="M254.6094,267.5892 Q253.6875,267.5892 252.9531,267.9017 Q252.2344,268.2142 251.7344,268.8079 Q251.2344,269.386 250.9531,270.261 Q250.6875,271.136 250.6875,272.2298 Q250.6875,273.6673 251.125,274.7142 Q251.5781,275.761 252.4219,276.3079 Q253.2813,276.8548 254.5938,276.8548 Q255.375,276.8548 256.0625,276.7298 Q256.7656,276.5892 257.7656,276.2767 L257.7656,278.1517 Q256.9063,278.4798 256.1406,278.6048 Q255.3906,278.7298 254.375,278.7298 Q252.4531,278.7298 251.1406,277.9329 Q249.8438,277.1204 249.1875,275.6517 Q248.5313,274.1673 248.5313,272.1985 Q248.5313,270.7767 248.9219,269.6048 Q249.3281,268.4173 250.1094,267.5423 Q250.8906,266.6673 252.0313,266.1985 Q253.1719,265.7142 254.6406,265.7142 Q255.5938,265.7142 256.4844,265.9173 Q257.3906,266.1048 258.3281,266.5735 L257.5,268.3548 Q256.7188,267.9798 256.0625,267.7923 Q255.4063,267.5892 254.6094,267.5892 Z " fill="#000000"/><text fill="#000000" font-family="sans-serif" font-size="14" lengthAdjust="spacing" textLength="55" x="287" y="267.9559">Cocard::</text><text fill="#000000" font-family="sans-serif" font-size="14" lengthAdjust="spacing" textLength="92" x="268.5" y="287.0239">GetCertificate</text><line style="stroke:#181818;stroke-width:0.5;" x1="240.5" x2="362.5" y1="296.1258" y2="296.1258"/><text fill="#000000" font-family="sans-serif" font-size="14" lengthAdjust="spacing" textLength="79" x="245.5" y="315.0918">card: object</text><text fill="#000000" font-family="sans-serif" font-size="14" lengthAdjust="spacing" textLength="98" x="245.5" y="334.1597">context: object</text><line style="stroke:#181818;stroke-width:0.5;" x1="240.5" x2="362.5" y1="342.2617" y2="342.2617"/><text fill="#000000" font-family="sans-serif" font-size="14" lengthAdjust="spacing" textLength="31" x="245.5" y="361.2276">call()</text></g><path d="M6,245.54 L6,361.7761 A0,0 0 0 0 6,361.7761 L205,361.7761 A0,0 0 0 0 205,361.7761 L205,307.658 L243.5,355.7956 L205,299.658 L205,255.54 L195,245.54 L6,245.54 A0,0 0 0 0 6,245.54 " fill="#FFD700" filter="url(#f1qxjsj098iyvq)" style="stroke:#181818;stroke-width:0.5;"/><path d="M195,245.54 L195,255.54 L205,255.54 L195,245.54 " fill="#FFD700" style="stroke:#181818;stroke-width:0.5;"/><text fill="#000000" font-family="sans-serif" font-size="13" font-weight="bold" lengthAdjust="spacing" textLength="42.8438" x="12" y="264.437">Result:</text><text fill="#000000" font-family="sans-serif" font-size="13" lengthAdjust="spacing" textLength="106" x="18" y="282.143">success?: Boolean</text><text fill="#000000" font-family="sans-serif" font-size="13" lengthAdjust="spacing" textLength="133" x="18" y="299.849">error_messages: Array</text><text fill="#000000" font-family="sans-serif" font-size="13" lengthAdjust="spacing" textLength="172" x="18" y="317.5551">certificate: Cocard::Certificate</text><text fill="#000000" font-family="sans-serif" font-size="13" font-weight="bold" lengthAdjust="spacing" textLength="112.0938" x="12" y="335.2611">Create or Update:</text><text fill="#000000" font-family="sans-serif" font-size="13" lengthAdjust="spacing" textLength="28" x="18" y="352.9671">Card</text><!--link soap_rcert to rcert--><g id="link_soap_rcert_rcert"><path codeLine="47" d="M301.5,185.89 C301.5,206.66 301.5,228.32 301.5,247.52 " fill="none" id="soap_rcert-rcert" style="stroke:#181818;stroke-width:1.0;"/></g><!--SRC=[fL8zJyCm4DtzAmuO2fNQxbvGwG1Y0HMnLOeSvz8675zqlWegn7_dGe6wK2GaDllvvTv7JgW38IX9X5ge6aOl3KLZZcI5BO8dxxY2clLrF3R61vSI979TmHvPm2KudhsJhBsxcTvQkuXpTDLCaPaIchhnJl0ONWpej1XLWDW2bGzwKgnriN9HB2JX9YvxLcWmIf4sIR3Dy2VYnouuZpbNPOgLZWZxQ0YdP-RLc4Y24B0Me3gpRMrFCSFX7DCwY1qEzQkqzXvJEhTmGHJGHSMGcRXe5NPBJ1Qcp6wZE6FgA2OLlN9fPJ1Mq4jz5lIpcqMyHDahPDj8_xWhGmiIV9OSEHmbIm4dImhLFxBudIiBdtupgpfwngW788RxhkfvxoBzFywYJmPv-kA1ocyD7DYBQogtgz4XryJjRr7xQTP-aBuI_yNMO69Cjg-ZqNQW6UpVUu4t]--></g></svg>