<?xml version="1.0" encoding="us-ascii" standalone="no"?><svg xmlns="http://www.w3.org/2000/svg" xmlns:xlink="http://www.w3.org/1999/xlink" contentStyleType="text/css" height="456px" preserveAspectRatio="none" style="width:743px;height:456px;background:#FFFFFF;" version="1.1" viewBox="0 0 743 456" width="743px" zoomAndPan="magnify"><defs><filter height="300%" id="fiwzjnmrvdbqo" width="300%" x="-1" y="-1"><feGaussianBlur result="blurOut" stdDeviation="2.0"/><feColorMatrix in="blurOut" result="blurOut2" type="matrix" values="0 0 0 0 0 0 0 0 0 0 0 0 0 0 0 0 0 0 .4 0"/><feOffset dx="4.0" dy="4.0" in="blurOut2" result="blurOut3"/><feBlend in="SourceGraphic" in2="blurOut3" mode="normal"/></filter></defs><g><!--class rmi--><g id="elem_rmi"><rect codeLine="5" fill="#FFF1D9" filter="url(#fiwzjnmrvdbqo)" height="105.2038" id="rmi" rx="5" ry="5" style="stroke:#181818;stroke-width:0.5;" width="134" x="311.5" y="7"/><rect fill="#FFD080" height="32" rx="5" ry="5" style="stroke:#FFD080;stroke-width:0.5;" width="134" x="311.5" y="7"/><rect fill="#FFD080" height="5" style="stroke:#FFD080;stroke-width:0.5;" width="134" x="311.5" y="34"/><rect codeLine="5" fill="none" height="105.2038" id="rmi" rx="5" ry="5" style="stroke:#181818;stroke-width:0.5;" width="134" x="311.5" y="7"/><ellipse cx="328.75" cy="23" fill="#B4A7E5" rx="11" ry="11" style="stroke:#181818;stroke-width:1.0;"/><path d="M330.8438,29.5 L325.9375,29.5 L325.9375,28.125 L327.3594,27.8125 L327.3594,18.5313 L325.9375,18.1875 L325.9375,16.8281 L330.8438,16.8281 L330.8438,18.1875 L329.4219,18.5313 L329.4219,27.8125 L330.8438,28.125 L330.8438,29.5 Z " fill="#000000"/><text fill="#000000" font-family="sans-serif" font-size="14" font-style="italic" lengthAdjust="spacing" textLength="97" x="343.25" y="28.432">Connector::RMI</text><line style="stroke:#181818;stroke-width:0.5;" x1="312.5" x2="444.5" y1="39" y2="39"/><text fill="#000000" font-family="sans-serif" font-size="14" lengthAdjust="spacing" textLength="67" x="317.5" y="57.9659">connector</text><line style="stroke:#181818;stroke-width:0.5;" x1="312.5" x2="444.5" y1="66.0679" y2="66.0679"/><text fill="#000000" font-family="sans-serif" font-size="14" lengthAdjust="spacing" textLength="122" x="317.5" y="85.0339">available_actions()</text><text fill="#000000" font-family="sans-serif" font-size="14" lengthAdjust="spacing" textLength="31" x="317.5" y="104.1018">call()</text></g><!--class rmi_koco--><g id="elem_rmi_koco"><rect codeLine="11" fill="#FFF1D9" filter="url(#fiwzjnmrvdbqo)" height="105.2038" id="rmi_koco" rx="5" ry="5" style="stroke:#181818;stroke-width:0.5;" width="202" x="166.5" y="172.2"/><rect fill="#FFD080" height="32" rx="5" ry="5" style="stroke:#FFD080;stroke-width:0.5;" width="202" x="166.5" y="172.2"/><rect fill="#FFD080" height="5" style="stroke:#FFD080;stroke-width:0.5;" width="202" x="166.5" y="199.2"/><rect codeLine="11" fill="none" height="105.2038" id="rmi_koco" rx="5" ry="5" style="stroke:#181818;stroke-width:0.5;" width="202" x="166.5" y="172.2"/><ellipse cx="181.5" cy="188.2" fill="#ADD1B2" rx="11" ry="11" style="stroke:#181818;stroke-width:1.0;"/><path d="M181.6094,183.7313 Q180.6875,183.7313 179.9531,184.0438 Q179.2344,184.3563 178.7344,184.95 Q178.2344,185.5281 177.9531,186.4031 Q177.6875,187.2781 177.6875,188.3719 Q177.6875,189.8094 178.125,190.8563 Q178.5781,191.9031 179.4219,192.45 Q180.2813,192.9969 181.5938,192.9969 Q182.375,192.9969 183.0625,192.8719 Q183.7656,192.7313 184.7656,192.4188 L184.7656,194.2938 Q183.9063,194.6219 183.1406,194.7469 Q182.3906,194.8719 181.375,194.8719 Q179.4531,194.8719 178.1406,194.075 Q176.8438,193.2625 176.1875,191.7938 Q175.5313,190.3094 175.5313,188.3406 Q175.5313,186.9188 175.9219,185.7469 Q176.3281,184.5594 177.1094,183.6844 Q177.8906,182.8094 179.0313,182.3406 Q180.1719,181.8563 181.6406,181.8563 Q182.5938,181.8563 183.4844,182.0594 Q184.3906,182.2469 185.3281,182.7156 L184.5,184.4969 Q183.7188,184.1219 183.0625,183.9344 Q182.4063,183.7313 181.6094,183.7313 Z " fill="#000000"/><text fill="#000000" font-family="sans-serif" font-size="14" lengthAdjust="spacing" textLength="170" x="195.5" y="193.632">Connector::RMI::KoCoBox</text><line style="stroke:#181818;stroke-width:0.5;" x1="167.5" x2="367.5" y1="204.2" y2="204.2"/><text fill="#000000" font-family="sans-serif" font-size="14" lengthAdjust="spacing" textLength="67" x="172.5" y="223.1659">connector</text><line style="stroke:#181818;stroke-width:0.5;" x1="167.5" x2="367.5" y1="231.2679" y2="231.2679"/><text fill="#000000" font-family="sans-serif" font-size="14" lengthAdjust="spacing" textLength="122" x="172.5" y="250.2339">available_actions()</text><text fill="#000000" font-family="sans-serif" font-size="14" lengthAdjust="spacing" textLength="31" x="172.5" y="269.3018">call()</text></g><g id="elem_GMN4"><path d="M6,207.1 L6,242.512 A5,5 0 0 0 11,247.512 L126,247.512 A5,5 0 0 0 131,242.512 L131,228.8 L166.01,224.8 L131,220.8 L131,212.1 L121,202.1 L11,202.1 A5,5 0 0 0 6,207.1 " fill="#FEFFDD" filter="url(#fiwzjnmrvdbqo)" style="stroke:#181818;stroke-width:0.5;"/><path d="M121,202.1 L121,209.6 A2.5,2.5 0 0 0 123.5,212.1 L131,212.1 L121,202.1 " fill="#FEFFDD" style="stroke:#181818;stroke-width:0.5;"/><text fill="#000000" font-family="sans-serif" font-size="13" lengthAdjust="spacing" textLength="104" x="12" y="220.997">available_actions:</text><ellipse cx="17.5" cy="235.012" fill="#000000" rx="2.5" ry="2.5" style="stroke:#000000;stroke-width:0.0;"/><text fill="#000000" font-family="sans-serif" font-size="13" lengthAdjust="spacing" textLength="41" x="24" y="238.703">reboot</text></g><!--class rmi_null--><g id="elem_rmi_null"><rect codeLine="21" fill="#FFF1D9" filter="url(#fiwzjnmrvdbqo)" height="105.2038" id="rmi_null" rx="5" ry="5" style="stroke:#181818;stroke-width:0.5;" width="172" x="403.5" y="172.2"/><rect fill="#FFD080" height="32" rx="5" ry="5" style="stroke:#FFD080;stroke-width:0.5;" width="172" x="403.5" y="172.2"/><rect fill="#FFD080" height="5" style="stroke:#FFD080;stroke-width:0.5;" width="172" x="403.5" y="199.2"/><rect codeLine="21" fill="none" height="105.2038" id="rmi_null" rx="5" ry="5" style="stroke:#181818;stroke-width:0.5;" width="172" x="403.5" y="172.2"/><ellipse cx="418.5" cy="188.2" fill="#ADD1B2" rx="11" ry="11" style="stroke:#181818;stroke-width:1.0;"/><path d="M418.6094,183.7313 Q417.6875,183.7313 416.9531,184.0438 Q416.2344,184.3563 415.7344,184.95 Q415.2344,185.5281 414.9531,186.4031 Q414.6875,187.2781 414.6875,188.3719 Q414.6875,189.8094 415.125,190.8563 Q415.5781,191.9031 416.4219,192.45 Q417.2813,192.9969 418.5938,192.9969 Q419.375,192.9969 420.0625,192.8719 Q420.7656,192.7313 421.7656,192.4188 L421.7656,194.2938 Q420.9063,194.6219 420.1406,194.7469 Q419.3906,194.8719 418.375,194.8719 Q416.4531,194.8719 415.1406,194.075 Q413.8438,193.2625 413.1875,191.7938 Q412.5313,190.3094 412.5313,188.3406 Q412.5313,186.9188 412.9219,185.7469 Q413.3281,184.5594 414.1094,183.6844 Q414.8906,182.8094 416.0313,182.3406 Q417.1719,181.8563 418.6406,181.8563 Q419.5938,181.8563 420.4844,182.0594 Q421.3906,182.2469 422.3281,182.7156 L421.5,184.4969 Q420.7188,184.1219 420.0625,183.9344 Q419.4063,183.7313 418.6094,183.7313 Z " fill="#000000"/><text fill="#000000" font-family="sans-serif" font-size="14" lengthAdjust="spacing" textLength="140" x="432.5" y="193.632">Connector::RMI::Null</text><line style="stroke:#181818;stroke-width:0.5;" x1="404.5" x2="574.5" y1="204.2" y2="204.2"/><text fill="#000000" font-family="sans-serif" font-size="14" lengthAdjust="spacing" textLength="67" x="409.5" y="223.1659">connector</text><line style="stroke:#181818;stroke-width:0.5;" x1="404.5" x2="574.5" y1="231.2679" y2="231.2679"/><text fill="#000000" font-family="sans-serif" font-size="14" lengthAdjust="spacing" textLength="122" x="409.5" y="250.2339">available_actions()</text><text fill="#000000" font-family="sans-serif" font-size="14" lengthAdjust="spacing" textLength="31" x="409.5" y="269.3018">call()</text></g><!--class rmi_base--><g id="elem_rmi_base"><rect codeLine="27" fill="#FFF1D9" filter="url(#fiwzjnmrvdbqo)" height="105.2038" id="rmi_base" rx="5" ry="5" style="stroke:#181818;stroke-width:0.5;" width="176" x="290.5" y="337.41"/><rect fill="#FFD080" height="32" rx="5" ry="5" style="stroke:#FFD080;stroke-width:0.5;" width="176" x="290.5" y="337.41"/><rect fill="#FFD080" height="5" style="stroke:#FFD080;stroke-width:0.5;" width="176" x="290.5" y="364.41"/><rect codeLine="27" fill="none" height="105.2038" id="rmi_base" rx="5" ry="5" style="stroke:#181818;stroke-width:0.5;" width="176" x="290.5" y="337.41"/><ellipse cx="305.5" cy="353.41" fill="#ADD1B2" rx="11" ry="11" style="stroke:#181818;stroke-width:1.0;"/><path d="M305.6094,348.9413 Q304.6875,348.9413 303.9531,349.2538 Q303.2344,349.5663 302.7344,350.16 Q302.2344,350.7381 301.9531,351.6131 Q301.6875,352.4881 301.6875,353.5819 Q301.6875,355.0194 302.125,356.0663 Q302.5781,357.1131 303.4219,357.66 Q304.2813,358.2069 305.5938,358.2069 Q306.375,358.2069 307.0625,358.0819 Q307.7656,357.9413 308.7656,357.6288 L308.7656,359.5038 Q307.9063,359.8319 307.1406,359.9569 Q306.3906,360.0819 305.375,360.0819 Q303.4531,360.0819 302.1406,359.285 Q300.8438,358.4725 300.1875,357.0038 Q299.5313,355.5194 299.5313,353.5506 Q299.5313,352.1288 299.9219,350.9569 Q300.3281,349.7694 301.1094,348.8944 Q301.8906,348.0194 303.0313,347.5506 Q304.1719,347.0663 305.6406,347.0663 Q306.5938,347.0663 307.4844,347.2694 Q308.3906,347.4569 309.3281,347.9256 L308.5,349.7069 Q307.7188,349.3319 307.0625,349.1444 Q306.4063,348.9413 305.6094,348.9413 Z " fill="#000000"/><text fill="#000000" font-family="sans-serif" font-size="14" lengthAdjust="spacing" textLength="144" x="319.5" y="358.842">Connector::RMI::Base</text><line style="stroke:#181818;stroke-width:0.5;" x1="291.5" x2="465.5" y1="369.41" y2="369.41"/><text fill="#000000" font-family="sans-serif" font-size="14" lengthAdjust="spacing" textLength="67" x="296.5" y="388.3759">connector</text><line style="stroke:#181818;stroke-width:0.5;" x1="291.5" x2="465.5" y1="396.4779" y2="396.4779"/><text fill="#000000" font-family="sans-serif" font-size="14" lengthAdjust="spacing" textLength="122" x="296.5" y="415.4439">available_actions()</text><text fill="#000000" font-family="sans-serif" font-size="14" lengthAdjust="spacing" textLength="31" x="296.5" y="434.5118">call()</text></g><g id="elem_n1"><path d="M480,50.75 L480,68.456 A5,5 0 0 0 485,73.456 L724,73.456 A5,5 0 0 0 729,68.456 L729,55.75 L719,45.75 L485,45.75 A5,5 0 0 0 480,50.75 " fill="#FEFFDD" filter="url(#fiwzjnmrvdbqo)" style="stroke:#181818;stroke-width:0.5;"/><path d="M719,45.75 L719,53.25 A2.5,2.5 0 0 0 721.5,55.75 L729,55.75 L719,45.75 " fill="#FEFFDD" style="stroke:#181818;stroke-width:1.0;"/><text fill="#000000" font-family="sans-serif" font-size="13" lengthAdjust="spacing" textLength="228" x="486" y="64.647">supported? = available_actions.size &gt; 0</text></g><!--reverse link rmi to rmi_koco--><g id="link_rmi_rmi_koco"><path codeLine="33" d="M332.948,127.5744 C320.068,146.5144 315.65,153.01 302.78,171.93 " fill="none" id="rmi-backto-rmi_koco" style="stroke:#181818;stroke-width:1.0;stroke-dasharray:7.0,7.0;"/><polygon fill="none" points="343.07,112.69,327.9865,124.2004,337.9095,130.9484,343.07,112.69" style="stroke:#181818;stroke-width:1.0;"/></g><!--reverse link rmi to rmi_null--><g id="link_rmi_rmi_null"><path codeLine="34" d="M424.052,127.5744 C436.932,146.5144 441.35,153.01 454.22,171.93 " fill="none" id="rmi-backto-rmi_null" style="stroke:#181818;stroke-width:1.0;stroke-dasharray:7.0,7.0;"/><polygon fill="none" points="413.93,112.69,419.0905,130.9484,429.0135,124.2004,413.93,112.69" style="stroke:#181818;stroke-width:1.0;"/></g><!--reverse link rmi_koco to rmi_base--><g id="link_rmi_koco_rmi_base"><path codeLine="35" d="M313.052,292.7744 C325.932,311.7144 330.35,318.22 343.22,337.14 " fill="none" id="rmi_koco-backto-rmi_base" style="stroke:#181818;stroke-width:1.0;"/><polygon fill="none" points="302.93,277.89,308.0905,296.1484,318.0135,289.4004,302.93,277.89" style="stroke:#181818;stroke-width:1.0;"/></g><!--reverse link rmi_null to rmi_base--><g id="link_rmi_null_rmi_base"><path codeLine="36" d="M443.948,292.7744 C431.068,311.7144 426.65,318.22 413.78,337.14 " fill="none" id="rmi_null-backto-rmi_base" style="stroke:#181818;stroke-width:1.0;"/><polygon fill="none" points="454.07,277.89,438.9865,289.4004,448.9095,296.1484,454.07,277.89" style="stroke:#181818;stroke-width:1.0;"/></g><!--SRC=[hP5DImCn48Rlyol6dbHeqEjI5TgJ53tu1qesEul1R6P9faMq_dSdVgJM8YYOqtnadhplH7X4OMnPX0ViV28ddYF0aTpJGEZOsTHXdxHh382FGgctZd2ou1ZrDgUckRkvdg3Dc0QFpu0wzT7Is6wi3xODjB9lw7nyKcxO43Hu0N31vloTrZHBNl2S7p-ngmTs_1iswldAZoo4WNf1xYi83WORECL4BRC0nGxBr8_IRjSXL5rHa__oFBUPAhZLv4_WObpPvGzcMsDsPlSgHI_KXSwsqsbz3QgV_VBx3bLMF8Uy7aTEGjqLNXogCTa_4LxYsMw9hm00]--></g></svg>