<?xml version="1.0" encoding="us-ascii" standalone="no"?><svg xmlns="http://www.w3.org/2000/svg" xmlns:xlink="http://www.w3.org/1999/xlink" contentStyleType="text/css" height="494px" preserveAspectRatio="none" style="width:430px;height:494px;background:#FFFFFF;" version="1.1" viewBox="0 0 430 494" width="430px" zoomAndPan="magnify"><defs><filter height="300%" id="foa9ko3p0agyi" width="300%" x="-1" y="-1"><feGaussianBlur result="blurOut" stdDeviation="2.0"/><feColorMatrix in="blurOut" result="blurOut2" type="matrix" values="0 0 0 0 0 0 0 0 0 0 0 0 0 0 0 0 0 0 .4 0"/><feOffset dx="4.0" dy="4.0" in="blurOut2" result="blurOut3"/><feBlend in="SourceGraphic" in2="blurOut3" mode="normal"/></filter></defs><g><!--class rmi--><g id="elem_rmi"><rect codeLine="5" fill="#FFF1D9" filter="url(#foa9ko3p0agyi)" height="124.2717" id="rmi" rx="5" ry="5" style="stroke:#181818;stroke-width:0.5;" width="148" x="145" y="7"/><rect fill="#FFD080" height="32" rx="5" ry="5" style="stroke:#FFD080;stroke-width:0.5;" width="148" x="145" y="7"/><rect fill="#FFD080" height="5" style="stroke:#FFD080;stroke-width:0.5;" width="148" x="145" y="34"/><rect codeLine="5" fill="none" height="124.2717" id="rmi" rx="5" ry="5" style="stroke:#181818;stroke-width:0.5;" width="148" x="145" y="7"/><ellipse cx="168.55" cy="23" fill="#B4A7E5" rx="11" ry="11" style="stroke:#181818;stroke-width:1.0;"/><path d="M170.6438,29.5 L165.7375,29.5 L165.7375,28.125 L167.1594,27.8125 L167.1594,18.5313 L165.7375,18.1875 L165.7375,16.8281 L170.6438,16.8281 L170.6438,18.1875 L169.2219,18.5313 L169.2219,27.8125 L170.6438,28.125 L170.6438,29.5 Z " fill="#000000"/><text fill="#000000" font-family="sans-serif" font-size="14" font-style="italic" lengthAdjust="spacing" textLength="97" x="184.45" y="28.432">Connector::RMI</text><line style="stroke:#181818;stroke-width:0.5;" x1="146" x2="292" y1="39" y2="39"/><text fill="#000000" font-family="sans-serif" font-size="14" lengthAdjust="spacing" textLength="67" x="151" y="57.9659">connector</text><line style="stroke:#181818;stroke-width:0.5;" x1="146" x2="292" y1="66.0679" y2="66.0679"/><ellipse cx="156" cy="81.1019" fill="#84BE84" rx="3" ry="3" style="stroke:#038048;stroke-width:1.0;"/><text fill="#000000" font-family="sans-serif" font-size="14" lengthAdjust="spacing" textLength="122" x="165" y="85.0339">available_actions()</text><ellipse cx="156" cy="100.1698" fill="#84BE84" rx="3" ry="3" style="stroke:#038048;stroke-width:1.0;"/><text fill="#000000" font-family="sans-serif" font-size="14" lengthAdjust="spacing" textLength="84" x="165" y="104.1018">supported?()</text><ellipse cx="156" cy="119.2377" fill="#84BE84" rx="3" ry="3" style="stroke:#038048;stroke-width:1.0;"/><text fill="#000000" font-family="sans-serif" font-size="14" lengthAdjust="spacing" textLength="52" x="165" y="123.1697">reboot()</text></g><!--class rmi_koco--><g id="elem_rmi_koco"><rect codeLine="12" fill="#FFF1D9" filter="url(#foa9ko3p0agyi)" height="124.2717" id="rmi_koco" rx="5" ry="5" style="stroke:#181818;stroke-width:0.5;" width="202" x="7" y="191.27"/><rect fill="#FFD080" height="32" rx="5" ry="5" style="stroke:#FFD080;stroke-width:0.5;" width="202" x="7" y="191.27"/><rect fill="#FFD080" height="5" style="stroke:#FFD080;stroke-width:0.5;" width="202" x="7" y="218.27"/><rect codeLine="12" fill="none" height="124.2717" id="rmi_koco" rx="5" ry="5" style="stroke:#181818;stroke-width:0.5;" width="202" x="7" y="191.27"/><ellipse cx="22" cy="207.27" fill="#ADD1B2" rx="11" ry="11" style="stroke:#181818;stroke-width:1.0;"/><path d="M22.1094,202.8012 Q21.1875,202.8012 20.4531,203.1137 Q19.7344,203.4262 19.2344,204.02 Q18.7344,204.5981 18.4531,205.4731 Q18.1875,206.3481 18.1875,207.4419 Q18.1875,208.8794 18.625,209.9262 Q19.0781,210.9731 19.9219,211.52 Q20.7813,212.0669 22.0938,212.0669 Q22.875,212.0669 23.5625,211.9419 Q24.2656,211.8012 25.2656,211.4887 L25.2656,213.3637 Q24.4063,213.6919 23.6406,213.8169 Q22.8906,213.9419 21.875,213.9419 Q19.9531,213.9419 18.6406,213.145 Q17.3438,212.3325 16.6875,210.8637 Q16.0313,209.3794 16.0313,207.4106 Q16.0313,205.9887 16.4219,204.8169 Q16.8281,203.6294 17.6094,202.7544 Q18.3906,201.8794 19.5313,201.4106 Q20.6719,200.9262 22.1406,200.9262 Q23.0938,200.9262 23.9844,201.1294 Q24.8906,201.3169 25.8281,201.7856 L25,203.5669 Q24.2188,203.1919 23.5625,203.0044 Q22.9063,202.8012 22.1094,202.8012 Z " fill="#000000"/><text fill="#000000" font-family="sans-serif" font-size="14" lengthAdjust="spacing" textLength="170" x="36" y="212.702">Connector::RMI::KoCoBox</text><line style="stroke:#181818;stroke-width:0.5;" x1="8" x2="208" y1="223.27" y2="223.27"/><text fill="#000000" font-family="sans-serif" font-size="14" lengthAdjust="spacing" textLength="67" x="13" y="242.2359">connector</text><line style="stroke:#181818;stroke-width:0.5;" x1="8" x2="208" y1="250.3379" y2="250.3379"/><ellipse cx="18" cy="265.3719" fill="#84BE84" rx="3" ry="3" style="stroke:#038048;stroke-width:1.0;"/><text fill="#000000" font-family="sans-serif" font-size="14" lengthAdjust="spacing" textLength="122" x="27" y="269.3039">available_actions()</text><ellipse cx="18" cy="284.4398" fill="#84BE84" rx="3" ry="3" style="stroke:#038048;stroke-width:1.0;"/><text fill="#000000" font-family="sans-serif" font-size="14" lengthAdjust="spacing" textLength="84" x="27" y="288.3718">supported?()</text><ellipse cx="18" cy="303.5077" fill="#84BE84" rx="3" ry="3" style="stroke:#038048;stroke-width:1.0;"/><text fill="#000000" font-family="sans-serif" font-size="14" lengthAdjust="spacing" textLength="52" x="27" y="307.4397">reboot()</text></g><!--class rmi_null--><g id="elem_rmi_null"><rect codeLine="18" fill="#FFF1D9" filter="url(#foa9ko3p0agyi)" height="105.2038" id="rmi_null" rx="5" ry="5" style="stroke:#181818;stroke-width:0.5;" width="172" x="244" y="200.81"/><rect fill="#FFD080" height="32" rx="5" ry="5" style="stroke:#FFD080;stroke-width:0.5;" width="172" x="244" y="200.81"/><rect fill="#FFD080" height="5" style="stroke:#FFD080;stroke-width:0.5;" width="172" x="244" y="227.81"/><rect codeLine="18" fill="none" height="105.2038" id="rmi_null" rx="5" ry="5" style="stroke:#181818;stroke-width:0.5;" width="172" x="244" y="200.81"/><ellipse cx="259" cy="216.81" fill="#ADD1B2" rx="11" ry="11" style="stroke:#181818;stroke-width:1.0;"/><path d="M259.1094,212.3413 Q258.1875,212.3413 257.4531,212.6538 Q256.7344,212.9663 256.2344,213.56 Q255.7344,214.1381 255.4531,215.0131 Q255.1875,215.8881 255.1875,216.9819 Q255.1875,218.4194 255.625,219.4663 Q256.0781,220.5131 256.9219,221.06 Q257.7813,221.6069 259.0938,221.6069 Q259.875,221.6069 260.5625,221.4819 Q261.2656,221.3413 262.2656,221.0288 L262.2656,222.9038 Q261.4063,223.2319 260.6406,223.3569 Q259.8906,223.4819 258.875,223.4819 Q256.9531,223.4819 255.6406,222.685 Q254.3438,221.8725 253.6875,220.4038 Q253.0313,218.9194 253.0313,216.9506 Q253.0313,215.5288 253.4219,214.3569 Q253.8281,213.1694 254.6094,212.2944 Q255.3906,211.4194 256.5313,210.9506 Q257.6719,210.4663 259.1406,210.4663 Q260.0938,210.4663 260.9844,210.6694 Q261.8906,210.8569 262.8281,211.3256 L262,213.1069 Q261.2188,212.7319 260.5625,212.5444 Q259.9063,212.3413 259.1094,212.3413 Z " fill="#000000"/><text fill="#000000" font-family="sans-serif" font-size="14" lengthAdjust="spacing" textLength="140" x="273" y="222.242">Connector::RMI::Null</text><line style="stroke:#181818;stroke-width:0.5;" x1="245" x2="415" y1="232.81" y2="232.81"/><text fill="#000000" font-family="sans-serif" font-size="14" lengthAdjust="spacing" textLength="67" x="250" y="251.7759">connector</text><line style="stroke:#181818;stroke-width:0.5;" x1="245" x2="415" y1="259.8779" y2="259.8779"/><ellipse cx="255" cy="274.9119" fill="#84BE84" rx="3" ry="3" style="stroke:#038048;stroke-width:1.0;"/><text fill="#000000" font-family="sans-serif" font-size="14" lengthAdjust="spacing" textLength="122" x="264" y="278.8439">available_actions()</text><ellipse cx="255" cy="293.9798" fill="#84BE84" rx="3" ry="3" style="stroke:#038048;stroke-width:1.0;"/><text fill="#000000" font-family="sans-serif" font-size="14" lengthAdjust="spacing" textLength="84" x="264" y="297.9118">supported?()</text></g><!--class rmi_base--><g id="elem_rmi_base"><rect codeLine="24" fill="#FFF1D9" filter="url(#foa9ko3p0agyi)" height="105.2038" id="rmi_base" rx="5" ry="5" style="stroke:#181818;stroke-width:0.5;" width="166" x="136" y="375.55"/><rect fill="#FFD080" height="32" rx="5" ry="5" style="stroke:#FFD080;stroke-width:0.5;" width="166" x="136" y="375.55"/><rect fill="#FFD080" height="5" style="stroke:#FFD080;stroke-width:0.5;" width="166" x="136" y="402.55"/><rect codeLine="24" fill="none" height="105.2038" id="rmi_base" rx="5" ry="5" style="stroke:#181818;stroke-width:0.5;" width="166" x="136" y="375.55"/><ellipse cx="151" cy="391.55" fill="#A9DCDF" rx="11" ry="11" style="stroke:#181818;stroke-width:1.0;"/><path d="M154.3438,396.8 L152.875,393.05 L148.4375,393.05 L147,396.8 L144.875,396.8 L149.8281,384.0813 L151.5781,384.0813 L156.5,396.8 L154.3438,396.8 Z M151,387.8469 Q150.9531,387.6906 150.8281,387.3313 Q150.7031,386.9719 150.5938,386.5969 Q150.4844,386.2063 150.6875,386.1438 Q150.8438,386.3313 150.75,386.6906 Q150.6563,387.0344 150.5625,387.3313 Q150.4688,387.6125 150.3906,387.8469 L149.1563,391.1594 L152.2344,391.1594 L151,387.8469 Z " fill="#000000"/><text fill="#000000" font-family="sans-serif" font-size="14" font-style="italic" lengthAdjust="spacing" textLength="134" x="165" y="396.982">Connector::RMI::Base</text><line style="stroke:#181818;stroke-width:0.5;" x1="137" x2="301" y1="407.55" y2="407.55"/><text fill="#000000" font-family="sans-serif" font-size="14" lengthAdjust="spacing" textLength="67" x="142" y="426.5159">connector</text><line style="stroke:#181818;stroke-width:0.5;" x1="137" x2="301" y1="434.6179" y2="434.6179"/><polygon fill="#FFFF44" points="147,444.6519,151,448.6519,147,452.6519,143,448.6519" style="stroke:#B38D22;stroke-width:1.0;"/><text fill="#000000" font-family="sans-serif" font-size="14" lengthAdjust="spacing" textLength="122" x="156" y="453.5839">available_actions()</text><ellipse cx="147" cy="468.7198" fill="#84BE84" rx="3" ry="3" style="stroke:#038048;stroke-width:1.0;"/><text fill="#000000" font-family="sans-serif" font-size="14" lengthAdjust="spacing" textLength="84" x="156" y="472.6518">supported?()</text></g><!--reverse link rmi to rmi_koco--><g id="link_rmi_rmi_koco"><path codeLine="30" d="M172.2141,146.9614 C160.5641,166.0814 157.1,171.79 145.45,190.91 " fill="none" id="rmi-backto-rmi_koco" style="stroke:#181818;stroke-width:1.0;stroke-dasharray:7.0,7.0;"/><polygon fill="none" points="181.58,131.59,167.0903,143.8394,177.3379,150.0834,181.58,131.59" style="stroke:#181818;stroke-width:1.0;"/></g><!--reverse link rmi to rmi_null--><g id="link_rmi_rmi_null"><path codeLine="31" d="M265.783,146.9632 C279.383,169.2932 285.24,178.91 298.29,200.34 " fill="none" id="rmi-backto-rmi_null" style="stroke:#181818;stroke-width:1.0;stroke-dasharray:7.0,7.0;"/><polygon fill="none" points="256.42,131.59,260.6586,150.0842,270.9074,143.8422,256.42,131.59" style="stroke:#181818;stroke-width:1.0;"/></g><!--reverse link rmi_koco to rmi_base--><g id="link_rmi_koco_rmi_base"><path codeLine="32" d="M157.1809,330.943 C169.6409,350.333 173.55,356.43 185.56,375.1 " fill="none" id="rmi_koco-backto-rmi_base" style="stroke:#181818;stroke-width:1.0;"/><polygon fill="none" points="147.45,315.8,152.1332,334.1866,162.2285,327.6994,147.45,315.8" style="stroke:#181818;stroke-width:1.0;"/></g><!--reverse link rmi_null to rmi_base--><g id="link_rmi_null_rmi_base"><path codeLine="33" d="M286.9657,321.3808 C272.9757,343.1408 266.47,353.27 252.47,375.06 " fill="none" id="rmi_null-backto-rmi_base" style="stroke:#181818;stroke-width:1.0;"/><polygon fill="none" points="296.7,306.24,281.9187,318.136,292.0126,324.6255,296.7,306.24" style="stroke:#181818;stroke-width:1.0;"/></g><!--SRC=[dP5DQWCn38NtEeMQR5f2vW13e92iIaaMlK2GFGurzLY3h8H2qxj7qnz36af3lT9xaltnPEK1bT6nAlVOHGbU8sU06tqEVK3FdgJ3dLYtQG1YrY0xyW4dAyxPfbdQzcdzC44gA7t4Dq2xzTMoUaO7YebS2blwUBlSterssGy3YuRk_bDBSCngzJk0JrJAJqBRFlAAb_pwZTg-iEUhU6Zd3-OloCq-fShB9lwNppAHAoesSSbOKWcLuKnSCAPNCCQ8XXc_O75ichgWSsUC07LtY-DyNgbG8vxRS080]--></g></svg>