<?xml version="1.0" encoding="us-ascii" standalone="no"?><svg xmlns="http://www.w3.org/2000/svg" xmlns:xlink="http://www.w3.org/1999/xlink" contentStyleType="text/css" height="315px" preserveAspectRatio="none" style="width:781px;height:315px;background:#FFFFFF;" version="1.1" viewBox="0 0 781 315" width="781px" zoomAndPan="magnify"><defs><filter height="300%" id="fen8w1tmxsyhz" width="300%" x="-1" y="-1"><feGaussianBlur result="blurOut" stdDeviation="2.0"/><feColorMatrix in="blurOut" result="blurOut2" type="matrix" values="0 0 0 0 0 0 0 0 0 0 0 0 0 0 0 0 0 0 .4 0"/><feOffset dx="4.0" dy="4.0" in="blurOut2" result="blurOut3"/><feBlend in="SourceGraphic" in2="blurOut3" mode="normal"/></filter></defs><g><!--entity network--><g id="elem_network"><rect fill="#90EE90" filter="url(#fen8w1tmxsyhz)" height="58.1358" rx="5" ry="5" style="stroke:#181818;stroke-width:0.5;" width="117" x="324.5" y="7"/><text fill="#000000" font-family="sans-serif" font-size="14" lengthAdjust="spacing" textLength="56" x="334.5" y="31.9659">Network</text><text fill="#000000" font-family="sans-serif" font-size="14" font-style="italic" lengthAdjust="spacing" textLength="97" x="334.5" y="51.0339">cocard.network</text></g><!--entity cocard--><g id="elem_cocard"><rect fill="#FFD700" filter="url(#fen8w1tmxsyhz)" height="58.1358" rx="5" ry="5" style="stroke:#181818;stroke-width:0.5;" width="126" x="225" y="125.14"/><text fill="#000000" font-family="sans-serif" font-size="14" font-weight="bold" lengthAdjust="spacing" textLength="47.625" x="235" y="150.1059">cocard</text><text fill="#000000" font-family="sans-serif" font-size="14" font-style="italic" lengthAdjust="spacing" textLength="106" x="235" y="169.1739">cocard.container</text></g><!--entity worker--><g id="elem_worker"><rect fill="#FFD700" filter="url(#fen8w1tmxsyhz)" height="58.1358" rx="5" ry="5" style="stroke:#181818;stroke-width:0.5;" width="174" x="11" y="125.14"/><text fill="#000000" font-family="sans-serif" font-size="14" font-weight="bold" lengthAdjust="spacing" textLength="101.6875" x="21" y="150.1059">cocard-worker</text><text fill="#000000" font-family="sans-serif" font-size="14" font-style="italic" lengthAdjust="spacing" textLength="154" x="21" y="169.1739">cocard-worker.container</text></g><!--entity postgres--><g id="elem_postgres"><rect fill="#FFD700" filter="url(#fen8w1tmxsyhz)" height="58.1358" rx="5" ry="5" style="stroke:#181818;stroke-width:0.5;" width="184" x="387" y="125.14"/><text fill="#000000" font-family="sans-serif" font-size="14" font-weight="bold" lengthAdjust="spacing" textLength="115.5625" x="397" y="150.1059">cocard-postgres</text><text fill="#000000" font-family="sans-serif" font-size="14" font-style="italic" lengthAdjust="spacing" textLength="164" x="397" y="169.1739">cocard-postgres.container</text></g><!--entity redis--><g id="elem_redis"><rect fill="#FFD700" filter="url(#fen8w1tmxsyhz)" height="58.1358" rx="5" ry="5" style="stroke:#181818;stroke-width:0.5;" width="161" x="606.5" y="125.14"/><text fill="#000000" font-family="sans-serif" font-size="14" font-weight="bold" lengthAdjust="spacing" textLength="89.25" x="616.5" y="150.1059">cocard-redis</text><text fill="#000000" font-family="sans-serif" font-size="14" font-style="italic" lengthAdjust="spacing" textLength="141" x="616.5" y="169.1739">cocard-redis.container</text></g><!--entity v_postgres--><g id="elem_v_postgres"><rect fill="#F1F1F1" filter="url(#fen8w1tmxsyhz)" height="58.1358" rx="35" ry="35" style="stroke:#181818;stroke-width:0.5;" width="178" x="397" y="243.27"/><text fill="#000000" font-family="sans-serif" font-size="14" font-weight="bold" lengthAdjust="spacing" textLength="115.5625" x="407" y="268.2359">cocard-postgres</text><text fill="#000000" font-family="sans-serif" font-size="14" font-style="italic" lengthAdjust="spacing" textLength="150" x="407" y="287.3039">cocard-postgres.volume</text><text fill="#000000" font-family="sans-serif" font-size="14" lengthAdjust="spacing" textLength="8" x="557" y="287.3039">&#160;&#160;</text></g><!--entity v_redis--><g id="elem_v_redis"><rect fill="#F1F1F1" filter="url(#fen8w1tmxsyhz)" height="58.1358" rx="35" ry="35" style="stroke:#181818;stroke-width:0.5;" width="155" x="610.5" y="243.27"/><text fill="#000000" font-family="sans-serif" font-size="14" font-weight="bold" lengthAdjust="spacing" textLength="89.25" x="620.5" y="268.2359">cocard-redis</text><text fill="#000000" font-family="sans-serif" font-size="14" font-style="italic" lengthAdjust="spacing" textLength="127" x="620.5" y="287.3039">cocard-redis.volume</text><text fill="#000000" font-family="sans-serif" font-size="14" lengthAdjust="spacing" textLength="8" x="747.5" y="287.3039">&#160;&#160;</text></g><!--entity v_storage--><g id="elem_v_storage"><rect fill="#F1F1F1" filter="url(#fen8w1tmxsyhz)" height="58.1358" rx="35" ry="35" style="stroke:#181818;stroke-width:0.5;" width="172" x="7" y="243.27"/><text fill="#000000" font-family="sans-serif" font-size="14" font-weight="bold" lengthAdjust="spacing" textLength="107.125" x="17" y="268.2359">cocard-storage</text><text fill="#000000" font-family="sans-serif" font-size="14" font-style="italic" lengthAdjust="spacing" textLength="144" x="17" y="287.3039">cocard-storage.volume</text><text fill="#000000" font-family="sans-serif" font-size="14" lengthAdjust="spacing" textLength="8" x="161" y="287.3039">&#160;&#160;</text></g><!--entity v_tmp--><g id="elem_v_tmp"><rect fill="#F1F1F1" filter="url(#fen8w1tmxsyhz)" height="58.1358" rx="35" ry="35" style="stroke:#181818;stroke-width:0.5;" width="149" x="213.5" y="243.27"/><text fill="#000000" font-family="sans-serif" font-size="14" font-weight="bold" lengthAdjust="spacing" textLength="81.375" x="223.5" y="268.2359">cocard-tmp</text><text fill="#000000" font-family="sans-serif" font-size="14" font-style="italic" lengthAdjust="spacing" textLength="121" x="223.5" y="287.3039">cocard-tmp.volume</text><text fill="#000000" font-family="sans-serif" font-size="14" lengthAdjust="spacing" textLength="8" x="344.5" y="287.3039">&#160;&#160;</text></g><!--entity env--><g id="elem_env"><path d="M476.5,21.54 L476.5,50.6079 A5,5 0 0 0 481.5,55.6079 L602.5,55.6079 A5,5 0 0 0 607.5,50.6079 L607.5,26.54 L597.5,16.54 L481.5,16.54 A5,5 0 0 0 476.5,21.54 " fill="#ADD8E6" filter="url(#fen8w1tmxsyhz)" style="stroke:#181818;stroke-width:0.5;"/><path d="M597.5,16.54 L597.5,21.54 A5,5 0 0 0 602.5,26.54 L607.5,26.54 " fill="#ADD8E6" style="stroke:#181818;stroke-width:0.5;"/><text fill="#000000" font-family="sans-serif" font-size="14" lengthAdjust="spacing" textLength="111" x="486.5" y="41.5059">./env.production</text></g><!--entity yml--><g id="elem_yml"><path d="M642,12 L642,60.1358 A5,5 0 0 0 647,65.1358 L739,65.1358 A5,5 0 0 0 744,60.1358 L744,17 L734,7 L647,7 A5,5 0 0 0 642,12 " fill="#ADD8E6" filter="url(#fen8w1tmxsyhz)" style="stroke:#181818;stroke-width:0.5;"/><path d="M734,7 L734,12 A5,5 0 0 0 739,17 L744,17 " fill="#ADD8E6" style="stroke:#181818;stroke-width:0.5;"/><text fill="#000000" font-family="sans-serif" font-size="14" font-style="italic" lengthAdjust="spacing" textLength="67" x="659.5" y="31.9659">&#171;optional&#187;</text><text fill="#000000" font-family="sans-serif" font-size="14" lengthAdjust="spacing" textLength="82" x="652" y="51.0339">./cocard.yml</text></g><!--reverse link network to cocard--><g id="link_network_cocard"><path codeLine="57" d="M356.5947,69.3506 C341.8747,87.3506 326.07,106.67 311.33,124.69 " fill="none" id="network-backto-cocard" style="stroke:#181818;stroke-width:1.0;"/><rect fill="#FFFFFF" height="10" style="stroke:#181818;stroke-width:1.5;" width="10" x="354.76" y="60.48"/></g><!--reverse link network to postgres--><g id="link_network_postgres"><path codeLine="58" d="M409.6657,69.3337 C424.5457,87.3337 440.53,106.67 455.43,124.69 " fill="none" id="network-backto-postgres" style="stroke:#181818;stroke-width:1.0;"/><rect fill="#FFFFFF" height="10" style="stroke:#181818;stroke-width:1.5;" width="10" x="401.48" y="60.48"/></g><!--reverse link network to redis--><g id="link_network_redis"><path codeLine="59" d="M446.6408,61.3843 C495.2508,79.9543 559.81,104.61 612.29,124.66 " fill="none" id="network-backto-redis" style="stroke:#181818;stroke-width:1.0;"/><rect fill="#FFFFFF" height="10" style="stroke:#181818;stroke-width:1.5;" width="10" x="436.97" y="54.6"/></g><!--reverse link network to worker--><g id="link_network_worker"><path codeLine="60" d="M319.66,62.8775 C274.28,81.3775 215.95,105.14 167.95,124.7 " fill="none" id="network-backto-worker" style="stroke:#181818;stroke-width:1.0;"/><rect fill="#FFFFFF" height="10" style="stroke:#181818;stroke-width:1.5;" width="10" x="319.29" y="55.99"/></g><!--link cocard to v_storage--><g id="link_cocard_v_storage"><path codeLine="62" d="M240.3,183.62 C210.08,201.61 175.4362,222.2522 145.1862,240.2622 " fill="none" id="cocard-to-v_storage" style="stroke:#181818;stroke-width:1.0;"/><rect fill="#FFFFFF" height="10" style="stroke:#181818;stroke-width:1.5;" width="10" x="135.89" y="237.82"/></g><!--link cocard to v_tmp--><g id="link_cocard_v_tmp"><path codeLine="63" d="M288,183.62 C288,201.61 288,219.81 288,237.82 " fill="none" id="cocard-to-v_tmp" style="stroke:#181818;stroke-width:1.0;"/><rect fill="#FFFFFF" height="10" style="stroke:#181818;stroke-width:1.5;" width="10" x="283" y="237.82"/></g><!--link worker to v_storage--><g id="link_worker_v_storage"><path codeLine="65" d="M96.78,183.62 C96,201.61 95.2136,219.8146 94.4436,237.8246 " fill="none" id="worker-to-v_storage" style="stroke:#181818;stroke-width:1.0;"/><rect fill="#FFFFFF" height="10" style="stroke:#181818;stroke-width:1.5;" width="10" x="89.23" y="237.82"/></g><!--link postgres to v_postgres--><g id="link_postgres_v_postgres"><path codeLine="67" d="M480.71,183.62 C481.8,201.61 482.9007,219.819 483.9807,237.829 " fill="none" id="postgres-to-v_postgres" style="stroke:#181818;stroke-width:1.0;"/><rect fill="#FFFFFF" height="10" style="stroke:#181818;stroke-width:1.5;" width="10" x="479.28" y="237.82"/></g><!--link redis to v_redis--><g id="link_redis_v_redis"><path codeLine="68" d="M687.24,183.62 C687.4,201.61 687.5584,219.8102 687.7084,237.8202 " fill="none" id="redis-to-v_redis" style="stroke:#181818;stroke-width:1.0;"/><rect fill="#FFFFFF" height="10" style="stroke:#181818;stroke-width:1.5;" width="10" x="682.75" y="237.82"/></g><!--SRC=[dPDVReGW48VVESKq-wnUm7Y4Nc3JDFwPTSaYOt2qwUqBWkuYgKcR-60-PZvW_Caq0XCqn4m3TD9WovAqUECx3WWjjRNfu6RiOfuNBuyGhhJMlKBGo5za7d1HihzpRn0rN440lFi5-rRAohloK5mMiX8VhvQmrzLLDw6wB9egwcv9SoqrchJVMT74_Pc7Hqt0PxQH9dUJwU3RS6BS5iwS1Zjv5AuiiQqqLKrCfkuHbiz_7syXDG_eX02nyg-d-zsqlSMkG1DRu2S-7iQ3ovB4OrdYk4axTjHBY6QZPd-glB0m7mrriy_xLlizA2XB6XsiLLMbZI68jj0rxT7FiX3W26rZZ-0wleZuE0eHVe4ikpod64DxII52qkCoiKV2ytrh_rqzz5l_0000]--></g></svg>